<svg width="41" height="41" fill="none" xmlns="http://www.w3.org/2000/svg"><path d="M27.846 23.233c.712 0 1.345-.277 1.9-.832.556-.556.833-1.203.833-1.944 0-.712-.277-1.338-.833-1.879-.555-.54-1.188-.811-1.9-.811s-1.346.27-1.9.811c-.556.541-.834 1.168-.834 1.88 0 .74.278 1.387.833 1.943.555.555 1.189.832 1.9.832Zm-20.073 7.73v2.264V7.773v23.19Zm0 5.168c-.74 0-1.41-.292-2.007-.875-.598-.584-.897-1.26-.897-2.029V7.773c0-.769.299-1.445.897-2.029.597-.583 1.267-.875 2.007-.875h25.454c.797 0 1.48.292 2.05.875.57.584.854 1.26.854 2.029v5.637h-2.904V7.773H7.773v25.454h25.454v-5.595h2.904v5.595c0 .769-.285 1.445-.854 2.029-.57.583-1.253.875-2.05.875H7.773Zm15.204-7.645c-.94 0-1.701-.284-2.285-.854-.584-.57-.875-1.324-.875-2.263v-9.695c0-.94.291-1.694.875-2.264.584-.569 1.345-.854 2.285-.854h11.787c.968 0 1.737.285 2.307.854.57.57.854 1.324.854 2.264v9.695c0 .94-.285 1.694-.854 2.263-.57.57-1.338.854-2.306.854H22.976Zm12.385-2.562V15.119H22.38v10.805h12.983Z" fill="#00E0FF"/></svg>