<svg width="342" height="596" fill="none" xmlns="http://www.w3.org/2000/svg"><g filter="url(#a)"><path clip-rule="evenodd" d="M0 2.5c163.167 0 295.44 132.273 295.44 295.44 0 50.3-12.57 97.664-34.74 139.122l-.401-.146-.684 1.879.125.046c-21.291 39.167-51.184 72.981-87.141 98.906l-.163-.136-.536.638C123.473 572.952 64.122 593.38 0 593.38v2c64.309 0 123.851-20.409 172.503-55.103l33.909 28.454 1.286-1.532-33.519-28.126c36.098-26.12 66.098-60.147 87.462-99.54l41.229 15.006.684-1.88-40.955-14.906c22.237-41.679 34.841-89.274 34.841-139.813 0-.561-.002-1.122-.005-1.682h44.195v-2h-44.212c-.608-50.102-13.603-97.221-36.064-138.439l42.2-15.36-.684-1.879-42.491 15.465c-21.624-39.046-51.776-72.713-87.941-98.488l35.26-29.587-1.286-1.532-35.262 29.588 1.28 1.525C123.791 20.888 64.277.5 0 .5v2Z" stroke-width="2" stroke="url(#b)"/></g><defs><linearGradient id="b" x1="170.815" y1=".5" x2="171" y2="807" gradientUnits="userSpaceOnUse"><stop stop-color="#0085FF"/><stop offset=".333" stop-color="#00E0FF"/><stop offset=".667" stop-color="#87E245"/><stop offset="1" stop-color="#B8E400"/></linearGradient><filter id="a" x="-50" y="-49.5" width="441.63" height="694.88" filterUnits="userSpaceOnUse" color-interpolation-filters="sRGB"><feFlood flood-opacity="0" result="BackgroundImageFix"/><feGaussianBlur in="BackgroundImageFix" stdDeviation="25"/><feComposite in2="SourceAlpha" operator="in" result="effect1_backgroundBlur_611_2131"/><feBlend in="SourceGraphic" in2="effect1_backgroundBlur_611_2131" result="shape"/></filter></defs></svg>