<svg width="1440" height="504" fill="none" xmlns="http://www.w3.org/2000/svg"><path fill-rule="evenodd" clip-rule="evenodd" d="M.497 6.073h5.888L5.89 0H0l.497 6.073Zm25.555 0h5.888L31.472.014h-5.889l.469 6.059Zm31.443.014h-5.889L51.138.014h5.889l.468 6.073Zm19.652 0h5.875l-.44-6.059h-5.889l.454 6.06Zm31.401.014-5.888-.014-.426-6.059 5.888.015.426 6.058Zm19.624 0h5.874l-.397-6.058h-5.874l.397 6.058Zm31.372 0h-5.874l-.383-6.044h5.874l.383 6.044Zm19.61.015h5.874l-.354-6.06h-5.889l.369 6.06Zm31.344.014-5.86-.014-.355-6.045h5.875l.34 6.059Zm19.595 0h5.875l-.327-6.06h-5.874l.326 6.059Zm31.316.014-5.86-.014-.312-6.045h5.874l.298 6.06Zm19.582 0h5.86L286.567.1l-5.874-.014.298 6.06Zm31.287 0h-5.86L306.148.1h5.86l.27 6.045Zm19.553.014h5.86l-.256-6.044-5.86-.015.256 6.06Zm31.259 0h-5.846l-.241-6.044h5.86l.227 6.044Zm19.538.014h5.861l-.227-6.044h-5.846l.212 6.044Zm31.231 0h-5.846l-.199-6.044h5.846l.199 6.044Zm19.525.015h5.846l-.185-6.045h-5.846l.185 6.045Zm31.202 0h-5.846l-.156-6.045 5.846.014.156 6.03Zm19.496.014h5.846l-.142-6.045h-5.846l.142 6.045Zm31.174 0h-5.832l-.128-6.03h5.832l.128 6.03Zm19.482.014h5.831L540.47.17h-5.832l.1 6.045Zm31.145 0h-5.831l-.086-6.03h5.832l.085 6.03Zm19.468.014h5.832l-.071-6.045h-5.832l.071 6.045Zm31.117 0h-5.832l-.042-6.03h5.817l.057 6.03Zm19.439 0 5.832.014-.028-6.03-5.832-.015.028 6.031Zm31.089.014h-5.818l-.014-6.03h5.818l.014 6.03ZM686.435.227h5.818v6.03h-5.818V.227Zm31.047 6.03h-5.818l.028-6.03h5.818l-.028 6.03Zm19.411 0 5.817.015.043-6.03h-5.818l-.042 6.015Zm31.031.015h-5.803l.057-6.03h5.817l-.071 6.03Zm19.397 0h5.804l.085-6.017h-5.818l-.071 6.017Zm31.004.014h-5.804l.085-6.03 5.818.014-.099 6.016Zm19.368 0h5.804L843.61.27h-5.803l-.114 6.016Zm30.975.014h-5.803l.142-6.016h5.789l-.128 6.016Zm25.158 0h-5.804l.156-6.016h5.804l-.156 6.016ZM2.483 30.053h5.86l-.482-6.03H1.986l.497 6.03Zm31.344 0h-5.86l-.482-6.03h5.874l.468 6.03Zm19.61 0h5.86l-.454-6.03h-5.875l.469 6.03Zm31.316 0h-5.86l-.44-6.016h5.874l.426 6.016Zm19.58 0h5.875l-.426-6.016h-5.86l.411 6.016Zm31.302 0h-5.86l-.397-6.016h5.86l.397 6.016Zm19.567.014h5.86l-.383-6.03h-5.86l.383 6.03Zm31.259 0h-5.846l-.369-6.03h5.86l.355 6.03Zm19.553 0h5.846l-.341-6.016h-5.846l.341 6.016Zm31.245 0h-5.86l-.326-6.016h5.86l.326 6.016Zm19.525 0h5.846l-.313-6.016h-5.846l.313 6.016Zm31.201 0h-5.831l-.298-6.016h5.846l.283 6.016Zm19.511 0h5.846l-.269-6.016h-5.846l.269 6.016Zm31.188 0h-5.846l-.241-6.016h5.832l.255 6.016Zm19.496 0h5.832l-.227-6.002h-5.846l.241 6.002Zm31.146 0h-5.832l-.213-6.002h5.832l.213 6.002Zm19.481.014h5.818l-.185-6.016h-5.831l.198 6.016Zm31.118 0h-5.832l-.17-6.016h5.832l.17 6.016Zm19.453 0h5.832l-.156-6.016h-5.832l.156 6.016Zm31.089 0h-5.818l-.142-6.002h5.832l.128 6.002Zm19.439 0h5.818l-.114-6.002h-5.817l.113 6.002Zm31.075 0h-5.818l-.113-6.002h5.832l.099 6.002Zm19.411 0h5.817l-.085-6.002h-5.817l.085 6.002Zm31.046 0h-5.818l-.071-6.002h5.818l.071 6.002Zm19.397 0h5.803l-.042-5.988h-5.804l.043 5.988Zm31.018 0h-5.818l-.028-5.988h5.803l.043 5.988Zm19.382 0h5.804l-.015-5.988h-5.803l.014 5.988Zm30.975-5.988h-5.803v5.988h5.803v-5.988Zm19.368 5.988h5.79l.028-5.988h-5.803l-.015 5.988Zm30.947.015h-5.789l.043-6.003h5.789l-.043 6.003Zm19.355 0h5.789l.071-5.988h-5.804l-.056 5.988Zm30.918 0h-5.789l.085-5.988h5.789l-.085 5.988Zm19.326 0h5.789l.1-5.988h-5.789l-.1 5.988Zm30.904 0h-5.789l.113-5.988h5.79l-.114 5.988Zm19.312 0h5.775l.142-5.988h-5.79l-.127 5.988Zm30.862 0h-5.775l.141-5.974h5.79l-.156 5.974ZM4.441 53.906h5.86l-.496-6.003h-5.86l.496 6.002ZM35.7 53.89h-5.846l-.483-5.988h5.86l.469 5.988Zm19.553 0h5.846l-.454-5.988h-5.846l.454 5.988Zm31.23 0h-5.845l-.44-5.988h5.846l.44 5.988Zm19.525 0h5.846l-.411-6.002h-5.846l.411 6.002Zm31.202-.014h-5.846l-.397-5.988h5.846l.397 5.988Zm19.51 0h5.846l-.383-5.988h-5.846l.383 5.988Zm31.174 0h-5.832l-.368-5.988h5.846l.354 5.988Zm19.496-.015h5.832l-.341-5.987-5.846.014.355 5.973Zm31.146 0h-5.832l-.326-5.987h5.832l.326 5.987Zm19.468 0h5.832l-.298-5.987h-5.832l.298 5.987Zm31.117-.014h-5.818l-.298-5.973h5.832l.284 5.973Zm19.453 0h5.832l-.27-5.973h-5.831l.269 5.973Zm31.089 0h-5.817l-.256-5.973 5.832-.014.241 5.987Zm19.439 0h5.818l-.227-5.987h-5.818l.227 5.987Zm31.061-.014h-5.818l-.213-5.974h5.818l.213 5.974Zm19.425 0h5.804l-.185-5.974h-5.818l.199 5.974Zm31.032 0h-5.817l-.171-5.974h5.804l.184 5.974Zm19.397-.014h5.803l-.156-5.96h-5.803l.156 5.96Zm407.559-.071-5.761.014.128-5.96h5.775l-.142 5.946Zm-150.308.028h-5.789l.029-5.96h5.789l-.029 5.96Zm-100.445.014-5.789.015-.043-5.974h5.789l.043 5.96Zm-125.803.029h-5.803l-.142-5.974h5.803l.142 5.974Zm25.187 0h-5.804l-.128-5.974h5.804l.128 5.974Zm19.368-.014h5.803l-.099-5.96h-5.804l.1 5.96Zm30.961 0h-5.79l-.085-5.96h5.79l.085 5.96Zm19.354 0h5.804l-.071-5.96h-5.79l.057 5.96Zm50.273-.014h5.789l-.028-5.96h-5.789l.028 5.96Zm30.904 0h-5.789l-.014-5.96h5.803v5.96Zm19.326-5.96h5.789v5.96h-5.789v-5.96Zm50.173 5.945h5.775l.057-5.96h-5.789l-.043 5.96Zm30.848 0h-5.775l.056-5.96h5.775l-.056 5.96Zm19.283 0 5.775-.014.085-5.945h-5.775l-.085 5.96Zm30.819-.014h-5.76l.085-5.945h5.775l-.1 5.945Zm19.269 0h5.761l.128-5.945h-5.775l-.114 5.945Zm50.046-.014h5.761l.141-5.945h-5.76l-.142 5.945ZM12.246 77.615H6.4l-.497-5.96 5.846-.013.497 5.973Zm19.482-.014h5.846l-.469-5.96H31.26l.469 5.96Zm31.16-.014h-5.833l-.454-5.96h5.846l.44 5.96Zm19.481 0 5.832-.014-.44-5.945H81.93l.44 5.959Zm31.132-.014h-5.832l-.412-5.96h5.832l.412 5.96Zm19.453-.014h5.831l-.397-5.946h-5.832l.398 5.946Zm31.103 0h-5.818l-.383-5.96h5.832l.369 5.96Zm19.439-.015h5.818l-.355-5.96h-5.817l.354 5.96Zm31.074-.014h-5.817l-.341-5.945h5.818l.34 5.945Zm19.426 0 5.817-.014-.326-5.945h-5.818l.327 5.96Zm31.046-.014h-5.818l-.312-5.945h5.818l.312 5.945Zm19.397-.014h5.818l-.284-5.945h-5.818l.284 5.945Zm31.017-.014-5.803.014-.27-5.945 5.804-.015.269 5.946Zm19.397 0h5.789l-.241-5.946h-5.803l.255 5.946Zm30.976-.015h-5.804l-.227-5.945h5.804l.227 5.945Zm19.368-.014h5.804l-.213-5.93h-5.804l.213 5.93Zm30.961 0h-5.789l-.199-5.945h5.79l.198 5.945Zm19.354-.014h5.789l-.17-5.931h-5.789l.17 5.931Zm30.933-.014-5.789.014-.171-5.945h5.804l.156 5.93Zm19.325 0h5.79l-.128-5.945h-5.804l.142 5.945Zm30.905-.014h-5.789l-.114-5.931h5.789l.114 5.93ZM536 77.403h5.775l-.099-5.931h-5.789l.113 5.93Zm30.862 0h-5.775l-.085-5.931h5.775l.085 5.93Zm19.298-.015h5.789l-.071-5.93h-5.775l.057 5.93Zm30.848-.014h-5.776l-.042-5.93h5.775l.043 5.93Zm19.283 0h5.775l-.029-5.93h-5.775l.029 5.93Zm30.819-.014h-5.775l-.014-5.931h5.775l.014 5.931Zm19.255-.014h5.775v-5.917h-5.761l-.014 5.917Zm30.79 0h-5.761l.028-5.931h5.761l-.028 5.93Zm19.255-.014h5.747l.057-5.917h-5.775l-.029 5.917Zm30.748-.014h-5.76l.056-5.917h5.775l-.071 5.917Zm19.227 0 5.761-.015.085-5.917h-5.761l-.085 5.931Zm30.734-.015h-5.747l.086-5.917h5.761l-.1 5.917Zm19.212-.014h5.747l.128-5.917h-5.761l-.114 5.917Zm30.706 0h-5.747l.128-5.917h5.746l-.127 5.917Zm19.198-.014h5.747l.141-5.917h-5.746l-.142 5.917ZM14.161 101.184H8.343l-.482-5.931h5.817l.483 5.931Zm19.44-.014h5.817l-.468-5.931h-5.818l.468 5.931Zm31.074-.014h-5.818l-.454-5.931h5.818l.454 5.931Zm19.425-.015h5.803l-.425-5.93-5.818.014.44 5.916Zm31.032-.014h-5.818l-.411-5.93h5.817l.412 5.93Zm19.397-.014 5.818-.014-.398-5.917h-5.817l.397 5.931Zm31.018-.014h-5.804l-.383-5.917 5.803-.014.384 5.931Zm19.382-.014 5.804-.015-.355-5.916-5.804.014.355 5.917Zm30.976-.029-5.79.014-.34-5.916 5.803-.015.327 5.917Zm19.368 0 5.804-.014-.313-5.917-5.803.014.312 5.917Zm30.961-.028h-5.804l-.298-5.903 5.804-.014.298 5.917Zm19.354-.014h5.789l-.284-5.903h-5.803l.298 5.903Zm30.918-.015h-5.789l-.269-5.902h5.789l.269 5.902Zm19.326-.014h5.79l-.241-5.903h-5.79l.241 5.903Zm30.905-.014h-5.79l-.227-5.903h5.79l.227 5.903Zm19.311-.014h5.775l-.199-5.903h-5.789l.213 5.903Zm30.862-.014h-5.775l-.199-5.903h5.789l.185 5.903Zm19.312-.015h5.775l-.185-5.902h-5.775l.185 5.902Zm30.833-.014h-5.775l-.156-5.903h5.775l.156 5.903Zm19.283-.014h5.761l-.128-5.903h-5.775l.142 5.903Zm30.805-.014h-5.775l-.114-5.903h5.775l.114 5.903Zm19.269-.014h5.761l-.1-5.903h-5.775l.114 5.903Zm30.776-.015h-5.76l-.086-5.902h5.761l.085 5.902Zm19.241-.014 5.761-.014-.057-5.889h-5.761l.057 5.903Zm30.763-.028-5.761.014-.057-5.903h5.775l.043 5.889Zm19.226 0 5.747-.014-.029-5.889h-5.746l.028 5.903Zm30.72-5.917h-5.761v5.888h5.761v-5.888Zm19.212 5.889 5.747-.014.014-5.889h-5.761v5.903Zm30.692-.029h-5.747l.028-5.888h5.747l-.028 5.888Zm19.198-.014h5.747l.042-5.888h-5.746l-.043 5.888Zm30.677-.014h-5.747l.057-5.889h5.747l-.057 5.889Zm19.17-.014h5.732l.085-5.889h-5.746l-.071 5.889Zm30.635-.015h-5.733l.1-5.874 5.732-.014-.099 5.888Zm19.155-.014h5.747l.114-5.888-5.747.014-.114 5.874Zm30.62-.014h-5.732l.127-5.874 5.733-.015-.128 5.889Zm19.142-.014h5.733l.141-5.889-5.732.014-.142 5.875ZM16.077 124.624h-5.804l-.482-5.902h5.803l.483 5.902Zm19.382-.028h5.804l-.454-5.889H34.99l.468 5.889Zm30.975-.014h-5.79l-.453-5.889 5.803-.014.44 5.903Zm19.368-.029h5.804l-.426-5.888-5.803.014.425 5.874Zm30.948-.013h-5.79l-.411-5.889h5.803l.398 5.889Zm19.354-.015 5.789-.014-.397-5.874h-5.789l.397 5.888Zm30.919-.028h-5.79l-.383-5.889h5.804l.369 5.889Zm19.325-.014 5.789-.014-.354-5.875h-5.79l.355 5.889Zm30.89-.029h-5.775l-.34-5.874 5.789-.014.326 5.888Zm19.312-.014h5.789l-.326-5.888h-5.775l.312 5.888Zm30.876-.028h-5.789l-.298-5.875h5.775l.312 5.875Zm19.283-.014h5.775l-.269-5.889-5.789.014.283 5.875Zm30.833-.029-5.775.014-.255-5.888h5.775l.255 5.874Zm19.283-.014h5.775l-.255-5.874h-5.761l.241 5.874Zm30.806-.028-5.761.014-.241-5.875 5.775-.014.227 5.875Zm19.255-.015h5.775l-.213-5.874h-5.775l.213 5.874Zm30.79-.028-5.775.014-.184-5.874h5.761l.198 5.86Zm19.241-.014h5.761l-.171-5.875-5.775.015.185 5.86Zm30.748-.014h-5.761l-.156-5.875h5.761l.156 5.875Zm423.096-.355-5.718.014.156-5.846 5.718-.014-.156 5.846Zm-30.507.028h5.704l.142-5.846h-5.718l-.128 5.846Zm-19.098.014-5.719.015.114-5.861h5.718l-.113 5.846Zm-30.536.029h5.719l.099-5.86-5.733.014-.085 5.846Zm-19.113.014-5.732.014.085-5.86h5.718l-.071 5.846Zm-30.578.028h5.733l.057-5.86H761l-.071 5.86Zm-19.127.015h-5.718l.028-5.846 5.733-.015-.043 5.861Zm-30.592.028 5.732-.014.029-5.846h-5.733l-.028 5.86Zm-19.141.014h-5.733v-5.86h5.733v5.86Zm-30.635-5.832h5.732v5.861h-5.732v-5.861Zm-19.155 5.875h-5.747l-.028-5.86h5.746l.029 5.86Zm-30.649.014h5.732l-.042-5.86h-5.747l.057 5.86Zm-19.184.028h-5.747l-.071-5.86 5.747-.014.071 5.874Zm-30.677.014h5.746l-.085-5.86h-5.747l.086 5.86Zm-19.199.014-5.76.015-.1-5.875h5.761l.099 5.86Zm-30.72.029h5.761l-.113-5.875-5.761.015.113 5.86Zm-24.958.028 5.746-.014-.127-5.86h-5.761l.142 5.874ZM12.203 147.923h5.79l-.483-5.86h-5.79l.483 5.86Zm30.89-.028h-5.775l-.468-5.846 5.789-.014.454 5.86Zm19.326-.014 5.775-.014-.44-5.861-5.79.015.455 5.86Zm30.876-.043-5.79.014-.425-5.86h5.79l.425 5.846Zm19.297-.014 5.775-.014-.411-5.846h-5.775l.411 5.86Zm30.848-.028h-5.775l-.398-5.846 5.775-.015.398 5.861Zm19.283-.029h5.761l-.369-5.846h-5.775l.383 5.846Zm30.819-.028-5.775.014-.354-5.86h5.775l.354 5.846Zm19.255-.014 5.775-.015-.34-5.846h-5.761l.326 5.861Zm30.791-.043-5.761.014-.327-5.846 5.775-.014.313 5.846Zm19.255-.014h5.761l-.298-5.846h-5.775l.312 5.846Zm30.748-.029h-5.747l-.284-5.846h5.761l.27 5.846Zm19.241-.028h5.746l-.255-5.846-5.761.014.27 5.832Zm30.733-.028-5.76.014-.242-5.846 5.761-.014.241 5.846Zm19.213-.015 5.747-.014-.228-5.832h-5.746l.227 5.846Zm30.705-.028h-5.761l-.198-5.846h5.746l.213 5.846Zm19.184-.028h5.747l-.185-5.846-5.746.014.184 5.832Zm30.678-.028h-5.747l-.17-5.832h5.746l.171 5.832Zm19.183-.015 5.733-.014-.142-5.832h-5.747l.156 5.846Zm30.649-.042-5.746.014-.128-5.832 5.732-.014.142 5.832Zm19.156-.014h5.732l-.113-5.832h-5.733l.114 5.832Zm30.62-.029h-5.732l-.099-5.832h5.732l.099 5.832Zm19.142-.028h5.732l-.071-5.832-5.746.014.085 5.818Zm30.592-.029-5.718.014-.071-5.831 5.732-.015.057 5.832Zm19.127-.014 5.732-.014-.042-5.818h-5.733l.043 5.832Zm30.564-.028h-5.719l-.028-5.832h5.718l.029 5.832Zm19.112-5.855 5.718-.006.006 5.832-5.718.006-.006-5.832Zm30.536 5.798-5.718.014.014-5.832h5.718l-.014 5.818Zm19.099-.014 5.704-.015.028-5.817h-5.718l-.014 5.832Zm30.507-.043-5.718.015.042-5.818 5.719-.014-.043 5.817Zm19.07-.014h5.704l.071-5.817h-5.718l-.057 5.817Zm30.479-.028h-5.704l.071-5.818h5.718l-.085 5.818Zm19.056-.029h5.704l.1-5.817-5.704.014-.1 5.803Zm30.464-.028-5.704.014.1-5.817h5.718l-.114 5.803Zm19.028-.014h5.704l.128-5.818h-5.704l-.128 5.818Zm30.436-.029h-5.704l.142-5.803 5.704-.014-.142 5.817Zm-876.06 24.065h5.774l-.482-5.831h-5.775l.482 5.831Zm30.819-.042-5.776.014-.454-5.832h5.761l.469 5.818Zm19.254-.014 5.775-.015-.44-5.817h-5.775l.44 5.832Zm30.791-.043-5.76.014-.426-5.832h5.76l.426 5.818Zm19.241-.028h5.761l-.398-5.818h-5.775l.412 5.818Zm30.762-.029h-5.761l-.397-5.817 5.761-.014.397 5.831Zm19.227-.028 5.746-.014-.354-5.818-5.761.014.369 5.818Zm30.72-.043-5.747.015-.355-5.818 5.761-.014.341 5.817Zm19.212-.014 5.761-.014-.341-5.818-5.747.015.327 5.817Zm30.705-.042h-5.746l-.327-5.804 5.761-.014.312 5.818Zm19.185-.029h5.746l-.284-5.817-5.76.014.298 5.803Zm30.677-.028h-5.747l-.27-5.804 5.747-.014.27 5.818Zm19.184-.029 5.732-.014-.255-5.803h-5.747l.27 5.817Zm30.634-.042-5.732.014-.241-5.818h5.732l.241 5.804Zm19.156-.014 5.747-.015-.227-5.803h-5.747l.227 5.818Zm30.62-.043h-5.732l-.213-5.803h5.747l.198 5.803Zm19.142-.028h5.732l-.184-5.804h-5.733l.185 5.804Zm30.592-.028h-5.733l-.17-5.804h5.732l.171 5.804Zm19.113-.029 5.732-.014-.156-5.803-5.718.014.142 5.803Zm30.564-.042-5.719.014-.142-5.804 5.733-.014.128 5.804Zm19.112-.015 5.719-.014-.114-5.803-5.732.014.127 5.803Zm30.536-.042h-5.718l-.1-5.79 5.719-.014.099 5.804Zm19.084-.029h5.719l-.085-5.803-5.719.014.085 5.789Zm30.507-.028h-5.718l-.057-5.789 5.704-.015.071 5.804Zm19.071-.028h5.704l-.043-5.804-5.704.014.043 5.79Zm30.478-.043-5.704.014-.042-5.803h5.718l.028 5.789Zm19.034-5.788 5.704-.007.007 5.79-5.704.007-.007-5.79Zm30.473 5.731-5.704.014v-5.803h5.704v5.789Zm19.028-.028h5.704l.028-5.79h-5.704l-.028 5.79Zm30.421-.028h-5.689l.042-5.79h5.69l-.043 5.79Zm19.028-.029 5.69-.014.057-5.775h-5.69l-.057 5.789Zm30.394-.042-5.69.014.071-5.789h5.69l-.071 5.775Zm18.999-.015 5.69-.014.099-5.775h-5.689l-.1 5.789Zm30.365-.042-5.69.014.114-5.789h5.69l-.114 5.775Zm18.986-.029h5.69l.127-5.775h-5.69l-.127 5.775Zm30.336-.028h-5.676l.142-5.775h5.69l-.156 5.775Zm-873.55 24.108h5.762l-.483-5.79h-5.76l.482 5.79Zm30.72-.043-5.746.014-.468-5.789 5.76-.014.455 5.789Zm19.213-.028h5.746l-.44-5.79h-5.746l.44 5.79Zm30.691-.043-5.746.014-.426-5.789 5.76-.014.412 5.789Zm19.199-.028h5.746l-.411-5.79h-5.747l.412 5.79Zm30.662-.043-5.746.014-.383-5.789 5.746-.014.383 5.789Zm19.17-.028h5.747l-.369-5.789-5.747.014.369 5.775Zm30.649-.043-5.747.014-.34-5.789h5.732l.355 5.775Zm19.156-.028h5.732l-.326-5.789-5.747.014.341 5.775Zm30.606-.043-5.733.014-.312-5.789h5.733l.312 5.775Zm19.141-.028h5.733l-.298-5.789-5.733.014.298 5.775Zm30.578-.043-5.718.014-.284-5.789h5.733l.269 5.775Zm19.127-.028 5.719-.014-.256-5.775-5.732.014.269 5.775Zm30.55-.043-5.718.014-.242-5.789h5.733l.227 5.775Zm19.113-.028h5.718l-.227-5.789-5.718.014.227 5.775Zm30.521-.042-5.718.014-.199-5.775 5.718-.014.199 5.775Zm19.085-.029 5.718-.014-.185-5.761h-5.718l.185 5.775Zm30.507-.042h-5.704l-.185-5.761 5.718-.014.171 5.775Zm19.07-.029 5.704-.014-.156-5.761h-5.704l.156 5.775Zm30.464-.042h-5.704l-.127-5.761 5.704-.015.127 5.776Zm19.057-.029 5.704-.014-.114-5.761-5.704.014.114 5.761Zm30.45-.042h-5.704l-.1-5.761h5.704l.1 5.761Zm19.028-.029 5.704-.014-.085-5.761-5.69.014.071 5.761Zm30.422-.042h-5.69l-.071-5.761h5.704l.057 5.761Zm19.013-.029 5.704-.014-.057-5.761-5.69.014.043 5.761Zm30.394-.042h-5.69l-.029-5.761h5.69l.029 5.761Zm19.034-5.867 5.69-.009.009 5.761-5.69.009-.009-5.761Zm30.33 5.796h-5.69l.014-5.761h5.69l-.014 5.761Zm18.986-.029 5.675-.014.029-5.761-5.676.015-.028 5.76Zm30.336-.042h-5.676l.043-5.747 5.676-.014-.043 5.761Zm18.971-.029 5.676-.014.057-5.746h-5.676l-.057 5.76Zm30.308-.042h-5.675l.071-5.747 5.675-.014-.071 5.761Zm18.943-.029 5.676-.014.099-5.746h-5.675l-.1 5.76Zm30.28-.042h-5.661l.099-5.747 5.676-.014-.114 5.761Zm18.929-.029 5.675-.014.128-5.746-5.676.014-.127 5.746Zm30.251-.042h-5.661l.156-5.747h5.661l-.156 5.747ZM17.893 217.039l5.747-.014-.483-5.761-5.732.014.468 5.761Zm30.635-.056-5.733.014-.454-5.761h5.733l.454 5.747Zm19.155-.029 5.732-.014-.44-5.747h-5.732l.44 5.761Zm30.606-.042h-5.732l-.412-5.761h5.733l.411 5.761Zm19.142-.043h5.718l-.397-5.761-5.733.014.412 5.747Zm30.578-.043h-5.733l-.383-5.746 5.733-.014.383 5.76Zm19.113-.042h5.718l-.355-5.761-5.732.014.369 5.747Zm30.549-.043-5.718.014-.341-5.76h5.719l.34 5.746Zm19.113-.028 5.719-.014-.341-5.747-5.718.014.34 5.747Zm30.521-.057-5.718.014-.312-5.746 5.718-.015.312 5.747Zm19.085-.028 5.704-.014-.284-5.747-5.718.014.298 5.747Zm30.493-.057-5.704.014-.284-5.746 5.718-.014.27 5.746Zm19.07-.028 5.704-.014-.255-5.733h-5.704l.255 5.747Zm30.465-.043h-5.705l-.241-5.746h5.704l.242 5.746Zm19.056-.042h5.69l-.213-5.747-5.704.014.227 5.733Zm30.436-.043-5.704.014-.199-5.747 5.704-.014.199 5.747Zm19.028-.028 5.704-.015-.185-5.746-5.704.014.185 5.747Zm30.421-.057-5.689.014-.171-5.747h5.69l.17 5.733Zm19.014-.029 5.69-.014-.142-5.732-5.704.014.156 5.732Zm30.394-.056-5.69.014-.142-5.732 5.69-.015.142 5.733Zm18.985-.029 5.69-.014-.114-5.732-5.69.014.114 5.732Zm30.365-.056-5.69.014-.099-5.733h5.69l.099 5.719Zm18.985-.029h5.676l-.071-5.732h-5.69l.085 5.732Zm30.323-.042h-5.676l-.057-5.719 5.676-.014.057 5.733Zm18.971-.029 5.676-.014-.043-5.732-5.69.014.057 5.732Zm30.308-.057-5.676.015-.028-5.733 5.676-.014.028 5.732Zm18.886-5.667 5.676-.009.008 5.732-5.675.009-.009-5.732Zm30.337 5.582-5.676.014v-5.718l5.676-.014v5.718Zm18.928-.028 5.662-.014.028-5.718-5.676.014-.014 5.718Zm30.252-.042h-5.676l.043-5.719 5.676-.014-.043 5.733Zm18.914-.043h5.647l.071-5.718h-5.675l-.043 5.718Zm30.209-.043h-5.647l.071-5.718h5.661l-.085 5.718Zm92.5-.156 5.647-.014.142-5.704h-5.647l-.142 5.718Zm-18.872.028-5.647.015.128-5.719 5.647-.014-.128 5.718Zm-30.18.057 5.647-.014.113-5.718-5.647.014-.113 5.718Zm-24.548.043 5.662-.014.085-5.719-5.647.015-.1 5.718ZM25.498 239.799l-5.718.014-.483-5.732h5.733l.468 5.718Zm19.099-.029 5.718-.014-.44-5.718h-5.732l.454 5.732Zm30.535-.056h-5.718l-.426-5.719 5.719-.014.425 5.733Zm19.1-.043h5.704l-.412-5.732-5.718.014.425 5.718Zm30.506-.056-5.718.014-.397-5.718 5.718-.015.397 5.719Zm19.07-.029 5.705-.014-.384-5.718-5.704.014.383 5.718Zm30.479-.057h-5.704l-.369-5.718h5.704l.369 5.718Zm19.057-.042h5.704l-.355-5.719h-5.704l.355 5.719Zm30.45-.057-5.704.014-.327-5.718 5.704-.014.327 5.718Zm19.027-.028 5.705-.015-.313-5.718-5.704.014.312 5.719Zm30.436-.057-5.704.014-.298-5.718 5.704-.015.298 5.719Zm19.014-.043h5.69l-.27-5.718-5.69.014.27 5.704Zm30.393-.056-5.69.014-.255-5.718h5.69l.255 5.704Zm19.014-.029 5.69-.014-.241-5.704h-5.69l.241 5.718Zm30.365-.057-5.69.015-.213-5.719 5.69-.014.213 5.718Zm18.985-.042h5.69l-.213-5.718-5.675.014.198 5.704Zm30.337-.057-5.676.014-.184-5.704 5.676-.014.184 5.704Zm18.971-.028 5.676-.015-.156-5.704-5.69.015.17 5.704Zm30.323-.057-5.676.014-.156-5.704 5.676-.014.156 5.704Zm18.957-.042h5.661l-.128-5.705-5.675.015.142 5.69Zm30.28-.057-5.676.014-.113-5.704h5.675l.114 5.69Zm18.942-.029 5.662-.014-.1-5.69h-5.675l.113 5.704Zm30.252-.056-5.662.014-.085-5.704 5.676-.015.071 5.705Zm18.914-.043h5.661l-.056-5.704-5.662.014.057 5.69Zm30.237-.057-5.661.014-.043-5.69 5.662-.014.042 5.69Zm18.901-.028 5.661-.014-.028-5.69-5.661.014.028 5.69Zm30.232-5.814-5.661.011.011 5.689 5.661-.01-.011-5.69Zm18.862 5.729 5.648-.014.014-5.69h-5.662v5.704Zm30.181-.057h-5.647l.014-5.69h5.661l-.028 5.69Zm18.858-.043 5.647-.014.057-5.69-5.662.014-.042 5.69Zm30.152-.056-5.633.014.043-5.69 5.661-.014-.071 5.69Zm18.858-.029 5.647-.014.071-5.69-5.647.014-.071 5.69Zm30.123-.057h-5.647l.099-5.675 5.648-.015-.1 5.69Zm18.83-.042h5.647l.099-5.69-5.633.014-.113 5.676Zm30.095-.057-5.633.014.128-5.676 5.633-.014-.128 5.676Zm18.815-.028 5.633-.014.157-5.676h-5.634l-.156 5.69ZM27.343 262.445l-5.704.014-.468-5.69 5.704-.014.468 5.69Zm19.056-.043h5.704l-.454-5.704-5.704.014.454 5.69Zm30.45-.056-5.704.014-.44-5.69 5.704-.014.44 5.69Zm19.028-.043 5.704-.014-.411-5.69-5.704.014.411 5.69Zm30.422-.057-5.69.015-.397-5.69 5.69-.014.397 5.689Zm19.027-.042 5.69-.014-.383-5.69-5.69.014.383 5.69Zm30.38-.057h-5.69l-.354-5.676 5.69-.014.354 5.69Zm18.999-.043 5.69-.014-.34-5.69-5.69.015.34 5.689Zm30.38-.071-5.69.015-.326-5.676 5.689-.014.327 5.675Zm18.971-.028 5.69-.014-.312-5.69-5.676.014.298 5.69Zm30.337-.071-5.676.015-.284-5.676 5.676-.014.284 5.675Zm18.971-.042h5.675l-.269-5.69-5.676.014.27 5.676Zm30.308-.057-5.661.014-.27-5.676 5.69-.014.241 5.676Zm18.957-.043h5.676l-.241-5.69-5.676.015.241 5.675Zm30.28-.056-5.662.014-.227-5.676 5.676-.014.213 5.676Zm18.928-.043 5.676-.014-.198-5.676-5.676.014.198 5.676Zm30.266-.057-5.662.014-.198-5.675 5.676-.015.184 5.676Zm18.914-.042 5.662-.014-.171-5.676-5.661.014.17 5.676Zm30.223-.057h-5.661l-.142-5.662 5.662-.014.141 5.676Zm18.901-.043 5.662-.014-.128-5.675-5.662.014.128 5.675Zm30.208-.071-5.661.015-.114-5.662 5.662-.014.113 5.661Zm18.873-.028 5.661-.014-.099-5.676-5.662.014.1 5.676Zm30.18-.071-5.647.014-.086-5.661 5.662-.015.071 5.662Zm18.858-.028 5.647-.015-.057-5.675-5.647.014.057 5.676Zm30.152-.071-5.647.014-.043-5.661 5.648-.015.042 5.662Zm18.857-.043h5.634l-.029-5.675-5.633.014.028 5.661Zm30.119-5.748-5.648.012.012 5.661 5.648-.012-.012-5.661Zm18.835 5.649 5.633-.014v-5.662l-5.633.014v5.662Zm30.081-.057-5.633.014.028-5.661 5.633-.014-.028 5.661Zm18.815-.043 5.633-.014.042-5.647h-5.633l-.042 5.661Zm30.067-.056-5.619.014.057-5.662 5.633-.014-.071 5.662Zm18.801-.043 5.633-.014.071-5.647h-5.633l-.071 5.661Zm30.038-.056h-5.619l.085-5.648 5.634-.014-.1 5.662Zm18.787-.043 5.619-.014.114-5.648-5.633.015-.1 5.647Zm30.011-.057h-5.62l.128-5.647 5.619-.014-.127 5.661Zm18.758-.042 5.619-.015.156-5.647-5.633.014-.142 5.648ZM29.187 284.964l-5.69.014-.468-5.662 5.69-.014.468 5.662Zm19-.043 5.69-.014-.454-5.662-5.69.014.454 5.662Zm30.365-.071-5.69.014-.425-5.661 5.675-.015.44 5.662Zm18.97-.043 5.691-.014-.412-5.661-5.69.014.412 5.661Zm30.338-.071-5.676.015-.397-5.648 5.675-.014.398 5.647Zm18.971-.042 5.675-.014-.383-5.648-5.675.014.383 5.648Zm30.294-.071-5.662.014-.369-5.647 5.676-.014.355 5.647Zm18.957-.043h5.676l-.341-5.661-5.676.014.341 5.647Zm30.28-.056-5.676.014-.326-5.662 5.676-.014.326 5.662Zm18.928-.043 5.662-.014-.298-5.662-5.676.014.312 5.662Zm30.252-.071-5.662.014-.297-5.647 5.675-.014.284 5.647Zm18.914-.043 5.662-.014-.27-5.647-5.661.014.269 5.647Zm30.223-.071-5.661.015-.256-5.648 5.662-.014.255 5.647Zm18.901-.042 5.647-.014-.227-5.647-5.662.014.242 5.647ZM918.09 6.314h-5.79l.171-6.016h5.789l-.17 6.016Zm-39.858 386.602 5.534-.014.142-5.463-5.534.014-.142 5.463Zm-18.446.071-5.534.014.128-5.463 5.534-.028-.128 5.477Zm-29.514.085 5.52-.015.114-5.462-5.534.014-.1 5.463Zm-18.474.071-5.534.014.085-5.463 5.534-.028-.085 5.477Zm-29.542.085 5.534-.014.07-5.463-5.533.014-.071 5.463Zm-18.489.071-5.534.014.057-5.477 5.534-.014-.057 5.477Zm-29.571.099 5.548-.028.043-5.463-5.548.014-.043 5.477Zm-18.502.057-5.534.014.014-5.477 5.548-.014-.028 5.477Zm-29.585.099 5.534-.014.014-5.477-5.548.014v5.477Zm-18.508-5.459-5.548.019.018 5.477 5.548-.019-.018-5.477Zm-29.636 5.615 5.548-.014-.029-5.477-5.548.014.029 5.477Zm-18.531.057-5.548.014-.057-5.477 5.562-.014.043 5.477Zm-29.656.099 5.562-.014-.057-5.477-5.562.014.057 5.477Zm-18.546.057-5.562.029-.071-5.492 5.562-.014.071 5.477Zm-29.669.1 5.548-.015-.085-5.477-5.562.014.099 5.478Zm-18.574.071-5.562.014-.114-5.492 5.563-.014.113 5.492Zm-29.698.084 5.562-.014-.128-5.477-5.562.014.128 5.477Zm-18.588.071-5.562.015-.142-5.492 5.562-.014.142 5.491Zm-29.713.1 5.563-.029-.157-5.477-5.576.015.17 5.491Zm-18.602.057-5.576.014-.185-5.491 5.577-.015.184 5.492Zm-29.755.099 5.577-.029-.199-5.477-5.576.014.198 5.492Zm-24.192.071 5.576-.014-.213-5.492-5.576.014.213 5.492ZM40.014 417.449l-5.59.014-.455-5.463 5.605-.028.44 5.477Zm18.687-.071 5.59-.014-.44-5.477-5.59.028.44 5.463Zm29.854-.099-5.59.028-.426-5.477 5.59-.028.426 5.477Zm18.659-.057 5.591-.029-.397-5.462-5.591.014.397 5.477Zm29.826-.114-5.59.029-.383-5.477 5.59-.015.383 5.463Zm18.645-.056 5.576-.029-.354-5.463-5.591.015.369 5.477Zm29.797-.114-5.576.028-.355-5.477 5.591-.014.34 5.463Zm18.631-.057 5.577-.028-.327-5.463-5.576.014.326 5.477Zm29.783-.099-5.576.014-.312-5.462 5.576-.029.312 5.477Zm18.602-.071 5.577-.014-.298-5.477-5.562.028.283 5.463Zm29.755-.099-5.576.014-.27-5.463 5.563-.014.283 5.463Zm18.603-.071 5.562-.014-.256-5.463-5.576.014.27 5.463Zm29.712-.099-5.562.014-.242-5.463 5.563-.014.241 5.463Zm18.588-.071 5.562-.014-.227-5.463-5.562.014.227 5.463Zm29.698-.1-5.562.014-.213-5.448 5.562-.029.213 5.463Zm18.56-.071 5.562-.014-.199-5.463-5.562.029.199 5.448Zm29.669-.099-5.562.014-.17-5.449 5.562-.014.17 5.449Zm18.546-.057 5.562-.028-.17-5.449-5.548.014.156 5.463Zm29.641-.113-5.548.028-.142-5.463 5.548-.014.142 5.449Zm18.531-.057 5.548-.028-.127-5.449-5.548.014.127 5.463Zm29.628-.114-5.548.029-.114-5.449 5.548-.028.114 5.448Zm18.517-.057 5.534-.014-.085-5.463-5.548.029.099 5.448Zm29.585-.099-5.534.015-.085-5.449 5.548-.014.071 5.448Zm18.502-.071 5.534-.014-.057-5.448-5.548.014.071 5.448Zm29.557-.099-5.534.014-.043-5.449 5.534-.014.043 5.449Zm18.488-.071 5.534-.014-.028-5.449-5.534.028.028 5.435Zm29.542-.099-5.533.028-.015-5.448 5.534-.029.014 5.449Zm18.461-.057 5.534-.028.014-5.435-5.534.014-.014 5.449Zm29.513-.114-5.519.029.014-5.449 5.534-.014-.029 5.434Zm18.461-.056 5.519-.015.043-5.448-5.534.014-.028 5.449Zm29.485-.099-5.52.014.057-5.435 5.52-.028-.057 5.449Zm18.432-.071 5.52-.015.071-5.448-5.52.028-.071 5.435Zm29.457-.1-5.506.014.085-5.434 5.52-.014-.099 5.434Zm18.418-.071 5.519-.014.1-5.435-5.506.015-.113 5.434Zm29.442-.099-5.519.014.127-5.435 5.52-.014-.128 5.435Zm18.404-.057 5.505-.028.142-5.435-5.519.029-.128 5.434ZM937.43 6.314h5.789l.198-6.016h-5.803l-.184 6.016Zm30.918.014h-5.789l.199-6.016h5.789l-.199 6.016Zm19.326 0h5.775l.227-6.002-5.789-.014-.213 6.016Zm30.876.015h-5.78l.25-6.017h5.77l-.24 6.017Zm19.31 0h5.78l.27-6.002h-5.79l-.26 6.002Zm30.85.014-5.78-.014.29-6.002h5.77l-.28 6.016ZM911.619 30.096h5.775l.171-5.974h-5.775l-.171 5.974Zm30.834 0h-5.776l.199-5.974h5.775l-.198 5.974Zm19.283 0h5.775l.213-5.974h-5.775l-.213 5.974Zm30.805 0h-5.761l.227-5.974h5.761l-.227 5.974Zm19.269 0 5.76.014.24-5.988h-5.76l-.24 5.974Zm30.78.014h-5.76l.25-5.974h5.78l-.27 5.974Zm19.24 0h5.76l.28-5.974h-5.76l-.28 5.974ZM916.713 53.749h-5.76l.17-5.945h5.761l-.171 5.945Zm19.227 0h5.761l.184-5.945h-5.747l-.198 5.945Zm30.734-.014h-5.747l.199-5.931h5.761l-.213 5.93ZM886.618 283.02l-5.605.014.142-5.619 5.619-.014-.156 5.619Zm-29.911.071 5.605-.015.127-5.619-5.604.015-.128 5.619Zm-18.716.042-5.619.014.114-5.633 5.605-.014-.1 5.633Zm-29.953.071 5.619-.014.085-5.633-5.605.014-.099 5.633Zm-18.73.042h-5.619l.085-5.618 5.605-.015-.071 5.633Zm-29.968.057 5.604-.014.072-5.619-5.62.014-.056 5.619Zm-18.758.043-5.619.014.042-5.619 5.619-.014-.042 5.619Zm-29.996.071 5.619-.014.028-5.619h-5.619l-.028 5.633Zm-18.773.043-5.619.014.014-5.633 5.619-.015-.014 5.634Zm-30.009-5.585 5.619-.013.012 5.633-5.619.013-.012-5.633Zm-18.802 5.698-5.619.014-.029-5.633 5.634-.014.014 5.633Zm-30.039.071 5.619-.014-.042-5.634-5.634.015.057 5.633Zm-18.815.042-5.619.015-.071-5.634 5.633-.014.057 5.633Zm-30.067.057h5.633l-.085-5.633h-5.633l.085 5.633Zm-18.829.057h-5.633l-.1-5.633 5.648-.014.085 5.647Zm-30.096.057 5.633-.014-.113-5.633-5.633.014.113 5.633Zm-18.843.042-5.633.015-.142-5.633 5.647-.015.128 5.633Zm-30.124.071 5.647-.014-.156-5.633-5.647.014.156 5.633Zm-18.858.043-5.647.014-.17-5.647h5.647l.17 5.633Zm-30.152.071 5.648-.014-.185-5.648-5.647.014.184 5.648Zm-18.871.042-5.648.015-.212-5.648 5.661-.014.199 5.647Zm-24.534.057-5.647.014-.227-5.647 5.661-.014.213 5.647ZM25.342 307.368l5.676-.014-.454-5.633-5.69.014.468 5.633Zm30.294-.07-5.676.014-.44-5.633 5.676-.015.44 5.634Zm18.929-.043 5.675-.014-.425-5.633-5.676.014.426 5.633Zm30.266-.085-5.662.014-.411-5.619 5.661-.014.412 5.619Zm18.914-.043 5.661-.014-.383-5.619-5.661.014.383 5.619Zm30.237-.071-5.661.014-.369-5.633 5.661-.014.369 5.633Zm18.9-.042 5.662-.029-.355-5.619-5.661.014.354 5.634Zm30.209-.085-5.647.014-.341-5.619 5.648-.014.34 5.619Zm18.886-.043 5.662-.014-.327-5.619-5.661.014.326 5.619Zm30.181-.071-5.647.014-.313-5.619 5.662-.014.298 5.619Zm18.872-.057 5.647-.014-.284-5.619-5.661.014.298 5.619Zm30.152-.071-5.647.014-.27-5.619 5.647-.014.27 5.619Zm18.843-.042 5.648-.015-.256-5.619-5.633.015.241 5.619Zm30.138-.071h-5.647l-.241-5.605 5.647-.014.241 5.619Zm18.829-.057 5.634-.014-.213-5.605-5.633.014.212 5.605Zm30.096-.071-5.633.014-.199-5.619 5.633-.014.199 5.619Zm18.815-.042 5.648-.015-.185-5.619-5.647.015.184 5.619Zm30.081-.086-5.633.015-.17-5.605 5.633-.014.17 5.604Zm18.801-.042 5.633-.014-.156-5.605-5.633.014.156 5.605Zm30.039-.071-5.619.014-.128-5.605 5.619-.014.128 5.605Zm18.787-.043 5.633-.014-.114-5.605-5.633.015.114 5.604Zm30.024-.085-5.619.014-.099-5.604 5.619-.015.099 5.605Zm18.772-.042 5.619-.015-.085-5.604-5.619.014.085 5.605Zm29.982-.071-5.604.014-.071-5.605 5.619-.014.056 5.605Zm18.759-.043 5.605-.014-.043-5.605-5.619.014.057 5.605Zm29.967-.085-5.619.014-.028-5.59 5.619-.014.028 5.59Zm18.703-5.631 5.604-.014.014 5.605-5.605.013-.013-5.604Zm29.967 5.518-5.605.014v-5.605l5.619-.014-.014 5.605Zm18.715-.043 5.605-.014.029-5.605-5.605.014-.029 5.605Zm29.911-.071h-5.605l.043-5.591 5.605-.014-.043 5.605Zm18.702-.057 5.59-.014.071-5.591-5.604.014-.057 5.591Zm29.882-.071-5.59.015.071-5.591 5.605-.014-.086 5.59Zm18.688-.042 5.59-.014.1-5.591-5.605.014-.085 5.591Zm29.854-.071-5.59.014.113-5.591 5.591-.028-.114 5.605Zm18.673-.057 5.591-.014.127-5.591-5.59.014-.128 5.591Zm29.826-.071-5.576.014.142-5.59 5.59-.015-.156 5.591Zm-858.85 24.392 5.648-.015-.454-5.59-5.662.014.469 5.591Zm30.196-.071-5.662.014-.44-5.605 5.662-.014.44 5.605Zm18.885-.057 5.648-.014-.426-5.591-5.647.014.425 5.591Zm30.181-.085-5.661.028-.398-5.605 5.648-.014.411 5.591Zm18.858-.043 5.647-.014-.383-5.591-5.662.014.398 5.591Zm30.152-.085-5.647.014-.369-5.591 5.647-.014.369 5.591Zm18.843-.043 5.648-.014-.355-5.59-5.647.014.354 5.59Zm30.124-.085-5.633.014-.34-5.59 5.647-.014.326 5.59Zm18.829-.057 5.648-.014-.327-5.576h-5.633l.312 5.59Zm30.096-.071-5.633.015-.298-5.591 5.633-.014.298 5.59Zm18.815-.056 5.633-.015-.284-5.59-5.633.014.284 5.591Zm30.067-.085-5.619.028-.27-5.59 5.634-.015.255 5.577Zm18.801-.043 5.633-.014-.255-5.591-5.619.015.241 5.59Zm30.053-.085-5.633.014-.227-5.576 5.618-.014.242 5.576Zm18.772-.043 5.633-.014-.227-5.591-5.619.015.213 5.59Zm30.025-.085-5.619.014-.213-5.576 5.633-.014.199 5.576Zm18.758-.043 5.619-.028-.185-5.576-5.619.014.185 5.59Zm29.996-.084-5.619.014-.17-5.577 5.619-.014.17 5.577Zm18.744-.057 5.605-.014-.142-5.577-5.619.014.156 5.577Zm29.954-.071-5.605.014-.128-5.576 5.605-.015.128 5.577Zm18.744-.057 5.604-.014-.113-5.577-5.605.015.114 5.576Zm29.925-.071-5.605.014-.099-5.576 5.619-.014.085 5.576Zm18.715-.057 5.605-.014-.071-5.576-5.604.014.07 5.576Zm29.912-.085-5.605.014-.057-5.562 5.605-.014.057 5.562Zm18.701-.042 5.591-.015-.043-5.576-5.591.014.043 5.577Zm29.883-.086-5.591.015-.042-5.563 5.605-.014.028 5.562Zm16.97-2.908h5.591v5.562h-5.591v-5.562Zm31.557 2.781-5.59.014.014-5.562 5.59-.015-.014 5.563Zm18.673-.043 5.591-.028.028-5.562-5.605.014-.014 5.576Zm29.826-.085-5.59.014.042-5.562 5.591-.014-.043 5.562Zm18.645-.057 5.591-.014.056-5.562-5.59.014-.057 5.562Zm29.811-.071-5.59.014.085-5.562 5.576-.014-.071 5.562Zm18.631-.057 5.577-.014.099-5.562-5.591.014-.085 5.562Zm29.769-.07-5.576.014.113-5.562 5.577-.014-.114 5.562Zm18.617-.057 5.576-.014.128-5.562-5.577.014-.127 5.562Zm29.754-.085-5.576.028.142-5.562 5.576-.014-.142 5.548ZM29.003 351.781l5.647-.014-.454-5.577-5.647.029.454 5.562Zm30.124-.085-5.648.014-.44-5.562 5.648-.015.44 5.563Zm18.829-.057 5.633-.014-.426-5.563-5.633.015.426 5.562Zm30.081-.085-5.633.014-.397-5.562 5.633-.014.397 5.562Zm18.815-.057 5.633-.014-.383-5.562-5.633.014.383 5.562Zm30.068-.085-5.634.014-.369-5.562 5.634-.014.369 5.562Zm18.8-.057 5.619-.014-.34-5.562-5.633.014.354 5.562Zm30.039-.085-5.633.014-.327-5.562 5.619-.014.341 5.562Zm18.772-.057 5.619-.014-.312-5.562-5.619.014.312 5.562Zm30.011-.085-5.619.014-.298-5.548 5.619-.028.298 5.562Zm18.772-.057 5.605-.014-.27-5.548-5.633.014.298 5.548Zm29.982-.085-5.619.014-.269-5.548 5.619-.014.269 5.548Zm18.744-.057 5.605-.014-.241-5.548-5.619.014.255 5.548Zm29.954-.084-5.605.028-.241-5.562 5.619-.014.227 5.548Zm18.73-.043 5.605-.028-.213-5.548-5.605.014.213 5.562Zm29.939-.099-5.605.028-.213-5.562 5.619-.014.199 5.548Zm18.701-.043 5.605-.014-.17-5.548-5.605.014.17 5.548Zm29.912-.085-5.605.014-.156-5.548 5.59-.014.171 5.548Zm18.701-.057 5.591-.014-.142-5.548-5.605.014.156 5.548Zm29.869-.085-5.591.014-.128-5.548 5.591-.014.128 5.548Zm18.687-.057 5.59-.014-.113-5.548-5.591.014.114 5.548Zm29.84-.085-5.576.014-.1-5.548 5.591-.014.085 5.548Zm18.673-.057 5.576-.014-.071-5.548-5.59.028.085 5.534Zm29.826-.085-5.591.014-.057-5.533 5.577-.015.071 5.534Zm18.645-.057 5.576-.014-.043-5.534-5.576.015.043 5.533Zm29.797-.085-5.576.014-.029-5.533 5.577-.015.028 5.534Zm18.652-5.658 5.577-.016.016 5.533-5.576.017-.017-5.534Zm29.748 5.516-5.577.029v-5.548l5.591-.015-.014 5.534Zm18.616-.042 5.576-.015.014-5.533-5.576.014-.014 5.534Zm29.741-.085-5.562.014.028-5.534 5.576-.014-.042 5.534Zm18.602-.057 5.562-.014.057-5.534-5.562.014-.057 5.534Zm29.712-.085-5.562.014.071-5.534 5.576-.014-.085 5.534Zm18.588-.057 5.563-.014.085-5.534-5.562.014-.086 5.534Zm29.684-.085-5.548.014.1-5.52 5.562-.028-.114 5.534Zm18.574-.057 5.548-.014.128-5.52-5.562.015-.114 5.519Zm29.67-.085-5.562.014.142-5.519 5.562-.015-.142 5.52ZM30.819 373.803l5.619-.014-.44-5.548-5.633.028.454 5.534Zm30.039-.1-5.633.014-.426-5.533 5.62-.015.439 5.534Zm18.772-.057 5.62-.014-.412-5.534-5.633.015.425 5.533Zm30.011-.084-5.619.014-.412-5.534 5.633-.014.398 5.534Zm18.758-.057 5.619-.029-.383-5.533-5.619.028.383 5.534Zm29.982-.1-5.619.015-.369-5.534 5.619-.014.369 5.533Zm18.744-.056 5.605-.015-.341-5.533-5.619.014.355 5.534Zm29.954-.1-5.605.029-.341-5.534 5.605-.014.341 5.519Zm18.729-.057 5.605-.014-.326-5.519-5.605.014.326 5.519Zm29.926-.084-5.605.014-.298-5.52 5.605-.028.298 5.534Zm18.701-.057 5.605-.015-.284-5.533-5.605.014.284 5.534Zm29.911-.1-5.605.029-.269-5.534 5.605-.014.269 5.519Zm18.687-.057 5.591-.014-.241-5.519-5.605.014.255 5.519Zm29.869-.084-5.591.014-.227-5.52 5.591-.014.227 5.52Zm18.687-.057 5.591-.014-.213-5.52-5.591.014.213 5.52Zm29.84-.1-5.59.015-.199-5.52 5.591-.014.198 5.519Zm18.659-.057 5.591-.014-.171-5.519-5.59.014.17 5.519Zm29.826-.084-5.59.014-.157-5.52 5.591-.014.156 5.52Zm18.645-.057 5.576-.014-.142-5.52-5.576.014.142 5.52Zm29.797-.1-5.576.015-.142-5.506 5.59-.014.128 5.505Zm18.631-.056 5.562-.015-.099-5.519-5.577.028.114 5.506Zm29.755-.086-5.562.015-.1-5.52 5.577-.014.085 5.519Zm18.616-.056 5.576-.029-.085-5.505-5.576.014.085 5.52Zm29.741-.099-5.562.014-.071-5.506 5.576-.014.057 5.506Zm18.602-.057 5.562-.014-.042-5.506-5.563.014.043 5.506Zm29.712-.086-5.562.015-.028-5.506 5.562-.014.028 5.505Zm18.579-5.591 5.562-.018.018 5.506-5.563.017-.017-5.505Zm29.693 5.436-5.562.014v-5.506l5.562-.014v5.506Zm18.56-.057 5.548-.014.028-5.506-5.562.014-.014 5.506Zm29.656-.085-5.548.014.042-5.506 5.548-.014-.042 5.506Zm18.545-.057 5.562-.014.057-5.506-5.562.014-.057 5.506Zm29.641-.1-5.548.029.071-5.506 5.548-.014-.071 5.491Zm18.532-.056 5.548-.014.085-5.492-5.548.015-.085 5.491Zm29.613-.085-5.548.014.099-5.491 5.548-.029-.099 5.506Zm18.502-.057 5.548-.014.128-5.506-5.548.014-.128 5.506Zm29.599-.1-5.548.029.142-5.506 5.548-.014-.142 5.491ZM32.621 395.697l5.619-.015-.454-5.505-5.619.014.454 5.506Zm29.954-.1-5.605.014-.44-5.505 5.62-.014.425 5.505Zm18.73-.071 5.604-.014-.425-5.505-5.605.028.426 5.491Zm29.925-.085-5.605.015-.412-5.506 5.605-.014.412 5.505Zm18.701-.071 5.605-.014-.383-5.505-5.605.028.383 5.491Zm29.897-.099-5.605.028-.354-5.505 5.59-.014.369 5.491Zm18.688-.056 5.59-.015-.34-5.505-5.605.028.355 5.492Zm29.868-.1-5.591.029-.326-5.506 5.591-.014.326 5.491Zm18.673-.057 5.591-.014-.312-5.505-5.591.028.312 5.491Zm29.854-.099-5.59.014-.298-5.491 5.59-.014.298 5.491Zm18.659-.057 5.577-.028-.284-5.492-5.577.029.284 5.491Zm29.812-.099-5.591.014-.255-5.491 5.576-.014.27 5.491Zm18.645-.071 5.576-.014-.241-5.491-5.591.014.256 5.491Zm29.783-.085-5.576.014-.227-5.491 5.576-.014.227 5.491ZM991.647 53.735H985.9l.213-5.946h5.761l-.227 5.946Zm24.963 0h-5.77l.25-5.946h5.76l-.24 5.946Zm19.19 0h5.74l.27-5.946h-5.75l-.26 5.946Zm30.68-.014h-5.75l.27-5.932h5.75l-.27 5.932ZM910.286 77.26h5.746l.171-5.917-5.747.014-.17 5.903Zm30.663 0h-5.747l.199-5.917h5.732l-.184 5.917Zm19.169-.014h5.733l.213-5.917h-5.747l-.199 5.916Zm30.635-.015h-5.732l.212-5.902h5.747l-.227 5.902Zm19.137 0 5.74-.014.25-5.903h-5.74l-.25 5.917Zm30.61-.014h-5.73l.27-5.903h5.73l-.27 5.903Zm19.14-.014h5.72l.28-5.903h-5.73l-.27 5.903Zm-144.289 23.441h-5.718l.156-5.875 5.732-.014-.17 5.889Zm19.127-.015h5.719l.198-5.874h-5.732l-.185 5.874Zm30.564-.014h-5.732l.212-5.874h5.719l-.199 5.874Zm19.099-.014h5.718l.227-5.874h-5.732l-.213 5.874Zm30.539-.014h-5.72l.24-5.874h5.72l-.24 5.874Zm19.08-.014h5.72l.25-5.875h-5.71l-.26 5.875Zm30.49-.029-5.7.014.27-5.874h5.72l-.29 5.86Zm-155.284 23.342h5.718l.171-5.846h-5.719l-.17 5.846Zm30.493-.015h-5.704l.17-5.846h5.718l-.184 5.846Zm19.056-.014 5.704-.014.199-5.832h-5.704l-.199 5.846Zm30.464-.028h-5.704l.213-5.832 5.704-.014-.213 5.846Zm19.031-.014 5.7-.015.24-5.831h-5.7l-.24 5.846Zm30.43-.029h-5.69l.24-5.832h5.71l-.26 5.832Zm19.03-.014h5.69l.28-5.846h-5.7l-.27 5.846ZM914.003 147h-5.69l.171-5.803 5.69-.015-.171 5.818Zm19.014-.014 5.704-.014.184-5.804h-5.704l-.184 5.818Zm30.393-.043-5.69.014.199-5.817h5.69l-.199 5.803Zm19-.014h5.689l.213-5.818-5.69.015-.212 5.803Zm30.35-.028h-5.68l.23-5.804h5.69l-.24 5.804Zm18.99-.015 5.67-.014.26-5.803H1032l-.25 5.817Zm30.32-.042-5.68.014.27-5.803 5.69-.015-.28 5.804Zm-154.41 23.143h5.69l.156-5.79-5.675.015-.171 5.775Zm30.323-.029h-5.676l.185-5.775 5.676-.014-.185 5.789Zm18.943-.028 5.675-.014.199-5.775-5.676.014-.198 5.775Zm30.294-.043-5.676.014.213-5.775 5.676-.014-.213 5.775Zm18.93-.014 5.67-.014.23-5.775-5.66.014-.24 5.775Zm30.26-.042h-5.67l.25-5.761 5.68-.014-.26 5.775Zm18.92-.029h5.66l.27-5.775-5.66.015-.27 5.76Zm-142.646 23.03-5.662.014.156-5.747 5.676-.014-.17 5.747Zm18.9-.029h5.661l.185-5.746h-5.662l-.184 5.746Zm30.223-.042-5.661.014.198-5.747h5.662l-.199 5.733Zm18.886-.029h5.647l.227-5.746-5.661.014-.213 5.732Zm30.177-.042-5.64.014.22-5.747h5.66l-.24 5.733Zm18.88-.029h5.66l.24-5.747-5.65.015-.25 5.732Zm30.16-.042-5.65.014.27-5.747h5.65l-.27 5.733Zm-153.526 22.944h5.647l.156-5.719-5.647.014-.156 5.705Zm30.138-.043-5.648.014.185-5.718 5.647-.014-.184 5.718Zm18.843-.028 5.647-.014.199-5.704h-5.647l-.199 5.718Zm30.11-.057-5.633.014.212-5.718h5.648l-.227 5.704Zm18.825-.028 5.64-.015.24-5.704-5.63.015-.25 5.704Zm30.1-.057-5.63.014.24-5.704 5.63-.014-.24 5.704Zm18.8-.029h5.63l.27-5.718-5.63.014-.27 5.704Zm-141.836 22.831-5.619.014.156-5.69h5.633l-.17 5.676Zm18.801-.028 5.633-.014.184-5.676h-5.633l-.184 5.69Zm30.053-.057h-5.633l.198-5.676h5.633l-.198 5.676Zm18.786-.043h5.619l.213-5.69-5.619.015-.213 5.675Zm30.006-.056-5.61.014.22-5.676 5.62-.014-.23 5.676Zm18.78-.029 5.6-.014.26-5.676-5.62.014-.24 5.676Zm29.98-.057-5.62.015.27-5.676 5.62-.014-.27 5.675Zm-152.664 22.746h5.619l.156-5.662-5.619.014-.156 5.648Zm29.968-.057-5.604.014.17-5.647 5.619-.014-.185 5.647Zm18.744-.043 5.605-.014.199-5.633h-5.605l-.199 5.647Zm97.292-.198 5.59-.014.27-5.633h-5.6l-.26 5.647Zm-18.7.043-5.6.014.24-5.648 5.6-.014-.24 5.648Zm-29.92.056 5.6-.014.23-5.633h-5.61l-.22 5.647Zm-24.337.057 5.605-.014.227-5.647-5.619.014-.213 5.647Zm-68.08 22.476-5.605.014.17-5.619 5.591-.014-.156 5.619Zm18.687-.043 5.605-.014.184-5.619-5.604.014-.185 5.619Zm29.883-.071-5.591.014.184-5.604 5.605-.015-.198 5.605Zm18.673-.042h5.59l.227-5.619-5.604.014-.213 5.605Zm29.854-.057-5.59.014.23-5.619 5.59-.014-.23 5.619Zm18.66-.043 5.59-.014.24-5.619-5.59.015-.24 5.618Zm29.82-.071-5.57.015.25-5.619 5.59-.014-.27 5.618Zm-151.806 22.561 5.59-.014.156-5.59-5.59.014-.156 5.59Zm29.811-.07-5.59.014.184-5.591 5.577-.014-.171 5.591Zm18.631-.057h5.576l.199-5.591-5.577.014-.198 5.577Zm29.783-.071-5.576.014.213-5.576 5.576-.015-.213 5.577Zm18.621-.043 5.57-.014.23-5.576-5.58.014-.22 5.576Zm29.75-.071-5.58.014.25-5.59h5.57l-.24 5.576Zm18.6-.042 5.56-.015.27-5.59-5.57.014-.26 5.591Zm-140.244 22.433-5.577.014.156-5.548 5.577-.014-.156 5.548Zm18.588-.043 5.562-.028.17-5.548-5.562.014-.17 5.562Zm29.698-.085-5.548.014.184-5.548 5.563-.014-.199 5.548Zm18.588-.056 5.548-.015.213-5.548-5.563.015-.198 5.548Zm29.68-.071-5.559.014.229-5.548 5.56-.014-.23 5.548Zm18.56-.057 5.55-.014.24-5.548-5.56.014-.23 5.548Zm29.66-.071-5.56.014.25-5.548 5.56-.014-.25 5.548Zm-150.975 22.376 5.562-.028.156-5.52-5.562.015-.156 5.533Zm29.642-.085-5.548.014.17-5.533 5.562-.015-.184 5.534Zm18.531-.057 5.548-.014.198-5.519-5.548.014-.198 5.519Zm29.613-.084-5.534.014.199-5.52 5.548-.014-.213 5.52Zm18.517-.057 5.552-.015.22-5.519-5.545.014-.227 5.52Zm29.602-.086-5.55.015.24-5.52 5.55-.014-.24 5.519Zm18.49-.056 5.54-.015.26-5.519-5.55.014-.25 5.52Zm-139.471 22.248-5.534.029.156-5.506 5.534-.014-.156 5.491Zm18.488-.056 5.534-.015.17-5.491-5.534.014-.17 5.492Zm29.542-.085-5.533.014.198-5.491 5.534-.015-.199 5.492Zm18.475-.057 5.534-.014.212-5.492-5.533.015-.213 5.491Zm29.526-.099-5.532.028.227-5.491 5.515-.015-.21 5.478Zm18.45-.043 5.53-.029.24-5.491-5.53.029-.24 5.491Zm29.5-.099-5.52.014.25-5.477 5.52-.028-.25 5.491Zm-150.125 22.192 5.519-.014.156-5.463-5.533.014-.142 5.463Zm29.471-.1-5.52.029.17-5.477 5.52-.015-.17 5.463Zm18.432-.056 5.519-.014.185-5.463-5.52.014-.184 5.463Zm29.442-.1-5.505.015.199-5.449 5.519-.028-.213 5.462Zm18.418-.056 5.522-.015.21-5.462-5.505.014-.227 5.463Zm29.432-.1-5.51.014.23-5.448 5.52-.029-.24 5.463Zm18.4-.057 5.51-.014.25-5.463-5.52.014-.24 5.463Zm-138.7 22.065-5.52.014.157-5.434 5.519-.015-.156 5.435Zm18.375-.071 5.505-.014.171-5.435-5.506.014-.17 5.435Zm29.386-.1-5.491.015.184-5.435 5.506-.014-.199 5.434Zm18.375-.056 5.492-.029.212-5.434-5.505.028-.199 5.435Zm29.354-.114-5.487.029.212-5.435 5.505-.014-.23 5.42Zm18.35-.057 5.51-.028.24-5.42-5.51.014-.24 5.434Zm29.34-.099-5.49.014.24-5.434 5.51-.014-.26 5.434ZM36.24 439.527l5.576-.014-.44-5.449-5.59.015.453 5.448Zm29.783-.113-5.577.029-.425-5.449 5.576-.014.426 5.434Zm18.616-.071 5.577-.014-.412-5.435-5.576.015.411 5.434Zm29.755-.099-5.576.014-.398-5.435 5.577-.028.397 5.449Zm18.602-.071 5.577-.015-.384-5.448-5.576.028.383 5.435Zm29.727-.114-5.562.029-.369-5.449 5.576-.014.355 5.434Zm18.588-.071 5.562-.014-.341-5.434-5.562.014.341 5.434Zm29.712-.099-5.562.014-.341-5.434 5.577-.015.326 5.435Zm18.56-.071 5.562-.014-.312-5.435-5.562.014.312 5.435Zm29.684-.113-5.562.028-.298-5.434 5.562-.029.298 5.435Zm18.545-.071 5.562-.015-.283-5.434-5.548.028.269 5.421Zm29.656-.1-5.548.014-.27-5.434 5.562-.014.256 5.434Zm575.163-2.114-5.492.014.128-5.406 5.505-.014-.141 5.406Zm-29.344.099 5.491-.014.128-5.406-5.491.014-.128 5.406Zm-18.361.071-5.491.014.099-5.406 5.506-.014-.114 5.406Zm-29.357.114 5.491-.029.099-5.406-5.505.014-.085 5.421Zm-18.376.057-5.505.028.071-5.406 5.505-.029-.071 5.407Zm-29.4.113 5.506-.014.057-5.42-5.506.028-.057 5.406Zm-18.389.071-5.506.014.043-5.406 5.506-.028-.043 5.42Zm-29.414.099 5.505-.014.029-5.406-5.52.014-.014 5.406Zm-18.404.071-5.52.029v-5.421l5.52-.014v5.406Zm-29.457.114 5.52-.028v-5.407l-5.52.015v5.42Zm-18.475-5.325-5.52.02.02 5.42 5.519-.02-.019-5.42Zm-29.414 5.495 5.52-.014-.043-5.421-5.52.015.043 5.42Zm-18.432.071-5.534.014-.056-5.406 5.534-.028.056 5.42Zm-29.499.114 5.519-.029-.07-5.42-5.52.028.071 5.421Zm-18.46.056-5.52.029-.099-5.421 5.534-.028.085 5.42Zm-29.514.114 5.519-.014-.099-5.421-5.534.014.114 5.421Zm-18.475.071-5.533.014-.128-5.42 5.534-.015.127 5.421Zm-29.542.099 5.534-.014-.142-5.42-5.534.014.142 5.42Zm-18.489.071-5.548.028-.156-5.434 5.548-.014.156 5.42Zm-29.57.113 5.534-.014-.17-5.434-5.548.028.184 5.42Zm-18.517.071-5.534.015-.198-5.421 5.548-.028.184 5.434Zm-29.585.1 5.534-.014-.213-5.421-5.533.015.212 5.42Zm-18.531.071-5.548.028-.227-5.435 5.548-.014.227 5.421Zm-24.079.099-5.548.014-.241-5.434 5.548-.015.241 5.435ZM38.013 461.067l5.562-.029-.44-5.406-5.562.014.44 5.421Zm29.698-.114-5.562.015-.426-5.407 5.563-.028.425 5.42Zm18.574-.085 5.548-.014-.397-5.406-5.562.014.411 5.406Zm29.67-.113-5.562.028-.383-5.406 5.548-.029.397 5.407Zm18.545-.071 5.563-.014-.384-5.421-5.548.029.369 5.406Zm29.656-.114-5.548.029-.369-5.421 5.562-.014.355 5.406Zm18.531-.071 5.548-.028-.34-5.406-5.548.028.34 5.406Zm29.627-.113-5.548.028-.326-5.406 5.548-.029.326 5.407Zm18.517-.071 5.534-.028-.298-5.407-5.548.029.312 5.406Zm29.585-.114-5.534.015-.298-5.392 5.548-.029.284 5.406Zm18.503-.071 5.548-.028-.284-5.406-5.534.028.27 5.406Zm29.571-.113-5.534.014-.256-5.406 5.534-.014.256 5.406Zm18.488-.071 5.534-.028-.241-5.407-5.534.029.241 5.406Zm29.542-.114-5.534.015-.227-5.407 5.534-.014.227 5.406Zm18.474-.085 5.52-.014-.199-5.392-5.533.014.212 5.392Zm29.514-.099-5.533.014-.185-5.392 5.52-.028.198 5.406Zm18.446-.085 5.534-.014-.184-5.392-5.52.014.17 5.392Zm29.5-.114-5.52.029-.17-5.392 5.534-.029.156 5.392Zm18.432-.071 5.519-.014-.141-5.392-5.52.014.142 5.392Zm29.471-.113-5.52.028-.127-5.392 5.519-.028.128 5.392Zm18.418-.071 5.519-.014-.113-5.392-5.52.014.114 5.392Zm29.442-.114-5.519.029-.085-5.392 5.505-.029.099 5.392Zm18.404-.071 5.505-.014-.071-5.392-5.519.014.085 5.392Zm29.414-.113-5.505.028-.071-5.392 5.519-.028.057 5.392Zm18.39-.071 5.505-.014-.042-5.392-5.506.014.043 5.392Zm29.326-5.44-5.506.021.021 5.392 5.505-.021-.02-5.392Zm18.435 5.255 5.505-.014-.014-5.392-5.505.029.014 5.377Zm29.358-.113-5.492.028v-5.392l5.506-.014-.014 5.378Zm18.36-.071 5.492-.014.028-5.392-5.505.028-.015 5.378Zm29.344-.114-5.506.029.043-5.392 5.491-.014-.028 5.377Zm18.332-.071 5.492-.014.056-5.392-5.491.029-.057 5.377Zm29.315-.113-5.491.029.071-5.392 5.491-.015-.071 5.378Zm18.319-.071 5.491-.014.085-5.378-5.491.014-.085 5.378Zm29.287-.113-5.477.014.099-5.364 5.491-.028-.113 5.378Zm18.304-.072 5.491-.014.113-5.377-5.477.014-.127 5.377Zm29.272-.113-5.491.029.142-5.378 5.491-.029-.142 5.378Zm-842.29 24.689 5.548-.028-.44-5.378-5.562.014.454 5.392Zm29.613-.127-5.548.028-.426-5.392 5.548-.014.426 5.378Zm18.517-.071 5.534-.028-.398-5.378-5.548.028.412 5.378ZM1093 6.357h-5.77l.29-6.002h5.78l-.3 6.002Zm-44.58 429.453-5.48.014.26-5.392 5.47-.028-.25 5.406Zm-29.26.099 5.49-.014.23-5.406-5.48.028-.24 5.392Zm-18.29.071-5.491.014.213-5.392 5.488-.028-.21 5.406Zm-29.287.114 5.492-.029.198-5.392-5.491.015-.199 5.406Zm-18.318.057-5.477.028.184-5.406 5.477-.014-.184 5.392Zm-29.301.113 5.491-.028.17-5.392-5.491.014-.17 5.406Zm-18.333.071-5.491.014.156-5.406 5.491-.014-.156 5.406Zm-29.57 42.738 5.463-.028.127-5.335-5.462.014-.128 5.349Zm-18.262.071-5.463.028.114-5.349 5.477-.029-.128 5.35Zm-29.187.113 5.463-.014.113-5.349-5.477.028-.099 5.335Zm-18.262.086-5.477.014.085-5.349 5.478-.015-.086 5.35Zm-29.23.113 5.478-.028.07-5.35-5.477.029-.071 5.349Zm-18.275.071-5.477.028.056-5.349 5.477-.028-.056 5.349Zm-29.244.128 5.477-.029.042-5.349-5.477.014-.042 5.364Zm-18.305.071-5.477.028.029-5.363 5.477-.015-.029 5.35Zm-29.258.113 5.477-.014.014-5.364-5.491.029v5.349Zm-18.318.085-5.492.014-.014-5.349 5.491-.028.015 5.363Zm-29.264-5.321 5.491-.023.022 5.364-5.491.023-.022-5.364Zm-18.37 5.506-5.491.028-.043-5.363 5.491-.014.043 5.349Zm-29.315.127 5.492-.028-.057-5.364-5.492.029.057 5.363Zm-18.347.071-5.491.015-.085-5.35 5.505-.028.071 5.363Zm-29.343.114 5.491-.014-.085-5.364-5.505.029.099 5.349Zm-18.361.085-5.505.014-.114-5.363 5.506-.015.113 5.364Zm-29.372.114 5.491-.029-.113-5.349-5.506.014.128 5.364Zm-18.389.071-5.506.028-.142-5.364 5.52-.028.128 5.364Zm-29.386.127 5.505-.028-.156-5.364-5.519.029.17 5.363Zm-18.404.071-5.505.028-.17-5.377 5.505-.014.17 5.363Zm-29.414.114 5.505-.014-.184-5.364-5.52.014.199 5.364Zm-18.418.085-5.505.014-.213-5.363 5.519-.029.199 5.378Zm-29.442.114 5.505-.015-.213-5.377-5.519.028.227 5.364Zm-18.433.084-5.519.015-.241-5.364 5.519-.028.241 5.377Zm-29.471.114 5.52-.028-.255-5.364-5.52.014.255 5.378Zm-18.446.071-5.519.028-.284-5.377 5.534-.014.269 5.363Zm-29.499.128 5.519-.029-.283-5.377-5.534.028.298 5.378Zm-18.46.071-5.534.028-.298-5.378 5.519-.028.313 5.378Zm-29.529.113 5.534-.014-.326-5.378-5.534.014.326 5.378Zm-18.474.085-5.534.015-.34-5.378 5.534-.014.34 5.377Zm-29.556.114 5.548-.015-.369-5.377-5.534.014.355 5.378Zm-18.489.085-5.534.014-.383-5.378 5.548-.028.369 5.392Zm-24.037.085-5.533.029-.398-5.378 5.548-.029.383 5.378Zm-70.435 21.596-5.534.029-.44-5.364 5.534-.014.44 5.349Zm18.474-.085 5.534-.014-.426-5.364-5.533.029.425 5.349Zm29.528-.128-5.534.029-.411-5.349 5.534-.029.411 5.349Zm18.446-.071 5.534-.028-.383-5.349-5.534.028.383 5.349Zm29.5-.127-5.52.028-.369-5.349 5.52-.029.369 5.35Zm18.446-.071 5.52-.028-.355-5.35-5.52.014.355 5.364Zm29.471-.128-5.52.014-.34-5.349 5.519-.014.341 5.349Zm18.418-.085 5.52-.028-.327-5.336-5.519.015.326 5.349Zm29.442-.128-5.505.029-.312-5.35 5.52-.014.297 5.335Zm18.418-.071 5.506-.028-.284-5.349-5.52.028.298 5.349Zm29.415-.127-5.506.014-.269-5.335 5.505-.029.27 5.35Zm18.389-.086 5.505-.014-.255-5.349-5.505.028.255 5.335Zm29.4-.127-5.505.028-.242-5.335 5.506-.028.241 5.335Zm18.375-.071 5.506-.029-.227-5.335-5.506.029.227 5.335Zm29.372-.128-5.505.028-.213-5.349 5.505-.014.213 5.335Zm18.361-.071 5.491-.028-.184-5.336-5.506.015.199 5.349Zm29.329-.128-5.491.014-.17-5.335 5.491-.014.17 5.335Zm18.347-.085 5.491-.014-.156-5.335-5.491.014.156 5.335Zm29.329-.113-5.491.014-.156-5.335 5.506-.029.141 5.35Zm18.319-.085 5.491-.029-.128-5.335-5.491.029.128 5.335Zm29.301-.128-5.492.028-.113-5.335 5.491-.028.114 5.335Zm18.304-.071 5.477-.028-.085-5.336-5.477.029.085 5.335Zm29.272-.128-5.491.029-.071-5.336 5.477-.028.085 5.335Zm18.29-.085 5.477-.014-.056-5.335-5.477.028.056 5.321Zm29.244-.113-5.477.014-.042-5.321 5.477-.028.042 5.335Zm18.204-5.336 5.477-.023.022 5.321-5.477.023-.022-5.321Zm29.288 5.123-5.463.028-.014-5.321 5.477-.028v5.321Zm18.262-.071 5.477-.028v-5.321l-5.463.028-.014 5.321Zm29.187-.128-5.463.029.028-5.336 5.463-.014-.028 5.321Zm18.247-.071 5.463-.028.043-5.321-5.463.014-.043 5.335Zm29.173-.127-5.462.014.056-5.321 5.463-.014-.057 5.321Zm18.234-.086 5.449-.014.085-5.321-5.463.014-.071 5.321Zm29.131-.113-5.449.014.085-5.321 5.463-.014-.099 5.321Zm18.218-.085 5.463-.029.1-5.307-5.463.015-.1 5.321Zm29.117-.128-5.449.029.114-5.321 5.462-.015-.127 5.307Zm18.205-.071 5.449-.028.141-5.307-5.462.014-.128 5.321Zm24.008-42.497 5.477-.014.156-5.378-5.477.029-.156 5.363Zm29.244-.113-5.477.028.17-5.378 5.477-.014-.17 5.364Zm18.276-.071 5.463-.015.184-5.377-5.463.028-.184 5.364Zm29.202-.114-5.463.029.198-5.378 5.477-.014-.212 5.363Zm18.261-.071 5.477-.014.21-5.378-5.46.029-.227 5.363Zm29.187-.113-5.46.028.22-5.363 5.48-.029-.24 5.364Zm18.25-.071 5.46-.015.26-5.363-5.47.014-.25 5.364ZM904.397 478.96l-5.463.014.142-5.335 5.477-.029-.156 5.35Zm18.233-.071 5.463-.029.17-5.349-5.462.028-.171 5.35Zm29.145-.128-5.463.028.185-5.349 5.462-.014-.184 5.335Zm18.219-.071 5.449-.028.212-5.336-5.462.015-.199 5.349Zm29.117-.128-5.449.029.213-5.336 5.449-.028-.213 5.335Zm18.209-.071 5.44-.014.25-5.349-5.47.028-.22 5.335Zm29.08-.113-5.45.014.26-5.335 5.45-.015-.26 5.336Zm-148.062 21.738 5.449-.029.142-5.306-5.449.014-.142 5.321Zm29.074-.128-5.449.028.171-5.321 5.448-.014-.17 5.307Zm18.176-.071 5.449-.028.185-5.307-5.449.014-.185 5.321Zm29.046-.128-5.434.029.198-5.321 5.449-.014-.213 5.306Zm18.162-.071 5.449-.028.213-5.307-5.435.014-.227 5.321Zm29.034-.127-5.44.028.23-5.321 5.45-.014-.24 5.307Zm18.15-.071 5.43-.029.24-5.306-5.43.014-.24 5.321Zm72.3-493.149h5.77l.32-6.016h-5.77l-.32 6.016Zm30.81 0h-5.76l.32-6.002h5.78l-.34 6.002Zm19.27 0 5.76.014.35-6.002-5.77-.014-.34 6.002Zm-70.55 23.739h-5.76l.3-5.974h5.76l-.3 5.974Zm19.23 0h5.74l.33-5.974h-5.76l-.31 5.974Zm30.72 0h-5.75l.33-5.974h5.76l-.34 5.974Zm19.21 0h5.74l.36-5.96h-5.76l-.34 5.96Zm-70.35 23.61h-5.74l.29-5.945h5.75l-.3 5.946Zm19.17 0h5.74l.32-5.945h-5.75l-.31 5.946Zm30.63-.014h-5.73l.33-5.93h5.74l-.34 5.93Zm19.16 0h5.73l.35-5.93h-5.73l-.35 5.93Zm-70.14 23.484-5.72.014.29-5.917h5.73l-.3 5.903Zm19.11 0h5.72l.33-5.903h-5.74l-.31 5.903Zm30.55-.014h-5.72l.33-5.903h5.73l-.34 5.903Zm19.1 0 5.72-.015.35-5.888h-5.71l-.36 5.903Zm-69.94 23.369h-5.7l.3-5.874h5.7l-.3 5.874Zm19.07-.014 5.71-.014.31-5.86h-5.71l-.31 5.874Zm30.47-.028-5.71.014.33-5.874h5.7l-.32 5.86Zm54.47-94.118h-5.76l.37-6.002h5.76l-.37 6.002Zm-49.98 342.189 5.52-.014.33-5.52-5.53.015-.32 5.519Zm-18.47.057-5.52.014.3-5.519 5.53-.015-.31 5.52Zm-29.53.085 5.54-.014.28-5.52-5.53.015-.29 5.519Zm-24.02.071 5.53-.029.29-5.505-5.55.014-.27 5.52Zm4.44 21.795-5.52.014.27-5.477 5.52-.028-.27 5.491Zm18.43-.057 5.52-.014.29-5.491-5.52.014-.29 5.491Zm29.46-.085-5.52.014.31-5.491 5.52-.015-.31 5.492Zm18.42-.057 5.5-.028.33-5.478-5.52.015-.31 5.491Zm-67.4 21.894-5.51.029.27-5.463 5.51-.014-.27 5.448Zm18.39-.057 5.49-.014.3-5.463-5.51.015-.28 5.462Zm29.37-.099-5.51.014.3-5.448 5.51-.015-.3 5.449Zm18.36-.057 5.49-.014.33-5.463-5.49.029-.33 5.448Zm-67.2 21.795-5.49.014.27-5.42 5.49-.014-.27 5.42Zm18.33-.071 5.48-.014.3-5.42-5.49.014-.29 5.42Zm29.29-.099-5.48.028.3-5.434 5.49-.015-.31 5.421Zm18.32-.057 5.47-.028.33-5.421-5.49.029-.31 5.42Zm73.03-407.247h5.76l.4-5.988h-5.78l-.38 5.988Zm30.76.014h-5.76l.4-6.002h5.76l-.4 6.002Zm19.23 0h5.75l.44-5.987h-5.77l-.42 5.987Zm30.72.015h-5.75l.44-6.002h5.76l-.45 6.002Zm19.21 0h5.75l.47-5.988h-5.75l-.47 5.988Zm30.71.014h-5.75l.47-6.002h5.76l-.48 6.002ZM1185.03 30.11h5.76l.37-5.96h-5.76l-.37 5.96Zm30.69 0h-5.74l.38-5.96h5.75l-.39 5.96Zm19.19 0h5.73l.41-5.96h-5.74l-.4 5.96Zm30.65 0h-5.74l.42-5.96h5.74l-.42 5.96Zm19.17.014h5.73l.44-5.974h-5.73l-.44 5.974Zm30.62 0h-5.74l.46-5.96h5.75l-.47 5.96Zm19.15 0h5.72l.48-5.96h-5.73l-.47 5.96Zm-145.18 23.582h-5.73l.36-5.93h5.74l-.37 5.93Zm19.14-.014h5.72l.39-5.931h-5.73l-.38 5.931Zm30.58 0h-5.74l.42-5.931h5.71l-.39 5.931Zm19.11 0h5.73l.41-5.931h-5.71l-.43 5.931Zm30.56 0h-5.73l.44-5.931h5.72l-.43 5.931Zm19.1-.014h5.72l.45-5.917h-5.71l-.46 5.917Zm30.52 0h-5.71l.46-5.917h5.72l-.47 5.917Zm-156.19 23.483h5.72l.37-5.902h-5.72l-.37 5.902Zm30.51-.014h-5.71l.38-5.888h5.71l-.38 5.888Zm19.08 0 5.7-.014.4-5.889h-5.7l-.4 5.903Zm30.48-.014h-5.72l.43-5.903h5.7l-.41 5.903Zm19.05-.014h5.71l.42-5.889h-5.7l-.43 5.889Zm30.45-.014-5.7.014.45-5.903h5.71l-.46 5.889Zm19.05 0h5.69l.48-5.889h-5.71l-.46 5.889Zm-144.35 23.369-5.71.014.37-5.874h5.69l-.35 5.86Zm19.03 0 5.69-.014.38-5.86h-5.7l-.37 5.874Zm30.4-.028-5.7.014.4-5.874h5.7l-.4 5.86Zm19-.014h5.69l.43-5.86-5.69.014-.43 5.846Zm30.38-.015h-5.67l.42-5.86h5.69l-.44 5.86Zm19-.014h5.69l.46-5.86-5.69.014-.46 5.846Zm30.35-.014h-5.69l.47-5.846 5.69-.014-.47 5.86Zm-155.28 23.285h5.67l.37-5.832h-5.69l-.35 5.832Zm30.32-.028h-5.68l.39-5.818 5.67-.014-.38 5.832Zm18.97-.015h5.68l.39-5.831h-5.67l-.4 5.831Zm30.31-.028-5.68.014.41-5.832h5.68l-.41 5.818Zm-102.05-23.1 5.7-.015.34-5.86h-5.7l-.34 5.875Zm-75.43 23.256 5.69-.014.3-5.832h-5.69l-.3 5.846Zm30.39-.028h-5.69l.3-5.832h5.7l-.31 5.832Zm19-.014 5.69-.015.33-5.831-5.69.014-.33 5.832Zm30.37-.029h-5.69l.34-5.832h5.69l-.34 5.832Zm-80.9 23.143h5.68l.28-5.804h-5.67l-.29 5.804Zm30.3-.028h-5.68l.31-5.804h5.68l-.31 5.804Zm18.94-.029h5.68l.32-5.803-5.67.014-.33 5.789Zm30.28-.028-5.66.014.34-5.803h5.66l-.34 5.789Zm-80.65 23.029h5.65l.29-5.775-5.66.014-.28 5.761Zm30.21-.028h-5.65l.3-5.761 5.66-.014-.31 5.775Zm18.9-.029h5.64l.33-5.775-5.66.014-.31 5.761Zm30.18-.042-5.65.014.34-5.761 5.65-.014-.34 5.761ZM1078 192.591h5.65l.28-5.732h-5.64l-.29 5.732Zm30.14-.042-5.65.014.3-5.733 5.65-.014-.3 5.733Zm18.83-.029h5.65l.31-5.732h-5.63l-.33 5.732Zm30.11-.042-5.63.014.32-5.732 5.65-.015-.34 5.733Zm-80.2 22.802h5.62l.3-5.704h-5.63l-.29 5.704Zm30.04-.043-5.62.014.3-5.704 5.63-.014-.31 5.704Zm18.79-.028 5.63-.014.31-5.704-5.62.014-.32 5.704Zm30.02-.057-5.62.015.34-5.705h5.62l-.34 5.69Zm-79.97 22.703 5.62-.014.28-5.676-5.62.015-.28 5.675Zm29.97-.057h-5.62l.3-5.661 5.62-.014-.3 5.675Zm18.73-.042 5.6-.014.33-5.662h-5.62l-.31 5.676Zm29.94-.057-5.61.014.33-5.675h5.62l-.34 5.661Zm-79.75 22.589 5.59-.014.29-5.647-5.59.014-.29 5.647Zm29.89-.071-5.61.014.3-5.633 5.6-.014-.29 5.633Zm18.67-.028 5.59-.014.33-5.648-5.61.015-.31 5.647Zm29.85-.071-5.59.014.33-5.633 5.6-.014-.34 5.633Zm-79.51 22.476 5.57-.014.29-5.605-5.59.014-.27 5.605Zm29.79-.071-5.57.014.3-5.605 5.57-.014-.3 5.605Zm18.64-.042 5.57-.015.31-5.604-5.57.014-.31 5.605Zm29.76-.071-5.57.014.32-5.605 5.58-.014-.33 5.605Zm-79.28 22.362h5.56l.27-5.591-5.57.014-.26 5.577Zm29.71-.071-5.56.014.28-5.576 5.58-.014-.3 5.576Zm18.57-.043 5.56-.014.32-5.576-5.57.014-.31 5.576Zm29.69-.071-5.57.015.34-5.577 5.55-.014-.32 5.576Zm-79.08 22.249 5.56-.014.27-5.548-5.55.014-.28 5.548Zm29.64-.071-5.55.014.29-5.548 5.56-.014-.3 5.548Zm18.83-5.605-.3 5.549 5.53-.015.32-5.548-5.55.014Zm29.3 5.478-5.55.014.33-5.548 5.55-.014-.33 5.548Zm177.92-203.078 5.67-.014.47-5.817h-5.67l-.47 5.831Zm-18.93.015h-5.66l.44-5.832h5.67l-.45 5.832Zm-24.6.014h-5.68l.44-5.818 5.68-.014-.44 5.832Zm-99.98 23.143h-5.66l.35-5.804h5.66l-.35 5.804Zm18.91-.029h5.66l.39-5.803-5.66.014-.39 5.789Zm30.24-.028h-5.66l.4-5.789h5.66l-.4 5.789Zm18.9-.014 5.66-.015.41-5.789h-5.66l-.41 5.804Zm30.21-.043-5.65.014.43-5.789 5.65-.014-.43 5.789Zm18.89-.014h5.64l.46-5.789h-5.66l-.44 5.789Zm30.18-.029h-5.65l.45-5.789h5.66l-.46 5.789Zm-154.41 23.086 5.65-.014.36-5.761h-5.66l-.35 5.775Zm30.16-.042-5.64.014.37-5.775h5.64l-.37 5.761Zm18.86-.014 5.65-.015.38-5.761-5.64.015-.39 5.761Zm30.14-.043h-5.65l.41-5.761h5.65l-.41 5.761Zm18.83-.028h5.65l.42-5.761h-5.63l-.44 5.761Zm30.11-.029h-5.63l.44-5.761h5.64l-.45 5.761Zm18.83-.028h5.63l.47-5.761h-5.63l-.47 5.761Zm-142.7 22.972h-5.64l.36-5.732h5.63l-.35 5.732Zm18.81-.028 5.63-.014.37-5.718h-5.63l-.37 5.732Zm30.07-.043-5.63.015.39-5.733 5.64-.014-.4 5.732Zm18.8-.028h5.62l.41-5.732h-5.63l-.4 5.732Zm30.04-.043-5.63.015.42-5.733 5.63-.014-.42 5.732Zm18.77-.028 5.62-.014.45-5.718-5.63.014-.44 5.718Zm30.01-.043-5.62.015.46-5.733h5.63l-.47 5.718Zm-153.53 22.888 5.62-.014.36-5.69h-5.64l-.34 5.704Zm30-.043h-5.62l.37-5.69 5.62-.014-.37 5.704Zm18.74-.028 5.62-.014.39-5.704-5.62.014-.39 5.704Zm29.97-.057-5.6.014.39-5.704h5.62l-.41 5.69Zm18.75-.028 5.6-.014.43-5.69-5.62.014-.41 5.69Zm29.93-.057-5.6.014.43-5.69 5.61-.014-.44 5.69Zm18.72-.028h5.6l.46-5.705-5.61.015-.45 5.69Zm-141.89 22.773-5.61.015.34-5.676h5.62l-.35 5.661Zm18.7-.028 5.6-.014.37-5.662h-5.6l-.37 5.676Zm29.9-.057-5.6.014.39-5.675h5.59l-.38 5.661Zm18.7-.042h5.59l.4-5.676-5.6.014-.39 5.662Zm29.87-.057-5.6.014.42-5.661 5.59-.014-.41 5.661Zm18.67-.028 5.59-.014.44-5.662-5.61.014-.42 5.662Zm29.84-.057-5.59.014.45-5.661 5.59-.015-.45 5.662Zm-152.66 22.703 5.57-.014.36-5.634h-5.59l-.34 5.648Zm29.82-.071-5.59.014.37-5.633 5.59-.014-.37 5.633Zm18.65-.029 5.57-.014.39-5.633h-5.58l-.38 5.647Zm29.79-.071-5.57.015.4-5.634 5.57-.014-.4 5.633Zm18.63-.028 5.58-.014.43-5.633-5.59.014-.42 5.633Zm48.4-.099 5.57-.014.45-5.633-5.58.014-.44 5.633Zm-24.19.042 5.58-.014.42-5.633-5.57.014-.43 5.633Zm-116.9 22.533-5.58.014.34-5.605 5.58-.014-.34 5.605Zm18.6-.043 5.56-.014.37-5.605-5.58.015-.35 5.604Zm29.72-.071-5.56.015.37-5.605 5.58-.014-.39 5.604Zm18.59-.042 5.57-.014.39-5.605-5.56.014-.4 5.605Zm29.72-.071-5.57.014.41-5.591 5.57-.014-.41 5.591Zm18.55-.043 5.57-.014.44-5.59-5.57.014-.44 5.59Zm29.69-.071-5.56.015.45-5.591 5.56-.014-.45 5.59Zm-151.81 22.519 5.55-.015.35-5.576-5.56.014-.34 5.577Zm29.65-.071-5.54.014.35-5.577 5.56-.014-.37 5.577Zm18.55-.057 5.55-.014.38-5.562-5.55.014-.38 5.562Zm29.64-.071-5.55.014.38-5.562 5.57-.014-.4 5.562Zm18.52-.042 5.54-.015.43-5.562h-5.55l-.42 5.577Zm29.61-.071-5.53.014.42-5.577h5.55l-.44 5.563Zm18.52-.043 5.53-.014.45-5.577-5.54.015-.44 5.576Zm-140.31 22.377-5.54.014.34-5.534 5.54-.014-.34 5.534Zm18.51-.043 5.53-.014.35-5.548-5.53.014-.35 5.548Zm29.55-.085-5.53.014.38-5.534 5.54-.014-.39 5.534Zm18.49-.043 5.53-.014.4-5.548-5.53.014-.4 5.548Zm29.54-.085-5.53.014.41-5.533 5.53-.015-.41 5.534Zm18.48-.042 5.52-.015.42-5.548-5.53.015-.41 5.548Zm29.51-.086-5.53.015.44-5.534 5.53-.014-.44 5.533Zm-150.97 22.32 5.52-.014.35-5.505-5.53.014-.34 5.505Zm29.5-.085-5.52.014.35-5.505 5.52-.014-.35 5.505Zm18.44-.042 5.52-.029.37-5.505-5.52.014-.37 5.52Zm29.47-.086-5.52.015.39-5.506 5.52-.028-.39 5.519Zm18.42-.056 5.52-.015.41-5.505-5.52.014-.41 5.506Zm29.46-.086-5.52.015.42-5.506 5.52-.014-.42 5.505Zm18.4-.056 5.51-.015.45-5.505-5.52.014-.44 5.506Zm-139.52 22.192-5.52.028.34-5.491 5.52-.014-.34 5.477Zm18.39-.043 5.52-.028.35-5.477-5.52.014-.35 5.491Zm29.41-.099-5.5.014.37-5.477 5.5-.014-.37 5.477Zm18.38-.057 5.5-.014.4-5.477-5.5.014-.4 5.477Zm29.38-.085-5.5.014.41-5.477 5.51-.014-.42 5.477Zm18.36-.057 5.51-.014.43-5.477-5.51.014-.43 5.477Zm29.36-.099-5.49.028.43-5.477 5.5-.014-.44 5.463Zm-150.13 22.149 5.5-.028.34-5.449-5.5.014-.34 5.463Zm29.34-.099-5.49.014.35-5.448 5.49-.015-.35 5.449Zm18.35-.057 5.47-.028.39-5.449-5.5.029-.36 5.448Zm29.3-.099-5.49.014.39-5.449 5.49-.014-.39 5.449Zm18.33-.057 5.48-.028.41-5.449-5.49.028-.4 5.449Zm29.29-.099-5.5.014.43-5.449 5.48-.014-.41 5.449Zm18.3-.057 5.48-.028.44-5.435-5.48.015-.44 5.448Zm-138.76 22.008-5.47.014.32-5.42 5.49-.014-.34 5.42Zm18.31-.071 5.47-.014.36-5.421-5.49.015-.34 5.42Zm29.24-.1-5.48.015.37-5.421 5.48-.014-.37 5.42Zm18.28-.056 5.47-.029.39-5.42-5.48.028-.38 5.421Zm29.21-.114-5.46.029.4-5.421 5.47-.014-.41 5.406Zm18.28-.056 5.46-.015.43-5.42-5.48.014-.41 5.421Zm29.19-.1-5.47.014.43-5.406 5.48-.028-.44 5.42Zm-243.45 22.703 5.46-.014.27-5.406-5.47.028-.26 5.392Zm29.22-.114-5.47.029.29-5.392 5.46-.029-.28 5.392Zm18.27-.056 5.48-.029.3-5.392-5.48.029-.3 5.392Zm29.2-.114-5.46.029.31-5.392 5.47-.029-.32 5.392Zm-77.75 21.625 5.46-.014.27-5.378-5.46.028-.27 5.364Zm29.14-.114-5.45.029.27-5.364 5.46-.028-.28 5.363Zm18.22-.071 5.46-.014.3-5.364-5.46.015-.3 5.363Zm29.13-.113-5.45.028.31-5.363 5.45-.029-.31 5.364Zm160.81-21.909 5.45-.028.44-5.378-5.47.014-.42 5.392Zm-18.21.071-5.45.014.42-5.391 5.44-.015-.41 5.392Zm-29.13.1 5.47-.014.39-5.392-5.46.028-.4 5.378Zm-18.22.071-5.46.014.38-5.378 5.47-.028-.39 5.392Zm-29.14.099 5.45-.014.37-5.392-5.47.028-.35 5.378Zm-18.25.071-5.46.028.35-5.392 5.47-.028-.36 5.392Zm-29.17.113 5.46-.028.34-5.392-5.48.029-.32 5.391Zm-19.95 42.596-5.44.029.32-5.335 5.43-.029-.31 5.335Zm-29.05.114 5.45-.014.3-5.335-5.45.014-.3 5.335Zm-18.16.085-5.45.014.29-5.335 5.44-.014-.28 5.335Zm-23.63.086-5.44.028.27-5.335 5.44-.029-.27 5.336Zm-6.49 21.141 5.43-.028.27-5.307-5.43.029-.27 5.306Zm28.98-.127-5.42.028.29-5.321 5.42-.014-.29 5.307Zm18.14-.085 5.42-.014.3-5.307-5.44.028-.28 5.293Zm28.96-.114-5.42.014.31-5.292 5.42-.029-.31 5.307Zm25.34-42.397-5.46.028.34-5.364 5.45-.028-.33 5.364Zm18.19-.071 5.45-.015.36-5.363-5.45.014-.36 5.364Zm29.09-.114-5.45.028.37-5.363 5.45-.029-.37 5.364Zm18.18-.071 5.45-.014.38-5.363-5.45.014-.38 5.363ZM1364.7 6.428h-5.75l.5-5.988h5.74l-.49 5.988Zm-64.19 449.743 5.44-.028.43-5.349-5.43.014-.44 5.363Zm-18.15.071-5.45.015.41-5.35 5.45-.028-.41 5.363Zm-23.61.086-5.44.028.38-5.363 5.45-.015-.39 5.35Zm-95.84 21.582-5.43.014.32-5.335 5.44-.015-.33 5.336Zm18.15-.086 5.42-.014.35-5.335-5.43.028-.34 5.321Zm29-.113-5.43.028.35-5.335 5.44-.028-.36 5.335Zm18.14-.071 5.42-.028.38-5.321-5.43.014-.37 5.335Zm28.97-.114-5.42.015.38-5.321 5.44-.029-.4 5.335Zm18.12-.085 5.42-.014.41-5.335-5.42.028-.41 5.321Zm28.95-.113-5.42.028.42-5.335 5.44-.014-.44 5.321Zm-148.07 21.695 5.42-.028.33-5.307-5.42.028-.33 5.307Zm28.93-.128-5.4.029.34-5.307 5.42-.028-.36 5.306Zm18.11-.07 5.41-.029.36-5.307-5.42.029-.35 5.307Zm28.9-.128-5.4.014.37-5.293 5.42-.028-.39 5.307Zm18.08-.085 5.41-.015.39-5.306-5.4.028-.4 5.293Zm28.89-.114-5.41.014.41-5.292 5.41-.029-.41 5.307Zm18.06-.085 5.41-.014.42-5.307-5.4.028-.43 5.293Zm86.74-491.971h5.75l.52-5.988-5.76-.014-.51 6.002Zm30.66 0h-5.73l.53-5.988h5.74l-.54 5.988Zm24.91.014-5.74-.014.56-5.974h5.73l-.55 5.988Zm-76.72 23.668h-5.72l.48-5.96h5.73l-.49 5.96Zm19.14 0h5.71l.52-5.96h-5.72l-.51 5.96Zm30.56 0h-5.72l.53-5.96h5.73l-.54 5.96Zm19.11 0h5.72l.56-5.945h-5.72l-.56 5.945Zm-70.77 23.554h-5.71l.49-5.931h5.71l-.49 5.931Zm19.08 0 5.71-.014.51-5.917h-5.72l-.5 5.931Zm30.48-.014h-5.7l.52-5.917h5.71l-.53 5.917Zm19.06 0h5.7l.55-5.917h-5.71l-.54 5.917Zm-70.57 23.426h-5.69l.49-5.888h5.7l-.5 5.888Zm19.02 0h5.7l.51-5.888h-5.7l-.51 5.888Zm30.4-.014h-5.69l.53-5.888h5.69l-.53 5.888Zm19-.014h5.69l.54-5.889-5.69.015-.54 5.874Zm-70.36 23.313h-5.68l.49-5.846 5.69-.014-.5 5.86Zm18.97-.014h5.68l.51-5.846h-5.68l-.51 5.846Zm30.31-.014h-5.68l.53-5.846h5.67l-.52 5.846Zm18.96-.014h5.67l.54-5.846h-5.68l-.53 5.846Zm-70.16 23.199h-5.67l.48-5.818h5.68l-.49 5.818Zm18.92-.014h5.66l.5-5.832-5.67.014-.49 5.818Zm30.22-.029h-5.66l.51-5.817h5.66l-.51 5.817Zm18.9-.014h5.65l.54-5.818h-5.66l-.53 5.818Zm-69.95 23.072-5.65.014.47-5.789 5.66-.014-.48 5.789Zm18.86-.014h5.64l.5-5.79h-5.65l-.49 5.79Zm30.13-.029h-5.64l.52-5.789h5.65l-.53 5.789Zm18.85-.028h5.64l.53-5.789-5.65.014-.52 5.775Zm-69.76 22.973h-5.63l.48-5.761h5.64l-.49 5.761Zm18.82-.029 5.63-.014.5-5.747h-5.64l-.49 5.761Zm30.05-.042-5.62.014.5-5.761h5.63l-.51 5.747Zm18.79-.015 5.63-.014.53-5.746h-5.62l-.54 5.76Zm-69.54 22.845h-5.62l.46-5.718 5.64-.014-.48 5.732Zm18.75-.028 5.61-.015.49-5.718-5.61.014-.49 5.719Zm29.97-.043h-5.62l.51-5.718h5.62l-.51 5.718Zm18.75-.028 5.6-.014.53-5.719-5.62.015-.51 5.718Zm-69.36 22.731-5.59.014.47-5.69 5.6-.014-.48 5.69Zm18.7-.028 5.6-.014.49-5.69-5.59.014-.5 5.69Zm29.9-.057-5.61.014.51-5.69 5.59-.014-.49 5.69Zm18.68-.028 5.59-.015.53-5.675h-5.61l-.51 5.69Zm-69.15 22.617-5.58.015.45-5.662 5.59-.014-.46 5.661Zm18.65-.028 5.58-.014.48-5.662-5.57.014-.49 5.662Zm29.8-.057-5.57.014.49-5.661 5.59-.014-.51 5.661Zm18.63-.043h5.59l.51-5.661-5.57.014-.53 5.647Zm-68.94 22.505-5.58.014.47-5.619 5.57-.014-.46 5.619Zm18.6-.029 5.56-.014.48-5.633-5.56.014-.48 5.633Zm29.73-.071-5.58.015.5-5.619 5.57-.014-.49 5.618Zm18.57-.028 5.56-.014.53-5.619h-5.58l-.51 5.633Zm-68.75 22.391-5.56.014.47-5.605h5.55l-.46 5.591Zm18.55-.043 5.55-.014.48-5.591-5.56.015-.47 5.59Zm29.64-.071-5.56.014.49-5.59 5.57-.014-.5 5.59Zm18.52-.042h5.54l.53-5.605-5.55.014-.52 5.591Zm-68.55 22.291-5.55.014.47-5.562 5.53-.014-.45 5.562Zm18.49-.042 5.53-.015.48-5.562-5.53.014-.48 5.563Zm29.55-.071h-5.53l.5-5.563 5.53-.014-.5 5.577Zm18.49-.057 5.53-.014.52-5.563-5.54.015-.51 5.562Zm-68.36 22.178-5.54.014.47-5.534 5.52-.014-.45 5.534Zm18.43-.043 5.53-.028.47-5.52-5.52.014-.48 5.534Zm29.48-.085-5.52.014.49-5.534 5.53-.014-.5 5.534Zm18.44-.043 5.5-.014.51-5.534-5.52.015-.49 5.533Zm-68.18 22.065-5.51.014.46-5.506 5.51-.014-.46 5.506Zm18.4-.057 5.51-.014.46-5.506-5.5.015-.47 5.505Zm29.39-.085-5.51.014.5-5.505 5.5-.015-.49 5.506Zm18.37-.057 5.51-.014.51-5.506-5.51.015-.51 5.505Zm-67.97 21.965-5.49.014.44-5.477 5.51-.014-.46 5.477Zm18.34-.057 5.49-.014.48-5.477-5.5.014-.47 5.477Zm29.31-.099-5.48.014.49-5.463 5.49-.014-.5 5.463Zm18.33-.057 5.5-.014.49-5.463-5.49.015-.5 5.462Zm-67.78 21.852-5.47.028.44-5.448 5.49-.015-.46 5.435Zm18.29-.057 5.48-.014.47-5.449-5.48.028-.47 5.435Zm29.23-.099-5.46.028.47-5.449 5.47-.014-.48 5.435Zm18.28-.057 5.48-.014.49-5.435-5.46.015-.51 5.434Zm-67.6 21.752-5.46.014.45-5.42 5.46-.014-.45 5.42Zm18.25-.071 5.46-.014.47-5.42-5.46.028-.47 5.406Zm29.16-.099-5.47.014.49-5.406 5.46-.014-.48 5.406Zm18.23-.057 5.45-.028.5-5.406-5.47.014-.48 5.42Zm-67.46 22.036-5.43.014.44-5.377 5.45-.015-.46 5.378Zm18.21-.071 5.45-.014.45-5.378-5.45.014-.45 5.378Zm29.07-.099-5.45.014.49-5.378 5.45-.028-.49 5.392Zm18.18-.071 5.43-.014.5-5.392-5.43.028-.5 5.378Zm-67.22 21.539-5.43.015.44-5.35 5.43-.028-.44 5.363Zm18.14-.071 5.43-.028.47-5.349-5.43.014-.47 5.363Zm29-.113-5.43.014.48-5.349 5.43-.029-.48 5.364Zm18.12-.071 5.44-.029.49-5.349-5.43.028-.5 5.35Zm-67.03 21.426-5.41.028.44-5.335 5.42-.014-.45 5.321Zm18.11-.071 5.42-.029.45-5.321-5.42.029-.45 5.321Zm28.91-.128-5.42.028.47-5.321 5.42-.028-.47 5.321Zm18.08-.071 5.41-.014.49-5.321-5.42.014-.48 5.321Zm-66.84 21.326-5.41.029.44-5.293 5.41-.028-.44 5.292Zm18.04-.071 5.41-.028.45-5.293-5.4.029-.46 5.292Zm28.84-.127-5.39.028.46-5.292 5.41-.029-.48 5.293Zm18.03-.071 5.39-.028.5-5.293-5.41.028-.48 5.293Z" fill="url(#a)"/><defs><linearGradient id="a" x1="720" y1="0" x2="720" y2="503.777" gradientUnits="userSpaceOnUse"><stop stop-color="#84F0FF" stop-opacity=".5"/><stop offset="1" stop-color="#00E0FF" stop-opacity="0"/></linearGradient></defs></svg>