<svg width="1440" height="504" viewBox="0 0 1440 504" fill="none" xmlns="http://www.w3.org/2000/svg">
    <path fill-rule="evenodd" clip-rule="evenodd" d="M0.496625 6.07302H6.38518L5.88856 0H0L0.496625 6.07302ZM26.0516 6.07303H31.9401L31.4719 0.0142031H25.5833L26.0516 6.07303ZM57.4951 6.08722H51.6065L51.1383 0.0142031H57.0268L57.4951 6.08722ZM77.1472 6.08723H83.0216L82.5817 0.0284063H76.6932L77.1472 6.08723ZM108.548 6.10142L102.66 6.08723L102.234 0.0284063L108.122 0.0425956L108.548 6.10142ZM128.172 6.10144H134.046L133.649 0.0426094H127.775L128.172 6.10144ZM159.544 6.10145H153.67L153.287 0.0568126H159.161L159.544 6.10145ZM179.154 6.11564H185.028L184.674 0.0568126H178.785L179.154 6.11564ZM210.498 6.12984L204.638 6.11565L204.283 0.0710157H210.158L210.498 6.12984ZM230.093 6.12984H235.968L235.641 0.0710157H229.767L230.093 6.12984ZM261.409 6.14405L255.549 6.12986L255.237 0.0852189H261.111L261.409 6.14405ZM280.991 6.14405H286.851L286.567 0.0994082L280.693 0.0852189L280.991 6.14405ZM312.278 6.14406H306.418L306.148 0.099422H312.008L312.278 6.14406ZM331.831 6.15825H337.691L337.435 0.113611L331.575 0.099422L331.831 6.15825ZM363.09 6.15826H357.244L357.003 0.113625H362.863L363.09 6.15826ZM382.628 6.17247H388.489L388.262 0.127828H382.416L382.628 6.17247ZM413.859 6.17247H408.013L407.814 0.127828H413.66L413.859 6.17247ZM433.384 6.18667H439.23L439.045 0.142031H433.199L433.384 6.18667ZM464.586 6.18667H458.74L458.584 0.142031L464.43 0.156221L464.586 6.18667ZM484.082 6.20087H489.928L489.786 0.156235H483.94L484.082 6.20087ZM515.256 6.20089H509.424L509.296 0.170438H515.128L515.256 6.20089ZM534.738 6.21508H540.569L540.47 0.170438H534.638L534.738 6.21508ZM565.883 6.21474H560.052L559.966 0.184295H565.798L565.883 6.21474ZM585.351 6.22893H591.183L591.112 0.184295H585.28L585.351 6.22893ZM616.468 6.22895H610.636L610.594 0.198498H616.411L616.468 6.22895ZM635.907 6.22895L641.739 6.24314L641.711 0.212687L635.879 0.198498L635.907 6.22895ZM666.996 6.24315H661.178L661.164 0.212701H666.982L666.996 6.24315ZM686.435 0.226904H692.253V6.25735H686.435V0.226904ZM717.482 6.25735H711.664L711.692 0.226904H717.51L717.482 6.25735ZM736.893 6.25737L742.71 6.27156L742.753 0.241107H736.935L736.893 6.25737ZM767.924 6.27156H762.121L762.178 0.241107H767.995L767.924 6.27156ZM787.321 6.27157H793.125L793.21 0.25531H787.392L787.321 6.27157ZM818.325 6.28576H812.521L812.606 0.25531L818.424 0.2695L818.325 6.28576ZM837.693 6.28577H843.497L843.61 0.269513H837.807L837.693 6.28577ZM868.668 6.29998H862.865L863.007 0.283717H868.796L868.668 6.29998ZM893.826 6.29998H888.022L888.178 0.283717H893.982L893.826 6.29998ZM2.48299 30.0528H8.34316L7.86073 24.0224H1.98636L2.48299 30.0528ZM33.8271 30.0528H27.9669L27.4845 24.0224H33.3588L33.8271 30.0528ZM53.4366 30.0528H59.2968L58.8428 24.0224H52.9684L53.4366 30.0528ZM84.7527 30.0528H78.8925L78.4526 24.0366H84.327L84.7527 30.0528ZM104.333 30.0528H110.208L109.782 24.0366H103.922L104.333 30.0528ZM135.635 30.0528H129.775L129.378 24.0366H135.238L135.635 30.0528ZM155.202 30.067H161.062L160.679 24.0366H154.819L155.202 30.067ZM186.461 30.067H180.615L180.246 24.0366H186.106L186.461 30.067ZM206.014 30.067H211.86L211.519 24.0508H205.673L206.014 30.067ZM237.259 30.067H231.399L231.073 24.0508H236.933L237.259 30.067ZM256.784 30.067H262.63L262.317 24.0508H256.471L256.784 30.067ZM287.985 30.067H282.154L281.856 24.0508H287.702L287.985 30.067ZM307.496 30.067H313.342L313.073 24.0508H307.227L307.496 30.067ZM338.684 30.067H332.838L332.597 24.0508H338.429L338.684 30.067ZM358.18 30.0671H364.012L363.785 24.065H357.939L358.18 30.0671ZM389.326 30.0671H383.494L383.281 24.065H389.113L389.326 30.0671ZM408.807 30.0812H414.625L414.44 24.065H408.609L408.807 30.0812ZM439.925 30.0812H434.093L433.923 24.065H439.755L439.925 30.0812ZM459.378 30.0812H465.21L465.054 24.065H459.222L459.378 30.0812ZM490.467 30.0813H484.649L484.507 24.0792H490.339L490.467 30.0813ZM509.906 30.0813H515.724L515.61 24.0792H509.793L509.906 30.0813ZM540.981 30.0813H535.163L535.05 24.0792H540.882L540.981 30.0813ZM560.392 30.0813H566.209L566.124 24.0792H560.307L560.392 30.0813ZM591.438 30.0813H585.62L585.549 24.0792H591.367L591.438 30.0813ZM610.835 30.0813H616.638L616.596 24.0934H610.792L610.835 30.0813ZM641.853 30.0813H636.035L636.007 24.0934H641.81L641.853 30.0813ZM661.235 30.0813H667.039L667.024 24.0934H661.221L661.235 30.0813ZM692.21 24.0934H686.407V30.0813H692.21V24.0934ZM711.578 30.0813H717.368L717.396 24.0934H711.593L711.578 30.0813ZM742.525 30.0955H736.736L736.779 24.0934H742.568L742.525 30.0955ZM761.88 30.0955H767.669L767.74 24.1076H761.936L761.88 30.0955ZM792.798 30.0955H787.009L787.094 24.1076H792.883L792.798 30.0955ZM812.124 30.0955H817.913L818.013 24.1076H812.224L812.124 30.0955ZM843.028 30.0955H837.239L837.352 24.1076H843.142L843.028 30.0955ZM862.34 30.0955H868.115L868.257 24.1076H862.467L862.34 30.0955ZM893.202 30.0955H887.427L887.568 24.1218H893.358L893.202 30.0955ZM4.44094 53.9051H10.3011L9.8045 47.9031H3.94432L4.44094 53.9051ZM35.6998 53.8909H29.8539L29.3714 47.9031H35.2316L35.6998 53.8909ZM55.2529 53.8909H61.0989L60.6449 47.9031H54.7989L55.2529 53.8909ZM86.4838 53.8909H80.6378L80.1979 47.9031H86.0439L86.4838 53.8909ZM106.008 53.8909H111.854L111.443 47.8889H105.597L106.008 53.8909ZM137.21 53.8767H131.364L130.967 47.8889H136.813L137.21 53.8767ZM156.72 53.8767H162.566L162.183 47.8889H156.337L156.72 53.8767ZM187.894 53.8767H182.062L181.694 47.8889H187.54L187.894 53.8767ZM207.39 53.8625H213.222L212.881 47.8747L207.035 47.8888L207.39 53.8625ZM238.536 53.8625H232.704L232.378 47.8747H238.21L238.536 53.8625ZM258.004 53.8625H263.836L263.538 47.8747H257.706L258.004 53.8625ZM289.121 53.8483H283.303L283.005 47.8747H288.837L289.121 53.8483ZM308.574 53.8483H314.406L314.136 47.8747H308.305L308.574 53.8483ZM339.663 53.8483H333.846L333.59 47.8746L339.422 47.8605L339.663 53.8483ZM359.102 53.8483H364.92L364.693 47.8605H358.875L359.102 53.8483ZM390.163 53.8341H384.345L384.132 47.8605H389.95L390.163 53.8341ZM409.588 53.8341H415.392L415.207 47.8605H409.389L409.588 53.8341ZM440.62 53.8341H434.803L434.632 47.8605H440.436L440.62 53.8341ZM460.017 53.82H465.82L465.664 47.8605H459.861L460.017 53.82ZM867.576 53.749L861.815 53.7631L861.943 47.8036H867.718L867.576 53.749ZM717.268 53.7773H711.479L711.508 47.8178H717.297L717.268 53.7773ZM616.823 53.7915L611.034 53.8057L610.991 47.832H616.78L616.823 53.7915ZM491.02 53.8199H485.217L485.075 47.8462H490.878L491.02 53.8199ZM516.207 53.8199H510.403L510.275 47.8462H516.079L516.207 53.8199ZM535.575 53.8057H541.378L541.279 47.8462H535.475L535.575 53.8057ZM566.536 53.8057H560.746L560.661 47.8462H566.451L566.536 53.8057ZM585.89 53.8057H591.694L591.623 47.8462H585.833L585.89 53.8057ZM636.163 53.7915H641.952L641.924 47.832H636.135L636.163 53.7915ZM667.067 53.7915H661.278L661.264 47.832H667.067V53.7915ZM686.393 47.832H692.182V53.7915H686.393V47.832ZM736.566 53.7773H742.341L742.398 47.8178H736.609L736.566 53.7773ZM767.414 53.7773H761.639L761.695 47.8178H767.47L767.414 53.7773ZM786.697 53.7773L792.472 53.7632L792.557 47.8178H786.782L786.697 53.7773ZM817.516 53.7632H811.756L811.841 47.8178H817.616L817.516 53.7632ZM836.785 53.7632H842.546L842.674 47.8178H836.899L836.785 53.7632ZM886.831 53.749H892.592L892.733 47.8036H886.973L886.831 53.749ZM12.2456 77.6154H6.39959L5.90297 71.6559L11.749 71.6417L12.2456 77.6154ZM31.7276 77.6012H37.5736L37.1054 71.6417H31.2594L31.7276 77.6012ZM62.8871 77.587H57.0553L56.6013 71.6275H62.4473L62.8871 77.587ZM82.3692 77.587L88.201 77.5728L87.7611 71.6275H81.9293L82.3692 77.587ZM113.501 77.5728H107.669L107.257 71.6133H113.089L113.501 77.5728ZM132.954 77.5586H138.785L138.388 71.6133H132.556L132.954 77.5586ZM164.057 77.5586H158.239L157.856 71.5991H163.688L164.057 77.5586ZM183.496 77.5444H189.314L188.959 71.5849H183.142L183.496 77.5444ZM214.57 77.5302H208.753L208.412 71.5849H214.23L214.57 77.5302ZM233.996 77.5302L239.813 77.516L239.487 71.5707H233.669L233.996 77.5302ZM265.042 77.516H259.224L258.912 71.5707H264.73L265.042 77.516ZM284.439 77.5018H290.257L289.973 71.5565H284.155L284.439 77.5018ZM315.456 77.4876L309.653 77.5018L309.383 71.5565L315.187 71.5423L315.456 77.4876ZM334.853 77.4876H340.642L340.401 71.5423H334.598L334.853 77.4876ZM365.829 77.4734H360.025L359.798 71.5281H365.602L365.829 77.4734ZM385.197 77.4592H391.001L390.788 71.5281H384.984L385.197 77.4592ZM416.158 77.4592H410.369L410.17 71.5139H415.96L416.158 77.4592ZM435.512 77.445H441.301L441.131 71.5139H435.342L435.512 77.445ZM466.445 77.4308L460.656 77.445L460.485 71.4997H466.289L466.445 77.4308ZM485.77 77.4308H491.56L491.432 71.4855H485.628L485.77 77.4308ZM516.675 77.4166H510.886L510.772 71.4855H516.561L516.675 77.4166ZM536 77.4027H541.775L541.676 71.4716H535.887L536 77.4027ZM566.862 77.4027H561.087L561.002 71.4716H566.777L566.862 77.4027ZM586.16 77.3885H591.949L591.878 71.4574H586.103L586.16 77.3885ZM617.008 77.3743H611.232L611.19 71.4432H616.965L617.008 77.3743ZM636.291 77.3743H642.066L642.037 71.4432H636.262L636.291 77.3743ZM667.11 77.3601H661.335L661.321 71.429H667.096L667.11 77.3601ZM686.365 77.3459H692.14V71.429H686.379L686.365 77.3459ZM717.155 77.3459H711.394L711.422 71.4148H717.183L717.155 77.3459ZM736.41 77.3317H742.157L742.214 71.4148H736.439L736.41 77.3317ZM767.158 77.3176H761.398L761.454 71.4006H767.229L767.158 77.3176ZM786.385 77.3175L792.146 77.3033L792.231 71.3864H786.47L786.385 77.3175ZM817.119 77.3033H811.372L811.458 71.3864H817.219L817.119 77.3033ZM836.331 77.2891H842.078L842.206 71.3722H836.445L836.331 77.2891ZM867.037 77.2891H861.29L861.418 71.3722H867.164L867.037 77.2891ZM886.235 77.2749H891.982L892.123 71.358H886.377L886.235 77.2749ZM14.161 101.184H8.34336L7.86092 95.2525H13.6785L14.161 101.184ZM33.6004 101.17H39.418L38.9497 95.2387H33.1321L33.6004 101.17ZM64.675 101.156H58.8574L58.4033 95.2245H64.221L64.675 101.156ZM84.0999 101.141H89.9033L89.4776 95.2103L83.66 95.2245L84.0999 101.141ZM115.132 101.127H109.314L108.903 95.1961H114.72L115.132 101.127ZM134.529 101.113L140.347 101.099L139.949 95.1819H134.132L134.529 101.113ZM165.547 101.099H159.743L159.36 95.1819L165.163 95.1677L165.547 101.099ZM184.929 101.085L190.733 101.07L190.378 95.1535L184.574 95.1677L184.929 101.085ZM215.905 101.056L210.115 101.07L209.775 95.1535L215.578 95.1393L215.905 101.056ZM235.273 101.056L241.077 101.042L240.764 95.1251L234.961 95.1393L235.273 101.056ZM266.234 101.028H260.43L260.132 95.125L265.936 95.1109L266.234 101.028ZM285.588 101.014H291.377L291.093 95.1109H285.29L285.588 101.014ZM316.506 100.999H310.717L310.448 95.0967H316.237L316.506 100.999ZM335.832 100.985H341.622L341.381 95.0825H335.591L335.832 100.985ZM366.737 100.971H360.947L360.72 95.0683H366.51L366.737 100.971ZM386.048 100.957H391.823L391.624 95.054H385.835L386.048 100.957ZM416.91 100.943H411.135L410.936 95.0398H416.725L416.91 100.943ZM436.222 100.928H441.997L441.812 95.0256H436.037L436.222 100.928ZM467.055 100.914H461.28L461.124 95.0114H466.899L467.055 100.914ZM486.338 100.9H492.099L491.971 94.9972H486.196L486.338 100.9ZM517.143 100.886H511.368L511.254 94.983H517.029L517.143 100.886ZM536.412 100.872H542.173L542.073 94.9688H536.298L536.412 100.872ZM567.188 100.857H561.428L561.342 94.9546H567.103L567.188 100.857ZM586.429 100.843L592.19 100.829L592.133 94.9404H586.372L586.429 100.843ZM617.192 100.815L611.431 100.829L611.374 94.9262H617.149L617.192 100.815ZM636.418 100.815L642.165 100.801L642.136 94.912H636.39L636.418 100.815ZM667.138 94.8978H661.377V100.786H667.138V94.8978ZM686.35 100.787L692.097 100.773L692.111 94.884H686.35V100.787ZM717.042 100.758H711.295L711.323 94.8698H717.07L717.042 100.758ZM736.24 100.744H741.987L742.029 94.8555H736.283L736.24 100.744ZM766.917 100.73H761.17L761.227 94.8413H766.974L766.917 100.73ZM786.087 100.716H791.819L791.904 94.8271H786.158L786.087 100.716ZM816.722 100.701H810.989L811.089 94.8271L816.821 94.8129L816.722 100.701ZM835.877 100.687H841.624L841.738 94.7987L835.991 94.8129L835.877 100.687ZM866.497 100.673H860.765L860.892 94.7987L866.625 94.7845L866.497 100.673ZM885.639 100.659H891.372L891.513 94.7703L885.781 94.7845L885.639 100.659ZM16.0767 124.624H10.2733L9.79082 118.722H15.5942L16.0767 124.624ZM35.4593 124.596H41.2627L40.8086 118.707H34.991L35.4593 124.596ZM66.4342 124.582H60.6449L60.1909 118.693L65.9943 118.679L66.4342 124.582ZM85.8025 124.553H91.6059L91.1803 118.665L85.3769 118.679L85.8025 124.553ZM116.75 124.54H110.96L110.549 118.651H116.352L116.75 124.54ZM136.104 124.525L141.893 124.511L141.496 118.637H135.707L136.104 124.525ZM167.023 124.497H161.233L160.85 118.608H166.654L167.023 124.497ZM186.348 124.483L192.137 124.469L191.783 118.594H185.993L186.348 124.483ZM217.238 124.454H211.463L211.123 118.58L216.912 118.566L217.238 124.454ZM236.55 124.44H242.339L242.013 118.552H236.238L236.55 124.44ZM267.426 124.412H261.637L261.339 118.537H267.114L267.426 124.412ZM286.709 124.398H292.484L292.215 118.509L286.426 118.523L286.709 124.398ZM317.542 124.369L311.767 124.383L311.512 118.495H317.287L317.542 124.369ZM336.825 124.355H342.6L342.345 118.481H336.584L336.825 124.355ZM367.631 124.327L361.87 124.341L361.629 118.466L367.404 118.452L367.631 124.327ZM386.886 124.312H392.661L392.448 118.438H386.673L386.886 124.312ZM417.676 124.284L411.901 124.298L411.717 118.424H417.478L417.676 124.284ZM436.917 124.27H442.678L442.507 118.395L436.732 118.41L436.917 124.27ZM467.665 124.256H461.904L461.748 118.381H467.509L467.665 124.256ZM890.761 123.901L885.043 123.915L885.199 118.069L890.917 118.055L890.761 123.901ZM860.254 123.929H865.958L866.1 118.083H860.382L860.254 123.929ZM841.156 123.943L835.437 123.958L835.551 118.097H841.269L841.156 123.943ZM810.62 123.972H816.339L816.438 118.112L810.705 118.126L810.62 123.972ZM791.507 123.986L785.775 124L785.86 118.14H791.578L791.507 123.986ZM760.929 124.014H766.662L766.719 118.154H761L760.929 124.014ZM741.802 124.029H736.084L736.112 118.183L741.845 118.168L741.802 124.029ZM711.21 124.057L716.942 124.043L716.971 118.197H711.238L711.21 124.057ZM692.069 124.071H686.336V118.211H692.069V124.071ZM661.434 118.239H667.166V124.1H661.434V118.239ZM642.279 124.114H636.532L636.504 118.254H642.25L642.279 124.114ZM611.63 124.128H617.362L617.32 118.268H611.573L611.63 124.128ZM592.446 124.156H586.699L586.628 118.296L592.375 118.282L592.446 124.156ZM561.769 124.17H567.515L567.43 118.31H561.683L561.769 124.17ZM542.57 124.184L536.81 124.199L536.71 118.324H542.471L542.57 124.184ZM511.85 124.213H517.611L517.498 118.338L511.737 118.353L511.85 124.213ZM486.892 124.241L492.638 124.227L492.511 118.367H486.75L486.892 124.241ZM12.203 147.923H17.9923L17.5098 142.063H11.7206L12.203 147.923ZM43.0931 147.895H37.318L36.8498 142.049L42.639 142.035L43.0931 147.895ZM62.4188 147.881L68.1939 147.867L67.754 142.006L61.9648 142.021L62.4188 147.881ZM93.295 147.838L87.5058 147.852L87.0801 141.992H92.8693L93.295 147.838ZM112.592 147.824L118.367 147.81L117.956 141.964H112.181L112.592 147.824ZM143.44 147.796H137.665L137.267 141.95L143.042 141.935L143.44 147.796ZM162.723 147.767H168.484L168.115 141.921H162.34L162.723 147.767ZM193.542 147.739L187.767 147.753L187.413 141.893H193.188L193.542 147.739ZM212.797 147.725L218.572 147.71L218.232 141.864H212.471L212.797 147.725ZM243.588 147.682L237.827 147.696L237.5 141.85L243.275 141.836L243.588 147.682ZM262.843 147.668H268.604L268.306 141.822H262.531L262.843 147.668ZM293.591 147.639H287.844L287.56 141.793H293.321L293.591 147.639ZM312.832 147.611H318.578L318.323 141.765L312.562 141.779L312.832 147.611ZM343.565 147.583L337.805 147.597L337.563 141.751L343.324 141.737L343.565 147.583ZM362.778 147.568L368.525 147.554L368.297 141.722H362.551L362.778 147.568ZM393.483 147.54H387.722L387.524 141.694H393.27L393.483 147.54ZM412.667 147.512H418.414L418.229 141.666L412.483 141.68L412.667 147.512ZM443.345 147.484H437.598L437.428 141.652H443.174L443.345 147.484ZM462.528 147.469L468.261 147.455L468.119 141.623H462.372L462.528 147.469ZM493.177 147.427L487.431 147.441L487.303 141.609L493.035 141.595L493.177 147.427ZM512.333 147.413H518.065L517.952 141.581H512.219L512.333 147.413ZM542.953 147.384H537.221L537.122 141.552H542.854L542.953 147.384ZM562.095 147.356H567.827L567.756 141.524L562.01 141.538L562.095 147.356ZM592.687 147.327L586.969 147.341L586.898 141.51L592.63 141.495L592.687 147.327ZM611.814 147.313L617.546 147.299L617.504 141.481H611.771L611.814 147.313ZM642.378 147.285H636.659L636.631 141.453H642.349L642.378 147.285ZM661.49 141.43L667.208 141.424L667.214 147.256L661.496 147.262L661.49 141.43ZM692.026 147.228L686.308 147.242L686.322 141.41H692.04L692.026 147.228ZM711.125 147.214L716.829 147.199L716.857 141.382H711.139L711.125 147.214ZM741.632 147.171L735.914 147.186L735.956 141.368L741.675 141.354L741.632 147.171ZM760.702 147.157H766.406L766.477 141.34H760.759L760.702 147.157ZM791.181 147.129H785.477L785.548 141.311H791.266L791.181 147.129ZM810.237 147.1H815.941L816.041 141.283L810.337 141.297L810.237 147.1ZM840.701 147.072L834.997 147.086L835.097 141.269H840.815L840.701 147.072ZM859.729 147.058H865.433L865.561 141.24H859.857L859.729 147.058ZM890.165 147.029H884.461L884.603 141.226L890.307 141.212L890.165 147.029ZM14.1042 171.094H19.8792L19.3968 165.263H13.6217L14.1042 171.094ZM44.9236 171.052L39.1485 171.066L38.6945 165.234H44.4553L44.9236 171.052ZM64.1783 171.038L69.9533 171.023L69.5135 165.206H63.7384L64.1783 171.038ZM94.9693 170.995L89.2084 171.009L88.7827 165.177H94.5436L94.9693 170.995ZM114.21 170.967H119.971L119.573 165.149H113.798L114.21 170.967ZM144.972 170.938H139.211L138.814 165.121L144.575 165.107L144.972 170.938ZM164.199 170.91L169.945 170.896L169.591 165.078L163.83 165.092L164.199 170.91ZM194.919 170.867L189.172 170.882L188.817 165.064L194.578 165.05L194.919 170.867ZM214.131 170.853L219.892 170.839L219.551 165.021L213.804 165.036L214.131 170.853ZM244.836 170.811H239.09L238.763 165.007L244.524 164.993L244.836 170.811ZM264.021 170.782H269.767L269.483 164.965L263.723 164.979L264.021 170.782ZM294.698 170.754H288.951L288.681 164.95L294.428 164.936L294.698 170.754ZM313.882 170.725L319.614 170.711L319.359 164.908H313.612L313.882 170.725ZM344.516 170.683L338.784 170.697L338.543 164.879H344.275L344.516 170.683ZM363.672 170.669L369.419 170.654L369.192 164.851H363.445L363.672 170.669ZM394.292 170.626H388.56L388.347 164.823H394.094L394.292 170.626ZM413.434 170.598H419.166L418.982 164.794H413.249L413.434 170.598ZM444.026 170.57H438.293L438.123 164.766H443.855L444.026 170.57ZM463.139 170.541L468.871 170.527L468.715 164.724L462.997 164.738L463.139 170.541ZM493.703 170.499L487.984 170.513L487.842 164.709L493.575 164.695L493.703 170.499ZM512.815 170.484L518.534 170.47L518.42 164.667L512.688 164.681L512.815 170.484ZM543.351 170.442H537.633L537.533 164.652L543.252 164.638L543.351 170.442ZM562.435 170.413H568.154L568.069 164.61L562.35 164.624L562.435 170.413ZM592.942 170.385H587.224L587.167 164.596L592.871 164.581L592.942 170.385ZM612.013 170.357H617.717L617.674 164.553L611.97 164.567L612.013 170.357ZM642.491 170.314L636.787 170.328L636.745 164.525H642.463L642.491 170.314ZM661.525 164.526L667.229 164.519L667.236 170.309L661.532 170.316L661.525 164.526ZM691.998 170.257L686.294 170.271V164.468H691.998V170.257ZM711.026 170.229H716.73L716.758 164.439H711.054L711.026 170.229ZM741.447 170.201H735.758L735.8 164.411H741.49L741.447 170.201ZM760.475 170.172L766.165 170.158L766.222 164.383H760.532L760.475 170.172ZM790.869 170.13L785.179 170.144L785.25 164.355H790.94L790.869 170.13ZM809.868 170.115L815.558 170.101L815.657 164.326H809.968L809.868 170.115ZM840.233 170.073L834.543 170.087L834.657 164.298H840.347L840.233 170.073ZM859.219 170.044H864.909L865.036 164.269H859.346L859.219 170.044ZM889.555 170.016H883.879L884.021 164.241H889.711L889.555 170.016ZM16.0057 194.124H21.7665L21.2841 188.334H15.5232L16.0057 194.124ZM46.7256 194.081L40.979 194.095L40.5107 188.306L46.2716 188.292L46.7256 194.081ZM65.9378 194.053H71.6844L71.2445 188.263H65.4979L65.9378 194.053ZM96.6293 194.01L90.8827 194.024L90.457 188.235L96.2178 188.221L96.6293 194.01ZM115.828 193.982H121.574L121.163 188.192H115.416L115.828 193.982ZM146.49 193.939L140.744 193.953L140.361 188.164L146.107 188.15L146.49 193.939ZM165.66 193.911H171.407L171.038 188.122L165.291 188.136L165.66 193.911ZM196.309 193.868L190.562 193.882L190.222 188.093H195.954L196.309 193.868ZM215.465 193.84H221.197L220.871 188.051L215.124 188.065L215.465 193.84ZM246.071 193.797L240.338 193.811L240.026 188.022H245.759L246.071 193.797ZM265.212 193.769H270.945L270.647 187.98L264.914 187.994L265.212 193.769ZM295.79 193.726L290.072 193.74L289.788 187.951H295.521L295.79 193.726ZM314.917 193.698L320.636 193.684L320.38 187.909L314.648 187.923L314.917 193.698ZM345.467 193.655L339.749 193.669L339.507 187.88H345.24L345.467 193.655ZM364.58 193.627H370.298L370.071 187.838L364.353 187.852L364.58 193.627ZM395.101 193.585L389.383 193.599L389.184 187.824L394.902 187.81L395.101 193.585ZM414.186 193.556L419.904 193.542L419.719 187.781H414.001L414.186 193.556ZM444.693 193.514H438.989L438.804 187.753L444.522 187.739L444.693 193.514ZM463.763 193.485L469.467 193.471L469.311 187.71H463.607L463.763 193.485ZM494.227 193.443H488.523L488.396 187.682L494.1 187.667L494.227 193.443ZM513.284 193.414L518.988 193.4L518.874 187.639L513.17 187.653L513.284 193.414ZM543.734 193.372H538.03L537.93 187.611H543.634L543.734 193.372ZM562.762 193.343L568.466 193.329L568.381 187.568L562.691 187.582L562.762 193.343ZM593.184 193.301H587.494L587.423 187.54H593.127L593.184 193.301ZM612.197 193.272L617.901 193.258L617.844 187.497L612.154 187.511L612.197 193.272ZM642.591 193.23H636.901L636.872 187.469H642.562L642.591 193.23ZM661.625 187.363L667.315 187.354L667.324 193.115L661.634 193.124L661.625 187.363ZM691.955 193.159H686.265L686.279 187.398H691.969L691.955 193.159ZM710.941 193.13L716.616 193.116L716.645 187.355L710.969 187.37L710.941 193.13ZM741.277 193.088H735.601L735.644 187.341L741.32 187.327L741.277 193.088ZM760.248 193.059L765.924 193.045L765.981 187.299H760.305L760.248 193.059ZM790.556 193.017H784.881L784.952 187.27L790.627 187.256L790.556 193.017ZM809.499 192.988L815.175 192.974L815.274 187.228H809.599L809.499 192.988ZM839.779 192.946H834.118L834.217 187.199L839.893 187.185L839.779 192.946ZM858.708 192.917L864.383 192.903L864.511 187.157L858.835 187.171L858.708 192.917ZM888.959 192.875H883.298L883.454 187.128H889.115L888.959 192.875ZM17.893 217.039L23.6396 217.025L23.1572 211.264L17.4247 211.278L17.893 217.039ZM48.5277 216.983L42.7953 216.997L42.3412 211.236H48.0737L48.5277 216.983ZM67.683 216.954L73.4155 216.94L72.9756 211.193H67.2431L67.683 216.954ZM98.2894 216.912H92.5569L92.1454 211.151H97.8779L98.2894 216.912ZM117.431 216.869H123.149L122.752 211.108L117.019 211.122L117.431 216.869ZM148.009 216.826H142.276L141.893 211.08L147.626 211.066L148.009 216.826ZM167.122 216.784H172.84L172.485 211.023L166.753 211.037L167.122 216.784ZM197.671 216.741L191.953 216.755L191.612 210.995H197.331L197.671 216.741ZM216.784 216.713L222.503 216.699L222.162 210.952L216.444 210.966L216.784 216.713ZM247.305 216.656L241.587 216.67L241.275 210.924L246.993 210.909L247.305 216.656ZM266.39 216.628L272.094 216.614L271.81 210.867L266.092 210.881L266.39 216.628ZM296.883 216.571L291.179 216.585L290.895 210.839L296.613 210.825L296.883 216.571ZM315.953 216.543L321.657 216.529L321.402 210.796H315.698L315.953 216.543ZM346.418 216.5H340.713L340.472 210.754H346.176L346.418 216.5ZM365.474 216.458H371.164L370.951 210.711L365.247 210.725L365.474 216.458ZM395.91 216.415L390.206 216.429L390.007 210.682L395.711 210.668L395.91 216.415ZM414.938 216.387L420.642 216.372L420.457 210.626L414.753 210.64L414.938 216.387ZM445.359 216.33L439.67 216.344L439.499 210.597H445.189L445.359 216.33ZM464.373 216.301L470.063 216.287L469.921 210.555L464.217 210.569L464.373 216.301ZM494.767 216.245L489.077 216.259L488.935 210.527L494.625 210.512L494.767 216.245ZM513.752 216.216L519.442 216.202L519.328 210.47L513.638 210.484L513.752 216.216ZM544.117 216.16L538.427 216.174L538.328 210.441H544.018L544.117 216.16ZM563.102 216.131H568.778L568.707 210.399H563.017L563.102 216.131ZM593.425 216.089H587.749L587.692 210.37L593.368 210.356L593.425 216.089ZM612.396 216.06L618.072 216.046L618.029 210.314L612.339 210.328L612.396 216.06ZM642.704 216.003L637.028 216.018L637 210.285L642.676 210.271L642.704 216.003ZM661.59 210.336L667.266 210.327L667.274 216.059L661.599 216.068L661.59 210.336ZM691.927 215.918L686.251 215.932V210.214L691.927 210.2V215.918ZM710.855 215.89L716.517 215.876L716.545 210.158L710.869 210.172L710.855 215.89ZM741.107 215.848H735.431L735.474 210.129L741.15 210.115L741.107 215.848ZM760.021 215.805H765.668L765.739 210.087H760.064L760.021 215.805ZM790.23 215.762H784.583L784.654 210.044H790.315L790.23 215.762ZM882.73 215.606L888.377 215.592L888.519 209.888H882.872L882.73 215.606ZM863.858 215.634L858.211 215.649L858.339 209.93L863.986 209.916L863.858 215.634ZM833.678 215.691L839.325 215.677L839.438 209.959L833.791 209.973L833.678 215.691ZM809.13 215.734L814.792 215.72L814.877 210.001L809.23 210.016L809.13 215.734ZM25.4982 239.799L19.7799 239.813L19.2975 234.081H25.0299L25.4982 239.799ZM44.597 239.77L50.3153 239.756L49.8754 234.038H44.1429L44.597 239.77ZM75.1324 239.714H69.4141L68.9884 233.995L74.7067 233.981L75.1324 239.714ZM94.2315 239.671H99.9356L99.5241 233.939L93.8058 233.953L94.2315 239.671ZM124.738 239.615L119.02 239.629L118.623 233.911L124.341 233.896L124.738 239.615ZM143.808 239.586L149.513 239.572L149.129 233.854L143.425 233.868L143.808 239.586ZM174.287 239.529H168.583L168.214 233.811H173.918L174.287 239.529ZM193.344 239.487H199.048L198.693 233.768H192.989L193.344 239.487ZM223.794 239.43L218.09 239.444L217.763 233.726L223.467 233.712L223.794 239.43ZM242.821 239.402L248.526 239.387L248.213 233.669L242.509 233.683L242.821 239.402ZM273.257 239.345L267.553 239.359L267.255 233.641L272.959 233.626L273.257 239.345ZM292.271 239.302H297.961L297.691 233.584L292.001 233.598L292.271 239.302ZM322.664 239.246L316.974 239.26L316.719 233.542H322.409L322.664 239.246ZM341.678 239.217L347.368 239.203L347.127 233.499H341.437L341.678 239.217ZM372.043 239.16L366.353 239.175L366.14 233.456L371.83 233.442L372.043 239.16ZM391.028 239.118H396.718L396.505 233.4L390.83 233.414L391.028 239.118ZM421.365 239.061L415.689 239.075L415.505 233.371L421.181 233.357L421.365 239.061ZM440.336 239.033L446.012 239.018L445.856 233.314L440.166 233.329L440.336 239.033ZM470.659 238.976L464.983 238.99L464.827 233.286L470.503 233.272L470.659 238.976ZM489.616 238.934H495.277L495.149 233.229L489.474 233.244L489.616 238.934ZM519.896 238.877L514.22 238.891L514.107 233.187H519.782L519.896 238.877ZM538.838 238.848L544.5 238.834L544.4 233.144H538.725L538.838 238.848ZM569.09 238.792L563.428 238.806L563.343 233.102L569.019 233.087L569.09 238.792ZM588.004 238.749H593.665L593.609 233.045L587.947 233.059L588.004 238.749ZM618.241 238.692L612.58 238.706L612.537 233.016L618.199 233.002L618.241 238.692ZM637.142 238.664L642.803 238.65L642.775 232.96L637.114 232.974L637.142 238.664ZM667.374 232.85L661.713 232.861L661.724 238.55L667.385 238.54L667.374 232.85ZM686.236 238.579L691.884 238.565L691.898 232.875H686.236V238.579ZM716.417 238.522H710.77L710.784 232.832H716.445L716.417 238.522ZM735.275 238.479L740.922 238.465L740.979 232.775L735.317 232.789L735.275 238.479ZM765.427 238.423L759.794 238.437L759.837 232.747L765.498 232.733L765.427 238.423ZM784.285 238.394L789.932 238.38L790.003 232.69L784.356 232.704L784.285 238.394ZM814.408 238.337H808.761L808.86 232.662L814.508 232.647L814.408 238.337ZM833.238 238.295H838.885L838.984 232.605L833.351 232.619L833.238 238.295ZM863.333 238.238L857.7 238.252L857.828 232.576L863.461 232.562L863.333 238.238ZM882.148 238.21L887.781 238.196L887.938 232.52H882.304L882.148 238.21ZM27.3429 262.445L21.6388 262.459L21.1705 256.769L26.8746 256.755L27.3429 262.445ZM46.3991 262.402H52.1031L51.6491 256.698L45.945 256.712L46.3991 262.402ZM76.8492 262.346L71.1451 262.36L70.7052 256.67L76.4093 256.656L76.8492 262.346ZM95.8773 262.303L101.581 262.289L101.17 256.599L95.4658 256.613L95.8773 262.303ZM126.299 262.246L120.609 262.261L120.212 256.571L125.902 256.557L126.299 262.246ZM145.326 262.204L151.016 262.19L150.633 256.5L144.943 256.514L145.326 262.204ZM175.706 262.147H170.016L169.662 256.471L175.352 256.457L175.706 262.147ZM194.705 262.104L200.395 262.09L200.055 256.4L194.365 256.415L194.705 262.104ZM225.085 262.033L219.395 262.048L219.069 256.372L224.758 256.358L225.085 262.033ZM244.056 262.005L249.746 261.991L249.434 256.301L243.758 256.315L244.056 262.005ZM274.393 261.934L268.717 261.949L268.433 256.273L274.109 256.259L274.393 261.934ZM293.364 261.892H299.039L298.77 256.202L293.094 256.216L293.364 261.892ZM323.672 261.835L318.011 261.849L317.741 256.173L323.431 256.159L323.672 261.835ZM342.629 261.792H348.305L348.064 256.102L342.388 256.117L342.629 261.792ZM372.909 261.736L367.247 261.75L367.02 256.074L372.696 256.06L372.909 261.736ZM391.837 261.693L397.513 261.679L397.315 256.003L391.639 256.017L391.837 261.693ZM422.103 261.636L416.441 261.65L416.243 255.975L421.919 255.96L422.103 261.636ZM441.017 261.594L446.679 261.58L446.508 255.904L440.847 255.918L441.017 261.594ZM471.24 261.537H465.579L465.437 255.875L471.099 255.861L471.24 261.537ZM490.141 261.494L495.803 261.48L495.675 255.805L490.013 255.819L490.141 261.494ZM520.349 261.423L514.688 261.438L514.574 255.776L520.236 255.762L520.349 261.423ZM539.222 261.395L544.883 261.381L544.784 255.705L539.122 255.719L539.222 261.395ZM569.402 261.324L563.755 261.338L563.669 255.677L569.331 255.662L569.402 261.324ZM588.26 261.296L593.907 261.281L593.85 255.606L588.203 255.62L588.26 261.296ZM618.412 261.225L612.765 261.239L612.722 255.578L618.37 255.563L618.412 261.225ZM637.269 261.182H642.903L642.874 255.507L637.241 255.521L637.269 261.182ZM667.388 255.434L661.74 255.446L661.752 261.107L667.4 261.095L667.388 255.434ZM686.223 261.083L691.856 261.069V255.407L686.223 255.421V261.083ZM716.304 261.026L710.671 261.04L710.699 255.379L716.332 255.365L716.304 261.026ZM735.119 260.983L740.752 260.969L740.794 255.322H735.161L735.119 260.983ZM765.186 260.927L759.567 260.941L759.624 255.279L765.257 255.265L765.186 260.927ZM783.987 260.884L789.62 260.87L789.691 255.223H784.058L783.987 260.884ZM814.025 260.828H808.406L808.491 255.18L814.125 255.166L814.025 260.828ZM832.812 260.785L838.431 260.771L838.545 255.123L832.912 255.138L832.812 260.785ZM862.823 260.728H857.203L857.331 255.081L862.95 255.067L862.823 260.728ZM881.581 260.686L887.2 260.671L887.356 255.024L881.723 255.038L881.581 260.686ZM29.1872 284.964L23.4973 284.978L23.0291 279.316L28.719 279.302L29.1872 284.964ZM48.1869 284.921L53.8768 284.907L53.4228 279.245L47.7329 279.259L48.1869 284.921ZM78.5522 284.85L72.8623 284.864L72.4366 279.203L78.1124 279.188L78.5522 284.85ZM97.5228 284.807L103.213 284.793L102.801 279.132L97.1113 279.146L97.5228 284.807ZM127.86 284.736L122.184 284.751L121.787 279.103L127.462 279.089L127.86 284.736ZM146.831 284.694L152.506 284.68L152.123 279.032L146.448 279.046L146.831 284.694ZM177.125 284.623L171.463 284.637L171.094 278.99L176.77 278.976L177.125 284.623ZM196.082 284.58H201.758L201.417 278.919L195.741 278.933L196.082 284.58ZM226.362 284.524L220.686 284.538L220.36 278.876L226.036 278.862L226.362 284.524ZM245.29 284.481L250.952 284.467L250.654 278.805L244.978 278.819L245.29 284.481ZM275.542 284.41L269.88 284.424L269.583 278.777L275.258 278.763L275.542 284.41ZM294.456 284.367L300.118 284.353L299.848 278.706L294.187 278.72L294.456 284.367ZM324.679 284.296L319.018 284.311L318.762 278.663L324.424 278.649L324.679 284.296ZM343.58 284.254L349.227 284.24L349 278.593L343.338 278.607L343.58 284.254ZM918.09 6.31418H912.3L912.471 0.29792H918.26L918.09 6.31418ZM878.232 392.916L883.766 392.902L883.908 387.439L878.374 387.453L878.232 392.916ZM859.786 392.987L854.252 393.001L854.38 387.538L859.914 387.51L859.786 392.987ZM830.272 393.072L835.792 393.057L835.906 387.595L830.372 387.609L830.272 393.072ZM811.798 393.143L806.264 393.157L806.349 387.694L811.883 387.666L811.798 393.143ZM782.256 393.228L787.79 393.214L787.86 387.751L782.327 387.765L782.256 393.228ZM763.767 393.299L758.233 393.313L758.29 387.836L763.824 387.822L763.767 393.299ZM734.196 393.398L739.744 393.37L739.787 387.907L734.239 387.921L734.196 393.398ZM715.694 393.455L710.16 393.469L710.174 387.992L715.722 387.978L715.694 393.455ZM686.109 393.554L691.643 393.54L691.657 388.063L686.109 388.077V393.554ZM667.601 388.095L662.053 388.114L662.071 393.591L667.619 393.572L667.601 388.095ZM637.965 393.71L643.513 393.696L643.484 388.219L637.936 388.233L637.965 393.71ZM619.434 393.767L613.886 393.781L613.829 388.304L619.391 388.29L619.434 393.767ZM589.778 393.866L595.34 393.852L595.283 388.375L589.721 388.389L589.778 393.866ZM571.232 393.923L565.67 393.952L565.599 388.46L571.161 388.446L571.232 393.923ZM541.563 394.023L547.111 394.008L547.026 388.531L541.464 388.545L541.563 394.023ZM522.989 394.094L517.427 394.108L517.313 388.616L522.876 388.602L522.989 394.094ZM493.291 394.178L498.853 394.164L498.725 388.687L493.163 388.701L493.291 394.178ZM474.703 394.249L469.141 394.264L468.999 388.772L474.561 388.758L474.703 394.249ZM444.99 394.349L450.553 394.32L450.396 388.843L444.82 388.858L444.99 394.349ZM426.388 394.406L420.812 394.42L420.627 388.929L426.204 388.914L426.388 394.406ZM396.633 394.505L402.21 394.476L402.011 388.999L396.435 389.013L396.633 394.505ZM372.441 394.576L378.017 394.562L377.804 389.07L372.228 389.084L372.441 394.576ZM40.0137 417.449L34.4231 417.463L33.9691 412L39.5738 411.972L40.0137 417.449ZM58.7012 417.378L64.2918 417.364L63.8519 411.887L58.2613 411.915L58.7012 417.378ZM88.5553 417.279L82.9647 417.307L82.539 411.83L88.1296 411.802L88.5553 417.279ZM107.214 417.222L112.805 417.193L112.408 411.731L106.817 411.745L107.214 417.222ZM137.04 417.108L131.45 417.137L131.067 411.66L136.657 411.645L137.04 417.108ZM155.685 417.052L161.261 417.023L160.907 411.56L155.316 411.575L155.685 417.052ZM185.482 416.938L179.906 416.966L179.551 411.489L185.142 411.475L185.482 416.938ZM204.113 416.881L209.69 416.853L209.363 411.39L203.787 411.404L204.113 416.881ZM233.896 416.782L228.32 416.796L228.008 411.334L233.584 411.305L233.896 416.782ZM252.498 416.711L258.075 416.697L257.777 411.22L252.215 411.248L252.498 416.711ZM282.253 416.612L276.677 416.626L276.407 411.163L281.97 411.149L282.253 416.612ZM300.856 416.541L306.418 416.527L306.162 411.064L300.586 411.078L300.856 416.541ZM330.568 416.442L325.006 416.456L324.764 410.993L330.327 410.979L330.568 416.442ZM349.156 416.371L354.718 416.357L354.491 410.894L348.929 410.908L349.156 416.371ZM378.854 416.271L373.292 416.285L373.079 410.837L378.641 410.808L378.854 416.271ZM397.414 416.2L402.976 416.186L402.777 410.723L397.215 410.752L397.414 416.2ZM427.083 416.101L421.521 416.115L421.351 410.666L426.913 410.652L427.083 416.101ZM445.629 416.044L451.191 416.016L451.021 410.567L445.473 410.581L445.629 416.044ZM475.27 415.931L469.722 415.959L469.58 410.496L475.128 410.482L475.27 415.931ZM493.801 415.874L499.349 415.846L499.222 410.397L493.674 410.411L493.801 415.874ZM523.429 415.76L517.881 415.789L517.767 410.34L523.315 410.312L523.429 415.76ZM541.946 415.703L547.48 415.689L547.395 410.226L541.847 410.255L541.946 415.703ZM571.531 415.604L565.997 415.619L565.912 410.17L571.46 410.156L571.531 415.604ZM590.033 415.533L595.567 415.519L595.51 410.071L589.962 410.085L590.033 415.533ZM619.59 415.434L614.056 415.448L614.013 409.999L619.547 409.985L619.59 415.434ZM638.078 415.363L643.612 415.349L643.584 409.9L638.05 409.928L638.078 415.363ZM667.62 415.264L662.087 415.292L662.072 409.844L667.606 409.815L667.62 415.264ZM686.081 415.207L691.615 415.179L691.629 409.744L686.095 409.758L686.081 415.207ZM715.594 415.093L710.075 415.122L710.089 409.673L715.623 409.659L715.594 415.093ZM734.055 415.037L739.574 415.022L739.617 409.574L734.083 409.588L734.055 415.037ZM763.54 414.938L758.02 414.952L758.077 409.517L763.597 409.489L763.54 414.938ZM781.972 414.867L787.492 414.852L787.563 409.404L782.043 409.432L781.972 414.867ZM811.429 414.767L805.923 414.781L806.008 409.347L811.528 409.333L811.429 414.767ZM829.847 414.696L835.366 414.682L835.466 409.247L829.96 409.262L829.847 414.696ZM859.289 414.597L853.77 414.611L853.897 409.176L859.417 409.162L859.289 414.597ZM877.693 414.54L883.198 414.512L883.34 409.077L877.821 409.106L877.693 414.54ZM937.43 6.31418H943.219L943.417 0.29792H937.614L937.43 6.31418ZM968.348 6.32838H962.559L962.758 0.312123H968.547L968.348 6.32838ZM987.674 6.32838H993.449L993.676 0.326312L987.887 0.312123L987.674 6.32838ZM1018.55 6.34259H1012.77L1013.02 0.326326H1018.79L1018.55 6.34259ZM1037.86 6.3426H1043.64L1043.91 0.340529H1038.12L1037.86 6.3426ZM1068.71 6.35679L1062.93 6.3426L1063.22 0.340529H1068.99L1068.71 6.35679ZM911.619 30.0955H917.394L917.565 24.1218H911.79L911.619 30.0955ZM942.453 30.0955H936.677L936.876 24.1218H942.651L942.453 30.0955ZM961.736 30.0955H967.511L967.724 24.1218H961.949L961.736 30.0955ZM992.541 30.0955H986.78L987.007 24.1218H992.768L992.541 30.0955ZM1011.81 30.0955L1017.57 30.1097L1017.81 24.1218H1012.05L1011.81 30.0955ZM1042.59 30.1097H1036.83L1037.08 24.136H1042.86L1042.59 30.1097ZM1061.83 30.1097H1067.59L1067.87 24.136H1062.11L1061.83 30.1097ZM916.713 53.749H910.953L911.123 47.8036H916.884L916.713 53.749ZM935.94 53.749H941.701L941.885 47.8036H936.138L935.94 53.749ZM966.674 53.7348H960.927L961.126 47.8036H966.887L966.674 53.7348ZM886.618 283.02L881.013 283.034L881.155 277.415L886.774 277.401L886.618 283.02ZM856.707 283.091L862.312 283.076L862.439 277.457L856.835 277.472L856.707 283.091ZM837.991 283.133L832.372 283.147L832.486 277.514L838.091 277.5L837.991 283.133ZM808.038 283.204L813.657 283.19L813.742 277.557L808.137 277.571L808.038 283.204ZM789.308 283.246H783.689L783.774 277.628L789.379 277.613L789.308 283.246ZM759.34 283.303L764.944 283.289L765.016 277.67L759.396 277.684L759.34 283.303ZM740.582 283.346L734.963 283.36L735.005 277.741L740.624 277.727L740.582 283.346ZM710.586 283.417L716.205 283.403L716.233 277.784H710.614L710.586 283.417ZM691.813 283.46L686.194 283.474L686.208 277.841L691.827 277.826L691.813 283.46ZM661.804 277.875L667.423 277.862L667.435 283.495L661.816 283.508L661.804 277.875ZM643.002 283.573L637.383 283.587L637.354 277.954L642.988 277.94L643.002 283.573ZM612.963 283.644L618.582 283.63L618.54 277.996L612.906 278.011L612.963 283.644ZM594.148 283.686L588.529 283.701L588.458 278.067L594.091 278.053L594.148 283.686ZM564.081 283.743H569.714L569.629 278.11H563.996L564.081 283.743ZM545.252 283.8H539.619L539.519 278.167L545.167 278.153L545.252 283.8ZM515.156 283.857L520.789 283.843L520.676 278.21L515.043 278.224L515.156 283.857ZM496.313 283.899L490.68 283.914L490.538 278.281L496.185 278.266L496.313 283.899ZM466.189 283.97L471.836 283.956L471.68 278.323L466.033 278.337L466.189 283.97ZM447.331 284.013L441.684 284.027L441.514 278.38H447.161L447.331 284.013ZM417.179 284.084L422.827 284.07L422.642 278.422L416.995 278.436L417.179 284.084ZM398.308 284.126L392.66 284.141L392.448 278.493L398.109 278.479L398.308 284.126ZM373.774 284.183L368.127 284.197L367.9 278.55L373.561 278.536L373.774 284.183ZM25.3421 307.368L31.0178 307.354L30.5638 301.721L24.8739 301.735L25.3421 307.368ZM55.6361 307.298L49.9604 307.312L49.5205 301.679L55.1962 301.664L55.6361 307.298ZM74.5647 307.255L80.2404 307.241L79.8148 301.608L74.139 301.622L74.5647 307.255ZM104.831 307.17L99.1691 307.184L98.7576 301.565L104.419 301.551L104.831 307.17ZM123.745 307.127L129.406 307.113L129.023 301.494L123.362 301.508L123.745 307.127ZM153.982 307.056L148.321 307.07L147.952 301.437L153.613 301.423L153.982 307.056ZM172.882 307.014L178.544 306.985L178.189 301.366L172.528 301.38L172.882 307.014ZM203.091 306.929L197.444 306.943L197.103 301.324L202.751 301.31L203.091 306.929ZM221.977 306.886L227.639 306.872L227.312 301.253L221.651 301.267L221.977 306.886ZM252.158 306.815L246.511 306.829L246.198 301.21L251.86 301.196L252.158 306.815ZM271.03 306.758L276.677 306.744L276.393 301.125L270.732 301.139L271.03 306.758ZM301.182 306.687L295.535 306.701L295.265 301.082L300.912 301.068L301.182 306.687ZM320.025 306.645L325.673 306.63L325.417 301.011L319.784 301.026L320.025 306.645ZM350.163 306.574H344.516L344.275 300.969L349.922 300.955L350.163 306.574ZM368.992 306.517L374.626 306.503L374.413 300.898L368.78 300.912L368.992 306.517ZM399.088 306.446L393.455 306.46L393.256 300.841L398.889 300.827L399.088 306.446ZM417.903 306.404L423.551 306.389L423.366 300.77L417.719 300.785L417.903 306.404ZM447.984 306.318L442.351 306.333L442.181 300.728L447.814 300.714L447.984 306.318ZM466.785 306.276L472.418 306.262L472.262 300.657L466.629 300.671L466.785 306.276ZM496.824 306.205L491.205 306.219L491.077 300.614L496.696 300.6L496.824 306.205ZM515.611 306.162L521.244 306.148L521.13 300.543L515.497 300.558L515.611 306.162ZM545.635 306.077L540.016 306.091L539.917 300.487L545.536 300.472L545.635 306.077ZM564.407 306.035L570.026 306.02L569.941 300.416L564.322 300.43L564.407 306.035ZM594.389 305.964L588.785 305.978L588.714 300.373L594.333 300.359L594.389 305.964ZM613.148 305.921L618.753 305.907L618.71 300.302L613.091 300.316L613.148 305.921ZM643.115 305.836L637.496 305.85L637.468 300.26L643.087 300.246L643.115 305.836ZM661.818 300.205L667.422 300.191L667.436 305.796L661.831 305.809L661.818 300.205ZM691.785 305.723L686.18 305.737V300.132L691.799 300.118L691.785 305.723ZM710.5 305.68L716.105 305.666L716.134 300.061L710.529 300.075L710.5 305.68ZM740.411 305.609H734.806L734.849 300.018L740.454 300.004L740.411 305.609ZM759.113 305.552L764.703 305.538L764.774 299.947L759.17 299.961L759.113 305.552ZM788.995 305.481L783.405 305.496L783.476 299.905L789.081 299.891L788.995 305.481ZM807.683 305.439L813.273 305.425L813.373 299.834L807.768 299.848L807.683 305.439ZM837.537 305.368L831.947 305.382L832.06 299.791L837.651 299.763L837.537 305.368ZM856.21 305.311L861.801 305.297L861.928 299.706L856.338 299.72L856.21 305.311ZM886.036 305.24L880.46 305.254L880.602 299.664L886.192 299.649L886.036 305.24ZM27.1868 329.632L32.8341 329.617L32.3801 324.027L26.7185 324.041L27.1868 329.632ZM57.3817 329.561L51.7202 329.575L51.2803 323.97L56.9418 323.956L57.3817 329.561ZM76.2674 329.504L81.9147 329.49L81.489 323.899L75.8417 323.913L76.2674 329.504ZM106.448 329.419L100.787 329.447L100.389 323.842L106.037 323.828L106.448 329.419ZM125.306 329.376L130.953 329.362L130.57 323.771L124.908 323.785L125.306 329.376ZM155.458 329.291L149.811 329.305L149.442 323.714L155.089 323.7L155.458 329.291ZM174.301 329.248L179.949 329.234L179.594 323.644L173.947 323.658L174.301 329.248ZM204.425 329.163L198.792 329.177L198.452 323.587L204.099 323.573L204.425 329.163ZM223.254 329.106L228.902 329.092L228.575 323.516H222.942L223.254 329.106ZM253.35 329.035L247.717 329.05L247.419 323.459L253.052 323.445L253.35 329.035ZM272.165 328.979L277.798 328.964L277.514 323.374L271.881 323.388L272.165 328.979ZM302.232 328.894L296.613 328.922L296.343 323.332L301.977 323.317L302.232 328.894ZM321.033 328.851L326.666 328.837L326.411 323.246L320.792 323.261L321.033 328.851ZM351.086 328.766L345.453 328.78L345.226 323.204L350.844 323.19L351.086 328.766ZM369.858 328.723L375.491 328.709L375.264 323.118L369.645 323.133L369.858 328.723ZM399.883 328.638L394.264 328.652L394.051 323.076L399.684 323.062L399.883 328.638ZM418.641 328.595L424.26 328.567L424.075 322.991L418.456 323.005L418.641 328.595ZM448.637 328.511L443.018 328.525L442.848 322.948L448.467 322.934L448.637 328.511ZM467.381 328.454L472.986 328.44L472.844 322.863L467.225 322.877L467.381 328.454ZM497.335 328.383L491.73 328.397L491.602 322.821L497.207 322.806L497.335 328.383ZM516.079 328.326L521.683 328.312L521.57 322.735L515.965 322.75L516.079 328.326ZM546.004 328.255L540.399 328.269L540.3 322.693L545.919 322.679L546.004 328.255ZM564.719 328.198L570.324 328.184L570.253 322.608L564.649 322.622L564.719 328.198ZM594.631 328.113L589.026 328.127L588.969 322.565L594.574 322.551L594.631 328.113ZM613.332 328.071L618.923 328.056L618.88 322.48L613.289 322.494L613.332 328.071ZM643.215 327.985L637.624 328L637.582 322.437L643.187 322.423L643.215 327.985ZM660.185 325.077H665.776V330.639H660.185V325.077ZM691.742 327.858L686.152 327.872L686.166 322.31L691.756 322.295L691.742 327.858ZM710.415 327.815L716.006 327.787L716.034 322.225L710.429 322.239L710.415 327.815ZM740.241 327.73L734.651 327.744L734.693 322.182L740.284 322.168L740.241 327.73ZM758.886 327.673L764.477 327.659L764.533 322.097L758.943 322.111L758.886 327.673ZM788.697 327.602L783.107 327.616L783.192 322.054L788.768 322.04L788.697 327.602ZM807.328 327.545L812.905 327.531L813.004 321.969L807.413 321.983L807.328 327.545ZM837.097 327.475L831.521 327.489L831.634 321.927L837.211 321.913L837.097 327.475ZM855.714 327.418L861.29 327.404L861.418 321.842L855.841 321.856L855.714 327.418ZM885.468 327.333L879.892 327.361L880.034 321.799L885.61 321.785L885.468 327.333ZM29.0031 351.781L34.6504 351.767L34.1964 346.19L28.549 346.219L29.0031 351.781ZM59.1266 351.696L53.4793 351.71L53.0394 346.148L58.6867 346.133L59.1266 351.696ZM77.9558 351.639L83.589 351.625L83.1633 346.062L77.5301 346.077L77.9558 351.639ZM108.037 351.554L102.404 351.568L102.007 346.006L107.64 345.992L108.037 351.554ZM126.852 351.497L132.485 351.483L132.102 345.921L126.469 345.935L126.852 351.497ZM156.92 351.412L151.286 351.426L150.917 345.864L156.551 345.85L156.92 351.412ZM175.72 351.355L181.339 351.341L180.999 345.779L175.366 345.793L175.72 351.355ZM205.759 351.27L200.126 351.284L199.799 345.722L205.418 345.708L205.759 351.27ZM224.531 351.213L230.15 351.199L229.838 345.637L224.219 345.651L224.531 351.213ZM254.542 351.128L248.923 351.142L248.625 345.594L254.244 345.566L254.542 351.128ZM273.314 351.071L278.919 351.057L278.649 345.509L273.016 345.523L273.314 351.071ZM303.296 350.986L297.677 351L297.408 345.452L303.027 345.438L303.296 350.986ZM322.04 350.929L327.645 350.915L327.404 345.367L321.785 345.381L322.04 350.929ZM351.994 350.845L346.389 350.873L346.148 345.311L351.767 345.297L351.994 350.845ZM370.724 350.802L376.329 350.774L376.116 345.226L370.511 345.24L370.724 350.802ZM400.663 350.703L395.058 350.731L394.845 345.169L400.464 345.155L400.663 350.703ZM419.364 350.66L424.969 350.646L424.799 345.098L419.194 345.112L419.364 350.66ZM449.276 350.575L443.671 350.589L443.515 345.041L449.105 345.027L449.276 350.575ZM467.977 350.518L473.568 350.504L473.426 344.956L467.821 344.97L467.977 350.518ZM497.846 350.433L492.255 350.447L492.127 344.899L497.718 344.885L497.846 350.433ZM516.533 350.376L522.123 350.362L522.01 344.814L516.419 344.828L516.533 350.376ZM546.373 350.291L540.797 350.305L540.697 344.757L546.288 344.743L546.373 350.291ZM565.046 350.234L570.622 350.22L570.551 344.672L564.961 344.7L565.046 350.234ZM594.872 350.149L589.281 350.163L589.224 344.63L594.801 344.615L594.872 350.149ZM613.517 350.092L619.093 350.078L619.05 344.544L613.474 344.559L613.517 350.092ZM643.314 350.007L637.738 350.021L637.709 344.488L643.286 344.473L643.314 350.007ZM661.966 344.349L667.543 344.333L667.559 349.866L661.983 349.883L661.966 344.349ZM691.714 349.865L686.137 349.894V344.346L691.728 344.331L691.714 349.865ZM710.33 349.823L715.906 349.808L715.92 344.275L710.344 344.289L710.33 349.823ZM740.071 349.738L734.509 349.752L734.537 344.218L740.113 344.204L740.071 349.738ZM758.673 349.681L764.235 349.667L764.292 344.133L758.73 344.147L758.673 349.681ZM788.385 349.596L782.823 349.61L782.894 344.076L788.47 344.062L788.385 349.596ZM806.973 349.539L812.536 349.525L812.621 343.991L807.059 344.005L806.973 349.539ZM836.657 349.454L831.109 349.468L831.209 343.948L836.771 343.92L836.657 349.454ZM855.231 349.397L860.779 349.383L860.907 343.863L855.345 343.878L855.231 349.397ZM884.901 349.312L879.339 349.326L879.481 343.807L885.043 343.792L884.901 349.312ZM30.819 373.803L36.438 373.789L35.9981 368.241L30.3649 368.269L30.819 373.803ZM60.858 373.703L55.2249 373.717L54.7992 368.184L60.4182 368.169L60.858 373.703ZM79.6304 373.646L85.2494 373.632L84.8379 368.098L79.2047 368.113L79.6304 373.646ZM109.641 373.562L104.022 373.576L103.61 368.042L109.243 368.028L109.641 373.562ZM128.399 373.505L134.018 373.476L133.635 367.943L128.016 367.971L128.399 373.505ZM158.381 373.405L152.762 373.42L152.393 367.886L158.012 367.872L158.381 373.405ZM177.125 373.349L182.73 373.334L182.389 367.801L176.77 367.815L177.125 373.349ZM207.079 373.249L201.474 373.278L201.133 367.744L206.738 367.73L207.079 373.249ZM225.808 373.192L231.413 373.178L231.087 367.659L225.482 367.673L225.808 373.192ZM255.734 373.108L250.129 373.122L249.831 367.602L255.436 367.574L255.734 373.108ZM274.435 373.051L280.04 373.036L279.756 367.503L274.151 367.517L274.435 373.051ZM304.346 372.951L298.741 372.98L298.472 367.446L304.077 367.432L304.346 372.951ZM323.033 372.894L328.624 372.88L328.383 367.361L322.778 367.375L323.033 372.894ZM352.902 372.81L347.311 372.824L347.084 367.304L352.675 367.29L352.902 372.81ZM371.589 372.753L377.18 372.739L376.967 367.219L371.376 367.233L371.589 372.753ZM401.429 372.653L395.839 372.668L395.64 367.148L401.231 367.134L401.429 372.653ZM420.088 372.596L425.679 372.582L425.508 367.063L419.918 367.077L420.088 372.596ZM449.914 372.512L444.324 372.526L444.167 367.006L449.758 366.992L449.914 372.512ZM468.559 372.455L474.135 372.441L473.993 366.921L468.417 366.935L468.559 372.455ZM498.356 372.355L492.78 372.37L492.638 366.864L498.228 366.85L498.356 372.355ZM516.987 372.299L522.549 372.284L522.45 366.765L516.873 366.793L516.987 372.299ZM546.742 372.213L541.18 372.228L541.08 366.708L546.657 366.694L546.742 372.213ZM565.358 372.157L570.934 372.128L570.849 366.623L565.273 366.637L565.358 372.157ZM595.099 372.058L589.537 372.072L589.466 366.566L595.042 366.552L595.099 372.058ZM613.701 372.001L619.263 371.987L619.221 366.481L613.658 366.495L613.701 372.001ZM643.413 371.915L637.851 371.93L637.823 366.424L643.385 366.41L643.413 371.915ZM661.992 366.324L667.554 366.306L667.572 371.812L662.009 371.829L661.992 366.324ZM691.685 371.76L686.123 371.774V366.268L691.685 366.254V371.76ZM710.245 371.703L715.793 371.689L715.821 366.183L710.259 366.197L710.245 371.703ZM739.901 371.618L734.353 371.632L734.395 366.126L739.943 366.112L739.901 371.618ZM758.446 371.561L764.008 371.547L764.065 366.041L758.503 366.055L758.446 371.561ZM788.087 371.461L782.539 371.49L782.61 365.984L788.158 365.97L788.087 371.461ZM806.619 371.405L812.167 371.391L812.252 365.899L806.704 365.914L806.619 371.405ZM836.232 371.32L830.684 371.334L830.783 365.843L836.331 365.814L836.232 371.32ZM854.734 371.263L860.282 371.249L860.41 365.743L854.862 365.757L854.734 371.263ZM884.333 371.163L878.785 371.192L878.927 365.686L884.475 365.672L884.333 371.163ZM32.6211 395.697L38.24 395.682L37.786 390.177L32.167 390.191L32.6211 395.697ZM62.5749 395.597L56.9701 395.611L56.5303 390.106L62.1492 390.092L62.5749 395.597ZM81.3046 395.526L86.9094 395.512L86.4837 390.007L80.879 390.035L81.3046 395.526ZM111.23 395.441L105.625 395.456L105.213 389.95L110.818 389.936L111.23 395.441ZM129.931 395.37L135.536 395.356L135.153 389.851L129.548 389.879L129.931 395.37ZM159.828 395.271L154.223 395.299L153.869 389.794L159.459 389.78L159.828 395.271ZM178.516 395.215L184.106 395.2L183.766 389.695L178.161 389.723L178.516 395.215ZM208.384 395.115L202.793 395.144L202.467 389.638L208.058 389.624L208.384 395.115ZM227.057 395.058L232.648 395.044L232.336 389.539L226.745 389.567L227.057 395.058ZM256.911 394.959L251.321 394.973L251.023 389.482L256.613 389.468L256.911 394.959ZM275.57 394.902L281.147 394.874L280.863 389.382L275.286 389.411L275.57 394.902ZM305.382 394.803L299.791 394.817L299.536 389.326L305.112 389.312L305.382 394.803ZM324.027 394.732L329.603 394.718L329.362 389.227L323.771 389.241L324.027 394.732ZM353.81 394.647L348.234 394.661L348.007 389.17L353.583 389.156L353.81 394.647ZM991.647 53.7347H985.9L986.113 47.7894H991.874L991.647 53.7347ZM1016.61 53.7347H1010.84L1011.09 47.7894H1016.85L1016.61 53.7347ZM1035.8 53.7347H1041.54L1041.81 47.7894H1036.06L1035.8 53.7347ZM1066.48 53.7206H1060.73L1061 47.7894H1066.75L1066.48 53.7206ZM910.286 77.2607H916.032L916.203 71.3438L910.456 71.358L910.286 77.2607ZM940.949 77.2607H935.202L935.401 71.3438H941.133L940.949 77.2607ZM960.118 77.2465H965.851L966.064 71.3296H960.317L960.118 77.2465ZM990.753 77.2323H985.021L985.233 71.3296H990.98L990.753 77.2323ZM1009.89 77.2323L1015.63 77.2181L1015.88 71.3154H1010.14L1009.89 77.2323ZM1040.5 77.2181H1034.77L1035.04 71.3154H1040.77L1040.5 77.2181ZM1059.64 77.2039H1065.36L1065.64 71.3012H1059.91L1059.64 77.2039ZM915.351 100.645H909.633L909.789 94.7703L915.521 94.7561L915.351 100.645ZM934.478 100.63H940.197L940.395 94.7561H934.663L934.478 100.63ZM965.042 100.616H959.31L959.522 94.7419H965.241L965.042 100.616ZM984.141 100.602H989.859L990.086 94.7277H984.354L984.141 100.602ZM1014.68 100.588H1008.96L1009.2 94.7135H1014.92L1014.68 100.588ZM1033.76 100.574H1039.48L1039.73 94.6993H1034.02L1033.76 100.574ZM1064.25 100.545L1058.55 100.559L1058.82 94.6851H1064.54L1064.25 100.545ZM908.966 123.887H914.684L914.855 118.041H909.136L908.966 123.887ZM939.459 123.872H933.755L933.925 118.026H939.643L939.459 123.872ZM958.515 123.858L964.219 123.844L964.418 118.012H958.714L958.515 123.858ZM988.979 123.83H983.275L983.488 117.998L989.192 117.984L988.979 123.83ZM1008.01 123.816L1013.71 123.801L1013.95 117.97H1008.25L1008.01 123.816ZM1038.44 123.787H1032.75L1032.99 117.955H1038.7L1038.44 123.787ZM1057.47 123.773H1063.16L1063.44 117.927H1057.74L1057.47 123.773ZM914.003 147.001H908.313L908.484 141.198L914.174 141.183L914.003 147.001ZM933.017 146.987L938.721 146.973L938.905 141.169H933.201L933.017 146.987ZM963.41 146.944L957.72 146.958L957.919 141.141H963.609L963.41 146.944ZM982.41 146.93H988.099L988.312 141.112L982.622 141.127L982.41 146.93ZM1012.76 146.902H1007.08L1007.31 141.098H1013L1012.76 146.902ZM1031.75 146.887L1037.42 146.873L1037.68 141.07H1032L1031.75 146.887ZM1062.07 146.845L1056.39 146.859L1056.66 141.056L1062.35 141.041L1062.07 146.845ZM907.66 169.988H913.35L913.506 164.198L907.831 164.213L907.66 169.988ZM937.983 169.959H932.307L932.492 164.184L938.168 164.17L937.983 169.959ZM956.926 169.931L962.601 169.917L962.8 164.142L957.124 164.156L956.926 169.931ZM987.22 169.888L981.544 169.902L981.757 164.127L987.433 164.113L987.22 169.888ZM1006.15 169.874L1011.82 169.86L1012.05 164.085L1006.39 164.099L1006.15 169.874ZM1036.41 169.832H1030.74L1030.99 164.071L1036.67 164.057L1036.41 169.832ZM1055.33 169.803H1060.99L1061.26 164.028L1055.6 164.043L1055.33 169.803ZM912.684 192.833L907.022 192.847L907.178 187.1L912.854 187.086L912.684 192.833ZM931.584 192.804H937.245L937.43 187.058H931.768L931.584 192.804ZM961.807 192.762L956.146 192.776L956.344 187.029H962.006L961.807 192.762ZM980.693 192.733H986.34L986.567 186.987L980.906 187.001L980.693 192.733ZM1010.87 192.691L1005.23 192.705L1005.45 186.958H1011.11L1010.87 192.691ZM1029.75 192.662H1035.41L1035.65 186.915L1030 186.93L1029.75 192.662ZM1059.91 192.62L1054.26 192.634L1054.53 186.887H1060.18L1059.91 192.62ZM906.384 215.564H912.031L912.187 209.845L906.54 209.859L906.384 215.564ZM936.522 215.521L930.874 215.535L931.059 209.817L936.706 209.803L936.522 215.521ZM955.365 215.493L961.012 215.479L961.211 209.775H955.564L955.365 215.493ZM985.475 215.436L979.842 215.45L980.054 209.732H985.702L985.475 215.436ZM1004.3 215.408L1009.94 215.393L1010.18 209.689L1004.55 209.704L1004.3 215.408ZM1034.4 215.351L1028.77 215.365L1029.01 209.661L1034.64 209.647L1034.4 215.351ZM1053.2 215.322H1058.83L1059.1 209.604L1053.47 209.618L1053.2 215.322ZM911.364 238.153L905.745 238.167L905.901 232.477H911.534L911.364 238.153ZM930.165 238.125L935.798 238.111L935.982 232.435H930.349L930.165 238.125ZM960.218 238.068H954.585L954.783 232.392H960.416L960.218 238.068ZM979.004 238.025H984.623L984.836 232.335L979.217 232.35L979.004 238.025ZM1009.01 237.969L1003.4 237.983L1003.62 232.307L1009.24 232.293L1009.01 237.969ZM1027.79 237.94L1033.39 237.926L1033.65 232.25L1028.03 232.264L1027.79 237.94ZM1057.77 237.883L1052.15 237.898L1052.42 232.222L1058.04 232.208L1057.77 237.883ZM905.106 260.629H910.725L910.881 254.967L905.262 254.981L905.106 260.629ZM935.074 260.572L929.47 260.586L929.64 254.939L935.259 254.925L935.074 260.572ZM953.818 260.529L959.423 260.515L959.622 254.882H954.017L953.818 260.529ZM1051.11 260.331L1056.7 260.317L1056.97 254.684H1051.37L1051.11 260.331ZM1032.41 260.374L1026.81 260.388L1027.05 254.74L1032.65 254.726L1032.41 260.374ZM1002.49 260.43L1008.09 260.416L1008.32 254.783H1002.71L1002.49 260.43ZM978.153 260.487L983.758 260.473L983.985 254.826L978.366 254.84L978.153 260.487ZM910.073 282.963L904.468 282.977L904.638 277.358L910.229 277.344L910.073 282.963ZM928.76 282.92L934.365 282.906L934.549 277.287L928.945 277.301L928.76 282.92ZM958.643 282.849L953.052 282.863L953.236 277.259L958.841 277.244L958.643 282.849ZM977.316 282.807H982.906L983.133 277.188L977.529 277.202L977.316 282.807ZM1007.17 282.75L1001.58 282.764L1001.81 277.145L1007.4 277.131L1007.17 282.75ZM1025.83 282.707L1031.42 282.693L1031.66 277.074L1026.07 277.089L1025.83 282.707ZM1055.65 282.636L1050.08 282.651L1050.33 277.032L1055.92 277.018L1055.65 282.636ZM903.844 305.197L909.434 305.183L909.59 299.593L904 299.607L903.844 305.197ZM933.655 305.127L928.065 305.141L928.249 299.55L933.826 299.536L933.655 305.127ZM952.286 305.07H957.862L958.061 299.479L952.484 299.493L952.286 305.07ZM982.069 304.999L976.493 305.013L976.706 299.437L982.282 299.422L982.069 304.999ZM1000.69 304.956L1006.26 304.942L1006.49 299.366L1000.91 299.38L1000.69 304.956ZM1030.44 304.885L1024.86 304.899L1025.11 299.309H1030.68L1030.44 304.885ZM1049.04 304.843L1054.6 304.828L1054.87 299.238L1049.3 299.252L1049.04 304.843ZM908.796 327.276L903.219 327.29L903.375 321.742L908.952 321.728L908.796 327.276ZM927.384 327.233L932.946 327.205L933.116 321.657L927.554 321.671L927.384 327.233ZM957.082 327.148L951.534 327.162L951.718 321.614L957.281 321.6L957.082 327.148ZM975.67 327.092L981.218 327.077L981.431 321.529L975.868 321.544L975.67 327.092ZM1005.35 327.021L999.791 327.035L1000.02 321.487L1005.58 321.473L1005.35 327.021ZM1023.91 326.964L1029.46 326.95L1029.7 321.402L1024.14 321.416L1023.91 326.964ZM1053.57 326.893L1048.01 326.907L1048.26 321.359L1053.82 321.345L1053.57 326.893ZM902.595 349.269L908.157 349.241L908.313 343.721L902.751 343.736L902.595 349.269ZM932.237 349.184L926.689 349.198L926.859 343.665L932.421 343.65L932.237 349.184ZM950.768 349.127L956.316 349.113L956.514 343.594L950.966 343.608L950.768 349.127ZM980.381 349.043L974.847 349.057L975.046 343.537L980.594 343.523L980.381 349.043ZM998.898 348.986L1004.45 348.971L1004.67 343.452L999.125 343.466L998.898 348.986ZM1028.5 348.9L1022.95 348.915L1023.19 343.395L1028.74 343.381L1028.5 348.9ZM1046.99 348.844L1052.53 348.829L1052.79 343.31L1047.24 343.324L1046.99 348.844ZM907.519 371.092L901.985 371.121L902.141 365.615L907.675 365.601L907.519 371.092ZM926.007 371.036L931.541 371.021L931.711 365.53L926.177 365.544L926.007 371.036ZM955.549 370.951L950.016 370.965L950.214 365.474L955.748 365.459L955.549 370.951ZM974.024 370.894L979.558 370.88L979.77 365.388L974.237 365.403L974.024 370.894ZM1003.55 370.795L998.018 370.823L998.245 365.332L1003.76 365.317L1003.55 370.795ZM1022 370.752L1027.53 370.723L1027.77 365.232L1022.24 365.261L1022 370.752ZM1051.5 370.653L1045.98 370.667L1046.23 365.19L1051.75 365.162L1051.5 370.653ZM901.375 392.845L906.894 392.831L907.05 387.368L901.517 387.382L901.375 392.845ZM930.846 392.745L925.326 392.774L925.496 387.297L931.016 387.282L930.846 392.745ZM949.278 392.689L954.797 392.675L954.982 387.212L949.462 387.226L949.278 392.689ZM978.72 392.589L973.215 392.604L973.414 387.155L978.933 387.127L978.72 392.589ZM997.138 392.533L1002.66 392.518L1002.87 387.056L997.365 387.07L997.138 392.533ZM1026.57 392.433L1021.06 392.447L1021.29 386.999L1026.81 386.97L1026.57 392.433ZM1044.97 392.376L1050.48 392.362L1050.73 386.899L1045.21 386.913L1044.97 392.376ZM906.27 414.441L900.75 414.455L900.907 409.021L906.426 409.006L906.27 414.441ZM924.645 414.37L930.15 414.356L930.321 408.921L924.815 408.935L924.645 414.37ZM954.031 414.27L948.54 414.285L948.724 408.85L954.23 408.836L954.031 414.27ZM972.406 414.214L977.898 414.185L978.11 408.751L972.605 408.779L972.406 414.214ZM1001.76 414.1L996.273 414.129L996.485 408.694L1001.99 408.68L1001.76 414.1ZM1020.11 414.043L1025.62 414.015L1025.86 408.595L1020.35 408.609L1020.11 414.043ZM1049.45 413.944L1043.96 413.958L1044.2 408.524L1049.71 408.51L1049.45 413.944ZM36.2394 439.527L41.8158 439.513L41.3759 434.064L35.7854 434.079L36.2394 439.527ZM66.0228 439.414L60.4464 439.443L60.0208 433.994L65.5972 433.98L66.0228 439.414ZM84.6393 439.343L90.2157 439.329L89.8042 433.894L84.2278 433.909L84.6393 439.343ZM114.394 439.244L108.818 439.258L108.42 433.823L113.997 433.795L114.394 439.244ZM132.996 439.173L138.573 439.158L138.189 433.71L132.613 433.738L132.996 439.173ZM162.723 439.059L157.161 439.088L156.792 433.639L162.368 433.625L162.723 439.059ZM181.311 438.988L186.873 438.974L186.532 433.54L180.97 433.554L181.311 438.988ZM211.023 438.889L205.461 438.903L205.12 433.469L210.697 433.454L211.023 438.889ZM229.583 438.818L235.145 438.804L234.833 433.369L229.271 433.383L229.583 438.818ZM259.267 438.705L253.705 438.733L253.407 433.299L258.969 433.27L259.267 438.705ZM277.812 438.634L283.374 438.619L283.091 433.185L277.543 433.213L277.812 438.634ZM307.468 438.534L301.92 438.548L301.65 433.114L307.212 433.1L307.468 438.534ZM882.631 436.42L877.139 436.434L877.267 431.028L882.772 431.014L882.631 436.42ZM853.287 436.519L858.778 436.505L858.906 431.099L853.415 431.113L853.287 436.519ZM834.926 436.59L829.435 436.604L829.534 431.198L835.04 431.184L834.926 436.59ZM805.569 436.704L811.06 436.675L811.159 431.269L805.654 431.283L805.569 436.704ZM787.193 436.761L781.688 436.789L781.759 431.383L787.264 431.354L787.193 436.761ZM757.793 436.874L763.299 436.86L763.356 431.44L757.85 431.468L757.793 436.874ZM739.404 436.945L733.898 436.959L733.941 431.553L739.447 431.525L739.404 436.945ZM709.99 437.044L715.495 437.03L715.524 431.624L710.004 431.638L709.99 437.044ZM691.586 437.115L686.066 437.144V431.723L691.586 431.709V437.115ZM662.129 437.229L667.649 437.201V431.794L662.129 431.809V437.229ZM643.654 431.904L638.134 431.924L638.154 437.344L643.673 437.324L643.654 431.904ZM614.24 437.399L619.76 437.385L619.717 431.964L614.197 431.979L614.24 437.399ZM595.808 437.47L590.274 437.484L590.218 432.078L595.752 432.05L595.808 437.47ZM566.309 437.584L571.828 437.555L571.758 432.135L566.238 432.163L566.309 437.584ZM547.849 437.64L542.329 437.669L542.23 432.248L547.764 432.22L547.849 437.64ZM518.335 437.754L523.854 437.74L523.755 432.319L518.221 432.333L518.335 437.754ZM499.86 437.825L494.327 437.839L494.199 432.419L499.733 432.404L499.86 437.825ZM470.318 437.924L475.852 437.91L475.71 432.49L470.176 432.504L470.318 437.924ZM451.829 437.995L446.281 438.023L446.125 432.589L451.673 432.575L451.829 437.995ZM422.259 438.108L427.793 438.094L427.623 432.66L422.075 432.688L422.259 438.108ZM403.742 438.179L398.208 438.194L398.01 432.773L403.558 432.745L403.742 438.179ZM374.157 438.279L379.691 438.265L379.478 432.844L373.945 432.859L374.157 438.279ZM355.626 438.35L350.078 438.378L349.851 432.943L355.399 432.929L355.626 438.35ZM331.547 438.449L325.999 438.463L325.758 433.029L331.306 433.014L331.547 438.449ZM38.0131 461.067L43.5753 461.038L43.1354 455.632L37.5732 455.646L38.0131 461.067ZM67.7113 460.953L62.1491 460.968L61.7234 455.561L67.2856 455.533L67.7113 460.953ZM86.2851 460.868L91.8331 460.854L91.4358 455.448L85.8736 455.462L86.2851 460.868ZM115.955 460.755L110.393 460.783L110.01 455.377L115.558 455.348L115.955 460.755ZM134.5 460.684L140.063 460.67L139.679 455.249L134.131 455.278L134.5 460.684ZM164.156 460.57L158.608 460.599L158.239 455.178L163.801 455.164L164.156 460.57ZM182.687 460.499L188.235 460.471L187.895 455.065L182.347 455.093L182.687 460.499ZM212.314 460.386L206.766 460.414L206.44 455.008L211.988 454.979L212.314 460.386ZM230.831 460.315L236.365 460.287L236.067 454.88L230.519 454.909L230.831 460.315ZM260.416 460.201L254.882 460.216L254.584 454.824L260.132 454.795L260.416 460.201ZM278.919 460.13L284.467 460.102L284.183 454.696L278.649 454.724L278.919 460.13ZM308.49 460.017L302.956 460.031L302.7 454.625L308.234 454.611L308.49 460.017ZM326.978 459.946L332.512 459.918L332.271 454.511L326.737 454.54L326.978 459.946ZM356.52 459.832L350.986 459.847L350.759 454.44L356.293 454.426L356.52 459.832ZM374.994 459.747L380.514 459.733L380.315 454.341L374.782 454.355L374.994 459.747ZM404.508 459.648L398.975 459.662L398.79 454.27L404.31 454.242L404.508 459.648ZM422.954 459.563L428.488 459.549L428.304 454.157L422.784 454.171L422.954 459.563ZM452.454 459.449L446.934 459.478L446.764 454.086L452.298 454.057L452.454 459.449ZM470.886 459.378L476.405 459.364L476.264 453.972L470.744 453.986L470.886 459.378ZM500.357 459.265L494.837 459.293L494.71 453.901L500.229 453.873L500.357 459.265ZM518.775 459.194L524.294 459.18L524.181 453.788L518.661 453.802L518.775 459.194ZM548.217 459.08L542.698 459.109L542.613 453.717L548.118 453.688L548.217 459.08ZM566.621 459.009L572.126 458.995L572.055 453.603L566.536 453.617L566.621 459.009ZM596.035 458.896L590.53 458.924L590.459 453.532L595.978 453.504L596.035 458.896ZM614.425 458.825L619.93 458.811L619.888 453.419L614.382 453.433L614.425 458.825ZM643.751 453.385L638.245 453.406L638.266 458.798L643.771 458.777L643.751 453.385ZM662.186 458.64L667.691 458.626L667.677 453.234L662.172 453.263L662.186 458.64ZM691.544 458.527L686.052 458.555V453.163L691.558 453.149L691.544 458.527ZM709.904 458.456L715.396 458.442L715.424 453.05L709.919 453.078L709.904 458.456ZM739.248 458.342L733.742 458.371L733.785 452.979L739.276 452.965L739.248 458.342ZM757.58 458.271L763.072 458.257L763.128 452.865L757.637 452.894L757.58 458.271ZM786.895 458.158L781.404 458.187L781.475 452.795L786.966 452.78L786.895 458.158ZM805.214 458.087L810.705 458.073L810.79 452.695L805.299 452.709L805.214 458.087ZM834.501 457.974L829.024 457.988L829.123 452.624L834.614 452.596L834.501 457.974ZM852.805 457.902L858.296 457.888L858.409 452.511L852.932 452.525L852.805 457.902ZM882.077 457.789L876.586 457.818L876.728 452.44L882.219 452.411L882.077 457.789ZM39.7867 482.478L45.3347 482.45L44.8949 477.072L39.3327 477.086L39.7867 482.478ZM69.3998 482.351L63.8517 482.379L63.4261 476.987L68.9741 476.973L69.3998 482.351ZM87.9167 482.28L93.4506 482.252L93.0533 476.874L87.5052 476.902L87.9167 482.28ZM1093 6.3568H1087.23L1087.52 0.354732H1093.3L1093 6.3568ZM1048.42 435.81L1042.94 435.824L1043.2 430.432L1048.67 430.404L1048.42 435.81ZM1019.16 435.909L1024.65 435.895L1024.88 430.489L1019.4 430.517L1019.16 435.909ZM1000.87 435.98L995.379 435.994L995.592 430.602L1001.08 430.574L1000.87 435.98ZM971.583 436.094L977.075 436.065L977.273 430.673L971.782 430.688L971.583 436.094ZM953.265 436.151L947.788 436.179L947.972 430.773L953.449 430.759L953.265 436.151ZM923.964 436.264L929.455 436.236L929.625 430.844L924.134 430.858L923.964 436.264ZM905.631 436.335L900.14 436.349L900.296 430.943L905.787 430.929L905.631 436.335ZM876.061 479.073L881.524 479.045L881.651 473.71L876.189 473.724L876.061 479.073ZM857.799 479.144L852.336 479.172L852.45 473.823L857.927 473.794L857.799 479.144ZM828.612 479.257L834.075 479.243L834.188 473.894L828.711 473.922L828.612 479.257ZM810.35 479.343L804.873 479.357L804.958 474.008L810.436 473.993L810.35 479.343ZM781.12 479.456L786.598 479.428L786.668 474.078L781.191 474.107L781.12 479.456ZM762.845 479.527L757.368 479.555L757.424 474.206L762.901 474.178L762.845 479.527ZM733.601 479.655L739.078 479.626L739.12 474.277L733.643 474.291L733.601 479.655ZM715.296 479.726L709.819 479.754L709.848 474.391L715.325 474.376L715.296 479.726ZM686.038 479.839L691.515 479.825L691.529 474.461L686.038 474.49V479.839ZM667.72 479.924L662.228 479.938L662.214 474.589L667.705 474.561L667.72 479.924ZM638.456 474.603L643.947 474.58L643.969 479.944L638.478 479.967L638.456 474.603ZM620.086 480.109L614.595 480.137L614.552 474.774L620.043 474.76L620.086 480.109ZM590.771 480.236L596.263 480.208L596.206 474.844L590.714 474.873L590.771 480.236ZM572.424 480.307L566.933 480.322L566.848 474.972L572.353 474.944L572.424 480.307ZM543.081 480.421L548.572 480.407L548.487 475.043L542.982 475.072L543.081 480.421ZM524.72 480.506L519.215 480.52L519.101 475.157L524.607 475.142L524.72 480.506ZM495.348 480.62L500.839 480.591L500.726 475.242L495.22 475.256L495.348 480.62ZM476.959 480.691L471.453 480.719L471.311 475.355L476.831 475.327L476.959 480.691ZM447.573 480.818L453.078 480.79L452.922 475.426L447.403 475.455L447.573 480.818ZM429.169 480.889L423.664 480.917L423.494 475.54L428.999 475.526L429.169 480.889ZM399.755 481.003L405.26 480.989L405.076 475.625L399.556 475.639L399.755 481.003ZM381.337 481.088L375.832 481.102L375.619 475.739L381.138 475.71L381.337 481.088ZM351.895 481.202L357.4 481.187L357.187 475.81L351.668 475.838L351.895 481.202ZM333.462 481.286L327.943 481.301L327.702 475.937L333.221 475.909L333.462 481.286ZM303.991 481.4L309.511 481.372L309.256 476.008L303.736 476.022L303.991 481.4ZM285.545 481.471L280.026 481.499L279.742 476.122L285.276 476.108L285.545 481.471ZM256.046 481.599L261.565 481.57L261.282 476.193L255.748 476.221L256.046 481.599ZM237.586 481.67L232.052 481.698L231.754 476.32L237.273 476.292L237.586 481.67ZM208.057 481.783L213.591 481.769L213.265 476.391L207.731 476.405L208.057 481.783ZM189.583 481.868L184.049 481.883L183.709 476.505L189.243 476.491L189.583 481.868ZM160.027 481.982L165.575 481.967L165.206 476.59L159.672 476.604L160.027 481.982ZM141.538 482.067L136.004 482.081L135.621 476.703L141.169 476.675L141.538 482.067ZM117.501 482.152L111.968 482.181L111.57 476.803L117.118 476.774L117.501 482.152ZM47.0658 503.748L41.532 503.777L41.0921 498.413L46.626 498.399L47.0658 503.748ZM65.5402 503.663L71.074 503.649L70.6483 498.285L65.1145 498.314L65.5402 503.663ZM95.0683 503.535L89.5345 503.564L89.123 498.215L94.6568 498.186L95.0683 503.535ZM113.514 503.464L119.048 503.436L118.665 498.087L113.131 498.115L113.514 503.464ZM143.014 503.337L137.494 503.365L137.125 498.016L142.645 497.987L143.014 503.337ZM161.46 503.266L166.98 503.238L166.625 497.888L161.105 497.902L161.46 503.266ZM190.931 503.138L185.411 503.152L185.071 497.803L190.59 497.789L190.931 503.138ZM209.349 503.053L214.869 503.025L214.542 497.689L209.023 497.704L209.349 503.053ZM238.791 502.925L233.286 502.954L232.974 497.604L238.494 497.59L238.791 502.925ZM257.209 502.854L262.715 502.826L262.431 497.477L256.911 497.505L257.209 502.854ZM286.624 502.727L281.118 502.741L280.849 497.406L286.354 497.377L286.624 502.727ZM305.013 502.641L310.518 502.627L310.263 497.278L304.758 497.306L305.013 502.641ZM334.413 502.514L328.908 502.542L328.666 497.207L334.172 497.179L334.413 502.514ZM352.788 502.443L358.294 502.414L358.067 497.079L352.561 497.108L352.788 502.443ZM382.16 502.315L376.655 502.343L376.442 496.994L381.947 496.98L382.16 502.315ZM400.521 502.244L406.012 502.216L405.828 496.88L400.322 496.895L400.521 502.244ZM429.85 502.116L424.359 502.13L424.189 496.795L429.68 496.781L429.85 502.116ZM448.197 502.031L453.688 502.017L453.532 496.682L448.041 496.696L448.197 502.031ZM477.526 501.918L472.035 501.932L471.879 496.597L477.385 496.568L477.526 501.918ZM495.845 501.833L501.336 501.804L501.208 496.469L495.717 496.498L495.845 501.833ZM525.146 501.705L519.654 501.733L519.541 496.398L525.032 496.37L525.146 501.705ZM543.45 501.634L548.927 501.606L548.842 496.27L543.365 496.299L543.45 501.634ZM572.722 501.506L567.231 501.535L567.16 496.199L572.637 496.171L572.722 501.506ZM591.012 501.421L596.489 501.407L596.433 496.072L590.956 496.1L591.012 501.421ZM620.256 501.308L614.779 501.322L614.737 496.001L620.214 495.973L620.256 501.308ZM638.46 495.972L643.937 495.949L643.959 501.27L638.482 501.293L638.46 495.972ZM667.748 501.095L662.285 501.123L662.271 495.802L667.748 495.774V501.095ZM686.01 501.024L691.487 500.996V495.675L686.024 495.703L686.01 501.024ZM715.197 500.896L709.734 500.925L709.762 495.589L715.225 495.575L715.197 500.896ZM733.444 500.825L738.907 500.797L738.95 495.476L733.487 495.49L733.444 500.825ZM762.617 500.698L757.155 500.712L757.211 495.391L762.674 495.377L762.617 500.698ZM780.851 500.612L786.3 500.598L786.385 495.277L780.922 495.291L780.851 500.612ZM809.982 500.499L804.533 500.513L804.618 495.192L810.081 495.178L809.982 500.499ZM828.2 500.414L833.663 500.385L833.763 495.078L828.3 495.093L828.2 500.414ZM857.317 500.286L851.868 500.315L851.982 494.994L857.444 494.979L857.317 500.286ZM875.522 500.215L880.971 500.187L881.112 494.88L875.65 494.894L875.522 500.215ZM899.53 457.718L905.007 457.704L905.163 452.326L899.686 452.355L899.53 457.718ZM928.774 457.605L923.297 457.633L923.467 452.255L928.944 452.241L928.774 457.605ZM947.05 457.534L952.513 457.519L952.697 452.142L947.234 452.17L947.05 457.534ZM976.252 457.42L970.789 457.449L970.987 452.071L976.464 452.057L976.252 457.42ZM994.513 457.349L999.99 457.335L1000.2 451.957L994.74 451.986L994.513 457.349ZM1023.7 457.236L1018.24 457.264L1018.46 451.901L1023.94 451.872L1023.7 457.236ZM1041.95 457.165L1047.41 457.15L1047.67 451.787L1042.2 451.801L1041.95 457.165ZM904.397 478.96L898.934 478.974L899.076 473.639L904.553 473.61L904.397 478.96ZM922.63 478.889L928.093 478.86L928.263 473.511L922.801 473.539L922.63 478.889ZM951.775 478.761L946.312 478.789L946.497 473.44L951.959 473.426L951.775 478.761ZM969.994 478.69L975.443 478.662L975.655 473.326L970.193 473.341L969.994 478.69ZM999.111 478.562L993.662 478.591L993.875 473.255L999.324 473.227L999.111 478.562ZM1017.32 478.491L1022.76 478.477L1023.01 473.128L1017.54 473.156L1017.32 478.491ZM1046.4 478.378L1040.95 478.392L1041.21 473.057L1046.66 473.042L1046.4 478.378ZM898.338 500.116L903.787 500.087L903.929 494.781L898.48 494.795L898.338 500.116ZM927.412 499.988L921.963 500.016L922.134 494.695L927.582 494.681L927.412 499.988ZM945.588 499.917L951.037 499.889L951.222 494.582L945.773 494.596L945.588 499.917ZM974.634 499.789L969.2 499.818L969.398 494.497L974.847 494.483L974.634 499.789ZM992.796 499.718L998.245 499.69L998.458 494.383L993.023 494.397L992.796 499.718ZM1021.83 499.591L1016.39 499.619L1016.62 494.298L1022.07 494.284L1021.83 499.591ZM1039.98 499.52L1045.41 499.491L1045.65 494.185L1040.22 494.199L1039.98 499.52ZM1112.28 6.37099H1118.05L1118.37 0.354732H1112.6L1112.28 6.37099ZM1143.09 6.37101H1137.33L1137.65 0.368935H1143.43L1143.09 6.37101ZM1162.36 6.37101L1168.12 6.38519L1168.47 0.383125L1162.7 0.368935L1162.36 6.37101ZM1091.81 30.1097H1086.05L1086.35 24.136H1092.11L1091.81 30.1097ZM1111.04 30.1097H1116.78L1117.11 24.136H1111.35L1111.04 30.1097ZM1141.76 30.1097H1136.01L1136.34 24.136H1142.1L1141.76 30.1097ZM1160.97 30.1097H1166.71L1167.07 24.1502H1161.31L1160.97 30.1097ZM1090.62 53.7205H1084.88L1085.17 47.7752H1090.92L1090.62 53.7205ZM1109.79 53.7205H1115.53L1115.85 47.7752H1110.1L1109.79 53.7205ZM1140.42 53.7064H1134.69L1135.02 47.7752H1140.76L1140.42 53.7064ZM1159.58 53.7064H1165.31L1165.66 47.7752H1159.93L1159.58 53.7064ZM1089.44 77.1897L1083.72 77.2039L1084.01 71.287H1089.74L1089.44 77.1897ZM1108.55 77.1897H1114.27L1114.6 71.287H1108.86L1108.55 77.1897ZM1139.1 77.1755H1133.38L1133.71 71.2728H1139.44L1139.1 77.1755ZM1158.2 77.1755L1163.92 77.1613L1164.27 71.2728H1158.56L1158.2 77.1755ZM1088.26 100.545H1082.56L1082.86 94.6709H1088.56L1088.26 100.545ZM1107.33 100.531L1113.04 100.517L1113.35 94.6567H1107.64L1107.33 100.531ZM1137.8 100.503L1132.09 100.517L1132.42 94.6425H1138.12L1137.8 100.503ZM1192.27 6.38521H1186.51L1186.88 0.383139H1192.64L1192.27 6.38521ZM1142.29 348.574L1147.81 348.56L1148.14 343.04L1142.61 343.055L1142.29 348.574ZM1123.82 348.631L1118.3 348.645L1118.6 343.126L1124.13 343.111L1123.82 348.631ZM1094.29 348.716L1099.83 348.702L1100.11 343.182L1094.58 343.197L1094.29 348.716ZM1070.27 348.787L1075.8 348.758L1076.09 343.253L1070.54 343.267L1070.27 348.787ZM1074.71 370.582L1069.19 370.596L1069.46 365.119L1074.98 365.091L1074.71 370.582ZM1093.14 370.525L1098.66 370.511L1098.95 365.02L1093.43 365.034L1093.14 370.525ZM1122.6 370.44L1117.08 370.454L1117.39 364.963L1122.91 364.948L1122.6 370.44ZM1141.02 370.383L1146.52 370.355L1146.85 364.877L1141.33 364.892L1141.02 370.383ZM1073.62 392.277L1068.11 392.306L1068.38 386.843L1073.89 386.829L1073.62 392.277ZM1092.01 392.22L1097.5 392.206L1097.8 386.743L1092.29 386.758L1092.01 392.22ZM1121.38 392.121L1115.87 392.135L1116.17 386.687L1121.68 386.672L1121.38 392.121ZM1139.74 392.064L1145.23 392.05L1145.56 386.587L1140.07 386.616L1139.74 392.064ZM1072.54 413.859L1067.05 413.873L1067.32 408.453L1072.81 408.439L1072.54 413.859ZM1090.87 413.788L1096.35 413.774L1096.65 408.354L1091.16 408.368L1090.87 413.788ZM1120.16 413.689L1114.68 413.717L1114.98 408.283L1120.47 408.268L1120.16 413.689ZM1138.48 413.632L1143.95 413.604L1144.28 408.183L1138.79 408.212L1138.48 413.632ZM1211.51 6.38522H1217.27L1217.67 0.397342H1211.89L1211.51 6.38522ZM1242.27 6.39941H1236.51L1236.91 0.397342H1242.67L1242.27 6.39941ZM1261.5 6.39943H1267.25L1267.69 0.411545H1261.92L1261.5 6.39943ZM1292.22 6.41362H1286.47L1286.91 0.411545H1292.67L1292.22 6.41362ZM1311.43 6.41363H1317.18L1317.65 0.425748H1311.9L1311.43 6.41363ZM1342.14 6.42782H1336.39L1336.86 0.425748H1342.62L1342.14 6.42782ZM1185.03 30.1097H1190.79L1191.16 24.1502H1185.4L1185.03 30.1097ZM1215.72 30.1097H1209.98L1210.36 24.1502H1216.11L1215.72 30.1097ZM1234.91 30.1097H1240.64L1241.05 24.1502H1235.31L1234.91 30.1097ZM1265.56 30.1097H1259.82L1260.24 24.1502H1265.98L1265.56 30.1097ZM1284.73 30.1239H1290.46L1290.9 24.1502H1285.17L1284.73 30.1239ZM1315.35 30.1239H1309.61L1310.07 24.1644H1315.82L1315.35 30.1239ZM1334.5 30.1239H1340.22L1340.7 24.1644H1334.97L1334.5 30.1239ZM1189.32 53.7064H1183.59L1183.95 47.7752H1189.69L1189.32 53.7064ZM1208.46 53.6922H1214.18L1214.57 47.761H1208.84L1208.46 53.6922ZM1239.04 53.6922H1233.3L1233.72 47.761H1239.43L1239.04 53.6922ZM1258.15 53.6922H1263.88L1264.29 47.761H1258.58L1258.15 53.6922ZM1288.71 53.6922H1282.98L1283.42 47.761H1289.14L1288.71 53.6922ZM1307.81 53.678H1313.53L1313.98 47.761H1308.27L1307.81 53.678ZM1338.33 53.678H1332.62L1333.08 47.761H1338.8L1338.33 53.678ZM1182.14 77.1613H1187.86L1188.23 71.2586H1182.51L1182.14 77.1613ZM1212.65 77.1471H1206.94L1207.32 71.2586H1213.03L1212.65 77.1471ZM1231.73 77.1471L1237.43 77.1329L1237.83 71.2444H1232.13L1231.73 77.1471ZM1262.21 77.1329H1256.49L1256.92 71.2302H1262.62L1262.21 77.1329ZM1281.26 77.1187H1286.97L1287.39 71.2302H1281.69L1281.26 77.1187ZM1311.71 77.1045L1306.01 77.1187L1306.46 71.216H1312.17L1311.71 77.1045ZM1330.76 77.1045H1336.45L1336.93 71.216H1331.22L1330.76 77.1045ZM1186.41 100.474L1180.7 100.488L1181.07 94.6141H1186.76L1186.41 100.474ZM1205.44 100.474L1211.13 100.46L1211.51 94.5999H1205.81L1205.44 100.474ZM1235.84 100.446L1230.14 100.46L1230.54 94.5857H1236.24L1235.84 100.446ZM1254.84 100.432H1260.53L1260.96 94.5715L1255.27 94.5857L1254.84 100.432ZM1285.22 100.417H1279.55L1279.97 94.5573H1285.66L1285.22 100.417ZM1304.22 100.403H1309.91L1310.37 94.5431L1304.68 94.5573L1304.22 100.403ZM1334.57 100.389H1328.88L1329.35 94.5434L1335.04 94.5292L1334.57 100.389ZM1179.29 123.674H1184.96L1185.33 117.842H1179.64L1179.29 123.674ZM1209.61 123.646H1203.93L1204.32 117.828L1209.99 117.814L1209.61 123.646ZM1228.58 123.631H1234.26L1234.65 117.8H1228.98L1228.58 123.631ZM1258.89 123.603L1253.21 123.617L1253.62 117.785H1259.3L1258.89 123.603ZM1156.84 100.503L1162.54 100.488L1162.88 94.6283H1157.18L1156.84 100.503ZM1081.41 123.759L1087.1 123.745L1087.4 117.913H1081.71L1081.41 123.759ZM1111.8 123.731H1106.11L1106.41 117.899H1112.11L1111.8 123.731ZM1130.8 123.717L1136.49 123.702L1136.82 117.871L1131.13 117.885L1130.8 123.717ZM1161.17 123.688H1155.48L1155.82 117.856H1161.51L1161.17 123.688ZM1080.27 146.831H1085.95L1086.23 141.027H1080.56L1080.27 146.831ZM1110.57 146.803H1104.89L1105.2 140.999H1110.88L1110.57 146.803ZM1129.51 146.774H1135.19L1135.51 140.971L1129.84 140.985L1129.51 146.774ZM1159.79 146.746L1154.13 146.76L1154.47 140.957H1160.13L1159.79 146.746ZM1079.14 169.775H1084.79L1085.08 164L1079.42 164.014L1079.14 169.775ZM1109.35 169.747H1103.7L1104 163.986L1109.66 163.972L1109.35 169.747ZM1128.25 169.718H1133.89L1134.22 163.943L1128.56 163.957L1128.25 169.718ZM1158.43 169.676L1152.78 169.69L1153.12 163.929L1158.77 163.915L1158.43 169.676ZM1078 192.591H1083.65L1083.93 186.859H1078.29L1078 192.591ZM1108.14 192.549L1102.49 192.563L1102.79 186.83L1108.44 186.816L1108.14 192.549ZM1126.97 192.52H1132.62L1132.93 186.788H1127.3L1126.97 192.52ZM1157.08 192.478L1151.45 192.492L1151.77 186.76L1157.42 186.745L1157.08 192.478ZM1076.88 215.28H1082.5L1082.8 209.576H1077.17L1076.88 215.28ZM1106.92 215.237L1101.3 215.251L1101.6 209.547L1107.23 209.533L1106.92 215.237ZM1125.71 215.209L1131.34 215.195L1131.65 209.491L1126.03 209.505L1125.71 215.209ZM1155.73 215.152L1150.11 215.167L1150.45 209.462H1156.07L1155.73 215.152ZM1075.76 237.855L1081.38 237.841L1081.66 232.165L1076.04 232.18L1075.76 237.855ZM1105.73 237.798H1100.11L1100.41 232.137L1106.03 232.123L1105.73 237.798ZM1124.46 237.756L1130.06 237.742L1130.39 232.08H1124.77L1124.46 237.756ZM1154.4 237.699L1148.79 237.713L1149.12 232.038H1154.74L1154.4 237.699ZM1074.65 260.288L1080.24 260.274L1080.53 254.627L1074.94 254.641L1074.65 260.288ZM1104.54 260.217L1098.93 260.231L1099.23 254.598L1104.83 254.584L1104.54 260.217ZM1123.21 260.189L1128.8 260.175L1129.13 254.527L1123.52 254.542L1123.21 260.189ZM1153.06 260.118L1147.47 260.132L1147.8 254.499L1153.4 254.485L1153.06 260.118ZM1073.55 282.594L1079.12 282.58L1079.41 276.975L1073.82 276.989L1073.55 282.594ZM1103.34 282.523L1097.77 282.537L1098.07 276.932L1103.64 276.918L1103.34 282.523ZM1121.98 282.481L1127.55 282.466L1127.86 276.862L1122.29 276.876L1121.98 282.481ZM1151.74 282.41L1146.17 282.424L1146.49 276.819L1152.07 276.805L1151.74 282.41ZM1072.46 304.772H1078.02L1078.29 299.181L1072.72 299.195L1072.46 304.772ZM1102.17 304.701L1096.61 304.715L1096.89 299.139L1102.47 299.125L1102.17 304.701ZM1120.74 304.658L1126.3 304.644L1126.62 299.068L1121.05 299.082L1120.74 304.658ZM1150.43 304.587L1144.86 304.602L1145.2 299.025L1150.75 299.011L1150.43 304.587ZM1071.35 326.836L1076.91 326.822L1077.18 321.274L1071.63 321.288L1071.35 326.836ZM1100.99 326.765L1095.44 326.779L1095.73 321.231L1101.29 321.217L1100.99 326.765ZM1119.82 321.16L1119.52 326.709L1125.05 326.694L1125.37 321.146L1119.82 321.16ZM1149.12 326.638L1143.57 326.652L1143.9 321.104L1149.45 321.09L1149.12 326.638ZM1327.04 123.56L1332.71 123.546L1333.18 117.729H1327.51L1327.04 123.56ZM1308.11 123.575H1302.45L1302.89 117.743H1308.56L1308.11 123.575ZM1283.51 123.589H1277.83L1278.27 117.771L1283.95 117.757L1283.51 123.589ZM1183.53 146.732H1177.87L1178.22 140.928H1183.88L1183.53 146.732ZM1202.44 146.703H1208.1L1208.49 140.9L1202.83 140.914L1202.44 146.703ZM1232.68 146.675H1227.02L1227.42 140.886H1233.08L1232.68 146.675ZM1251.58 146.661L1257.24 146.646L1257.65 140.857H1251.99L1251.58 146.661ZM1281.79 146.618L1276.14 146.632L1276.57 140.843L1282.22 140.829L1281.79 146.618ZM1300.68 146.604H1306.32L1306.78 140.815H1301.12L1300.68 146.604ZM1330.86 146.575H1325.21L1325.66 140.786H1331.32L1330.86 146.575ZM1176.45 169.661L1182.1 169.647L1182.46 163.886H1176.8L1176.45 169.661ZM1206.61 169.619L1200.97 169.633L1201.34 163.858H1206.98L1206.61 169.619ZM1225.47 169.605L1231.12 169.59L1231.5 163.829L1225.86 163.844L1225.47 169.605ZM1255.61 169.562H1249.96L1250.37 163.801H1256.02L1255.61 169.562ZM1274.44 169.534H1280.09L1280.51 163.773H1274.88L1274.44 169.534ZM1304.55 169.505H1298.92L1299.36 163.744H1305L1304.55 169.505ZM1323.38 169.477H1329.01L1329.48 163.716H1323.85L1323.38 169.477ZM1180.68 192.449H1175.04L1175.4 186.717H1181.03L1180.68 192.449ZM1199.49 192.421L1205.12 192.407L1205.49 186.689H1199.86L1199.49 192.421ZM1229.56 192.378L1223.93 192.393L1224.32 186.66L1229.96 186.646L1229.56 192.378ZM1248.36 192.35H1253.98L1254.39 186.618H1248.76L1248.36 192.35ZM1278.4 192.307L1272.77 192.322L1273.19 186.589L1278.82 186.575L1278.4 192.307ZM1297.17 192.279L1302.79 192.265L1303.24 186.547L1297.61 186.561L1297.17 192.279ZM1327.18 192.236L1321.56 192.251L1322.02 186.518H1327.65L1327.18 192.236ZM1173.65 215.124L1179.27 215.11L1179.63 209.42H1173.99L1173.65 215.124ZM1203.65 215.081H1198.03L1198.4 209.391L1204.02 209.377L1203.65 215.081ZM1222.39 215.053L1228.01 215.039L1228.4 209.335L1222.78 209.349L1222.39 215.053ZM1252.36 214.996L1246.76 215.01L1247.15 209.306H1252.77L1252.36 214.996ZM1271.11 214.968L1276.71 214.954L1277.14 209.264L1271.52 209.278L1271.11 214.968ZM1301.04 214.911L1295.44 214.925L1295.87 209.235L1301.48 209.221L1301.04 214.911ZM1319.76 214.883H1325.36L1325.82 209.178L1320.21 209.193L1319.76 214.883ZM1177.87 237.656L1172.26 237.671L1172.6 231.995H1178.22L1177.87 237.656ZM1196.57 237.628L1202.17 237.614L1202.54 231.952H1196.94L1196.57 237.628ZM1226.47 237.571L1220.87 237.585L1221.26 231.91H1226.85L1226.47 237.571ZM1245.17 237.529H1250.76L1251.16 231.853L1245.56 231.867L1245.17 237.529ZM1275.04 237.472L1269.44 237.486L1269.86 231.825L1275.45 231.811L1275.04 237.472ZM1293.71 237.444L1299.3 237.43L1299.74 231.768L1294.13 231.782L1293.71 237.444ZM1323.55 237.387L1317.96 237.401L1318.41 231.74L1324 231.725L1323.55 237.387ZM1170.89 260.09L1176.46 260.076L1176.82 254.442H1171.23L1170.89 260.09ZM1200.71 260.019L1195.12 260.033L1195.49 254.4L1201.08 254.386L1200.71 260.019ZM1219.36 259.99L1224.93 259.976L1225.32 254.343H1219.74L1219.36 259.99ZM1249.15 259.919L1243.58 259.934L1243.98 254.3L1249.55 254.286L1249.15 259.919ZM1267.78 259.891L1273.36 259.877L1273.79 254.244L1268.2 254.258L1267.78 259.891ZM1316.18 259.792L1321.75 259.778L1322.2 254.145L1316.62 254.159L1316.18 259.792ZM1291.99 259.834L1297.57 259.82L1297.99 254.187L1292.42 254.201L1291.99 259.834ZM1175.09 282.367L1169.51 282.381L1169.85 276.776L1175.43 276.762L1175.09 282.367ZM1193.69 282.324L1199.25 282.31L1199.62 276.705L1194.04 276.72L1193.69 282.324ZM1223.41 282.253L1217.85 282.268L1218.22 276.663L1223.8 276.649L1223.41 282.253ZM1242 282.211L1247.57 282.197L1247.96 276.592L1242.4 276.606L1242 282.211ZM1271.72 282.14L1266.15 282.154L1266.56 276.563L1272.13 276.549L1271.72 282.14ZM1290.27 282.097L1295.84 282.083L1296.28 276.493L1290.71 276.507L1290.27 282.097ZM1319.96 282.026L1314.4 282.041L1314.85 276.45L1320.41 276.436L1319.96 282.026ZM1168.15 304.545L1173.7 304.53L1174.05 298.954L1168.49 298.968L1168.15 304.545ZM1197.8 304.474L1192.26 304.488L1192.61 298.911L1198.17 298.897L1197.8 304.474ZM1216.35 304.417L1221.9 304.403L1222.28 298.841L1216.73 298.855L1216.35 304.417ZM1245.99 304.346L1240.44 304.36L1240.82 298.798L1246.39 298.784L1245.99 304.346ZM1264.51 304.304L1270.05 304.289L1270.48 298.727H1264.93L1264.51 304.304ZM1294.12 304.233L1288.59 304.247L1289.01 298.67H1294.56L1294.12 304.233ZM1312.64 304.19L1318.17 304.176L1318.62 298.599L1313.08 298.614L1312.64 304.19ZM1172.33 326.567L1166.79 326.581L1167.13 321.047L1172.67 321.033L1172.33 326.567ZM1190.84 326.524L1196.37 326.51L1196.72 320.962L1191.19 320.976L1190.84 326.524ZM1220.39 326.439L1214.86 326.453L1215.24 320.919L1220.78 320.905L1220.39 326.439ZM1238.88 326.396L1244.41 326.382L1244.81 320.834L1239.28 320.848L1238.88 326.396ZM1268.42 326.311L1262.89 326.325L1263.3 320.792L1268.83 320.777L1268.42 326.311ZM1286.9 326.269L1292.42 326.254L1292.84 320.706L1287.31 320.721L1286.9 326.269ZM1316.41 326.183L1310.88 326.198L1311.32 320.664L1316.85 320.65L1316.41 326.183ZM1165.44 348.503L1170.96 348.489L1171.31 342.984L1165.78 342.998L1165.44 348.503ZM1194.94 348.418L1189.42 348.432L1189.77 342.927L1195.29 342.913L1194.94 348.418ZM1213.38 348.376L1218.9 348.347L1219.27 342.842L1213.75 342.856L1213.38 348.376ZM1242.85 348.29L1237.33 348.305L1237.72 342.799L1243.24 342.771L1242.85 348.29ZM1261.27 348.234L1266.79 348.219L1267.2 342.714L1261.68 342.728L1261.27 348.234ZM1290.73 348.148L1285.21 348.163L1285.63 342.657L1291.15 342.643L1290.73 348.148ZM1309.13 348.092L1314.64 348.077L1315.09 342.572L1309.57 342.586L1309.13 348.092ZM1169.61 370.284L1164.09 370.312L1164.43 364.821L1169.95 364.807L1169.61 370.284ZM1188 370.241L1193.52 370.213L1193.87 364.736L1188.35 364.75L1188 370.241ZM1217.41 370.142L1211.91 370.156L1212.28 364.679L1217.78 364.665L1217.41 370.142ZM1235.79 370.085L1241.29 370.071L1241.69 364.594L1236.19 364.608L1235.79 370.085ZM1265.17 370L1259.67 370.014L1260.08 364.537L1265.59 364.523L1265.17 370ZM1283.53 369.943L1289.04 369.929L1289.47 364.452L1283.96 364.466L1283.53 369.943ZM1312.89 369.844L1307.4 369.872L1307.83 364.395L1313.33 364.381L1312.89 369.844ZM1162.76 391.993L1168.26 391.965L1168.6 386.516L1163.1 386.53L1162.76 391.993ZM1192.1 391.894L1186.61 391.908L1186.96 386.46L1192.45 386.445L1192.1 391.894ZM1210.45 391.837L1215.92 391.809L1216.31 386.36L1210.81 386.389L1210.45 391.837ZM1239.75 391.738L1234.26 391.752L1234.65 386.303L1240.14 386.289L1239.75 391.738ZM1258.08 391.681L1263.56 391.653L1263.97 386.204L1258.48 386.232L1258.08 391.681ZM1287.37 391.582L1281.87 391.596L1282.3 386.147L1287.78 386.133L1287.37 391.582ZM1305.67 391.525L1311.15 391.497L1311.59 386.062L1306.11 386.077L1305.67 391.525ZM1166.91 413.533L1161.44 413.547L1161.76 408.127L1167.25 408.113L1166.91 413.533ZM1185.22 413.462L1190.69 413.448L1191.05 408.027L1185.56 408.042L1185.22 413.462ZM1214.46 413.362L1208.98 413.377L1209.35 407.956L1214.83 407.942L1214.46 413.362ZM1232.74 413.306L1238.21 413.277L1238.6 407.857L1233.12 407.885L1232.74 413.306ZM1261.95 413.192L1256.49 413.221L1256.89 407.8L1262.36 407.786L1261.95 413.192ZM1280.23 413.136L1285.69 413.121L1286.12 407.701L1280.64 407.715L1280.23 413.136ZM1309.42 413.036L1303.95 413.05L1304.38 407.644L1309.86 407.616L1309.42 413.036ZM1065.97 435.739L1071.43 435.725L1071.7 430.319L1066.23 430.347L1065.97 435.739ZM1095.19 435.625L1089.72 435.654L1090.01 430.262L1095.47 430.233L1095.19 435.625ZM1113.46 435.569L1118.94 435.54L1119.24 430.148L1113.76 430.177L1113.46 435.569ZM1142.66 435.455L1137.2 435.484L1137.51 430.092L1142.98 430.063L1142.66 435.455ZM1064.91 457.08L1070.37 457.066L1070.64 451.688L1065.18 451.716L1064.91 457.08ZM1094.05 456.966L1088.6 456.995L1088.87 451.631L1094.33 451.603L1094.05 456.966ZM1112.27 456.895L1117.73 456.881L1118.03 451.517L1112.57 451.532L1112.27 456.895ZM1141.4 456.782L1135.95 456.81L1136.26 451.447L1141.71 451.418L1141.4 456.782ZM1302.21 434.873L1307.66 434.845L1308.1 429.467L1302.63 429.481L1302.21 434.873ZM1284 434.944L1278.55 434.958L1278.97 429.567L1284.41 429.552L1284 434.944ZM1254.87 435.044L1260.34 435.03L1260.73 429.638L1255.27 429.666L1254.87 435.044ZM1236.65 435.115L1231.19 435.129L1231.57 429.751L1237.04 429.723L1236.65 435.115ZM1207.51 435.214L1212.96 435.2L1213.33 429.808L1207.86 429.836L1207.51 435.214ZM1189.26 435.285L1183.8 435.313L1184.15 429.921L1189.62 429.893L1189.26 435.285ZM1160.09 435.398L1165.55 435.37L1165.89 429.978L1160.41 430.007L1160.09 435.398ZM1140.14 477.994L1134.7 478.023L1135.02 472.688L1140.45 472.659L1140.14 477.994ZM1111.09 478.108L1116.54 478.094L1116.84 472.759L1111.39 472.773L1111.09 478.108ZM1092.93 478.193L1087.48 478.207L1087.77 472.872L1093.21 472.858L1092.93 478.193ZM1069.3 478.279L1063.86 478.307L1064.13 472.972L1069.57 472.943L1069.3 478.279ZM1062.81 499.42L1068.24 499.392L1068.51 494.085L1063.08 494.114L1062.81 499.42ZM1091.79 499.293L1086.37 499.321L1086.66 494L1092.08 493.986L1091.79 499.293ZM1109.93 499.208L1115.35 499.194L1115.65 493.887L1110.21 493.915L1109.93 499.208ZM1138.89 499.094L1133.47 499.108L1133.78 493.816L1139.2 493.787L1138.89 499.094ZM1164.23 456.697L1158.77 456.725L1159.11 451.361L1164.56 451.333L1164.23 456.697ZM1182.42 456.626L1187.87 456.611L1188.23 451.248L1182.78 451.262L1182.42 456.626ZM1211.51 456.512L1206.06 456.54L1206.43 451.177L1211.88 451.148L1211.51 456.512ZM1229.69 456.441L1235.14 456.427L1235.52 451.064L1230.07 451.078L1229.69 456.441ZM1364.7 6.42783H1358.95L1359.45 0.439951H1365.19L1364.7 6.42783ZM1300.51 456.171L1305.95 456.143L1306.38 450.794L1300.95 450.808L1300.51 456.171ZM1282.36 456.242L1276.91 456.257L1277.32 450.907L1282.77 450.879L1282.36 456.242ZM1258.75 456.328L1253.31 456.356L1253.69 450.993L1259.14 450.978L1258.75 456.328ZM1162.91 477.91L1157.48 477.924L1157.8 472.589L1163.24 472.574L1162.91 477.91ZM1181.06 477.824L1186.48 477.81L1186.83 472.475L1181.4 472.503L1181.06 477.824ZM1210.06 477.711L1204.63 477.739L1204.98 472.404L1210.42 472.376L1210.06 477.711ZM1228.2 477.64L1233.62 477.612L1234 472.291L1228.57 472.305L1228.2 477.64ZM1257.17 477.526L1251.75 477.541L1252.13 472.22L1257.57 472.191L1257.17 477.526ZM1275.29 477.441L1280.71 477.427L1281.12 472.092L1275.7 472.12L1275.29 477.441ZM1304.24 477.328L1298.82 477.356L1299.24 472.021L1304.68 472.007L1304.24 477.328ZM1156.17 499.023L1161.59 498.995L1161.92 493.688L1156.5 493.716L1156.17 499.023ZM1185.1 498.895L1179.7 498.924L1180.04 493.617L1185.46 493.589L1185.1 498.895ZM1203.21 498.825L1208.62 498.796L1208.98 493.489L1203.56 493.518L1203.21 498.825ZM1232.11 498.697L1226.71 498.711L1227.08 493.418L1232.5 493.39L1232.11 498.697ZM1250.19 498.612L1255.6 498.597L1255.99 493.291L1250.59 493.319L1250.19 498.612ZM1279.08 498.498L1273.67 498.512L1274.08 493.22L1279.49 493.191L1279.08 498.498ZM1297.14 498.413L1302.55 498.399L1302.97 493.092L1297.57 493.12L1297.14 498.413ZM1383.88 6.44202H1389.63L1390.15 0.45414L1384.39 0.439951L1383.88 6.44202ZM1414.54 6.44203H1408.81L1409.34 0.454154H1415.08L1414.54 6.44203ZM1439.45 6.45624L1433.71 6.44205L1434.27 0.468357H1440L1439.45 6.45624ZM1362.73 30.1239H1357.01L1357.49 24.1644H1363.22L1362.73 30.1239ZM1381.87 30.1239H1387.58L1388.1 24.1644H1382.38L1381.87 30.1239ZM1412.43 30.1239H1406.71L1407.24 24.1644H1412.97L1412.43 30.1239ZM1431.54 30.1239H1437.26L1437.82 24.1786H1432.1L1431.54 30.1239ZM1360.77 53.678H1355.06L1355.55 47.7468H1361.26L1360.77 53.678ZM1379.85 53.678L1385.56 53.6638L1386.07 47.7468H1380.35L1379.85 53.678ZM1410.33 53.6638H1404.63L1405.15 47.7468H1410.86L1410.33 53.6638ZM1429.39 53.6638H1435.09L1435.64 47.7468H1429.93L1429.39 53.6638ZM1358.82 77.0903H1353.13L1353.62 71.2018H1359.32L1358.82 77.0903ZM1377.84 77.0903H1383.54L1384.05 71.2018H1378.35L1377.84 77.0903ZM1408.24 77.0761H1402.55L1403.08 71.1876H1408.77L1408.24 77.0761ZM1427.24 77.0619H1432.93L1433.47 71.1734L1427.78 71.1876L1427.24 77.0619ZM1356.88 100.375H1351.2L1351.69 94.5292L1357.38 94.515L1356.88 100.375ZM1375.85 100.361H1381.53L1382.04 94.515H1376.36L1375.85 100.361ZM1406.16 100.347H1400.48L1401.01 94.5008H1406.68L1406.16 100.347ZM1425.12 100.333H1430.79L1431.33 94.4866H1425.65L1425.12 100.333ZM1354.96 123.532H1349.29L1349.77 117.714H1355.45L1354.96 123.532ZM1373.88 123.518H1379.54L1380.04 117.686L1374.37 117.7L1373.88 123.518ZM1404.1 123.489H1398.44L1398.95 117.672H1404.61L1404.1 123.489ZM1423 123.475H1428.65L1429.19 117.657H1423.53L1423 123.475ZM1353.05 146.547L1347.4 146.561L1347.87 140.772L1353.53 140.758L1353.05 146.547ZM1371.91 146.533H1377.55L1378.05 140.743H1372.4L1371.91 146.533ZM1402.04 146.504H1396.4L1396.92 140.715H1402.57L1402.04 146.504ZM1420.89 146.476H1426.53L1427.06 140.687L1421.41 140.701L1420.89 146.476ZM1351.13 169.449H1345.5L1345.98 163.688H1351.62L1351.13 169.449ZM1369.95 169.42L1375.58 169.406L1376.08 163.659H1370.44L1369.95 169.42ZM1400 169.378L1394.38 169.392L1394.88 163.631H1400.51L1400 169.378ZM1418.79 169.363L1424.42 169.349L1424.95 163.603H1419.33L1418.79 169.363ZM1349.25 192.208H1343.63L1344.09 186.49L1349.73 186.476L1349.25 192.208ZM1368 192.18L1373.61 192.165L1374.1 186.447L1368.49 186.461L1368 192.18ZM1397.97 192.137H1392.35L1392.86 186.419H1398.48L1397.97 192.137ZM1416.72 192.109L1422.32 192.095L1422.85 186.376L1417.23 186.391L1416.72 192.109ZM1347.36 214.84L1341.77 214.854L1342.24 209.164L1347.84 209.15L1347.36 214.84ZM1366.06 214.812L1371.66 214.798L1372.15 209.108L1366.56 209.122L1366.06 214.812ZM1395.96 214.755L1390.35 214.769L1390.86 209.079L1396.45 209.065L1395.96 214.755ZM1414.64 214.727L1420.23 214.712L1420.76 209.037H1415.15L1414.64 214.727ZM1345.49 237.344L1339.91 237.359L1340.36 231.697L1345.95 231.683L1345.49 237.344ZM1364.14 237.316L1369.72 237.302L1370.2 231.64L1364.63 231.654L1364.14 237.316ZM1393.94 237.259L1388.37 237.273L1388.86 231.612L1394.45 231.598L1393.94 237.259ZM1412.57 237.216H1418.16L1418.67 231.555L1413.1 231.569L1412.57 237.216ZM1343.63 259.721L1338.05 259.735L1338.52 254.116L1344.09 254.102L1343.63 259.721ZM1362.23 259.692L1367.79 259.678L1368.27 254.045L1362.71 254.059L1362.23 259.692ZM1391.96 259.621L1386.38 259.636L1386.88 254.017L1392.45 254.003L1391.96 259.621ZM1410.53 259.593L1416.09 259.579L1416.62 253.96H1411.04L1410.53 259.593ZM1341.78 281.984L1336.22 281.998L1336.69 276.393H1342.24L1341.78 281.984ZM1360.33 281.941L1365.88 281.927L1366.36 276.336L1360.8 276.351L1360.33 281.941ZM1389.97 281.87L1384.41 281.884L1384.9 276.294L1390.47 276.28L1389.97 281.87ZM1408.49 281.828H1414.03L1414.56 276.223L1409.01 276.237L1408.49 281.828ZM1339.94 304.119L1334.39 304.133L1334.86 298.571L1340.39 298.557L1339.94 304.119ZM1358.43 304.077L1363.96 304.062L1364.44 298.5L1358.91 298.514L1358.43 304.077ZM1387.98 304.006H1382.45L1382.95 298.443L1388.48 298.429L1387.98 304.006ZM1406.47 303.949L1412 303.935L1412.52 298.372L1406.98 298.387L1406.47 303.949ZM1338.11 326.127L1332.57 326.141L1333.04 320.607L1338.56 320.593L1338.11 326.127ZM1356.54 326.084L1362.07 326.056L1362.54 320.536L1357.02 320.55L1356.54 326.084ZM1386.02 325.999L1380.5 326.013L1380.99 320.479L1386.52 320.465L1386.02 325.999ZM1404.46 325.956L1409.96 325.942L1410.47 320.408L1404.95 320.423L1404.46 325.956ZM1336.28 348.021L1330.77 348.035L1331.23 342.529L1336.74 342.515L1336.28 348.021ZM1354.68 347.964L1360.19 347.95L1360.65 342.444L1355.15 342.459L1354.68 347.964ZM1384.07 347.879L1378.56 347.893L1379.06 342.388L1384.56 342.373L1384.07 347.879ZM1402.44 347.822L1407.95 347.808L1408.46 342.302L1402.95 342.317L1402.44 347.822ZM1334.47 369.787L1328.98 369.801L1329.42 364.324L1334.93 364.31L1334.47 369.787ZM1352.81 369.73L1358.3 369.716L1358.78 364.239L1353.28 364.253L1352.81 369.73ZM1382.12 369.631L1376.64 369.645L1377.13 364.182L1382.62 364.168L1382.12 369.631ZM1400.45 369.574L1405.95 369.56L1406.44 364.097L1400.95 364.112L1400.45 369.574ZM1332.67 391.426L1327.2 391.454L1327.64 386.006L1333.13 385.991L1332.67 391.426ZM1350.96 391.369L1356.44 391.355L1356.91 385.906L1351.43 385.934L1350.96 391.369ZM1380.19 391.27L1374.73 391.298L1375.2 385.849L1380.67 385.835L1380.19 391.27ZM1398.47 391.213L1403.95 391.199L1404.44 385.764L1398.98 385.779L1398.47 391.213ZM1330.87 412.965L1325.41 412.979L1325.86 407.559L1331.32 407.545L1330.87 412.965ZM1349.12 412.894L1354.58 412.88L1355.05 407.46L1349.59 407.488L1349.12 412.894ZM1378.28 412.795L1372.81 412.809L1373.3 407.403L1378.76 407.389L1378.28 412.795ZM1396.51 412.738L1401.96 412.71L1402.46 407.304L1396.99 407.318L1396.51 412.738ZM1329.05 434.774L1323.62 434.788L1324.06 429.411L1329.51 429.396L1329.05 434.774ZM1347.26 434.703L1352.71 434.689L1353.16 429.311L1347.71 429.325L1347.26 434.703ZM1376.33 434.604L1370.88 434.618L1371.37 429.24L1376.82 429.212L1376.33 434.604ZM1394.51 434.533L1399.94 434.519L1400.44 429.127L1395.01 429.155L1394.51 434.533ZM1327.29 456.072L1321.86 456.087L1322.3 450.737L1327.73 450.709L1327.29 456.072ZM1345.43 456.001L1350.86 455.973L1351.33 450.624L1345.9 450.638L1345.43 456.001ZM1374.43 455.888L1369 455.902L1369.48 450.553L1374.91 450.524L1374.43 455.888ZM1392.55 455.817L1397.99 455.788L1398.48 450.439L1393.05 450.467L1392.55 455.817ZM1325.52 477.243L1320.11 477.271L1320.55 471.936L1325.97 471.922L1325.52 477.243ZM1343.63 477.172L1349.05 477.143L1349.5 471.822L1344.08 471.851L1343.63 477.172ZM1372.54 477.044L1367.12 477.072L1367.59 471.751L1373.01 471.723L1372.54 477.044ZM1390.62 476.973L1396.03 476.959L1396.52 471.638L1391.1 471.652L1390.62 476.973ZM1323.78 498.299L1318.37 498.328L1318.81 493.035L1324.22 493.007L1323.78 498.299ZM1341.82 498.228L1347.23 498.2L1347.68 492.907L1342.28 492.936L1341.82 498.228ZM1370.66 498.101L1365.27 498.129L1365.73 492.837L1371.14 492.808L1370.66 498.101ZM1388.69 498.03L1394.08 498.002L1394.58 492.709L1389.17 492.737L1388.69 498.03Z" fill="url(#paint0_linear_27_4439)"/>
    <defs>
        <linearGradient id="paint0_linear_27_4439" x1="720" y1="0" x2="720" y2="503.777" gradientUnits="userSpaceOnUse">
            <stop stop-color="#84F0FF" stop-opacity="0.5"/>
            <stop offset="1" stop-color="#00E0FF" stop-opacity="0"/>
        </linearGradient>
    </defs>
</svg>
