<svg xmlns="http://www.w3.org/2000/svg" width="296" height="226" fill="none"><path fill-rule="evenodd" clip-rule="evenodd" d="M217.294 101.618s1.835-39.77-41.604-61.524c-41.304-20.685-75.079 4.253-75.079 4.253l116.683 57.271Z" fill="url(#a)"/><path fill-rule="evenodd" clip-rule="evenodd" d="M273.069 155.769s-14.658-48.031-107.633-94.601C77.024 16.886 23.854 32.103 23.854 32.103L273.069 155.77Z" fill="url(#b)"/><path style="mix-blend-mode:screen" opacity=".5" fill-rule="evenodd" clip-rule="evenodd" d="M273.069 155.769s-14.658-48.031-107.633-94.601C77.024 16.886 23.854 32.103 23.854 32.103L273.069 155.77Z" fill="url(#c)"/><path fill-rule="evenodd" clip-rule="evenodd" d="M23.854 32.103S172.95 49.081 273.056 155.817l-22.736 4.023C189.514 138.991 128.397 133.6 35.913 51.66L23.854 32.104Z" fill="url(#d)"/><path fill-rule="evenodd" clip-rule="evenodd" d="M56.817 63.246s96.527 26.434 171.254 85.393c0 0-70.982-15.365-171.254-85.393Z" fill="url(#e)"/><path fill-rule="evenodd" clip-rule="evenodd" d="M36.958 60.782s123.244 29.772 204.22 102.343c-.009-.043-111.963-39.069-204.22-102.343Z" fill="url(#f)"/><path fill-rule="evenodd" clip-rule="evenodd" d="M35.916 51.651S168.67 91.291 250.323 159.83l-9.164 3.29S171.258 104.967 36.272 60.484l-.356-8.833Z" fill="url(#g)"/><path fill-rule="evenodd" clip-rule="evenodd" d="m77.689 93.457-5.44-12.617s63.623 18.528 133.858 65.31l-14.794 3.977s-44.056-34.095-113.624-56.67Z" fill="url(#h)"/><path style="mix-blend-mode:screen" fill-rule="evenodd" clip-rule="evenodd" d="M36.958 60.782S158.445 99.391 240.97 163.246c-.019-.006-68.933-61.611-204.012-102.464Z" fill="url(#i)"/><path fill-rule="evenodd" clip-rule="evenodd" d="M36.958 60.782s124.489 41.546 204.012 102.464c-.019-.006-62.637-49.561-204.012-102.464Z" fill="url(#j)"/><path fill-rule="evenodd" clip-rule="evenodd" d="M23.854 32.103s146.681 21.393 249.202 123.714l-22.736 4.023-9.382 3.449-39.844-15.739-9.727 2.57S142.756 135.998 77.75 93.422l-3.78-8.726L36.355 60.6l-.378-8.984-12.123-19.513Z" fill="#8B096B" style="mix-blend-mode:multiply"/><path fill-rule="evenodd" clip-rule="evenodd" d="M77.689 93.457s63.127 19.41 113.617 56.699c0 0-47.372-14.692-113.617-56.699Z" fill="url(#k)"/><path fill-rule="evenodd" clip-rule="evenodd" d="M94.965 100.074s38.463 24.603 78.036 38.302c0 0-32.226-22.611-78.036-38.302Z" fill="#00BDFF"/><path d="M182.843 145.497c-1.898-.644-3.788-1.316-5.679-1.988l.682-1.888c1.887.685 3.779 1.351 5.676 1.997l-.679 1.879Zm-16.025-5.878a923.409 923.409 0 0 1-5.609-2.249l.759-1.867c1.868.759 3.682 1.484 5.554 2.223l-.704 1.893Zm-15.67-6.58a261.551 261.551 0 0 1-5.479-2.504l.846-1.844c1.789.818 3.61 1.634 5.463 2.448l-.83 1.9Zm-15.463-7.166c-1.831-.895-3.661-1.789-5.393-2.667l.913-1.826c1.745.882 3.533 1.768 5.365 2.659l-.885 1.834Zm-15.183-7.744a332.893 332.893 0 0 1-5.288-2.866l.956-1.753c1.697.931 3.459 1.89 5.269 2.862l-.937 1.757Zm-14.91-8.261a384.106 384.106 0 0 1-5.183-3.065l1.028-1.713c1.608.956 3.327 1.972 5.157 3.049l-1.002 1.729Zm-14.562-8.902c-3.24-2.09-5.028-3.335-5.047-3.34l1.143-1.64s1.743 1.223 4.985 3.303l-1.081 1.677Z" fill="url(#l)"/><path fill-rule="evenodd" clip-rule="evenodd" d="M77.689 93.457c66.245 42.007 113.617 56.699 113.617 56.699-50.5-37.291-113.617-56.699-113.617-56.699Zm7.923 3.966s63.674 22.238 97.365 48.772c0 0-49.329-18.591-97.365-48.772Z" fill="url(#m)"/><path fill-rule="evenodd" clip-rule="evenodd" d="M157.111 75.74s-17.724 1.12-8.74 17.432c0 0 18.636-.546 8.74-17.432Z" fill="url(#n)"/><path fill-rule="evenodd" clip-rule="evenodd" d="M149.119 91.809c-2.53-4.581-2.283-7.59-.964-9.576 2.25-3.373 7.621-3.714 7.621-3.714 2.254 3.834 2.567 6.568 1.863 8.502-1.53 4.59-8.52 4.788-8.52 4.788Z" fill="#00BDFF"/><path fill-rule="evenodd" clip-rule="evenodd" d="M157.665 87.038c-2.266 3.358-7.918 3.51-7.918 3.51-2.054-3.656-2.277-6.376-1.595-8.305 2.25-3.373 7.621-3.714 7.621-3.714 2.255 3.834 2.568 6.568 1.892 8.51Z" fill="#fff"/><path fill-rule="evenodd" clip-rule="evenodd" d="M121.756 60.904s-12.82 4.764-4.563 16.76c0 0 13.554-4.454 4.563-16.76Z" fill="url(#o)"/><path fill-rule="evenodd" clip-rule="evenodd" d="M117.596 76.353c-2.326-3.377-2.461-6.001-1.705-7.973 1.294-3.36 5.185-4.822 5.185-4.822 2.046 2.795 2.556 5.064 2.311 6.83-.715 4.292-5.791 5.965-5.791 5.965Z" fill="#00BDFF"/><path fill-rule="evenodd" clip-rule="evenodd" d="M123.342 70.439c-1.31 3.345-5.401 4.702-5.401 4.702-1.88-2.719-2.325-4.96-2.031-6.756 1.294-3.36 5.185-4.822 5.185-4.822 2.022 2.81 2.532 5.078 2.247 6.876Z" fill="#fff"/><path fill-rule="evenodd" clip-rule="evenodd" d="M95.258 50.646s-9.73 6.41-2.94 17.112c0 0 10.301-6.216 2.94-17.112Z" fill="url(#p)"/><path fill-rule="evenodd" clip-rule="evenodd" d="M92.577 66.41c-1.905-3.017-2.1-5.574-1.57-7.668a10 10 0 0 1 3.825-5.425 9.87 9.87 0 0 1 1.987 6.454c-.378 4.309-4.242 6.638-4.242 6.638Z" fill="#00BDFF"/><path fill-rule="evenodd" clip-rule="evenodd" d="M96.806 59.82a9.7 9.7 0 0 1-4.012 5.353 10.09 10.09 0 0 1-1.8-6.383 10 10 0 0 1 3.825-5.425 9.87 9.87 0 0 1 1.987 6.454Z" fill="#fff"/><path fill-rule="evenodd" clip-rule="evenodd" d="M69.71 43.8s-7.112 8.147.452 17.359c0 0 7.631-8.08-.453-17.359Z" fill="url(#q)"/><path fill-rule="evenodd" clip-rule="evenodd" d="M70.158 59.78a10.47 10.47 0 0 1-2.654-7.17 10.66 10.66 0 0 1 2.307-6.06 10.6 10.6 0 0 1 2.792 5.925 10 10 0 0 1-2.445 7.306Z" fill="#00BDFF"/><path fill-rule="evenodd" clip-rule="evenodd" d="M72.595 52.504a10.23 10.23 0 0 1-2.474 6.025 11 11 0 0 1-2.627-5.88 10.66 10.66 0 0 1 2.306-6.06 10.6 10.6 0 0 1 2.795 5.915Z" fill="#fff"/><path fill-rule="evenodd" clip-rule="evenodd" d="M47.563 37.7a15 15 0 0 0 2.156 17.225s5.685-8.622-2.156-17.224Z" fill="url(#r)"/><path fill-rule="evenodd" clip-rule="evenodd" d="M49.577 53.562a11.37 11.37 0 0 1-1.657-13.136 11.45 11.45 0 0 1 2.978 5.694 10.9 10.9 0 0 1-1.321 7.442Z" fill="#00BDFF"/><path fill-rule="evenodd" clip-rule="evenodd" d="M50.905 46.133a10.929 10.929 0 0 1-1.494 6.194 12.001 12.001 0 0 1-2.828-5.675 11.58 11.58 0 0 1 1.344-6.214 11.45 11.45 0 0 1 2.978 5.695Z" fill="#fff"/><path fill-rule="evenodd" clip-rule="evenodd" d="M30.977 34.343a19.83 19.83 0 0 0 5.755 16.388 18.609 18.609 0 0 0-5.755-16.388Z" fill="url(#s)"/><path fill-rule="evenodd" clip-rule="evenodd" d="M36.285 49.462a15.138 15.138 0 0 1-3.82-6.335 14.48 14.48 0 0 1-.5-6.21 14.63 14.63 0 0 1 3.518 5.145 13.81 13.81 0 0 1 .802 7.4Z" fill="#00BDFF"/><path fill-rule="evenodd" clip-rule="evenodd" d="M35.424 42.088a13.48 13.48 0 0 1 .423 6.15 15.11 15.11 0 0 1-3.404-5.147 14.48 14.48 0 0 1-.478-6.174 14.63 14.63 0 0 1 3.459 5.171Z" fill="#fff"/><path fill-rule="evenodd" clip-rule="evenodd" d="M192.331 96.254s3.877 13.121-10.68 13.703c0 0-4.544-13.527 10.68-13.703Z" fill="url(#t)"/><path fill-rule="evenodd" clip-rule="evenodd" d="M182.477 108.843c4.09-.157 6.274-1.622 7.395-3.412 1.912-3.039.75-7.046.75-7.046-3.46.046-5.586.987-6.831 2.31-3.057 3.063-1.314 8.148-1.314 8.148Z" fill="#00BDFF"/><path fill-rule="evenodd" clip-rule="evenodd" d="M183.75 100.695c-1.859 3.073-.511 7.161-.511 7.161 3.301-.15 5.36-1.11 6.624-2.428 1.911-3.039.749-7.046.749-7.046-3.465.065-5.601 1.005-6.862 2.313Z" fill="#fff"/><path fill-rule="evenodd" clip-rule="evenodd" d="M216.429 111.335s.692 11.636-11.95 12.607c0 0-1.193-11.967 11.95-12.607Z" fill="url(#u)"/><path fill-rule="evenodd" clip-rule="evenodd" d="M205.403 122.927c3.554-.28 5.724-1.656 7.09-3.277a10.12 10.12 0 0 0 2.054-6.314 9.936 9.936 0 0 0-6.364 2.27c-3.241 2.859-2.78 7.321-2.78 7.321Z" fill="#00BDFF"/><path fill-rule="evenodd" clip-rule="evenodd" d="M208.147 115.586a9.721 9.721 0 0 0-1.886 6.421 9.998 9.998 0 0 0 6.196-2.377 10.12 10.12 0 0 0 2.054-6.314 9.934 9.934 0 0 0-6.364 2.27Z" fill="#fff"/><path fill-rule="evenodd" clip-rule="evenodd" d="M237.211 127.702s-2.273 10.572-14.177 10.022c0 0 1.897-10.942 14.177-10.022Z" fill="url(#v)"/><path fill-rule="evenodd" clip-rule="evenodd" d="M224.142 136.913a10.4 10.4 0 0 0 7.323-2.179 10.667 10.667 0 0 0 3.532-5.452 10.63 10.63 0 0 0-6.456 1.376 10.003 10.003 0 0 0-4.399 6.255Z" fill="#00BDFF"/><path fill-rule="evenodd" clip-rule="evenodd" d="M228.505 130.597a10.181 10.181 0 0 0-3.339 5.586 10.807 10.807 0 0 0 6.292-1.42 10.671 10.671 0 0 0 3.531-5.452 10.632 10.632 0 0 0-6.484 1.286Z" fill="#fff"/><path fill-rule="evenodd" clip-rule="evenodd" d="M255.356 141.778a14.993 14.993 0 0 1-15.099 8.595s3.519-9.731 15.099-8.595Z" fill="url(#w)"/><path fill-rule="evenodd" clip-rule="evenodd" d="M241.451 149.667a11.384 11.384 0 0 0 11.496-6.547 11.604 11.604 0 0 0-6.351 1.021 10.943 10.943 0 0 0-5.145 5.526Z" fill="#00BDFF"/><path fill-rule="evenodd" clip-rule="evenodd" d="M246.602 144.122a10.927 10.927 0 0 0-4.059 4.906 11.893 11.893 0 0 0 6.236-1.134 11.518 11.518 0 0 0 4.173-4.794 11.61 11.61 0 0 0-6.35 1.022Z" fill="#fff"/><path fill-rule="evenodd" clip-rule="evenodd" d="M267.948 153.051a19.822 19.822 0 0 1-16.563 5.21 18.612 18.612 0 0 1 16.563-5.21Z" fill="url(#x)"/><path fill-rule="evenodd" clip-rule="evenodd" d="M252.709 157.84c2.478.36 5.006.106 7.362-.74a14.44 14.44 0 0 0 5.268-3.237 14.804 14.804 0 0 0-6.28.254 13.755 13.755 0 0 0-6.35 3.723Z" fill="#00BDFF"/><path fill-rule="evenodd" clip-rule="evenodd" d="M259.107 154.129a13.387 13.387 0 0 0-5.198 3.328c2.057.305 4.155.183 6.162-.357a14.44 14.44 0 0 0 5.268-3.237 14.807 14.807 0 0 0-6.232.266Z" fill="#fff"/><path style="mix-blend-mode:multiply" opacity=".8" fill-rule="evenodd" clip-rule="evenodd" d="M75.067 87.402s70.284 16.462 123.266 60.868l7.797-2.052S151.069 106.866 72.25 80.84l2.817 6.562Z" fill="url(#y)"/><path style="mix-blend-mode:screen" fill-rule="evenodd" clip-rule="evenodd" d="M23.854 32.103s140.568 5.686 249.202 123.714c.013-.048-77.988-96.627-249.202-123.714Z" fill="url(#z)"/><path style="mix-blend-mode:multiply" opacity=".8" fill-rule="evenodd" clip-rule="evenodd" d="M36.093 56.285s110.431 21.68 209.967 105.043l4.283-1.534S177.547 94.633 35.936 51.615l.157 4.67Z" fill="url(#A)"/><path style="mix-blend-mode:screen" opacity=".5" fill-rule="evenodd" clip-rule="evenodd" d="M136.97 100.718s4.403-6.502 9.533-3.937c5.131 2.566 2.031 9.613 2.031 9.613l-11.564-5.676Z" fill="url(#B)"/><path style="mix-blend-mode:screen" opacity=".5" fill-rule="evenodd" clip-rule="evenodd" d="M107.479 87.37s4.119-6.64 7.696-4.843c3.577 1.797.372 8.775.372 8.775l-8.068-3.932Z" fill="url(#C)"/><path style="mix-blend-mode:screen" opacity=".5" fill-rule="evenodd" clip-rule="evenodd" d="M84.406 78.279s3.571-6.953 7.282-5.462c3.71 1.492 1.078 8.727 1.078 8.727l-8.36-3.265Z" fill="url(#D)"/><path style="mix-blend-mode:screen" opacity=".5" fill-rule="evenodd" clip-rule="evenodd" d="M63.678 69.826s3.308-7.054 5.542-6.155c2.233.898-.49 8.088-.49 8.088l-5.052-1.933Z" fill="url(#E)"/><path style="mix-blend-mode:screen" opacity=".5" fill-rule="evenodd" clip-rule="evenodd" d="M45.328 63.273s2.42-7.406 4.748-6.782c2.327.624.504 8.086.504 8.086l-5.252-1.304Z" fill="url(#F)"/><path style="mix-blend-mode:screen" opacity=".5" fill-rule="evenodd" clip-rule="evenodd" d="M36.293 60.635s.56-7.77 1.58-7.714c1.02.056.715 7.729.715 7.729l-2.295-.015Z" fill="url(#G)"/><path style="mix-blend-mode:screen" opacity=".5" fill-rule="evenodd" clip-rule="evenodd" d="M180.106 122.639s2.851-7.28-.68-9.054c-3.531-1.775-7.251 4.962-7.251 4.962l7.931 4.092Z" fill="url(#H)"/><path style="mix-blend-mode:screen" opacity=".5" fill-rule="evenodd" clip-rule="evenodd" d="M202.138 136.349s3.427-7.033.018-9.106c-3.41-2.073-7.639 4.362-7.639 4.362l7.621 4.744Z" fill="url(#I)"/><path style="mix-blend-mode:screen" opacity=".5" fill-rule="evenodd" clip-rule="evenodd" d="M220.398 148.064s3.665-6.876 1.609-8.13c-2.055-1.255-6.186 5.237-6.186 5.237l4.577 2.893Z" fill="url(#J)"/><path style="mix-blend-mode:screen" opacity=".5" fill-rule="evenodd" clip-rule="evenodd" d="M236.174 158.927s4.493-6.374 2.595-7.866c-1.899-1.493-6.769 4.398-6.769 4.398l4.174 3.468Z" fill="url(#K)"/><path style="mix-blend-mode:screen" opacity=".5" fill-rule="evenodd" clip-rule="evenodd" d="M240.951 163.241s6.724-3.924 6.227-4.813c-.497-.888-7.25 2.758-7.25 2.758l1.023 2.055Z" fill="url(#L)"/><path fill-rule="evenodd" clip-rule="evenodd" d="M229.353 116.537s8.519 1.745 10.684 8.423l-10.684-8.423Z" fill="#32007C"/><path fill-rule="evenodd" clip-rule="evenodd" d="M23.854 32.103s147.702 18.55 249.202 123.714c.013-.048-83.184-93.62-249.202-123.714Z" fill="url(#M)"/><path fill-rule="evenodd" clip-rule="evenodd" d="M232.678 119.157s4.027.427 4.862 3.84c0 0-3.168 0-4.862-3.84Z" fill="#FF7E00"/><path fill-rule="evenodd" clip-rule="evenodd" d="M80.38 44.465s8.564-1.474 13.009 3.961L80.38 44.465Z" fill="#32007C"/><path fill-rule="evenodd" clip-rule="evenodd" d="M84.479 45.708s3.93-1.07 5.924 1.805c-.048-.013-3.01 1.15-5.924-1.805Z" fill="#FF7E00"/><g style="mix-blend-mode:multiply" opacity=".5" fill="#8B096B"><path d="m161.548 114.084-.448-.223 4.543-9.032 18.438-15.765.889-1.77.686.028a38.35 38.35 0 0 0-7.591-19.271l.403-.306a38.697 38.697 0 0 1 7.705 19.81l.013.261-.905-.025-.822 1.602-18.448 15.762-4.463 8.929Z"/><path d="M253.92 126.081c-27.848-26.2-70.222-48.725-70.647-48.953l.23-.435c.428.218 42.855 22.778 70.735 48.976l-.318.412ZM99.586 74.095l2.886-21.589.815-.568-.702-.354.549-.194c.195-.072 19.438-6.863 31.83-4.04 1.296-1.785 15.004-19.563 36.985-9.408l-.214.45c-22.625-10.452-36.324 9.182-36.461 9.383l-.089.142-.174-.047c-11.083-2.607-27.878 2.697-31.154 3.796l.402.201-1.287.939-2.846 21.361-.54-.072Z"/></g><path d="m119.2 35.476 3.999.222-.043.351-3.956-.573Z" fill="url(#N)"/><path d="m130.162 36.601 3.949.717-.238 1.044-3.875-.956.164-.805Z" fill="url(#O)"/><path d="m140.96 38.883 3.875 1.07-.457 1.472-3.8-1.194.382-1.348Z" fill="url(#P)"/><path d="m151.535 42.07 3.788 1.356-.654 1.709-3.722-1.411.588-1.655Z" fill="url(#Q)"/><path d="m161.863 46.027 3.677 1.617-.821 1.788-3.624-1.623.768-1.782Z" fill="url(#R)"/><path d="m171.88 50.678 3.571 1.858-.919 1.73-3.54-1.817.888-1.77Z" fill="url(#S)"/><path d="m181.579 55.98 3.436 2.09-.94 1.539-3.443-1.99.947-1.64Z" fill="url(#T)"/><path d="m190.908 61.885 3.297 2.302-.838 1.235-3.353-2.172.894-1.365Z" fill="url(#U)"/><path d="m199.842 68.379 3.143 2.488-.603.78-3.243-2.308.703-.96Z" fill="url(#V)"/><path d="m208.333 75.405 2.977 2.682-.139.17-3.163-2.452.325-.4Z" fill="url(#W)"/><path fill-rule="evenodd" clip-rule="evenodd" d="M116.843 36.273s53.618 11.861 98.087 49.13l.921 3.633S178.673 56.432 113.257 37.64l3.586-1.368Z" fill="url(#X)"/><path style="mix-blend-mode:screen" d="M91.726 60.187c7.574-2.48 11.705-10.628 9.226-18.203-2.478-7.574-10.628-11.705-18.202-9.226-7.574 2.478-11.705 10.628-9.227 18.202 2.479 7.574 10.628 11.705 18.203 9.227Z" fill="url(#Y)"/><path style="mix-blend-mode:screen" d="M238.526 134.345c7.587-2.441 11.757-10.57 9.316-18.156-2.442-7.587-10.571-11.757-18.157-9.316-7.586 2.442-11.757 10.571-9.315 18.157 2.441 7.586 10.57 11.757 18.156 9.315Z" fill="url(#Z)"/><path style="mix-blend-mode:screen" fill-rule="evenodd" clip-rule="evenodd" d="M199.797 108.804a14.428 14.428 0 0 1-26.606-1.863 14.426 14.426 0 0 1 11.897-18.885 14.43 14.43 0 0 1 8.262 1.421 14.418 14.418 0 0 1 6.447 19.327Z" fill="url(#aa)"/><path style="mix-blend-mode:screen" d="M162.979 104.063c10.029-5.714 13.528-18.476 7.814-28.505-5.714-10.03-18.476-13.528-28.505-7.815-10.03 5.714-13.528 18.476-7.815 28.506 5.714 10.029 18.477 13.528 28.506 7.814Z" fill="url(#ab)"/><path style="mix-blend-mode:screen" d="M212.218 131.593c7.912-.959 13.548-8.149 12.589-16.061-.958-7.912-8.149-13.548-16.061-12.589-7.911.959-13.548 8.15-12.589 16.061.959 7.912 8.15 13.548 16.061 12.589Z" fill="url(#ac)"/><path style="mix-blend-mode:screen" fill-rule="evenodd" clip-rule="evenodd" d="M268.539 160.622a9.528 9.528 0 0 1-9.208 5.228 9.523 9.523 0 0 1-8.355-6.505 9.526 9.526 0 0 1 2.812-10.208 9.53 9.53 0 0 1 10.507-1.31 9.531 9.531 0 0 1 4.776 5.517 9.533 9.533 0 0 1-.532 7.278Z" fill="url(#ad)"/><path style="mix-blend-mode:screen" fill-rule="evenodd" clip-rule="evenodd" d="M42.031 48.61a9.52 9.52 0 1 1-17.025-8.526 9.52 9.52 0 0 1 17.025 8.526Z" fill="url(#ae)"/><path style="mix-blend-mode:screen" d="M131.474 78.266c4.313-6.702 2.376-15.631-4.326-19.944-6.702-4.312-15.631-2.375-19.943 4.327-4.313 6.702-2.376 15.63 4.326 19.943 6.702 4.313 15.631 2.376 19.943-4.326Z" fill="url(#af)"/><path style="mix-blend-mode:screen" fill-rule="evenodd" clip-rule="evenodd" d="M106.564 67.258a14.435 14.435 0 0 1-13.927 7.965 14.43 14.43 0 1 1 7.479-27.292 14.42 14.42 0 0 1 6.448 19.327Z" fill="url(#ag)"/><path style="mix-blend-mode:screen" d="M197.374 152.82c5.17-10.32-17.71-32.249-51.105-48.979-33.394-16.73-64.657-21.926-69.828-11.606-5.17 10.32 17.71 32.248 51.105 48.978 33.395 16.73 64.658 21.927 69.828 11.607Z" fill="url(#ah)"/><path d="m76.016 89.075 3.854 1.033-.036.135-3.818-1.168Z" fill="url(#ai)"/><path d="m86.585 92.094 3.822 1.19-.14.407-3.787-1.284.105-.313Z" fill="url(#aj)"/><path d="m97.056 95.479 3.779 1.313-.224.602-3.754-1.368.199-.547Z" fill="url(#ak)"/><path d="m107.412 99.175 3.753 1.409-.297.76-3.718-1.463.262-.706Z" fill="url(#al)"/><path d="m117.681 103.159 3.693 1.517-.344.819-3.678-1.534.329-.802Z" fill="url(#am)"/><path d="m127.824 107.419 3.667 1.614-.398.867-3.643-1.629.374-.852Z" fill="url(#an)"/><path d="m137.853 111.949 3.617 1.725-.435.888-3.597-1.72.415-.893Z" fill="url(#ao)"/><path d="m147.743 116.804 3.557 1.833-.429.828-3.562-1.814.434-.847Z" fill="url(#ap)"/><path d="m157.471 121.958 3.506 1.943-.432.765-3.499-1.932.425-.776Z" fill="url(#aq)"/><path d="m167.031 127.428 3.416 2.086-.389.641-3.444-2.021.417-.706Z" fill="url(#ar)"/><path d="m176.354 133.281 3.339 2.22-.314.475-3.367-2.155.342-.54Z" fill="url(#as)"/><path d="m185.442 139.505 3.225 2.376-.193.258-3.283-2.277.251-.357Z" fill="url(#at)"/><path d="m194.209 146.161 2.955 2.417-3.037-2.304.082-.113Z" fill="url(#au)"/><path fill-rule="evenodd" clip-rule="evenodd" d="m144.487 124.886-22.461-10.988-84.522 52.983.239.117c-.246.102-.415.243-.505.427-1.616 3.303 23.273 18.797 55.59 34.607 32.317 15.81 59.825 25.949 61.441 22.646.09-.184.098-.404.028-.661l.238.117-10.048-99.248Z" fill="url(#av)"/><path d="M83.75 158.797c5.37-1.058 9.756-2.188 13.156-3.388 3.431-1.186 5.591-2.693 6.48-4.522.729-1.499.569-2.503-.481-3.014-.599-.291-1.165-.233-1.697.176-.488.393-1.081 1.309-1.781 2.748l-9.668-4.701c1.446-2.744 3.16-4.746 5.144-6.005 2.014-1.245 4.124-1.85 6.331-1.815 2.206.035 4.389.578 6.547 1.627 3.778 1.837 6.084 4.107 6.919 6.811.865 2.719.641 5.427-.671 8.125-1.384 2.848-3.633 5.072-6.746 6.671-3.113 1.6-6.553 2.615-10.32 3.044l10.297 5.007-3.913 8.049-23.248-11.304 3.651-7.509Z" fill="url(#aw)"/><path d="M113.466 162.905c-2.39 4.916-3.191 9.382-2.401 13.399.805 3.986 3.485 7.087 8.042 9.303 4.556 2.215 8.651 2.408 12.283.579 3.647-1.859 6.665-5.247 9.056-10.163 2.376-4.886 3.161-9.323 2.357-13.309-.79-4.017-3.463-7.133-8.02-9.348-4.556-2.216-8.651-2.409-12.283-.58-3.632 1.83-6.643 5.202-9.034 10.119Zm17.132 8.33c-1.035 2.128-2.076 3.66-3.124 4.596-1.048.936-2.307 1.047-3.776.333-1.499-.729-2.204-1.795-2.115-3.197.089-1.402.651-3.168 1.686-5.296s2.069-3.646 3.102-4.552c1.048-.936 2.322-1.039 3.821-.31 1.469.714 2.159 1.772 2.07 3.175-.074 1.372-.629 3.122-1.664 5.251Z" fill="url(#ax)"/><path d="M84.75 156.797c5.37-1.058 9.756-2.187 13.157-3.388 3.43-1.186 5.59-2.693 6.479-4.522.729-1.499.569-2.503-.48-3.013-.6-.292-1.166-.233-1.698.175-.487.393-1.081 1.309-1.781 2.748l-9.667-4.701c1.445-2.744 3.16-4.746 5.143-6.005 2.014-1.245 4.124-1.85 6.331-1.814 2.207.035 4.389.577 6.548 1.626 3.777 1.837 6.083 4.107 6.918 6.811.865 2.719.642 5.427-.67 8.125-1.385 2.848-3.634 5.072-6.747 6.672-3.113 1.6-6.553 2.614-10.32 3.044l10.298 5.006-3.914 8.049L81.1 164.307l3.65-7.51Z" fill="url(#ay)"/><path d="M114.466 160.905c-2.39 4.916-3.19 9.383-2.4 13.399.804 3.986 3.485 7.087 8.041 9.303 4.557 2.215 8.651 2.409 12.283.579 3.647-1.859 6.666-5.247 9.056-10.163 2.376-4.886 3.162-9.323 2.357-13.309-.79-4.016-3.463-7.132-8.019-9.348-4.557-2.215-8.651-2.409-12.284-.579-3.632 1.829-6.643 5.202-9.034 10.118Zm17.133 8.33c-1.035 2.128-2.077 3.661-3.125 4.596-1.048.936-2.306 1.047-3.775.333-1.499-.729-2.204-1.794-2.115-3.197.088-1.402.65-3.167 1.685-5.296 1.035-2.128 2.069-3.645 3.103-4.551 1.048-.936 2.321-1.04 3.82-.311 1.469.714 2.159 1.772 2.07 3.175-.074 1.372-.628 3.123-1.663 5.251Z" fill="url(#az)"/><g opacity=".25"><path d="M98.06 182.203c1.295.629 2.107 1.506 2.436 2.629.34 1.13.187 2.36-.46 3.691l-2.86 5.881-3.975-1.932 2.615-5.378c.21-.432.241-.832.094-1.2-.13-.374-.41-.666-.842-.876-.444-.216-.852-.259-1.227-.13-.368.118-.657.392-.867.824l-2.615 5.378-3.975-1.933 2.615-5.378c.21-.432.241-.832.094-1.2-.13-.374-.41-.666-.842-.876-.443-.216-.852-.259-1.227-.129-.368.117-.657.392-.867.823l-2.615 5.378-3.993-1.941 4.932-10.145 3.994 1.942-.665 1.367a3.54 3.54 0 0 1 1.676-.475c.632-.019 1.284.135 1.955.461.732.356 1.3.833 1.707 1.431.412.585.646 1.248.702 1.986a4.98 4.98 0 0 1 2.05-.604 4.023 4.023 0 0 1 2.16.406Z" fill="url(#aA)"/><path d="M104.897 182.191c.28-.575.72-.947 1.321-1.115.606-.179 1.257-.1 1.952.238.684.332 1.142.792 1.375 1.38.239.576.219 1.152-.061 1.727a1.997 1.997 0 0 1-1.312 1.097c-.6.168-1.242.085-1.926-.247-.695-.338-1.163-.795-1.401-1.371a1.995 1.995 0 0 1 .052-1.709Zm2.934 4.851-4.932 10.145-3.993-1.942 4.932-10.144 3.993 1.941Z" fill="url(#aB)"/><path d="M116.774 191.302c1.163.565 1.879 1.395 2.148 2.49.28 1.1.097 2.315-.55 3.646l-2.86 5.882-3.975-1.933 2.615-5.378c.233-.48.285-.921.155-1.325-.112-.411-.384-.721-.815-.931-.444-.215-.862-.241-1.253-.075-.386.153-.696.47-.929.949l-2.615 5.378-3.993-1.941 4.933-10.145 3.993 1.942-.753 1.547a4.04 4.04 0 0 1 1.81-.566c.673-.043 1.37.11 2.089.46Z" fill="url(#aC)"/></g><path fill-rule="evenodd" clip-rule="evenodd" d="m144.487 124.886-22.461-10.988-84.522 52.983.239.117c-.246.102-.415.243-.505.427-1.616 3.303 23.273 18.797 55.59 34.607 32.317 15.81 59.825 25.949 61.441 22.646.09-.184.098-.404.028-.661l.238.117-10.048-99.248Z" fill="url(#aD)"/><defs><radialGradient id="b" cx="0" cy="0" r="1" gradientUnits="userSpaceOnUse" gradientTransform="matrix(88.34766 44.11592 -67.99048 136.15945 156.455 78.373)"><stop stop-color="#A0A9FF"/><stop offset=".98" stop-color="#554AFE"/></radialGradient><radialGradient id="c" cx="0" cy="0" r="1" gradientUnits="userSpaceOnUse" gradientTransform="matrix(134.82598 67.32344 -16.50112 33.04614 191.469 -51.19)"><stop offset=".79"/><stop offset=".81" stop-color="#220B30"/><stop offset=".85" stop-color="#4F196E"/><stop offset=".87" stop-color="#7325A2"/><stop offset=".9" stop-color="#902FCA"/><stop offset=".93" stop-color="#A535E7"/><stop offset=".95" stop-color="#B23AF9"/><stop offset=".96" stop-color="#B63BFF"/></radialGradient><radialGradient id="d" cx="0" cy="0" r="1" gradientUnits="userSpaceOnUse" gradientTransform="rotate(26.535 -133.355 360.193) scale(99.0898 152.716)"><stop stop-color="#4342FF"/><stop offset=".04" stop-color="#4341F9"/><stop offset=".98" stop-color="#39207D"/></radialGradient><radialGradient id="f" cx="0" cy="0" r="1" gradientUnits="userSpaceOnUse" gradientTransform="rotate(26.61 -160.91 351.324) scale(81.05)"><stop stop-color="#4A2FA5"/><stop offset=".98" stop-color="#360972"/></radialGradient><radialGradient id="g" cx="0" cy="0" r="1" gradientUnits="userSpaceOnUse" gradientTransform="rotate(26.61 -148.38 356.208) scale(85.14)"><stop stop-color="#5C6BFF"/><stop offset=".98" stop-color="#4539FE"/></radialGradient><radialGradient id="h" cx="0" cy="0" r="1" gradientUnits="userSpaceOnUse" gradientTransform="rotate(26.61 -175.338 349.744) scale(52.91)"><stop stop-color="#909AFF"/><stop offset=".98" stop-color="#554AFE"/></radialGradient><radialGradient id="i" cx="0" cy="0" r="1" gradientUnits="userSpaceOnUse" gradientTransform="rotate(26.61 -156.208 352.301) scale(80.8)"><stop offset=".01" stop-color="#2F98D6"/><stop offset=".19" stop-color="#226F9C"/><stop offset=".39" stop-color="#164865"/><stop offset=".58" stop-color="#0D2939"/><stop offset=".75" stop-color="#06121A"/><stop offset=".89" stop-color="#020507"/><stop offset=".99"/></radialGradient><radialGradient id="j" cx="0" cy="0" r="1" gradientUnits="userSpaceOnUse" gradientTransform="rotate(26.61 -158.745 351.703) scale(80.76)"><stop stop-color="#5C6BFF"/><stop offset=".98" stop-color="#4539FE"/></radialGradient><radialGradient id="y" cx="0" cy="0" r="1" gradientUnits="userSpaceOnUse" gradientTransform="rotate(26.61 -170.857 350.803) scale(52.78)"><stop stop-color="#fff"/><stop offset=".99" stop-color="#A411A4"/></radialGradient><radialGradient id="z" cx="0" cy="0" r="1" gradientUnits="userSpaceOnUse" gradientTransform="rotate(26.61 -98.016 366.979) scale(98.79)"><stop offset=".01" stop-color="#2F98D6"/><stop offset=".19" stop-color="#226F9C"/><stop offset=".39" stop-color="#164865"/><stop offset=".58" stop-color="#0D2939"/><stop offset=".75" stop-color="#06121A"/><stop offset=".89" stop-color="#020507"/><stop offset=".99"/></radialGradient><radialGradient id="A" cx="0" cy="0" r="1" gradientUnits="userSpaceOnUse" gradientTransform="rotate(26.61 -144.046 357.233) scale(85.07)"><stop stop-color="#fff"/><stop offset=".99" stop-color="#A411A4"/></radialGradient><radialGradient id="B" cx="0" cy="0" r="1" gradientUnits="userSpaceOnUse" gradientTransform="rotate(26.61 -139.505 355.404) scale(5.32)"><stop stop-color="#0084FF"/><stop offset=".28" stop-color="#0057A8"/><stop offset=".54" stop-color="#003260"/><stop offset=".75" stop-color="#00172C"/><stop offset=".91" stop-color="#00060C"/><stop offset="1"/></radialGradient><radialGradient id="C" cx="0" cy="0" r="1" gradientUnits="userSpaceOnUse" gradientTransform="matrix(3.30156 1.65572 -2.38534 4.75644 111.182 85.238)"><stop stop-color="#0084FF"/><stop offset=".28" stop-color="#0057A8"/><stop offset=".54" stop-color="#003260"/><stop offset=".75" stop-color="#00172C"/><stop offset=".91" stop-color="#00060C"/><stop offset="1"/></radialGradient><radialGradient id="D" cx="0" cy="0" r="1" gradientUnits="userSpaceOnUse" gradientTransform="matrix(3.43558 1.36117 -1.95415 4.93226 89.943 71.165)"><stop stop-color="#0084FF"/><stop offset=".28" stop-color="#0057A8"/><stop offset=".54" stop-color="#003260"/><stop offset=".75" stop-color="#00172C"/><stop offset=".91" stop-color="#00060C"/><stop offset="1"/></radialGradient><radialGradient id="E" cx="0" cy="0" r="1" gradientUnits="userSpaceOnUse" gradientTransform="matrix(2.08941 .83524 -1.96929 4.92631 72.33 66.547)"><stop stop-color="#0084FF"/><stop offset=".28" stop-color="#0057A8"/><stop offset=".54" stop-color="#003260"/><stop offset=".75" stop-color="#00172C"/><stop offset=".91" stop-color="#00060C"/><stop offset="1"/></radialGradient><radialGradient id="F" cx="0" cy="0" r="1" gradientUnits="userSpaceOnUse" gradientTransform="rotate(15 -207.601 213.523) scale(2.23441 5.32)"><stop stop-color="#0084FF"/><stop offset=".28" stop-color="#0057A8"/><stop offset=".54" stop-color="#003260"/><stop offset=".75" stop-color="#00172C"/><stop offset=".91" stop-color="#00060C"/><stop offset="1"/></radialGradient><radialGradient id="G" cx="0" cy="0" r="1" gradientUnits="userSpaceOnUse" gradientTransform="matrix(.92866 .02853 -.16368 5.32838 24.269 43.415)"><stop stop-color="#0084FF"/><stop offset=".28" stop-color="#0057A8"/><stop offset=".54" stop-color="#003260"/><stop offset=".75" stop-color="#00172C"/><stop offset=".91" stop-color="#00060C"/><stop offset="1"/></radialGradient><radialGradient id="H" cx="0" cy="0" r="1" gradientUnits="userSpaceOnUse" gradientTransform="rotate(-153.366 103.541 37.636) scale(3.69349 5.32106)"><stop stop-color="#0084FF"/><stop offset=".28" stop-color="#0057A8"/><stop offset=".54" stop-color="#003260"/><stop offset=".75" stop-color="#00172C"/><stop offset=".91" stop-color="#00060C"/><stop offset="1"/></radialGradient><radialGradient id="I" cx="0" cy="0" r="1" gradientUnits="userSpaceOnUse" gradientTransform="rotate(-149.168 117.903 39.181) scale(3.70494 5.31985)"><stop stop-color="#0084FF"/><stop offset=".28" stop-color="#0057A8"/><stop offset=".54" stop-color="#003260"/><stop offset=".75" stop-color="#00172C"/><stop offset=".91" stop-color="#00060C"/><stop offset="1"/></radialGradient><radialGradient id="J" cx="0" cy="0" r="1" gradientUnits="userSpaceOnUse" gradientTransform="matrix(-1.89027 -1.1674 2.79535 -4.52623 222.72 142.222)"><stop stop-color="#0084FF"/><stop offset=".28" stop-color="#0057A8"/><stop offset=".54" stop-color="#003260"/><stop offset=".75" stop-color="#00172C"/><stop offset=".91" stop-color="#00060C"/><stop offset="1"/></radialGradient><radialGradient id="K" cx="0" cy="0" r="1" gradientUnits="userSpaceOnUse" gradientTransform="matrix(-1.77003 -1.41057 3.32614 -4.17375 232.758 149.8)"><stop stop-color="#0084FF"/><stop offset=".28" stop-color="#0057A8"/><stop offset=".54" stop-color="#003260"/><stop offset=".75" stop-color="#00172C"/><stop offset=".91" stop-color="#00060C"/><stop offset="1"/></radialGradient><radialGradient id="L" cx="0" cy="0" r="1" gradientUnits="userSpaceOnUse" gradientTransform="matrix(-.43766 -.83326 4.69609 -2.46655 258.301 155.059)"><stop stop-color="#0084FF"/><stop offset=".28" stop-color="#0057A8"/><stop offset=".54" stop-color="#003260"/><stop offset=".75" stop-color="#00172C"/><stop offset=".91" stop-color="#00060C"/><stop offset="1"/></radialGradient><radialGradient id="M" cx="0" cy="0" r="1" gradientUnits="userSpaceOnUse" gradientTransform="rotate(26.61 -101.927 366.055) scale(98.67)"><stop stop-color="#A0A9FF"/><stop offset=".98" stop-color="#554AFE"/></radialGradient><radialGradient id="N" cx="0" cy="0" r="1" gradientUnits="userSpaceOnUse" gradientTransform="rotate(15 -132.467 660.603) scale(37.16)"><stop stop-color="#59FFFF"/><stop offset=".98" stop-color="#2495FE"/></radialGradient><radialGradient id="O" cx="0" cy="0" r="1" gradientUnits="userSpaceOnUse" gradientTransform="rotate(15 -132.467 660.603) scale(37.16)"><stop stop-color="#59FFFF"/><stop offset=".98" stop-color="#2495FE"/></radialGradient><radialGradient id="P" cx="0" cy="0" r="1" gradientUnits="userSpaceOnUse" gradientTransform="rotate(15 -132.467 660.603) scale(37.16)"><stop stop-color="#59FFFF"/><stop offset=".98" stop-color="#2495FE"/></radialGradient><radialGradient id="Q" cx="0" cy="0" r="1" gradientUnits="userSpaceOnUse" gradientTransform="rotate(15 -132.467 660.603) scale(37.16)"><stop stop-color="#59FFFF"/><stop offset=".98" stop-color="#2495FE"/></radialGradient><radialGradient id="R" cx="0" cy="0" r="1" gradientUnits="userSpaceOnUse" gradientTransform="rotate(15 -132.467 660.603) scale(37.16)"><stop stop-color="#59FFFF"/><stop offset=".98" stop-color="#2495FE"/></radialGradient><radialGradient id="S" cx="0" cy="0" r="1" gradientUnits="userSpaceOnUse" gradientTransform="rotate(15 -132.467 660.603) scale(37.16)"><stop stop-color="#59FFFF"/><stop offset=".98" stop-color="#2495FE"/></radialGradient><radialGradient id="T" cx="0" cy="0" r="1" gradientUnits="userSpaceOnUse" gradientTransform="rotate(15 -132.467 660.603) scale(37.1601 37.16)"><stop stop-color="#59FFFF"/><stop offset=".98" stop-color="#2495FE"/></radialGradient><radialGradient id="U" cx="0" cy="0" r="1" gradientUnits="userSpaceOnUse" gradientTransform="rotate(15 -132.467 660.603) scale(37.1601 37.16)"><stop stop-color="#59FFFF"/><stop offset=".98" stop-color="#2495FE"/></radialGradient><radialGradient id="V" cx="0" cy="0" r="1" gradientUnits="userSpaceOnUse" gradientTransform="rotate(15 -132.467 660.603) scale(37.16)"><stop stop-color="#59FFFF"/><stop offset=".98" stop-color="#2495FE"/></radialGradient><radialGradient id="W" cx="0" cy="0" r="1" gradientUnits="userSpaceOnUse" gradientTransform="rotate(15 -132.467 660.603) scale(37.16)"><stop stop-color="#59FFFF"/><stop offset=".98" stop-color="#2495FE"/></radialGradient><radialGradient id="X" cx="0" cy="0" r="1" gradientUnits="userSpaceOnUse" gradientTransform="rotate(26.61 -42.416 381.668) scale(40.69)"><stop stop-color="#59FFFF"/><stop offset=".98" stop-color="#2495FE"/></radialGradient><radialGradient id="Y" cx="0" cy="0" r="1" gradientUnits="userSpaceOnUse" gradientTransform="rotate(26.61 -54.623 207.631) scale(14.43)"><stop stop-color="#FF8400"/><stop offset=".08" stop-color="#CF6B00"/><stop offset=".17" stop-color="#9F5200"/><stop offset=".26" stop-color="#743C00"/><stop offset=".36" stop-color="#502A00"/><stop offset=".46" stop-color="#331A00"/><stop offset=".57" stop-color="#1C0F00"/><stop offset=".69" stop-color="#0C0600"/><stop offset=".82" stop-color="#030200"/><stop offset="1"/></radialGradient><radialGradient id="Z" cx="0" cy="0" r="1" gradientUnits="userSpaceOnUse" gradientTransform="rotate(26.6 -137.952 555.427) scale(14.43)"><stop stop-color="#FF8400"/><stop offset=".08" stop-color="#CF6B00"/><stop offset=".17" stop-color="#9F5200"/><stop offset=".26" stop-color="#743C00"/><stop offset=".36" stop-color="#502A00"/><stop offset=".46" stop-color="#331A00"/><stop offset=".57" stop-color="#1C0F00"/><stop offset=".69" stop-color="#0C0600"/><stop offset=".82" stop-color="#030200"/><stop offset="1"/></radialGradient><radialGradient id="aa" cx="0" cy="0" r="1" gradientUnits="userSpaceOnUse" gradientTransform="rotate(26.61 -122.98 446.204) scale(14.43)"><stop stop-color="#0084FF"/><stop offset=".28" stop-color="#0057A8"/><stop offset=".54" stop-color="#003260"/><stop offset=".75" stop-color="#00172C"/><stop offset=".91" stop-color="#00060C"/><stop offset="1"/></radialGradient><radialGradient id="ab" cx="0" cy="0" r="1" gradientUnits="userSpaceOnUse" gradientTransform="rotate(26.323 -100.039 374.788) scale(20.9261)"><stop stop-color="#0084FF"/><stop offset=".28" stop-color="#0057A8"/><stop offset=".54" stop-color="#003260"/><stop offset=".75" stop-color="#00172C"/><stop offset=".91" stop-color="#00060C"/><stop offset="1"/></radialGradient><radialGradient id="ac" cx="0" cy="0" r="1" gradientUnits="userSpaceOnUse" gradientTransform="rotate(26.621 -139.907 495.667) scale(14.3678)"><stop stop-color="#0084FF"/><stop offset=".28" stop-color="#0057A8"/><stop offset=".54" stop-color="#003260"/><stop offset=".75" stop-color="#00172C"/><stop offset=".91" stop-color="#00060C"/><stop offset="1"/></radialGradient><radialGradient id="ad" cx="0" cy="0" r="1" gradientUnits="userSpaceOnUse" gradientTransform="rotate(26.61 -200.643 627.808) scale(9.52)"><stop stop-color="#03F"/><stop offset=".28" stop-color="#0022A8"/><stop offset=".54" stop-color="#001360"/><stop offset=".75" stop-color="#00092C"/><stop offset=".91" stop-color="#00020C"/><stop offset="1"/></radialGradient><radialGradient id="ae" cx="0" cy="0" r="1" gradientUnits="userSpaceOnUse" gradientTransform="rotate(26.61 -77.056 92.932) scale(9.52)"><stop stop-color="#03F"/><stop offset=".28" stop-color="#0022A8"/><stop offset=".54" stop-color="#001360"/><stop offset=".75" stop-color="#00092C"/><stop offset=".91" stop-color="#00020C"/><stop offset="1"/></radialGradient><radialGradient id="af" cx="0" cy="0" r="1" gradientUnits="userSpaceOnUse" gradientTransform="rotate(26.42 -82.716 285.525) scale(14.3736)"><stop stop-color="#0084FF"/><stop offset=".28" stop-color="#0057A8"/><stop offset=".54" stop-color="#003260"/><stop offset=".75" stop-color="#00172C"/><stop offset=".91" stop-color="#00060C"/><stop offset="1"/></radialGradient><radialGradient id="ag" cx="0" cy="0" r="1" gradientUnits="userSpaceOnUse" gradientTransform="rotate(26.61 -81.747 228.322) scale(14.43)"><stop stop-color="#0084FF"/><stop offset=".28" stop-color="#0057A8"/><stop offset=".54" stop-color="#003260"/><stop offset=".75" stop-color="#00172C"/><stop offset=".91" stop-color="#00060C"/><stop offset="1"/></radialGradient><radialGradient id="ah" cx="0" cy="0" r="1" gradientUnits="userSpaceOnUse" gradientTransform="rotate(26.61 -192.126 357.527) scale(67.716 20.9)"><stop stop-color="#0059FF"/><stop offset=".03" stop-color="#0054F2"/><stop offset=".19" stop-color="#003EB3"/><stop offset=".34" stop-color="#002B7C"/><stop offset=".5" stop-color="#001C50"/><stop offset=".64" stop-color="#00102D"/><stop offset=".78" stop-color="#000714"/><stop offset=".9" stop-color="#000205"/><stop offset="1"/></radialGradient><radialGradient id="ai" cx="0" cy="0" r="1" gradientUnits="userSpaceOnUse" gradientTransform="rotate(15 -382.97 578.556) scale(47.8601 47.8624)"><stop stop-color="#59FFFF"/><stop offset=".98" stop-color="#2495FE"/></radialGradient><radialGradient id="aj" cx="0" cy="0" r="1" gradientUnits="userSpaceOnUse" gradientTransform="rotate(15 -382.967 578.556) scale(47.8601 47.8603)"><stop stop-color="#59FFFF"/><stop offset=".98" stop-color="#2495FE"/></radialGradient><radialGradient id="ak" cx="0" cy="0" r="1" gradientUnits="userSpaceOnUse" gradientTransform="rotate(15 -382.967 578.556) scale(47.86)"><stop stop-color="#59FFFF"/><stop offset=".98" stop-color="#2495FE"/></radialGradient><radialGradient id="al" cx="0" cy="0" r="1" gradientUnits="userSpaceOnUse" gradientTransform="rotate(15 -382.967 578.556) scale(47.86 47.8599)"><stop stop-color="#59FFFF"/><stop offset=".98" stop-color="#2495FE"/></radialGradient><radialGradient id="am" cx="0" cy="0" r="1" gradientUnits="userSpaceOnUse" gradientTransform="matrix(46.22921 12.38708 -12.38713 46.2294 136.692 118.833)"><stop stop-color="#59FFFF"/><stop offset=".98" stop-color="#2495FE"/></radialGradient><radialGradient id="an" cx="0" cy="0" r="1" gradientUnits="userSpaceOnUse" gradientTransform="rotate(15 -382.967 578.556) scale(47.86 47.8599)"><stop stop-color="#59FFFF"/><stop offset=".98" stop-color="#2495FE"/></radialGradient><radialGradient id="ao" cx="0" cy="0" r="1" gradientUnits="userSpaceOnUse" gradientTransform="rotate(15 -382.967 578.556) scale(47.86 47.8599)"><stop stop-color="#59FFFF"/><stop offset=".98" stop-color="#2495FE"/></radialGradient><radialGradient id="ap" cx="0" cy="0" r="1" gradientUnits="userSpaceOnUse" gradientTransform="rotate(15 -382.967 578.556) scale(47.86 47.8601)"><stop stop-color="#59FFFF"/><stop offset=".98" stop-color="#2495FE"/></radialGradient><radialGradient id="aq" cx="0" cy="0" r="1" gradientUnits="userSpaceOnUse" gradientTransform="rotate(15 -382.967 578.556) scale(47.8601 47.86)"><stop stop-color="#59FFFF"/><stop offset=".98" stop-color="#2495FE"/></radialGradient><radialGradient id="ar" cx="0" cy="0" r="1" gradientUnits="userSpaceOnUse" gradientTransform="rotate(15 -382.967 578.556) scale(47.86)"><stop stop-color="#59FFFF"/><stop offset=".98" stop-color="#2495FE"/></radialGradient><radialGradient id="as" cx="0" cy="0" r="1" gradientUnits="userSpaceOnUse" gradientTransform="rotate(15 -382.967 578.556) scale(47.8599 47.86)"><stop stop-color="#59FFFF"/><stop offset=".98" stop-color="#2495FE"/></radialGradient><radialGradient id="at" cx="0" cy="0" r="1" gradientUnits="userSpaceOnUse" gradientTransform="rotate(15 -382.967 578.556) scale(47.8601 47.8599)"><stop stop-color="#59FFFF"/><stop offset=".98" stop-color="#2495FE"/></radialGradient><radialGradient id="au" cx="0" cy="0" r="1" gradientUnits="userSpaceOnUse" gradientTransform="rotate(15 -382.967 578.556) scale(47.86)"><stop stop-color="#59FFFF"/><stop offset=".98" stop-color="#2495FE"/></radialGradient><linearGradient id="a" x1="158.656" y1="73.467" x2="175.422" y2="40.002" gradientUnits="userSpaceOnUse"><stop offset=".02" stop-color="#554AFE"/><stop offset="1" stop-color="#909AFF"/></linearGradient><linearGradient id="e" x1="138.818" y1="113.066" x2="146.249" y2="98.233" gradientUnits="userSpaceOnUse"><stop offset=".02" stop-color="#5B00D8"/><stop offset="1" stop-color="#2E95FF"/></linearGradient><linearGradient id="k" x1="132.843" y1="124.993" x2="136.592" y2="117.509" gradientUnits="userSpaceOnUse"><stop stop-color="#2E95FF"/><stop offset=".98" stop-color="#5B00D8"/></linearGradient><linearGradient id="l" x1="132.83" y1="124.572" x2="135.352" y2="119.539" gradientUnits="userSpaceOnUse"><stop stop-color="#59FFFF"/><stop offset=".98" stop-color="#554AFE"/></linearGradient><linearGradient id="m" x1="132.843" y1="124.993" x2="136.592" y2="117.509" gradientUnits="userSpaceOnUse"><stop offset=".02" stop-color="#550972"/><stop offset="1" stop-color="#4A2FA5"/></linearGradient><linearGradient id="n" x1="148.525" y1="93.289" x2="157.259" y2="75.854" gradientUnits="userSpaceOnUse"><stop stop-color="#2E95FF"/><stop offset=".98" stop-color="#5B00D8"/></linearGradient><linearGradient id="o" x1="117.368" y1="77.671" x2="121.937" y2="60.913" gradientUnits="userSpaceOnUse"><stop stop-color="#2E95FF"/><stop offset=".98" stop-color="#5B00D8"/></linearGradient><linearGradient id="p" x1="90.067" y1="68.504" x2="93.017" y2="51.316" gradientUnits="userSpaceOnUse"><stop stop-color="#2E95FF"/><stop offset=".98" stop-color="#5B00D8"/></linearGradient><linearGradient id="q" x1="67.614" y1="56.725" x2="67.074" y2="39.365" gradientUnits="userSpaceOnUse"><stop stop-color="#2E95FF"/><stop offset=".98" stop-color="#5B00D8"/></linearGradient><linearGradient id="r" x1="46.235" y1="60.186" x2="44.111" y2="42.865" gradientUnits="userSpaceOnUse"><stop stop-color="#2E95FF"/><stop offset=".98" stop-color="#5B00D8"/></linearGradient><linearGradient id="s" x1="25.347" y1="45.294" x2="19.438" y2="28.95" gradientUnits="userSpaceOnUse"><stop stop-color="#2E95FF"/><stop offset=".98" stop-color="#5B00D8"/></linearGradient><linearGradient id="t" x1="182.271" y1="109.957" x2="192.951" y2="96.274" gradientUnits="userSpaceOnUse"><stop stop-color="#2E95FF"/><stop offset=".98" stop-color="#5B00D8"/></linearGradient><linearGradient id="u" x1="204.442" y1="129.591" x2="216.372" y2="116.909" gradientUnits="userSpaceOnUse"><stop stop-color="#2E95FF"/><stop offset=".98" stop-color="#5B00D8"/></linearGradient><linearGradient id="v" x1="217.053" y1="137.861" x2="231.207" y2="127.755" gradientUnits="userSpaceOnUse"><stop stop-color="#2E95FF"/><stop offset=".98" stop-color="#5B00D8"/></linearGradient><linearGradient id="w" x1="234.191" y1="149.057" x2="249.189" y2="140.398" gradientUnits="userSpaceOnUse"><stop stop-color="#2E95FF"/><stop offset=".98" stop-color="#5B00D8"/></linearGradient><linearGradient id="x" x1="244.876" y1="161.768" x2="261.381" y2="156.436" gradientUnits="userSpaceOnUse"><stop stop-color="#2E95FF"/><stop offset=".98" stop-color="#5B00D8"/></linearGradient><linearGradient id="av" x1="133.256" y1="119.392" x2="92.828" y2="202.032" gradientUnits="userSpaceOnUse"><stop stop-color="#6DC2FF" stop-opacity=".49"/><stop offset="1" stop-color="#23025E" stop-opacity="0"/></linearGradient><linearGradient id="aw" x1="136" y1="163" x2="106.215" y2="179.338" gradientUnits="userSpaceOnUse"><stop stop-color="#B3F1FF"/><stop offset="1" stop-color="#351749"/></linearGradient><linearGradient id="ax" x1="136" y1="163" x2="106.215" y2="179.338" gradientUnits="userSpaceOnUse"><stop stop-color="#B3F1FF"/><stop offset="1" stop-color="#351749"/></linearGradient><linearGradient id="ay" x1="123.023" y1="144.828" x2="107.215" y2="177.338" gradientUnits="userSpaceOnUse"><stop stop-color="#230086"/><stop offset="1" stop-color="#0D0D0D"/></linearGradient><linearGradient id="az" x1="123.023" y1="144.828" x2="107.215" y2="177.338" gradientUnits="userSpaceOnUse"><stop stop-color="#230086"/><stop offset="1" stop-color="#0D0D0D"/></linearGradient><linearGradient id="aA" x1="116.5" y1="171" x2="97.343" y2="231.849" gradientUnits="userSpaceOnUse"><stop stop-color="#B3F1FF"/><stop offset="1" stop-color="#351749"/></linearGradient><linearGradient id="aB" x1="116.5" y1="171" x2="97.343" y2="231.849" gradientUnits="userSpaceOnUse"><stop stop-color="#B3F1FF"/><stop offset="1" stop-color="#351749"/></linearGradient><linearGradient id="aC" x1="116.5" y1="171" x2="97.343" y2="231.849" gradientUnits="userSpaceOnUse"><stop stop-color="#B3F1FF"/><stop offset="1" stop-color="#351749"/></linearGradient><linearGradient id="aD" x1="140.5" y1="117" x2="119.5" y2="120" gradientUnits="userSpaceOnUse"><stop stop-color="#fff" stop-opacity=".49"/><stop offset="1" stop-color="#00B2FF" stop-opacity="0"/></linearGradient></defs></svg>