<svg width="22" height="22" fill="none" xmlns="http://www.w3.org/2000/svg"><path d="m9.475 12.675-1.975-2c-.217-.2-.483-.3-.8-.3-.317 0-.575.1-.775.3-.233.233-.35.508-.35.825 0 .317.108.567.325.75l2.8 2.8c.183.217.438.325.763.325s.595-.108.812-.325L16 9.325c.2-.2.3-.454.3-.763 0-.308-.108-.579-.325-.812a1.21 1.21 0 0 0-.812-.3c-.309 0-.58.108-.813.325l-4.875 4.9Zm1.55 8.85c-1.483 0-2.875-.267-4.175-.8-1.3-.533-2.42-1.27-3.362-2.213a10.136 10.136 0 0 1-2.213-3.362c-.533-1.3-.8-2.692-.8-4.175 0-1.467.267-2.842.8-4.125s1.27-2.4 2.213-3.35A10.198 10.198 0 0 1 6.85 1.262C8.15.721 9.542.45 11.025.45c1.467 0 2.842.27 4.125.812S17.55 2.55 18.5 3.5c.95.95 1.696 2.067 2.238 3.35.541 1.283.812 2.667.812 4.15 0 1.467-.27 2.85-.812 4.15a10.198 10.198 0 0 1-2.238 3.362c-.95.942-2.067 1.68-3.35 2.213-1.283.533-2.658.8-4.125.8Z" fill="#fff"/></svg>