<svg width="41" height="41" fill="none" xmlns="http://www.w3.org/2000/svg"><path d="M14.82 33.184c-3.331-1.167-6.072-3.21-8.222-6.128-2.15-2.919-3.224-6.243-3.224-9.973a15.95 15.95 0 0 1 .854-5.125l-2.605 1.538-1.452-2.477 7.687-4.485L12.3 14.18l-2.52 1.495-2.306-3.972c-.37.883-.648 1.773-.833 2.67a13.595 13.595 0 0 0-.277 2.754c0 3.189.94 6.015 2.818 8.478 1.88 2.463 4.271 4.135 7.175 5.018l-1.537 2.562Zm12.257-21.78V8.455h4.57A13.586 13.586 0 0 0 26.735 4.4 13.925 13.925 0 0 0 20.5 2.947c-1.88 0-3.63.334-5.253 1.004a13.816 13.816 0 0 0-4.314 2.797L9.44 4.143A18.054 18.054 0 0 1 14.5 1.11C16.364.37 18.35 0 20.457 0c2.449 0 4.762.491 6.94 1.473a16.911 16.911 0 0 1 5.66 4.122V2.477h2.904v8.926h-8.884Zm-1.623 26.308-7.687-4.442 4.484-7.645 2.477 1.452-2.263 3.972c3.473-.456 6.37-2 8.69-4.634 2.321-2.634 3.481-5.73 3.481-9.289 0-.54-.035-1.075-.106-1.602a18.77 18.77 0 0 0-.278-1.558h2.99a14.507 14.507 0 0 1 .342 3.118c0 4.014-1.246 7.566-3.738 10.655-2.49 3.09-5.673 5.075-9.545 5.958l2.648 1.537-1.495 2.477Z" fill="#00E0FF"/></svg>