<svg width="25" height="25" fill="none" xmlns="http://www.w3.org/2000/svg"><path d="m12.552 23.984-.104-3.385-1.146-.026c-2.535-.208-4.67-1.263-6.406-3.164-1.736-1.901-2.604-4.128-2.604-6.68 0-2.69.968-4.995 2.903-6.914C7.131 1.897 9.462.938 12.188.938a9.26 9.26 0 0 1 3.723.755 9.418 9.418 0 0 1 3.021 2.057c.851.868 1.524 1.901 2.019 3.099.494 1.198.742 2.491.742 3.88 0 1.337-.235 2.643-.703 3.92a15.435 15.435 0 0 1-1.901 3.606 18.413 18.413 0 0 1-2.865 3.164 19.989 19.989 0 0 1-3.672 2.565Zm-.364-7.005c.33 0 .616-.121.859-.364s.364-.53.364-.86c0-.312-.121-.594-.364-.846a1.156 1.156 0 0 0-.86-.378c-.33 0-.62.126-.872.378s-.377.534-.377.846c0 .33.125.617.377.86s.543.364.873.364Zm-.964-3.698h1.77c0-.434.079-.811.235-1.133.157-.32.443-.681.86-1.08.468-.486.807-.925 1.015-1.315.209-.391.313-.838.313-1.342 0-.885-.265-1.597-.794-2.135-.53-.538-1.298-.807-2.305-.807a3.61 3.61 0 0 0-2.149.677c-.633.451-1.098 1.068-1.393 1.849l1.64.65c.192-.468.448-.815.769-1.04a1.72 1.72 0 0 1 1.003-.34c.434 0 .78.096 1.041.287.26.191.39.478.39.86 0 .295-.095.598-.286.91-.19.313-.503.704-.937 1.173-.504.486-.825.907-.964 1.263-.139.356-.208.864-.208 1.523Z" fill="#00E0FF" opacity=".5"/></svg>