<svg width="25" height="25" fill="none" xmlns="http://www.w3.org/2000/svg"><path d="M.573 21.615v-3.021c0-.73.187-1.385.56-1.966.373-.582.89-1.02 1.55-1.316 1.301-.555 2.478-.963 3.528-1.223a13.44 13.44 0 0 1 3.242-.391c1.146 0 2.24.13 3.282.39 1.041.26 2.213.669 3.515 1.225.66.277 1.18.703 1.563 1.275.382.573.573 1.242.573 2.006v3.02H.573Zm19.662 0v-2.97c0-1.128-.283-2.065-.847-2.812-.564-.746-1.306-1.44-2.227-2.083 1.042.174 2.023.386 2.943.638.92.252 1.693.525 2.318.82.608.33 1.098.795 1.471 1.394.374.599.56 1.306.56 2.122v2.89h-4.218Zm-10.756-9.48c-1.25 0-2.252-.377-3.008-1.132-.755-.756-1.132-1.75-1.132-2.982 0-1.25.382-2.257 1.145-3.021.764-.764 1.763-1.146 2.995-1.146 1.216 0 2.214.382 2.995 1.146.781.764 1.172 1.762 1.172 2.995 0 1.25-.39 2.252-1.172 3.008-.781.755-1.78 1.132-2.995 1.132Zm10.052-4.14c0 1.232-.386 2.23-1.159 2.995-.772.764-1.766 1.145-2.981 1.145-.226 0-.43-.013-.612-.039a3.347 3.347 0 0 1-.638-.169 4.37 4.37 0 0 0 1.002-1.693c.217-.66.326-1.397.326-2.213 0-.834-.109-1.567-.326-2.2a5.486 5.486 0 0 0-1.002-1.759c.19-.069.399-.121.625-.156.225-.034.434-.052.625-.052 1.215 0 2.209.386 2.981 1.159.773.773 1.16 1.766 1.16 2.982Z" fill="#00E0FF" opacity=".5"/></svg>