<svg width="41" height="41" fill="none" xmlns="http://www.w3.org/2000/svg"><path d="M18.407 35.576H7.773c-.769 0-1.445-.292-2.029-.876-.584-.583-.875-1.274-.875-2.07V7.985c0-.797.256-1.487.768-2.07.513-.585.968-.876 1.367-.876h8.328c.228-.997.755-1.816 1.58-2.456a4.476 4.476 0 0 1 2.82-.961c1.053 0 1.985.32 2.797.96A4.468 4.468 0 0 1 24.13 5.04h8.328c.797 0 1.48.291 2.05.875.57.584.854 1.274.854 2.071v8.542h-2.904V7.986h-4.527v5.553H12.3V7.986H7.773V32.63h10.634v2.947Zm8.072-1.239-6.961-6.918 2.05-2.05 4.911 4.911 10.122-10.122 2.05 2.05-12.172 12.13ZM20.5 7.688c.485 0 .89-.163 1.218-.49.328-.328.491-.734.491-1.218s-.163-.89-.49-1.217a1.653 1.653 0 0 0-1.218-.491c-.484 0-.89.164-1.217.491a1.653 1.653 0 0 0-.491 1.217c0 .484.163.89.49 1.217.328.328.734.491 1.218.491Z" fill="#00E0FF"/></svg>