<svg width="146" height="30" fill="none" xmlns="http://www.w3.org/2000/svg"><path d="M56.063 17.09c0 .919-.383 1.636-1.148 2.15-.765.507-1.943.76-3.533.76-1.869 0-3.235-.332-4.1-.994-.855-.662-1.282-1.64-1.282-2.937h2.847c0 .597.184 1.016.552 1.255.378.239 1.073.358 2.087.358.676 0 1.133-.041 1.372-.124.238-.083.357-.211.357-.386 0-.193-.164-.363-.492-.51-.318-.147-.854-.345-1.61-.593a6.894 6.894 0 0 1-.432-.138c-1.381-.442-2.306-.796-2.773-1.062-.954-.543-1.43-1.283-1.43-2.22 0-.865.367-1.523 1.102-1.973.736-.45 1.8-.676 3.19-.676 1.59 0 2.798.317 3.623.952.825.625 1.237 1.47 1.237 2.537h-2.847c0-.46-.174-.767-.522-.924-.338-.165-.835-.248-1.49-.248-.965 0-1.447.147-1.447.441 0 .148.075.267.224.36.16.082.636.252 1.431.51.09.027.288.091.597.192.308.092.531.161.67.207.14.046.358.125.656.235.298.101.527.188.686.262.17.073.383.175.641.303.259.12.457.235.596.345.15.101.314.23.492.386.18.147.313.3.403.456.1.147.179.312.239.496.07.184.104.377.104.58Zm.997 2.771v-9.723h5.59l.955 9.075h.7l.955-9.075h5.59v9.723h-2.847v-7.475l.537-1.6h-.686l-1.148 9.075h-5.501l-1.148-9.075h-.7l.55 1.6v7.476H57.06ZM81.7 17.09c0 .919-.382 1.636-1.148 2.15-.765.507-1.943.76-3.533.76-1.868 0-3.235-.332-4.1-.994-.854-.662-1.281-1.64-1.281-2.937h2.847c0 .597.184 1.016.552 1.255.377.239 1.073.358 2.087.358.675 0 1.133-.041 1.371-.124.239-.083.358-.211.358-.386 0-.193-.164-.363-.492-.51-.318-.147-.855-.345-1.61-.593a6.894 6.894 0 0 1-.432-.138c-1.382-.442-2.306-.796-2.773-1.062-.954-.543-1.431-1.283-1.431-2.22 0-.865.367-1.523 1.103-1.973.735-.45 1.799-.676 3.19-.676 1.59 0 2.798.317 3.623.952.825.625 1.237 1.47 1.237 2.537h-2.847c0-.46-.174-.767-.522-.924-.338-.165-.835-.248-1.49-.248-.965 0-1.447.147-1.447.441 0 .148.075.267.224.36.159.082.636.252 1.43.51.09.027.289.091.597.192.308.092.532.161.671.207.14.046.358.125.656.235.298.101.527.188.686.262.169.073.382.175.64.303.26.12.458.235.597.345.15.101.313.23.492.386.179.147.313.3.403.456.099.147.178.312.238.496.07.184.104.377.104.58Zm4.449-6.952h2.773l1.476 9.075h.686l.968-9.075h6.083l.969 9.075h.686l1.476-9.075h2.772l-1.625 9.723H96.48l-1.043-9.075h-.686l-1.044 9.075h-5.933l-1.625-9.723Zm18.005 4.855c0-1.444.502-2.635 1.505-3.572C106.663 10.474 108.01 10 109.7 10c1.679 0 3.021.473 4.025 1.42 1.003.938 1.505 2.13 1.505 3.573 0 1.453-.502 2.653-1.505 3.6-1.004.938-2.346 1.406-4.025 1.406-1.69 0-3.037-.468-4.041-1.406-1.003-.947-1.505-2.147-1.505-3.6Zm2.847 0c0 .864.229 1.53.686 2 .457.46 1.128.69 2.013.69.884 0 1.55-.23 1.997-.69.457-.47.686-1.136.686-2 0-.855-.229-1.513-.686-1.973-.447-.468-1.113-.703-1.997-.703-.885 0-1.556.235-2.013.704-.457.46-.686 1.117-.686 1.972Zm9.429 4.868v-9.723h4.294c3.279 0 4.919.906 4.919 2.717 0 .395-.089.731-.268 1.007a1.724 1.724 0 0 1-.731.648 5.14 5.14 0 0 1-.924.331 8.893 8.893 0 0 1-1.029.152v.634h1.64c.457 0 .81.12 1.059.359.258.239.387.57.387.993v2.883h-2.847v-3.228h-3.652v3.227h-2.848Zm2.848-5.544h1.446c.824 0 1.341-.032 1.55-.097.348-.12.522-.395.522-.827 0-.156-.02-.29-.06-.4a.44.44 0 0 0-.194-.262 1.557 1.557 0 0 0-.253-.152c-.07-.046-.199-.073-.388-.083a4.428 4.428 0 0 0-.432-.027 7.528 7.528 0 0 0-.552-.014h-1.639v1.862ZM128.504 20c-.468.009-.825-.097-1.074-.318-.238-.23-.358-.556-.358-.979v-8.565h2.848v7.544l5.039-.138v2.317l-6.455.138Zm11.578-9.862c.646 0 1.227.032 1.744.097a6.5 6.5 0 0 1 1.58.413c.547.203.999.478 1.357.828.357.34.651.809.879 1.407.239.597.358 1.3.358 2.11 0 .809-.119 1.512-.358 2.11-.228.598-.522 1.071-.879 1.42-.358.34-.81.617-1.357.828a6.5 6.5 0 0 1-1.58.414 14.23 14.23 0 0 1-1.744.096h-4.085v-9.723h4.085Zm0 7.406c.457 0 .805-.009 1.043-.027a4.37 4.37 0 0 0 .82-.152c.298-.092.517-.225.656-.4.149-.175.273-.423.373-.745.109-.33.164-.74.164-1.227 0-.405-.03-.75-.09-1.035a1.744 1.744 0 0 0-.298-.717 2.176 2.176 0 0 0-.432-.441c-.139-.11-.348-.189-.626-.235a6.259 6.259 0 0 0-.731-.082 10.677 10.677 0 0 0-.879-.028h-1.238v5.09h1.238Z" fill="#fff"/><path fill-rule="evenodd" clip-rule="evenodd" d="M27.125 6.113a14.772 14.772 0 0 1 1.532 14.906 14.83 14.83 0 0 1-3.796 5.042L23.796 30l-3.986-1.058a15.13 15.13 0 0 1-9.292.105 14.997 14.997 0 0 1-7.572-5.338A14.774 14.774 0 0 1 0 14.975a14.77 14.77 0 0 1 2.813-8.777 14.992 14.992 0 0 1 7.49-5.45 15.131 15.131 0 0 1 9.293-.033 14.994 14.994 0 0 1 7.53 5.398ZM11.25 15a3.75 3.75 0 1 1-7.5 0 3.75 3.75 0 0 1 7.5 0Zm11.25 0a3.75 3.75 0 1 1-7.5 0 3.75 3.75 0 0 1 7.5 0Z" fill="#00E0FF"/><circle cx="30" cy="15" r="3.75" fill="#fff"/></svg>