<svg width="22" height="22" fill="none" xmlns="http://www.w3.org/2000/svg"><path d="M2.325 15.875a2.622 2.622 0 0 1-1.613-.713A2.049 2.049 0 0 1 .025 13.6V5.85c0-.433.083-.813.25-1.137.167-.325.483-.613.95-.863l6.7-3.4c.15-.083.312-.146.487-.187C8.587.22 8.775.2 8.975.2c.183 0 .367.025.55.075.183.05.358.117.525.2L16.4 3.8c.4.25.72.58.962.987.242.409.371.813.388 1.213h-2.025L9 2.5 2.325 5.875v10Zm3.05 5.225c-.617 0-1.15-.225-1.6-.675-.45-.45-.675-.983-.675-1.6v-9.7c0-.617.225-1.154.675-1.612.45-.459.983-.688 1.6-.688H19.7c.6 0 1.13.23 1.587.688.459.458.688.995.688 1.612v9.7c0 .617-.23 1.15-.688 1.6-.458.45-.987.675-1.587.675H5.375Zm7.175-7.05c.1 0 .196-.017.287-.05.092-.033.171-.067.238-.1l6.15-3.125a.765.765 0 0 0 .337-.25.667.667 0 0 0 .138-.425.75.75 0 0 0-.363-.662.758.758 0 0 0-.762-.063l-6.025 3.05-6.05-3.05a.918.918 0 0 0-.75.075c-.25.133-.375.35-.375.65 0 .15.037.28.112.388.075.108.18.204.313.287l6.225 3.125c.017.017.192.067.525.15Z" fill="#00E0FF"/></svg>