<svg width="25" height="25" fill="none" xmlns="http://www.w3.org/2000/svg"><path d="M11.614 19.922h1.693v-1.224c1.007-.087 1.819-.395 2.435-.925.616-.53.925-1.28.925-2.252 0-.886-.265-1.632-.795-2.24-.53-.607-1.41-1.154-2.643-1.64-.972-.417-1.67-.79-2.096-1.12a1.569 1.569 0 0 1-.638-1.302c0-.434.173-.795.52-1.081.348-.286.825-.43 1.433-.43.538 0 .994.118 1.367.352.373.234.69.62.95 1.159l1.485-.677c-.347-.747-.751-1.28-1.211-1.602-.46-.321-1.02-.542-1.68-.664V5.104h-1.692v1.172c-.938.174-1.65.534-2.136 1.08-.486.548-.729 1.203-.729 1.967 0 .903.286 1.627.86 2.174.572.547 1.458 1.046 2.656 1.498.99.416 1.68.807 2.07 1.172.39.364.586.816.586 1.354 0 .52-.209.937-.625 1.25-.417.312-.981.469-1.693.469-.66 0-1.241-.196-1.745-.586-.503-.391-.85-.925-1.041-1.602l-1.563.52c.347.886.807 1.572 1.38 2.058a4.645 4.645 0 0 0 1.928.99v1.302Zm.886 3.541a10.87 10.87 0 0 1-4.27-.846 10.887 10.887 0 0 1-3.504-2.344 10.886 10.886 0 0 1-2.343-3.502 10.87 10.87 0 0 1-.847-4.271c0-1.51.282-2.934.847-4.27a10.887 10.887 0 0 1 2.343-3.503A11.064 11.064 0 0 1 8.23 2.37a10.662 10.662 0 0 1 4.245-.86c1.528 0 2.964.287 4.31.86a10.98 10.98 0 0 1 3.502 2.344c.99.99 1.771 2.157 2.344 3.502.573 1.346.86 2.782.86 4.31 0 1.493-.287 2.908-.86 4.245a11.064 11.064 0 0 1-2.357 3.502 10.888 10.888 0 0 1-3.502 2.344 10.87 10.87 0 0 1-4.271.846Z" fill="#00E0FF" opacity=".5"/></svg>