<svg width="140" height="140" viewBox="0 0 140 140" fill="none" xmlns="http://www.w3.org/2000/svg">
<path d="M69.5589 139.11C107.265 139.11 137.831 108.543 137.831 70.8377C137.831 33.132 107.265 2.56543 69.5589 2.56543C31.8532 2.56543 1.28662 33.132 1.28662 70.8377C1.28662 108.543 31.8532 139.11 69.5589 139.11Z" fill="url(#paint0_radial_27_2996)"/>
<path fill-rule="evenodd" clip-rule="evenodd" d="M131.931 98.6638V102.184C131.931 102.184 121.969 130.819 80.1843 139.087H71.8606L55.501 131.416L51.4055 122.561L48.273 122.152V124.62L41.2333 122.152L38.289 116.817L29.6332 110.862V108.803L26.9213 103.036L25.2721 98.6085L26.5118 90.8603L24.298 87.1634L19.4167 81.4187V76.493L20.6011 74.4343L25.7259 71.7667L27.1649 73.9804L29.3786 71.7667L21.9847 61.7052L20.5568 54.1009L22.6045 48.1459L17.8671 45.7882L16.4392 38.3943L19.3614 33.0481V25.4549L23.7889 17.8506C23.7889 17.8506 35.068 5.92953 55.4124 2.54248L60.2827 3.17339L56.8514 3.68256L43.8123 23.0529L45.5169 26.0637V35.2065L41.8974 47.3821L43.5356 55.5952L46.3692 54.4883L48.1845 54.2116L58.1464 59.1483V67.9037L63.0056 77.766L69.5251 79.6809L74.1297 83.0015L80.771 93.9485L85.1985 101.896L94.2528 103.811L108.886 107.131L114.321 110.452L119.766 110.175L126.474 107.165L131.931 98.6638Z" fill="url(#paint1_radial_27_2996)"/>
<path fill-rule="evenodd" clip-rule="evenodd" d="M123.873 26.4843L123.164 28.521L101.392 19.843L89.6148 20.2526L85.3755 22.8537L79.8964 23.6064L74.9265 25.9973L71.1632 32.384L58.268 37.0882L55.8661 33.0481L50.8851 28.4656V27.1484L84.9327 12.3052L102.178 14.9838L123.873 26.4843Z" fill="#778902"/>
<path fill-rule="evenodd" clip-rule="evenodd" d="M55.4568 2.54248L42.938 22.6434L43.8567 27.3034L44.4433 34.6973L41.4326 47.4707L43.5689 55.6395L48.2178 55.7723L58.2018 59.2036V67.959L63.061 77.8213L69.5695 79.7362L74.1852 83.0237L85.2429 101.918L108.919 107.12L114.365 110.408L123.165 111.227L128.09 109.467L131.931 102.184V98.6638L126.518 107.12L115.295 109.168H113.579L108.786 106.501L85.8517 100.546L84.9662 99.3833L75.0707 81.5183L71.6836 79.05L63.9797 75.7625L58.7442 67.7598L59.3641 59.3364L53.719 56.1597L48.2178 54.2669L43.5468 55.1303L41.9307 47.4264L45.993 32.7603L45.5502 26.0747L51.5384 11.641L56.8957 3.68257L60.316 3.1734L55.4568 2.54248Z" fill="url(#paint2_linear_27_2996)"/>
<path fill-rule="evenodd" clip-rule="evenodd" d="M123.884 26.4841L100.639 19.0901H89.9137L84.3793 22.7871H79.9518L74.2293 26.4841L71.9048 30.5463L58.2459 35.2063L57.2497 32.915L50.9294 27.1482L53.5306 17.8504L57.8806 7.99919L60.3711 3.1732L64.367 0.328526C64.367 0.328526 94.618 -4.87382 123.884 26.4841Z" fill="url(#paint3_radial_27_2996)"/>
<path style="mix-blend-mode:multiply" opacity="0.5" fill-rule="evenodd" clip-rule="evenodd" d="M134.831 90.9266C134.831 90.9266 115.782 106.567 93.5332 98.077C71.285 89.5873 90.4008 80.8319 73.0338 63.8523C55.6669 46.8728 64.8319 30.1811 90.921 26.6612C117.01 23.1413 121.914 36.6231 129.872 53.7686C137.831 70.9142 131.189 82.5475 106.318 83.3445C81.4461 84.1414 91.6958 73.4822 80.8041 60.1C69.9124 46.7178 78.7453 31.7639 99.4883 33.8116C120.231 35.8594 120.807 49.6843 118.095 61.5943C115.383 73.5043 100.385 71.4566 91.5298 65.7008C82.6748 59.945 83.029 42.6999 94.3856 40.2426C105.742 37.7853 104.923 47.0167 101.226 53.171C97.5291 59.3252 103.617 61.3951 103.617 61.3951C103.617 61.3951 97.5291 62.4134 94.7619 60.1554C91.9947 57.8973 101.658 54.7095 102.145 48.2453C102.632 41.7812 93.8321 37.4643 87.8771 47.2159C81.9221 56.9675 91.0649 70.8367 108.41 69.3535C125.754 67.8703 117.862 33.9998 93.4226 37.0437C68.9827 40.0876 88.2424 63.5203 88.9951 71.4787C89.7477 79.4372 106.384 84.075 122.401 75.9948C138.417 67.9146 126.23 38.0731 112.549 32.3173C98.8684 26.5616 74.6278 28.1998 69.5029 38.9586C64.3781 49.7175 81.6786 60.1111 85.3645 74.2791C89.0504 88.4472 102.82 94.4132 119.678 91.5354C136.536 88.6575 136.967 59.8676 136.967 59.8676C136.967 59.8676 139.757 75.8509 134.831 90.9266Z" fill="url(#paint4_linear_27_2996)"/>
<g opacity="0.3">
<path fill-rule="evenodd" clip-rule="evenodd" d="M97.6397 126.391L96.2671 129.479L93.4556 131.549L90.9984 131.084L89.3491 129.856L93.0461 127.011L95.1049 126.391H97.6397Z" fill="#9CC200"/>
<path fill-rule="evenodd" clip-rule="evenodd" d="M89.0061 128.97L88.7294 129.103L87.9435 129.479H86.6816L87.5671 128.97L88.2534 128.417L89.0061 128.97Z" fill="#9CC200"/>
<path fill-rule="evenodd" clip-rule="evenodd" d="M82.1102 128.937L79.7857 127.631H77.5277L78.059 128.284L79.8189 129.413H81.7781L82.1102 128.937Z" fill="#9CC200"/>
<path fill-rule="evenodd" clip-rule="evenodd" d="M122.522 111.935L120.596 113.773L119.932 115.931L120.707 115.621L122.301 114.26L122.877 112.4L122.522 111.935Z" fill="#9CC200"/>
<path fill-rule="evenodd" clip-rule="evenodd" d="M52.9551 122.672V121.454L52.468 120.823L51.9257 121.454L52.468 122.949L52.9551 122.672Z" fill="#9CC200"/>
<path fill-rule="evenodd" clip-rule="evenodd" d="M77.5721 95.9186V94.701L77.0851 94.0701L76.5427 94.701L77.0851 96.1953L77.5721 95.9186Z" fill="#9CC200"/>
<path fill-rule="evenodd" clip-rule="evenodd" d="M12.3989 47.7582V46.5406L11.9119 45.9097L11.3695 46.5406L11.9119 48.0349L12.3989 47.7582Z" fill="#9CC200"/>
<path fill-rule="evenodd" clip-rule="evenodd" d="M48.461 96.7047V95.4871L47.9851 94.8562L47.4316 95.4871L47.9851 96.9814L48.461 96.7047Z" fill="#9CC200"/>
<path fill-rule="evenodd" clip-rule="evenodd" d="M131.112 92.5206V91.292L130.636 90.6721L130.093 91.292L130.636 92.7863L131.112 92.5206Z" fill="#9CC200"/>
<path fill-rule="evenodd" clip-rule="evenodd" d="M63.1382 130.497L62.5958 129.38L61.1569 128.97V131.881L63.1382 132.523L63.8244 131.128L63.1382 130.497Z" fill="#9CC200"/>
<path fill-rule="evenodd" clip-rule="evenodd" d="M81.2578 89.6646L78.1586 91.7234L76.6753 91.4246L76.3101 90.2956L76.775 87.3623L80.162 87.1631L81.2578 88.8566V89.6646Z" fill="#9CC200"/>
<path fill-rule="evenodd" clip-rule="evenodd" d="M59.4634 13.9654L56.3641 16.0242L54.8698 15.7254L54.5156 14.5963L54.9805 11.6631L58.3676 11.4639L59.4634 13.1574V13.9654Z" fill="#9CC200"/>
<path fill-rule="evenodd" clip-rule="evenodd" d="M12.8969 69.6083L10.1851 71.6671L8.87898 71.3572L8.55798 70.2282L8.96753 67.306L11.934 67.0957L12.8969 68.7892V69.6083Z" fill="#9CC200"/>
<path fill-rule="evenodd" clip-rule="evenodd" d="M108.786 96.4611L105.687 98.5199L104.204 98.21L103.838 97.0809L104.303 94.1588L107.69 93.9485L108.786 95.642V96.4611Z" fill="#9CC200"/>
<path fill-rule="evenodd" clip-rule="evenodd" d="M74.9819 90.34L74.0521 89.6648L73.4434 90.34L74.2071 91.314L74.9819 90.8602V90.34Z" fill="#9CC200"/>
<path fill-rule="evenodd" clip-rule="evenodd" d="M21.8628 33.6125L20.933 32.9373L20.3242 33.6125L21.088 34.5865L21.8628 34.1216V33.6125Z" fill="#9CC200"/>
<path fill-rule="evenodd" clip-rule="evenodd" d="M43.5796 98.9183L42.6609 98.2542L42.041 98.9183L42.8158 99.9034L43.5796 99.4385V98.9183Z" fill="#9CC200"/>
<path fill-rule="evenodd" clip-rule="evenodd" d="M130.857 94.6127L129.938 93.9375L129.319 94.6127L130.093 95.5867L130.857 95.1219V94.6127Z" fill="#9CC200"/>
<path fill-rule="evenodd" clip-rule="evenodd" d="M38.5543 109.799L35.5768 103.678H30.1421L29.5554 107.32L33.3631 111.504L38.5543 109.799Z" fill="#9CC200"/>
<path fill-rule="evenodd" clip-rule="evenodd" d="M24.7186 84.562L24.4197 75.9505L22.7373 74.7993L22.2834 78.0425L24.7186 84.562Z" fill="#9CC200"/>
<path fill-rule="evenodd" clip-rule="evenodd" d="M115.837 103.047L115.294 98.5972L113.612 97.446L113.147 100.689L115.837 103.047Z" fill="#9CC200"/>
<path fill-rule="evenodd" clip-rule="evenodd" d="M5.83513 76.2717V70.6376L4.48474 67.8594L5.83513 76.2717Z" fill="#9CC200"/>
<path fill-rule="evenodd" clip-rule="evenodd" d="M84.8775 5.65272L87.9989 8.97336L86.1725 13.2016L80.4721 11.1871L76.2549 10.036L76.2217 6.23937L82.1103 4.25806L84.8775 5.65272Z" fill="#9CC200"/>
<path fill-rule="evenodd" clip-rule="evenodd" d="M82.9404 16.3452V14.5078L84.4568 14.5742L84.9549 15.7032L82.9404 16.3452Z" fill="#9CC200"/>
<path fill-rule="evenodd" clip-rule="evenodd" d="M119.002 60.5539V58.7275L120.508 58.7829L121.006 59.9119L119.002 60.5539Z" fill="#9CC200"/>
<path fill-rule="evenodd" clip-rule="evenodd" d="M48.0958 17.6844L46.1367 14.9836L43.8454 13.9099L41.3107 15.5702L43.4137 20.1748L49.0145 22.2004L48.0958 17.6844Z" fill="#9CC200"/>
<path fill-rule="evenodd" clip-rule="evenodd" d="M23.5673 50.7358L23.036 58.9599L27.0983 67.1398L30.1422 68.5455L28.4929 55.1634L23.5673 50.7358Z" fill="#9CC200"/>
<path fill-rule="evenodd" clip-rule="evenodd" d="M52.9993 44.6481L56.5192 40.5969L60.3822 44.6481L61.0353 50.0607L55.4234 51.1676L52.468 45.7771L52.9993 44.6481Z" fill="#9CC200"/>
<path fill-rule="evenodd" clip-rule="evenodd" d="M109.66 50.7358V49.5957L106.318 46.8396V48.5885L109.66 50.7358Z" fill="#9CC200"/>
<path fill-rule="evenodd" clip-rule="evenodd" d="M124.747 35.7045V34.5755L121.405 31.8193V33.5682L124.747 35.7045Z" fill="#9CC200"/>
<path fill-rule="evenodd" clip-rule="evenodd" d="M111.343 73.5817L109.395 71.39L107.026 70.8145V73.9912L109.184 75.1423L111.343 73.5817Z" fill="#9CC200"/>
<path fill-rule="evenodd" clip-rule="evenodd" d="M79.2103 19.4664L77.2622 17.2748L74.9045 16.6992V19.8649L77.0519 21.0271L79.2103 19.4664Z" fill="#9CC200"/>
<path fill-rule="evenodd" clip-rule="evenodd" d="M130.602 45.8877L129.518 42.733L130.602 41.3384L131.909 41.7258L133.115 45.7106L130.602 45.8877Z" fill="#9CC200"/>
<path fill-rule="evenodd" clip-rule="evenodd" d="M137.222 70.6375L138.196 71.1798L137.709 73.9249L137.222 71.5451V70.6375Z" fill="#9CC200"/>
<path fill-rule="evenodd" clip-rule="evenodd" d="M124.548 93.8709L124.149 92.1663L121.604 92.3323L123.729 94.2804L124.548 93.8709Z" fill="#9CC200"/>
<path fill-rule="evenodd" clip-rule="evenodd" d="M39.2407 99.6932L38.8422 97.9775L36.2964 98.1436L38.4327 100.092L39.2407 99.6932Z" fill="#9CC200"/>
</g>
<g style="mix-blend-mode:multiply" opacity="0.79">
<path fill-rule="evenodd" clip-rule="evenodd" d="M73.7201 23.4624L72.3476 26.5506L69.5361 28.6205L67.0788 28.1666L65.4296 26.9269L69.1265 24.0933L71.1853 23.4624H73.7201Z" fill="#CEC59C"/>
<path fill-rule="evenodd" clip-rule="evenodd" d="M69.7464 2.56467L69.4697 2.70856L68.6838 3.07383H67.422L68.3075 2.56467L68.9938 2.01123L69.7464 2.56467Z" fill="#CEC59C"/>
<path fill-rule="evenodd" clip-rule="evenodd" d="M105.941 14.9174L103.606 13.6223H101.348L101.879 14.2754L103.639 15.4044H105.598L105.941 14.9174Z" fill="#CEC59C"/>
<path fill-rule="evenodd" clip-rule="evenodd" d="M63.9131 15.2938V14.0762L63.4371 13.4453L62.8837 14.0762L63.4371 15.5705L63.9131 15.2938Z" fill="#CEC59C"/>
<path fill-rule="evenodd" clip-rule="evenodd" d="M59.6295 24.4036L59.076 23.2745L57.6371 22.865V25.7761L59.6295 26.4291L60.3157 25.0234L59.6295 24.4036Z" fill="#CEC59C"/>
<path fill-rule="evenodd" clip-rule="evenodd" d="M42.7717 112.345L42.2293 111.216L40.7904 110.806V113.717L42.7717 114.371L43.458 112.965L42.7717 112.345Z" fill="#CEC59C"/>
<path fill-rule="evenodd" clip-rule="evenodd" d="M47.0112 110.563L46.4688 109.434L45.0299 109.024V111.935L47.0112 112.588L47.6975 111.183L47.0112 110.563Z" fill="#CEC59C"/>
<path fill-rule="evenodd" clip-rule="evenodd" d="M75.4137 12.9252L72.3144 14.984L70.8312 14.6741L70.4659 13.5451L70.9308 10.6229L74.3179 10.4126L75.4137 12.1061V12.9252Z" fill="#CEC59C"/>
<path fill-rule="evenodd" clip-rule="evenodd" d="M64.9648 121.233L61.8656 123.292L60.3713 122.982L60.0171 121.853L60.4709 118.931L63.858 118.72L64.9648 120.414V121.233Z" fill="#CEC59C"/>
<path fill-rule="evenodd" clip-rule="evenodd" d="M69.1266 13.6005L68.2079 12.9253L67.588 13.6005L68.3628 14.5745L69.1266 14.1097V13.6005Z" fill="#CEC59C"/>
<path fill-rule="evenodd" clip-rule="evenodd" d="M113.169 119.462V115.3L105.631 111.327H98.3813L99.4772 115.389L106.705 121.676L113.169 121.366V119.462Z" fill="#CEC59C"/>
<path fill-rule="evenodd" clip-rule="evenodd" d="M114.808 117.835L114.498 114.448H117.685L118.25 118.455L117.032 119.462L114.808 117.835Z" fill="#CEC59C"/>
<path fill-rule="evenodd" clip-rule="evenodd" d="M113.169 113.928V111.327H110.978L111.442 112.046L113.169 113.928Z" fill="#CEC59C"/>
<path fill-rule="evenodd" clip-rule="evenodd" d="M42.6168 29.8936L43.7015 35.3173L40.2038 41.7482L37.8793 43.1097L35.4774 33.4024L37.2706 28.9416L41.2443 27.3035L42.6168 29.8936Z" fill="#CEC59C"/>
<path fill-rule="evenodd" clip-rule="evenodd" d="M33.7727 27.6575V23.8167L35.6876 24.0934L37.193 26.1854L35.4773 28.2774L33.7727 27.6575Z" fill="#CEC59C"/>
<path fill-rule="evenodd" clip-rule="evenodd" d="M43.7125 18.8581V13.2019H45.4282L47.1328 14.8622L45.4282 18.8581H43.7125Z" fill="#CEC59C"/>
<path fill-rule="evenodd" clip-rule="evenodd" d="M72.3808 107.486L70.0453 113.164L65.9277 114.016L60.4376 114.703L57.936 111.094L59.5078 100.524L61.5666 93.6167L72.3808 95.7087L73.6094 106.556L72.3808 107.486Z" fill="#CEC59C"/>
<path fill-rule="evenodd" clip-rule="evenodd" d="M55.5121 104.364V99.9591L50.1105 99.1289L49.1586 108.272L55.0361 109.202L56.7518 104.896L55.5121 104.364Z" fill="#CEC59C"/>
<path fill-rule="evenodd" clip-rule="evenodd" d="M39.5951 81.3632V78.5406L37.5031 77.7104L38.1561 81.6509L39.5951 81.3632Z" fill="#CEC59C"/>
<path fill-rule="evenodd" clip-rule="evenodd" d="M36.2966 123.58L34.5256 119.152L21.2098 116.573L22.0289 119.152L29.932 124.388L33.8393 125.074L36.2966 123.58Z" fill="#CEC59C"/>
<path fill-rule="evenodd" clip-rule="evenodd" d="M48.7821 132.014L45.4836 130.354V127.409L47.6199 126.812L48.7821 132.014Z" fill="#CEC59C"/>
<path fill-rule="evenodd" clip-rule="evenodd" d="M23.5009 109.777L19.6379 107.585L17.1364 109.102L19.5272 110.463L23.5009 109.777Z" fill="#CEC59C"/>
<path fill-rule="evenodd" clip-rule="evenodd" d="M12.8639 94.3027L10.8494 84.6508L2.32642 82.5698L4.13063 89.2664L9.04517 97.7119L12.8639 94.3027Z" fill="#CEC59C"/>
<path fill-rule="evenodd" clip-rule="evenodd" d="M15.0114 97.734L14.0152 96.1069L10.7278 98.9959L12.8641 102.15L15.0114 97.734Z" fill="#CEC59C"/>
</g>
<path style="mix-blend-mode:multiply" fill-rule="evenodd" clip-rule="evenodd" d="M26.5893 123.856C26.5893 123.856 19.0293 104.906 21.2099 95.5864C23.3904 86.2665 13.0411 83.3444 12.8972 72.984C12.7533 62.6236 17.3247 59.801 14.1812 48.7876C11.0376 37.7742 0.168081 59.1923 2.79138 76.692C5.41469 94.1918 9.77579 104.364 14.9671 105.847C20.1583 107.33 18.3541 97.3574 18.4537 90.6719C18.5533 83.9863 9.83113 85.3035 8.08226 76.2825C6.3334 67.2614 11.9563 59.4468 10.6834 55.7499C9.41051 52.0529 3.69901 69.0324 5.14903 78.3413C6.59904 87.6501 12.0006 81.3852 16.4281 89.6757C20.8556 97.9662 15.7972 103.799 12.8751 102.571C9.95289 101.342 1.56275 81.684 3.27841 68.5565C4.99408 55.4289 8.24829 48.1456 12.8529 51.1784C17.4575 54.2113 8.03799 67.6709 9.64297 76.2825C11.2479 84.894 18.5755 83.0566 19.9148 91.7788C21.2541 100.501 18.1659 105.858 18.8079 110.861C19.3146 114.153 20.498 117.304 22.2835 120.115L26.5893 123.856Z" fill="url(#paint5_linear_27_2996)"/>
<path fill-rule="evenodd" clip-rule="evenodd" d="M43.5575 55.1301V55.6393L38.5323 67.0955L36.3185 69.8074L32.0681 70.8146L29.3894 71.8661L29.0242 71.357L31.4482 70.8146L36.7834 68.7115L38.5655 66.4978C38.5655 66.4978 43.1812 56.4584 43.5575 55.1301Z" fill="#4F6302"/>
<path fill-rule="evenodd" clip-rule="evenodd" d="M74.1849 26.4843L71.8161 23.8167L62.2416 18.0609L53.8736 17.6071L53.3534 18.2934L53.6412 17.4854L54.0729 17.2861L62.0867 17.8285L63.0829 18.0609L71.8936 23.6839L74.6387 26.0415V26.4954L74.3952 26.916L74.1849 26.4843Z" fill="#4F6302"/>
<path fill-rule="evenodd" clip-rule="evenodd" d="M58.7442 67.7596L58.2018 67.9589L50.8853 66.7966L46.8341 61.3951L43.5689 55.6393L43.5467 55.1301L43.0597 56.403L44.4433 57.6206L46.7677 61.7382L50.8964 67.173L51.3502 67.5161L56.619 67.9589L59.3751 68.7115L58.7442 67.7596Z" fill="#4F6302"/>
<path fill-rule="evenodd" clip-rule="evenodd" d="M85.8515 100.545L86.6817 102.228L84.955 113.928L78.7896 122.949L60.017 126.812H53.3093L52.9551 126.037L56.486 126.391L62.1311 125.771L77.0518 122.949L83.5381 115.245L84.5233 111.935L85.2427 101.918L85.8515 100.545Z" fill="#3E4002"/>
<path fill-rule="evenodd" clip-rule="evenodd" d="M22.6046 48.2453H27.1206L33.773 45.777L35.4222 36.6009L41.3108 29.5612L43.0597 22.2004L45.5502 26.0745L45.5944 26.639L43.0597 23.4623L41.9085 27.5024L41.6982 29.9154L36.1085 37.088L35.1787 39.6781L34.094 46.4522L28.6149 48.2453L25.6263 49.4297L22.3168 49.0755L22.6046 48.2453Z" fill="#4F6302"/>
<path fill-rule="evenodd" clip-rule="evenodd" d="M8.56936 40.1541L4.49604 41.3384C4.49604 41.3384 -0.462779 56.9786 0.0685227 69.3867L1.29716 72.9841C1.29716 72.9841 -0.473839 62.4577 8.56936 40.1541Z" fill="url(#paint6_radial_27_2996)"/>
<path fill-rule="evenodd" clip-rule="evenodd" d="M137.498 77.7104L140 72.0653C140 72.0653 139.602 57.2884 131.931 39.0803L128.477 36.2688C134.422 49.2756 137.499 63.4093 137.498 77.7104Z" fill="url(#paint7_radial_27_2996)"/>
<path fill-rule="evenodd" clip-rule="evenodd" d="M89.8695 19.0901V14.5076L84.8775 5.6526L78.5683 1.42432L77.0519 0.538818L79.9519 0.992639L79.8966 1.52394L85.3424 5.53084L89.294 12.9248L90.5226 15.4042L91.2421 19.3447L90.8325 20.2081L89.615 20.2523L89.8695 19.0901Z" fill="#4F6302"/>
<path fill-rule="evenodd" clip-rule="evenodd" d="M113.579 109.168L114.365 110.408L114.497 115.223L114.033 122.55L112.073 125.904L110.978 126.668L113.512 120.613L113.966 113.673L113.147 109.666L112.073 108.327L113.579 109.168Z" fill="#3E4002"/>
<path style="mix-blend-mode:multiply" fill-rule="evenodd" clip-rule="evenodd" d="M4.49588 41.3385L8.5692 40.1542C8.56468 40.202 8.56468 40.2502 8.5692 40.2981C11.7168 33.9844 15.8241 28.1968 20.7449 23.1414L23.8441 17.8505C23.8441 17.8505 35.1232 5.92948 55.4677 2.54243L60.3379 3.17334L59.6185 3.28404L60.3269 3.1844L64.3227 0.339733C68.5589 -0.175237 72.8459 -0.104467 77.0629 0.550043C77.882 0.660731 78.7453 0.80462 79.6419 0.959583H79.9186C91.4302 3.04052 107.79 9.22797 123.851 26.4178L123.131 28.4545C125.134 30.9814 126.954 33.6485 128.577 36.4351L128.477 36.2137L131.931 39.0252C139.602 57.2333 140 72.0101 140 72.0101L137.498 77.6552C137.366 79.0056 137.189 80.3339 136.978 81.6621C136.52 84.7899 135.802 87.8741 134.831 90.8824C134.002 93.5489 133.012 96.1623 131.864 98.7081L131.931 98.6085V102.128C130.921 104.671 129.64 107.098 128.112 109.367C123.848 115.79 118.42 121.358 112.107 125.782L111 126.546C101.689 132.743 91.2103 136.973 80.2064 138.976H71.8827C71.13 138.976 70.3884 139.032 69.6689 139.032C54.0103 139.057 38.8235 133.673 26.6777 123.79L26.5781 123.701C25.2499 122.595 23.9659 121.488 22.7262 120.303L22.372 119.993V119.927C15.7211 113.589 10.4222 105.97 6.79449 97.5298C3.1668 89.0893 1.28545 80.0018 1.2638 70.8147C1.2638 68.6674 1.37449 66.5311 1.56266 64.428C1.07863 67.2537 0.978101 70.1317 1.2638 72.9842L0.03516 69.3868C-0.462936 56.9787 4.49588 41.3385 4.49588 41.3385ZM56.8955 3.70464V3.77106C57.5486 3.64931 58.2127 3.51647 58.8769 3.41686L56.8955 3.70464Z" fill="url(#paint8_radial_27_2996)"/>
<path style="mix-blend-mode:screen" opacity="0.5" fill-rule="evenodd" clip-rule="evenodd" d="M4.49588 41.3385L8.5692 40.1542C8.56468 40.202 8.56468 40.2502 8.5692 40.2981C11.7168 33.9844 15.8241 28.1968 20.7449 23.1414L23.8441 17.8505C23.8441 17.8505 35.1232 5.92948 55.4677 2.54243L60.3379 3.17334L59.6185 3.28404L60.3269 3.1844L64.3227 0.339733C68.5589 -0.175237 72.8459 -0.104467 77.0629 0.550043C77.882 0.660731 78.7453 0.80462 79.6419 0.959583H79.9186C91.4302 3.04052 107.79 9.22797 123.851 26.4178L123.131 28.4545C125.134 30.9814 126.954 33.6485 128.577 36.4351L128.477 36.2137L131.931 39.0252C139.602 57.2333 140 72.0101 140 72.0101L137.498 77.6552C137.366 79.0056 137.189 80.3339 136.978 81.6621C136.52 84.7899 135.802 87.8741 134.831 90.8824C134.002 93.5489 133.012 96.1623 131.864 98.7081L131.931 98.6085V102.128C130.921 104.671 129.64 107.098 128.112 109.367C123.848 115.79 118.42 121.358 112.107 125.782L111 126.546C101.689 132.743 91.2103 136.973 80.2064 138.976H71.8827C71.13 138.976 70.3884 139.032 69.6689 139.032C54.0103 139.057 38.8235 133.673 26.6777 123.79L26.5781 123.701C25.2499 122.595 23.9659 121.488 22.7262 120.303L22.372 119.993V119.927C15.7211 113.589 10.4222 105.97 6.79449 97.5298C3.1668 89.0893 1.28545 80.0018 1.2638 70.8147C1.2638 68.6674 1.37449 66.5311 1.56266 64.428C1.07863 67.2537 0.978101 70.1317 1.2638 72.9842L0.03516 69.3868C-0.462936 56.9787 4.49588 41.3385 4.49588 41.3385ZM56.8955 3.70464V3.77106C57.5486 3.64931 58.2127 3.51647 58.8769 3.41686L56.8955 3.70464Z" fill="url(#paint9_radial_27_2996)"/>
<defs>
<radialGradient id="paint0_radial_27_2996" cx="0" cy="0" r="1" gradientUnits="userSpaceOnUse" gradientTransform="translate(85.5503 33.5326) rotate(-170.819) scale(95.7844 107.251)">
<stop stop-color="#A9D100"/>
<stop offset="0.52" stop-color="#5E6D00"/>
<stop offset="0.59" stop-color="#4D5F00"/>
<stop offset="0.72" stop-color="#334A00"/>
<stop offset="0.79" stop-color="#294200"/>
<stop offset="0.8" stop-color="#2A3E04"/>
<stop offset="0.87" stop-color="#2D2F14"/>
<stop offset="0.93" stop-color="#2E2A1A"/>
<stop offset="1" stop-color="#3B6833"/>
</radialGradient>
<radialGradient id="paint1_radial_27_2996" cx="0" cy="0" r="1" gradientUnits="userSpaceOnUse" gradientTransform="translate(80.7157 36.3355) rotate(180) scale(137.419 137.419)">
<stop offset="0.02" stop-color="#C7F402"/>
<stop offset="0.35" stop-color="#729A02"/>
<stop offset="0.4" stop-color="#698E02"/>
<stop offset="0.58" stop-color="#4F6801"/>
<stop offset="0.74" stop-color="#3C4D00"/>
<stop offset="0.89" stop-color="#303D00"/>
<stop offset="1" stop-color="#2C3700"/>
</radialGradient>
<linearGradient id="paint2_linear_27_2996" x1="86.6818" y1="111.227" x2="86.6818" y2="2.54248" gradientUnits="userSpaceOnUse">
<stop offset="0.28" stop-color="#A2C802"/>
<stop offset="0.33" stop-color="#A5C902"/>
<stop offset="0.71" stop-color="#B5CD00"/>
<stop offset="1" stop-color="#BBCF00"/>
</linearGradient>
<radialGradient id="paint3_radial_27_2996" cx="0" cy="0" r="1" gradientUnits="userSpaceOnUse" gradientTransform="translate(80.7156 36.3353) rotate(180) scale(137.419 137.419)">
<stop offset="0.02" stop-color="#C7F402"/>
<stop offset="0.35" stop-color="#729A02"/>
<stop offset="0.4" stop-color="#698E02"/>
<stop offset="0.58" stop-color="#4F6801"/>
<stop offset="0.74" stop-color="#3C4D00"/>
<stop offset="0.89" stop-color="#303D00"/>
<stop offset="1" stop-color="#2C3700"/>
</radialGradient>
<linearGradient id="paint4_linear_27_2996" x1="100.938" y1="100.601" x2="100.938" y2="26.0413" gradientUnits="userSpaceOnUse">
<stop stop-color="white"/>
<stop offset="0.99" stop-color="#899036"/>
</linearGradient>
<linearGradient id="paint5_linear_27_2996" x1="14.48" y1="123.856" x2="14.48" y2="45.7769" gradientUnits="userSpaceOnUse">
<stop stop-color="white"/>
<stop offset="0.99" stop-color="#899036"/>
</linearGradient>
<radialGradient id="paint6_radial_27_2996" cx="0" cy="0" r="1" gradientUnits="userSpaceOnUse" gradientTransform="translate(4.78383 48.2785) rotate(180) scale(28.5243 28.5243)">
<stop stop-color="#729A02"/>
<stop offset="0.08" stop-color="#698E02"/>
<stop offset="0.35" stop-color="#4F6801"/>
<stop offset="0.61" stop-color="#3C4D00"/>
<stop offset="0.83" stop-color="#303D00"/>
<stop offset="1" stop-color="#2C3700"/>
</radialGradient>
<radialGradient id="paint7_radial_27_2996" cx="0" cy="0" r="1" gradientUnits="userSpaceOnUse" gradientTransform="translate(134.886 46.5296) rotate(180) scale(36.0953 36.0953)">
<stop stop-color="#729A02"/>
<stop offset="0.08" stop-color="#698E02"/>
<stop offset="0.35" stop-color="#4F6801"/>
<stop offset="0.61" stop-color="#3C4D00"/>
<stop offset="0.83" stop-color="#303D00"/>
<stop offset="1" stop-color="#2C3700"/>
</radialGradient>
<radialGradient id="paint8_radial_27_2996" cx="0" cy="0" r="1" gradientUnits="userSpaceOnUse" gradientTransform="translate(94.2527 38.7484) rotate(180) scale(151.011 151.011)">
<stop offset="0.38" stop-color="white"/>
<stop offset="0.41" stop-color="#E1DBDB"/>
<stop offset="0.46" stop-color="#B5A6A6"/>
<stop offset="0.5" stop-color="#937D7D"/>
<stop offset="0.55" stop-color="#7A5F5F"/>
<stop offset="0.58" stop-color="#6B4D4D"/>
<stop offset="0.61" stop-color="#664747"/>
<stop offset="0.93" stop-color="white"/>
</radialGradient>
<radialGradient id="paint9_radial_27_2996" cx="0" cy="0" r="1" gradientUnits="userSpaceOnUse" gradientTransform="translate(112.317 22.3223) rotate(180) scale(151.011 151.011)">
<stop offset="0.79"/>
<stop offset="0.82" stop-color="#220B30"/>
<stop offset="0.86" stop-color="#4F196E"/>
<stop offset="0.89" stop-color="#7325A2"/>
<stop offset="0.93" stop-color="#902FCA"/>
<stop offset="0.96" stop-color="#A535E7"/>
<stop offset="0.98" stop-color="#B23AF9"/>
<stop offset="1" stop-color="#B63BFF"/>
</radialGradient>
</defs>
</svg>
