<svg width="140" height="140" fill="none" xmlns="http://www.w3.org/2000/svg"><path d="M69.559 139.11c37.706 0 68.272-30.567 68.272-68.272 0-37.706-30.566-68.273-68.272-68.273S1.287 33.132 1.287 70.838c0 37.705 30.566 68.272 68.272 68.272Z" fill="url(#a)"/><path fill-rule="evenodd" clip-rule="evenodd" d="M131.931 98.664v3.52s-9.962 28.635-51.747 36.903h-8.323l-16.36-7.671-4.095-8.855-3.133-.409v2.468l-7.04-2.468-2.944-5.335-8.656-5.955v-2.059l-2.712-5.767-1.649-4.427 1.24-7.749-2.214-3.697-4.881-5.744v-4.926l1.184-2.059 5.125-2.667 1.439 2.213 2.214-2.213-7.394-10.062-1.428-7.604 2.048-5.955-4.738-2.358-1.428-7.394 2.922-5.346v-7.593l4.428-7.604S35.068 5.93 55.412 2.542l4.87.631-3.43.51-13.04 19.37 1.705 3.01v9.143l-3.62 12.176 1.639 8.213 2.833-1.107 1.816-.276 9.961 4.936v8.756l4.86 9.862 6.52 1.915L74.13 83l6.641 10.947 4.427 7.948 9.055 1.915 14.633 3.32 5.435 3.321 5.445-.277 6.708-3.01 5.457-8.501Z" fill="url(#b)"/><path fill-rule="evenodd" clip-rule="evenodd" d="m123.873 26.484-.709 2.037-21.772-8.678-11.777.41-4.24 2.6-5.479.753-4.97 2.391-3.763 6.387-12.895 4.704-2.402-4.04-4.98-4.582v-1.318l34.047-14.843 17.245 2.679 21.695 11.5Z" fill="#778902"/><path fill-rule="evenodd" clip-rule="evenodd" d="M55.457 2.542 42.938 22.643l.919 4.66.586 7.394-3.01 12.774 2.136 8.169 4.649.132 9.984 3.432v8.755l4.859 9.862 6.509 1.915 4.615 3.288 11.058 18.894 23.676 5.202 5.446 3.288 8.8.819 4.925-1.76 3.841-7.283v-3.52l-5.413 8.456-11.223 2.048h-1.716l-4.793-2.667-22.934-5.955-.886-1.163-9.895-17.865-3.387-2.468-7.704-3.287-5.236-8.003.62-8.424-5.645-3.176-5.501-1.893-4.671.863-1.616-7.704 4.062-14.666-.443-6.685 5.988-14.434 5.358-7.958 3.42-.51-4.86-.63Z" fill="url(#c)"/><path fill-rule="evenodd" clip-rule="evenodd" d="m123.884 26.484-23.245-7.394H89.914l-5.535 3.697h-4.427l-5.723 3.697-2.324 4.062-13.66 4.66-.995-2.291-6.32-5.767 2.6-9.298L57.88 8l2.491-4.827L64.367.33s30.251-5.203 59.517 26.155Z" fill="url(#d)"/><path style="mix-blend-mode:multiply" opacity=".5" fill-rule="evenodd" clip-rule="evenodd" d="M134.831 90.927s-19.049 15.64-41.298 7.15c-22.248-8.49-3.132-17.245-20.5-34.225-17.366-16.98-8.201-33.67 17.888-37.19 26.089-3.52 30.993 9.961 38.951 27.107 7.959 17.145 1.317 28.779-23.554 29.575-24.872.797-14.622-9.862-25.514-23.244s-2.059-28.336 18.684-26.288c20.743 2.047 21.319 15.872 18.607 27.782-2.712 11.91-17.71 9.863-26.565 4.107-8.855-5.756-8.501-23.001 2.856-25.458 11.356-2.458 10.537 6.774 6.84 12.928-3.697 6.154 2.391 8.224 2.391 8.224s-6.088 1.018-8.855-1.24c-2.767-2.258 6.896-5.446 7.383-11.91.487-6.464-8.313-10.78-14.268-1.03-5.955 9.752 3.188 23.622 20.533 22.138 17.344-1.483 9.452-35.353-14.987-32.31-24.44 3.045-5.18 26.477-4.428 34.436.753 7.958 17.389 12.596 33.406 4.516 16.016-8.08 3.829-37.922-9.852-43.678-13.68-5.755-37.921-4.117-43.046 6.642-5.125 10.758 12.176 21.152 15.862 35.32 3.685 14.168 17.455 20.134 34.313 17.256 16.858-2.877 17.289-31.667 17.289-31.667s2.79 15.983-2.136 31.059Z" fill="url(#e)"/><path d="m97.64 126.391-1.373 3.088-2.811 2.07-2.458-.465-1.649-1.228 3.697-2.845 2.059-.62h2.535Zm-8.634 2.579-.277.133-.785.376h-1.262l.885-.509.686-.553.753.553Zm-6.896-.033-2.324-1.306h-2.258l.531.653 1.76 1.129h1.96l.331-.476Zm40.412-17.002-1.926 1.838-.664 2.158.775-.31 1.594-1.361.576-1.86-.355-.465Zm-69.567 10.737v-1.218l-.487-.631-.542.631.542 1.495.487-.277Zm24.617-26.753V94.7l-.487-.63-.542.63.542 1.494.487-.276ZM12.399 47.758v-1.217l-.487-.631-.543.63.543 1.495.487-.277Zm36.062 48.947v-1.218l-.476-.63-.553.63.553 1.494.476-.276Zm82.651-4.185v-1.228l-.476-.62-.543.62.543 1.494.476-.265Zm-67.974 37.977-.542-1.117-1.44-.41v2.911l1.982.642.686-1.395-.686-.631Zm18.12-40.832-3.1 2.058-1.483-.298-.365-1.13.465-2.933 3.387-.199 1.096 1.694v.808Zm-21.795-75.7-3.099 2.06-1.494-.3-.354-1.129.465-2.933 3.387-.2 1.095 1.694v.808ZM12.897 69.608l-2.712 2.06-1.306-.31-.321-1.13.41-2.922 2.966-.21.963 1.693v.82Zm95.889 26.853-3.099 2.059-1.483-.31-.366-1.13.465-2.921 3.387-.21 1.096 1.693v.82ZM74.982 90.34l-.93-.675-.609.675.764.974.775-.454v-.52ZM21.863 33.612l-.93-.675-.609.675.764.974.775-.464v-.51ZM43.58 98.918l-.92-.664-.619.664.775.985.764-.465v-.52Zm87.277-4.305-.919-.675-.619.675.774.974.764-.465v-.51Zm-92.303 15.186-2.977-6.121h-5.435l-.587 3.642 3.808 4.184 5.191-1.705ZM24.719 84.562l-.3-8.611-1.682-1.152-.454 3.243 2.436 6.52Zm91.118 18.485-.543-4.45-1.682-1.151-.465 3.243 2.69 2.358ZM5.835 76.272v-5.634l-1.35-2.779 1.35 8.413ZM84.877 5.653 88 8.973l-1.826 4.229-5.7-2.015-4.218-1.151-.033-3.797 5.888-1.98 2.767 1.394ZM82.94 16.345v-1.837l1.517.066.498 1.13-2.015.641Zm36.062 44.209v-1.827l1.506.056.498 1.129-2.004.642Zm-70.906-42.87-1.96-2.7-2.29-1.074-2.535 1.66 2.103 4.605 5.6 2.025-.918-4.516ZM23.567 50.736l-.531 8.224 4.062 8.18 3.044 1.406-1.65-13.383-4.925-4.427ZM53 44.648l3.52-4.051 3.862 4.051.653 5.413-5.612 1.107-2.955-5.39.531-1.13Zm56.66 6.088v-1.14l-3.342-2.756v1.748l3.342 2.148Zm15.087-15.031v-1.13l-3.342-2.756v1.75l3.342 2.136Zm-13.404 37.877-1.948-2.192-2.369-.576v3.177l2.158 1.151 2.159-1.56ZM79.21 19.466l-1.948-2.191-2.358-.576v3.166l2.148 1.162 2.158-1.56Zm51.392 26.422-1.084-3.155 1.084-1.395 1.307.388 1.206 3.985-2.513.177Zm6.62 24.75.974.542-.487 2.745-.487-2.38v-.907ZM124.548 93.87l-.399-1.704-2.545.166 2.125 1.948.819-.41ZM39.24 99.693l-.398-1.715-2.546.166 2.137 1.948.808-.399Z" opacity=".3" fill-rule="evenodd" clip-rule="evenodd" fill="#9CC200"/><path d="m73.72 23.462-1.372 3.089-2.812 2.07-2.457-.454-1.65-1.24 3.697-2.834 2.06-.63h2.534ZM69.746 2.565l-.276.144-.786.365h-1.262l.886-.51.686-.553.752.554Zm36.195 12.352-2.335-1.295h-2.258l.531.653 1.76 1.13h1.959l.343-.488Zm-42.028.377v-1.218l-.476-.63-.553.63.553 1.494.476-.276Zm-4.283 9.11-.554-1.13-1.439-.409v2.911l1.992.653.687-1.406-.687-.62Zm-16.858 87.941-.543-1.129-1.439-.41v2.911l1.982.654.686-1.406-.686-.62Zm4.239-1.782-.542-1.129-1.44-.41v2.911l1.982.653.686-1.405-.686-.62Zm28.403-97.638-3.1 2.059-1.483-.31-.365-1.129.465-2.922 3.387-.21 1.096 1.693v.82ZM64.965 121.233l-3.1 2.059-1.494-.31-.354-1.129.454-2.922 3.387-.211 1.107 1.694v.819ZM69.127 13.6l-.92-.675-.619.675.775.975.764-.465v-.51Zm44.042 105.862V115.3l-7.538-3.973h-7.25l1.096 4.062 7.228 6.287 6.464-.31v-1.904Zm1.639-1.627-.31-3.387h3.187l.565 4.007-1.218 1.007-2.224-1.627Zm-1.639-3.907v-2.601h-2.191l.464.719 1.727 1.882ZM42.617 29.894l1.085 5.423-3.498 6.431-2.325 1.362-2.402-9.708 1.794-4.46 3.973-1.639 1.373 2.59Zm-8.844-2.237v-3.84l1.915.276 1.505 2.092-1.716 2.092-1.704-.62Zm9.939-8.799v-5.656h1.716l1.705 1.66-1.705 3.996h-1.715Zm28.668 88.628-2.335 5.678-4.117.852-5.49.687-2.502-3.609 1.572-10.57 2.059-6.907 10.814 2.092 1.228 10.847-1.228.93Zm-16.868-3.122v-4.405l-5.401-.83-.952 9.143 5.877.93 1.716-4.306-1.24-.532ZM39.595 81.363v-2.822l-2.092-.83.653 3.94 1.44-.288Zm-3.298 42.217-1.771-4.428-13.316-2.579.819 2.579 7.903 5.236 3.907.686 2.458-1.494Zm12.485 8.434-3.298-1.66v-2.945l2.136-.597 1.162 5.202ZM23.5 109.777l-3.862-2.192-2.502 1.517 2.391 1.361 3.974-.686ZM12.864 94.303l-2.015-9.652-8.523-2.081 1.805 6.696 4.914 8.446 3.819-3.41Zm2.147 3.431-.996-1.627-3.287 2.889 2.136 3.154 2.147-4.416Z" style="mix-blend-mode:multiply" opacity=".79" fill-rule="evenodd" clip-rule="evenodd" fill="#CEC59C"/><path style="mix-blend-mode:multiply" fill-rule="evenodd" clip-rule="evenodd" d="M26.59 123.856s-7.56-18.95-5.38-28.27c2.18-9.32-8.169-12.242-8.313-22.602-.144-10.36 4.428-13.183 1.284-24.196C11.038 37.774.168 59.192 2.791 76.692c2.624 17.5 6.985 27.672 12.176 29.155 5.191 1.483 3.387-8.49 3.487-15.175.1-6.686-8.623-5.368-10.372-14.39-1.749-9.02 3.874-16.835 2.601-20.532C9.411 52.053 3.7 69.032 5.15 78.34c1.45 9.31 6.852 3.044 11.28 11.335 4.427 8.29-.632 14.123-3.554 12.895-2.922-1.229-11.312-20.887-9.597-34.014 1.716-13.128 4.97-20.411 9.575-17.379 4.604 3.033-4.815 16.493-3.21 25.105 1.605 8.611 8.933 6.774 10.272 15.496 1.34 8.722-1.75 14.079-1.107 19.082a24.096 24.096 0 0 0 3.476 9.254l4.305 3.741Z" fill="url(#f)"/><path fill-rule="evenodd" clip-rule="evenodd" d="M43.557 55.13v.51l-5.025 11.456-2.213 2.711-4.25 1.008-2.68 1.051-.365-.509 2.424-.542 5.335-2.103 1.782-2.214s4.616-10.04 4.992-11.368Zm30.628-28.646-2.369-2.667-9.574-5.756-8.368-.454-.52.686.287-.808.432-.199 8.014.542.996.233 8.81 5.623 2.746 2.357v.454l-.244.421-.21-.432Z" fill="#4F6302"/><path fill-rule="evenodd" clip-rule="evenodd" d="m58.744 67.76-.542.199-7.317-1.162-4.05-5.402-3.266-5.756-.022-.509-.487 1.273 1.383 1.218 2.325 4.117 4.128 5.435.454.343 5.269.443 2.756.752-.63-.951Z" fill="#4F6302"/><path fill-rule="evenodd" clip-rule="evenodd" d="m85.852 100.545.83 1.683-1.727 11.7-6.165 9.021-18.773 3.863h-6.708l-.354-.775 3.531.354 5.645-.62 14.92-2.822 6.487-7.704.985-3.31.72-10.017.609-1.373Z" fill="#3E4002"/><path fill-rule="evenodd" clip-rule="evenodd" d="M22.605 48.245h4.516l6.652-2.468 1.65-9.176 5.888-7.04 1.749-7.36 2.49 3.873.044.565-2.534-3.177-1.152 4.04-.21 2.413-5.59 7.173-.93 2.59-1.084 6.774-5.48 1.793-2.988 1.185-3.31-.355.289-.83Z" fill="#4F6302"/><path fill-rule="evenodd" clip-rule="evenodd" d="m8.57 40.154-4.074 1.184S-.463 56.978.069 69.387l1.228 3.597s-1.77-10.526 7.272-32.83Z" fill="url(#g)"/><path fill-rule="evenodd" clip-rule="evenodd" d="M137.498 77.71 140 72.065s-.398-14.777-8.069-32.985l-3.454-2.811a99.674 99.674 0 0 1 9.021 41.441Z" fill="url(#h)"/><path fill-rule="evenodd" clip-rule="evenodd" d="M89.87 19.09v-4.582l-4.993-8.855-6.309-4.229L77.052.54l2.9.454-.055.53 5.445 4.008 3.952 7.394 1.229 2.48.72 3.94-.41.863-1.218.044.255-1.162Z" fill="#4F6302"/><path fill-rule="evenodd" clip-rule="evenodd" d="m113.579 109.168.786 1.24.132 4.815-.464 7.327-1.96 3.354-1.095.764 2.534-6.055.454-6.94-.819-4.007-1.074-1.339 1.506.841Z" fill="#3E4002"/><path style="mix-blend-mode:multiply" fill-rule="evenodd" clip-rule="evenodd" d="m4.496 41.339 4.073-1.185a.765.765 0 0 0 0 .144 68.261 68.261 0 0 1 12.176-17.157l3.1-5.29S35.122 5.928 55.467 2.542l4.87.631-.72.111.709-.1L64.323.34a46.49 46.49 0 0 1 12.74.21c.819.11 1.682.255 2.579.41h.277C91.43 3.04 107.79 9.228 123.85 26.418l-.72 2.037a67.691 67.691 0 0 1 5.446 7.98l-.1-.221 3.454 2.811C139.602 57.233 140 72.01 140 72.01l-2.502 5.645a67.033 67.033 0 0 1-.52 4.007 56.815 56.815 0 0 1-2.147 9.22 68.52 68.52 0 0 1-2.967 7.826l.067-.1v3.52a38.214 38.214 0 0 1-3.819 7.239 61.742 61.742 0 0 1-16.005 16.415l-1.107.764a82.122 82.122 0 0 1-30.794 12.43h-8.323c-.753 0-1.495.056-2.214.056a67.943 67.943 0 0 1-42.991-15.242l-.1-.089c-1.328-1.106-2.612-2.213-3.852-3.398l-.354-.31v-.066A68.067 68.067 0 0 1 1.264 70.815c0-2.148.11-4.284.299-6.387a31.867 31.867 0 0 0-.3 8.556L.036 69.387c-.498-12.408 4.46-28.048 4.46-28.048Zm52.4-37.634v.066c.653-.122 1.317-.255 1.98-.354l-1.98.288Z" fill="url(#i)"/><path style="mix-blend-mode:screen" opacity=".5" fill-rule="evenodd" clip-rule="evenodd" d="m4.496 41.339 4.073-1.185a.765.765 0 0 0 0 .144 68.261 68.261 0 0 1 12.176-17.157l3.1-5.29S35.122 5.928 55.467 2.542l4.87.631-.72.111.709-.1L64.323.34a46.49 46.49 0 0 1 12.74.21c.819.11 1.682.255 2.579.41h.277C91.43 3.04 107.79 9.228 123.85 26.418l-.72 2.037a67.691 67.691 0 0 1 5.446 7.98l-.1-.221 3.454 2.811C139.602 57.233 140 72.01 140 72.01l-2.502 5.645a67.033 67.033 0 0 1-.52 4.007 56.815 56.815 0 0 1-2.147 9.22 68.52 68.52 0 0 1-2.967 7.826l.067-.1v3.52a38.214 38.214 0 0 1-3.819 7.239 61.742 61.742 0 0 1-16.005 16.415l-1.107.764a82.122 82.122 0 0 1-30.794 12.43h-8.323c-.753 0-1.495.056-2.214.056a67.943 67.943 0 0 1-42.991-15.242l-.1-.089c-1.328-1.106-2.612-2.213-3.852-3.398l-.354-.31v-.066A68.067 68.067 0 0 1 1.264 70.815c0-2.148.11-4.284.299-6.387a31.867 31.867 0 0 0-.3 8.556L.036 69.387c-.498-12.408 4.46-28.048 4.46-28.048Zm52.4-37.634v.066c.653-.122 1.317-.255 1.98-.354l-1.98.288Z" fill="url(#j)"/><defs><radialGradient id="a" cx="0" cy="0" r="1" gradientUnits="userSpaceOnUse" gradientTransform="matrix(-94.55733 -15.28277 17.1123 -105.87703 85.55 33.533)"><stop stop-color="#A9D100"/><stop offset=".52" stop-color="#5E6D00"/><stop offset=".59" stop-color="#4D5F00"/><stop offset=".72" stop-color="#334A00"/><stop offset=".79" stop-color="#294200"/><stop offset=".8" stop-color="#2A3E04"/><stop offset=".87" stop-color="#2D2F14"/><stop offset=".93" stop-color="#2E2A1A"/><stop offset="1" stop-color="#3B6833"/></radialGradient><radialGradient id="b" cx="0" cy="0" r="1" gradientUnits="userSpaceOnUse" gradientTransform="rotate(180 40.358 18.168) scale(137.419)"><stop offset=".02" stop-color="#C7F402"/><stop offset=".35" stop-color="#729A02"/><stop offset=".4" stop-color="#698E02"/><stop offset=".58" stop-color="#4F6801"/><stop offset=".74" stop-color="#3C4D00"/><stop offset=".89" stop-color="#303D00"/><stop offset="1" stop-color="#2C3700"/></radialGradient><radialGradient id="d" cx="0" cy="0" r="1" gradientUnits="userSpaceOnUse" gradientTransform="rotate(180 40.358 18.168) scale(137.419)"><stop offset=".02" stop-color="#C7F402"/><stop offset=".35" stop-color="#729A02"/><stop offset=".4" stop-color="#698E02"/><stop offset=".58" stop-color="#4F6801"/><stop offset=".74" stop-color="#3C4D00"/><stop offset=".89" stop-color="#303D00"/><stop offset="1" stop-color="#2C3700"/></radialGradient><radialGradient id="g" cx="0" cy="0" r="1" gradientUnits="userSpaceOnUse" gradientTransform="rotate(180 2.392 24.14) scale(28.5243)"><stop stop-color="#729A02"/><stop offset=".08" stop-color="#698E02"/><stop offset=".35" stop-color="#4F6801"/><stop offset=".61" stop-color="#3C4D00"/><stop offset=".83" stop-color="#303D00"/><stop offset="1" stop-color="#2C3700"/></radialGradient><radialGradient id="h" cx="0" cy="0" r="1" gradientUnits="userSpaceOnUse" gradientTransform="rotate(180 67.443 23.265) scale(36.0953)"><stop stop-color="#729A02"/><stop offset=".08" stop-color="#698E02"/><stop offset=".35" stop-color="#4F6801"/><stop offset=".61" stop-color="#3C4D00"/><stop offset=".83" stop-color="#303D00"/><stop offset="1" stop-color="#2C3700"/></radialGradient><radialGradient id="i" cx="0" cy="0" r="1" gradientUnits="userSpaceOnUse" gradientTransform="rotate(180 47.126 19.374) scale(151.011)"><stop offset=".38" stop-color="#fff"/><stop offset=".41" stop-color="#E1DBDB"/><stop offset=".46" stop-color="#B5A6A6"/><stop offset=".5" stop-color="#937D7D"/><stop offset=".55" stop-color="#7A5F5F"/><stop offset=".58" stop-color="#6B4D4D"/><stop offset=".61" stop-color="#664747"/><stop offset=".93" stop-color="#fff"/></radialGradient><radialGradient id="j" cx="0" cy="0" r="1" gradientUnits="userSpaceOnUse" gradientTransform="rotate(180 56.158 11.161) scale(151.011)"><stop offset=".79"/><stop offset=".82" stop-color="#220B30"/><stop offset=".86" stop-color="#4F196E"/><stop offset=".89" stop-color="#7325A2"/><stop offset=".93" stop-color="#902FCA"/><stop offset=".96" stop-color="#A535E7"/><stop offset=".98" stop-color="#B23AF9"/><stop offset="1" stop-color="#B63BFF"/></radialGradient><linearGradient id="c" x1="86.682" y1="111.227" x2="86.682" y2="2.542" gradientUnits="userSpaceOnUse"><stop offset=".28" stop-color="#A2C802"/><stop offset=".33" stop-color="#A5C902"/><stop offset=".71" stop-color="#B5CD00"/><stop offset="1" stop-color="#BBCF00"/></linearGradient><linearGradient id="e" x1="100.938" y1="100.601" x2="100.938" y2="26.041" gradientUnits="userSpaceOnUse"><stop stop-color="#fff"/><stop offset=".99" stop-color="#899036"/></linearGradient><linearGradient id="f" x1="14.48" y1="123.856" x2="14.48" y2="45.777" gradientUnits="userSpaceOnUse"><stop stop-color="#fff"/><stop offset=".99" stop-color="#899036"/></linearGradient></defs></svg>