<svg width="140" height="141" viewBox="0 0 140 141" fill="none" xmlns="http://www.w3.org/2000/svg">
<path d="M69.994 140.006C108.651 140.006 139.988 108.668 139.988 70.0118C139.988 31.3552 108.651 0.0178223 69.994 0.0178223C31.3374 0.0178223 0 31.3552 0 70.0118C0 108.668 31.3374 140.006 69.994 140.006Z" fill="url(#paint0_radial_27_2532)"/>
<path style="mix-blend-mode:screen" opacity="0.3" fill-rule="evenodd" clip-rule="evenodd" d="M96.3124 5.26835C96.3124 5.26835 79.0681 -0.677961 71.4627 3.64501C61.1875 9.54375 68.1745 72.1346 104.346 90.9428C140.517 109.751 128.321 67.1575 133.78 63.4649C139.239 59.7722 141.778 93.9219 124.516 110.048C107.254 126.175 64.1547 107.884 41.4279 62.2221C18.7011 16.5604 59.0231 0.874023 59.0231 0.874023C59.0231 0.874023 49.6101 1.61136 41.0176 6.27922C41.0176 6.27922 21.9003 23.5711 30.677 59.2014C39.4538 94.8317 101.063 134.077 126.199 109.448C131.616 104.144 143.324 81.5 137.497 61.2172C126.127 38.3417 133.168 84.0272 108.871 85.0024C80.5844 86.1263 65.8613 30.7245 73.1575 13.4624C80.4536 -3.79978 116.102 17.375 116.102 17.375C116.102 17.375 103.442 7.62308 96.3124 5.26835Z" fill="url(#paint1_linear_27_2532)"/>
<path style="mix-blend-mode:screen" opacity="0.3" fill-rule="evenodd" clip-rule="evenodd" d="M79.8828 39.6499C76.5052 28.5839 73.2169 12.8083 85.7815 9.43673C98.346 6.06518 112.124 20.3839 121.531 34.1734C130.938 47.9629 121.989 69.6491 108.199 71.2248C94.4096 72.8006 86.834 62.3827 79.8828 39.6499Z" fill="url(#paint2_linear_27_2532)"/>
<path style="mix-blend-mode:multiply" opacity="0.5" fill-rule="evenodd" clip-rule="evenodd" d="M105.981 68.3229C102.033 68.5548 97.3589 65.8552 93.1013 61.4668L92.9467 61.3122C87.0349 55.0554 82.9559 47.2944 81.1552 38.8768C80.1325 33.6916 80.2335 28.447 81.9877 23.6899C88.6594 5.60125 111.755 19.6464 118.855 32.9008C125.955 46.1551 118.005 67.6213 105.981 68.3229Z" fill="url(#paint3_linear_27_2532)"/>
<path style="mix-blend-mode:multiply" opacity="0.5" fill-rule="evenodd" clip-rule="evenodd" d="M105.981 68.3232C102.033 68.5551 97.3589 65.8554 93.1013 61.4671C94.6771 62.8823 103.668 70.44 109.537 65.6295C123.392 54.2066 114.55 24.0053 95.5631 22.4117C80.5546 21.1332 81.2028 38.4073 81.1552 38.8949C80.1325 33.7097 80.2335 28.465 81.9877 23.708C88.6594 5.61932 111.755 19.6645 118.855 32.9188C125.955 46.1731 118.005 67.6215 105.981 68.3232Z" fill="url(#paint4_linear_27_2532)"/>
<path style="mix-blend-mode:screen" opacity="0.3" fill-rule="evenodd" clip-rule="evenodd" d="M16.9292 107.325C20.2234 119.723 31.462 123.332 47.743 121.739C64.0239 120.145 75.536 129.404 92.0965 130.658C108.657 131.913 120.407 118.552 120.407 118.552L124.147 114.336C124.147 114.336 111.725 131.509 84.9312 127.721C58.1371 123.933 58.0776 111.071 50.4069 96.14C40.1614 76.208 26.6752 79.8709 16.9292 60.4978C7.18317 41.1247 18.1898 22.9409 18.1898 22.9409C18.1898 22.9409 11.7797 30.0468 8.85409 35.9098C8.85409 35.9098 7.87889 46.9521 13.4922 64.1072C19.1055 81.2623 12.9214 92.2987 16.9292 107.325Z" fill="url(#paint5_linear_27_2532)"/>
<path style="mix-blend-mode:multiply" opacity="0.5" fill-rule="evenodd" clip-rule="evenodd" d="M25.5037 80.7627C28.6017 79.8411 32.8295 81.1136 37.0395 83.8132L37.1941 83.9083C43.0721 87.7813 47.7724 93.1954 50.7815 99.559C52.5653 103.495 53.4692 107.694 52.9637 111.808C51.0431 127.459 30.0169 120.603 21.8824 111.38C13.7478 102.158 16.0669 83.5753 25.5037 80.7627Z" fill="url(#paint6_linear_27_2532)"/>
<path style="mix-blend-mode:multiply" opacity="0.5" fill-rule="evenodd" clip-rule="evenodd" d="M25.5038 80.7627C28.6018 79.8411 32.8296 81.1136 37.0396 83.8132C35.5233 82.9807 26.9309 78.6458 23.1788 83.5991C14.2593 95.2955 26.9785 117.666 42.4032 115.394C54.5931 113.61 50.841 99.9693 50.7875 99.5709C52.5714 103.507 53.4752 107.705 52.9698 111.82C51.0491 127.471 30.023 120.615 21.8884 111.392C13.7539 102.169 16.067 83.5753 25.5038 80.7627Z" fill="url(#paint7_linear_27_2532)"/>
<path style="mix-blend-mode:screen" opacity="0.3" fill-rule="evenodd" clip-rule="evenodd" d="M139.441 61.2409C139.441 61.2409 136.069 50.0619 128.518 41.7073C120.966 33.3527 114.324 20.9725 109.888 16.489C105.452 12.0055 116.625 17.262 120.24 21.2877L122.226 23.4224C122.226 23.4224 116.571 17.4761 114.044 18.701C111.517 19.926 123.326 35.0296 125.996 38.0087C128.666 40.9878 135.344 44.8767 135.344 44.8767C135.344 44.8767 138.93 54.6227 139.441 61.2409Z" fill="url(#paint8_linear_27_2532)"/>
<path style="mix-blend-mode:screen" opacity="0.3" fill-rule="evenodd" clip-rule="evenodd" d="M139.982 65.903C139.982 65.903 136.028 51.2275 130.694 52.6308C125.36 54.0341 123.148 80.406 106.754 82.4516C93.0775 84.17 74.5488 50.621 73.5677 27.6979C72.5866 4.77491 86.6496 7.40317 93.9219 8.93732C102.312 10.7212 106.926 13.8371 110.411 19.0163C113.896 24.1956 117.041 28.025 117.041 28.025C117.041 28.025 111.446 20.8894 107.462 16.8043C103.478 12.7192 91.7812 4.94735 80.9351 10.2396C71.4211 14.8777 73.645 44.5081 86.1977 63.4471C95.4798 77.4329 108.062 84.5684 118.516 71.3855C128.969 58.2025 125.651 51.5426 130.938 50.6983C136.224 49.8539 138.293 59.5226 139.982 65.903Z" fill="url(#paint9_linear_27_2532)"/>
<path style="mix-blend-mode:screen" opacity="0.3" fill-rule="evenodd" clip-rule="evenodd" d="M91.8942 58.7496C84.4078 51.6616 79.1869 35.2676 85.8349 28.1855C92.4829 21.1035 105.315 35.9157 109.959 51.0788C114.603 66.2419 98.9763 65.463 91.8942 58.7496Z" fill="url(#paint10_linear_27_2532)"/>
<path style="mix-blend-mode:multiply" opacity="0.83" fill-rule="evenodd" clip-rule="evenodd" d="M105.446 58.4759C103.62 60.4976 100.689 61.1576 96.8296 59.7424C87.1253 56.1746 83.9737 42.0997 84.937 37.087C86.7982 27.4361 99.559 31.5331 105.071 42.5635C108.383 49.2234 108.229 55.3957 105.446 58.4759Z" fill="url(#paint11_linear_27_2532)"/>
<path style="mix-blend-mode:multiply" opacity="0.5" fill-rule="evenodd" clip-rule="evenodd" d="M105.446 58.4759C108.419 53.6593 107.343 44.6507 99.3153 37.7292C91.2878 30.8077 84.9431 37.087 84.9431 37.087C86.8043 27.4361 99.5651 31.5331 105.077 42.5635C108.383 49.2234 108.229 55.3957 105.446 58.4759Z" fill="url(#paint12_linear_27_2532)"/>
<path style="mix-blend-mode:multiply" opacity="0.83" fill-rule="evenodd" clip-rule="evenodd" d="M31.6581 86.828C33.7512 85.7695 36.7303 85.8052 40.2327 87.3869C49.0808 91.3709 49.8895 101.367 48.1472 104.578C44.7876 110.768 33.0496 105.916 29.464 97.5908C27.3233 92.5661 28.4769 88.4394 31.6581 86.828Z" fill="url(#paint13_linear_27_2532)"/>
<path style="mix-blend-mode:multiply" opacity="0.5" fill-rule="evenodd" clip-rule="evenodd" d="M31.6581 86.8281C27.9833 89.5753 27.5968 95.8189 34.2864 101.789C36.1077 103.499 38.3704 104.666 40.8194 105.159C43.2684 105.652 45.8064 105.45 48.1472 104.578C44.7876 110.768 33.0496 105.916 29.464 97.5909C27.3233 92.5663 28.4769 88.4396 31.6581 86.8281Z" fill="url(#paint14_linear_27_2532)"/>
<path style="mix-blend-mode:screen" opacity="0.3" fill-rule="evenodd" clip-rule="evenodd" d="M4.98302 44.0383C4.98302 44.0383 10.638 59.6593 10.5904 76.8382C10.5428 94.0171 10.2693 111.327 25.2837 120.633C40.2982 129.939 47.7429 124.759 65.7186 128.833C83.6943 132.906 91.1034 133.643 104.167 131.098L97.6622 134.309C97.6622 134.309 85.6269 136.028 66.9019 131.098C48.177 126.169 34.8692 132.442 18.2909 117.166C1.71255 101.89 5.17926 84.9489 4.99493 72.2893C4.81059 59.6296 2.11096 52.9281 2.11096 52.9281C2.78957 49.8819 3.75109 46.9057 4.98302 44.0383Z" fill="url(#paint15_linear_27_2532)"/>
<path style="mix-blend-mode:multiply" opacity="0.5" fill-rule="evenodd" clip-rule="evenodd" d="M132.395 94.4333C132.395 94.4333 110.809 115.293 78.4081 96.7405C44.7698 77.4804 34.6313 39.8581 45.7807 17.5416C47.9762 13.0758 51.1675 9.17358 55.1087 6.13545C59.0499 3.09732 63.6359 1.00438 68.5134 0.0178223C68.5134 0.0178223 74.1267 0.0178241 76.8382 0.344871C76.8382 0.344871 60.1053 0.874092 57.5484 27.1033C54.6109 57.2213 72.0455 96.0091 96.7941 100.837C121.394 105.624 128.363 97.7216 132.936 89.3433C137.508 80.9649 132.395 94.4333 132.395 94.4333Z" fill="url(#paint16_linear_27_2532)"/>
<path style="mix-blend-mode:multiply" opacity="0.5" fill-rule="evenodd" clip-rule="evenodd" d="M125.402 111.921C125.402 111.921 113.551 125.693 82.7726 117.737C53.0886 110.066 9.82328 59.6236 31.3727 11.6428L35.773 8.95508C35.773 8.95508 14.1403 36.3081 41.4279 79.4664C64.0834 115.311 103.549 128.274 127.994 109.198L125.402 111.921Z" fill="url(#paint17_linear_27_2532)"/>
<path style="mix-blend-mode:screen" opacity="0.3" fill-rule="evenodd" clip-rule="evenodd" d="M20.0925 85.0144C20.0925 85.0144 12.9926 97.4481 21.8764 111.392C30.7602 125.336 47.6537 122.215 51.3404 117.719C55.0271 113.224 51.1441 97.6444 51.1441 97.6444C51.1441 97.6444 63.5838 117.178 55.586 119.283C48.0461 121.263 39.1564 125.229 25.5631 118.177C11.9699 111.125 15.0441 96.3837 20.0925 85.0144Z" fill="url(#paint18_linear_27_2532)"/>
<path style="mix-blend-mode:multiply" opacity="0.5" fill-rule="evenodd" clip-rule="evenodd" d="M59.5641 53.5049C59.5641 53.5049 68.2398 88.826 89.5692 98.3817C110.899 107.937 126.317 97.6443 126.317 97.6443C126.317 97.6443 111.255 108.806 90.4136 100.796C66.1526 91.4721 59.5641 53.5049 59.5641 53.5049Z" fill="url(#paint19_linear_27_2532)"/>
<path style="mix-blend-mode:multiply" opacity="0.5" fill-rule="evenodd" clip-rule="evenodd" d="M61.6038 102.312C61.6038 102.312 98.358 132.638 129.754 106.475C129.754 106.463 106.058 137.61 61.6038 102.312Z" fill="url(#paint20_linear_27_2532)"/>
<path style="mix-blend-mode:multiply" opacity="0.5" fill-rule="evenodd" clip-rule="evenodd" d="M81.3336 68.3408C81.3336 68.3408 93.0597 90.033 111.464 95.0992C131.681 100.683 131.003 83.5812 131.003 83.5812C131.003 83.5812 125.943 98.0545 110.786 93.2023C90.8299 86.8279 81.3336 68.3408 81.3336 68.3408Z" fill="url(#paint21_linear_27_2532)"/>
<path style="mix-blend-mode:screen" opacity="0.3" fill-rule="evenodd" clip-rule="evenodd" d="M19.9083 21.1272C19.9083 21.1272 15.5616 36.2368 16.9352 49.6279C18.3087 63.0189 27.1093 70.3686 32.5204 75.1197C35.7077 77.9091 38.6887 80.9258 41.4399 84.1462C41.4399 84.1462 36.3617 75.4229 24.8319 62.2221C13.302 49.0213 16.8638 34.1318 28.3699 13.73C28.3699 13.73 22.1976 18.2611 19.9083 21.1272Z" fill="url(#paint22_linear_27_2532)"/>
<g style="mix-blend-mode:soft-light">
<path fill-rule="evenodd" clip-rule="evenodd" d="M54.9023 62.2223C53.16 57.2215 56.5791 70.8504 56.5851 74.5252C56.591 78.2 63.6017 80.3467 67.5322 85.0145C70.4117 88.3156 73.5066 91.4225 76.7966 94.3146C76.7966 94.3146 59.9566 76.7254 54.9023 62.2223Z" fill="white"/>
</g>
<g style="mix-blend-mode:soft-light">
<path fill-rule="evenodd" clip-rule="evenodd" d="M75.3575 120.704C75.3575 120.704 83.0402 125.86 100.516 124.07C97.6857 124.604 94.8158 124.904 91.9358 124.968C87.934 124.968 84.937 126.49 82.3028 126.121C79.6686 125.753 79.9897 123.701 77.8312 123.178C77.2257 123.045 76.671 122.741 76.2327 122.303C75.7943 121.864 75.4907 121.31 75.3575 120.704Z" fill="white"/>
</g>
<g style="mix-blend-mode:soft-light">
<path fill-rule="evenodd" clip-rule="evenodd" d="M103.62 123.44C106 123.204 108.347 122.71 110.619 121.965C110.619 121.965 109.323 123.511 107.747 123.79C106.171 124.07 106.409 123.517 103.62 123.44Z" fill="white"/>
</g>
<g style="mix-blend-mode:soft-light">
<path fill-rule="evenodd" clip-rule="evenodd" d="M50.4069 25.5393C50.4069 25.5393 49.289 33.6322 52.3751 46.0779L50.2107 39.6499C49.2176 36.6768 47.0413 36.5578 46.2683 33.7512C45.4953 30.9445 48.4446 31.1586 48.5873 28.8395C48.6097 28.1851 48.7861 27.5451 49.1022 26.9717C49.4184 26.3983 49.8654 25.9075 50.4069 25.5393Z" fill="white"/>
</g>
<g style="mix-blend-mode:soft-light">
<path fill-rule="evenodd" clip-rule="evenodd" d="M53.7784 21.3591C54.134 18.6121 55.1546 15.9933 56.7516 13.73C55.4703 14.4821 54.48 15.6441 53.9405 17.0284C53.4011 18.4127 53.3439 19.9384 53.7784 21.3591Z" fill="white"/>
</g>
<g style="mix-blend-mode:soft-light">
<path fill-rule="evenodd" clip-rule="evenodd" d="M109.531 107.373C109.531 107.373 121.727 107.206 129.748 100.796C127.912 102.585 125.784 104.049 123.457 105.125C119.806 106.736 122.054 108.354 117.701 108.354C114.95 108.331 112.21 108.002 109.531 107.373Z" fill="white"/>
</g>
<path style="mix-blend-mode:screen" opacity="0.3" fill-rule="evenodd" clip-rule="evenodd" d="M139.827 65.3499C139.929 65.6948 139.982 65.9029 139.982 65.9029L139.821 65.3083C139.734 63.9446 139.607 62.5948 139.441 61.2588C139.22 58.972 138.822 56.7056 138.252 54.48C137.527 51.3039 136.582 48.1824 135.421 45.1384L135.338 44.8946C132.29 36.986 127.831 29.6966 122.179 23.3808L122.232 23.4403L122.137 23.3333C121.543 22.6712 120.948 22.0231 120.353 21.3888L120.27 21.3056C120.082 21.0878 119.884 20.8794 119.675 20.6812C118.538 19.5316 117.36 18.4256 116.143 17.3632H116.114C105.124 7.72365 91.3828 1.78272 76.8322 0.380516C76.2733 0.315106 75.5895 0.261587 74.8581 0.219963C73.2526 0.112929 71.6411 0.0534668 70.0118 0.0534668H68.5312H68.4063C65.2693 0.123824 62.1405 0.403928 59.0409 0.891899C59.0409 0.891899 49.6279 1.62924 41.0355 6.29709C39.2516 7.10579 37.5093 7.99774 35.8086 8.94915C34.3102 9.78758 32.8355 10.6795 31.4262 11.625C30.4034 12.3029 29.3985 13.0065 28.4114 13.7359L28.1795 13.9143H28.1439C26.9249 14.83 21.9537 18.606 19.9498 21.1093C19.3552 21.704 18.7903 22.2986 18.2313 22.923C18.2313 22.923 18.1184 23.0419 17.9816 23.2025C16.4415 24.915 14.9787 26.7108 13.6111 28.5541C11.8358 30.8469 10.2639 33.2901 8.91349 35.8562C7.44512 38.4762 6.15 41.1895 5.03649 43.9789C3.79873 46.8554 2.83321 49.8416 2.15254 52.8983C-1.93653 69.2412 -0.011724 86.5096 7.57557 101.551C9.52596 106.784 12.8202 112.046 18.3324 117.13C28.1415 127.874 41.0528 135.297 55.2731 138.368C69.4935 141.439 84.3173 140.006 97.686 134.268H97.7216C99.9176 133.321 102.063 132.261 104.15 131.092H104.191C109.456 128.141 114.319 124.524 118.659 120.329C119.818 119.253 120.442 118.546 120.442 118.546V118.51C121.305 117.618 122.149 116.696 122.958 115.757C123.381 115.304 123.778 114.828 124.147 114.33V114.359C125.519 112.686 126.813 110.954 128.03 109.162C128.629 108.274 129.207 107.372 129.766 106.457C136.48 95.4832 140.022 82.8642 140 69.9999C139.988 68.442 139.931 66.892 139.827 65.3499Z" fill="url(#paint23_radial_27_2532)"/>
<path style="mix-blend-mode:multiply" fill-rule="evenodd" clip-rule="evenodd" d="M139.827 65.3499C139.929 65.6948 139.982 65.9029 139.982 65.9029L139.821 65.3083C139.734 63.9446 139.607 62.5948 139.441 61.2588C139.22 58.972 138.822 56.7056 138.252 54.48C137.527 51.3039 136.582 48.1824 135.421 45.1384L135.338 44.8946C132.29 36.986 127.831 29.6966 122.179 23.3808L122.232 23.4403L122.137 23.3333C121.543 22.6712 120.948 22.0231 120.353 21.3888L120.27 21.3056C120.082 21.0878 119.884 20.8794 119.675 20.6812C118.538 19.5316 117.36 18.4256 116.143 17.3632H116.114C105.124 7.72365 91.3828 1.78272 76.8322 0.380516C76.2733 0.315106 75.5895 0.261587 74.8581 0.219963C73.2526 0.112929 71.6411 0.0534668 70.0118 0.0534668H68.5312H68.4063C65.2693 0.123824 62.1405 0.403928 59.0409 0.891899C59.0409 0.891899 49.6279 1.62924 41.0355 6.29709C39.2516 7.10579 37.5093 7.99774 35.8086 8.94915C34.3102 9.78758 32.8355 10.6795 31.4262 11.625C30.4034 12.3029 29.3985 13.0065 28.4114 13.7359L28.1795 13.9143H28.1439C26.9249 14.83 21.9537 18.606 19.9498 21.1093C19.3552 21.704 18.7903 22.2986 18.2313 22.923C18.2313 22.923 18.1184 23.0419 17.9816 23.2025C16.4415 24.915 14.9787 26.7108 13.6111 28.5541C11.8358 30.8469 10.2639 33.2901 8.91349 35.8562C7.44512 38.4762 6.15 41.1895 5.03649 43.9789C3.79873 46.8554 2.83321 49.8416 2.15254 52.8983C-1.93653 69.2412 -0.011724 86.5096 7.57557 101.551C9.52596 106.784 12.8202 112.046 18.3324 117.13C28.1415 127.874 41.0528 135.297 55.2731 138.368C69.4935 141.439 84.3173 140.006 97.686 134.268H97.7216C99.9176 133.321 102.063 132.261 104.15 131.092H104.191C109.456 128.141 114.319 124.524 118.659 120.329C119.818 119.253 120.442 118.546 120.442 118.546V118.51C121.305 117.618 122.149 116.696 122.958 115.757C123.381 115.304 123.778 114.828 124.147 114.33V114.359C125.519 112.686 126.813 110.954 128.03 109.162C128.629 108.274 129.207 107.372 129.766 106.457C136.48 95.4832 140.022 82.8642 140 69.9999C139.988 68.442 139.931 66.892 139.827 65.3499Z" fill="url(#paint24_radial_27_2532)"/>
<path style="mix-blend-mode:screen" opacity="0.5" fill-rule="evenodd" clip-rule="evenodd" d="M139.827 65.3499C139.929 65.6948 139.982 65.9029 139.982 65.9029L139.821 65.3083C139.734 63.9446 139.607 62.5948 139.441 61.2589C139.22 58.972 138.822 56.7057 138.252 54.4801C137.527 51.3039 136.582 48.1824 135.421 45.1384L135.338 44.8946C132.29 36.9861 127.831 29.6966 122.179 23.3809L122.232 23.4403L122.137 23.3333C121.543 22.6713 120.948 22.0231 120.353 21.3889L120.27 21.3056C120.082 21.0878 119.884 20.8794 119.675 20.6813C118.538 19.5316 117.36 18.4256 116.143 17.3632C116.143 17.3632 113.943 17.9995 113.925 17.9579C103.222 8.58052 91.805 1.772 76.8322 0.327049C76.2733 0.261639 75.5895 0.20812 74.8581 0.166496C73.2526 0.0594624 71.6411 0 70.0118 0H68.5312H68.4063C65.2693 0.0703571 62.1405 0.350461 59.0409 0.838432C59.0409 0.838432 49.6279 1.57577 41.0354 6.24362C39.2516 7.05232 37.5093 7.94427 35.8086 8.89568C34.3102 9.73411 32.8355 10.6261 31.4262 11.5715C30.4034 12.2494 29.3985 12.953 28.4114 13.6825L28.1795 13.8608H28.1439C26.9249 14.7766 21.9537 18.5525 19.9498 21.0559C19.3552 21.6505 18.7903 22.2451 18.2313 22.8695C18.2313 22.8695 18.1184 22.9884 17.9816 23.149C16.4415 24.8615 14.9787 26.6573 13.6111 28.5007C11.8358 30.7934 10.2639 33.2367 8.91349 35.8027C7.44511 38.4227 6.15 41.136 5.03649 43.9254C3.79873 46.8019 2.83321 49.7882 2.15254 52.8448C-1.93653 69.1877 -0.011724 86.4562 7.57557 101.498C9.52596 106.73 12.8202 111.993 18.3324 117.077C28.1415 127.821 41.0527 135.244 55.2731 138.315C69.4935 141.386 84.3173 139.953 97.6859 134.214H97.7216C99.9176 133.267 102.063 132.207 104.15 131.039L103.656 128.47L104.185 131.021C109.45 128.07 114.313 124.452 118.653 120.258C119.812 119.182 120.437 118.474 120.437 118.474V118.439C121.299 117.547 122.143 116.625 122.952 115.685C123.375 115.233 123.773 114.757 124.141 114.258V114.288C125.513 112.615 126.807 110.883 128.024 109.091C128.623 108.203 129.201 107.301 129.76 106.385C136.474 95.4119 140.016 82.7929 139.994 69.9286C139.986 68.4182 139.93 66.892 139.827 65.3499Z" fill="url(#paint25_radial_27_2532)"/>
<defs>
<radialGradient id="paint0_radial_27_2532" cx="0" cy="0" r="1" gradientUnits="userSpaceOnUse" gradientTransform="translate(55.8418 32.3672) scale(97.9119 109.661)">
<stop offset="0.06" stop-color="#00CDFF"/>
<stop offset="0.52" stop-color="#004DB3"/>
<stop offset="0.6" stop-color="#0031A1"/>
<stop offset="0.71" stop-color="#00168F"/>
<stop offset="0.81" stop-color="#000685"/>
<stop offset="0.88" stop-color="#000081"/>
<stop offset="1" stop-color="#8972FF"/>
</radialGradient>
<linearGradient id="paint1_linear_27_2532" x1="57.9944" y1="135.457" x2="99.9813" y2="6.95114" gradientUnits="userSpaceOnUse">
<stop offset="0.01"/>
<stop offset="0.1" stop-color="#030707"/>
<stop offset="0.23" stop-color="#0A1A1A"/>
<stop offset="0.38" stop-color="#173939"/>
<stop offset="0.54" stop-color="#286565"/>
<stop offset="0.72" stop-color="#3E9D9D"/>
<stop offset="0.91" stop-color="#59E0E0"/>
<stop offset="0.99" stop-color="#65FFFF"/>
</linearGradient>
<linearGradient id="paint2_linear_27_2532" x1="85.8291" y1="82.4515" x2="108.08" y2="14.3603" gradientUnits="userSpaceOnUse">
<stop offset="0.01"/>
<stop offset="0.1" stop-color="#030707"/>
<stop offset="0.23" stop-color="#0A1A1A"/>
<stop offset="0.38" stop-color="#173939"/>
<stop offset="0.54" stop-color="#286565"/>
<stop offset="0.72" stop-color="#3E9D9D"/>
<stop offset="0.91" stop-color="#59E0E0"/>
<stop offset="0.99" stop-color="#65FFFF"/>
</linearGradient>
<linearGradient id="paint3_linear_27_2532" x1="70.1605" y1="133.233" x2="109.121" y2="13.9856" gradientUnits="userSpaceOnUse">
<stop stop-color="white"/>
<stop offset="0.99" stop-color="#A411A4"/>
</linearGradient>
<linearGradient id="paint4_linear_27_2532" x1="70.1605" y1="133.233" x2="109.121" y2="13.9858" gradientUnits="userSpaceOnUse">
<stop stop-color="white"/>
<stop offset="0.99" stop-color="#A411A4"/>
</linearGradient>
<linearGradient id="paint5_linear_27_2532" x1="41.7729" y1="150.828" x2="77.1296" y2="42.6113" gradientUnits="userSpaceOnUse">
<stop offset="0.01" stop-color="#65FFFF"/>
<stop offset="0.09" stop-color="#59E0E0"/>
<stop offset="0.28" stop-color="#3E9D9D"/>
<stop offset="0.46" stop-color="#286565"/>
<stop offset="0.62" stop-color="#173939"/>
<stop offset="0.77" stop-color="#0A1A1A"/>
<stop offset="0.9" stop-color="#030707"/>
<stop offset="0.99"/>
</linearGradient>
<linearGradient id="paint6_linear_27_2532" x1="41.8603" y1="22.3683" x2="33.177" y2="124.624" gradientUnits="userSpaceOnUse">
<stop stop-color="white"/>
<stop offset="0.99" stop-color="#A411A4"/>
</linearGradient>
<linearGradient id="paint7_linear_27_2532" x1="41.8604" y1="22.3683" x2="33.1771" y2="124.624" gradientUnits="userSpaceOnUse">
<stop stop-color="white"/>
<stop offset="0.99" stop-color="#A411A4"/>
</linearGradient>
<linearGradient id="paint8_linear_27_2532" x1="115.763" y1="63.7859" x2="129.594" y2="21.4542" gradientUnits="userSpaceOnUse">
<stop offset="0.01"/>
<stop offset="0.1" stop-color="#030707"/>
<stop offset="0.23" stop-color="#0A1A1A"/>
<stop offset="0.38" stop-color="#173939"/>
<stop offset="0.54" stop-color="#286565"/>
<stop offset="0.72" stop-color="#3E9D9D"/>
<stop offset="0.91" stop-color="#59E0E0"/>
<stop offset="0.99" stop-color="#65FFFF"/>
</linearGradient>
<linearGradient id="paint9_linear_27_2532" x1="89.0222" y1="97.2698" x2="115.561" y2="16.0432" gradientUnits="userSpaceOnUse">
<stop offset="0.01"/>
<stop offset="0.1" stop-color="#030707"/>
<stop offset="0.23" stop-color="#0A1A1A"/>
<stop offset="0.38" stop-color="#173939"/>
<stop offset="0.54" stop-color="#286565"/>
<stop offset="0.72" stop-color="#3E9D9D"/>
<stop offset="0.91" stop-color="#59E0E0"/>
<stop offset="0.99" stop-color="#65FFFF"/>
</linearGradient>
<linearGradient id="paint10_linear_27_2532" x1="91.2442" y1="70.5871" x2="100.785" y2="28.8232" gradientUnits="userSpaceOnUse">
<stop offset="0.01"/>
<stop offset="0.1" stop-color="#030707"/>
<stop offset="0.23" stop-color="#0A1A1A"/>
<stop offset="0.38" stop-color="#173939"/>
<stop offset="0.54" stop-color="#286565"/>
<stop offset="0.72" stop-color="#3E9D9D"/>
<stop offset="0.91" stop-color="#59E0E0"/>
<stop offset="0.99" stop-color="#65FFFF"/>
</linearGradient>
<linearGradient id="paint11_linear_27_2532" x1="91.4762" y1="66.2067" x2="98.9799" y2="33.3711" gradientUnits="userSpaceOnUse">
<stop stop-color="#A2B3FF"/>
<stop offset="0.99" stop-color="#A411A4"/>
</linearGradient>
<linearGradient id="paint12_linear_27_2532" x1="86.1284" y1="89.6494" x2="99.5497" y2="30.8529" gradientUnits="userSpaceOnUse">
<stop stop-color="white"/>
<stop offset="0.99" stop-color="#A411A4"/>
</linearGradient>
<linearGradient id="paint13_linear_27_2532" x1="44.8919" y1="84.1323" x2="37.3008" y2="106.538" gradientUnits="userSpaceOnUse">
<stop stop-color="#A2B3FF"/>
<stop offset="0.99" stop-color="#A411A4"/>
</linearGradient>
<linearGradient id="paint14_linear_27_2532" x1="53.8212" y1="69.3215" x2="40.2256" y2="109.444" gradientUnits="userSpaceOnUse">
<stop stop-color="white"/>
<stop offset="0.99" stop-color="#A411A4"/>
</linearGradient>
<linearGradient id="paint15_linear_27_2532" x1="34.9762" y1="147.207" x2="62.4422" y2="63.1319" gradientUnits="userSpaceOnUse">
<stop offset="0.01" stop-color="#65FFFF"/>
<stop offset="0.09" stop-color="#59E0E0"/>
<stop offset="0.28" stop-color="#3E9D9D"/>
<stop offset="0.46" stop-color="#286565"/>
<stop offset="0.62" stop-color="#173939"/>
<stop offset="0.77" stop-color="#0A1A1A"/>
<stop offset="0.9" stop-color="#030707"/>
<stop offset="0.99"/>
</linearGradient>
<linearGradient id="paint16_linear_27_2532" x1="67.4312" y1="121.816" x2="104.072" y2="9.67463" gradientUnits="userSpaceOnUse">
<stop stop-color="white"/>
<stop offset="0.99" stop-color="#A411A4"/>
</linearGradient>
<linearGradient id="paint17_linear_27_2532" x1="55.1401" y1="134.94" x2="90.3482" y2="27.1746" gradientUnits="userSpaceOnUse">
<stop stop-color="white"/>
<stop offset="0.99" stop-color="#A411A4"/>
</linearGradient>
<linearGradient id="paint18_linear_27_2532" x1="29.7255" y1="129.047" x2="41.7549" y2="92.2332" gradientUnits="userSpaceOnUse">
<stop offset="0.01" stop-color="#65FFFF"/>
<stop offset="0.09" stop-color="#59E0E0"/>
<stop offset="0.28" stop-color="#3E9D9D"/>
<stop offset="0.46" stop-color="#286565"/>
<stop offset="0.62" stop-color="#173939"/>
<stop offset="0.77" stop-color="#0A1A1A"/>
<stop offset="0.9" stop-color="#030707"/>
<stop offset="0.99"/>
</linearGradient>
<linearGradient id="paint19_linear_27_2532" x1="82.1542" y1="108.597" x2="96.1875" y2="65.6354" gradientUnits="userSpaceOnUse">
<stop offset="0.01" stop-color="#A411A4"/>
<stop offset="1" stop-color="white"/>
</linearGradient>
<linearGradient id="paint20_linear_27_2532" x1="89.2006" y1="124.213" x2="98.3223" y2="96.3005" gradientUnits="userSpaceOnUse">
<stop offset="0.01" stop-color="#A411A4"/>
<stop offset="1" stop-color="white"/>
</linearGradient>
<linearGradient id="paint21_linear_27_2532" x1="99.9039" y1="96.4015" x2="106.659" y2="75.7261" gradientUnits="userSpaceOnUse">
<stop offset="0.01" stop-color="#A411A4"/>
<stop offset="1" stop-color="white"/>
</linearGradient>
<linearGradient id="paint22_linear_27_2532" x1="16.9411" y1="94.6593" x2="41.8502" y2="18.4216" gradientUnits="userSpaceOnUse">
<stop offset="0.01"/>
<stop offset="0.1" stop-color="#030707"/>
<stop offset="0.23" stop-color="#0A1A1A"/>
<stop offset="0.38" stop-color="#173939"/>
<stop offset="0.54" stop-color="#286565"/>
<stop offset="0.72" stop-color="#3E9D9D"/>
<stop offset="0.91" stop-color="#59E0E0"/>
<stop offset="0.99" stop-color="#65FFFF"/>
</linearGradient>
<radialGradient id="paint23_radial_27_2532" cx="0" cy="0" r="1" gradientUnits="userSpaceOnUse" gradientTransform="translate(69.994 79.9481) scale(77.2069 77.2069)">
<stop offset="0.93"/>
<stop offset="0.94" stop-color="#15131A"/>
<stop offset="0.95" stop-color="#2D2939"/>
<stop offset="0.97" stop-color="#504865"/>
<stop offset="0.98" stop-color="#7C709D"/>
<stop offset="0.99" stop-color="#CAB6FF"/>
</radialGradient>
<radialGradient id="paint24_radial_27_2532" cx="0" cy="0" r="1" gradientUnits="userSpaceOnUse" gradientTransform="translate(83.4802 43.741) scale(129.118 129.118)">
<stop stop-color="white"/>
<stop offset="0.21" stop-color="#FEFDFE"/>
<stop offset="0.29" stop-color="#F9F6FB"/>
<stop offset="0.34" stop-color="#F2EBF5"/>
<stop offset="0.39" stop-color="#E7DAED"/>
<stop offset="0.42" stop-color="#D9C4E2"/>
<stop offset="0.46" stop-color="#C7A8D5"/>
<stop offset="0.49" stop-color="#B288C5"/>
<stop offset="0.51" stop-color="#9A62B3"/>
<stop offset="0.54" stop-color="#80399F"/>
<stop offset="0.56" stop-color="#66118B"/>
<stop offset="0.66" stop-color="#66118B"/>
<stop offset="1" stop-color="white"/>
</radialGradient>
<radialGradient id="paint25_radial_27_2532" cx="0" cy="0" r="1" gradientUnits="userSpaceOnUse" gradientTransform="translate(142.432 30.5343) scale(154.58 154.58)">
<stop offset="0.88"/>
<stop offset="0.89" stop-color="#220B30"/>
<stop offset="0.91" stop-color="#4F196E"/>
<stop offset="0.94" stop-color="#7325A2"/>
<stop offset="0.96" stop-color="#902FCA"/>
<stop offset="0.97" stop-color="#A535E7"/>
<stop offset="0.99" stop-color="#B23AF9"/>
<stop offset="1" stop-color="#B63BFF"/>
</radialGradient>
</defs>
</svg>
