<svg width="140" height="141" fill="none" xmlns="http://www.w3.org/2000/svg"><path fill-rule="evenodd" clip-rule="evenodd" d="M135.75 68.75a65.715 65.715 0 0 1-73.248 66.44 65.72 65.72 0 0 1-54.835-44.6A65.716 65.716 0 0 1 57.793 5.343 65.698 65.698 0 0 1 135.75 68.75Z" fill="url(#a)"/><path style="mix-blend-mode:screen" fill-rule="evenodd" clip-rule="evenodd" d="M41.04 32.19c3.384 10.24 18.572 7.093 33.741 10.113 15.17 3.02 14.278-15.206 23.773-18.553 9.495-3.347 2.255 10.077 16.515 20.008 14.261 9.93 18.844 13.06 8.04 18.789-10.804 5.73-5.62 19.098-15.388 21.554-9.767 2.455-14.733 7.057-23.518 2.383-8.785-4.675-10.24-10.641-16.188-11.041-5.948-.4-16.716 4.583-26.974 2.492-10.259-2.092-1.728-6.603 1.128-16.534 2.855-9.931-2.547-18.462-5.639-24.3-3.092-5.839.218-14.351.218-14.351s-1.528 9.73 3.493 16.606c5.02 6.876 6.056 19.135 6.293 27.665.236 8.53 14.915 2.91 26.901 5.82 11.987 2.911 26.32 11.769 34.759 4.348 8.44-7.421 4.911-13.623 10.913-18.662 6.003-5.038-12.604-6.42-17.115-15.824-4.511-9.404-8.713-5.457-18.971 1.382-10.259 6.84-16.116 1.146-27.047-.327C41.35 41.775 41.041 32.19 41.041 32.19Z" fill="url(#b)"/><path style="mix-blend-mode:screen" fill-rule="evenodd" clip-rule="evenodd" d="M101.937 47.523c-3.638-7.694-9.44-6.766-17.934 0-8.495 6.766-17.734 0-27.156-1.819-9.422-1.819-11.696 1.583-11.187 4.038 1.183 5.675 2.256 18.007 6.767 20.008 4.51 2 13.223-2.383 26.137 2.637s21.536 5.948 28.611-4.401c7.076-10.35-1.637-12.769-5.238-20.463Zm3.892 17.843c-4.602 10.15-18.352 8.294-28.102 5.02-9.749-3.273-20.371 0-24.173-1.946-3.801-1.946-7.693-16.806-5.838-19.28 4.71-6.348 17.006 4.31 26.337 3.274 9.331-1.037 18.971-11.15 21.681-8.712 2.71 2.437 14.715 11.495 10.095 21.644Z" fill="url(#c)"/><path style="mix-blend-mode:multiply" opacity=".3" fill-rule="evenodd" clip-rule="evenodd" d="M91.442 53.18c-2.582-3.947-6.802-3.474-12.932 0-6.13 3.474-12.732 0-19.607-.892-6.876-.89-8.422.8-8.058 2.056.855 2.91 1.619 9.24 4.875 10.313 3.255 1.073 9.549-1.219 18.861 1.364 9.313 2.583 15.534 3.038 20.627-2.273 5.092-5.312-1.165-6.621-3.766-10.568Zm2.82 9.094c-3.329 5.202-13.242 4.256-20.28 2.583-7.04-1.673-14.697 0-17.444-1-2.746-1-5.547-8.622-4.22-9.895 3.42-3.256 12.278 2.2 19.008 1.673 6.73-.527 13.696-5.73 15.678-4.456 1.983 1.273 10.55 5.948 7.258 11.15v-.055Z" fill="url(#d)"/><path fill-rule="evenodd" clip-rule="evenodd" d="m118.871 19.84.164.181a.594.594 0 0 0-.182-.182h.018Z" fill="url(#e)"/><path fill-rule="evenodd" clip-rule="evenodd" d="M137.569 51.943a.502.502 0 0 0 0-.218v.218Z" fill="url(#f)"/><path fill-rule="evenodd" clip-rule="evenodd" d="m118.853 19.84-2.056 3.874-.8-.8-3.419-.2h-2.601l-10.259-6.021-4.365 3.237-3.42 1.692-4.71 4.638v5.548l-7.858 8.585-4.784-.328-23.518-3.746-2.183-.692-3.42-4.092-1.745-6.312-4.966-3.128-.455-2.965 9.15-4.074 46.6-4.711 24.809 9.495Z" fill="#FF2300"/><path fill-rule="evenodd" clip-rule="evenodd" d="m137.605 51.724-3.692 2.638-.873-3.256-.728.618-10.713-8.003-5.675-4.128-5.129-3.22-3.074-8.476.891-1.146L134.44 46.56l3.165 5.166Zm-20.189-8.003-.473 1.346h-4.02l-5.82-1.928-1.255-2.583V39.12l11.568 4.601Zm-3.474 1.637-1.983.655v8.349l3.274 4.91 1.582 2.747h4.711l-7.584-16.66ZM92.406 39.32l.491 1.237-3.22 1.528-2.873.582-4.438-1.51.618-1.837h9.422Zm-24.391 1.837.4 1.164-3.165 4.347h-4.42l-6.293.855h-2.62l-2.346-1.11-8.512-.327v-2.983l26.956-1.946ZM38.312 7.58l1.928 3.765-3.183 3.674-1.237 4.02-1.946 13.623-.891 5.057 3.638 2.674 3.2 4.965v5.039l-1.818 19.298-11.204 6.82-4.639 6.421-2.928 14.115-.946 6.13H8.555l4.511-29.72 17.225-53.44 8.021-12.44Zm21.7 54.44.728 2.928v5.839l-2.256 5.729-9.64.637-5.748-3.238 16.916-11.896Z" fill="#FF2300"/><path fill-rule="evenodd" clip-rule="evenodd" d="M71.289 77.899h-.618l-10.66 3.765-25.009-1.346-5.602.436 31.34 4.693L71.288 77.9Zm40.397 11.04-1.855-1.346-12.186-1.637-7.276 6.566 1.364 3.71-2.71 2.129v7.803l.928 1.419 8.203-6.457 13.532-12.187Zm7.585 15.388-4.202-2.074h-11.386L89.95 112.712h-3.692l-3.892 3.492-1.437 2.656 9.95 1.728 21.08-7.058 7.312-9.203Zm8.349 5.292-4.511-.927-2.31-5.512-.6-5.438-2.783-5.53 3.183-8.148-.51-14.17 4.311-4.237 3.074-.8 1.201.873 5.765-7.24.091-1.382 4.402.6-6.02 37.579-5.293 14.332Z" fill="#FF2300"/><path fill-rule="evenodd" clip-rule="evenodd" d="m14.649 98.633-6.093 4.548a69.94 69.94 0 0 1 8.046-78.377A69.936 69.936 0 0 1 38.312 7.58l-2.6 7.694-2.474 4.784-.4 9.694-.419 4.948-1.018 1.673 4.71 3.802 2.256 5.183-3.474 23.1L17.45 81.39l-1.819 7.276-.982 9.967Z" fill="url(#g)"/><path fill-rule="evenodd" clip-rule="evenodd" d="M78.873 108.038 74 119.951l2.692 4.093v11.222l-5.457 4.547a69.895 69.895 0 0 1-61.187-33.904l7.002-6.62v-12.15l2.729-3.51 9.567-2.875 30.066 2.874 11.823-5.73 11.677 10.914v11.641l-4.038 7.585Z" fill="url(#h)"/><path fill-rule="evenodd" clip-rule="evenodd" d="m118.853 19.84-4.857 1.218h-4.984l-8.203-5.784-2.255 1.674-2.874 2.182-4.293 1.928-4.729 5.148v4.82l-9.094 7.094-26.665-3.42-5.239-3.638-1.727-6.075-5.748-5.82 2.055-6.294 1.528-6.93a69.535 69.535 0 0 1 15.151-4.71 70.21 70.21 0 0 1 11.823-1.2 69.827 69.827 0 0 1 50.019 19.843l.092-.036Z" fill="url(#i)"/><path fill-rule="evenodd" clip-rule="evenodd" d="m119.271 104.327 5.984 8.512a69.877 69.877 0 0 1-39.251 25.155l-.764-2.382-1.82-1.583.62-11.422-3.075-3.747 5.93-5.184 4.929.782 12.914-11.277h9.84l4.693 1.146Z" fill="url(#j)"/><path fill-rule="evenodd" clip-rule="evenodd" d="M112.705 23.714h9.84a69.465 69.465 0 0 1 15.042 28.01l-3.637-3.801-1.437 1.819-9.968-6.64-10.913-7.475-3.019-8.894 4.092-3.02Z" fill="url(#k)"/><path fill-rule="evenodd" clip-rule="evenodd" d="M139.97 68.677a69.636 69.636 0 0 1-12.35 40.943l-4.457-5.293-1.655-6.985-2.455-6.33 2.273-5.565 1.219-15.752 3.474-3.383 1.455-1.455 1.819 1.328 7.585-8.458h2.037a70.057 70.057 0 0 1 1.055 10.95Z" fill="url(#l)"/><path fill-rule="evenodd" clip-rule="evenodd" d="m42.386 73.624-3.274-5.166 1.637-7.548 3.075-2.42 14.35 3.53h1.837v6.438l-1.637 6.712-8.803 1.346-7.184-2.892Z" fill="url(#m)"/><path fill-rule="evenodd" clip-rule="evenodd" d="M89.95 99.289v8.294h4.511l9.64-6.294 5.53-.855 4.31-5.11-2.255-6.385-13.733-2.419-6.984 7.44 1.037 3.091-2.056 2.238Z" fill="url(#n)"/><path fill-rule="evenodd" clip-rule="evenodd" d="M112.505 85.247v-2.565l3.492-3.074 2.856 6.84-4.911 2.073-1.437-3.274Z" fill="url(#o)"/><path fill-rule="evenodd" clip-rule="evenodd" d="m121.527 62.02 3.728-6.021-3.728-8.476-7.585-2.165v8.33l3.274 4.803 4.311 3.528Z" fill="url(#p)"/><path fill-rule="evenodd" clip-rule="evenodd" d="m82.984 39.32 2.492-3.91 5.493-.71 1.437 4.62-4.71 1.837-4.712-1.837Z" fill="url(#q)"/><path fill-rule="evenodd" clip-rule="evenodd" d="m62.794 39.211-8.93-2.146h-5.948l-3.474 2.146-3.383 4.31 1.328 1.838 9.021.618 2.256 1.128 11.077-1.019 3.274-4.929-1.546-1.018-3.674-.928Z" fill="url(#r)"/><path fill-rule="evenodd" clip-rule="evenodd" d="m116.506 41.157-4.001-3.055-4.311-1.037-2.346 2.055 2.037 3.692 4.62.91h4.911l-.91-2.565Z" fill="url(#s)"/><path fill-rule="evenodd" clip-rule="evenodd" d="m79.365 76.516 1.364 3.092 2.8 2.056 2.456-.455 1.637-1.237-3.692-2.82-2.037-.636h-2.528Zm8.603 2.583.273.127.782.382h1.273l-.89-.51-.692-.545-.746.546Zm8.331-5.202 2.328-1.292h2.255l-.527.637-1.764 1.127h-1.947l-.345-.472Zm11.84-10.659V62.02l.473-.619.546.618-.546 1.492-.473-.273Zm3.82 13.278.546-1.11 1.437-.418v2.91l-1.983.655-.691-1.4.691-.637ZM97.154 34.7l3.092 2.055 1.491-.31.364-1.127-.473-2.928-3.365-.2-1.11 1.691v.819Zm6.275.673.927-.673.619.673-.782.982-.764-.473v-.51Z" fill="#FF5100"/><path d="m43.442 127.79 1.364 3.092 2.801 2.056 2.474-.455 1.637-1.237-3.693-2.837-2.055-.619h-2.528Zm8.621 2.583.273.128.782.382h1.255l-.873-.51-.69-.545-.747.545Zm8.331-5.202 2.328-1.291h2.256l-.528.636-1.764 1.128H60.74l-.346-.473ZM16.25 110.056l1.928 1.837.673 2.165-.782-.328-1.601-1.346-.564-1.855.346-.473Zm73.264 8.858v-1.218l.473-.619.546.619-.546 1.491-.473-.273ZM64.923 92.213v-1.219l.491-.618.546.618-.546 1.492-.491-.273Zm65.08-48.092v-1.2l.473-.637.545.637-.545 1.473-.473-.273ZM93.989 92.995v-1.218l.491-.619.546.619-.546 1.491-.491-.273Zm-82.523-4.183v-1.219l.49-.618.547.618-.546 1.492-.491-.273Zm81.868 43.398.546-1.127 1.437-.419v2.911l-1.983.654-.691-1.4.691-.619ZM61.249 85.974l3.092 2.055 1.492-.309.345-1.127-.454-2.929-3.384-.2-1.091 1.692v.818ZM83.003 10.4l3.11 2.055 1.473-.31.364-1.127-.455-2.929-3.383-.2-1.11 1.692v.819Zm40.07 72.519 2.71 2.055 1.291-.31.309-1.127-.4-2.928-2.965-.2-.945 1.691v.819Zm-99.566 5.438 3.11 2.055 1.474-.309.363-1.11L28 86.066l-3.383-.2-1.11 1.692v.8Zm44.017-1.71.91-.673.618.673-.764.964-.764-.455v-.509Zm53.021-56.64.927-.673.619.673-.764.982-.782-.473v-.509ZM98.863 95.214l.91-.673.618.673-.764.964-.764-.455v-.51Zm-87.124-4.311.91-.672.618.672-.764.965-.764-.455v-.51Zm86.178 37.215 2.965-6.112h8.985l-2.983 3.638-3.801 4.184-5.166-1.71Zm25.192-48.255.291-8.585 1.674-1.165.454 3.238-2.419 6.512ZM21.924 95.323l.546-4.438 1.673-1.146.455 3.238-2.674 2.346ZM136.55 72.605v-5.62l1.346-2.801-1.346 8.421ZM62.686 13.51l-3.129 3.328 1.82 4.22 5.71-2.019 4.202-1.146.037-3.801-5.875-1.965-2.765 1.383Zm-3.129-.746v-1.819L58.066 11l-.51 1.127 2.001.637ZM23.562 56.908v-1.837l-1.492.073-.51 1.128 2.002.636Zm70.791-42.816 1.946-2.692 2.292-1.055L101.119 12l-2.074 4.584-5.602 2.019.91-4.51Zm15.405 15.115 7.658 2.983 5.693 7.13v3.346l-11.423-7.13-1.928-6.33ZM18.705 55.999l-3.51-4.056-3.875 4.056-.636 5.402 5.602 1.11 2.947-5.403L18.705 56Zm.528-4.056v-1.128l3.328-2.746v1.746l-3.328 2.128Zm-1.401-19.844V30.97l3.329-2.747v1.728L17.832 32.1Zm9.077 34.213 1.946-2.182 2.364-.564v3.165l-2.164 1.146-2.146-1.565Zm44.289-48.273 1.946-2.183 2.365-.582v3.165l-2.146 1.164-2.165-1.564ZM11.994 42.266l1.073-3.146-1.073-1.4-1.31.381-1.2 3.984 2.51.181ZM5.373 66.985l-.964.528.473 2.746.49-2.383v-.89Zm12.659 23.191.4-1.71 2.547.164-2.128 1.946-.819-.4Zm85.16 5.802.401-1.71 2.528.164-2.11 1.946-.819-.4Z" opacity=".3" fill-rule="evenodd" clip-rule="evenodd" fill="#FF5100"/><path d="m49.79 25.005 1.364 3.092 2.801 2.056 2.474-.455 1.637-1.237-3.693-2.837-2.055-.619H49.79Zm8.603 2.583.291.127.783.382h1.255l-.874-.509-.69-.564-.765.564Zm8.349-5.202 2.328-1.291h2.255l-.527.636-1.765 1.128h-1.946l-.345-.473Zm11.822-10.659V10.51l.473-.637.546.637-.546 1.49-.473-.273Zm4.275 9.077.546-1.11 1.437-.418v2.91l-1.983.637-.673-1.4.673-.62ZM60.74 108.037l.545-1.127 1.437-.4v2.892l-1.983.654-.69-1.4.69-.619Zm-4.238-1.782.545-1.128 1.437-.4v2.91l-1.982.637-.692-1.401.692-.618Zm10.585-96.91L70.18 11.4l1.491-.31.346-1.127-.455-2.91-3.383-.219-1.092 1.71v.8ZM38.585 116.913l3.092 2.055 1.492-.309.364-1.127-.473-2.929-3.384-.2-1.09 1.692v.818ZM73.363 10.018l.91-.674.618.674-.764.982-.764-.473v-.51ZM15.195 76.007v-4.165l7.512-3.966h7.239l-1.091 4.057-7.221 6.275-6.44-.31v-1.891ZM13.54 74.37l.327-3.383h-3.183l-.564 4.001 1.2 1.019 2.22-1.637Zm1.655-3.892v-2.602h2.182l-.473.728-1.71 1.874Zm15.296-24.174-1.09 5.42 3.51 6.421 2.31 1.346 2.4-9.676-1.8-4.457-3.965-1.637-1.365 2.583ZM29.4 43.721v-3.82l-1.91.273-1.51 2.092 1.71 2.074 1.71-.619Zm0-12.695v-5.657h-1.71l-1.71 1.655 1.71 4.002h1.71Zm1.783 72.155 2.328 5.675 4.11.855 5.475.673 2.51-3.602-1.582-10.55-2.056-6.893-10.786 2.092-1.236 10.822 1.236.928Zm19.625-4.821v-4.4l5.384-.837.946 9.131-5.875.928-1.692-4.293 1.237-.528Zm8.495-1.582v-2.82l2.073-.836-.637 3.929-1.436-.273Zm30.647 35.76 1.783-4.42 13.278-2.565-.819 2.565-7.894 5.238-3.892.673-2.456-1.491Zm1.784-5.33 3.292-1.655v-2.946l-2.128-.601-1.164 5.202Zm16.915-16.824 3.856-2.183 2.491 1.51-2.382 1.364-3.965-.691Zm16.606-12.224 2.001-9.64 8.513-2.073-1.801 6.676-4.893 8.439-3.82-3.401Zm0 5.021.983-1.619 3.292 2.892-2.147 3.129-2.128-4.402Z" style="mix-blend-mode:multiply" opacity=".79" fill-rule="evenodd" clip-rule="evenodd" fill="#CE7E9C"/><path fill-rule="evenodd" clip-rule="evenodd" d="m31.31 36.373-7.658 1.819-4.438 2.874-8.13 4.365-8.204 7.276-1.982 6.766c.426-3.4 1.181-6.75 2.255-10.004l.637 1.146 4.22-2.928 2.419-2.42 3.001-1.964 8.04-4.22 1.818-1.382 9.095-4.638.436 1.655-1.51 1.655ZM17.359 81.39l-3.274 2.238H9.5L4.044 81.68.407 76.225a33.322 33.322 0 0 0 1.928 11.222S4.99 82.846 6.1 83.046c1.11.2 4.783 1.364 4.783 1.364h3.82l2.2 1.437.456-4.456Zm83.469-66.116 1.273-5.893-.637-1.965 2.219 1.165-1.091 1.018-.964 4.784.473 2.455-1.273-1.564Zm-14.17 10.913-8.094 2.001-.364 1.291-3.219 2.71v5.53l.691.218-.31-3.747.474-2.128 2.728-2.346.855-1.364 6.439-1.71 1.182.346-.382-.8Zm42.653 39.998 2.056 10.586 4.401 2.328v4.965l1.838 1.383.418 1 .6-2.783-1.419 1.11-.818-1.11-.309-4.365-.037-.437-2.528-1.382-2.292-3.11-1.182-6.22-.164-2.602-.564.637ZM92.006 97.05l2.765 1.82 1.8 1.801h4.802l2.31.891.419-.273-2.474-.782-1.273-.255-4.256-.6-1.565-1.164-2.8-2.256.272.819Zm-18.007 22.901-9.331-1.401-12.678-4.874-.073-3.965-4.074-2.128-3.82-11.35 2.529-6.094v-4.183l4.256-2.365.4-.745 2.42.218-3.548 1.146-2.91 1.928-.382 4.201-1.182 2.892.055 5.912.727 2.91 1.4 4.675 2.765 1.891 1.51.782.437 3.82 4.165 1.673 6.802 2.911 4.402.745 6.694-.018-.564 1.419Zm17.789-5.493 6.803.582 2.291-.582 10.386 1.874 1.346-.473 9.185-2.947 2.219-1.837.673.964-3.037 1.328-11.168 3.547-1.71-.51-7.966-1.055-5.33.273-4.674-1.328.982.164Z" fill="#FF2300"/><path fill-rule="evenodd" clip-rule="evenodd" d="m52.063 109.401-.145.309.145 4.129.819.182-.382-.8-.437-3.82ZM22.16 82.937l-5.602-1-2.473 1.69H11.32l1.073.728h2.31l2.965 2.056 2.164-2.783 2.329-.691Zm44.418 35.395 1.855.782 2.001.31 2.401-.873-6.257-.219Zm34.304-3.874-2.292 1 3.711.091 2.31-.418-3.729-.673Zm-9.095 0-1.837-1.746.346 1.746h1.491Z" fill="#FF9F00"/><path style="mix-blend-mode:screen" fill-rule="evenodd" clip-rule="evenodd" d="M79.801 115.858c.673-1.637 3.892-2.491 8.33-3.637 4.439-1.146.837-3.074.219-6.075-.31-1.528.727-10.914-.182-13.57-.91-2.655-3.51.346-4.31 1.401-.801 1.055.89 4.347-.365 7.403-1.255 3.056-4.383 11.714-6.802 14.806-2.42 3.092 0 4.984 1.037 8.821a31.251 31.251 0 0 1 0 10.15l.836-.109s.419-8.968-.4-11.641c-.818-2.674-.527-7.276 1.946-12.623 2.71-5.803 4.147-9.713 5.22-9.404 1.074.309 2.965 3.638 2.51 8.003-.127 1.219-5.31 2.365-7.675 5.457-2.365 3.092-.982 7.275.764 10.695 1.746 3.419-.255 9.094-.255 9.094l2.183-.4s0-4.984.418-9.44c.418-4.456-5.11-4.893-3.474-8.931Z" fill="url(#t)"/><path fill-rule="evenodd" clip-rule="evenodd" d="m108.648 86.447 1.728-1 .491 1.073-2.219-.073Zm-.036-15.97.819-2.6 2.255-1.147-3.074 3.747Zm-4.001-5.62 1.237-2.092v-1.364l-1.237-.418-.419 2.528.419 1.346Zm-16.988-1.346.345-.582 1.71.291-1.019.964-1.036-.673Zm9.531-23.337.764 1.91 4.019.582-1.582-2.764-3.201.272Z" fill="#FF0"/><path fill-rule="evenodd" clip-rule="evenodd" d="m75.8 39.902-.128-1.964-.691-1.91v1.691l.818 2.183Z" fill="#FF7C00"/><path fill-rule="evenodd" clip-rule="evenodd" d="m38.003 69.695-3.2-1.237 2.31-15.37h2.29l-1.782-2.328.673-5.42 1.528.018-.545 15.006-1.274 9.33Zm13.915-22.172 1.746-.418-2.256-1.128-1.837.437 2.347 1.11Zm27.447-7.13-1.71-2.292 9.004-7.075.564.782-7.858 8.585Zm34.577 13.297-1.983.672 4.002 6.184 2.982-.636-1.727-1.419-3.274-4.802ZM97.645 85.956l.309.564 13.733 2.419-1.856-1.346-12.186-1.637Zm19.771 6.257 1.655-1.2 2.255-5.566-.727-1.383-3.183 8.149ZM35.293 22.714l-2.128-2.656-.691 13.041.51 4.62 2.31-15.005Zm1.764-7.694-.545-2.256 1.8-5.184 1.929 3.765-3.184 3.674ZM48.88 35.628l2.128-.928 8.858 1.128.855 2.019-9.658-1.528-2.183-.691Zm16.57 11.113-.71-.655 3.275-4.929.4 1.164-2.965 4.42Zm55.513 56.822 2.2.764-1.637-6.985-1.327.4.764 5.821Zm-.874-33.668 2.456-.2-.291 3.784-1.928 3.037-.237-6.62Zm12.951-18.789 1.764-2.346 2.802 2.965-3.693 2.637-.873-3.256ZM59.466 83.628l.546-1.965 7.076-2.51-.255.91-7.367 3.565Zm-5.839-.564.8-1.71-2.819-.145-.4 1.636-.472.783-.528.545.764-.254 2.655-.855Z" fill="#FF5C00"/><path fill-rule="evenodd" clip-rule="evenodd" d="m78.437 29.825-.237-.345.364-1.292 3.802-.818-2.947.982-.982 1.473Zm21.281-13.132.818-1.673 1.092-2.256v1.619l-1.91 2.31ZM23.67 38.101h-.854l-6.621 3.783-.418.782 3.728-1.51 4.166-3.055ZM2.88 52.689l2.074-2.856-1.037.564-.673-.728-1.037 3.184.055 1.982.618-2.146Zm93.218 46.963.473 1.019h4.802l-1.018-.419-4.257-.6Zm35.123-25.282-.2.618.345 1.783 1.965 1.037 1.146.2-.964-.528-2.292-3.11ZM14.649 98.633l2.455.655v-3.037l-2.164-1.164-.291 3.546Zm29.375-2.4 1.637 2.91-.055-5.911-1.582 3Zm85.287-30.048.327 1.691.237-2.328-.801-.309-.4.491.637.455Z" fill="#FF9F00"/><path fill-rule="evenodd" clip-rule="evenodd" d="m33.165 20.058-1.546-1.71-2-1.328-.219-4.001 1-.71-.727 2.71.418 1.728 1.182 1.146 2.292 1.383-.4.782Zm43.525 109.77-9.166 3.11-13.15 1.783-5.076.291-2.746.163h-1.237l.873.473 8.494-.473 9.586-1.146 2.765-.345 3.037.345 6.62-3.146v-1.055Zm40.726-25.938.545 2.62v4.565l3.02.346 2.31-1.365-.31-.436-1.109.982-1.673.473-1.801-.255-.328-1.055v-3.819l.037-1.892-.691-.164Zm16.606-55.967v-3.529l-5.475-6.42-2.619-1.619-.673-1.873.582-4.657.764-1.055.6.819-1.473 2.346V34.7l.837 1.655 2.619 1.746 5.257 6.294v3.965l-.419-.437ZM31.31 36.373l-6.712 5.894-.2 3.073-5.802.964-6.857 1.765-1.62.473-2.819.181.746-.654 2.128.273 1.637-.564 7.712-1.856 4.147-1.473.382-.927.237-1.255 5.438-4.802.073-.746 1.51-.346ZM17.104 99.289l3.22 13.55 1.237 1.619.363 2.619 1.328 4.766-1.546-1.437.237-1.946-.328-1.947-.782-2.455-.891-1.437-2.565-8.24.31-1.546-1.056-3.092.473-.454Zm26.92-74.339 4.856-3.892v-4.875l2.729-4.329 6.948-5.62-.164-1.564-1.382-3.474-1.31.254 2.092 2.747.346 1.837L51.299 12l-3.073 4.584.2 1.928-.473 2.546-3.038 2.747-1.873.163.982.982Z" fill="#FF2300"/><path fill-rule="evenodd" clip-rule="evenodd" d="m48.88 16.184.2-1.165 2.256-3.164.836-.455-3.292 4.784Zm-.891 4.692.891.182-.455-2.546-.436 2.364Zm-4.274 4.348.491-.273.71-1.146-1.874.164.673 1.255ZM23.67 44.45l.728.89.182-2.782.218-.473-.273-.037-.236.219-.619 2.182Zm9.895-25.174.691 2.146-1.09-1.364-1.547-1.71h.418l1.528.928Z" fill="#FF9F00"/><path style="mix-blend-mode:multiply" opacity=".5" fill-rule="evenodd" clip-rule="evenodd" d="M138.624 83.664c1-4.937 1.458-9.969 1.364-15.006a69.949 69.949 0 0 0-1.037-10.913l-4.42-.6c-.181-.982-.4-1.946-.636-2.892v.127l3.638-2.637a68.695 68.695 0 0 0-10.404-22.118l-.601-.818c-1.273-1.82-2.601-3.456-4.038-5.075h-5.765l-.31-.327.328.327.618-3.874c-4.511-4.42-8.185-8.185-13.751-11.24l-.8-.42-.964-.509-.455-.236c-.618-.31-1.218-.618-1.819-.891A69.208 69.208 0 0 0 68.78.014a70.21 70.21 0 0 0-11.823 1.2l-1.31.273a68.426 68.426 0 0 0-13.86 4.42l-1.145 5.22-.51.255-1.928-3.765a75.112 75.112 0 0 0-7.912 4.729l-.236.163-.273.2-.491.346A70.118 70.118 0 0 0 3.044 49.56 52.877 52.877 0 0 0 .79 59.564a72.756 72.756 0 0 0-.782 11.677c0 1.71.127 3.402.29 5.057A33.322 33.322 0 0 0 2.227 87.52a68.769 68.769 0 0 0 6.22 15.788h4.42l-2.874 2.729a70.971 70.971 0 0 0 11.605 14.551l.637.582.763.727.146.128a69.828 69.828 0 0 0 22.918 13.787 69.494 69.494 0 0 0 25.082 4.165l5.457-4.547 1.037-.109h.763c.71-.091 1.401-.182 2.11-.31h.31l.655-.109 1.218-.236.728-.146 1.655 1.419.764 2.383a69.881 69.881 0 0 0 39.251-25.156l-.563-.8-.692-.964-.709-1.018-.2-.273-.4-.582c.143-.168.277-.344.4-.528l4.511.928a69.651 69.651 0 0 0 10.386-23.19l.109-.492c.127-.527.254-1.055.364-1.6l.327-.983Z" fill="url(#u)"/><path style="mix-blend-mode:multiply" fill-rule="evenodd" clip-rule="evenodd" d="M138.624 83.664c1-4.937 1.458-9.969 1.364-15.006a69.949 69.949 0 0 0-1.037-10.913l-4.42-.6c-.181-.982-.4-1.946-.636-2.892v.127l3.638-2.637a68.695 68.695 0 0 0-10.404-22.118l-.601-.818c-1.273-1.82-2.601-3.456-4.038-5.075h-5.765l-.31-.327.328.327 2.055-3.874a69.347 69.347 0 0 0-15.188-11.24l-.8-.42-.964-.509-.455-.236c-.618-.31-1.218-.618-1.819-.891A69.208 69.208 0 0 0 68.78.014a70.21 70.21 0 0 0-11.823 1.2l-1.31.273a68.426 68.426 0 0 0-13.86 4.42l-1.145 5.22-.51.255-1.928-3.765a75.112 75.112 0 0 0-7.912 4.729l-.236.163-.273.2-.491.346A70.118 70.118 0 0 0 3.044 49.56 52.877 52.877 0 0 0 .79 59.564a72.756 72.756 0 0 0-.782 11.677c0 1.71.145 3.401.29 5.093a33.322 33.322 0 0 0 1.929 11.223 68.869 68.869 0 0 0 6.202 15.806h4.42l-2.874 2.728a70.945 70.945 0 0 0 11.605 14.551l.636.582.764.728.146.127a69.794 69.794 0 0 0 22.918 13.787 69.45 69.45 0 0 0 25.082 4.165l5.457-4.547 1.037-.109h.763a42.39 42.39 0 0 0 2.11-.309h.31l.654-.109 1.22-.237.727-.145 1.655 1.419.764 2.382a69.88 69.88 0 0 0 39.251-25.155l-.564-.8-.691-.964-.818-1.183-.2-.272-.291-.419c.143-.168.277-.344.4-.527l4.511.927a69.647 69.647 0 0 0 10.385-23.19l.11-.491c.127-.528.254-1.055.363-1.601l.346-1.037Zm-5.457-32.249v-.309.31Zm0-.29.109.363-.109-.364Zm-17.061-28.212.218.2-.218-.2Z" fill="url(#v)"/><defs><radialGradient id="a" cx="0" cy="0" r="1" gradientUnits="userSpaceOnUse" gradientTransform="matrix(91.9264 -1.8389 2.0595 102.9534 81.663 25.311)"><stop offset=".03" stop-color="#FFDB00"/><stop offset=".35" stop-color="#FFB600"/><stop offset=".44" stop-color="#FFAE00"/><stop offset=".59" stop-color="#FF9800"/><stop offset=".76" stop-color="#FF7500"/><stop offset=".89" stop-color="#FF5600"/><stop offset="1" stop-color="#EC43AC"/></radialGradient><radialGradient id="e" cx="0" cy="0" r="1" gradientUnits="userSpaceOnUse" gradientTransform="matrix(.1273 0 0 .1426 118.962 18.705)"><stop offset=".03" stop-color="#D14315"/><stop offset=".29" stop-color="#B03D20"/><stop offset=".89" stop-color="#340019"/><stop offset="1" stop-color="#89217F"/></radialGradient><radialGradient id="f" cx="0" cy="0" r="1" gradientUnits="userSpaceOnUse" gradientTransform="matrix(.14551 0 0 .16296 137.624 50.627)"><stop offset=".03" stop-color="#D14315"/><stop offset=".29" stop-color="#B03D20"/><stop offset=".89" stop-color="#340019"/><stop offset="1" stop-color="#89217F"/></radialGradient><radialGradient id="g" cx="0" cy="0" r="1" gradientUnits="userSpaceOnUse" gradientTransform="translate(86.731 31.262) scale(108.933)"><stop offset=".03" stop-color="#BD3115"/><stop offset=".29" stop-color="#9C3620"/><stop offset=".89" stop-color="#340019"/><stop offset="1" stop-color="#89217F"/></radialGradient><radialGradient id="h" cx="0" cy="0" r="1" gradientUnits="userSpaceOnUse" gradientTransform="translate(86.731 31.262) scale(108.933)"><stop offset=".03" stop-color="#BD3115"/><stop offset=".29" stop-color="#9C3620"/><stop offset=".89" stop-color="#340019"/><stop offset="1" stop-color="#89217F"/></radialGradient><radialGradient id="i" cx="0" cy="0" r="1" gradientUnits="userSpaceOnUse" gradientTransform="translate(86.731 31.262) scale(108.933)"><stop offset=".03" stop-color="#BD3115"/><stop offset=".29" stop-color="#9C3620"/><stop offset=".89" stop-color="#340019"/><stop offset="1" stop-color="#89217F"/></radialGradient><radialGradient id="j" cx="0" cy="0" r="1" gradientUnits="userSpaceOnUse" gradientTransform="translate(86.731 31.262) scale(108.933)"><stop offset=".03" stop-color="#BD3115"/><stop offset=".29" stop-color="#9C3620"/><stop offset=".89" stop-color="#340019"/><stop offset="1" stop-color="#89217F"/></radialGradient><radialGradient id="k" cx="0" cy="0" r="1" gradientUnits="userSpaceOnUse" gradientTransform="translate(86.731 31.262) scale(108.933)"><stop offset=".03" stop-color="#BD3115"/><stop offset=".29" stop-color="#9C3620"/><stop offset=".89" stop-color="#340019"/><stop offset="1" stop-color="#89217F"/></radialGradient><radialGradient id="l" cx="0" cy="0" r="1" gradientUnits="userSpaceOnUse" gradientTransform="translate(86.731 31.262) scale(108.933)"><stop offset=".03" stop-color="#BD3115"/><stop offset=".29" stop-color="#9C3620"/><stop offset=".89" stop-color="#340019"/><stop offset="1" stop-color="#89217F"/></radialGradient><radialGradient id="m" cx="0" cy="0" r="1" gradientUnits="userSpaceOnUse" gradientTransform="translate(86.75 31.262) scale(108.933)"><stop offset=".03" stop-color="#BD3115"/><stop offset=".29" stop-color="#9C3620"/><stop offset=".89" stop-color="#340019"/><stop offset="1" stop-color="#89217F"/></radialGradient><radialGradient id="n" cx="0" cy="0" r="1" gradientUnits="userSpaceOnUse" gradientTransform="translate(86.75 31.262) scale(108.933)"><stop offset=".03" stop-color="#BD3115"/><stop offset=".29" stop-color="#9C3620"/><stop offset=".89" stop-color="#340019"/><stop offset="1" stop-color="#89217F"/></radialGradient><radialGradient id="o" cx="0" cy="0" r="1" gradientUnits="userSpaceOnUse" gradientTransform="translate(86.75 31.262) scale(108.933)"><stop offset=".03" stop-color="#BD3115"/><stop offset=".29" stop-color="#9C3620"/><stop offset=".89" stop-color="#340019"/><stop offset="1" stop-color="#89217F"/></radialGradient><radialGradient id="p" cx="0" cy="0" r="1" gradientUnits="userSpaceOnUse" gradientTransform="translate(86.731 31.262) scale(108.933)"><stop offset=".03" stop-color="#BD3115"/><stop offset=".29" stop-color="#9C3620"/><stop offset=".89" stop-color="#340019"/><stop offset="1" stop-color="#89217F"/></radialGradient><radialGradient id="q" cx="0" cy="0" r="1" gradientUnits="userSpaceOnUse" gradientTransform="translate(86.75 31.262) scale(108.933)"><stop offset=".03" stop-color="#BD3115"/><stop offset=".29" stop-color="#9C3620"/><stop offset=".89" stop-color="#340019"/><stop offset="1" stop-color="#89217F"/></radialGradient><radialGradient id="r" cx="0" cy="0" r="1" gradientUnits="userSpaceOnUse" gradientTransform="translate(86.731 31.262) scale(108.933)"><stop offset=".03" stop-color="#BD3115"/><stop offset=".29" stop-color="#9C3620"/><stop offset=".89" stop-color="#340019"/><stop offset="1" stop-color="#89217F"/></radialGradient><radialGradient id="s" cx="0" cy="0" r="1" gradientUnits="userSpaceOnUse" gradientTransform="translate(86.731 31.262) scale(108.933)"><stop offset=".03" stop-color="#BD3115"/><stop offset=".29" stop-color="#9C3620"/><stop offset=".89" stop-color="#340019"/><stop offset="1" stop-color="#89217F"/></radialGradient><radialGradient id="u" cx="0" cy="0" r="1" gradientUnits="userSpaceOnUse" gradientTransform="translate(79.892 37.5) scale(104.131)"><stop offset=".68" stop-color="#fff"/><stop offset=".69" stop-color="#EBE0F0"/><stop offset=".71" stop-color="#CCB0D8"/><stop offset=".73" stop-color="#B185C4"/><stop offset=".75" stop-color="#9A61B2"/><stop offset=".77" stop-color="#8744A4"/><stop offset=".79" stop-color="#782D99"/><stop offset=".81" stop-color="#6E1D91"/><stop offset=".84" stop-color="#68148C"/><stop offset=".88" stop-color="#66118B"/><stop offset="1" stop-color="#fff"/></radialGradient><radialGradient id="v" cx="0" cy="0" r="1" gradientUnits="userSpaceOnUse" gradientTransform="translate(84.585 34.918) scale(155.46)"><stop offset=".39" stop-color="#fff"/><stop offset=".4" stop-color="#E5D7EB"/><stop offset=".42" stop-color="#CBAED7"/><stop offset=".43" stop-color="#B388C5"/><stop offset=".45" stop-color="#9E68B5"/><stop offset=".47" stop-color="#8C4CA8"/><stop offset=".49" stop-color="#7E369D"/><stop offset=".52" stop-color="#732595"/><stop offset=".55" stop-color="#6C1A8F"/><stop offset=".6" stop-color="#67138C"/><stop offset=".72" stop-color="#66118B"/><stop offset="1" stop-color="#fff"/></radialGradient><linearGradient id="b" x1="35.221" y1="55.581" x2="129.057" y2="55.581" gradientUnits="userSpaceOnUse"><stop offset=".01"/><stop offset=".23" stop-color="#3E2D02"/><stop offset=".61" stop-color="#A57706"/><stop offset=".87" stop-color="#E6A608"/><stop offset=".99" stop-color="#FFB809"/></linearGradient><linearGradient id="c" x1="45.588" y1="59.128" x2="109.849" y2="59.128" gradientUnits="userSpaceOnUse"><stop offset=".01"/><stop offset=".23" stop-color="#3E2D02"/><stop offset=".61" stop-color="#A57706"/><stop offset=".87" stop-color="#E6A608"/><stop offset=".99" stop-color="#FFB809"/></linearGradient><linearGradient id="d" x1="50.79" y1="59.127" x2="97.154" y2="59.127" gradientUnits="userSpaceOnUse"><stop stop-color="#FFE9B6"/><stop offset=".11" stop-color="#FFE2B5"/><stop offset=".26" stop-color="#FFD0B4"/><stop offset=".44" stop-color="#FFB2B1"/><stop offset=".64" stop-color="#FF89AD"/><stop offset=".85" stop-color="#FF54A8"/><stop offset=".99" stop-color="#FF2AA4"/></linearGradient><linearGradient id="t" x1="82.984" y1="135.175" x2="82.984" y2="91.576" gradientUnits="userSpaceOnUse"><stop offset=".01"/><stop offset=".23" stop-color="#3E2D02"/><stop offset=".61" stop-color="#A57706"/><stop offset=".87" stop-color="#E6A608"/><stop offset=".99" stop-color="#FFB809"/></linearGradient></defs></svg>