<svg width="140" height="137" fill="none" xmlns="http://www.w3.org/2000/svg"><g clip-path="url(#a)" fill-rule="evenodd" clip-rule="evenodd"><path d="M138.055 68.12a66.3 66.3 0 0 1-38.341 60.128A66.306 66.306 0 1 1 60.511 2.782a67.293 67.293 0 0 1 11.24-.947 66.265 66.265 0 0 1 66.304 66.285Z" fill="url(#b)"/><path style="mix-blend-mode:screen" d="M100.849 8.536c-.269.469-7.748 13.961 4.647 19.665 12.625 5.784 23.235 2.683 22.198 10.132-1.037 7.45-20.333 23.026-16.195 37.037 4.139 14.011 26.477 4.138 10.132 30.814-16.344 26.676-55.445 22.139-55.236 10.551.21-11.588 22.936-8.068 17.591-20.274-5.345-12.206 14.06-27.722-7.858-37.027C54.209 50.13 27.094 50.12 32.25 31.303 37.316 12.894 59.524 3.2 60.492 2.783a66.285 66.285 0 1 0 40.337 5.753h.02Zm6.293 17.382c-3.72-3.161-2.992-5.515-2.992-5.515s1.486-.06 4.487 2.623a71.363 71.363 0 0 1 6.133 6.482 15.403 15.403 0 0 1-7.628-3.59Zm9.972 54.608c-3.73-3.161-3.042-5.505-3.042-5.505s1.486-.07 4.488 2.613c3.001 2.682 2.842 4.697 2.842 4.697s-.569 1.376-4.288-1.805Zm.668-12.406c1.516 5.315-.519 7.47-3.989 3.45-2.653-3.05 1.446-12.275 3.989-13.582 2.543-1.306-1.526 4.827 0 10.132Zm3.4-13.442c-.927 1.107-1.825.688-1.825.688.21-1.586 2.274-5.575 3.66-5.724 1.386-.15-.917 3.929-1.835 5.036Zm-89.33-30.196c2.283-2.533 3.1-3.161 3.1-2.802s-2.173 5.175-3.1 7.09c-.928 1.915-2.115 5.275-2.115 5.275-.887-1.456-.16-7.07 2.114-9.563Zm48.414 55.774c-.558 1.107-.279 2.204-1.665 3.87-1.386 1.665-2.543 1.515-1.645-3.102.897-4.617-.559-7.11.688-6.98 1.246.13 3.82 3.79 2.622 6.212ZM71.76 60.362c1.207-.3 11.08 3.111 13.054 7.2 1.974 4.088 0 10.91-1.865 11.627-1.865.718-2.064-4.447-4.528-8.975-2.463-4.527-9.114-9.224-6.66-9.852Zm-8.875-2.792c.319-1.546 8.197-.1 6.621 1.994-1.575 2.094-7.01-.08-6.621-1.994Zm3.2 55.306c-.318.618-1.415 1.236-1.994.349a1.3 1.3 0 0 1 .001-1.521 1.297 1.297 0 0 1 1.445-.474c.589.12.858 1.027.549 1.646Zm5.665-7.579c3.989.269 4.099 1.376.858 2.892-3.241 1.515-5.864 2.622-6.273 1.515-1.077-2.842 1.396-4.697 5.415-4.407Z" fill="url(#c)"/><path d="m112.985 13.742-3.909-.42s2.832 10.123 5.734 14.251c2.902 4.129 11.847 3.6 14.251 7.18 2.403 3.58-7.978 20.443-9.494 28.92-1.516 8.476 6.153 13.542 9.065 14.958 2.912 1.416 4.687 16.165-10.302 34.474-9.972 12.116-31.91 18.329-49.741 8.736-17.83-9.594-4.498-16.435 1.316-19.496 6.083-4.378 5.984-7.34 5.296-13.343-.688-6.003 3.988-9.922-1.416-17.85-3.212-4.667-18.25-10.172-35.172-20.274-18.14-10.83-13.064-32.609 19.286-47.617l-2.374-1.436s-27.802 9.603-36.767 36.638c-8.965 27.035 26.476 71.72 33.237 85.242 6.761 13.523 37.506 11.179 53.232 2.623 15.726-8.556 28.82-26.406 32.539-40.886 3.72-14.48-2.453-41.644-5.225-48.385s-14.49-14.889-14.49-14.889l-5.066-8.426Z" fill="url(#d)"/><path d="M140.05 68.12a68.256 68.256 0 0 1-38.392 61.381 68.255 68.255 0 0 1-71.99-7.68 68.245 68.245 0 0 1-24.58-68.097A68.25 68.25 0 0 1 55.574 1.835c-.638.32-20.942 10.73-28.221 29.468C19.904 50.33 64.54 62.745 71.81 71.85c7.27 9.105 2.294 14.48 1.885 18.2-.41 3.719 4.986 7.658-7.46 14.688-12.445 7.031 6.632 30.824 33.727 21.102 27.094-9.723 32.908-35.372 31.861-42.402-1.047-7.03-1.865-1.456-9.524-9.973-7.658-8.516 9.314-30.205 8.696-36.628-.618-6.422-5.385-5.574-11.787-8.257-6.402-2.682-6.183-14.44-6.173-14.878A68.106 68.106 0 0 1 140.05 68.12Z" fill="url(#e)"/><path style="mix-blend-mode:multiply" opacity=".5" d="M60.511 2.782s-14.2 6.382-20.183 20.663c-5.984 14.28 2.064 23.165 26.925 26.476 24.86 3.31 28.071 11.398 23.374 26.925-8.336 27.463 16.953 32.27 19.855 22.338 2.902-9.933-6.063-13.104-4.547-28.132 2.174-21.62 17.691-20.852 13.243-30.066-3.869-7.978-10.451-4.069-21.21-12.964-10.761-8.895.847-20.413.847-20.413L96.98 6.82s-21.66 6.721-19.456 20.373c2.204 13.652 10.97-1.097 18.17 5.794 2.383 2.274 10.071 9.793 7.858 21.939-2.214 12.146-.788 34.065-7.41 25.649-6.621-8.417.14-14.34-6.342-25.1-6.482-10.76-29.358-11.489-34.983-29.498C49.193 7.968 71.77 1.875 71.77 1.875l-11.259.907Z" fill="url(#f)"/><path style="mix-blend-mode:multiply" opacity=".5" d="M78.122 2.124s-6.98.997-14.41 12.216c-7.429 11.219-11.896 18.1 11.379 23.784 15.297 3.74 20.084 15.696 21.081 26.257.997 10.56 5.983-15.497 0-23.256-5.983-7.758-7.549-.19-20.892-6.302-13.343-6.113-16.035-17.95-6.412-24.522 9.623-6.571 27.394-3.79 27.394-3.79a64.103 64.103 0 0 0-18.14-4.387Z" fill="url(#g)"/><path style="mix-blend-mode:multiply" opacity=".5" d="M86.878 85.362c-.688 5.654 3.38 10.272 5.983 21.032 2.603 10.76 22.208 6.551 27.075-4.069 4.866-10.62-9.434-17.95-11.698-24.93-2.263-6.981 2.344-12.556 2.344-12.556s-1.376 10.212-.349 14.28c1.027 4.07 13.662 6.343 15.587 15.029 1.924 8.685-11.03 13.961-21.79 25.1-5.774 5.983-21.58 9.453-28.131-.898-6.552-10.351 13.602-13.143 13.512-18.199-.09-5.056-3.86-4.348-4.478-8.626-.618-4.278 1.945-6.163 1.945-6.163Z" fill="url(#h)"/><path style="mix-blend-mode:screen" opacity=".8" d="m96.96 6.791-1.496-.389S82.57 11.548 78.412 18.678c-4.159 7.13-1.865 13.961.787 15.816 2.653 1.855 5.665-2.543 12.186-2.413 7.17.14 10.372 9.653 11.119 17.112.748 7.46-1.844 25.34-3.4 29.069-1.556 3.73-5.186.828-5.704-14.69-.519-15.516-15.178-15.725-25.01-22.138 0 0 6.451 3.9 16.633 9.115 10.182 5.216 6.362 19.795 9.205 26.925 2.842 7.13 6.272 7.31 7.08-.838.808-8.147 3.54-21.68 2.393-29.218-1.097-7.18-6.721-15.956-11.807-16.504-6.263-.728-12.575 6.8-14.39-2.473C75.161 16.474 89.341 8.656 96.96 6.79Z" fill="url(#i)"/><path style="mix-blend-mode:multiply" opacity=".5" d="M58.986 9.025S47.946 20.513 57.09 32.02s23.125 16.045 23.125 16.045-17.95-8.835-24.262-20.253C50.67 18.14 58.986 9.025 58.986 9.025Z" fill="url(#j)"/><path style="mix-blend-mode:multiply" opacity=".5" d="M95.464 6.402s-18.648-4.278-29.129 5.385c-10.142 9.344-1.585 18.738 6.891 22.707 8.476 3.969 12.964 2.992 12.964 2.992a29.278 29.278 0 0 1-19.316-8.606c-8.267-8.606-3.92-26.098 28.59-22.478Z" fill="url(#k)"/><path style="mix-blend-mode:multiply" opacity=".5" d="M88.972 85.602s-.718 16.683 13.423 16.952c13.442.279 6.212-14.48 3.41-22.128-2.802-7.649 2.523-19.436 2.523-19.436s-4.657 10.431-1.625 20.593c3.031 10.161 6.731 17.51 1.545 20.722-10.83 6.701-20.383-5.116-19.276-16.704Z" fill="url(#l)"/><path style="mix-blend-mode:multiply" opacity=".5" d="M76.647 119.358a17.595 17.595 0 0 0 13.702 5.085c8.795-.508 12.046-4.567 16.394-8.356 4.348-3.79 10.161-7.978 10.161-7.978a102.808 102.808 0 0 0-11.198 10.082c-6.423 6.741-20.683 11.857-29.06 1.167Z" fill="url(#m)"/><path style="mix-blend-mode:multiply" opacity=".5" d="M88.892 129.25c-19.276 3.39-36.667-2.782-36.767-10.441-.1-7.659 9.653-11.518 8.696-19.037-.958-7.519 6.76-12.685 2.044-19.855-4.717-7.17-35.152-26.695-38.254-39.3C21.56 28.172 37.216 9.533 37.666 9.005l-9.972 6.98s-2.474 5.575-11.17 15.727C7.828 41.863 2.254 60.052 8.875 68.11c6.622 8.058 7.649 8.477 4.757 25.45-2.892 16.972 14.799 22.935 33.616 30.724 18.818 7.788 39.241 10.471 39.241 10.471a63.46 63.46 0 0 0 28.969-14.231s-7.319 5.335-26.566 8.726ZM62.865 88.713c-.648 3.51-4.538 8.895-7.639 7.978-3.101-.918-2.992-7.13 0-8.975 2.992-1.845 8.177-1.965 7.639.997Zm-36.12-29.917c3.122 1.735 6.981 7.14 5.096 9.773-1.884 2.633-7.708.568-8.526-2.872-.818-3.44.798-8.367 3.43-6.91v.01Zm6.283-4.727c1.655 2.204 1.237 3.51.618 3.93-1.326.877-5.375-3.381-6.472-6.981-1.097-3.6 4.179.828 5.854 3.041v.01ZM14.579 39.69C12.266 36.46 18 32.24 21.4 27.274s.21 7.46-2.164 10.86c-2.373 3.4-4.138 2.273-4.657 1.545v.01Zm2.813 64.172c-6.213-10.65 6.98 2.692 20.173 1.854 13.194-.837 8.477 10.87 3.99 10.761-12.346-.29-17.98-1.965-24.163-12.615Zm29.128 18.847c-.548 0-8.406-3.041-10.131-4.288-1.217-.867 5.863-.419 7.858.997 1.994 1.416 2.822 3.361 2.273 3.291Zm-.698-41.275c-7.449-7.04-11.966-19.476-8.277-20.473 1.865-.498 5.984 2.782 12.057 8.098 6.073 5.315 12.884 10.29 13.263 12.784.379 2.493-9.574 6.661-17.043-.369v-.04Z" fill="url(#n)"/><path style="mix-blend-mode:multiply" opacity=".5" d="M132.591 37.157c.239.628 1.825 5.464-2.813 15.377-4.986 10.68 0 21.52 3.271 26.725 3.152 4.986.27 17.76 0 18.818 15.248-34.783.509-59.385-.458-60.92Zm2.602 18.518c1.197-1.775 3.301 7.22.938 7.788-2.703.658-2.124-6.013-.938-7.788Zm-6.422 8.885c-.089-9.214 2.384-12.296 4.199-12.026 1.815.269-.479 5.245 1.336 13.96 1.815 8.716 3.57 12.965 3.101 13.503-2.652 2.912-8.546-6.222-8.636-15.437Z" fill="url(#o)"/><path d="M40.108 52.903a202.922 202.922 0 0 0 19.187 11.966c8.626 4.488 19.077 8.427 15.437 21.56 0 0 4.238-8.686-4.228-15.816-8.467-7.13-21.8-11.568-30.396-17.71Zm73.316-33.966s2.762 8.616 9.623 11.04c.05-.01-8.925-.24-9.623-11.04ZM125.8 50.42a84.32 84.32 0 0 0-4.388 13.093c-1.386 6.203.847 10.132 3.739 12.884a11.652 11.652 0 0 1-4.806-10.221c.339-6.073 5.455-15.756 5.455-15.756Z" fill="#CF4A20"/><path d="M63.423 115.538s7.11 15.716 31.243 11.797c0 0-21.43 6.343-31.243-11.797Z" fill="#C01D20"/><path d="M75.6 29.07a7.788 7.788 0 0 1 1.425-8.876 11.738 11.738 0 0 0-1.426 8.875ZM64.4 18.937a10.28 10.28 0 0 1 3.99-7.29 65.609 65.609 0 0 0-3.99 7.29Zm-9.932 29.129a53.447 53.447 0 0 0 9.972 2.354s-5.165 2.961-9.972-2.354Zm34.414 28.331a3.53 3.53 0 0 0-1.306 4.129l1.306-4.129ZM32.64 36.12a4.987 4.987 0 0 0 1.126 4.048l-1.127-4.049Zm78.859 20.353a8.983 8.983 0 0 1 2.842-3.211s.399 2.762-2.842 3.21Zm2.743 48.186a8.88 8.88 0 0 1 2.842-3.211s.399 2.762-2.842 3.211Zm-12.326-46.002a8.869 8.869 0 0 1 0-4.767 9.28 9.28 0 0 1 0 4.767Zm-32.2-19.287s.897 2.483 4.896 3.83c0 0 .28-2.902-4.896-3.83Zm-1.466 77.435s-.997 3.161 1.725 3.58l-1.725-3.58Zm4.049 3.58s0 .997 1.236.907c0 0 .31-1.137-1.236-.907ZM95.494 72.07s-.848.538-.1 1.525c0 0 1.127-.339.1-1.526Zm17.88-40.578s.14.997 1.356.728c0 0 .15-1.166-1.356-.728Zm3.989 67.742s-.858.528-.12 1.535c0 0 1.127-.339.12-1.535ZM113.534 25.4a11.48 11.48 0 0 0 2.473 3.41s-3.062-.838-2.473-3.41Z" fill="#FFB500"/><path d="M28.361 28.81s1.875-5.984 3.79-8.616c1.914-2.633 8.974-8.088 8.974-8.088A60.59 60.59 0 0 0 28.361 28.81Z" fill="#CF4A20"/><path d="m132.042 36.13 4.348 4.038v6.013l1.665 1.885v3.82l-6.013-15.757Z" fill="url(#p)"/><path d="M4.428 56.892 0 67.582l2.214 5.554v1.855l2.074 3.44.14 1.108-.918 1.794 2.473 6.343 3.82 9.075.678 2.453.917.768s-8.606-23.495-6.97-43.08Z" fill="url(#q)"/><path d="m115.478 120.534 3.88-1.934.997-1.795 1.745-2.573 4.527-4.079 4.448-1.805.937-5.295 2.992-9.972s-9.553 17.112-19.526 27.453Z" fill="url(#r)"/><path d="M139.88 68.12a68.125 68.125 0 0 1-39.394 61.785 68.129 68.129 0 0 1-74.58-112.173A68.13 68.13 0 0 1 60.203.987 68.809 68.809 0 0 1 71.75-.01a68.08 68.08 0 0 1 68.12 68.12l.01.01Z" fill="#753BB8" style="mix-blend-mode:screen" opacity=".24"/><path style="mix-blend-mode:multiply" d="M139.88 68.12a68.125 68.125 0 0 1-39.394 61.785 68.129 68.129 0 0 1-74.58-112.173A68.13 68.13 0 0 1 60.203.987c3.75-.638 7.61.858 11.548.858a64.29 64.29 0 0 1 29.089 6.711c22.647 11.06 39.041 32.67 39.041 59.564Z" fill="url(#s)"/><path style="mix-blend-mode:color-dodge" d="M137.766 85.472a.48.48 0 0 0 0-.12 68.155 68.155 0 0 0 2.284-17.232c0-1.476-.05-2.942-.15-4.388a66.197 66.197 0 0 0-1.795-12.605v-3.061l-1.296-1.476c-.12-.369-.249-.728-.369-1.077v-5.345l-4.258-3.989a16.335 16.335 0 0 0-.828-1.426 68.496 68.496 0 0 0-18.319-21.041l-3.72-.4a75.171 75.171 0 0 0-8.416-4.806 65.232 65.232 0 0 0-14.71-5.185 54.516 54.516 0 0 0-7.249-1.167 72.147 72.147 0 0 0-7.13-.36c-3.94 0-7.798-1.495-11.548-.857-1.536.26-3.041.569-4.537.928l-.14-.08A68.28 68.28 0 0 0 4.428 56.89L1.945 68.42l.269 4.717v1.855l2.074 3.44.14 1.107-.918 1.795 2.473 6.343 1.995 4.736a74.498 74.498 0 0 0 1.775 4.229v.11l.678 2.453 2.204 1.246c-.326.083-.662.12-.997.11a67.192 67.192 0 0 0 60.043 35.78 68.31 68.31 0 0 0 15.516-1.725 63.552 63.552 0 0 0 28.301-14.081l-.089.06.149-.13-.06.07 3.879-1.934.998-1.796 1.725-2.572 4.527-4.079 2.174-2.443 3.271-4.657 2.453-8.058a67.857 67.857 0 0 0 3.112-8.915l.129-.608Z" fill="url(#t)"/></g><defs><linearGradient id="c" x1="71.75" y1="134.426" x2="71.75" y2="2.782" gradientUnits="userSpaceOnUse"><stop offset=".01"/><stop offset=".23" stop-color="#3E1A02"/><stop offset=".61" stop-color="#A54606"/><stop offset=".87" stop-color="#E66208"/><stop offset=".99" stop-color="#FF6D09"/></linearGradient><linearGradient id="f" x1="79.199" y1="103.901" x2="79.199" y2="1.825" gradientUnits="userSpaceOnUse"><stop offset=".01" stop-color="#B600A4"/><stop offset=".06" stop-color="#BC13A5"/><stop offset=".25" stop-color="#D053AA"/><stop offset=".44" stop-color="#E189AF"/><stop offset=".62" stop-color="#EEB2B2"/><stop offset=".77" stop-color="#F7D0B4"/><stop offset=".9" stop-color="#FDE3B5"/><stop offset="1" stop-color="#FFE9B6"/></linearGradient><linearGradient id="g" x1="78.412" y1="66.874" x2="78.412" y2="2.124" gradientUnits="userSpaceOnUse"><stop stop-color="#FFE9B6"/><stop offset=".1" stop-color="#FDE3B5"/><stop offset=".23" stop-color="#F7D0B4"/><stop offset=".38" stop-color="#EEB2B2"/><stop offset=".56" stop-color="#E189AF"/><stop offset=".75" stop-color="#D053AA"/><stop offset=".94" stop-color="#BC13A5"/><stop offset=".99" stop-color="#B600A4"/></linearGradient><linearGradient id="h" x1="100.321" y1="124.932" x2="100.321" y2="64.809" gradientUnits="userSpaceOnUse"><stop offset=".01" stop-color="#B600A4"/><stop offset=".06" stop-color="#BC13A5"/><stop offset=".25" stop-color="#D053AA"/><stop offset=".44" stop-color="#E189AF"/><stop offset=".62" stop-color="#EEB2B2"/><stop offset=".77" stop-color="#F7D0B4"/><stop offset=".9" stop-color="#FDE3B5"/><stop offset="1" stop-color="#FFE9B6"/></linearGradient><linearGradient id="i" x1="86.18" y1="82.829" x2="86.18" y2="6.402" gradientUnits="userSpaceOnUse"><stop offset=".01"/><stop offset=".23" stop-color="#3E1A02"/><stop offset=".61" stop-color="#A54606"/><stop offset=".87" stop-color="#E66208"/><stop offset=".99" stop-color="#FF6D09"/></linearGradient><linearGradient id="j" x1="66.864" y1="48.066" x2="66.864" y2="8.995" gradientUnits="userSpaceOnUse"><stop stop-color="#FFE9B6"/><stop offset=".1" stop-color="#FDE3B5"/><stop offset=".23" stop-color="#F7D0B4"/><stop offset=".38" stop-color="#EEB2B2"/><stop offset=".56" stop-color="#E189AF"/><stop offset=".75" stop-color="#D053AA"/><stop offset=".94" stop-color="#BC13A5"/><stop offset=".99" stop-color="#B600A4"/></linearGradient><linearGradient id="k" x1="78.591" y1="37.575" x2="78.591" y2="5.455" gradientUnits="userSpaceOnUse"><stop stop-color="#FFE9B6"/><stop offset=".1" stop-color="#FDE3B5"/><stop offset=".23" stop-color="#F7D0B4"/><stop offset=".38" stop-color="#EEB2B2"/><stop offset=".56" stop-color="#E189AF"/><stop offset=".75" stop-color="#D053AA"/><stop offset=".94" stop-color="#BC13A5"/><stop offset=".99" stop-color="#B600A4"/></linearGradient><linearGradient id="l" x1="99.862" y1="104.259" x2="99.862" y2="61" gradientUnits="userSpaceOnUse"><stop offset=".01" stop-color="#B600A4"/><stop offset=".06" stop-color="#BC13A5"/><stop offset=".25" stop-color="#D053AA"/><stop offset=".44" stop-color="#E189AF"/><stop offset=".62" stop-color="#EEB2B2"/><stop offset=".77" stop-color="#F7D0B4"/><stop offset=".9" stop-color="#FDE3B5"/><stop offset="1" stop-color="#FFE9B6"/></linearGradient><linearGradient id="m" x1="96.77" y1="125.51" x2="96.77" y2="108.099" gradientUnits="userSpaceOnUse"><stop offset=".01" stop-color="#B600A4"/><stop offset=".06" stop-color="#BC13A5"/><stop offset=".25" stop-color="#D053AA"/><stop offset=".44" stop-color="#E189AF"/><stop offset=".62" stop-color="#EEB2B2"/><stop offset=".77" stop-color="#F7D0B4"/><stop offset=".9" stop-color="#FDE3B5"/><stop offset="1" stop-color="#FFE9B6"/></linearGradient><linearGradient id="n" x1="48.221" y1="124.577" x2="82.287" y2="23.446" gradientUnits="userSpaceOnUse"><stop offset=".01" stop-color="#6A005E"/><stop offset=".1" stop-color="#730E63"/><stop offset=".29" stop-color="#8A3171"/><stop offset=".53" stop-color="#AF6B87"/><stop offset=".84" stop-color="#E1BBA4"/><stop offset="1" stop-color="#FFE9B6"/></linearGradient><linearGradient id="o" x1="133.797" y1="98.077" x2="133.797" y2="37.157" gradientUnits="userSpaceOnUse"><stop offset=".01" stop-color="#6A005E"/><stop offset=".06" stop-color="#761365"/><stop offset=".25" stop-color="#9F537D"/><stop offset=".44" stop-color="#C18992"/><stop offset=".62" stop-color="#DCB2A1"/><stop offset=".77" stop-color="#EFD0AD"/><stop offset=".9" stop-color="#FBE3B4"/><stop offset="1" stop-color="#FFE9B6"/></linearGradient><radialGradient id="b" cx="0" cy="0" r="1" gradientUnits="userSpaceOnUse" gradientTransform="matrix(92.7516 0 0 103.882 84.325 28.062)"><stop offset=".03" stop-color="#FF9800"/><stop offset=".29" stop-color="#FF6720"/><stop offset=".89" stop-color="#C70014"/><stop offset="1" stop-color="#EC43AC"/></radialGradient><radialGradient id="d" cx="0" cy="0" r="1" gradientUnits="userSpaceOnUse" gradientTransform="matrix(90.5777 0 0 101.447 89.65 27.839)"><stop stop-color="#BD3D20"/><stop offset=".82" stop-color="#680014"/></radialGradient><radialGradient id="e" cx="0" cy="0" r="1" gradientUnits="userSpaceOnUse" gradientTransform="matrix(94.3871 0 0 105.714 84.694 28.464)"><stop offset=".03" stop-color="#FF6300"/><stop offset=".29" stop-color="#CC3C20"/><stop offset=".49" stop-color="#9E221B"/><stop offset=".66" stop-color="#7D1017"/><stop offset=".8" stop-color="#680415"/><stop offset=".89" stop-color="#610014"/><stop offset="1" stop-color="#A4217F"/></radialGradient><radialGradient id="p" cx="0" cy="0" r="1" gradientUnits="userSpaceOnUse" gradientTransform="matrix(10.0121 0 0 11.2136 135.622 38.65)"><stop stop-color="#BD3D20"/><stop offset=".82" stop-color="#680014"/></radialGradient><radialGradient id="q" cx="0" cy="0" r="1" gradientUnits="userSpaceOnUse" gradientTransform="matrix(27.1045 0 0 30.357 6.781 65.009)"><stop stop-color="#430020"/><stop offset=".82" stop-color="#2C0014"/></radialGradient><radialGradient id="r" cx="0" cy="0" r="1" gradientUnits="userSpaceOnUse" gradientTransform="matrix(18.1893 0 0 20.372 127.136 98.058)"><stop stop-color="#430020"/><stop offset=".82" stop-color="#220014"/></radialGradient><radialGradient id="s" cx="0" cy="0" r="1" gradientUnits="userSpaceOnUse" gradientTransform="translate(88.334 15.327) scale(148.516)"><stop stop-color="#fff"/><stop offset=".14" stop-color="#FDFCFE"/><stop offset=".22" stop-color="#F8F4FA"/><stop offset=".3" stop-color="#EFE5F3"/><stop offset=".36" stop-color="#E3D0EA"/><stop offset=".42" stop-color="#D3B5DD"/><stop offset=".48" stop-color="#BF94CE"/><stop offset=".53" stop-color="#A76CBC"/><stop offset=".58" stop-color="#8B3EA7"/><stop offset=".63" stop-color="#6D0C90"/><stop offset=".64" stop-color="#66008B"/><stop offset=".79" stop-color="#4F0060"/></radialGradient><radialGradient id="t" cx="0" cy="0" r="1" gradientUnits="userSpaceOnUse" gradientTransform="translate(62.306 78.441) scale(92.1433)"><stop offset=".74"/><stop offset=".78" stop-color="#301B00"/><stop offset=".82" stop-color="#6E3E00"/><stop offset=".87" stop-color="#A25B00"/><stop offset=".91" stop-color="#CA7200"/><stop offset=".94" stop-color="#E78300"/><stop offset=".98" stop-color="#F98C00"/><stop offset="1" stop-color="#FF9000"/></radialGradient><clipPath id="a"><path fill="#fff" d="M0 0h140v136.37H0z"/></clipPath></defs></svg>