<svg width="140" height="141" fill="none" xmlns="http://www.w3.org/2000/svg"><path d="M69.994 140.006c38.657 0 69.994-31.338 69.994-69.994 0-38.657-31.337-69.994-69.994-69.994S0 31.355 0 70.012c0 38.656 31.337 69.994 69.994 69.994Z" fill="url(#a)"/><path style="mix-blend-mode:screen" opacity=".3" fill-rule="evenodd" clip-rule="evenodd" d="M96.312 5.268S79.068-.678 71.462 3.645c-10.275 5.899-3.288 68.49 32.884 87.298 36.171 18.808 23.975-23.785 29.434-27.478 5.459-3.693 7.998 30.457-9.264 46.583-17.262 16.127-60.361-2.164-83.088-47.826C18.7 16.56 59.023.874 59.023.874s-9.413.737-18.005 5.405c0 0-19.118 17.292-10.341 52.922 8.777 35.63 70.386 74.876 95.522 50.247 5.417-5.304 17.125-27.948 11.298-48.23-11.37-22.876-4.329 22.81-28.626 23.784-28.287 1.124-43.01-54.277-35.713-71.54 7.296-17.262 42.944 3.913 42.944 3.913s-12.66-9.752-19.79-12.107Z" fill="url(#b)"/><path style="mix-blend-mode:screen" opacity=".3" fill-rule="evenodd" clip-rule="evenodd" d="M79.883 39.65c-3.378-11.066-6.666-26.842 5.898-30.213 12.565-3.372 26.343 10.947 35.75 24.736 9.407 13.79.458 35.476-13.332 37.052-13.79 1.576-21.365-8.842-28.316-31.575Z" fill="url(#c)"/><path style="mix-blend-mode:multiply" opacity=".5" fill-rule="evenodd" clip-rule="evenodd" d="M105.981 68.323c-3.948.232-8.622-2.468-12.88-6.856l-.154-.155a46.976 46.976 0 0 1-11.792-22.435c-1.023-5.185-.921-10.43.833-15.187 6.671-18.089 29.767-4.044 36.867 9.21 7.1 13.255-.85 34.721-12.874 35.423Z" fill="url(#d)"/><path style="mix-blend-mode:multiply" opacity=".5" fill-rule="evenodd" clip-rule="evenodd" d="M105.981 68.323c-3.948.232-8.622-2.468-12.88-6.856 1.576 1.415 10.567 8.973 16.436 4.162 13.855-11.422 5.013-41.624-13.974-43.217-15.008-1.279-14.36 15.995-14.408 16.483-1.023-5.185-.921-10.43.833-15.187 6.671-18.089 29.767-4.043 36.867 9.21 7.1 13.255-.85 34.703-12.874 35.405Z" fill="url(#e)"/><path style="mix-blend-mode:screen" opacity=".3" fill-rule="evenodd" clip-rule="evenodd" d="M16.93 107.325c3.293 12.398 14.532 16.007 30.813 14.414 16.28-1.594 27.793 7.665 44.354 8.919 16.56 1.255 28.31-12.106 28.31-12.106l3.74-4.216s-12.422 17.173-39.216 13.385c-26.794-3.788-26.853-16.65-34.524-31.581C40.16 76.208 26.675 79.87 16.929 60.498 7.183 41.125 18.19 22.94 18.19 22.94s-6.41 7.106-9.335 12.969c0 0-.975 11.042 4.638 28.197 5.613 17.155-.57 28.192 3.437 43.218Z" fill="url(#f)"/><path style="mix-blend-mode:multiply" opacity=".5" fill-rule="evenodd" clip-rule="evenodd" d="M25.504 80.763c3.098-.922 7.326.35 11.535 3.05l.155.095A38.401 38.401 0 0 1 50.781 99.56c1.784 3.936 2.688 8.135 2.183 12.249-1.92 15.651-22.947 8.795-31.082-.428-8.134-9.222-5.815-27.805 3.622-30.617Z" fill="url(#g)"/><path style="mix-blend-mode:multiply" opacity=".5" fill-rule="evenodd" clip-rule="evenodd" d="M25.504 80.763c3.098-.922 7.326.35 11.536 3.05-1.517-.832-10.11-5.167-13.861-.214-8.92 11.697 3.8 34.067 19.224 31.795 12.19-1.784 8.438-15.425 8.385-15.823 1.783 3.936 2.687 8.134 2.182 12.249-1.92 15.651-22.947 8.795-31.082-.428-8.134-9.223-5.821-27.817 3.616-30.63Z" fill="url(#h)"/><path style="mix-blend-mode:screen" opacity=".3" fill-rule="evenodd" clip-rule="evenodd" d="M139.441 61.24s-3.372-11.178-10.923-19.533c-7.552-8.354-14.194-20.735-18.63-25.218-4.436-4.484 6.737.773 10.352 4.799l1.986 2.134s-5.655-5.946-8.182-4.721c-2.527 1.225 9.282 16.329 11.952 19.308 2.67 2.979 9.348 6.868 9.348 6.868s3.586 9.746 4.097 16.364Z" fill="url(#i)"/><path style="mix-blend-mode:screen" opacity=".3" fill-rule="evenodd" clip-rule="evenodd" d="M139.982 65.903s-3.954-14.676-9.288-13.272c-5.334 1.403-7.546 27.775-23.94 29.82-13.677 1.719-32.205-31.83-33.186-54.753C72.587 4.775 86.65 7.403 93.922 8.938c8.39 1.783 13.004 4.9 16.489 10.078 3.485 5.18 6.63 9.009 6.63 9.009s-5.595-7.136-9.579-11.22c-3.984-4.086-15.68-11.858-26.527-6.565-9.514 4.638-7.29 34.268 5.263 53.207 9.282 13.986 21.864 21.121 32.318 7.938 10.453-13.183 7.135-19.842 12.422-20.687 5.286-.844 7.355 8.825 9.044 15.205Z" fill="url(#j)"/><path style="mix-blend-mode:screen" opacity=".3" fill-rule="evenodd" clip-rule="evenodd" d="M91.894 58.75c-7.486-7.088-12.707-23.482-6.06-30.564 6.649-7.082 19.481 7.73 24.125 22.893 4.644 15.163-10.983 14.384-18.065 7.67Z" fill="url(#k)"/><path style="mix-blend-mode:multiply" opacity=".83" fill-rule="evenodd" clip-rule="evenodd" d="M105.446 58.476c-1.826 2.022-4.757 2.682-8.616 1.266-9.705-3.567-12.856-17.642-11.893-22.655 1.861-9.65 14.622-5.554 20.134 5.476 3.312 6.66 3.158 12.833.375 15.913Z" fill="url(#l)"/><path style="mix-blend-mode:multiply" opacity=".5" fill-rule="evenodd" clip-rule="evenodd" d="M105.446 58.476c2.973-4.817 1.897-13.825-6.13-20.747-8.028-6.921-14.373-.642-14.373-.642 1.861-9.65 14.622-5.554 20.134 5.476 3.306 6.66 3.152 12.833.369 15.913Z" fill="url(#m)"/><path style="mix-blend-mode:multiply" opacity=".83" fill-rule="evenodd" clip-rule="evenodd" d="M31.658 86.828c2.093-1.059 5.072-1.023 8.575.559 8.848 3.984 9.657 13.98 7.914 17.191-3.36 6.19-15.097 1.338-18.683-6.987-2.14-5.025-.987-9.152 2.194-10.763Z" fill="url(#n)"/><path style="mix-blend-mode:multiply" opacity=".5" fill-rule="evenodd" clip-rule="evenodd" d="M31.658 86.828c-3.675 2.747-4.061 8.99 2.628 14.961a13.41 13.41 0 0 0 13.861 2.789c-3.36 6.19-15.097 1.338-18.683-6.987-2.14-5.025-.987-9.151 2.194-10.763Z" fill="url(#o)"/><path style="mix-blend-mode:screen" opacity=".3" fill-rule="evenodd" clip-rule="evenodd" d="M4.983 44.038s5.655 15.621 5.607 32.8c-.047 17.18-.32 34.489 14.694 43.795 15.014 9.306 22.459 4.126 40.435 8.2 17.975 4.073 25.384 4.81 38.448 2.265l-6.505 3.211s-12.035 1.719-30.76-3.211c-18.725-4.929-32.033 1.344-48.611-13.932C1.713 101.89 5.179 84.949 4.995 72.289 4.81 59.63 2.11 52.93 2.11 52.93a50.14 50.14 0 0 1 2.872-8.89Z" fill="url(#p)"/><path style="mix-blend-mode:multiply" opacity=".5" fill-rule="evenodd" clip-rule="evenodd" d="M132.395 94.433s-21.586 20.86-53.987 2.307C44.77 77.48 34.631 39.858 45.781 17.543A32.514 32.514 0 0 1 68.513.018s5.614 0 8.325.327c0 0-16.733.53-19.29 26.758-2.937 30.118 14.498 68.906 39.246 73.734 24.6 4.787 31.569-3.115 36.142-11.494 4.572-8.378-.541 5.09-.541 5.09Z" fill="url(#q)"/><path style="mix-blend-mode:multiply" opacity=".5" fill-rule="evenodd" clip-rule="evenodd" d="M125.402 111.921s-11.851 13.772-42.63 5.816c-29.683-7.671-72.949-58.113-51.4-106.094l4.401-2.688S14.14 36.308 41.428 79.466c22.655 35.845 62.121 48.808 86.566 29.732l-2.592 2.723Z" fill="url(#r)"/><path style="mix-blend-mode:screen" opacity=".3" fill-rule="evenodd" clip-rule="evenodd" d="M20.093 85.014s-7.1 12.434 1.783 26.378c8.884 13.944 25.778 10.823 29.464 6.327 3.687-4.495-.196-20.075-.196-20.075s12.44 19.534 4.442 21.639c-7.54 1.98-16.43 5.946-30.023-1.106s-10.519-21.793-5.47-33.163Z" fill="url(#s)"/><path style="mix-blend-mode:multiply" opacity=".5" fill-rule="evenodd" clip-rule="evenodd" d="M59.564 53.505S68.24 88.826 89.57 98.382c21.33 9.555 36.748-.738 36.748-.738s-15.062 11.162-35.903 3.152c-24.261-9.324-30.85-47.291-30.85-47.291Z" fill="url(#t)"/><path style="mix-blend-mode:multiply" opacity=".5" fill-rule="evenodd" clip-rule="evenodd" d="M61.604 102.312s36.754 30.326 68.15 4.163c0-.012-23.696 31.135-68.15-4.163Z" fill="url(#u)"/><path style="mix-blend-mode:multiply" opacity=".5" fill-rule="evenodd" clip-rule="evenodd" d="M81.334 68.34s11.726 21.693 30.13 26.76c20.217 5.583 19.539-11.519 19.539-11.519s-5.06 14.474-20.217 9.621C90.83 86.828 81.334 68.341 81.334 68.341Z" fill="url(#v)"/><path style="mix-blend-mode:screen" opacity=".3" fill-rule="evenodd" clip-rule="evenodd" d="M19.908 21.127s-4.346 15.11-2.973 28.5C18.31 63.02 27.11 70.37 32.52 75.12a87.661 87.661 0 0 1 8.92 9.026s-5.078-8.723-16.608-21.924c-11.53-13.2-7.968-28.09 3.538-48.492 0 0-6.172 4.531-8.462 7.397Z" fill="url(#w)"/><path fill-rule="evenodd" clip-rule="evenodd" d="M54.902 62.222c-1.742-5 1.677 8.628 1.683 12.303.006 3.675 7.017 5.822 10.947 10.49a99.233 99.233 0 0 0 9.265 9.3s-16.84-17.59-21.895-32.093Zm20.456 58.482s7.682 5.156 25.158 3.366c-2.83.534-5.7.834-8.58.898-4.002 0-6.999 1.522-9.633 1.153-2.634-.368-2.313-2.42-4.472-2.943a3.248 3.248 0 0 1-2.474-2.474Zm28.262 2.736c2.38-.236 4.727-.73 6.999-1.475 0 0-1.296 1.546-2.872 1.825-1.576.28-1.338-.273-4.127-.35Zm-53.213-97.9s-1.118 8.092 1.968 20.538l-2.164-6.428c-.993-2.973-3.17-3.092-3.943-5.899-.773-2.806 2.177-2.592 2.32-4.911a4.164 4.164 0 0 1 1.819-3.3Zm3.371-4.18a17.024 17.024 0 0 1 2.974-7.63 6.606 6.606 0 0 0-2.974 7.63Zm55.753 86.013s12.196-.167 20.217-6.577a22.617 22.617 0 0 1-6.291 4.329c-3.651 1.611-1.403 3.229-5.756 3.229a37.1 37.1 0 0 1-8.17-.981Z" fill="#fff" style="mix-blend-mode:soft-light"/><path style="mix-blend-mode:screen" opacity=".3" fill-rule="evenodd" clip-rule="evenodd" d="M139.827 65.35c.102.345.155.553.155.553l-.161-.595a67.889 67.889 0 0 0-.38-4.05 44.626 44.626 0 0 0-1.189-6.778 69.8 69.8 0 0 0-2.831-9.342l-.083-.243a70.024 70.024 0 0 0-13.159-21.514l.053.06-.095-.108a118.85 118.85 0 0 0-1.784-1.944l-.083-.083a8.638 8.638 0 0 0-.595-.625 66.177 66.177 0 0 0-3.532-3.318h-.029A69.712 69.712 0 0 0 76.832.381 34.556 34.556 0 0 0 74.858.22a72.737 72.737 0 0 0-4.846-.167h-1.606c-3.137.07-6.266.35-9.365.839 0 0-9.413.737-18.005 5.405a69.47 69.47 0 0 0-5.227 2.652 63.796 63.796 0 0 0-4.383 2.676 72.063 72.063 0 0 0-3.015 2.11l-.232.18h-.035c-1.22.915-6.19 4.691-8.194 7.194a45.19 45.19 0 0 0-1.719 1.814s-.113.119-.25.28a73.598 73.598 0 0 0-4.37 5.351 49.836 49.836 0 0 0-4.698 7.302 68.746 68.746 0 0 0-3.877 8.123 50.136 50.136 0 0 0-2.883 8.92 70.196 70.196 0 0 0 5.423 48.652c1.95 5.233 5.244 10.495 10.756 15.579a70.041 70.041 0 0 0 79.354 17.138h.036a69.339 69.339 0 0 0 6.428-3.176h.041a70.209 70.209 0 0 0 14.468-10.763c1.159-1.076 1.783-1.783 1.783-1.783v-.036a64.797 64.797 0 0 0 2.516-2.753c.423-.453.82-.929 1.189-1.427v.029a71.834 71.834 0 0 0 3.883-5.197 71.383 71.383 0 0 0 1.736-2.705A69.627 69.627 0 0 0 140 70a78.024 78.024 0 0 0-.173-4.65Z" fill="url(#x)"/><path style="mix-blend-mode:multiply" fill-rule="evenodd" clip-rule="evenodd" d="M139.827 65.35c.102.345.155.553.155.553l-.161-.595a67.889 67.889 0 0 0-.38-4.05 44.626 44.626 0 0 0-1.189-6.778 69.8 69.8 0 0 0-2.831-9.342l-.083-.243a70.024 70.024 0 0 0-13.159-21.514l.053.06-.095-.108a118.85 118.85 0 0 0-1.784-1.944l-.083-.083a8.638 8.638 0 0 0-.595-.625 66.177 66.177 0 0 0-3.532-3.318h-.029A69.712 69.712 0 0 0 76.832.381 34.556 34.556 0 0 0 74.858.22a72.737 72.737 0 0 0-4.846-.167h-1.606c-3.137.07-6.266.35-9.365.839 0 0-9.413.737-18.005 5.405a69.47 69.47 0 0 0-5.227 2.652 63.796 63.796 0 0 0-4.383 2.676 72.063 72.063 0 0 0-3.015 2.11l-.232.18h-.035c-1.22.915-6.19 4.691-8.194 7.194a45.19 45.19 0 0 0-1.719 1.814s-.113.119-.25.28a73.598 73.598 0 0 0-4.37 5.351 49.836 49.836 0 0 0-4.698 7.302 68.746 68.746 0 0 0-3.877 8.123 50.136 50.136 0 0 0-2.883 8.92 70.196 70.196 0 0 0 5.423 48.652c1.95 5.233 5.244 10.495 10.756 15.579a70.041 70.041 0 0 0 79.354 17.138h.036a69.339 69.339 0 0 0 6.428-3.176h.041a70.209 70.209 0 0 0 14.468-10.763c1.159-1.076 1.783-1.783 1.783-1.783v-.036a64.797 64.797 0 0 0 2.516-2.753c.423-.453.82-.929 1.189-1.427v.029a71.834 71.834 0 0 0 3.883-5.197 71.383 71.383 0 0 0 1.736-2.705A69.627 69.627 0 0 0 140 70a78.024 78.024 0 0 0-.173-4.65Z" fill="url(#y)"/><path style="mix-blend-mode:screen" opacity=".5" fill-rule="evenodd" clip-rule="evenodd" d="M139.827 65.35c.102.345.155.553.155.553l-.161-.595a67.878 67.878 0 0 0-.38-4.05 44.624 44.624 0 0 0-1.189-6.778 69.797 69.797 0 0 0-2.831-9.342l-.083-.243a70.023 70.023 0 0 0-13.159-21.514l.053.06-.095-.108a118.84 118.84 0 0 0-1.784-1.944l-.083-.083a8.616 8.616 0 0 0-.595-.625 66.138 66.138 0 0 0-3.532-3.318s-2.2.637-2.218.595C103.222 8.58 91.805 1.772 76.832.327a34.556 34.556 0 0 0-1.974-.16A72.738 72.738 0 0 0 70.012 0h-1.606c-3.137.07-6.266.35-9.365.838 0 0-9.413.738-18.006 5.406a69.487 69.487 0 0 0-5.226 2.652 63.835 63.835 0 0 0-4.383 2.675 71.972 71.972 0 0 0-3.015 2.111l-.232.179h-.035c-1.22.916-6.19 4.691-8.194 7.195-.595.595-1.16 1.19-1.719 1.813 0 0-.113.12-.25.28a73.578 73.578 0 0 0-4.37 5.352 49.836 49.836 0 0 0-4.698 7.302 68.744 68.744 0 0 0-3.877 8.122 50.139 50.139 0 0 0-2.883 8.92 70.198 70.198 0 0 0 5.423 48.653c1.95 5.232 5.244 10.495 10.756 15.579a70.041 70.041 0 0 0 79.354 17.137h.036a69.582 69.582 0 0 0 6.428-3.175l-.494-2.569.529 2.551a70.245 70.245 0 0 0 14.468-10.763c1.159-1.076 1.784-1.784 1.784-1.784v-.035a64.856 64.856 0 0 0 2.515-2.754 15.91 15.91 0 0 0 1.189-1.427v.03a71.834 71.834 0 0 0 3.883-5.197 70.63 70.63 0 0 0 1.736-2.706 69.623 69.623 0 0 0 10.234-36.456 74.63 74.63 0 0 0-.167-4.58Z" fill="url(#z)"/><defs><linearGradient id="b" x1="57.994" y1="135.457" x2="99.981" y2="6.951" gradientUnits="userSpaceOnUse"><stop offset=".01"/><stop offset=".1" stop-color="#030707"/><stop offset=".23" stop-color="#0A1A1A"/><stop offset=".38" stop-color="#173939"/><stop offset=".54" stop-color="#286565"/><stop offset=".72" stop-color="#3E9D9D"/><stop offset=".91" stop-color="#59E0E0"/><stop offset=".99" stop-color="#65FFFF"/></linearGradient><linearGradient id="c" x1="85.829" y1="82.451" x2="108.08" y2="14.36" gradientUnits="userSpaceOnUse"><stop offset=".01"/><stop offset=".1" stop-color="#030707"/><stop offset=".23" stop-color="#0A1A1A"/><stop offset=".38" stop-color="#173939"/><stop offset=".54" stop-color="#286565"/><stop offset=".72" stop-color="#3E9D9D"/><stop offset=".91" stop-color="#59E0E0"/><stop offset=".99" stop-color="#65FFFF"/></linearGradient><linearGradient id="d" x1="70.16" y1="133.233" x2="109.121" y2="13.986" gradientUnits="userSpaceOnUse"><stop stop-color="#fff"/><stop offset=".99" stop-color="#A411A4"/></linearGradient><linearGradient id="e" x1="70.16" y1="133.233" x2="109.121" y2="13.986" gradientUnits="userSpaceOnUse"><stop stop-color="#fff"/><stop offset=".99" stop-color="#A411A4"/></linearGradient><linearGradient id="f" x1="41.773" y1="150.828" x2="77.13" y2="42.611" gradientUnits="userSpaceOnUse"><stop offset=".01" stop-color="#65FFFF"/><stop offset=".09" stop-color="#59E0E0"/><stop offset=".28" stop-color="#3E9D9D"/><stop offset=".46" stop-color="#286565"/><stop offset=".62" stop-color="#173939"/><stop offset=".77" stop-color="#0A1A1A"/><stop offset=".9" stop-color="#030707"/><stop offset=".99"/></linearGradient><linearGradient id="g" x1="41.86" y1="22.368" x2="33.177" y2="124.624" gradientUnits="userSpaceOnUse"><stop stop-color="#fff"/><stop offset=".99" stop-color="#A411A4"/></linearGradient><linearGradient id="h" x1="41.86" y1="22.368" x2="33.177" y2="124.624" gradientUnits="userSpaceOnUse"><stop stop-color="#fff"/><stop offset=".99" stop-color="#A411A4"/></linearGradient><linearGradient id="i" x1="115.763" y1="63.786" x2="129.594" y2="21.454" gradientUnits="userSpaceOnUse"><stop offset=".01"/><stop offset=".1" stop-color="#030707"/><stop offset=".23" stop-color="#0A1A1A"/><stop offset=".38" stop-color="#173939"/><stop offset=".54" stop-color="#286565"/><stop offset=".72" stop-color="#3E9D9D"/><stop offset=".91" stop-color="#59E0E0"/><stop offset=".99" stop-color="#65FFFF"/></linearGradient><linearGradient id="j" x1="89.022" y1="97.27" x2="115.561" y2="16.043" gradientUnits="userSpaceOnUse"><stop offset=".01"/><stop offset=".1" stop-color="#030707"/><stop offset=".23" stop-color="#0A1A1A"/><stop offset=".38" stop-color="#173939"/><stop offset=".54" stop-color="#286565"/><stop offset=".72" stop-color="#3E9D9D"/><stop offset=".91" stop-color="#59E0E0"/><stop offset=".99" stop-color="#65FFFF"/></linearGradient><linearGradient id="k" x1="91.244" y1="70.587" x2="100.785" y2="28.823" gradientUnits="userSpaceOnUse"><stop offset=".01"/><stop offset=".1" stop-color="#030707"/><stop offset=".23" stop-color="#0A1A1A"/><stop offset=".38" stop-color="#173939"/><stop offset=".54" stop-color="#286565"/><stop offset=".72" stop-color="#3E9D9D"/><stop offset=".91" stop-color="#59E0E0"/><stop offset=".99" stop-color="#65FFFF"/></linearGradient><linearGradient id="l" x1="91.476" y1="66.207" x2="98.98" y2="33.371" gradientUnits="userSpaceOnUse"><stop stop-color="#A2B3FF"/><stop offset=".99" stop-color="#A411A4"/></linearGradient><linearGradient id="m" x1="86.128" y1="89.649" x2="99.55" y2="30.853" gradientUnits="userSpaceOnUse"><stop stop-color="#fff"/><stop offset=".99" stop-color="#A411A4"/></linearGradient><linearGradient id="n" x1="44.892" y1="84.132" x2="37.301" y2="106.538" gradientUnits="userSpaceOnUse"><stop stop-color="#A2B3FF"/><stop offset=".99" stop-color="#A411A4"/></linearGradient><linearGradient id="o" x1="53.821" y1="69.322" x2="40.226" y2="109.444" gradientUnits="userSpaceOnUse"><stop stop-color="#fff"/><stop offset=".99" stop-color="#A411A4"/></linearGradient><linearGradient id="p" x1="34.976" y1="147.207" x2="62.442" y2="63.132" gradientUnits="userSpaceOnUse"><stop offset=".01" stop-color="#65FFFF"/><stop offset=".09" stop-color="#59E0E0"/><stop offset=".28" stop-color="#3E9D9D"/><stop offset=".46" stop-color="#286565"/><stop offset=".62" stop-color="#173939"/><stop offset=".77" stop-color="#0A1A1A"/><stop offset=".9" stop-color="#030707"/><stop offset=".99"/></linearGradient><linearGradient id="q" x1="67.431" y1="121.816" x2="104.072" y2="9.675" gradientUnits="userSpaceOnUse"><stop stop-color="#fff"/><stop offset=".99" stop-color="#A411A4"/></linearGradient><linearGradient id="r" x1="55.14" y1="134.94" x2="90.348" y2="27.175" gradientUnits="userSpaceOnUse"><stop stop-color="#fff"/><stop offset=".99" stop-color="#A411A4"/></linearGradient><linearGradient id="s" x1="29.726" y1="129.047" x2="41.755" y2="92.233" gradientUnits="userSpaceOnUse"><stop offset=".01" stop-color="#65FFFF"/><stop offset=".09" stop-color="#59E0E0"/><stop offset=".28" stop-color="#3E9D9D"/><stop offset=".46" stop-color="#286565"/><stop offset=".62" stop-color="#173939"/><stop offset=".77" stop-color="#0A1A1A"/><stop offset=".9" stop-color="#030707"/><stop offset=".99"/></linearGradient><linearGradient id="t" x1="82.154" y1="108.597" x2="96.188" y2="65.635" gradientUnits="userSpaceOnUse"><stop offset=".01" stop-color="#A411A4"/><stop offset="1" stop-color="#fff"/></linearGradient><linearGradient id="u" x1="89.201" y1="124.213" x2="98.322" y2="96.3" gradientUnits="userSpaceOnUse"><stop offset=".01" stop-color="#A411A4"/><stop offset="1" stop-color="#fff"/></linearGradient><linearGradient id="v" x1="99.904" y1="96.401" x2="106.659" y2="75.726" gradientUnits="userSpaceOnUse"><stop offset=".01" stop-color="#A411A4"/><stop offset="1" stop-color="#fff"/></linearGradient><linearGradient id="w" x1="16.941" y1="94.659" x2="41.85" y2="18.422" gradientUnits="userSpaceOnUse"><stop offset=".01"/><stop offset=".1" stop-color="#030707"/><stop offset=".23" stop-color="#0A1A1A"/><stop offset=".38" stop-color="#173939"/><stop offset=".54" stop-color="#286565"/><stop offset=".72" stop-color="#3E9D9D"/><stop offset=".91" stop-color="#59E0E0"/><stop offset=".99" stop-color="#65FFFF"/></linearGradient><radialGradient id="a" cx="0" cy="0" r="1" gradientUnits="userSpaceOnUse" gradientTransform="matrix(97.9119 0 0 109.661 55.842 32.367)"><stop offset=".06" stop-color="#00CDFF"/><stop offset=".52" stop-color="#004DB3"/><stop offset=".6" stop-color="#0031A1"/><stop offset=".71" stop-color="#00168F"/><stop offset=".81" stop-color="#000685"/><stop offset=".88" stop-color="#000081"/><stop offset="1" stop-color="#8972FF"/></radialGradient><radialGradient id="x" cx="0" cy="0" r="1" gradientUnits="userSpaceOnUse" gradientTransform="translate(69.994 79.948) scale(77.2069)"><stop offset=".93"/><stop offset=".94" stop-color="#15131A"/><stop offset=".95" stop-color="#2D2939"/><stop offset=".97" stop-color="#504865"/><stop offset=".98" stop-color="#7C709D"/><stop offset=".99" stop-color="#CAB6FF"/></radialGradient><radialGradient id="y" cx="0" cy="0" r="1" gradientUnits="userSpaceOnUse" gradientTransform="translate(83.48 43.741) scale(129.118)"><stop stop-color="#fff"/><stop offset=".21" stop-color="#FEFDFE"/><stop offset=".29" stop-color="#F9F6FB"/><stop offset=".34" stop-color="#F2EBF5"/><stop offset=".39" stop-color="#E7DAED"/><stop offset=".42" stop-color="#D9C4E2"/><stop offset=".46" stop-color="#C7A8D5"/><stop offset=".49" stop-color="#B288C5"/><stop offset=".51" stop-color="#9A62B3"/><stop offset=".54" stop-color="#80399F"/><stop offset=".56" stop-color="#66118B"/><stop offset=".66" stop-color="#66118B"/><stop offset="1" stop-color="#fff"/></radialGradient><radialGradient id="z" cx="0" cy="0" r="1" gradientUnits="userSpaceOnUse" gradientTransform="translate(142.432 30.534) scale(154.58)"><stop offset=".88"/><stop offset=".89" stop-color="#220B30"/><stop offset=".91" stop-color="#4F196E"/><stop offset=".94" stop-color="#7325A2"/><stop offset=".96" stop-color="#902FCA"/><stop offset=".97" stop-color="#A535E7"/><stop offset=".99" stop-color="#B23AF9"/><stop offset="1" stop-color="#B63BFF"/></radialGradient></defs></svg>