<svg width="23" height="23" fill="none" xmlns="http://www.w3.org/2000/svg"><g filter="url(#a)" clip-path="url(#b)"><path d="M10.422 12.506V2.228h2.18v10.278h-2.18Zm1.054 8.194a8.797 8.797 0 0 1-3.546-.719 9.308 9.308 0 0 1-2.899-1.964 9.139 9.139 0 0 1-1.952-2.9 8.924 8.924 0 0 1-.707-3.545 9.01 9.01 0 0 1 .826-3.81 8.603 8.603 0 0 1 2.36-3.066L7.26 6.373a5.917 5.917 0 0 0-2.012 2.252 6.356 6.356 0 0 0-.695 2.923c0 1.933.675 3.578 2.025 4.935 1.35 1.358 2.99 2.037 4.923 2.037 1.933 0 3.574-.679 4.923-2.037 1.35-1.357 2.025-3.002 2.025-4.935a6.55 6.55 0 0 0-.683-2.97 6.003 6.003 0 0 0-2-2.277l1.7-1.701a8.995 8.995 0 0 1 2.349 3.127 9.139 9.139 0 0 1 .838 3.845c0 1.262-.24 2.444-.719 3.546a9.452 9.452 0 0 1-1.964 2.91 9.097 9.097 0 0 1-6.493 2.671Z" fill="#fff"/></g><defs><clipPath id="b"><path fill="#fff" d="M0 0h23v23H0z"/></clipPath><filter id="a" x=".372" y="1.228" width="22.28" height="22.472" filterUnits="userSpaceOnUse" color-interpolation-filters="sRGB"><feFlood flood-opacity="0" result="BackgroundImageFix"/><feColorMatrix in="SourceAlpha" values="0 0 0 0 0 0 0 0 0 0 0 0 0 0 0 0 0 0 127 0" result="hardAlpha"/><feOffset dy="1"/><feGaussianBlur stdDeviation="1"/><feComposite in2="hardAlpha" operator="out"/><feColorMatrix values="0 0 0 0 0.764706 0 0 0 0 0.027451 0 0 0 0 0.294118 0 0 0 0.7 0"/><feBlend in2="BackgroundImageFix" result="effect1_dropShadow_60_1615"/><feBlend in="SourceGraphic" in2="effect1_dropShadow_60_1615" result="shape"/></filter></defs></svg>