<svg width="18" height="18" fill="none" xmlns="http://www.w3.org/2000/svg"><g clip-path="url(#a)"><g filter="url(#b)"><path d="M6 6c0-.597.277-1.169.769-1.591.492-.422 1.16-.659 1.856-.659h.75c.696 0 1.364.237 1.856.659.492.422.769.994.769 1.591a2.25 2.25 0 0 1-1.5 2.25c-.46.216-.855.625-1.126 1.166A3.78 3.78 0 0 0 9 11.25" stroke="#00E0FF" stroke-width="2" stroke-linecap="round" stroke-linejoin="round" shape-rendering="crispEdges"/></g><g filter="url(#c)"><path d="M9 14.25v.008" stroke="#00E0FF" stroke-width="2" stroke-linecap="round" stroke-linejoin="round"/></g></g><defs><filter id="b" x="3" y="1.75" width="12.004" height="13.5" filterUnits="userSpaceOnUse" color-interpolation-filters="sRGB"><feFlood flood-opacity="0" result="BackgroundImageFix"/><feColorMatrix in="SourceAlpha" values="0 0 0 0 0 0 0 0 0 0 0 0 0 0 0 0 0 0 127 0" result="hardAlpha"/><feOffset dy="1"/><feGaussianBlur stdDeviation="1"/><feComposite in2="hardAlpha" operator="out"/><feColorMatrix values="0 0 0 0 0 0 0 0 0 0.76 0 0 0 0 1 0 0 0 0.7 0"/><feBlend in2="BackgroundImageFix" result="effect1_dropShadow_409_2"/><feBlend in="SourceGraphic" in2="effect1_dropShadow_409_2" result="shape"/></filter><filter id="c" x="6" y="12.25" width="6" height="6.008" filterUnits="userSpaceOnUse" color-interpolation-filters="sRGB"><feFlood flood-opacity="0" result="BackgroundImageFix"/><feColorMatrix in="SourceAlpha" values="0 0 0 0 0 0 0 0 0 0 0 0 0 0 0 0 0 0 127 0" result="hardAlpha"/><feOffset dy="1"/><feGaussianBlur stdDeviation="1"/><feComposite in2="hardAlpha" operator="out"/><feColorMatrix values="0 0 0 0 0 0 0 0 0 0.76 0 0 0 0 1 0 0 0 0.7 0"/><feBlend in2="BackgroundImageFix" result="effect1_dropShadow_409_2"/><feBlend in="SourceGraphic" in2="effect1_dropShadow_409_2" result="shape"/></filter><clipPath id="a"><path fill="#fff" d="M0 0h18v18H0z"/></clipPath></defs></svg>