<svg width="20" height="20" fill="none" xmlns="http://www.w3.org/2000/svg"><path d="M6.25 14.8 10 11.05l3.75 3.75 1.05-1.05L11.05 10l3.75-3.75-1.05-1.05L10 8.95 6.25 5.2 5.2 6.25 8.95 10 5.2 13.75l1.05 1.05ZM10 20a9.676 9.676 0 0 1-3.875-.788 10.144 10.144 0 0 1-3.188-2.15 10.142 10.142 0 0 1-2.15-3.187A9.676 9.676 0 0 1 0 10c0-1.383.263-2.683.787-3.9a9.994 9.994 0 0 1 2.15-3.175A10.25 10.25 0 0 1 6.126.788 9.676 9.676 0 0 1 10 0c1.383 0 2.683.263 3.9.787a10.098 10.098 0 0 1 3.175 2.138c.9.9 1.613 1.958 2.137 3.175A9.738 9.738 0 0 1 20 10a9.676 9.676 0 0 1-.788 3.875 10.25 10.25 0 0 1-2.137 3.188 9.994 9.994 0 0 1-3.175 2.15A9.738 9.738 0 0 1 10 20Z" fill="#FE186B"/></svg>