<svg width="23" height="23" fill="none" xmlns="http://www.w3.org/2000/svg"><g filter="url(#a)" clip-path="url(#b)"><path d="M4.696 15.693a6.274 6.274 0 0 1-.947-2 8.544 8.544 0 0 1-.275-2.193c0-2.172.787-4.045 2.36-5.618 1.573-1.573 3.43-2.36 5.57-2.36h1.03l-1.653-1.677L11.86.767 15.693 4.6l-3.834 3.833-1.102-1.078 1.653-1.653h-.934c-1.581 0-2.947.575-4.097 1.725-1.15 1.15-1.725 2.508-1.725 4.073 0 .511.052.994.156 1.45.104.455.243.858.42 1.21l-1.534 1.533Zm6.42 6.612-3.833-3.833 3.834-3.881 1.078 1.126-1.677 1.653h1.03c1.565.016 2.923-.551 4.073-1.701 1.15-1.15 1.725-2.524 1.725-4.121 0-.495-.052-.97-.156-1.426a5.113 5.113 0 0 0-.443-1.233l1.557-1.534c.431.687.743 1.374.934 2.06.192.687.288 1.398.288 2.133 0 2.188-.787 4.077-2.36 5.666-1.573 1.59-3.422 2.376-5.546 2.36h-1.102l1.677 1.677-1.078 1.054Z" fill="#fff"/></g><defs><clipPath id="b"><path fill="#fff" d="M0 0h23v23H0z"/></clipPath><filter id="a" x="1.474" y="-.233" width="20.052" height="25.538" filterUnits="userSpaceOnUse" color-interpolation-filters="sRGB"><feFlood flood-opacity="0" result="BackgroundImageFix"/><feColorMatrix in="SourceAlpha" values="0 0 0 0 0 0 0 0 0 0 0 0 0 0 0 0 0 0 127 0" result="hardAlpha"/><feOffset dy="1"/><feGaussianBlur stdDeviation="1"/><feComposite in2="hardAlpha" operator="out"/><feColorMatrix values="0 0 0 0 0.858333 0 0 0 0 0.684009 0 0 0 0 0.0607986 0 0 0 0.7 0"/><feBlend in2="BackgroundImageFix" result="effect1_dropShadow_60_1621"/><feBlend in="SourceGraphic" in2="effect1_dropShadow_60_1621" result="shape"/></filter></defs></svg>