<svg width="20" height="20" fill="none" xmlns="http://www.w3.org/2000/svg"><path d="m10 11.775 2.2 2.2c.183.2.42.3.712.3s.546-.1.763-.3c.183-.183.275-.425.275-.725s-.092-.542-.275-.725l-2.2-2.225 2.2-2.25c.183-.2.275-.446.275-.738 0-.291-.092-.529-.275-.712a1.1 1.1 0 0 0-.738-.287.885.885 0 0 0-.712.287L10 8.825 7.825 6.6c-.167-.2-.404-.296-.713-.287a1.133 1.133 0 0 0-.762.287c-.2.2-.3.442-.3.725s.1.525.3.725l2.2 2.25-2.2 2.2c-.183.2-.275.446-.275.738 0 .291.092.537.275.737.2.2.45.3.75.3s.542-.1.725-.3l2.175-2.2Zm-5.675 7.75c-.6 0-1.133-.225-1.6-.675-.467-.45-.7-.983-.7-1.6V3.45H1.75c-.317 0-.58-.104-.788-.313C.754 2.93.65 2.65.65 2.3c0-.317.104-.583.312-.8.209-.217.471-.325.788-.325H6.3c0-.333.108-.613.325-.838A1.1 1.1 0 0 1 7.45 0h5.1c.333 0 .612.113.837.338.225.224.338.504.338.837h4.5c.333 0 .608.108.825.325.217.217.325.483.325.8 0 .35-.108.63-.325.838-.217.208-.492.312-.825.312h-.275v13.8c0 .617-.23 1.15-.688 1.6-.458.45-.995.675-1.612.675H4.325Z" fill="#fff"/></svg>