<svg width="25" height="25" fill="none" xmlns="http://www.w3.org/2000/svg"><path d="m20.73 22.031-6.902-6.875a5.501 5.501 0 0 1-1.797 1.016 6.654 6.654 0 0 1-2.213.364c-1.91 0-3.529-.66-4.857-1.979-1.328-1.32-1.992-2.916-1.992-4.791 0-1.875.664-3.473 1.992-4.792 1.328-1.32 2.93-1.98 4.805-1.98 1.875 0 3.472.66 4.791 1.98 1.32 1.32 1.98 2.917 1.98 4.792 0 .746-.122 1.467-.365 2.161a6.937 6.937 0 0 1-1.068 1.953l6.927 6.85-1.302 1.301ZM9.791 14.766c1.371 0 2.539-.49 3.502-1.472.964-.98 1.446-2.157 1.446-3.528 0-1.372-.482-2.548-1.446-3.529-.963-.98-2.13-1.471-3.502-1.471-1.407 0-2.596.49-3.568 1.471-.972.98-1.458 2.157-1.458 3.529 0 1.371.486 2.547 1.458 3.528.972.981 2.161 1.472 3.568 1.472Z" fill="#00E0FF"/></svg>