<svg width="25" height="25" viewBox="0 0 25 25" fill="none" xmlns="http://www.w3.org/2000/svg">
<g opacity="0.5">
<path d="M13.4374 24.7135L1.302 12.5781V1.27603H12.6562L24.7916 13.3594L13.4374 24.7135ZM6.38013 7.68228C6.74471 7.68228 7.05721 7.55207 7.31763 7.29166C7.57804 7.03124 7.70825 6.71874 7.70825 6.35416C7.70825 6.00693 7.57804 5.70311 7.31763 5.4427C7.05721 5.18228 6.74471 5.05207 6.38013 5.05207C6.0329 5.05207 5.72908 5.18228 5.46867 5.4427C5.20825 5.70311 5.07804 6.00693 5.07804 6.35416C5.07804 6.71874 5.20825 7.03124 5.46867 7.29166C5.72908 7.55207 6.0329 7.68228 6.38013 7.68228Z" fill="#00E0FF"/>
</g>
</svg>
