<svg width="23" height="23" fill="none" xmlns="http://www.w3.org/2000/svg"><path d="M13.349 22.463H9.65a1.34 1.34 0 0 1-.82-.26c-.235-.174-.36-.425-.378-.755L8.063 19a3.55 3.55 0 0 1-.808-.365 5.828 5.828 0 0 1-.73-.494l-2.239 1.067c-.26.14-.542.157-.846.052a1.2 1.2 0 0 1-.69-.599L.9 15.354a.91.91 0 0 1-.155-.833 1.33 1.33 0 0 1 .468-.703l2.084-1.537a2.06 2.06 0 0 1-.026-.377v-.782c0-.147.008-.282.026-.403L1.213 9.182a1.48 1.48 0 0 1-.468-.716C.658 8.18.7 7.898.875 7.62L2.75 4.312c.173-.26.408-.438.703-.533.295-.096.573-.083.833.039l2.292 1.041c.174-.121.408-.269.703-.442a3.79 3.79 0 0 1 .781-.365l.39-2.526a.95.95 0 0 1 .392-.742C9.087.602 9.356.51 9.65.51h3.698c.295 0 .564.092.807.274.243.182.382.43.417.742l.364 2.5c.26.07.534.191.82.365.287.173.526.33.717.468l2.24-1.067c.26-.122.542-.13.846-.026.303.104.534.286.69.546l1.9 3.282c.174.278.218.564.131.86a1.479 1.479 0 0 1-.469.728l-2.135 1.459c.017.139.039.286.065.442.026.157.039.296.039.417s-.013.256-.039.404c-.026.147-.048.282-.065.403l2.135 1.485c.226.208.378.455.456.742.078.286.04.568-.117.846l-1.901 3.307a1.25 1.25 0 0 1-.703.586 1.03 1.03 0 0 1-.834-.065l-2.24-1.067c-.19.156-.438.325-.741.507-.304.183-.56.3-.769.352l-.39 2.448c-.035.33-.174.581-.417.755-.243.174-.512.26-.807.26Zm-1.875-7.656c.92 0 1.701-.32 2.344-.963.642-.643.963-1.424.963-2.344 0-.903-.321-1.68-.963-2.33a3.169 3.169 0 0 0-2.344-.977c-.938 0-1.723.325-2.357.976a3.225 3.225 0 0 0-.95 2.331c0 .92.316 1.701.95 2.344.634.642 1.42.963 2.357.963Z" fill="#00E0FF"/></svg>