<svg width="20" height="20" fill="none" xmlns="http://www.w3.org/2000/svg"><path d="m6.938 10 3.979 4 1.25-1.292L9.458 10l2.709-2.708L10.917 6l-3.98 4Zm-5.709 0c0-1.208.226-2.347.677-3.417a8.71 8.71 0 0 1 1.875-2.802 8.71 8.71 0 0 1 2.802-1.875A8.696 8.696 0 0 1 10 1.23c1.208 0 2.347.226 3.417.677a8.709 8.709 0 0 1 2.802 1.875 8.851 8.851 0 0 1 1.885 2.802 8.529 8.529 0 0 1 .688 3.396c0 1.222-.23 2.372-.688 3.448a8.698 8.698 0 0 1-1.885 2.802 8.938 8.938 0 0 1-2.802 1.875 8.633 8.633 0 0 1-3.438.688 8.53 8.53 0 0 1-3.396-.688 8.851 8.851 0 0 1-2.802-1.885 8.71 8.71 0 0 1-1.875-2.802A8.696 8.696 0 0 1 1.23 10Z" fill="#00E0FF"/></svg>