<svg width="41" height="41" fill="none" xmlns="http://www.w3.org/2000/svg"><path d="m28.87 25.155-1.622-1.623a10.505 10.505 0 0 0 1.858-3.01 9.121 9.121 0 0 0 .662-3.439 9.004 9.004 0 0 0-.705-3.544 10.248 10.248 0 0 0-1.986-3.033L28.7 8.883a11.353 11.353 0 0 1 2.498 3.759 11.59 11.59 0 0 1 .876 4.441c0 1.51-.285 2.947-.854 4.314a13.652 13.652 0 0 1-2.35 3.758Zm-5.338-5.381-5.723-5.723a3.257 3.257 0 0 1 1.239-.769 4.34 4.34 0 0 1 1.452-.256c1.139 0 2.1.392 2.883 1.175.783.782 1.174 1.743 1.174 2.882 0 .484-.085.961-.256 1.431-.17.47-.427.89-.769 1.26Zm9.396 9.396-1.623-1.623a17.635 17.635 0 0 0 3.118-4.848 14.012 14.012 0 0 0 1.153-5.616c0-1.993-.392-3.9-1.175-5.723a15.467 15.467 0 0 0-3.31-4.868l1.666-1.666a17.44 17.44 0 0 1 3.801 5.638 16.963 16.963 0 0 1 1.324 6.62c0 2.277-.441 4.448-1.324 6.512a19.197 19.197 0 0 1-3.63 5.574Zm2.093 9.566L21.952 25.669v10.378h-2.904V22.764l-7.56-7.56a3.752 3.752 0 0 0-.213.961c-.029.328-.043.648-.043.961.029 1.253.264 2.441.705 3.566a8.317 8.317 0 0 0 1.986 2.968L12.3 25.283a10.79 10.79 0 0 1-2.52-3.758 11.852 11.852 0 0 1-.854-4.442c0-.654.05-1.295.15-1.921.1-.627.263-1.253.49-1.88l-2.605-2.605a15.057 15.057 0 0 0-1.11 3.118 14.22 14.22 0 0 0-.384 3.288c0 1.993.377 3.901 1.131 5.723a14.573 14.573 0 0 0 3.31 4.869l-1.665 1.666a16.908 16.908 0 0 1-3.801-5.617 17.12 17.12 0 0 1-1.324-6.64c0-1.424.178-2.826.533-4.207a19.395 19.395 0 0 1 1.517-3.994L2.263 5.98l1.922-1.922 32.758 32.758-1.922 1.922Z" fill="#00E0FF"/></svg>