<svg width="663" height="1080" fill="none" xmlns="http://www.w3.org/2000/svg"><g opacity=".5" clip-path="url(#a)" fill="#84F0FF"><path d="M412.587 1035.61c-16.759 3.25-25.087 4.55-40.243 6.67h-.725v.51c6.156 17.01 9.415 25.38 15.829 40.42v.57l.931.57c20.691 13.54 30.777 21.87 51.985 31.48.414 0 .828.36 1.293.57.311-.02.621-.02.932 0 15.518-3.31 23.897-5.17 40.812-9.77.31 0 .672 0 .983-.26v-.83c-4.656-13.85-6.932-21.34-11.277-37.47v-.93c-.465 0-.827-.42-1.241-.57-.414-.16 0 0 0 0a384.039 384.039 0 0 1-56.9-29.88l-1.293-.82-1.086-.26Zm58.193 31.99.776 2.79c0 .94.517 1.92.776 2.74.186.88.428 1.74.724 2.59l1.241 4.5a.325.325 0 0 0-.035.15c0 .05.012.11.035.16l1.242 4.39.672 2.22 1.293 4.19 2.276 6.98 1.242 3.67 1.034 3.1c-17.121 4.44-25.294 6.36-40.864 9.82-21.467-9.61-31.036-17.78-51.727-31.27-6.311-14.89-9.414-22.8-15.518-39.55 15.208-2.06 23.225-3.41 39.933-6.61 7.138 4.7 13.191 8.37 18.932 11.63 1.931 1.07 3.845 2.1 5.742 3.1 2.431 1.29 4.81 2.43 7.242 3.62l8.431 3.98c4.862 2.17 10.087 4.6 16.035 7.44l.518.36Zm27.674-174.4c-23.278 9.563-35.019 14.319-55.969 22.486-.621 0-1.293.517-1.965.775v.465c0 1.396.362 2.74.62 4.084l.414 2.894c.414 2.895.776 5.531 1.242 8.064v.259c.31 2.171.568 4.29.931 6.254v.569l1.034 6.461c1.293 7.754 2.587 15.507 4.449 25.432v2.016c.155.008.31.008.465 0 24.829 13.542 37.657 20.055 62.331 32.051.225.15.468.27.724.36l1.242-.47c.206-.01.414-.01.62 0a1791.825 1791.825 0 0 0 37.658-14.005l4.034-1.551c4.138-1.55 8.587-3.308 13.656-5.169.171-.029.346-.029.517 0v-1.809c-1.707-20.314-2.586-31.583-4.138-54.533-.724-.414-1.448-.724-2.172-1.086-24.984-12.25-38.537-19.177-63.883-32.771-.466-.259-.931-.465-1.397-.776h-.413Zm63.313 91.802c-4.448 1.706-8.38 3.257-12.207 4.756a186.37 186.37 0 0 0-5.69 2.119 2.187 2.187 0 0 0-.724.31c-2.845 1.086-5.69 2.12-8.484 3.153-.517 0-.982.362-1.448.569a165.189 165.189 0 0 0-5.845 2.171c-4.345 1.654-9.052 3.31-14.38 5.17-24.157-11.786-36.209-18.041-60.676-31.015l-1.345-7.237c-.362-2.429-.827-4.755-1.189-6.926l-.983-6.048-1.138-6.875c0-1.757-.517-3.515-.879-5.169l-2.587-17.419-.621-4.084c21.57-8.374 32.744-12.871 56.124-22.434 25.863 13.802 38.692 20.418 64.4 32.927 1.603 22.485 2.483 33.34 4.242 53.81-.828.31-1.604.62-2.38.878l-4.19 1.344Z"/><path d="M449.468 972.234a415.565 415.565 0 0 1-47.537 15.146c-.569 0-1.19.258-1.759.413l.879 3.722 2.431 10.025 1.294 5.48v.47l1.241 4.86 2.121 7.9.776 2.74.776 2.85 1.189 4.39 1.397 4.81v.57l.31 1.19s.311 0 .414.25c.217.19.461.35.724.47 7.087 4.7 13.242 8.37 19.088 11.63 1.931 1.07 3.845 2.1 5.741 3.1 2.431 1.29 4.811 2.43 7.242 3.62l8.431 3.98c4.863 2.27 10.346 4.7 16.088 7.55.466.16.917.37 1.344.62.354-.15.717-.27 1.087-.37 18.104-5.16 28.139-8.47 48.002-15.09.303-.07.598-.18.88-.31v-1.14c-3.156-17.05-4.708-26.67-7.708-46.16v-.67l-1.965-1.03c-23.588-11.425-36.209-17.99-60.21-31.016-.414 0-.932-.465-1.397-.723-.466-.259-.517.568-.879.723Zm22.294 93.976a374.057 374.057 0 0 1-56.589-29.83l-.931-3.46c-.569-1.91-1.138-3.77-1.604-5.58l-1.5-5.43-.828-3.1-1.293-4.81c-1.81-7.13-3.569-14.421-5.897-24.139a411.502 411.502 0 0 0 48.313-15.507c24.312 13.077 36.519 19.28 60.624 31.016 3.052 19.33 4.604 28.53 7.811 45.69-20.174 6.83-29.795 9.98-48.106 15.15Z"/><path d="M378.24 876.608c-19.811 7.133-29.691 10.338-47.433 15.869 0 0-.569 0-.828.258v.517c4.811 22.072 7.397 33.03 12.673 53.5v.775l.983.724c22.087 15.972 33.829 24.191 56.279 39.543l1.5.879c.414 0 .724 0 1.086-.259a404.584 404.584 0 0 0 47.537-15.197c.569 0 1.293-.413 1.966-.672v-.413l-1.345-7.237c-.362-2.429-.828-4.755-1.19-6.926l-.983-6.048-1.138-6.875c0-1.758-.517-3.515-.879-5.169l-2.586-17.42-.621-4.083v-2.223a1.598 1.598 0 0 0-.517-.258c-25.191-14.422-37.916-22.589-61.71-38.561l-1.397-.931c-.621-.052-1.035.052-1.397.207Zm62.797 44.454.414 2.894c.413 2.895.775 5.531 1.241 8.064v.258c.31 2.171.569 4.291.931 6.255v.569l1.035 6.461c1.293 7.753 2.586 15.507 4.448 25.432a414.698 414.698 0 0 1-48.313 15.507c-22.604-15.507-33.881-23.261-56.02-39.285-5.173-20.211-7.604-30.704-12.259-52.362 17.794-5.428 27.26-8.581 47.175-15.507 23.742 15.972 35.795 23.829 60.572 38.044.362.982.517 2.326.776 3.67Z"/><path d="M425.984 790.233c-22.915 10.338-34.347 15.507-55.038 24.088a4.953 4.953 0 0 1-.517 0 4.828 4.828 0 0 1-1.034.465v1.706l.931 8.219c.362 2.584.62 5.169.982 7.391l1.449 11.062 1.034 6.617c1.138 7.753 2.483 15.507 4.139 25.845v1.654c.363.281.743.54 1.137.775 23.691 15.921 36.209 24.14 61.038 38.251l1.345.775c.423-.15.837-.322 1.241-.517 21.467-8.322 33.209-13.026 56.9-22.743l.672-.31c-2.379-24.036-3.672-36.184-5.483-62.029v-1.757l-1.345-.776c-25.863-14.835-39.519-22.899-64.71-38.302l-1.5-.931-1.241.517Zm-46.554 78.931-.673-4.548-1.138-6.875-.517-3.67-1.035-6.668c-1.189-8.322-2.379-16.748-3.569-27.551l-.31-2.74v-.258c21.104-8.891 32.122-13.647 55.244-24.036a.424.424 0 0 0 .259 0c25.191 15.507 38.226 23.209 64.348 38.199v.258c1.81 25.846 3.052 37.269 5.431 60.685-23.432 9.666-34.709 14.163-56.227 22.64-24.829-14.266-36.985-22.072-60.727-38.044l-1.086-7.392Zm-36.675 77.587c-16.863 4.136-25.191 5.945-40.295 8.788a3.02 3.02 0 0 0-.672 0l.258.878c5.897 19.126 9.104 28.689 15.518 46.523v.72c.319.21.614.45.88.73 20.69 15.5 31.915 23.77 53.071 38.45.414 0 .828.52 1.242.83.414.31.362 0 .517 0 15.156-2.07 23.484-3.46 39.778-6.62.517 0 1.086-.1 1.707-.31v-.31l-.931-3.46c-.569-1.91-1.138-3.77-1.604-5.58l-1.5-5.43-.827-3.1-1.294-4.81c-1.81-7.13-3.569-14.419-5.896-24.137l-.259-1.189V988l-.414-.31c-23.07-15.507-34.915-23.984-57.417-40.318l-.775-.517a8.435 8.435 0 0 1-1.087-.104Zm60.728 54.789 1.293 5.48v.47l1.241 4.86 2.121 7.91.776 2.73.776 2.85 1.189 4.39 1.397 4.81c-16.863 3.25-24.88 4.55-40.088 6.67-21.312-14.74-31.916-22.44-52.813-38.25-6.259-17.631-9.363-26.832-15.518-45.905 15.156-2.792 23.173-4.497 40.088-8.633 22.139 16.024 33.364 23.933 55.865 39.285l.828 3.308 2.845 10.025Zm116.592 49.16a4.459 4.459 0 0 0-.517 0c-19.863 6.62-29.847 9.77-47.951 15.09-.343.05-.675.16-.983.31v.93l.828 2.85c0 .93.517 1.91.776 2.74.186.87.428 1.74.724 2.58.362 1.6.828 3.1 1.241 4.5a.357.357 0 0 0 0 .31c.363 1.55.828 2.95 1.242 4.39l.672 2.23 1.293 4.18 2.276 6.98 1.242 3.67 1.034 3.1v.83c.466 0 .88.36 1.294.52 21.725 9.35 32.898 13.85 54.002 21.86.224-.01.449-.01.673 0h1.034c17.277-4.6 26.795-7.24 45.779-12.87h.827v-.72c-2.121-13.44-3.207-21.25-5.172-37.22v-.67c-.311 0-.673-.31-.983-.42-22.45-9.15-34.502-14.26-57.572-24.81l-1.345-.62-.414.26Zm-46.813 17.01c18.26-5.43 27.881-8.43 47.796-15.05 23.07 10.34 34.553 15.51 56.899 24.56 2.121 15.87 3.207 23.26 5.173 36.85-19.035 5.69-28.191 8.22-45.571 12.82-20.691-7.91-31.761-12.2-53.538-21.66-4.138-13.69-6.414-21.19-10.759-37.32v-.2Z"/><path d="M359.256 681.942c-21.983 11.682-32.898 17.265-52.864 27.293a2.12 2.12 0 0 0-.466.258h-.414c1.759 26.207 2.845 39.388 5.173 63.941v1.964l.879.672c21.881 16.024 33.881 24.605 57.572 40.37.517.259.931.621 1.449.931a8.974 8.974 0 0 0 1.241-.517c20.691-8.788 32.381-13.801 55.399-24.191l1.138-.517v-1.551a450.437 450.437 0 0 1-.982-12.354c-1.087-13.233-1.863-23.674-2.69-36.7l-.517-9.098c0-1.085 0-2.274-.259-3.463v-6.823a1.723 1.723 0 0 0-.517-.31l-.983-.672c-25.501-15.507-38.175-23.571-61.503-39.181l-.931-.621-.725.569Zm62.486 50.243c1.035 17.161 1.863 29.153 3.156 44.712l.31 4.342c.31 2.791.517 5.841.776 8.994-23.018 10.338-33.985 15.507-54.83 24.036h-.725c-23.691-15.817-35.226-23.932-56.899-39.956v-.569c-2.276-24.398-3.362-37.01-5.173-62.494 19.967-9.976 30.416-15.507 52.244-26.775 23.277 15.507 35.33 23.416 60.883 38.974l.258 3.567v5.169Zm-65.538-266.153c-22.811 14.887-34.294 22.537-55.089 36.545l-.931.672v.775c-.465 27.293-.465 41.352 0 68.852v.982c.362 0 .673.465.983.62 20.691 14.008 32.278 21.658 55.037 36.493.414 0 .88.517 1.397.879.432-.286.881-.545 1.345-.775 21.984-12.768 33.881-19.849 58.71-33.806l1.5-.827v-1.705c-.31-21.762-.362-35.46 0-53.242v-21.141l-1.345-.724c-24.829-13.853-36.726-20.676-58.762-33.547-.413 0-.879-.465-1.293-.775l-1.552.724Zm59.641 85.444v23.209c-25.139 14.111-36.208 20.934-58.606 33.857-22.863-14.938-33.933-22.227-54.882-36.183-.31-26.931-.31-40.577 0-67.508 20.691-14.008 31.915-21.348 54.675-36.183 22.191 12.871 33.416 19.642 58.555 33.754.207 19.694.155 33.133.258 49.054Z"/><path d="M300.081 572.875a8439.228 8439.228 0 0 1-48.882 30.549 5.918 5.918 0 0 1-.827.569v1.292c.672 25.845 1.19 38.923 2.638 64.51.25.239.528.447.828.62 19.449 15.145 30.156 23.261 51.726 38.975l.828.62c.167-.085.323-.189.466-.31 20.121-10.028 31.036-15.507 52.968-27.189l.879-.466c.138-.016.276-.016.414 0v-1.602l-.879-18.247c-.311-8.27-.673-15.507-.931-23.571v-28.429a16.14 16.14 0 0 1-1.397-.931c-22.863-14.835-34.398-22.433-55.4-36.545l-.672-.465-1.759.62Zm56.383 52.052v5.17c.258 9.976.568 18.66 1.034 28.171v2.481l.931 19.28c-21.829 11.476-32.226 16.955-52.14 26.983-21.622-15.507-31.916-23.416-51.313-38.406-1.397-24.915-1.914-37.579-2.639-63.011a8064.242 8064.242 0 0 0 48.727-30.342c20.691 14.06 31.916 21.348 54.831 36.183l.569 13.491Zm-45.675 148.662a1.889 1.889 0 0 0-.569.258c-19.036 8.374-28.709 12.406-45.985 19.281h-.362a1.068 1.068 0 0 1-.414 0v2.171a448.557 448.557 0 0 0 10.345 55.257v.827c.332.212.644.454.931.723 21.208 16.179 32.743 24.708 55.038 40.784l1.396.982h.517c17.846-5.531 27.726-8.787 47.486-15.869l1.396-.465v-1.189l-1.241-7.392-.673-4.548-1.138-6.875-.517-3.67-1.034-6.668c-1.19-8.322-2.38-16.748-3.57-27.551v-4.756s-.569-.362-.879-.62c-.31-.259 0 0 0 0-23.846-15.817-36.209-24.346-57.779-40.319l-.569-.465-.672-.465a7.544 7.544 0 0 0-1.707.569Zm58.761 43.109.932 8.219c.362 2.585.62 5.169.982 7.392l1.449 11.062 1.034 6.616c1.138 7.753 2.483 15.507 4.138 25.845-19.966 7.185-29.38 10.338-47.174 15.869-22.502-16.179-33.571-24.346-54.831-40.577a428.254 428.254 0 0 1-10.345-55.515c17.38-6.927 26.639-10.804 45.933-19.229.12-.017.242-.017.362 0 21.932 16.076 33.416 24.139 57.21 40.06l.31.258Zm123.472-568.903c-.259 0-.466.258-.724.362-3.311 1.86-6.311 3.618-9.259 5.169-1.449.878-2.897 1.654-4.242 2.481-2.793 1.602-5.431 3.101-7.966 4.6-3.828 2.223-7.449 4.394-11.121 6.513-2.535 1.551-5.173 3.05-7.708 4.601l-15.518 9.252-7.965 5.169-.983.621-1.552.93v1.551l-1.293 16.541-.362 3.928-.311 4.497-.776 10.338-.258 3.877v3.928l-1.035 15.507v9.563c.156.117.331.205.518.259 24.518 11.992 37.657 18.556 63.986 31.996.258 0 .569 0 .827.414.259.413 1.035-.569 1.552-.879l.776-.414 9.518-5.479c11.949-6.823 21.518-12.251 31.967-18.04 1.293-.724 2.638-1.499 4.035-2.223l4.086-2.222 8.742-4.807c1.552-.879 3.103-1.758 4.759-2.585 1.655-.827 3.31-1.809 5.172-2.739l.621-.311v-2.481c.724-27.706 1.19-42.231 2.172-69.058v-.931l-2.275-1.033c-25.295-12.044-38.537-18.04-62.383-28.689-.517-.258-.931-.465-1.448-.672l-1.552.466Zm53.744 105.086c-.672.31-1.345.724-2.017 1.086-2.483 1.395-4.863 2.739-7.139 3.928-7.552 4.135-14.225 7.909-21.104 11.786-2.587 1.447-5.173 2.946-7.863 4.445-5.172 2.946-10.914 6.151-17.225 9.769-1.603.879-3.207 1.81-5.172 2.792-25.864-13.078-38.278-19.281-62.073-31.014v-4.601l.88-14.008c0-1.396 0-2.843.31-4.239l1.035-14.783.258-3.773.414-5.428 1.19-15.249.414-4.652 4.655-2.843a367.895 367.895 0 0 1 6.414-3.928c2.069-1.241 4.035-2.481 6.052-3.619l3.88-2.325c5.172-3.05 9.828-5.893 14.69-8.788 2.638-1.499 5.173-3.101 7.966-4.6 2.793-1.499 4.862-2.895 7.449-4.394l13.552-7.754c24.364 10.855 37.037 16.696 63.107 28.999-1.035 27.034-1.5 40.887-2.276 69.161-2.379 1.241-4.966 2.585-7.397 4.032Z"/><path d="M421.174 356.344c-24.933 15.197-37.502 23.416-59.952 38.355-.724.517-1.5.982-2.276 1.499v5.169c0 5.427-.517 10.338-.724 14.99l-.259 6.668c0 4.29-.413 8.477-.569 12.767v12.665l-.258 6.926v12.561l.414.258c.251.1.493.221.724.362 22.035 12.768 33.933 19.901 58.761 33.806l1.5.827c.518-.31.983-.621 1.501-.879 25.242-14.68 39.053-22.692 65.693-37.734a9.402 9.402 0 0 1 1.241-.672v-2.016c.414-29.05.828-44.195 1.759-72.677v-1.033c-.776-.362-1.5-.776-2.225-1.086-25.087-12.767-38.174-19.384-61.761-31.014l-1.345-.672c-.716.367-1.46.678-2.224.93ZM417.76 499.63c-24.984-13.956-36.209-20.676-58.555-33.444 0-3.36 0-6.564.31-9.511v-9.252l.259-8.426c.465-13.077.983-24.811 1.81-41.352 23.329-15.507 35.433-23.416 61.038-38.923 24.001 11.837 36.571 18.092 62.382 31.014-.982 28.378-1.344 42.903-1.862 71.953-26.898 15.559-40.036 23.158-65.382 37.941Z"/><path d="M369.757 261.802c-7.501 5.17-13.708 9.201-19.449 13.13-2.276 1.551-4.449 2.998-6.57 4.497l-6.931 4.859-6.156 4.445a1737.67 1737.67 0 0 0-15.518 11.114c-1.034.775-2.017 1.55-3.155 2.326l-1.035.775v1.499c-2.379 24.501-3.517 37.682-5.172 63.372v.931c.299.176.61.331.931.465 19.863 9.925 30.777 15.507 52.451 26.982.465 0 .827.466 1.293.672.445-.339.912-.65 1.397-.93 22.656-15.145 35.329-23.416 60.003-38.354.776-.517 1.603-.982 2.431-1.499v-5.169l.879-14.008c0-1.396 0-2.843.311-4.239l1.034-14.783.259-3.774.414-5.427 1.189-15.249.414-4.652V286.2a1.03 1.03 0 0 1-.414 0c-23.587-10.648-35.07-15.507-56.227-24.553l-1.293-.465-1.086.62Zm56.227 27.19-1.293 16.54-.362 3.929-.311 4.497-.776 10.338-.258 3.877v3.928l-1.035 15.507v6.875c-25.605 15.507-37.605 23.468-60.934 38.975-21.88-11.424-32.278-16.8-52.244-26.724 1.759-25.587 2.845-38.251 5.173-62.959 16.5-12.096 27.415-19.849 42.105-29.825 2.483-1.758 5.173-3.567 7.914-5.169 2.018-1.396 4.19-2.792 6.415-4.291l.982-.672c21.157 8.891 32.071 13.698 55.245 24.192l-.621.982Zm0 0v-1.034 1.034Z"/><path d="M305.616 367.82c-21.467 15.507-32.226 23.674-51.727 38.767l-.828.621v1.24c-1.448 24.863-1.965 38.044-2.638 63.579v1.034l.828.517c18.259 11.32 28.501 17.678 48.882 30.446l1.138.723c.228-.189.47-.362.724-.516 20.69-13.957 32.226-21.555 54.52-36.184.724-.517 1.5-.982 2.276-1.499v-.723l.31-9.511v-9.253l.259-8.426c.465-13.077.983-24.811 1.81-41.352a8.96 8.96 0 0 0 0-1.654v-1.034c-.155.009-.31.009-.465 0-22.398-11.733-33.364-17.368-53.589-27.447l-.673-.362c-.253.362-.53.707-.827 1.034Zm53.123 31.324v2.223c0 5.427-.517 10.338-.724 14.99l-.259 6.668c0 4.29-.414 8.477-.569 12.767v12.665l-.258 6.926v9.77c-22.915 14.99-33.881 22.33-54.831 36.183-20.691-12.768-30.26-18.815-48.623-30.136.672-25.431 1.19-38.095 2.586-63.01 19.501-14.99 29.795-22.796 51.417-38.458 19.863 9.977 30.363 15.507 52.089 26.879l-.828 2.533Zm-41.174 603.846c-14.846 1.86-21.984 2.48-35.33 3.21v.46c6.88 16.85 10.656 25.28 17.949 40.37l.362.83c.085.18.189.35.311.52 7.707 6.04 14.069 10.9 20.018 15.5.312.2.606.43.879.67 9.57 7.09 18.415 13.29 31.037 21.87.198.15.406.29.62.41.258.03.518.03.776 0 12.932-.36 20.07-.88 34.45-2.22h.673l-.362-.78c-6.363-14.83-9.622-23.15-15.519-39.95l-.258-.73-.931-.67c-21.26-14.68-32.381-22.74-53.072-38.4-.392-.34-.806-.65-1.241-.93 0 0-.207-.16-.362-.16Zm69.417 79.81c-14.38 1.34-21.208 1.81-34.295 2.22-20.225-13.9-30.312-21.24-50.227-36.64-7.397-15.51-10.966-23.42-17.949-40.27 12.984-.73 19.863-1.35 34.243-3.1 20.691 15.81 31.45 23.46 52.71 38.2 6 16.74 9.259 24.7 15.518 39.59Z"/><path d="M270.752 1046.62v.51c9.968.99 19.985 1.41 30.001 1.25 7.708 6.04 14.07 10.9 20.019 15.5.311.2.605.43.879.67a155.15 155.15 0 0 0 6.88 5.17l1.189.88c6.673 4.76 13.604 9.62 22.45 15.51v.46c.159.21.374.38.62.47.569.41 1.19.88 1.811 1.24-.334-.56-.628-1.15-.879-1.76l-.311-.46a4.93 4.93 0 0 0-.931-.62c-20.691-14.11-31.036-21.87-51.727-37.74h-.776c-9.754.18-19.511-.18-29.225-1.08Zm21.518 37.01c-1.345-2.07-2.535-3.93-3.621-5.74 1.138 1.86 2.328 3.83 3.621 5.74Zm-18.362-232.712c-16.708 5.169-24.674 7.598-39.365 11.475v.517c5.484 20.676 8.484 31.014 14.432 50.295v.672c20.691 17.264 31.036 25.845 52.762 42.592l.724.569c.292.025.587.025.879 0 14.949-2.688 23.329-4.497 40.244-8.632h.827v-.982c-5.172-20.211-7.811-31.015-12.518-52.983v-.827c-.31-.31-.724-.517-1.034-.775-22.398-16.128-34.036-24.657-55.089-40.732-.466-.362-.828-.672-1.293-.982l-.569-.207Zm68.176 95.213c-16.915 4.136-24.933 5.841-40.037 8.684-21.053-16.282-31.346-24.553-51.21-41.352-5.896-19.28-8.69-29.153-14.069-49.312 14.328-3.671 21.932-5.842 38.278-11.011 21.208 16.283 32.225 24.398 54.675 40.577 4.707 21.762 7.138 32.255 12.363 52.414Z"/><path d="M249.078 913.153c-13.966 2.533-20.691 3.463-33.209 4.756l.311.775 2.017 5.944 2.742 7.806a136.416 136.416 0 0 0 2.534 7.03l1.655 4.6c.725 1.757 1.345 3.515 2.018 5.169a491.85 491.85 0 0 0 5.535 14.318v.569c19.19 17.316 29.432 25.845 49.502 42.23.322.3.668.58 1.035.83 13.397-.67 20.69-1.35 35.174-3.16.241-.02.483-.02.724 0v-.41c-6.466-17.935-9.673-27.601-15.518-46.985v-.621l-.983-.723c-21.415-16.644-32.174-25.328-52.658-42.49-.275.16-.571.282-.879.362Zm-31.036 6.823c12.259-1.24 18.725-2.119 32.64-4.652 19.759 16.644 30.105 24.967 51.054 41.352 5.949 19.023 9 28.223 15.518 45.854-14.432 1.8-21.26 2.48-34.243 3.2-19.915-16.127-29.691-24.449-48.468-41.352-7.139-17.316-10.397-26.155-16.656-44.402h.155Zm35.123-250.078c-18.467 10.338-27.312 14.887-43.399 23.261 1.655 23.777 2.638 35.873 5.173 58.513v1.809l.672.569c17.846 16.076 27.777 24.656 47.796 40.99l.569.414c.171.211.381.387.62.517.355-.134.7-.289 1.035-.465h.517c17.07-6.72 26.691-10.804 46.089-19.229h.31c.172.008.345.008.517 0v-2.378c-2.327-24.295-3.414-37.579-5.172-63.579a4.733 4.733 0 0 0-.828-.569c-21.673-15.507-32.484-23.777-51.727-38.974a3.143 3.143 0 0 1-.827-.621c-.4-.253-.88-.346-1.345-.258Zm-36.675 82.705v-.466c-2.224-22.433-3.258-34.012-4.914-57.221 15.829-8.219 24.26-12.664 42.261-22.485 19.449 15.042 29.691 22.847 51.21 38.509 1.81 25.483 2.845 38.148 5.172 62.7-19.397 8.478-28.605 12.406-45.83 19.281h-.362c-.362 0 0 0 0 0-20.173-16.179-29.743-24.088-47.537-40.112v-.206Zm34.036-280.834c-19.552 14.37-28.863 21.503-46.036 34.787v.672c-.363 24.605-.363 37.527 0 62.029v.93c17.121 13.233 26.432 20.314 45.933 34.736l.621.414 1.034-.672c18.208-11.321 28.502-17.678 48.986-30.549.258 0 .569-.311.931-.569v-1.344c-.414-26.931-.362-41.352 0-68.335v-1.033l-.931-.621c-20.691-12.767-30.726-19.073-48.934-30.29-.414 0-.724-.517-1.086-.724a2.483 2.483 0 0 0-.518.569Zm48.986 100.176c-20.691 12.922-30.209 18.97-48.623 30.445-18.984-13.956-27.881-20.676-44.537-33.547-.311-24.243-.311-36.597 0-60.839 16.656-12.923 25.605-19.643 44.692-33.651a13740.285 13740.285 0 0 1 48.519 30.239c-.413 27.138-.413 40.732-.051 67.611v-.258Z"/><path d="M204.541 569.567c-16.397 11.527-24.311 17.058-38.433 27.086v.93c.621 23.003 1.087 34.788 2.328 57.79 15.518 14.525 23.639 22.227 41.382 37.682.266.177.509.385.724.621 16.242-8.529 25.087-13.233 43.502-23.261.155-.019.311-.019.466 0h.31c-1.448-25.845-1.966-39.026-2.69-65.078v-.931a3.906 3.906 0 0 1-.879-.672c-19.346-14.214-28.709-21.348-45.83-34.477l-.88.31Zm-34.605 84.876c-1.19-22.331-1.655-33.496-2.276-56.136 13.915-9.821 21.467-15.094 37.761-26.465 16.604 12.819 25.501 19.59 44.485 33.598.672 25.38 1.241 37.993 2.534 62.856-18 9.873-26.38 14.421-42.157 22.692-17.328-15.094-25.45-22.434-40.347-36.545Zm44.64 97.385c-15.518 6.771-23.121 9.872-36.674 15.041v1.758a338.672 338.672 0 0 0 8.949 51.69v.466c17.897 16.747 27.725 25.379 47.433 42.024l.983.827c14.742-3.774 22.708-6.1 39.313-11.372.268-.054.528-.141.775-.259v-.465a457.574 457.574 0 0 1-10.345-56.032v-1.809a5.211 5.211 0 0 1-.776-.62c-20.122-16.335-30.105-24.812-47.795-40.784l-1.035-.931-.828.466Zm48.572 43.419a436.368 436.368 0 0 0 10.345 55.051c-16.345 5.169-24.001 7.391-38.226 11.165-19.656-16.489-29.019-24.708-46.554-40.991a336.972 336.972 0 0 1-8.897-51.69c13.242-5.169 20.432-7.96 35.743-14.577 17.846 16.024 27.364 24.191 47.485 40.577l.104.465Zm.724-512.406-.517.465-3.673 2.998-6.466 5.169-5.845 4.859c-10.759 8.994-19.087 16.386-31.501 27.551-.363.259-.673.569-1.035.879v1.396c-2.276 22.588-3.31 34.632-5.173 58.048v.827c16.243 8.426 25.088 13.129 43.554 23.157l.569.31a8.994 8.994 0 0 0 1.087-.878c19.345-14.887 30.105-23.003 51.726-38.665.362 0 .673-.517 1.035-.723v-1.241c1.707-25.38 2.793-38.613 5.173-62.804v-1.861a4.157 4.157 0 0 0-.828-.413c-19.553-8.477-29.277-12.509-46.554-19.384-.31 0-.673-.258-1.035-.414l-.517.724Zm-40.45 36.855 4.862-4.29 6.311-5.582 5.172-4.239c3.776-3.205 7.604-6.41 11.794-9.873l12.932-10.596c17.38 6.978 26.639 10.855 46.14 19.383-2.431 24.657-3.466 37.217-5.173 62.856-21.621 15.507-31.863 23.416-51.261 38.509-18.001-9.769-26.432-14.266-42.261-22.433 1.656-23.364 2.69-34.891 5.173-57.635l6.311-6.1Z"/><path d="M209.714 384.309c-17.483 15.249-25.863 23.054-41.071 37.476v.982c-1.293 22.485-1.81 34.115-2.431 56.859v.672c14.122 9.976 22.036 15.507 38.381 26.879 0 0 .518.414.88.62 17.121-13.232 26.484-20.314 45.882-34.632l.879-.62v-.672c.724-25.846 1.241-39.13 2.638-64.407v-.878a4.134 4.134 0 0 0-.828-.414c-18.311-10.028-27.156-14.68-43.398-23.105l-.932 1.24Zm42.882 24.45c-1.345 24.914-1.914 37.475-2.638 62.803-18.932 14.06-27.881 20.677-44.537 33.754a7923.01 7923.01 0 0 1-37.657-26.258c.621-22.589 1.086-33.858 2.328-56.085 14.897-14.214 23.018-21.554 40.398-36.7 15.725 7.961 24.105 12.716 42.106 22.486ZM633.77 1057.16c-22.397 8.17-33.57 12.1-54.106 18.97-.322.07-.635.17-.931.31v.42c2.069 16.28 3.259 23.98 5.483 37.68v.52c.311 0 .621 0 .983.36 21.311 7.91 32.122 11.58 52.451 18.04.205.03.416.03.621 0l1.138-.36c19.242-5.74 29.846-9.05 50.537-16.08l.879-.31v-.72c.724-13.44 1.035-21.15 1.759-37.07v-.67c-.31 0-.673 0-.931-.31-21.519-7.65-33.312-11.89-55.969-20.67l-1.345-.47s-.155.26-.569.36Zm54.779 59.03c-20.691 7.08-31.036 10.34-50.278 16.08-20.122-6.51-30.519-10.34-51.727-17.89-2.069-13.59-3.104-20.98-5.173-36.85 20.691-6.83 31.036-10.34 53.175-18.66 22.812 8.94 34.088 13.08 55.555 20.67-.621 15.87-.879 23.21-1.552 36.65Zm-59.537-217.201c-26.329 11.579-39.467 17.162-64.4 27.448v.517c1.656 23.054 2.535 34.374 4.397 55.153v.776l2.069 1.034c24.26 11.216 37.088 16.903 61.141 27.033 0 0 .518 0 .776.31.478-.16.944-.35 1.397-.57 23.277-9.2 36.209-14.368 60.727-25.016.31 0 .673-.31 1.035-.465v-.982l1.396-54.637v-.827l-1.138-.465c-25.191-10.855-38.898-16.903-65.02-29.05-.518 0-.983-.517-1.552-.724a3.141 3.141 0 0 0-.828.465Zm64.245 85.134c-24.726 10.338-36.985 15.507-60.417 24.867-24.105-10.342-36.209-15.511-61.193-27.089-1.707-20.676-2.535-31.376-4.086-53.913 24.156-9.977 36.674-15.507 62.072-26.569 26.174 12.199 39.312 17.936 64.555 28.791-.31 22.279-.621 33.392-1.086 53.913h.155Z"/><path d="M568.75 982.159a6.92 6.92 0 0 1-.672.31c-.828.31-1.604.569-2.379.931l-4.139 1.602c-4.448 1.706-8.379 3.257-12.207 4.756a183.758 183.758 0 0 0-5.69 2.119 2.155 2.155 0 0 0-.724.31c-2.845 1.086-5.69 2.119-8.483 3.153-.518 0-.983.362-1.449.569a163.238 163.238 0 0 0-5.845 2.171c-4.448 1.602-9.052 3.31-14.38 5.17h-.414l.259 1.76c2.845 18.97 4.448 28.58 7.655 45.64v.72c.673.31 1.294.62 1.966.88 22.605 10.34 34.605 15.51 56.641 24.35.414 0 .879.41 1.345.57h.621c20.69-6.93 31.811-10.86 54.054-18.97.336-.15.682-.27 1.035-.37v-.51c-.673-17.37-1.087-26.93-1.656-46.52v-.73l-1.189-.46c-24.209-10.341-37.089-15.872-62.073-27.503a2.668 2.668 0 0 0-.776-.361l-1.5.413Zm-16.087 8.788 4.035-1.551a421.102 421.102 0 0 1 13.604-5.169c24.674 11.423 36.933 16.803 60.986 26.983.724 19.33 1.035 28.53 1.759 45.64-22.087 8.17-32.743 11.84-53.227 18.77-22.501-9.21-34.036-14.17-57.262-24.71-3.207-17.27-4.655-26.47-7.603-45.9 15.104-5.483 25.035-9.205 37.708-14.063Zm73.504-297.685c-28.398 14.577-42.778 21.865-69.78 35.253l-.672.361h-.517c.775 28.895 1.241 43.472 2.224 70.351v2.171c.362 0 .724.362 1.034.517 27.002 14.68 41.382 22.64 68.176 35.615.233.121.475.225.724.31.27.196.566.352.88.465.465 0 1.034-.517 1.552-.724l.724-.31c25.863-11.94 40.502-19.384 67.607-33.237.172-.008.345-.008.517 0 0 0 .466-.31.724-.413v-2.533c.311-26.827.466-41.352.673-70.557 0 0-.725-.414-1.087-.569-27.829-14.06-42.726-21.658-71.072-36.597l-1.138-.568-.569.465Zm70.814 39.181-.724 69.575-16.346 8.219-5.173 2.481-9.104 4.601c-8.793 4.29-17.121 8.373-27.156 13.181-.311 0-.621.362-.983.517l-4.397 2.015c-1.5.776-3 1.5-4.604 2.275h-.465c-27.002-13.698-40.606-20.676-67.607-35.408v-.569c-.983-26.672-1.448-40.577-2.173-68.696 26.795-13.336 40.554-20.314 68.435-34.581 28.191 15.094 42.571 22.382 70.297 36.39Zm-71.383-272.925c-28.709 15.507-43.554 23.416-71.487 38.716l-1.241.672v78.931c.465 0 .879.517 1.345.724 27.932 15.507 42.674 23.261 71.383 38.561 0 0 .621.31.931.517l1.655-.879c28.139-14.783 43.244-22.692 71.693-37.941.414 0 .828-.413 1.242-.672v-79.603c-.414 0-.828-.413-1.242-.672-28.449-15.145-43.554-23.105-71.693-37.889-.517-.258-1.086-.62-1.655-.878a6.78 6.78 0 0 1-.931.413Zm72.107 116.872c-28.502 15.197-42.933 22.795-71.228 37.682-28.45-15.093-42.571-22.795-70.348-37.992v-75.416c27.777-15.197 42.002-22.848 70.348-37.993 28.295 14.887 42.726 22.485 71.228 37.682v76.037Z"/><path d="M552.818 576.804a24881.501 24881.501 0 0 1-67.917 36.441 8.758 8.758 0 0 1-1.19.672v1.448c.414 29.722.828 44.919 1.862 74.279.384.167.748.375 1.087.62 26.846 15.507 41.381 23.364 68.848 38.509.31 0 .724.362 1.086.569l.673-.31c27.208-13.595 41.64-20.676 69.831-35.305l.724-.361h.517c0-30.239-.31-45.798-.413-76.45v-1.086l-1.242-.62c-28.605-15.249-43.399-23.313-71.538-38.665l-.879-.465-1.449.724Zm71.952 40.628c0 29.981 0 44.816.466 74.021-27.933 14.267-41.692 21.296-68.538 34.633-27.519-14.991-41.382-22.641-68.021-37.993-.931-28.533-1.293-43.058-1.759-72.366a63178.95 63178.95 0 0 0 67.555-36.184c27.985 15.146 41.899 22.796 70.297 37.889Zm-67.348 182.054a4.75 4.75 0 0 0-.724.362c-25.501 12.095-38.743 18.195-63.055 28.998l-.621.259v2.481c1.759 25.483 3 37.63 5.173 61.511l1.448.776c25.502 13.697 39.002 20.676 64.452 33.03.517.258 1.086.517 1.552.775a3.95 3.95 0 0 1 .724-.258c24.415-10.339 37.45-15.508 63.365-27.138.362 0 .724-.362 1.19-.517v-.568c-.517-23.623-.776-36.184-1.19-61.357v-1.964a10.99 10.99 0 0 0-1.138-.517c-27.001-13.026-41.381-21.141-68.176-35.718a5.71 5.71 0 0 1-.776-.413 4.742 4.742 0 0 1-.879-.466c-.31.207-.879.517-1.345.724Zm1.655 2.481c27.002 14.628 40.606 22.227 67.659 35.305v.516c.414 24.864.724 37.114 1.241 60.53-25.863 11.32-38.277 16.644-62.434 26.724-25.863-12.664-38.692-19.281-64.503-33.134-2.276-23.467-3.466-35.046-5.173-60.788 24.26-10.855 36.933-16.696 62.641-28.894l.569-.259Zm68.59-561.771c-.268.1-.527.221-.776.362-20.691 9.924-33.416 16.696-50.279 25.845l-7.862 4.342-1.242.62-8.328 4.549a9.917 9.917 0 0 0-1.448.775v1.603c-1.034 26.879-1.5 41.352-2.276 69.833v.982l2.328 1.189c26.277 13.026 40.657 20.366 68.486 34.581.303.136.597.291.879.465a10.75 10.75 0 0 1 1.707-.878c27.933-14.732 42.83-22.331 70.504-36.184.362 0 .828-.361 1.19-.568v-1.447c-.259-28.275-.362-42.955-.673-69.576v-2.016a7.555 7.555 0 0 1-1.293-.672c-27.312-13.904-41.795-21.296-68.228-33.392l-1.551-.723c-.569.052-.88.155-1.138.31Zm-53.951 31.014 8.638-4.704c.201-.081.392-.185.569-.31l3.931-2.119a14.082 14.082 0 0 0 1.5-.775c2.069-1.086 4.19-2.171 6.208-3.309 2.017-1.137 5.172-2.636 7.707-4.032 4.19-2.119 8.483-4.342 13.138-6.668 2.638-1.24 5.173-2.636 8.173-4.031l5.173-2.378c26.588 12.147 40.45 19.435 67.866 33.34.31 27.189.413 41.352.62 69.679-27.725 14.059-41.95 21.296-70.038 36.183-27.932-14.318-41.692-21.245-68.434-34.581.724-28.275 1.189-42.179 2.172-69.162 4.449-2.688 8.742-5.014 12.777-7.236v.103Z"/><path d="M555.249 348.126a3.827 3.827 0 0 0-.776.413c-2.689 1.499-5.172 2.843-7.707 4.239-.672.31-1.345.724-2.017 1.085a407.681 407.681 0 0 0-7.138 3.929c-7.553 4.135-14.225 7.909-21.105 11.785-2.586 1.448-5.173 2.947-7.863 4.446-5.172 2.946-10.914 6.151-17.225 9.769-1.603.879-3.207 1.809-5.172 2.791l-.673.414v2.533c-.931 27.757-1.293 42.851-1.862 71.901v1.189l2.276 1.24c25.553 13.647 39.778 21.245 66.831 35.822l1.604.879.879-.517c28.139-15.507 42.933-23.416 71.487-38.561l1.293-.724v-.827c0-30.446 0-45.953.465-75.52v-1.085l-1.293-.62c-28.088-14.37-42.519-21.659-69.572-35.098a4.318 4.318 0 0 0-.828-.465c-.259.31-1.035.568-1.604.982Zm-56.899 35.098c11.949-6.824 21.518-12.251 31.967-18.04 1.293-.724 2.638-1.499 4.035-2.223l4.086-2.223 8.742-4.807c1.552-.879 3.104-1.757 4.759-2.585 1.655-.827 3.207-1.86 4.914-2.791 26.743 13.336 40.502 20.263 68.331 34.529-.259 29.154-.31 43.937-.414 73.918-28.346 15.093-42.519 22.795-70.297 37.992-27.622-14.835-41.381-22.123-67.555-36.183.466-29.309.88-43.834 1.811-72.367 3.414-1.757 6.569-3.515 9.569-5.22h.052Zm195.372 601.365c-24.519 10.338-37.295 15.821-60.727 24.971-.311 0-.673.25-1.035.41v1.03c.673 19.39 1.035 29 1.759 46.16v.67c.352.12.697.26 1.034.42 22.76 8.89 34.606 13.23 55.969 20.67l1.241.42h.724c22.295-8.43 34.244-13.08 57.469-22.9.362 0 .672-.26 1.086-.47v-.41c1.966-17.42 2.949-27.03 4.811-46.52v-.73a8.463 8.463 0 0 1-1.086-.41c-22.553-8.528-34.761-13.335-59.124-23.26a6.182 6.182 0 0 0-.776-.31l-1.345.259Zm59.434 24.761c-1.759 19.38-2.69 28.53-4.552 45.69-23.122 9.72-34.502 14.27-56.899 22.64-21.519-7.6-32.795-11.73-55.658-20.67-.621-17.11-.983-26.26-1.604-45.65 23.484-9.25 35.692-14.262 60.314-24.859 24.415 9.666 36.105 14.219 58.399 22.849Zm17.846-394.192v1.344c.275.201.57.374.879.517.569-.31 1.086-.62 1.655-.879v-1.085c-.413 0-.827-.466-1.241-.672l-1.293.775Zm-72.418-38.096c-28.243 15.145-43.399 23.054-71.59 37.993-.465 0-.879.413-1.345.62v1.447c0 30.446 0 46.005.466 76.037.362 0 .776.413 1.138.568 28.243 14.887 43.14 22.486 71.021 36.649l1.086.517c.268-.101.527-.222.776-.362 17.639-9.201 29.95-15.507 43.399-22.899 8.224-4.497 16.915-9.149 27.519-15.042l.775-.362a11.602 11.602 0 0 1-1.138-.568l-.672.413c-10.345 5.583-18.57 10.338-26.536 14.37v-2.171a2614.094 2614.094 0 0 1-43.968 23.209c-27.777-14.06-42.002-21.348-70.141-36.183 0-29.153-.311-43.989-.414-74.021 28.346-14.887 42.778-22.433 71.279-37.682l40.606 21.607v-3.67c-12.001-6.307-23.639-12.509-39.674-20.987a3.602 3.602 0 0 0-.88-.517c-.582.38-1.187.726-1.81 1.034h.103Zm-1.5 224.594-.672.362-16.346 8.374-5.173 2.481-9.103 4.601c-8.742 4.393-17.122 8.528-27.157 13.181-.31 0-.621.361-.983.516l-4.397 2.016-4.707 2.171h-.569a1.794 1.794 0 0 0-.621.31v2.275c.414 24.604.673 37.372 1.242 60.788v.878c.414 0 .776.362 1.19.517 26.225 12.199 39.881 18.247 65.02 28.999l1.5.672c.26-.169.537-.307.828-.414 24.053-10.855 37.605-17.264 60.365-28.533a147.53 147.53 0 0 1 5.69-2.791 7.984 7.984 0 0 1 1.138-.62v-.569c-.517 0-.983-.362-1.5-.569-.517-.206-.569 0-.828.414-1.655.775-3.207 1.602-4.759 2.378v-.828c-23.432 11.631-36.208 17.782-60.83 28.844-25.295-10.907-38.433-16.696-64.659-28.895-.517-23.519-.724-35.718-1.189-60.84 26.535-12.095 40.398-19.28 67.244-33.082l.466-.258c21.673 10.338 34.502 16.903 51.985 24.966l-.258-2.894v-.569c-16.501-7.702-29.536-14.008-50.227-24.088a3.16 3.16 0 0 0-.724-.361c-.311 0-.569-.259-.828-.414-.258-.155-.569.672-1.138.982Zm69.262 31.945-.724.362v2.377l.828.362c.569-.258 1.034-.517 1.603-.827v-2.016a6.278 6.278 0 0 1-1.034-.517l-.673.259Z"/><path d="M769.813 384.567v1.396l.827.465c.569-.258 1.086-.569 1.604-.827v-.982l-1.242-.672a6.924 6.924 0 0 0-1.189.62Zm-72.056-38.044c-27.519 13.853-42.364 21.503-70.452 36.183-.414.259-.879.466-1.293.672v1.448c0 29.101-.31 44.66-.414 74.64v1.344c.466 0 .828.466 1.242.672 28.242 14.836 43.398 22.744 71.641 37.838.585.261 1.155.555 1.707.878l.88-.465 39.777-21.089v-3.619l-40.76 21.607c-28.45-15.197-42.882-22.796-71.176-37.631 0-29.98 0-44.815.413-73.917 28.088-14.783 42.313-22.02 70.039-36.183 18.207 9.459 30.415 15.972 44.433 23.416v-3.309c-13.604-7.288-25.863-13.801-43.657-23.002-.259 0-.518-.31-.88-.465l-1.5.982ZM512.575 74.787c-24.156 11.734-36.933 18.247-60.572 31.014-.776.466-1.604.879-2.431 1.344v.414l-.673 3.773c-.362 2.43-.827 4.704-1.189 6.875-.466 2.171-.776 4.29-1.19 6.306v.414l-1.138 5.686-.517 3.049a90.628 90.628 0 0 1-.983 6.203l-.466 3.205-.517 3.308c-.569 3.36-1.035 6.927-1.655 10.907l-.621 4.084v2.222h.466c21.983 8.581 33.829 13.336 57.623 23.106l.776.362a14.605 14.605 0 0 1 1.552-.827l.672-.414c.931-.517 1.811-.93 2.69-1.447 19.863-10.7 32.174-17.006 49.968-25.845l5.69-2.843a227.209 227.209 0 0 1 6.104-2.947c.19-.134.4-.238.621-.31v-1.964c1.603-22.279 2.483-33.547 4.241-54.43h-.258l-1.656-.672c-22.294-8.684-33.881-13.078-54.675-20.676a11.683 11.683 0 0 1-1.241-.414s-.466.414-.621.517Zm42.054 81.154c-1.5.775-3 1.499-4.449 2.223l-6.31 3.153c-4.19 2.067-8.225 4.135-12.259 6.203l-7.294 3.773c-2.483 1.292-5.173 2.585-7.604 3.98-2.431 1.396-5.172 2.843-8.173 4.342h-.362a561.156 561.156 0 0 0-8.793 4.756c-23.329-9.666-34.554-14.112-56.124-22.486l1.19-7.96 1.034-7.133v-.259l.931-6.254v-.517l.932-5.583.982-6.099 2.535-14.577.983-5.582c24.311-13.181 36.519-19.436 60.727-31.015 21.26 7.702 32.381 11.837 55.348 20.677-1.811 20.676-2.638 31.272-4.294 53.809-.879.414-1.81.879-2.689 1.241-2.069 1.292-4.345 2.326-6.311 3.308Z"/><path d="M440.416 162.919c-24.157 13.801-36.778 22.02-59.589 37.321l-2.276 1.55v.465l-1.294 8.116-1.914 11.372-1.655 10.596-1.293 9.201c-.569 4.135-1.19 8.529-1.759 13.491l-.465 4.497-.259 2.223-.31 2.481h.414c21.466 8.994 32.898 14.008 56.123 24.553.484.163.952.371 1.397.62.477-.33.978-.624 1.5-.878l4.655-2.843a371.912 371.912 0 0 1 6.414-3.929c2.069-1.24 4.035-2.481 6.052-3.618l3.88-2.326c5.173-2.998 9.828-5.841 14.69-8.787 2.638-1.499 5.173-3.102 7.966-4.601 2.794-1.499 4.863-2.895 7.449-4.394l13.552-7.753c.414-.241.88-.5 1.397-.776v-1.55c1.81-25.845 3.052-37.941 5.173-61.46v-.827l-2.018-.827c-22.759-9.356-34.501-14.112-55.606-22.33l-1.241-.466a11.23 11.23 0 0 0-.983.879Zm42.623 90.613c-1.449.879-2.897 1.654-4.242 2.481-2.793 1.603-5.431 3.102-7.966 4.601-3.828 2.223-7.448 4.394-11.121 6.513-2.535 1.551-5.173 3.05-7.707 4.6l-15.518 9.253-7.966 5.169-.983.62c-23.226-10.338-34.192-15.507-55.348-24.191v-.982l.362-3.463.931-8.219a1472.369 1472.369 0 0 1 3.104-22.175l.569-3.515c.983-6.513 2.172-13.233 3.414-21.297 23.742-15.92 35.898-23.777 60.675-37.94 21.622 8.374 32.795 12.922 56.228 22.588-2.38 23.468-3.57 34.995-5.432 60.84-3 1.654-6.052 3.463-9 5.117Z"/><path d="M400.431 90.863c-22.346 15.248-34.14 23.467-56.227 39.491-.277.282-.59.525-.931.724v.31c-5.173 20.676-7.966 31.635-12.725 53.655v.723c.276.018.552.018.828 0 17.742 5.48 27.57 8.736 47.433 15.818.362 0 .724.31 1.138.413.45-.334.916-.644 1.397-.93 23.173-15.507 35.795-23.726 59.693-37.424l2.379-1.344v-.414l1.19-7.96 1.034-7.133v-.259l.931-6.254v-.517l.931-5.583.983-6.099 2.535-14.577.983-5.582v-.931l.258-1.137h-.414a416.08 416.08 0 0 0-49.192-15.507c-.31 0-.724 0-1.034-.258l-1.19.775Zm48.365 20.676c-.362 2.429-.828 4.704-1.19 6.875-.466 2.171-.776 4.29-1.19 6.306v.414l-1.034 5.479-.518 3.049a90.616 90.616 0 0 1-.982 6.203l-.466 3.205-.517 3.308c-.569 3.36-1.035 6.927-1.656 10.907l-.62 4.084c-24.777 14.163-36.83 22.071-60.521 37.94-19.914-7.03-29.329-10.338-47.123-15.507 4.656-21.555 7.139-32.048 12.311-52.259 22.139-15.972 33.364-23.881 55.917-39.285a402.18 402.18 0 0 1 48.261 15.508l-.672 3.773Z"/><path d="M330.496 185.043c-22.346 15.972-33.829 24.553-55.037 40.783-.343.22-.671.462-.983.724v1.034a450.66 450.66 0 0 0-10.345 55.257v1.809s.569 0 .776.31c17.431 6.875 27.104 10.907 46.554 19.487l1.138.465.724-.465c.196-.185.403-.357.621-.517 16.5-12.095 27.415-19.849 42.105-29.825 2.483-1.706 5.173-3.515 7.914-5.169 2.742-1.654 4.19-2.791 6.415-4.29l.982-.672c.518-.259.931-.621 1.449-.931v-1.499l.362-3.463.931-8.219a1461.39 1461.39 0 0 1 3.104-22.175l.568-3.515c.983-6.513 2.173-13.233 3.414-21.296v-1.396a3.942 3.942 0 0 1 0-.827 1.026 1.026 0 0 1-.413 0c-20.691-7.237-30.312-10.338-48.468-16.024h-.569l-1.242.414Zm46.554 25.38-1.914 11.371c-.62 3.567-1.138 7.03-1.655 10.597l-1.293 9.201c-.569 4.135-1.19 8.529-1.759 13.491l-.465 4.497-.259 2.223c-7.5 5.169-13.708 9.201-19.449 13.129l-6.57 4.497-6.931 4.859-6.155 4.445c-4.759 3.36-9.725 6.927-15.518 11.114l-2.949 2.119c-19.449-8.529-28.76-12.354-46.244-19.332a422.534 422.534 0 0 1 10.346-55.515c21.259-16.231 32.277-24.398 54.778-40.526 17.743 5.428 27.209 8.581 47.124 15.507l-1.087 8.323Z"/><path d="M302.46 122.084c-21.518 16.696-32.329 25.38-52.761 42.645-6.104 19.642-9.053 29.98-14.536 50.553v.723c14.742 3.722 22.605 5.996 39.416 11.321h.517l1.242-.983c21.156-16.127 32.691-24.604 55.089-40.783.362 0 .672-.517 1.034-.724v-1.034c4.759-21.761 7.346-32.668 12.518-53.086v-.568h-.827c-16.863-4.135-25.191-5.893-40.192-8.633h-.879l-.621.569Zm39.933 10.338c-5.173 20.159-7.656 30.601-12.363 52.156-22.397 16.179-33.467 24.346-54.675 40.577-16.346-5.169-23.949-7.289-38.226-10.907 5.173-20.159 8.225-30.032 14.121-49.261 19.812-16.593 30.157-24.915 51.158-41.352 15.156 2.998 23.122 4.652 39.985 8.839v-.052Z"/><path d="M235.112 215.436c-19.76 16.541-29.588 25.173-47.485 41.921v.827a339.74 339.74 0 0 0-9.104 51.691v1.344c13.552 5.169 21.053 8.218 36.674 14.99l.828.31 1.034-.931 6.828-6.099 4.862-4.29 6.311-5.583 5.173-4.239c3.776-3.204 7.604-6.409 11.794-9.872l12.931-10.597.931-.775v-1.396a453.711 453.711 0 0 1 10.346-56.032v-.724h-.725c-16.604-5.169-24.622-7.598-39.312-11.268l-1.086.723Zm24.57 70.919-6.466 5.169-5.845 4.859c-10.759 8.995-19.087 16.386-31.502 27.551-15.518-6.616-22.708-9.562-36.208-14.628a336.033 336.033 0 0 1 9.052-51.69c17.535-16.283 27.001-24.502 46.554-40.991 14.277 3.67 21.829 5.841 38.174 11.01a420.078 420.078 0 0 0-10.345 55.361l-3.414 3.359Zm372.33-218.701c-24.571 10.338-37.451 16.024-62.952 27.861-1.862 21.038-2.793 32.255-4.448 55.257v.776c.672.31 1.396.568 2.069.878 23.639 9.77 36.777 15.507 62.382 26.673.284.079.561.183.828.31l1.603-.672c25.864-12.148 39.778-18.195 64.918-28.999l1.138-.465v-1.137c-.518-22.692-.776-33.857-1.397-54.585v-.569l-1.138-.516C670.496 81.869 657.668 76.7 634.494 67.55c-.452-.22-.918-.41-1.396-.569l-1.086.672Zm62.072 80.585c-25.243 10.855-38.33 16.593-64.555 28.74-25.605-11.268-38.071-16.541-62.072-26.517 1.551-22.485 2.379-33.288 4.086-53.758 24.777-11.475 37.036-16.903 61.141-27.034 23.484 9.253 35.64 14.215 60.314 24.811l1.086 53.758Z"/><path d="M564.457 151.289c-.213.14-.438.261-.673.362-.879.413-1.81.879-2.689 1.24a125.022 125.022 0 0 1-6.466 3.205c-2.121.982-3.001 1.499-4.449 2.223l-6.311 3.153c-4.189 2.068-8.224 4.135-12.259 6.203l-7.293 3.773c-2.483 1.292-5.173 2.585-7.604 3.98-2.431 1.396-5.173 2.843-8.173 4.342h-.362a565.64 565.64 0 0 0-8.794 4.756c-.221.072-.43.176-.62.31v2.016c-2.276 22.951-3.569 35.098-5.173 60.839v.879c.673.31 1.397.569 2.069.931 23.691 10.338 36.933 16.592 62.486 28.688.517.258 1.035.568 1.552.775a6.65 6.65 0 0 1 .828-.465l.775-.414c4.708-2.532 9.001-4.858 13.036-7.081l8.638-4.704c.201-.081.392-.185.569-.31l3.931-2.119a13.908 13.908 0 0 0 1.5-.776c2.069-1.085 4.19-2.171 6.208-3.308 2.017-1.137 5.172-2.636 7.707-4.032 4.19-2.119 8.483-4.342 13.138-6.668 2.639-1.24 5.173-2.636 8.173-4.032l5.173-2.377h.362l1.241-.569v-1.551c.414-25.07.621-37.889 1.19-61.408v-.93l-1.138-.466c-25.863-11.371-39.002-16.954-63.417-26.982 0 0-.465 0-.724-.362-.783.365-1.596.659-2.431.879Zm12.156 115.218-7.863 4.342-1.241.62-8.328 4.549c-25.864-12.302-38.692-18.454-63.055-28.999 1.914-25.121 3.052-37.32 5.172-60.787.931-.517 1.862-.931 2.69-1.396 19.863-10.7 32.174-17.006 49.968-25.845l5.69-2.843a227.242 227.242 0 0 1 6.104-2.946c24.156 9.976 36.623 15.248 62.072 26.568l-1.241 60.892c-20.277 9.821-33.106 16.592-49.968 25.69v.155Z"/><path d="M695.015 148.807c-25.035 10.7-38.743 16.748-64.865 28.895a8.703 8.703 0 0 0-1.242.569v1.189c-.465 23.209-.775 36.183-1.189 60.736v1.861l1.241.568c26.64 12.148 41.02 19.643 68.228 33.599l1.603.776.931-.414s.518-.31.725-.414c5.172-2.481 9.673-4.652 13.914-6.771 13.553-6.668 24.208-11.785 36.985-17.73l.258-3.205-3.362 1.551a70.333 70.333 0 0 0-4.655 2.171c-1.242.569-2.535 1.137-3.776 1.758-3.828 1.757-7.552 3.514-11.328 5.169-3.776 1.654-7.501 3.67-11.535 5.582-1.656.776-3.311 1.603-5.173 2.533-.983.465-2.017.982-3.052 1.447-2.121 1.086-4.293 2.12-6.518 3.205-1.138.569-2.276 1.137-3.465 1.654-27.364-13.956-41.382-21.038-67.814-33.237.362-25.173.569-37.423 1.086-60.891 26.226-12.199 39.364-17.988 64.607-28.843 24.622 11.217 37.709 17.316 61.71 29.257v-.569a67.823 67.823 0 0 0 3.879 1.964c.259 0 .569.259.828.414l1.448-.62v-.879l-1.189-.569-4.656-2.326c-23.38-11.579-36.881-17.885-61.296-28.946a5.163 5.163 0 0 0-.776-.362l-1.552.878ZM537.972-48.908l-.62.259-10.811 4.135a667.99 667.99 0 0 0-12.001 4.652c-3.879 1.55-6.466 2.636-9.88 4.032l-6.103 2.533c-4.139 1.706-8.639 3.618-13.708 5.79a5.754 5.754 0 0 1-.828.361c-.403.21-.818.4-1.241.569v.827a19.52 19.52 0 0 1-.673 1.86l-.569 1.861-1.758 5.17-.725 2.274c-1.655 5.169-3.103 9.976-4.81 15.92l-1.19 4.032-.724 2.74-.828 2.894v1.602h.362c18.726 5.583 28.709 8.737 49.141 15.508h.621c.207 0 .931-.414 1.396-.569l.673-.362 9.104-4.135 5.172-2.274c6.414-2.843 12.053-5.17 17.794-7.754 4.345-1.809 8.639-3.721 13.449-5.634l7.397-3.05a135.22 135.22 0 0 0 4.087-1.654c.188.03.38.03.569 0V1.284c1.965-15.507 3.052-23.21 5.172-36.7v-.414c-.569 0-1.034-.362-1.603-.517-18.518-5.48-27.933-8.115-44.951-12.56h-1.034a3.367 3.367 0 0 1-.88 0Zm8.897 63.941c-2.12.93-4.241 1.861-6.465 2.792l-19.139 8.632c-20.019-6.565-29.536-9.614-47.848-14.99l1.552-5.686 1.862-6.565a3.466 3.466 0 0 1 0-.775l.621-2.275c.828-2.998 1.707-5.686 2.586-8.477l.621-2.12.31-.878c.311-1.189.725-2.274 1.138-3.463l2.38-7.237c2.379-1.034 4.604-2.067 6.724-2.946 2.121-.879 5.173-2.275 7.863-3.309l6.104-2.532c10.345-4.342 19.811-7.96 32.794-12.871 17.381 4.6 26.485 7.133 45.468 12.819-2.172 13.543-3.259 20.935-5.172 36.752-12.363 5.014-21.674 8.89-31.399 13.13Z"/><path d="M470.883 12.087a393.993 393.993 0 0 0-55.71 29.411c-.673.466-1.397.88-2.069 1.396-.673.517 0 0 0 0v.362l-1.604 5.582-1.81 6.669c-.259.93-.569 1.86-.776 2.79l-.776 2.74-1.241 4.808c-.569 2.119-1.138 4.238-1.656 6.46l-1.138 4.55-3.207 13.077v1.913h.311c16.639 4.133 33 9.312 48.985 15.507.362 0 .776.258 1.19.465.413.207 1.034-.568 1.448-.775 24.467-13.285 37.243-19.85 62.072-31.79v-.31c3-19.9 4.656-29.567 7.863-47.038v-.672c-.569 0-1.035-.362-1.604-.569-19.501-6.46-29.484-9.46-47.485-14.835l-1.035-.31c-.879.207-1.293.207-1.758.569Zm-67.245 74.382c.569-2.274 1.034-4.445 1.603-6.513l2.225-9.15 1.241-4.858 2.845-10.597.776-2.79 1.241-4.446.88-3.153.465-1.603c21.932-14.525 33.933-19.177 56.9-29.928 18.414 5.479 27.932 8.425 47.951 15.041-3.259 17.213-4.811 26.466-7.811 45.798-24.157 11.837-36.209 18.092-60.624 31.014a403.74 403.74 0 0 0-48.313-15.507l.621-3.308Z"/><path d="M481.746-23.89c.255-.609.479-1.23.672-1.86a11.271 11.271 0 0 1-.672 1.86Zm-40.451-13.13c-2.638 1.19-5.173 2.327-7.448 3.516-2.276 1.189-4.449 2.222-6.466 3.36-2.018 1.137-4.087 2.274-6.001 3.411a.777.777 0 0 0-.362 0c-1.965 1.24-3.879 2.378-5.793 3.619-1.914 1.24-3.828 2.48-5.794 3.773l-5.741 3.877c-2.328 1.602-4.759 3.256-7.397 5.169-2.638 1.912-4.138 2.79-6.414 4.238l-.931.569-.362.879c-6.363 14.835-9.622 23.105-15.519 39.853l-.258.62h.672c15.518 2.068 23.588 3.36 40.399 6.565h.931c.433-.246.848-.522 1.241-.827a371.235 371.235 0 0 1 55.814-29.412l2.172-.982v-.31l1.552-5.686 1.862-6.565a3.466 3.466 0 0 1 0-.775l.621-2.275c.828-2.998 1.707-5.686 2.586-8.477l.621-2.12.31-.878c.311-1.189.725-2.274 1.138-3.463l2.38-7.237.465-1.395c-.12.006-.241.006-.362 0-17.277-4.446-25.863-6.513-41.381-9.873h-.88a15.6 15.6 0 0 1-1.655.827Zm41.123 11.27c-.152.637-.36 1.26-.621 1.86l-.569 1.861-1.758 5.169-.725 2.274c-1.655 5.17-3.103 9.977-4.81 15.92l-1.19 4.033-.724 2.74-.828 2.894a376.492 376.492 0 0 0-56.589 29.877c-16.708-3.153-24.725-4.445-39.985-6.513 6.052-16.696 9.156-24.604 15.518-39.388a44.805 44.805 0 0 0 3.052-2.068l3.362-2.222 4.19-2.791c4.397-2.947 8.277-5.583 12.156-8.116.983-.62 1.966-1.292 2.949-1.86 2.12-1.396 4.345-2.74 6.569-4.033a272.597 272.597 0 0 1 9.414-5.169c.88-.413 1.707-.878 2.587-1.292.879-.413 2.379-1.189 3.672-1.757a58.33 58.33 0 0 0 3-1.396s.569 0 .88-.362c15.518 3.412 23.691 5.17 40.709 9.718l-.259.62Z"/><path d="M372.291 35.606c-21.104 14.525-32.174 22.589-52.916 38.354l-.983.724-.362.879c-6.362 17.678-9.569 27.24-15.518 46.521v.568h.672c15.053 2.74 23.433 4.497 40.244 8.633.335.055.664.141.983.258l.672-.517c21.984-15.972 33.726-24.243 55.658-39.181l2.224-1.5v-.36l.828-3.62c.569-2.274 1.035-4.445 1.604-6.512l2.224-9.15 1.241-4.858 2.845-10.597.776-2.791 1.242-4.446.879-3.153.466-1.602.31-1.137v-.672h-.259c-17.277-3.257-25.605-4.6-41.381-6.72h-.466l-.983.879Zm38.951 13.284-1.811 6.668c-.258.93-.569 1.861-.776 2.792l-.775 2.74-1.242 4.806c-.569 2.12-1.138 4.24-1.655 6.462l-1.138 4.548-3.207 13.078c-22.501 15.507-33.726 23.209-55.813 39.233-16.915-4.083-24.881-5.738-40.037-8.529 5.897-19.022 8.949-28.171 15.518-45.797 20.691-15.766 31.45-23.416 52.71-38.148 15.259 2.068 23.277 3.411 40.036 6.565l-1.81 5.582Z"/><path d="m353.515-7.556-.621.465-6.311 4.29-4.086 2.895c-2.018 1.344-3.932 2.74-5.794 4.032-5.172 3.722-10.345 7.289-15.259 11.062l-5.173 3.928c-.983.776-2.017 1.603-3.103 2.378-3.207 2.378-6.57 5.17-10.346 7.909-.386.242-.75.519-1.086.827l-.414.93c-.724 1.344-1.345 2.74-1.966 4.032-6.155 12.871-9.879 21.193-16.19 36.442v.569c13.397.723 20.691 1.395 35.278 3.204h.517l1.138-.879c20.691-15.507 31.812-23.725 53.02-38.405.362 0 .672-.517.983-.724.148-.257.253-.536.31-.827 5.949-16.593 9.207-24.863 15.518-39.44l.414-.982h-.672c-13.76-1.292-20.691-1.706-32.95-2.12a12.639 12.639 0 0 0-1.449 0 3.417 3.417 0 0 0-.776 0l-.982.414Zm-46.813 34.788a342.816 342.816 0 0 1 9.207-7.03c2.949-2.17 4.345-3.257 6.466-4.807 2.121-1.55 3.776-2.843 5.69-4.187C335.669 5.677 343.273.3 353.359-6.522a2.58 2.58 0 0 1 .621 0c12.621.362 19.398.827 33.467 2.171-6.414 14.835-9.466 22.692-15.518 39.44-21.259 14.68-31.863 22.33-52.606 38.096-14.483-1.758-21.26-2.326-34.243-2.998 6.518-15.508 10.035-23.726 16.552-37.27l1.449-2.946 3.621-2.74Z"/><path d="M283.115 71.685c-20.07 16.18-30.26 24.915-49.451 42.179v.724l-1.552 4.032a74.88 74.88 0 0 0-1.551 3.877l-2.69 7.03-2.483 6.771-2.483 6.823-1.448 4.135c-.569 1.861-1.293 3.877-2.018 5.945-.672 2.016-1.396 4.187-2.224 6.409v.311c12.466 1.24 19.242 2.17 33.26 4.652.258-.04.519-.04.776 0 20.381-17.162 31.036-25.846 52.607-42.438 0-.259.62-.465.931-.724v-.31c6.052-19.487 9.31-29.102 15.518-46.986.125-.232.229-.474.31-.724h-.621c-14.742-1.81-21.88-2.43-35.226-3.153-.982.879-1.345 1.137-1.655 1.447Zm-64.658 86.633c6.258-18.143 9.517-27.034 16.397-44.247 18.777-16.8 28.553-25.173 48.468-41.352 12.983.672 19.76 1.292 34.243 3.05-6.414 17.626-9.518 26.827-15.518 45.797-21.001 16.283-31.036 24.553-51.106 41.353-13.759-2.482-20.225-3.36-32.484-4.601ZM637.754-54.49h-.569c-2.483.826-4.863 1.55-7.035 2.274l-3.311 1.085c-6.776 2.223-12.621 4.135-18.776 6.306-1.552.569-3.104 1.086-4.708 1.654-4.19 1.5-8.69 3.102-13.811 5.17-1.189.465-2.483.878-3.827 1.395-.311 0-.621.259-1.035.362-.414.103 0 0 0 0v.827c-2.173 13.44-3.31 21.141-5.431 37.114v.516c.569 0 1.138.414 1.707.569 20.07 6.668 31.036 10.597 53.227 18.66 0 0 .517 0 .724.259a11.31 11.31 0 0 0 1.396-.569c22.553-8.839 34.399-13.18 55.814-20.676l.931-.31V-.63c-.673-15.507-.983-23.415-1.707-36.544v-.931l-.983-.31c-20.691-6.978-31.036-10.338-50.33-15.973l-1.138-.31-1.138.207Zm-34.295 12.922a4.34 4.34 0 0 0 .724-.31c1.759-.569 3.414-1.19 5.173-1.758a494.67 494.67 0 0 1 15.518-5.169c.879-.362 1.81-.62 2.793-.93 3.311-1.138 6.88-2.223 10.759-3.515 19.294 5.737 29.484 8.942 50.175 15.972.673 13.388.931 20.676 1.552 36.493-21.415 7.547-32.691 11.63-55.451 20.677-22.036-8.064-32.64-11.786-53.072-18.557 2.069-15.818 3.104-23.158 5.173-36.649 3.103-1.137 6.052-2.17 8.793-3.256l7.863-2.998Z"/><path d="M578.94 1.697h-.621c-12.414 5.169-21.621 8.89-31.449 13.129-2.121.93-4.242 1.86-6.466 2.791l-19.139 8.633a5.183 5.183 0 0 0-.517 0 12.967 12.967 0 0 1-.311 1.499c-3.259 17.006-4.862 26.62-7.862 46.52a7.976 7.976 0 0 1 1.551.57c20.691 7.443 32.226 11.785 54.779 20.676.422.194.854.367 1.293.516.173.01.345.01.518 0 25.242-11.681 38.071-17.368 62.33-27.499l1.19-.517v-.258c.621-19.85.983-29.36 1.707-46.78v-.569a5.605 5.605 0 0 1-.983-.413c-22.294-8.115-33.363-11.94-54.002-18.815h-.673c-.207 0-.879.206-1.345.517Zm-46.916 21.71 5.173-2.275c6.414-2.843 12.052-5.169 17.794-7.753 4.345-1.81 8.638-3.722 13.449-5.635l7.397-3.05a136.261 136.261 0 0 0 4.086-1.653c20.432 6.823 31.036 10.338 53.123 18.608-.724 17.058-1.034 26.155-1.758 45.488-24.002 10.338-36.209 15.507-60.934 26.93-22.915-8.942-33.985-13.077-55.245-20.676 2.949-19.384 4.501-28.533 7.708-45.694l9.207-4.29Z"/><path d="M690.721-.474C669.41 7.022 657.616 11.26 634.96 20.203l-1.086.465v.827c-.724 17.11-1.087 26.62-1.811 46.21v.57c.358.123.705.279 1.035.465 23.38 9.149 36.209 14.318 60.624 24.863l1.5.672.724-.31c24.312-9.977 36.519-14.784 59.072-23.261.362 0 .724 0 1.034-.362v-.31c-1.862-19.85-2.845-29.412-5.172-46.831v-.62l-1.035-.414c-23.173-9.77-35.019-14.474-57.365-22.744a3.87 3.87 0 0 1-.672-.31c-.259.155-.724.258-1.087.413Zm57.831 23.881c1.914 17.11 2.845 26.207 4.604 45.54-22.398 8.477-34.088 13.025-58.089 22.847-24.571-10.597-36.778-15.507-60.21-24.76.62-19.332.982-28.43 1.603-45.488C659.272 12.656 670.548 8.52 692.015.87c22.139 8.426 33.467 12.871 56.537 22.537ZM353.515-7.555l-.621.465c-2.224 1.55-4.294 2.998-6.311 4.29L342.497.095c-2.018 1.344-3.932 2.74-5.794 4.032-5.172 3.721-10.345 7.288-15.259 11.061l-5.173 3.929c-.983.775-2.017 1.602-3.103 2.378-3.207 2.43-6.57 5.169-10.346 7.908-.386.243-.75.52-1.086.827l51.779-37.785Zm-52.348 38.767h.672c.363-.361.828-.62 1.19-.93l3.621-2.791a342.816 342.816 0 0 1 9.207-7.03c2.949-2.171 4.345-3.257 6.466-4.807 2.121-1.551 3.776-2.843 5.69-4.187 7.604-5.531 15.208-10.907 25.295-17.73l.931-.62.414-.827-53.486 38.922Zm-98.229 931.15a1.303 1.303 0 0 0-.466 0v.517l1.035.982a.676.676 0 0 1 .31 0c5.173.362 9.57.621 13.915.724.112.193.272.353.465.465h14.018c18.725 16.903 28.45 25.225 48.313 41.35 6.724 16.23 10.345 24.35 17.277 38.72.776.72 1.551 1.34 2.327 1.96l.362.83c-9.998.15-19.998-.26-29.949-1.24v.52c9.968.98 19.985 1.4 30.001 1.24l-.31-.57-.311-.67c-7.293-15.15-11.069-23.57-18-40.43v-.51c-20.381-16.492-30.623-25.228-49.451-42.285l-.983-.879h-14.897c-4.552 0-8.38-.259-13.656-.724Zm19.242 41.348a2.235 2.235 0 0 0-.517 0v.47l.879.83h.414l-.414-.73a3.52 3.52 0 0 0-.362-.62v.05Zm48.882 43.48v-.52.52Zm21.26 36.49c-1.345-2.07-2.535-3.93-3.621-5.74 1.034 1.81 2.224 3.67 3.517 5.69l.104.05ZM156.487 826.365a1.254 1.254 0 0 1-.465 0 .876.876 0 0 1 0 .517c5.172 18.815 7.81 28.378 13.5 46.521v.62l.725.776c16.604 17.316 25.863 26.31 44.692 43.833h.724c12.259-1.292 18.984-2.223 33.157-4.807v-.775c-5.949-19.384-8.949-29.671-14.329-50.14v-.62c-20.121-16.955-29.949-25.535-47.537-41.921 0-.31-.62-.621-.931-.931-12.931 3.515-18.828 4.911-29.536 6.927Zm76.349 36.441c5.173 20.108 8.225 29.981 14.173 49.106a326.031 326.031 0 0 1-32.433 4.652c-18.311-16.954-27.104-25.483-43.398-42.489-5.639-17.988-8.328-27.086-13.294-45.643 10.345-1.964 16.294-3.308 28.708-6.668 17.432 16.335 26.795 24.553 46.244 41.042Z"/><path d="M169.677 873.558c-6.414.569-10.759.879-15.207.931h-9.725l.259.827c.125.197.283.371.465.517h9.828c.047.256.174.491.362.672 4.552 0 8.846-.259 15.519-.879 16.293 17.058 25.035 25.845 43.347 42.541 6.207 18.143 9.466 27.034 16.345 44.247h-14.483c.094.232.256.43.465.569-4.345 0-8.483-.311-13.759-.724-17.535-17.213-26.225-26.414-41.381-43.782-.363-.362-.621-.723-.932-1.085a.77.77 0 0 1-.31 0l.31.672.725.827c15.518 17.574 24.208 26.775 41.381 43.885l1.035.982a.676.676 0 0 1 .31 0c5.173.362 9.569.62 13.914.724 4.346.103 8.794 0 14.898 0v-.517c-2.224-5.479-4.035-10.028-5.69-14.422-.673-1.809-1.293-3.567-2.017-5.169l-1.656-4.6a136.416 136.416 0 0 1-2.534-7.03l-2.742-7.806-1.965-5.944v-.724c-18.984-17.574-28.192-26.568-44.848-43.988l-.517-.517s-1.19-.207-1.397-.207ZM135.9 673.671h-.362c1.448 20.934 2.276 31.583 4.241 51.69v1.603l.518.62c12.931 15.507 20.69 23.726 36.208 39.802l.932 1.033.724-.31c13.294-5.169 20.69-8.115 36.622-14.938v-1.81c-2.327-22.64-3.31-34.735-5.172-58.461-17.898-15.507-26.329-23.364-41.382-37.734l-.517-.569c-14.07 8.839-20.484 12.613-31.812 19.074Zm71.848 20.676c1.656 23.312 2.639 34.788 5.173 57.48-15.518 6.616-22.398 9.511-35.433 14.473-15.518-16.231-22.863-24.191-35.898-39.595v-.362c-1.914-20.055-2.742-30.239-4.19-50.76 11.225-6.357 17.38-10.027 31.036-17.988 14.07 14.215 22.087 21.607 39.312 36.442v.31Zm-76.09-183.707-.517.465v.621c-.31 21.451-.31 32.668 0 54.016v.775l.569.569c11.897 11.527 18.777 17.937 33.571 31.014l.724-.517c13.863-9.769 21.777-15.507 38.433-26.982v-.982c-.414-24.553-.362-37.424 0-62.029v-.775c-16.708-11.579-24.519-17.109-38.381-26.879l-.673-.465c-14.897 12.974-21.829 19.591-33.726 31.169Zm70.866 58.307c-16.087 11.372-23.536 16.541-37.347 26.569-14.38-12.768-20.69-18.764-32.691-30.136-.31-21.141-.31-31.893 0-53.086 11.845-11.372 18.363-17.419 32.743-30.239 13.708 9.77 21.26 14.991 37.347 26.362-.311 24.14-.311 36.39-.052 60.53Z"/><path d="M131.089 565.742c-11.379 9.718-16.707 14.422-25.863 22.537l-.466.362v.982c.466 19.642.828 29.722 1.811 49.468.166.127.307.285.414.465 9.828 12.871 15.518 19.952 28.243 34.219l.517.569h.31c11.432-6.617 17.898-10.338 31.76-18.712-1.293-23.002-1.81-34.736-2.379-57.893v-.827c-14.897-13.182-21.829-19.539-33.881-31.015l-.362-.362-.104.207Zm33.313 32.203c.569 22.486 1.086 33.651 2.224 55.826-13.397 8.115-19.605 11.734-30.726 18.195-12.466-14.06-18.104-20.676-27.984-33.651-.931-19.177-1.345-28.843-1.759-48.33 9.052-8.064 14.173-12.509 25.864-22.279 11.535 11.424 18.052 17.472 32.381 30.239Zm-24.829 127.831c-10.76 4.755-15.88 6.823-24.622 10.338v1.757l1.086 11.579v.878a231.616 231.616 0 0 0 3.828 30.033v.361c0 1.189.414 2.378.724 3.619v.62l.569.724a481.1 481.1 0 0 0 35.278 41.352l.879.93h.31c10.811-2.067 16.863-3.515 29.691-6.978v-.413a334.798 334.798 0 0 1-8.948-51.691v-1.705l-.569-.621c-15.518-16.179-23.277-24.553-36.209-39.801l-.31-.465-.466-.466a2.594 2.594 0 0 1-1.241-.051Zm.879 2.171c12.983 15.507 20.173 23.312 35.691 39.491v.362a332.9 332.9 0 0 0 8.794 51.07c-12.414 3.36-18.104 4.704-28.605 6.72a502.75 502.75 0 0 1-35.174-40.836 340.557 340.557 0 0 1-5.742-46.521c8.845-3.308 13.811-5.169 24.726-10.338.207.103.258.052.31.052Zm36.002-417.245-2.794 2.946-4.086 4.29-1.345 1.448-6.155 6.616a415.13 415.13 0 0 0-8.328 9.201 802.856 802.856 0 0 0-8.484 9.769l-2.224 2.688-2.379 2.792-.518.672v1.24c-2.017 20.108-2.896 31.014-4.293 51.38v.827c.155.13.33.235.517.311 11.277 6.461 17.794 10.338 31.709 18.608 0-.31.517-.517.776-.775.258-.259 0 0 0 0 14.897-14.163 23.277-21.865 41.071-37.424v-.982c1.707-23.364 2.741-35.356 5.173-57.893v-1.448c-15.881-6.771-23.329-9.821-36.623-14.887a3.97 3.97 0 0 0-.672-.31l-1.345.931Zm-26.329 31.014c1.293-1.551 2.534-2.998 3.828-4.394l2.224-2.481c1.293-1.499 2.638-2.946 4.086-4.497a1250.214 1250.214 0 0 1 16.811-17.885c13.191 5.169 20.329 7.961 35.692 14.577-2.276 22.692-3.259 34.167-5.173 57.376-17.277 15.197-25.294 22.589-40.036 36.752-13.553-8.012-19.708-11.579-31.036-17.937 1.396-20.676 2.276-31.014 4.241-51.07 3.673-4.083 6.569-7.443 9.363-10.648v.207Z"/><path d="M135.486 403.951c-12.466 14.164-18.259 21.245-28.087 34.116l-.414.569v.93c-.983 19.177-1.345 29.309-1.862 48.744v.776l.465.361c8.949 8.012 14.277 12.613 25.863 22.279l.673.568.362-.361c12.052-11.682 19.035-18.04 33.881-31.325v-.672c.673-22.95 1.138-34.684 2.431-57.221v-.827c-14.069-8.322-20.69-12.044-31.967-18.505h-.362l-.983.568Zm31.347 19.695c-1.242 22.175-1.707 33.288-2.328 55.773-14.38 12.82-20.691 18.971-32.691 30.394-11.432-9.666-16.553-14.059-25.605-22.123.465-19.436.827-29.102 1.81-48.279 9.88-12.871 15.518-19.642 28.036-33.857 11.173 6.409 17.07 10.08 30.778 18.092Zm-6.467 494.47.725.827c15.518 17.574 24.208 26.775 41.381 43.885l1.035.982a.676.676 0 0 1 .31 0v-.724l-.828-.775c-17.535-17.213-26.225-26.414-41.381-43.782-.362-.362-.621-.723-.931-1.085a.776.776 0 0 1-.311 0v.672Zm-40.191-133.672c-3.673.775-6.466 1.24-9.053 1.705l.518 1.344a.764.764 0 0 0 .258.621c2.535-.362 5.173-.931 9.001-1.655a490.378 490.378 0 0 0 34.967 40.887c5.173 18.506 7.656 27.655 13.294 45.591-6.414.517-10.759.827-15.156.879.091.25.232.478.414.672h-9.725l.259.827c.125.197.283.372.465.517h9.828c4.449 0 8.846 0 15.518-.879h.518v-.93c-5.639-17.937-8.484-27.551-13.501-46.108v-.724l-.724-.775a513.397 513.397 0 0 1-35.33-41.042l-.724-.93h-.827Z"/><path d="M145.004 874.954c.126.196.283.371.466.516h.465v-.516c0-.311-.517-.569-.672-.828h-.362l.103.828Zm16.087 43.73h.362v-.414c-.362-.362-.621-.724-.931-1.085a.808.808 0 0 1-.31 0l.31.672.569.827Zm-54.21-279.49a2091.661 2091.661 0 0 0-19.811 14.318c.983 17.834 1.552 26.983 3 44.402v1.396l.31.517a386.589 386.589 0 0 0 23.795 37.682v.414l.362.465h.569c.155 0 0 0 0 0 8.69-3.205 13.811-5.169 24.777-10.08h.31v-1.861c-2.017-20.004-2.896-30.704-4.241-51.69l-.466-.62c-12.725-14.215-18.518-21.348-28.398-34.219l-.362-.414.155-.31Zm-15.828 59.754v-.362c-1.397-17.264-1.966-25.845-2.949-43.575l19.398-13.698c9.828 12.82 15.518 19.643 27.881 33.806 1.396 20.676 2.224 30.652 4.19 50.812-10.863 4.807-15.519 6.874-24.519 10.338a400.029 400.029 0 0 1-24.001-37.321Zm13.966-210.639a322.336 322.336 0 0 0-20.691 27.345v.465c-.259 18.143-.259 27.551 0 45.642v.621a342.515 342.515 0 0 0 20.691 27.241v.361c.212-.145.403-.319.569-.516 9-8.012 14.38-12.665 25.863-22.382l.466-.466v-55.567l-.518-.413c-11.483-9.666-16.862-14.318-25.863-22.227l-.517-.517a1.362 1.362 0 0 0 0 .413Zm-20.225 28.275c6.983-9.769 11.07-15.042 20.69-26.362 9.001 8.064 14.122 12.457 25.553 22.227-.362 21.038-.362 31.738 0 52.827-11.431 9.822-16.552 14.267-25.553 22.382-9.414-11.268-13.5-16.489-20.432-26.207-.414-17.884-.414-26.982-.258-44.867Z"/><path d="M84.07 561.762A202.484 202.484 0 0 0 70 580.37c.31 16.851.517 25.225 1.086 41.973a245.418 245.418 0 0 0 15.984 31.014l.31.414 19.915-14.267c-.983-19.849-1.345-29.98-1.81-49.881v-.672l-.414-.517c-9.673-11.475-13.915-17.006-21.001-26.982v.31Zm-12.466 59.909c-.518-16.127-.776-24.139-1.035-40.267a214.34 214.34 0 0 1 13.863-18.195c6.88 9.77 10.914 15.094 20.328 26.414.466 19.332.828 28.947 1.759 48.072l-19.294 14.008a237.706 237.706 0 0 1-15.621-30.032Zm18.363 76.294c-2.586 1.189-4.604 2.223-6.362 2.998.087.636.243 1.26.465 1.861 1.759-.775 3.724-1.705 6.31-2.946a397.16 397.16 0 0 0 23.64 37.32v.414c.465 4.497.879 8.374 1.345 11.992v.879c1.138 10.338 2.172 18.247 3.828 30.032v.362l.362 2.998c-3.621.775-6.414 1.24-8.949 1.706v.62l.517 1.344c2.587-.414 5.432-.931 9.208-1.706h.362v-.414a343.59 343.59 0 0 1-5.794-47.089v-1.499l-.414-.517a389.56 389.56 0 0 1-23.432-37.734 4.267 4.267 0 0 0-.465-.827.83.83 0 0 0-.621.206Zm24.621-357.127a1.13 1.13 0 0 1-.362.465l-7.655 10.855-2.121 3.308c-5.173 7.547-8.794 13.957-14.018 23.261a5.138 5.138 0 0 0-.517.879v.982c-1.397 17.367-2.018 26.517-2.949 44.091v.569l19.863 14.163h.311l.517-.775c9.828-12.716 15.518-19.798 28.243-33.961.158-.248.35-.474.569-.672v-.982c1.397-20.417 2.328-31.014 4.241-51.07v-1.396a1.132 1.132 0 0 0-.569-.258c-10.966-4.859-16.138-6.926-24.984-10.338h-.517l-.052.879Zm-23.535 39.129c2.586-4.652 5.172-8.529 7.19-12.302l2.121-3.515 2.948-4.6c.879-1.448 1.81-2.792 2.793-4.291l3.311-5.169 5.172-7.495c8.846 3.257 13.76 5.169 24.726 10.338-1.966 20.211-2.793 30.394-4.242 50.864-12.466 14.214-18.052 21.038-27.88 33.96l-19.398-13.698c1.086-17.833 1.707-26.569 3.259-44.092Z"/><path d="M87.07 424.679a240.515 240.515 0 0 0-15.932 31.014c-.569 16.748-.776 25.173-1.086 41.973a201.197 201.197 0 0 0 14.018 18.401l.362.466a336.173 336.173 0 0 1 21.053-27.138l.413-.568v-.466c.518-19.745.88-29.877 1.811-49.416a1.3 1.3 0 0 0 0-.62s-.31 0-.414-.31l-19.915-14.06-.31.724ZM70.62 496.58c0-16.179.518-24.243 1.035-40.318a241.313 241.313 0 0 1 15.518-30.239c6.621 4.755 10.346 7.547 19.243 13.853-.931 19.125-1.345 28.791-1.811 48.072-9.414 11.372-13.5 16.696-20.38 26.569-6.466-8.012-9.156-11.734-13.604-17.937Zm100.403-292.826c-.268.233-.51.493-.725.775v.259c-5.793 18.402-8.586 27.964-13.655 46.521v.672h.413c10.76 2.016 16.656 3.36 29.485 6.823l.931-.827c17.535-16.489 27.363-25.07 47.433-41.972v-.776c5.483-20.676 8.432-31.014 14.484-50.398v-.31c-14.277-2.533-21.001-3.463-33.261-4.704h-.672c-18.673 17.678-27.881 26.621-44.433 43.937Zm15.88 53.086c-12.415-3.308-18.105-4.6-28.709-6.565 5.173-18.505 7.656-27.654 13.346-45.642 16.294-17.006 25.087-25.535 43.502-42.49 12.053 1.189 18.518 2.068 32.329 4.549-5.948 19.177-8.793 28.998-14.121 49.054-19.553 16.541-28.864 24.812-46.347 41.094Z"/><path d="M156.539 251.568a498.104 498.104 0 0 0-35.329 41.353l-.569.723v.879a333.234 333.234 0 0 0-5.897 46.521v1.396h.362c8.845 3.257 13.966 5.169 24.984 10.338.216.064.424.151.621.259.18-.134.323-.312.414-.517l.362-.362c3.258-3.877 6.155-7.237 8.948-10.338 1.294-1.551 2.535-2.998 3.828-4.394l2.224-2.481c1.294-1.499 2.639-2.946 4.087-4.497a1250.214 1250.214 0 0 1 16.811-17.885 4.69 4.69 0 0 0 .879-.879v-1.292a337.125 337.125 0 0 1 9.156-51.69v-.776a294.598 294.598 0 0 0-29.691-6.823h-.31l-.88.465Zm17.122 62.029-4.087 4.29-1.345 1.448-6.155 6.616-8.328 9.201c-2.742 3.05-5.483 6.254-8.483 9.769l-2.225 2.688-2.379 2.791c-11.07-4.807-16.035-6.771-24.932-10.028a338.174 338.174 0 0 1 5.897-46.521 496.714 496.714 0 0 1 35.277-40.887c10.346 1.964 16.191 3.308 28.553 6.617a327.292 327.292 0 0 0-9 51.276l-2.793 2.74Z"/><path d="M112.106 292.713c2.379.465 5.173.931 8.38 1.603l.724-.983a495.958 495.958 0 0 1 35.381-41.093c.267-.233.51-.493.724-.776l.259-.93c5.173-18.609 7.811-28.12 13.552-46.521v-.517h-.465c-5.897-.517-10.346-.776-14.277-.827l-44.278 90.044Zm44.071-88.752c-.273.3-.485.651-.621 1.034 4.035 0 8.173.31 14.018.827-5.638 17.936-8.276 27.034-13.293 45.539a503.87 503.87 0 0 0-35.123 40.939 320.098 320.098 0 0 0-8.224-1.551.713.713 0 0 0 0 .465l43.243-87.253Z"/><path d="M112.105 292.714v.465c2.276.413 4.915.879 8.173 1.551a354.594 354.594 0 0 0-5.897 46.521l-7.81 10.906-2.121 3.309c-5.173 7.547-8.794 13.956-14.018 23.26a263.647 263.647 0 0 0-6-2.739l-.466 1.912c1.655.672 3.518 1.603 5.845 2.688h.414l.517-.827c2.587-4.652 5.173-8.529 7.19-12.302l2.121-3.515 2.949-4.6c.879-1.448 1.81-2.792 2.793-4.291l3.31-5.169 5.173-7.495.517-.724v-1.137a358.125 358.125 0 0 1 6.001-47.09v-.62h-.363c-3.362-.62-6-1.189-8.431-1.499l.103 1.396ZM299.409 32.09c-.88 1.81-1.707 3.516-2.587 5.17-5.845 12.199-9.362 20.21-15.518 34.994-19.811 16.128-29.588 24.45-48.313 41.353h-12.259v.361l78.677-81.877Zm-80.436 83.429h13.139c.362-.31.672-.62 1.035-.879 18.88-17.057 29.07-25.845 49.45-42.282l.311-.62c6.259-15.198 10.035-23.623 16.138-36.442l1.966-4.032.466-.982-82.505 85.237Z"/><path d="M156.177 203.962c4.034 0 8.224.31 14.018.827h.672l.466-.517c16.759-17.471 25.863-26.466 44.95-43.989v-.31c.828-2.222 1.552-4.393 2.225-6.409.724-2.068 1.448-4.084 2.017-5.945l1.448-4.135 2.483-6.823 2.483-6.772 2.69-7.029a74.912 74.912 0 0 1 1.552-3.877c.569-1.292 1.034-2.688 1.655-4.135l.259-.672h-13.036l-63.882 89.786Zm62.796-88.442a.67.67 0 0 0-.31.361h12.621c-6.828 17.162-10.345 25.846-16.397 44.144-18.312 16.954-27.053 25.535-43.399 42.541-5.897-.465-10.035-.672-14.122-.775l-.62 1.034 62.227-87.305Zm209.908 675.023-1.035-12.354c.311 3.722.621 7.961 1.035 12.354Zm0 0-1.035-12.354c.311 3.722.621 7.961 1.035 12.354Zm56.899-100.796c-26.122 13.233-39.209 19.797-63.21 31.583a8.45 8.45 0 0 1-.931.517h-.517l.31 5.169.311 4.91c1.034 17.162 1.862 29.154 3.155 44.713l.31 4.342c.311 2.791.518 5.841.776 8.994v1.55l1.345.827c25.139 15.508 38.692 23.52 64.555 38.355.274.106.535.245.776.413l.776.465c.259.155.931-.465 1.448-.672.23-.072.454-.158.673-.258 23.794-10.338 37.036-16.696 62.796-28.947.172.009.345.009.517 0l.673-.31v-2.533c-.983-26.62-1.449-41.352-2.224-69.988a3.718 3.718 0 0 1-1.087-.621c-27.57-15.042-41.95-23.105-68.952-38.509a11.264 11.264 0 0 1-1.034-.62c-.134.222-.29.429-.466.62Zm-56.899 100.796-1.035-12.354c-1.086-13.232-1.862-23.674-2.689-36.7l-.518-9.097c0-1.086 0-2.275-.258-3.464v-5.169c24.001-11.837 36.57-18.091 62.382-31.014 26.795 15.507 40.451 23.002 67.918 37.993.775 28.274 1.241 42.179 2.224 69.058-25.864 12.25-38.64 18.091-62.9 28.895-25.864-14.939-39.106-22.692-64.503-38.199l-.621.051Zm0 0-1.035-12.354c.311 3.722.621 7.961 1.035 12.354Zm54.882-329.112-.724.362c-26.484 15.093-40.244 23.002-65.435 37.682-.465.31-.879.517-1.345.775v1.965c-.258 19.745-.31 33.185 0 49.105v24.915c.518.31.983.62 1.501.879 25.397 14.887 39.209 22.795 66.21 38.096l.828.517c.5-.307 1.018-.583 1.551-.828l68.021-36.493 1.19-.672v-78.983a14.825 14.825 0 0 0-1.242-.672c-27.57-14.835-41.743-22.433-67.865-36.441-.569 0-1.035-.517-1.604-.827l-1.086.62Zm-64.865 60.012v-19.177c25.449-14.938 38.639-22.485 65.486-37.734l67.245 36.184v75.364c-27.571 14.835-41.382 22.175-67.504 36.183-26.846-15.197-40.036-22.795-65.486-37.63.103-21.659.052-35.357.259-53.138v-.052Z"/><path d="M416.052 575.149c-24.828 13.957-36.674 21.038-58.658 33.754-.414.31-.879.517-1.293.775v1.655l.31 13.387v5.169c.259 9.977.569 18.661 1.035 28.172v2.481c0 5.892.569 12.095.879 19.28v1.603h.466c.288.252.6.477.931.672 23.122 15.507 35.743 23.674 61.451 39.233l.983.62.931-.465c24.208-11.889 37.295-18.505 63.314-31.635l.569-.362c.194-.076.384-.162.569-.258-.983-29.515-1.397-44.712-1.862-74.693v-1.085a9.69 9.69 0 0 1-1.242-.724c-26.846-15.145-40.554-23.054-65.848-37.837-.517-.259-1.086-.62-1.552-.879-.465-.258-.465 1.137-.983 1.137Zm-55.554 86.685c-.311-8.27-.673-15.507-.931-23.571v-26.775c22.191-12.82 33.57-19.591 58.71-33.651 25.449 14.835 38.64 22.434 65.434 37.631.466 29.308.879 43.833 1.811 72.366-25.864 13.13-38.33 19.384-62.383 31.273-25.605-15.507-37.709-23.416-61.038-38.923l-1.603-18.35Z"/></g><defs><clipPath id="a"><path fill="#fff" transform="rotate(-90 540 540)" d="M0 0h1080v663H0z"/></clipPath></defs></svg>