<svg width="663" height="1080" viewBox="0 0 663 1080" fill="none" xmlns="http://www.w3.org/2000/svg">
<g opacity="0.5" clip-path="url(#clip0_27_176)">
<path d="M412.587 1035.61C395.828 1038.86 387.5 1040.16 372.344 1042.28C372.344 1042.28 371.826 1042.28 371.619 1042.28L371.619 1042.79C377.775 1059.8 381.034 1068.17 387.448 1083.21L387.448 1083.78L388.379 1084.35C409.07 1097.89 419.156 1106.22 440.364 1115.83C440.778 1115.83 441.192 1116.19 441.657 1116.4C441.968 1116.38 442.278 1116.38 442.589 1116.4C458.107 1113.09 466.486 1111.23 483.401 1106.63C483.711 1106.63 484.073 1106.63 484.384 1106.37L484.384 1105.85L484.384 1105.54C479.728 1091.69 477.452 1084.2 473.107 1068.07L473.107 1067.14C472.642 1067.14 472.28 1066.72 471.866 1066.57C471.452 1066.41 471.866 1066.57 471.866 1066.57C452.098 1058.22 433.065 1048.22 414.966 1036.69C414.966 1036.69 414.966 1036.69 414.966 1036.69L413.673 1035.87L412.587 1035.61ZM470.78 1067.6L471.556 1070.39C471.556 1071.33 472.073 1072.31 472.332 1073.13C472.518 1074.01 472.76 1074.87 473.056 1075.72L474.297 1080.22C474.274 1080.26 474.262 1080.32 474.262 1080.37C474.262 1080.42 474.274 1080.48 474.297 1080.53L475.539 1084.92L476.211 1087.14L477.504 1091.33L479.78 1098.31L481.022 1101.98L482.056 1105.08C464.935 1109.52 456.762 1111.44 441.192 1114.9C419.725 1105.29 410.156 1097.12 389.465 1083.63C383.154 1068.74 380.051 1060.83 373.947 1044.08C389.155 1042.02 397.172 1040.67 413.88 1037.47C421.018 1042.17 427.071 1045.84 432.812 1049.1C434.743 1050.17 436.657 1051.2 438.554 1052.2C440.985 1053.49 443.364 1054.63 445.796 1055.82L454.227 1059.8C459.089 1061.97 464.314 1064.4 470.262 1067.24L470.78 1067.6Z" fill="#84F0FF"/>
<path d="M498.454 893.2C475.176 902.763 463.435 907.519 442.485 915.686C441.864 915.686 441.192 916.203 440.52 916.461L440.52 916.926C440.52 918.322 440.882 919.666 441.14 921.01L441.554 923.904C441.968 926.799 442.33 929.435 442.796 931.968L442.796 932.227C443.106 934.398 443.364 936.517 443.727 938.481L443.727 939.05L444.761 945.511C446.054 953.265 447.348 961.018 449.21 970.943L449.21 972.183L449.21 972.959C449.365 972.967 449.52 972.967 449.675 972.959C474.504 986.501 487.332 993.014 512.006 1005.01C512.231 1005.16 512.474 1005.28 512.73 1005.37L513.972 1004.9C514.178 1004.89 514.386 1004.89 514.592 1004.9C529.645 999.476 539.576 995.754 552.25 990.895L556.284 989.344C560.422 987.794 564.871 986.036 569.94 984.175C570.111 984.146 570.286 984.146 570.457 984.175C570.457 984.175 570.457 984.175 570.457 984.175L570.457 982.366C568.75 962.052 567.871 950.783 566.319 927.833C565.595 927.419 564.871 927.109 564.147 926.747C539.163 914.497 525.61 907.57 500.264 893.976C499.798 893.717 499.333 893.511 498.867 893.2L498.454 893.2ZM561.767 985.002C557.319 986.708 553.387 988.259 549.56 989.758C547.646 990.43 545.732 991.154 543.87 991.877C543.611 991.936 543.366 992.041 543.146 992.187C540.301 993.273 537.456 994.307 534.662 995.34C534.145 995.34 533.68 995.702 533.214 995.909C531.3 996.581 529.335 997.305 527.369 998.08C523.024 999.734 518.317 1001.39 512.989 1003.25C488.832 991.464 476.78 985.209 452.313 972.235L450.968 964.998C450.606 962.569 450.141 960.243 449.779 958.072L448.796 952.024L447.658 945.149C447.658 943.392 447.141 941.634 446.779 939.98L444.192 922.561L443.571 918.477C465.141 910.103 476.315 905.606 499.695 896.043C525.558 909.845 538.387 916.461 564.095 928.97C565.698 951.455 566.578 962.31 568.337 982.78C567.509 983.09 566.733 983.4 565.957 983.658L561.767 985.002Z" fill="#84F0FF"/>
<path d="M449.468 972.234C433.94 978.23 418.066 983.288 401.931 987.38C401.362 987.38 400.741 987.638 400.172 987.793L401.051 991.515L403.482 1001.54L404.776 1007.02L404.776 1007.49L406.017 1012.35L408.138 1020.25L408.914 1022.99L409.69 1025.84L410.879 1030.23L412.276 1035.04L412.276 1035.61L412.586 1036.8C412.586 1036.8 412.897 1036.8 413 1037.05C413.217 1037.24 413.461 1037.4 413.724 1037.52C420.811 1042.22 426.966 1045.89 432.812 1049.15C434.743 1050.22 436.657 1051.25 438.553 1052.25C440.984 1053.54 443.364 1054.68 445.795 1055.87L454.226 1059.85C459.089 1062.12 464.572 1064.55 470.314 1067.4C470.78 1067.56 471.231 1067.77 471.658 1068.02C472.012 1067.87 472.375 1067.75 472.745 1067.65C490.849 1062.49 500.884 1059.18 520.747 1052.56C521.05 1052.49 521.345 1052.38 521.627 1052.25V1052.25L521.627 1051.11C518.471 1034.06 516.919 1024.44 513.919 1004.95L513.919 1004.28L511.954 1003.25C488.366 991.825 475.745 985.26 451.744 972.234C451.33 972.234 450.812 971.769 450.347 971.511C449.881 971.252 449.83 972.079 449.468 972.234ZM471.762 1066.21C452.08 1057.9 433.148 1047.92 415.173 1036.38V1036.38L414.242 1032.92C413.673 1031.01 413.104 1029.15 412.638 1027.34L411.138 1021.91L410.31 1018.81L409.017 1014C407.207 1006.87 405.448 999.579 403.12 989.861C419.529 985.69 435.664 980.512 451.433 974.354C475.745 987.431 487.952 993.634 512.057 1005.37C515.109 1024.7 516.661 1033.9 519.868 1051.06C499.694 1057.89 490.073 1061.04 471.762 1066.21Z" fill="#84F0FF"/>
<path d="M378.24 876.608C358.429 883.741 348.549 886.946 330.807 892.477C330.807 892.477 330.238 892.477 329.979 892.735L329.979 893.252C334.79 915.324 337.376 926.282 342.652 946.752L342.652 947.527L343.635 948.251C365.722 964.223 377.464 972.442 399.914 987.794L401.414 988.673C401.828 988.673 402.138 988.673 402.5 988.414C418.644 984.331 434.52 979.256 450.037 973.217C450.606 973.217 451.33 972.804 452.003 972.545L452.003 972.132L450.658 964.895C450.296 962.466 449.83 960.14 449.468 957.969L448.485 951.921L447.347 945.046C447.347 943.288 446.83 941.531 446.468 939.877L443.882 922.457L443.261 918.374L443.261 916.926L443.261 916.151C443.106 916.034 442.93 915.947 442.744 915.893C417.553 901.471 404.828 893.304 381.034 877.332L379.637 876.401C379.016 876.349 378.602 876.453 378.24 876.608ZM441.037 921.062L441.451 923.956C441.864 926.851 442.226 929.487 442.692 932.02L442.692 932.278C443.002 934.449 443.261 936.569 443.623 938.533L443.623 939.102L444.658 945.563C445.951 953.316 447.244 961.07 449.106 970.995C433.334 977.145 417.199 982.324 400.793 986.502C378.189 970.995 366.912 963.241 344.773 947.217C339.6 927.006 337.169 916.513 332.514 894.855C350.308 889.427 359.774 886.274 379.689 879.348C403.431 895.32 415.484 903.177 440.261 917.392C440.623 918.374 440.778 919.718 441.037 921.062V921.062Z" fill="#84F0FF"/>
<path d="M425.984 790.233C403.069 800.571 391.637 805.74 370.946 814.321C370.774 814.33 370.601 814.33 370.429 814.321C370.104 814.516 369.757 814.672 369.395 814.786L369.395 815.975L369.395 816.492L370.326 824.711C370.688 827.295 370.946 829.88 371.308 832.102L372.757 843.164L373.791 849.781C374.929 857.534 376.274 865.288 377.93 875.626L377.93 876.453L377.93 877.28C378.293 877.561 378.673 877.82 379.067 878.055C402.758 893.976 415.276 902.195 440.105 916.306L441.45 917.081C441.873 916.931 442.287 916.759 442.691 916.564C464.158 908.242 475.9 903.538 499.591 893.821L500.263 893.511C497.884 869.475 496.591 857.327 494.78 831.482L494.78 829.725L493.435 828.949C467.572 814.114 453.916 806.05 428.725 790.647L427.225 789.716L425.984 790.233ZM379.43 869.164L378.757 864.616L377.619 857.741L377.102 854.071L376.067 847.403C374.878 839.081 373.688 830.655 372.498 819.852L372.188 817.112L372.188 816.854C393.292 807.963 404.31 803.207 427.432 792.818C427.516 792.845 427.607 792.845 427.691 792.818C452.882 808.325 465.917 816.027 492.039 831.017L492.039 831.275C493.849 857.121 495.091 868.544 497.47 891.96C474.038 901.626 462.761 906.123 441.243 914.6C416.414 900.334 404.258 892.528 380.516 876.556L379.43 869.164Z" fill="#84F0FF"/>
<path d="M342.755 946.751C325.892 950.887 317.564 952.696 302.46 955.539C302.237 955.514 302.011 955.514 301.788 955.539L302.046 956.417C307.943 975.543 311.15 985.106 317.564 1002.94L317.564 1003.66C317.883 1003.87 318.178 1004.11 318.444 1004.39C339.134 1019.89 350.359 1028.16 371.515 1042.84C371.929 1042.84 372.343 1043.36 372.757 1043.67C373.171 1043.98 373.119 1043.67 373.274 1043.67C388.43 1041.6 396.758 1040.21 413.052 1037.05C413.569 1037.05 414.138 1036.95 414.759 1036.74L414.759 1036.43L413.828 1032.97C413.259 1031.06 412.69 1029.2 412.224 1027.39L410.724 1021.96L409.897 1018.86L408.603 1014.05C406.793 1006.92 405.034 999.631 402.707 989.913L402.448 988.724L402.448 988L402.034 987.69C378.964 972.183 367.119 963.706 344.617 947.372L343.842 946.855C343.478 946.844 343.115 946.809 342.755 946.751V946.751ZM403.483 1001.54L404.776 1007.02L404.776 1007.49L406.017 1012.35L408.138 1020.26L408.914 1022.99L409.69 1025.84L410.879 1030.23L412.276 1035.04C395.413 1038.29 387.396 1039.59 372.188 1041.71C350.876 1026.97 340.272 1019.27 319.375 1003.46C313.116 985.829 310.012 976.628 303.857 957.555C319.013 954.763 327.03 953.058 343.945 948.922C366.084 964.946 377.309 972.855 399.81 988.207L400.638 991.515L403.483 1001.54Z" fill="#84F0FF"/>
<path d="M520.075 1050.7C519.903 1050.69 519.73 1050.69 519.558 1050.7C499.695 1057.32 489.711 1060.47 471.607 1065.79C471.264 1065.84 470.932 1065.95 470.624 1066.1L470.624 1067.03L471.452 1069.88C471.452 1070.81 471.969 1071.79 472.228 1072.62C472.414 1073.49 472.656 1074.36 472.952 1075.2C473.314 1076.8 473.78 1078.3 474.193 1079.7C474.17 1079.75 474.158 1079.8 474.158 1079.85C474.158 1079.91 474.17 1079.96 474.193 1080.01C474.556 1081.56 475.021 1082.96 475.435 1084.4L476.107 1086.63L477.4 1090.81L479.676 1097.79L480.918 1101.46L481.952 1104.56L481.952 1104.87L481.952 1105.39C482.418 1105.39 482.832 1105.75 483.246 1105.91C504.971 1115.26 516.144 1119.76 537.248 1127.77C537.472 1127.76 537.697 1127.76 537.921 1127.77C538.283 1127.77 538.645 1127.77 538.955 1127.77C556.232 1123.17 565.75 1120.53 584.734 1114.9C584.734 1114.9 585.303 1114.9 585.561 1114.9L585.561 1114.18C583.44 1100.74 582.354 1092.93 580.389 1076.96L580.389 1076.29C580.078 1076.29 579.716 1075.98 579.406 1075.87C556.956 1066.72 544.904 1061.61 521.834 1051.06L520.489 1050.44L520.075 1050.7ZM473.262 1067.71C491.522 1062.28 501.143 1059.28 521.058 1052.66C544.128 1063 555.611 1068.17 577.957 1077.22C580.078 1093.09 581.164 1100.48 583.13 1114.07C564.095 1119.76 554.939 1122.29 537.559 1126.89C516.868 1118.98 505.798 1114.69 484.021 1105.23C479.883 1091.54 477.607 1084.04 473.262 1067.91L473.262 1067.71Z" fill="#84F0FF"/>
<path d="M359.256 681.942C337.273 693.624 326.358 699.207 306.392 709.235C306.226 709.301 306.07 709.388 305.926 709.493L305.512 709.493C307.271 735.7 308.357 748.881 310.685 773.434L310.685 775.398L311.564 776.07C333.445 792.094 345.445 800.675 369.136 816.44C369.653 816.699 370.067 817.061 370.585 817.371C371.011 817.23 371.426 817.057 371.826 816.854V816.854C392.517 808.066 404.207 803.053 427.225 792.663L428.363 792.146L428.363 790.595C427.95 786.201 427.639 782.118 427.381 778.241C426.294 765.008 425.518 754.567 424.691 741.541L424.174 732.443C424.174 731.358 424.174 730.169 423.915 728.98L423.915 723.811L423.915 722.157C423.762 722.024 423.587 721.919 423.398 721.847L422.415 721.175C396.914 705.668 384.24 697.604 360.912 681.994C360.912 681.994 360.291 681.58 359.981 681.373L359.256 681.942ZM421.742 732.185C422.777 749.346 423.605 761.338 424.898 776.897L425.208 781.239C425.518 784.03 425.725 787.08 425.984 790.233C402.966 800.571 391.999 805.74 371.154 814.269C371.154 814.269 370.843 814.269 370.688 814.269L370.429 814.269C346.738 798.452 335.203 790.337 313.53 774.313L313.53 773.744C311.254 749.346 310.168 736.734 308.357 711.25C328.324 701.274 338.773 695.743 360.601 684.475C383.878 699.982 395.931 707.891 421.484 723.449L421.742 727.016L421.742 732.185Z" fill="#84F0FF"/>
<path d="M356.204 466.032C333.393 480.919 321.91 488.569 301.115 502.577L300.184 503.249L300.184 504.024C299.719 531.317 299.719 545.376 300.184 572.876L300.184 573.858C300.546 573.858 300.857 574.323 301.167 574.478C321.858 588.486 333.445 596.136 356.204 610.971C356.618 610.971 357.084 611.488 357.601 611.85C358.033 611.564 358.482 611.305 358.946 611.075C380.93 598.307 392.827 591.226 417.656 577.269L419.156 576.442L419.156 574.737C418.846 552.975 418.794 539.277 419.156 521.495L419.156 502.318L419.156 500.354L417.811 499.63C392.982 485.777 381.085 478.954 359.049 466.083C358.636 466.083 358.17 465.618 357.756 465.308L356.204 466.032ZM415.845 551.476L415.845 574.685C390.706 588.796 379.637 595.619 357.239 608.542C334.376 593.604 323.306 586.315 302.357 572.359C302.047 545.428 302.047 531.782 302.357 504.851C323.048 490.843 334.272 483.503 357.032 468.668C379.223 481.539 390.448 488.31 415.587 502.422C415.794 522.116 415.742 535.555 415.845 551.476Z" fill="#84F0FF"/>
<path d="M300.081 572.875C279.701 585.694 269.511 592.052 251.199 603.424C250.94 603.637 250.663 603.827 250.372 603.993L250.372 605.285C251.044 631.13 251.562 644.208 253.01 669.795C253.26 670.034 253.538 670.242 253.838 670.415C273.287 685.56 283.994 693.676 305.564 709.39L306.392 710.01C306.559 709.925 306.715 709.821 306.858 709.7C326.979 699.672 337.894 694.193 359.826 682.511L360.705 682.045C360.843 682.029 360.981 682.029 361.119 682.045L361.119 680.443L360.24 662.196C359.929 653.926 359.567 646.689 359.309 638.625L359.309 634.077L359.309 625.238L359.309 620.482C359.309 619.086 359.309 617.742 359.309 616.243L359.309 611.798L359.309 610.196C358.827 609.91 358.361 609.599 357.912 609.265C335.049 594.43 323.514 586.832 302.512 572.72L301.84 572.255L300.081 572.875ZM356.464 624.927L356.464 630.097C356.722 640.073 357.032 648.757 357.498 658.268L357.498 660.749L358.429 680.029C336.6 691.505 326.203 696.984 306.289 707.012C284.667 691.505 274.373 683.596 254.976 668.606C253.579 643.691 253.062 631.027 252.337 605.595C270.804 594.172 280.529 588.124 301.064 575.253C321.755 589.313 332.98 596.601 355.895 611.436L356.464 624.927Z" fill="#84F0FF"/>
<path d="M310.789 773.589C310.586 773.643 310.394 773.73 310.22 773.847C291.184 782.221 281.511 786.253 264.235 793.128L263.873 793.128C263.736 793.155 263.595 793.155 263.459 793.128L263.459 795.299C265.748 813.915 269.204 832.371 273.804 850.556L273.804 851.383C274.136 851.595 274.448 851.837 274.735 852.106C295.943 868.285 307.478 876.814 329.773 892.89L331.169 893.872L331.686 893.872C349.532 888.341 359.412 885.085 379.172 878.003L380.568 877.538L380.568 876.918L380.568 876.349L379.327 868.957L378.654 864.409L377.516 857.534L376.999 853.864L375.965 847.196C374.775 838.874 373.585 830.448 372.395 819.645L372.395 816.905L372.395 816.647L372.395 814.889C372.395 814.889 371.826 814.527 371.516 814.269C371.206 814.01 371.516 814.269 371.516 814.269C347.67 798.452 335.307 789.923 313.737 773.95L313.168 773.485L312.496 773.02C311.906 773.141 311.333 773.332 310.789 773.589V773.589ZM369.55 816.698L370.482 824.917C370.844 827.502 371.102 830.086 371.464 832.309L372.913 843.371L373.947 849.987C375.085 857.74 376.43 865.494 378.085 875.832C358.119 883.017 348.705 886.17 330.911 891.701C308.409 875.522 297.34 867.355 276.08 851.124C271.414 832.866 267.958 814.321 265.735 795.609V795.609C283.115 788.682 292.374 784.805 311.668 776.38C311.788 776.363 311.91 776.363 312.03 776.38C333.962 792.456 345.446 800.519 369.24 816.44L369.55 816.698Z" fill="#84F0FF"/>
<path d="M493.022 247.795C492.763 247.795 492.556 248.053 492.298 248.157C488.987 250.017 485.987 251.775 483.039 253.326C481.59 254.204 480.142 254.98 478.797 255.807C476.004 257.409 473.366 258.908 470.831 260.407C467.003 262.63 463.382 264.801 459.71 266.92C457.175 268.471 454.537 269.97 452.002 271.521L436.484 280.773L428.519 285.942L427.536 286.563L425.984 287.493L425.984 289.044L424.691 305.585L424.329 309.513L424.018 314.01L423.242 324.348L422.984 328.225L422.984 332.153L421.949 347.66L421.949 352.054L421.949 354.535L421.949 356.241L421.949 357.223C422.105 357.34 422.28 357.428 422.467 357.482C446.985 369.474 460.124 376.038 486.453 389.478C486.711 389.478 487.022 389.478 487.28 389.892C487.539 390.305 488.315 389.323 488.832 389.013L489.608 388.599L499.126 383.12C511.075 376.297 520.644 370.869 531.093 365.08C532.386 364.356 533.731 363.581 535.128 362.857L539.214 360.635L547.956 355.828C549.508 354.949 551.059 354.07 552.715 353.243C554.37 352.416 556.025 351.434 557.887 350.504L558.508 350.193L558.508 347.712C559.232 320.006 559.698 305.481 560.68 278.654L560.68 277.723L558.405 276.69C533.11 264.646 519.868 258.65 496.022 248.001C495.505 247.743 495.091 247.536 494.574 247.329L493.022 247.795ZM546.766 352.881C546.094 353.191 545.421 353.605 544.749 353.967C542.266 355.362 539.886 356.706 537.61 357.895C530.058 362.03 523.385 365.804 516.506 369.681C513.919 371.128 511.333 372.627 508.643 374.126C503.471 377.072 497.729 380.277 491.418 383.895C489.815 384.774 488.211 385.705 486.246 386.687C460.382 373.609 447.968 367.406 424.173 355.673L424.173 351.072L425.053 337.064C425.053 335.668 425.053 334.221 425.363 332.825L426.398 318.042L426.656 314.269L427.07 308.841L428.26 293.592L428.674 288.94L433.329 286.097C435.553 284.702 437.674 283.409 439.743 282.169C441.812 280.928 443.778 279.688 445.795 278.55L449.675 276.225C454.847 273.175 459.503 270.332 464.365 267.437C467.003 265.938 469.538 264.336 472.331 262.837C475.124 261.338 477.193 259.942 479.78 258.443L493.332 250.689C517.696 261.544 530.369 267.385 556.439 279.688C555.404 306.722 554.939 320.575 554.163 348.849C551.784 350.09 549.197 351.434 546.766 352.881Z" fill="#84F0FF"/>
<path d="M421.174 356.344C396.241 371.541 383.672 379.76 361.222 394.699C360.498 395.216 359.722 395.681 358.946 396.198L358.946 396.818L358.946 399.144L358.946 401.367C358.946 406.794 358.429 411.705 358.222 416.357L357.963 423.025C357.963 427.315 357.55 431.502 357.394 435.792L357.394 442.512L357.394 448.457L357.136 455.383L357.136 462.62L357.136 466.031L357.136 467.944L357.55 468.202C357.801 468.302 358.043 468.423 358.274 468.564C380.309 481.332 392.207 488.465 417.035 502.37L418.535 503.197C419.053 502.887 419.518 502.576 420.036 502.318C445.278 487.638 459.089 479.626 485.729 464.584C486.125 464.329 486.54 464.105 486.97 463.912V463.912L486.97 461.896C487.384 432.846 487.798 417.701 488.729 389.219L488.729 388.186C487.953 387.824 487.229 387.41 486.504 387.1C461.417 374.333 448.33 367.716 424.743 356.086L423.398 355.414C422.682 355.781 421.938 356.092 421.174 356.344V356.344ZM417.76 499.63C392.776 485.674 381.551 478.954 359.205 466.186C359.205 462.826 359.205 459.622 359.515 456.675L359.515 447.423L359.774 438.997C360.239 425.92 360.757 414.186 361.584 397.645C384.913 382.138 397.017 374.229 422.622 358.722C446.623 370.559 459.193 376.814 485.004 389.736C484.022 418.114 483.66 432.639 483.142 461.689C456.244 477.248 443.106 484.847 417.76 499.63V499.63Z" fill="#84F0FF"/>
<path d="M369.757 261.802C362.256 266.972 356.049 271.003 350.308 274.932C348.032 276.483 345.859 277.93 343.738 279.429L336.807 284.288L330.651 288.733C325.892 292.093 320.927 295.66 315.133 299.847C314.099 300.622 313.116 301.397 311.978 302.173L310.943 302.948L310.943 304.447C308.564 328.948 307.426 342.129 305.771 367.819L305.771 368.75C306.07 368.926 306.381 369.081 306.702 369.215C326.565 379.14 337.479 384.722 359.153 396.197C359.618 396.197 359.98 396.663 360.446 396.869C360.891 396.53 361.358 396.219 361.843 395.939C384.499 380.794 397.172 372.523 421.846 357.585C422.622 357.068 423.449 356.603 424.277 356.086L424.277 355.517L424.277 350.917L425.156 336.909C425.156 335.513 425.156 334.066 425.467 332.67L426.501 317.887L426.76 314.113L427.174 308.686L428.363 293.437L428.777 288.785L428.777 286.2C428.641 286.228 428.5 286.228 428.363 286.2V286.2C404.776 275.552 393.293 270.693 372.136 261.647L370.843 261.182L369.757 261.802ZM425.984 288.992L424.691 305.532L424.329 309.461L424.018 313.958L423.242 324.296L422.984 328.173L422.984 332.101L421.949 347.608L421.949 352.002L421.949 354.483C396.344 369.99 384.344 377.951 361.015 393.458C339.135 382.034 328.737 376.658 308.771 366.734C310.53 341.147 311.616 328.483 313.944 303.775C330.444 291.679 341.359 283.926 356.049 273.95C358.532 272.192 361.222 270.383 363.963 268.781C365.981 267.385 368.153 265.989 370.378 264.49L371.36 263.818C392.517 272.709 403.431 277.516 426.605 288.01L425.984 288.992ZM425.984 288.992L425.984 287.958L425.984 288.992Z" fill="#84F0FF"/>
<path d="M305.616 367.82C284.149 383.327 273.39 391.494 253.889 406.587L253.061 407.208L253.061 408.448C251.613 433.311 251.096 446.492 250.423 472.027L250.423 473.061L251.251 473.578C269.51 484.898 279.752 491.256 300.133 504.024L301.271 504.747C301.499 504.558 301.741 504.385 301.995 504.231C322.685 490.274 334.221 482.676 356.515 468.047C357.239 467.53 358.015 467.065 358.791 466.548L358.791 465.825L359.101 456.314L359.101 447.061L359.36 438.635C359.825 425.558 360.343 413.824 361.17 397.283C361.221 396.733 361.221 396.179 361.17 395.629L361.17 394.595C361.015 394.604 360.86 394.604 360.705 394.595C338.307 382.862 327.341 377.227 307.116 367.148L306.443 366.786C306.19 367.148 305.913 367.493 305.616 367.82V367.82ZM358.739 399.144L358.739 401.367C358.739 406.794 358.222 411.705 358.015 416.357L357.756 423.025C357.756 427.315 357.342 431.502 357.187 435.792L357.187 442.512L357.187 448.457L356.929 455.383L356.929 462.62L356.929 465.153C334.014 480.143 323.048 487.483 302.098 501.336C281.407 488.568 271.838 482.521 253.475 471.2C254.147 445.769 254.665 433.105 256.061 408.19C275.562 393.2 285.856 385.394 307.478 369.732C327.341 379.709 337.841 385.239 359.567 396.611L358.739 399.144Z" fill="#84F0FF"/>
<path d="M317.565 1002.99C302.719 1004.85 295.581 1005.47 282.235 1006.2L282.235 1006.66C289.115 1023.51 292.891 1031.94 300.184 1047.03L300.546 1047.86C300.631 1048.04 300.735 1048.21 300.857 1048.38V1048.38C308.564 1054.42 314.926 1059.28 320.875 1063.88C321.187 1064.08 321.481 1064.31 321.754 1064.55C331.324 1071.64 340.169 1077.84 352.791 1086.42C352.989 1086.57 353.197 1086.71 353.411 1086.83C353.669 1086.86 353.929 1086.86 354.187 1086.83C367.119 1086.47 374.257 1085.95 388.637 1084.61C388.637 1084.61 389.051 1084.61 389.31 1084.61L388.948 1083.83C382.585 1069 379.326 1060.68 373.429 1043.88L373.171 1043.15L372.24 1042.48C350.98 1027.8 339.859 1019.74 319.168 1004.08C318.776 1003.74 318.362 1003.43 317.927 1003.15C317.927 1003.15 317.72 1002.99 317.565 1002.99ZM386.982 1082.8C372.602 1084.14 365.774 1084.61 352.687 1085.02C332.462 1071.12 322.375 1063.78 302.46 1048.38C295.063 1032.87 291.494 1024.96 284.511 1008.11C297.495 1007.38 304.374 1006.76 318.754 1005.01C339.445 1020.82 350.204 1028.47 371.464 1043.21C377.464 1059.95 380.723 1067.91 386.982 1082.8V1082.8Z" fill="#84F0FF"/>
<path d="M270.752 1046.62L270.752 1047.13C280.72 1048.12 290.737 1048.54 300.753 1048.38V1048.38C308.461 1054.42 314.823 1059.28 320.772 1063.88C321.083 1064.08 321.377 1064.31 321.651 1064.55C323.927 1066.36 326.203 1068.07 328.531 1069.72L329.72 1070.6C336.393 1075.36 343.324 1080.22 352.17 1086.11L352.17 1086.57C352.329 1086.78 352.544 1086.95 352.79 1087.04C353.359 1087.45 353.98 1087.92 354.601 1088.28C354.267 1087.72 353.973 1087.13 353.722 1086.52L353.411 1086.06C353.126 1085.82 352.813 1085.61 352.48 1085.44C331.789 1071.33 321.444 1063.57 300.753 1047.7L299.977 1047.7C290.223 1047.88 280.466 1047.52 270.752 1046.62V1046.62ZM292.27 1083.63C290.925 1081.56 289.735 1079.7 288.649 1077.89C289.787 1079.75 290.977 1081.72 292.27 1083.63V1083.63Z" fill="#84F0FF"/>
<path d="M273.908 850.918C257.2 856.087 249.234 858.516 234.543 862.393L234.543 862.91C240.027 883.586 243.027 893.924 248.975 913.205L248.975 913.877C269.666 931.141 280.011 939.722 301.737 956.469L302.461 957.038C302.753 957.063 303.048 957.063 303.34 957.038C318.289 954.35 326.669 952.541 343.584 948.406L344.411 948.406L344.411 947.424C339.239 927.213 336.6 916.409 331.893 894.441L331.893 893.614C331.583 893.304 331.169 893.097 330.859 892.839C308.461 876.711 296.823 868.182 275.77 852.107C275.304 851.745 274.942 851.435 274.477 851.125L273.908 850.918ZM342.084 946.131C325.169 950.267 317.151 951.972 302.047 954.815C280.994 938.533 270.701 930.262 250.837 913.463C244.941 894.183 242.147 884.31 236.768 864.151C251.096 860.48 258.7 858.309 275.046 853.14C296.254 869.423 307.271 877.538 329.721 893.717C334.428 915.479 336.859 925.972 342.084 946.131V946.131Z" fill="#84F0FF"/>
<path d="M249.078 913.153C235.112 915.686 228.387 916.616 215.869 917.909L216.18 918.684L218.197 924.628L220.939 932.434C221.766 934.915 222.594 937.241 223.473 939.464L225.128 944.064C225.853 945.821 226.473 947.579 227.146 949.233C228.749 953.575 230.508 958.176 232.681 963.551L232.681 964.12C251.871 981.436 262.113 989.965 282.183 1006.35C282.505 1006.65 282.851 1006.93 283.218 1007.18C296.615 1006.51 303.908 1005.83 318.392 1004.02C318.633 1004 318.875 1004 319.116 1004.02L319.116 1003.61C312.65 985.675 309.443 976.009 303.598 956.625L303.598 956.004L302.615 955.281C281.2 938.637 270.441 929.953 249.957 912.791C249.682 912.951 249.386 913.073 249.078 913.153V913.153ZM218.042 919.976C230.301 918.736 236.767 917.857 250.682 915.324C270.441 931.968 280.787 940.291 301.736 956.676C307.685 975.699 310.736 984.899 317.254 1002.53C302.822 1004.33 295.994 1005.01 283.011 1005.73C263.096 989.603 253.32 981.281 234.543 964.378C227.404 947.062 224.146 938.223 217.887 919.976L218.042 919.976Z" fill="#84F0FF"/>
<path d="M253.165 669.898C234.698 680.236 225.853 684.785 209.766 693.159C211.421 716.936 212.404 729.032 214.939 751.672L214.939 753.481L215.611 754.05C233.457 770.126 243.388 778.706 263.407 795.04L263.976 795.454C264.147 795.665 264.357 795.841 264.596 795.971C264.951 795.837 265.296 795.682 265.631 795.506L266.148 795.506C283.218 788.786 292.839 784.702 312.237 776.277L312.547 776.277C312.719 776.285 312.892 776.285 313.064 776.277L313.064 773.899C310.737 749.604 309.65 736.32 307.892 710.32C307.637 710.101 307.359 709.911 307.064 709.751C285.391 694.244 274.58 685.974 255.337 670.777C255.029 670.617 254.749 670.407 254.51 670.156C254.11 669.903 253.63 669.81 253.165 669.898V669.898ZM216.49 752.603L216.49 752.137C214.266 729.704 213.232 718.125 211.576 694.916C227.405 686.697 235.836 682.252 253.837 672.431C273.286 687.473 283.528 695.278 305.047 710.94C306.857 736.423 307.892 749.088 310.219 773.64C290.822 782.118 281.614 786.046 264.389 792.921C264.389 792.921 264.389 792.921 264.027 792.921C263.665 792.921 264.027 792.921 264.027 792.921C243.854 776.742 234.284 768.833 216.49 752.809L216.49 752.603Z" fill="#84F0FF"/>
<path d="M250.526 471.769C230.974 486.139 221.663 493.272 204.49 506.556L204.49 507.228C204.127 531.833 204.127 544.755 204.49 569.257L204.49 570.187C221.611 583.42 230.922 590.501 250.423 604.923L251.044 605.337L252.078 604.665C270.286 593.344 280.58 586.987 301.064 574.116C301.322 574.116 301.633 573.805 301.995 573.547L301.995 572.203C301.581 545.272 301.633 530.851 301.995 503.868L301.995 502.835L301.064 502.214C280.373 489.447 270.338 483.141 252.13 471.924C251.716 471.924 251.406 471.407 251.044 471.2C250.843 471.362 250.668 471.553 250.526 471.769V471.769ZM299.512 571.945C278.821 584.867 269.303 590.915 250.889 602.39C231.905 588.434 223.008 581.714 206.352 568.843C206.041 544.6 206.041 532.246 206.352 508.004C223.008 495.081 231.957 488.361 251.044 474.353C269.355 485.725 279.08 491.773 299.563 504.592C299.15 531.73 299.15 545.324 299.512 572.203L299.512 571.945Z" fill="#84F0FF"/>
<path d="M204.541 569.567C188.144 581.094 180.23 586.625 166.108 596.653L166.108 597.583C166.729 620.586 167.195 632.371 168.436 655.373C183.954 669.898 192.075 677.6 209.818 693.055C210.084 693.232 210.327 693.44 210.542 693.676C226.784 685.147 235.629 680.443 254.044 670.415C254.199 670.396 254.355 670.396 254.51 670.415L254.82 670.415C253.372 644.57 252.854 631.389 252.13 605.337L252.13 604.406C251.807 604.225 251.511 603.999 251.251 603.734C231.905 589.52 222.542 582.386 205.421 569.257L204.541 569.567ZM169.936 654.443C168.746 632.112 168.281 620.947 167.66 598.307C181.575 588.486 189.127 583.213 205.421 571.842C222.025 584.661 230.922 591.432 249.906 605.44C250.578 630.82 251.147 643.433 252.44 668.296C234.44 678.169 226.06 682.717 210.283 690.988C192.955 675.894 184.833 668.554 169.936 654.443V654.443Z" fill="#84F0FF"/>
<path d="M214.576 751.828C199.058 758.599 191.455 761.7 177.902 766.869L177.902 768.627C179.544 786.062 182.536 803.344 186.851 820.317L186.851 820.783C204.748 837.53 214.576 846.162 234.284 862.807L235.267 863.634C250.009 859.86 257.975 857.534 274.58 852.262C274.848 852.208 275.108 852.121 275.355 852.003L275.355 851.538C270.746 833.094 267.291 814.38 265.01 795.506L265.01 793.697C264.732 793.515 264.472 793.308 264.234 793.077C244.112 776.742 234.129 768.265 216.439 752.293L215.404 751.362L214.576 751.828ZM263.148 795.247C265.414 813.8 268.869 832.188 273.493 850.298C257.148 855.467 249.492 857.689 235.267 861.463C215.611 844.974 206.248 836.755 188.713 820.472C184.409 803.499 181.434 786.217 179.816 768.782C193.058 763.613 200.248 760.822 215.559 754.205C233.405 770.229 242.923 778.396 263.044 794.782L263.148 795.247Z" fill="#84F0FF"/>
<path d="M263.872 282.841L263.355 283.306L259.682 286.304L253.216 291.473L247.371 296.332C236.612 305.326 228.284 312.718 215.87 323.883C215.507 324.142 215.197 324.452 214.835 324.762L214.835 326.158C212.559 348.746 211.525 360.79 209.662 384.206L209.662 385.033C225.905 393.459 234.75 398.162 253.216 408.19L253.785 408.5C254.17 408.236 254.533 407.942 254.872 407.622C274.217 392.735 284.977 384.619 306.598 368.957C306.96 368.957 307.271 368.44 307.633 368.234L307.633 366.993C309.34 341.613 310.426 328.38 312.806 304.189L312.806 302.328C312.546 302.16 312.268 302.021 311.978 301.915C292.425 293.438 282.701 289.406 265.424 282.531C265.114 282.531 264.751 282.273 264.389 282.117L263.872 282.841ZM223.422 319.696L228.284 315.406L234.595 309.824L239.767 305.585C243.543 302.38 247.371 299.175 251.561 295.712L264.493 285.116C281.873 292.094 291.132 295.971 310.633 304.499C308.202 329.156 307.167 341.716 305.46 367.355C283.839 382.862 273.597 390.771 254.199 405.864C236.198 396.095 227.767 391.598 211.938 383.431C213.594 360.067 214.628 348.54 217.111 325.796L223.422 319.696Z" fill="#84F0FF"/>
<path d="M209.714 384.309C192.231 399.558 183.851 407.363 168.643 421.785L168.643 422.767C167.35 445.252 166.833 456.882 166.212 479.626L166.212 480.298C180.334 490.274 188.248 495.805 204.593 507.177C204.593 507.177 205.111 507.591 205.473 507.797C222.594 494.565 231.957 487.483 251.355 473.165L252.234 472.545L252.234 471.873C252.958 446.027 253.475 432.743 254.872 407.466L254.872 406.588C254.612 406.419 254.335 406.281 254.044 406.174C235.733 396.146 226.888 391.494 210.646 383.069L209.714 384.309ZM252.596 408.759C251.251 433.673 250.682 446.234 249.958 471.562C231.026 485.622 222.077 492.239 205.421 505.316C189.179 494.048 181.627 488.775 167.764 479.058C168.385 456.469 168.85 445.2 170.092 422.973C184.989 408.759 193.11 401.419 210.49 386.273C226.215 394.234 234.595 398.989 252.596 408.759V408.759Z" fill="#84F0FF"/>
<path d="M633.77 1057.16C611.373 1065.33 600.2 1069.26 579.664 1076.13C579.342 1076.2 579.029 1076.3 578.733 1076.44L578.733 1076.86C580.802 1093.14 581.992 1100.84 584.216 1114.54L584.216 1115.06C584.527 1115.06 584.837 1115.06 585.199 1115.42C606.51 1123.33 617.321 1127 637.65 1133.46C637.855 1133.49 638.066 1133.49 638.271 1133.46L639.409 1133.1C658.651 1127.36 669.255 1124.05 689.946 1117.02L690.825 1116.71L690.825 1115.99C691.549 1102.55 691.86 1094.84 692.584 1078.92L692.584 1078.25C692.274 1078.25 691.911 1078.25 691.653 1077.94C670.134 1070.29 658.341 1066.05 635.684 1057.27L634.339 1056.8C634.339 1056.8 634.184 1057.06 633.77 1057.16ZM688.549 1116.19C667.858 1123.27 657.513 1126.53 638.271 1132.27C618.149 1125.76 607.752 1121.93 586.544 1114.38C584.475 1100.79 583.44 1093.4 581.371 1077.53C602.062 1070.7 612.407 1067.19 634.546 1058.87C657.358 1067.81 668.634 1071.95 690.101 1079.54C689.48 1095.41 689.222 1102.75 688.549 1116.19Z" fill="#84F0FF"/>
<path d="M629.012 898.989C602.683 910.568 589.545 916.151 564.612 926.437L564.612 926.954C566.268 950.008 567.147 961.328 569.009 982.107L569.009 982.883L571.078 983.917C595.338 995.133 608.166 1000.82 632.219 1010.95C632.219 1010.95 632.737 1010.95 632.995 1011.26C633.473 1011.1 633.939 1010.91 634.392 1010.69C657.669 1001.49 670.601 996.322 695.119 985.674C695.429 985.674 695.792 985.364 696.154 985.209L696.154 984.227L697.55 929.59L697.55 928.763L696.412 928.298C671.221 917.443 657.514 911.395 631.392 899.248C630.874 899.248 630.409 898.731 629.84 898.524C629.542 898.636 629.263 898.793 629.012 898.989V898.989ZM693.257 984.123C668.531 994.461 656.272 999.63 632.84 1008.99C608.735 998.648 596.631 993.479 571.647 981.901C569.94 961.225 569.112 950.525 567.561 927.988C591.717 918.011 604.235 912.481 629.633 901.419C655.807 913.618 668.945 919.355 694.188 930.21C693.878 952.489 693.567 963.602 693.102 984.123L693.257 984.123Z" fill="#84F0FF"/>
<path d="M568.75 982.159C568.532 982.274 568.307 982.378 568.078 982.469C567.25 982.779 566.474 983.038 565.699 983.4L561.56 985.002C557.112 986.708 553.181 988.259 549.353 989.758C547.439 990.43 545.525 991.153 543.663 991.877C543.405 991.935 543.159 992.04 542.939 992.187C540.094 993.273 537.249 994.306 534.456 995.34C533.938 995.34 533.473 995.702 533.007 995.909C531.093 996.581 529.128 997.304 527.162 998.08C522.714 999.682 518.11 1001.39 512.782 1003.25L512.368 1003.25L512.627 1005.01C515.472 1023.98 517.075 1033.59 520.282 1050.65L520.282 1051.37C520.955 1051.68 521.576 1051.99 522.248 1052.25C544.853 1062.59 556.853 1067.76 578.889 1076.6C579.303 1076.6 579.768 1077.01 580.234 1077.17L580.855 1077.17C601.545 1070.24 612.666 1066.31 634.909 1058.2C635.245 1058.05 635.591 1057.93 635.944 1057.83L635.944 1057.32C635.271 1039.95 634.857 1030.39 634.288 1010.8L634.288 1010.07L633.099 1009.61C608.89 999.269 596.01 993.738 571.026 982.107C570.789 981.946 570.527 981.824 570.25 981.746L568.75 982.159ZM552.663 990.947L556.698 989.396C560.836 987.742 565.285 986.036 570.302 984.227C594.976 995.65 607.235 1001.03 631.288 1011.21C632.012 1030.54 632.323 1039.74 633.047 1056.85C610.96 1065.02 600.304 1068.69 579.82 1075.62C557.319 1066.41 545.784 1061.45 522.558 1050.91C519.351 1033.64 517.903 1024.44 514.955 1005.01C530.059 999.527 539.99 995.805 552.663 990.947V990.947Z" fill="#84F0FF"/>
<path d="M626.167 693.262C597.769 707.839 583.389 715.127 556.387 728.515L555.715 728.876L555.198 728.876C555.973 757.771 556.439 772.348 557.422 799.227L557.422 801.398C557.784 801.398 558.146 801.76 558.456 801.915C585.458 816.595 599.838 824.555 626.632 837.53C626.865 837.651 627.107 837.755 627.356 837.84C627.626 838.036 627.922 838.192 628.236 838.305C628.701 838.305 629.27 837.788 629.788 837.581L630.512 837.271C656.375 825.331 671.014 817.887 698.119 804.034C698.291 804.026 698.464 804.026 698.636 804.034C698.636 804.034 699.102 803.724 699.36 803.621L699.36 801.088C699.671 774.261 699.826 759.736 700.033 730.531C700.033 730.531 699.308 730.117 698.946 729.962C671.117 715.902 656.22 708.304 627.874 693.365L626.736 692.797L626.167 693.262ZM696.981 732.443L696.257 802.018L679.911 810.237L674.738 812.718L665.634 817.319C656.841 821.609 648.513 825.692 638.478 830.5C638.167 830.5 637.857 830.862 637.495 831.017L633.098 833.032C631.598 833.808 630.098 834.532 628.494 835.307L628.029 835.307C601.027 821.609 587.423 814.631 560.422 799.899L560.422 799.33C559.439 772.658 558.974 758.753 558.249 730.634C585.044 717.298 598.803 710.32 626.684 696.053C654.875 711.147 669.255 718.435 696.981 732.443Z" fill="#84F0FF"/>
<path d="M625.598 459.518C596.889 475.025 582.044 482.934 554.111 498.234L552.87 498.906L552.87 499.733C552.87 530.282 552.87 546.254 552.87 576.803L552.87 577.837C553.335 577.837 553.749 578.354 554.215 578.561C582.147 594.068 596.889 601.822 625.598 617.122C625.598 617.122 626.219 617.432 626.529 617.639L628.184 616.76C656.323 601.977 671.428 594.068 699.877 578.819C700.291 578.819 700.705 578.406 701.119 578.147L701.119 498.544C700.705 498.544 700.291 498.131 699.877 497.872C671.428 482.727 656.323 474.767 628.184 459.983C627.667 459.725 627.098 459.363 626.529 459.105C626.229 459.266 625.918 459.404 625.598 459.518ZM697.705 576.39C669.203 591.587 654.772 599.185 626.477 614.072C598.027 598.979 583.906 591.277 556.129 576.08C556.129 545.996 556.129 530.696 556.129 500.664C583.906 485.467 598.131 477.816 626.477 462.671C654.772 477.558 669.203 485.156 697.705 500.353L697.705 576.39Z" fill="#84F0FF"/>
<path d="M552.818 576.804C525.455 591.536 511.178 599.186 484.901 613.245C484.522 613.5 484.125 613.724 483.711 613.917L483.711 615.365C484.125 645.087 484.539 660.284 485.573 689.644C485.957 689.811 486.321 690.019 486.66 690.264C513.506 705.771 528.041 713.628 555.508 728.773C555.818 728.773 556.232 729.135 556.594 729.342L557.267 729.032C584.475 715.437 598.907 708.356 627.098 693.727L627.822 693.366C627.822 693.366 628.184 693.366 628.339 693.366C628.339 663.127 628.029 647.568 627.926 616.916L627.926 615.83L626.684 615.21C598.079 599.961 583.285 591.897 555.146 576.545L554.267 576.08L552.818 576.804ZM624.77 617.432C624.77 647.413 624.77 662.248 625.236 691.453C597.303 705.72 583.544 712.749 556.698 726.086C529.179 711.095 515.316 703.445 488.677 688.093C487.746 659.56 487.384 645.035 486.918 615.727C513.299 601.615 526.903 594.327 554.473 579.543C582.458 594.689 596.372 602.339 624.77 617.432Z" fill="#84F0FF"/>
<path d="M557.422 799.486C557.171 799.586 556.928 799.707 556.698 799.848C531.197 811.943 517.955 818.043 493.643 828.846L493.022 829.105L493.022 831.586C494.781 857.069 496.022 869.216 498.195 893.097L499.643 893.873C525.145 907.57 538.645 914.549 564.095 926.903C564.612 927.161 565.181 927.42 565.647 927.678C565.879 927.569 566.122 927.482 566.371 927.42V927.42C590.786 917.081 603.821 911.912 629.736 900.282C630.098 900.282 630.46 899.92 630.926 899.765L630.926 899.197C630.409 875.574 630.15 863.013 629.736 837.84L629.736 835.876C629.367 835.682 628.987 835.51 628.598 835.359C601.597 822.333 587.217 814.218 560.422 799.641C560.153 799.524 559.894 799.385 559.646 799.228C559.338 799.104 559.043 798.948 558.767 798.762C558.457 798.969 557.888 799.279 557.422 799.486ZM559.077 801.967C586.079 816.595 599.683 824.194 626.736 837.272L626.736 837.788C627.15 862.652 627.46 874.902 627.977 898.318C602.114 909.638 589.7 914.962 565.543 925.042C539.68 912.378 526.851 905.761 501.04 891.908C498.764 868.441 497.574 856.862 495.867 831.12C520.127 820.265 532.8 814.424 558.508 802.226L559.077 801.967Z" fill="#84F0FF"/>
<path d="M627.667 240.196C627.399 240.296 627.14 240.417 626.891 240.558C606.2 250.482 593.475 257.254 576.612 266.403L568.75 270.745L567.508 271.365L559.18 275.914C558.677 276.132 558.192 276.391 557.732 276.689C557.732 276.689 557.732 276.689 557.732 276.689L557.732 278.292C556.698 305.171 556.232 319.644 555.456 348.125L555.456 349.107L557.784 350.296C584.061 363.322 598.441 370.662 626.27 384.877C626.573 385.013 626.867 385.168 627.149 385.342C627.691 384.999 628.262 384.705 628.856 384.464C656.789 369.732 671.686 362.133 699.36 348.28C699.722 348.28 700.188 347.919 700.55 347.712L700.55 346.265C700.291 317.99 700.188 303.31 699.877 276.689L699.877 274.673C699.426 274.492 698.993 274.266 698.584 274.001C671.272 260.097 656.789 252.705 630.356 240.609L628.805 239.886C628.236 239.938 627.925 240.041 627.667 240.196ZM573.716 271.21L582.354 266.506C582.555 266.425 582.746 266.321 582.923 266.196L586.854 264.077C587.369 263.849 587.87 263.59 588.354 263.302C590.423 262.216 592.544 261.131 594.562 259.993C596.579 258.856 599.734 257.357 602.269 255.961C606.459 253.842 610.752 251.619 615.407 249.293C618.045 248.053 620.58 246.657 623.58 245.262L628.753 242.884C655.341 255.031 669.203 262.319 696.619 276.224C696.929 303.413 697.032 317.576 697.239 345.903C669.514 359.962 655.289 367.199 627.201 382.086C599.269 367.768 585.509 360.841 558.767 347.505C559.491 319.23 559.956 305.326 560.939 278.343C565.388 275.655 569.681 273.329 573.716 271.107L573.716 271.21Z" fill="#84F0FF"/>
<path d="M555.249 348.126C554.976 348.233 554.715 348.372 554.473 348.539C551.784 350.038 549.301 351.382 546.766 352.778C546.094 353.088 545.421 353.502 544.749 353.863C542.266 355.207 539.887 356.5 537.611 357.792C530.058 361.927 523.386 365.701 516.506 369.577C513.92 371.025 511.333 372.524 508.643 374.023C503.471 376.969 497.729 380.174 491.418 383.792C489.815 384.671 488.211 385.601 486.246 386.583L485.573 386.997L485.573 389.53C484.642 417.287 484.28 432.381 483.711 461.431L483.711 462.62L485.987 463.86C511.54 477.507 525.765 485.105 552.818 499.682L554.422 500.561L555.301 500.044C583.44 484.537 598.234 476.628 626.788 461.483L628.081 460.759L628.081 459.932C628.081 429.486 628.081 413.979 628.546 384.412L628.546 383.327L627.253 382.707C599.165 368.337 584.734 361.048 557.681 347.609C557.423 347.424 557.145 347.268 556.853 347.144C556.594 347.454 555.818 347.712 555.249 348.126ZM498.35 383.224C510.299 376.4 519.868 370.973 530.317 365.184C531.61 364.46 532.955 363.685 534.352 362.961L538.438 360.738L547.18 355.931C548.732 355.052 550.284 354.174 551.939 353.346C553.594 352.519 555.146 351.486 556.853 350.555C583.596 363.891 597.355 370.818 625.184 385.084C624.925 414.238 624.874 429.021 624.77 459.002C596.424 474.095 582.251 481.797 554.473 496.994C526.851 482.159 513.092 474.871 486.918 460.811C487.384 431.502 487.798 416.977 488.729 388.444C492.143 386.687 495.298 384.929 498.298 383.224L498.35 383.224Z" fill="#84F0FF"/>
<path d="M693.722 984.589C669.203 994.927 656.427 1000.41 632.995 1009.56C632.684 1009.56 632.322 1009.81 631.96 1009.97L631.96 1011C632.633 1030.39 632.995 1040 633.719 1057.16L633.719 1057.83C634.071 1057.95 634.416 1058.09 634.753 1058.25C657.513 1067.14 669.359 1071.48 690.722 1078.92L691.963 1079.34C691.963 1079.34 692.481 1079.34 692.687 1079.34C714.982 1070.91 726.931 1066.26 750.156 1056.44C750.518 1056.44 750.828 1056.18 751.242 1055.97L751.242 1055.56C753.208 1038.14 754.191 1028.53 756.053 1009.04L756.053 1008.31C755.682 1008.2 755.32 1008.06 754.967 1007.9C732.414 999.372 720.206 994.565 695.843 984.64C695.592 984.519 695.332 984.416 695.067 984.33L693.722 984.589ZM753.156 1009.35C751.397 1028.73 750.466 1037.88 748.604 1055.04C725.482 1064.76 714.102 1069.31 691.705 1077.68C670.186 1070.08 658.91 1065.95 636.047 1057.01C635.426 1039.9 635.064 1030.75 634.443 1011.36C657.927 1002.11 670.135 997.098 694.757 986.501C719.172 996.167 730.862 1000.72 753.156 1009.35Z" fill="#84F0FF"/>
<path d="M771.002 615.158L771.002 616.502C771.277 616.703 771.572 616.876 771.881 617.019C772.45 616.709 772.967 616.399 773.536 616.14L773.536 615.055C773.123 615.055 772.709 614.589 772.295 614.383L771.002 615.158ZM698.584 577.062C670.341 592.207 655.185 600.116 626.994 615.055C626.529 615.055 626.115 615.468 625.649 615.675L625.649 617.122C625.649 647.568 625.649 663.127 626.115 693.159C626.477 693.159 626.891 693.572 627.253 693.727C655.496 708.614 670.393 716.213 698.274 730.376L699.36 730.893C699.628 730.792 699.887 730.671 700.136 730.531C717.775 721.33 730.086 715.024 743.535 707.632C751.759 703.135 760.45 698.483 771.054 692.59L771.829 692.228C771.44 692.06 771.06 691.87 770.691 691.66L770.019 692.073C759.674 697.656 751.449 702.411 743.483 706.443L743.483 704.272C729.672 711.716 717.62 718.125 699.515 727.481C671.738 713.421 657.513 706.133 629.374 691.298C629.374 662.145 629.063 647.309 628.96 617.277C657.306 602.39 671.738 594.844 700.239 579.595L740.845 601.202L740.845 597.532C728.844 591.225 717.206 585.023 701.171 576.545C700.904 576.332 700.608 576.158 700.291 576.028C699.709 576.408 699.104 576.754 698.481 577.062L698.584 577.062Z" fill="#84F0FF"/>
<path d="M697.084 801.656L696.412 802.018L680.066 810.392L674.893 812.873L665.79 817.474C657.048 821.867 648.668 826.002 638.633 830.655C638.323 830.655 638.012 831.016 637.65 831.171L633.253 833.187L628.546 835.358L627.977 835.358C627.752 835.42 627.541 835.525 627.356 835.668L627.356 837.943C627.77 862.547 628.029 875.315 628.598 898.731L628.598 899.609C629.012 899.609 629.374 899.971 629.788 900.126C656.013 912.325 669.669 918.373 694.808 929.125L696.308 929.797C696.568 929.628 696.845 929.49 697.136 929.383C721.189 918.528 734.741 912.119 757.501 900.85C759.312 899.92 761.174 898.989 763.191 898.059C763.553 897.822 763.934 897.614 764.329 897.439L764.329 896.87C763.812 896.87 763.346 896.508 762.829 896.301C762.312 896.095 762.26 896.301 762.001 896.715C760.346 897.49 758.794 898.317 757.242 899.093L757.242 898.265C733.81 909.896 721.034 916.047 696.412 927.109C671.117 916.202 657.979 910.413 631.753 898.214C631.236 874.695 631.029 862.496 630.564 837.374C657.099 825.279 670.962 818.094 697.808 804.292L698.274 804.034C719.947 814.372 732.776 820.937 750.259 829L750.001 826.106L750.001 825.537C733.5 817.835 720.465 811.529 699.774 801.449C699.549 801.298 699.306 801.177 699.05 801.088C698.739 801.088 698.481 800.829 698.222 800.674C697.964 800.519 697.653 801.346 697.084 801.656ZM766.346 833.601L765.622 833.963L765.622 836.34L766.45 836.702C767.019 836.444 767.484 836.185 768.053 835.875L768.053 833.859C767.694 833.719 767.347 833.546 767.019 833.342C767.019 833.342 767.019 833.342 767.019 833.342L766.346 833.601Z" fill="#84F0FF"/>
<path d="M769.813 384.567L769.813 385.963L770.64 386.428C771.209 386.17 771.726 385.859 772.244 385.601L772.244 384.619L771.002 383.947C770.587 384.115 770.188 384.322 769.813 384.567V384.567ZM697.757 346.523C670.238 360.376 655.393 368.026 627.305 382.706C626.891 382.965 626.426 383.172 626.012 383.378L626.012 384.826C626.012 413.927 625.702 429.486 625.598 459.466L625.598 460.81C626.064 460.81 626.426 461.276 626.84 461.482C655.082 476.318 670.238 484.226 698.481 499.32C699.066 499.581 699.636 499.875 700.188 500.198L701.068 499.733L740.845 478.644L740.845 475.025L700.085 496.632C671.635 481.435 657.203 473.836 628.909 459.001C628.909 429.021 628.909 414.186 629.322 385.084C657.41 370.301 671.635 363.064 699.361 348.901C717.568 358.36 729.776 364.873 743.794 372.317L743.794 371.645L743.794 369.008C730.19 361.72 717.931 355.207 700.137 346.006C699.878 346.006 699.619 345.696 699.257 345.541L697.757 346.523Z" fill="#84F0FF"/>
<path d="M512.575 74.7873C488.419 86.521 475.642 93.034 452.003 105.801C451.227 106.267 450.399 106.68 449.572 107.145L449.572 107.559L448.899 111.332C448.537 113.762 448.072 116.036 447.71 118.207C447.244 120.378 446.934 122.497 446.52 124.513L446.52 124.927L445.382 130.613L444.865 133.662C444.606 135.73 444.296 137.746 443.882 139.865L443.416 143.07L442.899 146.378C442.33 149.738 441.864 153.305 441.244 157.285L440.623 161.369L440.623 162.816L440.623 163.591L441.089 163.591C463.072 172.172 474.918 176.927 498.712 186.697L499.488 187.059C499.989 186.752 500.507 186.476 501.04 186.232L501.712 185.818C502.643 185.301 503.523 184.888 504.402 184.371C524.265 173.671 536.576 167.365 554.37 158.526L560.06 155.683C562.026 154.701 564.043 153.718 566.164 152.736C566.354 152.602 566.564 152.498 566.785 152.426L566.785 150.462C568.388 128.183 569.268 116.915 571.026 96.0319L570.768 96.0319L569.112 95.3599C546.818 86.676 535.231 82.2823 514.437 74.6838C514.016 74.5693 513.602 74.4313 513.196 74.2703C513.196 74.2703 512.73 74.6839 512.575 74.7873ZM554.629 155.941C553.129 156.716 551.629 157.44 550.18 158.164L543.87 161.317C539.68 163.384 535.645 165.452 531.611 167.52L524.317 171.293C521.834 172.585 519.144 173.878 516.713 175.273C514.282 176.669 511.541 178.116 508.54 179.615L508.178 179.615C505.333 181.114 502.488 182.665 499.385 184.371C476.056 174.705 464.831 170.259 443.261 161.885L444.451 153.925L445.485 146.792L445.485 146.533L446.416 140.279L446.416 139.762L447.348 134.179L448.33 128.08L450.865 113.503L451.848 107.921C476.159 94.7396 488.367 88.4851 512.575 76.9064C533.835 84.6083 544.956 88.7435 567.923 97.5826C566.112 118.259 565.285 128.855 563.629 151.392C562.75 151.806 561.819 152.271 560.94 152.633C558.871 153.925 556.595 154.959 554.629 155.941Z" fill="#84F0FF"/>
<path d="M440.416 162.919C416.259 176.72 403.638 184.939 380.827 200.24L378.551 201.79L378.551 202.255L377.257 210.371L375.343 221.743L373.688 232.339L372.395 241.54C371.826 245.675 371.205 250.069 370.636 255.031L370.171 259.528L369.912 261.751L369.602 264.232L370.016 264.232C391.482 273.226 402.914 278.24 426.139 288.785C426.623 288.948 427.091 289.156 427.536 289.405C428.013 289.075 428.514 288.781 429.036 288.527V288.527L433.691 285.684C435.916 284.288 438.036 282.996 440.105 281.755C442.174 280.515 444.14 279.274 446.157 278.137L450.037 275.811C455.21 272.813 459.865 269.97 464.727 267.024C467.365 265.525 469.9 263.922 472.693 262.423C475.487 260.924 477.556 259.528 480.142 258.029L493.694 250.276C494.108 250.035 494.574 249.776 495.091 249.5L495.091 247.95C496.901 222.105 498.143 210.009 500.264 186.49L500.264 185.663L498.246 184.836C475.487 175.48 463.745 170.724 442.64 162.506L441.399 162.04C441.054 162.314 440.726 162.607 440.416 162.919ZM483.039 253.532C481.59 254.411 480.142 255.186 478.797 256.013C476.004 257.616 473.366 259.115 470.831 260.614C467.003 262.837 463.383 265.008 459.71 267.127C457.175 268.678 454.537 270.177 452.003 271.727L436.485 280.98L428.519 286.149L427.536 286.769C404.31 276.431 393.344 271.262 372.188 262.578L372.188 261.596L372.55 258.133L373.481 249.914C374.568 241.695 375.55 234.769 376.585 227.739L377.154 224.224C378.137 217.711 379.326 210.991 380.568 202.927C404.31 187.007 416.466 179.15 441.243 164.987C462.865 173.361 474.038 177.909 497.471 187.575C495.091 211.043 493.901 222.57 492.039 248.415C489.039 250.069 485.987 251.878 483.039 253.532Z" fill="#84F0FF"/>
<path d="M400.431 90.8628C378.085 106.111 366.291 114.33 344.204 130.354C343.927 130.636 343.614 130.879 343.273 131.078L343.273 131.388C338.1 152.064 335.307 163.023 330.548 185.043L330.548 185.766C330.824 185.784 331.1 185.784 331.376 185.766C349.118 191.246 358.946 194.502 378.809 201.584C379.171 201.584 379.533 201.894 379.947 201.997C380.397 201.663 380.863 201.353 381.344 201.067C404.517 185.56 417.139 177.341 441.037 163.643L443.416 162.299L443.416 161.885L444.606 153.925L445.64 146.792L445.64 146.533L446.571 140.279L446.571 139.762L447.502 134.179L448.485 128.08L451.02 113.503L452.003 107.921L452.003 106.99L452.261 105.853L451.847 105.853C435.787 99.6719 419.358 94.4929 402.655 90.3459C402.345 90.3459 401.931 90.3459 401.621 90.0875L400.431 90.8628ZM448.796 111.539C448.434 113.968 447.968 116.243 447.606 118.414C447.14 120.585 446.83 122.704 446.416 124.72L446.416 125.134L445.382 130.613L444.864 133.662C444.606 135.73 444.295 137.746 443.882 139.865L443.416 143.07L442.899 146.378C442.33 149.738 441.864 153.305 441.243 157.285L440.623 161.369C415.846 175.532 403.793 183.44 380.102 199.309C360.188 192.279 350.773 188.971 332.979 183.802C337.635 162.247 340.118 151.754 345.29 131.543C367.429 115.571 378.654 107.662 401.207 92.2584C417.604 96.4077 433.723 101.587 449.468 107.766L448.796 111.539Z" fill="#84F0FF"/>
<path d="M330.496 185.043C308.15 201.015 296.667 209.596 275.459 225.826C275.116 226.046 274.788 226.288 274.476 226.55L274.476 227.584C269.881 245.77 266.426 264.225 264.131 282.841L264.131 284.65C264.131 284.65 264.7 284.65 264.907 284.96C282.338 291.835 292.011 295.867 311.461 304.447L312.599 304.912L313.323 304.447C313.519 304.262 313.726 304.09 313.944 303.93C330.444 291.835 341.359 284.081 356.049 274.105C358.532 272.399 361.222 270.59 363.963 268.936C366.705 267.282 368.153 266.145 370.378 264.646L371.36 263.974C371.878 263.715 372.291 263.353 372.809 263.043L372.809 262.526L372.809 261.544L373.171 258.081L374.102 249.862C375.188 241.644 376.171 234.717 377.206 227.687L377.774 224.172C378.757 217.659 379.947 210.939 381.188 202.876L381.188 201.48C381.159 201.205 381.159 200.928 381.188 200.653C381.052 200.681 380.911 200.681 380.775 200.653C360.084 193.416 350.463 190.315 332.307 184.629L331.738 184.629L330.496 185.043ZM377.05 210.423L375.136 221.794C374.516 225.361 373.998 228.824 373.481 232.391L372.188 241.592C371.619 245.727 370.998 250.121 370.429 255.083L369.964 259.58L369.705 261.803C362.205 266.972 355.997 271.004 350.256 274.932L343.686 279.429L336.755 284.288L330.6 288.733C325.841 292.093 320.875 295.66 315.082 299.847L312.133 301.966C292.684 293.437 283.373 289.612 265.889 282.634C268.096 263.919 271.552 245.373 276.235 227.119C297.494 210.888 308.512 202.721 331.013 186.593C348.756 192.021 358.222 195.174 378.137 202.1L377.05 210.423Z" fill="#84F0FF"/>
<path d="M302.46 122.084C280.942 138.78 270.131 147.464 249.699 164.729C243.595 184.371 240.646 194.709 235.163 215.282L235.163 216.005C249.905 219.727 257.768 222.001 274.579 227.326L275.096 227.326L276.338 226.343C297.494 210.216 309.029 201.739 331.427 185.56C331.789 185.56 332.099 185.043 332.461 184.836L332.461 183.802C337.22 162.041 339.807 151.134 344.979 130.716L344.979 130.148C344.979 130.148 344.462 130.148 344.152 130.148C327.289 126.013 318.961 124.255 303.96 121.515L303.081 121.515L302.46 122.084ZM342.393 132.422C337.22 152.581 334.737 163.023 330.03 184.578C307.633 200.757 296.563 208.924 275.355 225.155C259.009 219.986 251.406 217.866 237.129 214.248C242.302 194.089 245.354 184.216 251.25 164.987C271.062 148.394 281.407 140.072 302.408 123.635C317.564 126.633 325.53 128.287 342.393 132.474L342.393 132.422Z" fill="#84F0FF"/>
<path d="M235.112 215.436C215.352 231.977 205.524 240.609 187.627 257.357L187.627 258.184C183.264 275.154 180.22 292.436 178.523 309.875L178.523 311.219C192.075 316.388 199.576 319.437 215.197 326.209L216.025 326.519L217.059 325.588L223.887 319.489L228.749 315.199L235.06 309.616L240.233 305.377C244.009 302.173 247.837 298.968 252.027 295.505L264.958 284.908L265.889 284.133L265.889 282.737C268.16 263.862 271.616 245.147 276.235 226.705L276.235 225.981C276.235 225.981 275.769 225.981 275.51 225.981C258.906 220.812 250.888 218.383 236.198 214.713L235.112 215.436ZM259.682 286.355L253.216 291.524L247.371 296.383C236.612 305.378 228.284 312.769 215.869 323.934C200.351 317.318 193.161 314.372 179.661 309.306C181.326 291.867 184.353 274.584 188.713 257.616C206.248 241.333 215.714 233.114 235.267 216.625C249.544 220.295 257.096 222.466 273.441 227.635C268.758 245.837 265.302 264.332 263.096 282.996V282.996L259.682 286.355Z" fill="#84F0FF"/>
<path d="M632.012 67.6542C607.441 77.9923 594.561 83.6781 569.06 95.5152C567.198 116.553 566.267 127.77 564.612 150.772L564.612 151.548C565.284 151.858 566.008 152.116 566.681 152.426C590.32 162.196 603.458 167.933 629.063 179.099C629.347 179.178 629.624 179.282 629.891 179.409L631.494 178.737C657.358 166.589 671.272 160.542 696.412 149.738L697.55 149.273L697.55 148.136C697.032 125.444 696.774 114.279 696.153 93.5509L696.153 92.9824L695.015 92.4655C670.496 81.869 657.668 76.6999 634.494 67.5507C634.042 67.3302 633.576 67.1404 633.098 66.9822L632.012 67.6542ZM694.084 148.239C668.841 159.094 655.754 164.832 629.529 176.979C603.924 165.711 591.458 160.438 567.457 150.462C569.008 127.977 569.836 117.174 571.543 96.7041C596.32 85.2289 608.579 79.8013 632.684 69.67C656.168 78.9226 668.324 83.885 692.998 94.4815L694.084 148.239Z" fill="#84F0FF"/>
<path d="M564.457 151.289C564.244 151.429 564.019 151.55 563.784 151.651C562.905 152.064 561.974 152.53 561.095 152.891C558.87 154.08 556.749 155.114 554.629 156.096C552.508 157.078 551.628 157.595 550.18 158.319L543.869 161.472C539.68 163.54 535.645 165.607 531.61 167.675L524.317 171.448C521.834 172.74 519.144 174.033 516.713 175.428C514.282 176.824 511.54 178.271 508.54 179.77L508.178 179.77C505.333 181.269 502.488 182.82 499.384 184.526C499.163 184.598 498.954 184.702 498.764 184.836V184.836L498.764 186.852C496.488 209.803 495.195 221.95 493.591 247.691L493.591 248.57C494.264 248.88 494.988 249.139 495.66 249.501C519.351 259.839 532.593 266.093 558.146 278.189C558.663 278.447 559.181 278.757 559.698 278.964C559.962 278.79 560.239 278.634 560.526 278.499L561.301 278.085C566.009 275.553 570.302 273.227 574.337 271.004L582.975 266.3C583.176 266.219 583.367 266.115 583.544 265.99L587.475 263.871C587.99 263.643 588.491 263.384 588.975 263.095C591.044 262.01 593.165 260.924 595.183 259.787C597.2 258.65 600.355 257.151 602.89 255.755C607.08 253.636 611.373 251.413 616.028 249.087C618.667 247.847 621.201 246.451 624.201 245.055L629.374 242.678L629.736 242.678L630.977 242.109L630.977 240.558C631.391 215.488 631.598 202.669 632.167 179.15L632.167 178.22L631.029 177.754C605.166 166.383 592.027 160.8 567.612 150.772C567.612 150.772 567.147 150.772 566.888 150.41C566.105 150.775 565.292 151.069 564.457 151.289V151.289ZM576.613 266.507L568.75 270.849L567.509 271.469L559.181 276.018C533.317 263.716 520.489 257.564 496.126 247.019C498.04 221.898 499.178 209.699 501.298 186.232C502.229 185.715 503.16 185.301 503.988 184.836C523.851 174.136 536.162 167.83 553.956 158.991L559.646 156.148C561.612 155.166 563.629 154.184 565.75 153.202C589.906 163.178 602.373 168.45 627.822 179.77L626.581 240.662C606.304 250.483 593.475 257.254 576.613 266.352L576.613 266.507Z" fill="#84F0FF"/>
<path d="M695.015 148.807C669.98 159.507 656.272 165.555 630.15 177.702C629.722 177.859 629.306 178.049 628.908 178.271L628.908 179.46C628.443 202.669 628.133 215.643 627.719 240.196L627.719 242.057L628.96 242.625C655.6 254.773 669.98 262.268 697.188 276.224L698.791 277L699.722 276.586C699.722 276.586 700.24 276.276 700.447 276.172C705.619 273.691 710.12 271.52 714.361 269.401C727.914 262.733 738.569 257.616 751.346 251.671L751.604 248.466L748.242 250.017C746.69 250.672 745.139 251.395 743.587 252.188C742.345 252.757 741.052 253.325 739.811 253.946C735.983 255.703 732.259 257.46 728.483 259.115C724.707 260.769 720.982 262.785 716.948 264.697C715.292 265.473 713.637 266.3 711.775 267.23C710.792 267.695 709.758 268.212 708.723 268.677C706.602 269.763 704.43 270.797 702.205 271.882C701.067 272.451 699.929 273.019 698.74 273.536C671.376 259.58 657.358 252.498 630.926 240.299C631.288 215.126 631.495 202.876 632.012 179.408C658.238 167.209 671.376 161.42 696.619 150.565C721.241 161.782 734.328 167.881 758.329 179.822L758.329 179.253C759.57 179.925 760.864 180.597 762.208 181.217C762.467 181.217 762.777 181.476 763.036 181.631L764.484 181.011L764.484 180.132L763.295 179.563L758.639 177.237C735.259 165.658 721.758 159.352 697.343 148.291C697.095 148.149 696.835 148.028 696.567 147.929L695.015 148.807Z" fill="#84F0FF"/>
<path d="M537.972 -48.9078L537.352 -48.6492L526.541 -44.5141C522.299 -42.9117 518.42 -41.4127 514.54 -39.862C510.661 -38.3113 508.074 -37.2258 504.66 -35.8301L498.557 -33.2972C494.418 -31.5914 489.918 -29.6789 484.849 -27.5079C484.583 -27.3658 484.306 -27.2447 484.021 -27.146C483.618 -26.9353 483.203 -26.7456 482.78 -26.5775L482.78 -26.319L482.78 -25.7504C482.587 -25.1193 482.363 -24.4983 482.107 -23.8897L481.538 -22.0287L479.78 -16.8597L479.055 -14.5853C477.4 -9.41628 475.952 -4.60915 474.245 1.33524L473.055 5.36708L472.331 8.10667L471.503 11.0013L471.503 11.9834L471.503 12.6039C471.503 12.6039 471.503 12.6039 471.865 12.6039C490.591 18.1864 500.574 21.3395 521.006 28.111C521.006 28.111 521.42 28.111 521.627 28.111C521.834 28.111 522.558 27.6974 523.023 27.5423L523.696 27.1804L532.8 23.0453L537.972 20.7709C544.386 17.9279 550.025 15.6018 555.766 13.0173C560.111 11.2082 564.405 9.29563 569.215 7.38308L576.612 4.33337C577.957 3.81647 579.354 3.24784 580.699 2.67924C580.887 2.70837 581.079 2.70837 581.268 2.67924C581.268 2.67924 581.268 2.67924 581.268 2.67924L581.268 1.28366C583.233 -14.2234 584.32 -21.9253 586.44 -35.4165L586.44 -35.8301C585.871 -35.8301 585.406 -36.1918 584.837 -36.3469C566.319 -41.8261 556.904 -44.4624 539.886 -48.9078C539.576 -48.9078 539.162 -48.9078 538.852 -48.9078C538.56 -48.8693 538.264 -48.8693 537.972 -48.9078V-48.9078ZM546.869 15.0333C544.749 15.9637 542.628 16.8941 540.404 17.8245L521.265 26.4568C501.246 19.8922 491.729 16.8425 473.417 11.4667L474.969 5.7807L476.831 -0.78408C476.802 -1.04169 476.802 -1.30179 476.831 -1.5594L477.452 -3.83379C478.28 -6.83183 479.159 -9.51965 480.038 -12.3109L480.659 -14.4302L480.969 -15.3091C481.28 -16.4979 481.694 -17.5833 482.107 -18.7722L484.487 -26.0088C486.866 -27.0426 489.091 -28.0765 491.211 -28.9552C493.332 -29.834 496.384 -31.2297 499.074 -32.2635L505.178 -34.7963C515.523 -39.1382 524.989 -42.7565 537.972 -47.6671C555.353 -43.0667 564.457 -40.5339 583.44 -34.848C581.268 -21.3051 580.181 -13.9133 578.268 1.90392C565.905 6.91788 556.594 10.7947 546.869 15.0333Z" fill="#84F0FF"/>
<path d="M470.883 12.0866C451.557 20.3883 432.927 30.2237 415.173 41.4984C414.5 41.9637 413.776 42.3771 413.104 42.894C412.431 43.4109 413.104 42.894 413.104 42.894L413.104 43.2559L411.5 48.8384L409.69 55.5065C409.431 56.4369 409.121 57.3674 408.914 58.2978L408.138 61.0374L406.897 65.8446C406.328 67.9639 405.759 70.0832 405.241 72.3058L404.103 76.8546L400.896 89.9323L400.896 90.8109L400.896 91.8448C400.896 91.8448 400.896 91.8448 401.207 91.8448C417.846 95.9777 434.207 101.157 450.192 107.352C450.554 107.352 450.968 107.61 451.382 107.817C451.795 108.024 452.416 107.249 452.83 107.042C477.297 93.7573 490.073 87.1927 514.902 75.2522L514.902 74.9421C517.902 55.0413 519.558 45.3752 522.765 27.9039L522.765 27.2319C522.196 27.2319 521.73 26.8701 521.161 26.6633C501.66 20.2021 491.677 17.2039 473.676 11.8281L472.641 11.518C471.762 11.7247 471.348 11.7248 470.883 12.0866ZM403.638 86.4689C404.207 84.1946 404.672 82.0237 405.241 79.9561L407.466 70.8068L408.707 65.9479L411.552 55.3514L412.328 52.5601L413.569 48.1148L414.449 44.9616L414.914 43.3592C436.846 28.8342 448.847 24.1821 471.814 13.4305C490.228 18.9097 499.746 21.856 519.765 28.4724C516.506 45.6853 514.954 54.9379 511.954 74.2701C487.797 86.1072 475.745 92.3617 451.33 105.284C435.567 99.1074 419.431 93.9281 403.017 89.7772L403.638 86.4689Z" fill="#84F0FF"/>
<path d="M481.746 -23.89C482.001 -24.4986 482.225 -25.1196 482.418 -25.7507V-25.7507C482.249 -25.1119 482.024 -24.4892 481.746 -23.89V-23.89ZM441.295 -37.0192C438.657 -35.8303 436.122 -34.6932 433.847 -33.5043C431.571 -32.3154 429.398 -31.2816 427.381 -30.1445C425.363 -29.0073 423.294 -27.8701 421.38 -26.7329C421.261 -26.7614 421.137 -26.7614 421.018 -26.7329C419.053 -25.4923 417.139 -24.3551 415.225 -23.1145C413.311 -21.8739 411.397 -20.6335 409.431 -19.3412L403.69 -15.4644C401.362 -13.862 398.931 -12.2079 396.293 -10.2954C393.655 -8.38284 392.155 -7.50406 389.879 -6.05674L388.948 -5.48806L388.586 -4.60941C382.223 10.2257 378.964 18.4961 373.067 35.2438L372.809 35.8642C373.067 35.8642 373.274 35.8642 373.481 35.8642C388.999 37.9318 397.069 39.224 413.88 42.4288C414.156 42.4288 414.466 42.4288 414.811 42.4288C415.244 42.1834 415.659 41.907 416.052 41.6018C433.788 30.2324 452.459 20.3929 471.866 12.19L474.038 11.2078L474.038 10.8977L475.59 5.21172L477.452 -1.35289C477.423 -1.61051 477.423 -1.87061 477.452 -2.12822L478.073 -4.4026C478.901 -7.40064 479.78 -10.0886 480.659 -12.8799L481.28 -14.9992L481.59 -15.8779C481.901 -17.0667 482.315 -18.1523 482.728 -19.3412L485.108 -26.5778L485.573 -27.9734C485.453 -27.9668 485.332 -27.9668 485.211 -27.9734C467.934 -32.4188 459.348 -34.4864 443.83 -37.8463L442.95 -37.8463C442.123 -37.3811 441.657 -37.1743 441.295 -37.0192ZM482.418 -25.7507C482.266 -25.1135 482.058 -24.4909 481.797 -23.89L481.228 -22.029L479.47 -16.86L478.745 -14.5856C477.09 -9.41657 475.642 -4.60944 473.935 1.33495L472.745 5.36679L472.021 8.10637L471.193 11.001C451.516 19.3363 432.584 29.3316 414.604 40.8782C397.896 37.7251 389.879 36.4328 374.619 34.3652C380.671 17.6692 383.775 9.76057 390.137 -5.02287C391.224 -5.69484 392.206 -6.36694 393.189 -7.09061L396.551 -9.31325L400.741 -12.1044C405.138 -15.0508 409.018 -17.687 412.897 -20.2198C413.88 -20.8401 414.863 -21.5122 415.846 -22.0808C417.966 -23.4764 420.191 -24.8204 422.415 -26.1126C424.639 -27.4049 428.467 -29.5242 431.829 -31.2816C432.709 -31.6952 433.536 -32.1604 434.416 -32.5739C435.295 -32.9874 436.795 -33.7628 438.088 -34.3314C439.381 -34.9 440.054 -35.21 441.088 -35.7269C441.088 -35.7269 441.657 -35.727 441.968 -36.0888C457.486 -32.6772 465.659 -30.9198 482.677 -26.371L482.418 -25.7507Z" fill="#84F0FF"/>
<path d="M372.291 35.6058C351.187 50.1308 340.117 58.1946 319.375 73.9601L318.392 74.6837L318.03 75.5625C311.668 93.2406 308.461 102.803 302.512 122.084L302.512 122.652C302.512 122.652 302.978 122.652 303.184 122.652C318.237 125.392 326.617 127.149 343.428 131.285C343.763 131.34 344.092 131.426 344.411 131.543L345.083 131.026C367.067 115.054 378.809 106.783 400.741 91.8449L402.965 90.3459L402.965 89.9842L403.793 86.3658C404.362 84.0914 404.828 81.9204 405.397 79.8528L407.621 70.7036L408.862 65.8447L411.707 55.2483L412.483 52.4569L413.725 48.0115L414.604 44.8584L415.07 43.2561L415.38 42.1189L415.38 41.4469C415.38 41.4469 415.38 41.4469 415.121 41.4469C397.844 38.1904 389.516 36.8465 373.74 34.7272C373.74 34.7272 373.429 34.7272 373.274 34.7272L372.291 35.6058ZM411.242 48.8903L409.431 55.5584C409.173 56.4888 408.862 57.4191 408.655 58.3496L407.88 61.0891L406.638 65.8965C406.069 68.0158 405.5 70.1351 404.983 72.3577L403.845 76.9064L400.638 89.9842C378.137 105.491 366.912 113.193 344.825 129.217C327.91 125.134 319.944 123.479 304.788 120.688C310.685 101.666 313.737 92.5169 320.306 74.8905C340.997 59.125 351.756 51.4748 373.016 36.743C388.275 38.8106 396.293 40.1545 413.052 43.3076L411.242 48.8903Z" fill="#84F0FF"/>
<path d="M353.515 -7.55575L352.894 -7.09055L346.583 -2.80017L342.497 0.0944794C340.479 1.43843 338.565 2.83406 336.703 4.12632C331.531 7.84802 326.358 11.4147 321.444 15.1881L316.271 19.1165C315.288 19.8918 314.254 20.719 313.168 21.4944C309.961 23.8721 306.598 26.6634 302.822 29.403C302.436 29.6453 302.072 29.922 301.736 30.2299V30.2299L301.322 31.1604C300.598 32.5044 299.977 33.9 299.356 35.1923C293.201 48.0632 289.477 56.3852 283.166 71.6339L283.166 72.2026C296.563 72.9262 303.857 73.5982 318.444 75.4073C318.444 75.4073 318.806 75.4073 318.961 75.4073L320.099 74.5285C340.79 59.0214 351.911 50.8027 373.119 36.1227C373.481 36.1227 373.791 35.6057 374.102 35.3989C374.25 35.1422 374.355 34.8629 374.412 34.572C380.361 17.9794 383.619 9.70893 389.93 -4.86775L390.344 -5.84988C390.344 -5.84988 389.93 -5.84988 389.672 -5.84988C375.912 -7.14214 368.981 -7.55568 356.722 -7.9692C356.239 -7.99691 355.756 -7.99691 355.273 -7.9692C355.015 -7.99867 354.755 -7.99867 354.497 -7.9692L353.515 -7.55575ZM306.702 27.2319C309.909 24.6991 312.961 22.3731 315.909 20.2021C318.858 18.0311 320.254 16.9455 322.375 15.3948C324.496 13.8441 326.151 12.5518 328.065 11.2079C335.669 5.677 343.273 0.301247 353.359 -6.52188C353.565 -6.54729 353.774 -6.54729 353.98 -6.52188C366.601 -6.16005 373.378 -5.69476 387.447 -4.35081C381.033 10.4843 377.981 18.3411 371.929 35.0888C350.67 49.7688 340.066 57.4191 319.323 73.1847C304.84 71.4272 298.063 70.8585 285.08 70.1866C291.598 54.6795 295.115 46.4607 301.632 32.9179L303.081 29.9715L306.702 27.2319Z" fill="#84F0FF"/>
<path d="M283.115 71.6851C263.045 87.8642 252.855 96.5998 233.664 113.864L233.664 114.588L232.112 118.62C231.543 119.912 231.026 121.256 230.561 122.497L227.871 129.527L225.388 136.298L222.905 143.121L221.457 147.256C220.888 149.117 220.164 151.133 219.439 153.201C218.767 155.217 218.043 157.388 217.215 159.61L217.215 159.921C229.681 161.161 236.457 162.091 250.475 164.573C250.733 164.533 250.994 164.533 251.251 164.573C271.632 147.411 282.287 138.727 303.858 122.135C303.858 121.876 304.478 121.67 304.789 121.411L304.789 121.101C310.841 101.614 314.099 91.9994 320.307 74.1145C320.432 73.8832 320.536 73.6409 320.617 73.3908C320.617 73.3908 320.151 73.3908 319.996 73.3908C305.254 71.5816 298.116 70.9614 284.77 70.2378C283.788 71.1165 283.425 71.3749 283.115 71.6851ZM218.457 158.318C224.715 140.175 227.974 131.284 234.854 114.071C253.631 97.2717 263.407 88.8979 283.322 72.7188C296.305 73.3908 303.082 74.0112 317.565 75.7687C311.151 93.3951 308.047 102.596 302.047 121.566C281.046 137.849 271.011 146.119 250.941 162.919C237.182 160.437 230.716 159.559 218.457 158.318Z" fill="#84F0FF"/>
<path d="M637.754 -54.4908L637.185 -54.4908C634.702 -53.6638 632.322 -52.9401 630.15 -52.2164L626.839 -51.131C620.063 -48.9083 614.218 -46.9958 608.063 -44.8248C606.511 -44.2562 604.959 -43.7392 603.355 -43.1706C599.165 -41.6716 594.665 -40.0692 589.544 -38.0016C588.355 -37.5364 587.061 -37.1229 585.717 -36.606C585.406 -36.606 585.096 -36.3475 584.682 -36.2441C584.268 -36.1408 584.682 -36.2441 584.682 -36.2441L584.682 -35.4171C582.509 -21.9776 581.372 -14.2758 579.251 1.69655L579.251 2.21348C579.82 2.21348 580.389 2.62693 580.958 2.782C601.028 9.45005 611.994 13.3786 634.185 21.4423C634.185 21.4423 634.702 21.4422 634.909 21.7007C635.386 21.5425 635.853 21.3526 636.305 21.1322C658.858 12.2931 670.704 7.95113 692.119 0.456032L693.05 0.145902L693.05 -0.629579C692.377 -16.1367 692.067 -24.0452 691.343 -37.1745L691.343 -38.1051L690.36 -38.4152C669.669 -45.3934 659.324 -48.7533 640.03 -54.3875L638.892 -54.6976L637.754 -54.4908ZM603.459 -41.5682C603.709 -41.6495 603.952 -41.7533 604.183 -41.8784C605.942 -42.447 607.597 -43.0672 609.356 -43.6358C614.528 -45.445 619.442 -47.0991 624.874 -48.8049C625.753 -49.1667 626.684 -49.4253 627.667 -49.7354C630.978 -50.8726 634.547 -51.958 638.426 -53.2503C657.72 -47.5127 667.91 -44.3079 688.601 -37.278C689.274 -23.8902 689.532 -16.6019 690.153 -0.784644C668.738 6.76215 657.462 10.8457 634.702 19.8915C612.666 11.8278 602.062 8.10611 581.63 1.33468C583.699 -14.4826 584.734 -21.8226 586.803 -35.3138C589.906 -36.4509 592.855 -37.4848 595.596 -38.5703L603.459 -41.5682Z" fill="#84F0FF"/>
<path d="M578.94 1.69663C578.94 1.69663 578.578 1.69663 578.319 1.69663C565.905 6.86566 556.698 10.5874 546.87 14.826C544.749 15.7564 542.628 16.6869 540.404 17.6173L521.265 26.2495C521.092 26.2409 520.92 26.2409 520.748 26.2495C520.674 26.755 520.57 27.2556 520.437 27.7486C517.178 44.7547 515.575 54.3691 512.575 74.2699C513.11 74.4052 513.63 74.5956 514.126 74.8384C534.817 82.2818 546.352 86.6238 568.905 95.5146C569.327 95.7091 569.759 95.8816 570.198 96.0315C570.371 96.0401 570.543 96.0401 570.716 96.0315C595.958 84.3495 608.787 78.6635 633.046 68.5322L634.236 68.0154L634.236 67.7569C634.857 47.9078 635.219 38.3968 635.943 20.9772L635.943 20.4085C635.603 20.3023 635.274 20.1639 634.96 19.9951C612.666 11.8797 601.597 8.05451 580.958 1.17969C580.699 1.17969 580.492 1.17969 580.285 1.17969C580.078 1.17969 579.406 1.38648 578.94 1.69663ZM532.024 23.4066L537.197 21.1322C543.611 18.2893 549.249 15.9632 554.991 13.3787C559.336 11.5695 563.629 9.65701 568.44 7.74447L575.837 4.69475C577.181 4.17785 578.578 3.60922 579.923 3.04063C600.355 9.86375 610.959 13.3787 633.046 21.6492C632.322 38.707 632.012 47.8044 631.288 67.1366C607.286 77.4747 595.079 82.6437 570.354 94.0672C547.439 85.1248 536.369 80.9896 515.109 73.3911C518.058 54.0072 519.61 44.8581 522.817 27.6969L532.024 23.4066Z" fill="#84F0FF"/>
<path d="M690.721 -0.473551C669.41 7.02155 657.616 11.2602 634.96 20.2026L633.874 20.6678L633.874 21.4948C633.15 38.6043 632.787 48.1152 632.063 67.7059L632.063 68.2745C632.421 68.398 632.768 68.5537 633.098 68.7397C656.478 77.8889 669.307 83.058 693.722 93.6028L695.222 94.2748L695.946 93.9647C720.258 83.9884 732.465 79.1812 755.018 70.704C755.38 70.704 755.742 70.704 756.052 70.3421L756.052 70.032C754.19 50.1829 753.207 40.6202 750.88 23.2006L750.88 22.5803L749.845 22.1667C726.672 12.3972 714.826 7.69342 692.48 -0.577033C692.247 -0.658748 692.021 -0.762589 691.808 -0.887162C691.549 -0.732091 691.084 -0.628622 690.721 -0.473551ZM748.552 23.4074C750.466 40.5169 751.397 49.6144 753.156 68.9465C730.758 77.4238 719.068 81.9724 695.067 91.7936C670.496 81.1971 658.289 76.2866 634.857 67.034C635.477 47.7018 635.839 38.6042 636.46 21.5464C659.272 12.6557 670.548 8.52046 692.015 0.87029C714.154 9.29582 725.482 13.7413 748.552 23.4074Z" fill="#84F0FF"/>
<path d="M353.515 -7.55535L352.894 -7.09015C350.67 -5.53944 348.6 -4.09203 346.583 -2.79977L342.497 0.094878C340.479 1.43883 338.565 2.83446 336.703 4.12672C331.531 7.84842 326.358 11.4151 321.444 15.1885L316.271 19.1169C315.288 19.8922 314.254 20.7194 313.168 21.4948C309.961 23.9242 306.598 26.6638 302.822 29.4034C302.436 29.6457 302.072 29.9224 301.736 30.2303V30.2303L353.515 -7.55535ZM301.167 31.2124L301.839 31.2124C302.202 30.8506 302.667 30.5922 303.029 30.282L306.65 27.4907C309.857 24.9579 312.909 22.6319 315.857 20.4609C318.806 18.2899 320.202 17.2044 322.323 15.6537C324.444 14.103 326.099 12.8108 328.013 11.4668C335.617 5.93595 343.221 0.560035 353.308 -6.26309L354.239 -6.88335L354.653 -7.71041L301.167 31.2124Z" fill="#84F0FF"/>
<path d="M202.938 962.362C202.784 962.334 202.626 962.334 202.472 962.362L202.472 962.879L203.507 963.861C203.609 963.837 203.715 963.837 203.817 963.861C208.99 964.223 213.387 964.482 217.732 964.585C217.844 964.778 218.004 964.938 218.197 965.05C222.232 965.05 226.473 965.05 232.215 965.05C250.94 981.953 260.665 990.275 280.528 1006.4C287.252 1022.63 290.873 1030.75 297.805 1045.12C298.581 1045.84 299.356 1046.46 300.132 1047.08L300.494 1047.91C290.496 1048.06 280.496 1047.65 270.545 1046.67V1046.67L270.545 1047.19C280.513 1048.17 290.53 1048.59 300.546 1048.43V1048.43L300.236 1047.86L299.925 1047.19C292.632 1032.04 288.856 1023.62 281.925 1006.76L281.925 1006.25C261.544 989.758 251.302 981.022 232.474 963.965L231.491 963.086C225.335 963.086 221.146 963.086 216.594 963.086C212.042 963.086 208.214 962.827 202.938 962.362ZM222.18 1003.71C222.009 1003.69 221.834 1003.69 221.663 1003.71L221.663 1004.18L222.542 1005.01C222.542 1005.01 222.542 1005.01 222.956 1005.01L222.542 1004.28C222.444 1004.06 222.323 1003.86 222.18 1003.66L222.18 1003.71Z" fill="#84F0FF"/>
<path d="M271.062 1047.19L271.062 1046.67L271.062 1047.19ZM292.322 1083.68C290.977 1081.61 289.787 1079.75 288.701 1077.94C289.735 1079.75 290.925 1081.61 292.218 1083.63L292.322 1083.68Z" fill="#84F0FF"/>
<path d="M156.487 826.365C156.333 826.394 156.176 826.394 156.022 826.365C156.074 826.533 156.074 826.713 156.022 826.882C161.194 845.697 163.832 855.26 169.522 873.403L169.522 874.023L170.247 874.799C186.851 892.115 196.11 901.109 214.939 918.632C214.939 918.632 215.404 918.632 215.663 918.632C227.922 917.34 234.647 916.409 248.82 913.825L248.82 913.05C242.871 893.666 239.871 883.379 234.491 862.91L234.491 862.29C214.37 845.335 204.542 836.755 186.954 820.369C186.954 820.059 186.334 819.748 186.023 819.438C173.092 822.953 167.195 824.349 156.487 826.365ZM232.836 862.806C238.009 882.914 241.061 892.787 247.009 911.912C236.283 914.005 225.459 915.558 214.576 916.564C196.265 899.61 187.472 891.081 171.178 874.075C165.539 856.087 162.85 846.989 157.884 828.432C168.229 826.468 174.178 825.124 186.592 821.764C204.024 838.099 213.387 846.317 232.836 862.806V862.806Z" fill="#84F0FF"/>
<path d="M169.677 873.558C163.263 874.127 158.918 874.437 154.47 874.489C151.521 874.489 148.625 874.489 145.107 874.489L144.745 874.489L145.004 875.316C145.129 875.513 145.287 875.687 145.469 875.833L145.935 875.833C149.452 875.833 152.401 875.833 155.297 875.833C155.344 876.089 155.471 876.324 155.659 876.505C160.211 876.505 164.505 876.246 171.178 875.626C187.471 892.684 196.213 901.471 214.525 918.167C220.732 936.31 223.991 945.201 230.87 962.414C224.87 962.414 220.525 962.414 216.387 962.414C216.481 962.646 216.643 962.844 216.852 962.983C212.507 962.983 208.369 962.672 203.093 962.259C185.558 945.046 176.868 935.845 161.712 918.477C161.349 918.115 161.091 917.754 160.78 917.392C160.678 917.413 160.572 917.413 160.47 917.392L160.78 918.064L161.505 918.891C177.023 936.465 185.713 945.666 202.886 962.776L203.921 963.758C204.023 963.734 204.129 963.734 204.231 963.758C209.404 964.12 213.8 964.378 218.145 964.482C222.491 964.585 226.939 964.482 233.043 964.482L233.043 963.965C230.819 958.486 229.008 953.937 227.353 949.543C226.68 947.734 226.06 945.976 225.336 944.374L223.68 939.774C222.801 937.551 221.973 935.225 221.146 932.744L218.404 924.938L216.439 918.994L216.439 918.27C197.455 900.696 188.247 891.702 171.591 874.282L171.074 873.765C171.074 873.765 169.884 873.558 169.677 873.558Z" fill="#84F0FF"/>
<path d="M135.9 673.671L135.538 673.671C136.986 694.605 137.814 705.254 139.779 725.361L139.779 726.964L140.297 727.584C153.228 743.091 160.987 751.31 176.505 767.386L177.437 768.419L178.161 768.109C191.455 762.94 198.851 759.994 214.783 753.171L214.783 751.361C212.456 728.721 211.473 716.626 209.611 692.9C191.713 677.393 183.282 669.536 168.229 655.166L167.712 654.597C153.642 663.436 147.228 667.21 135.9 673.671ZM207.748 694.347C209.404 717.659 210.387 729.135 212.921 751.827C197.403 758.443 190.523 761.338 177.488 766.3C161.97 750.069 154.625 742.109 141.59 726.705L141.59 726.343C139.676 706.288 138.848 696.104 137.4 675.583C148.625 669.226 154.78 665.556 168.436 657.595C182.506 671.81 190.523 679.202 207.748 694.037L207.748 694.347Z" fill="#84F0FF"/>
<path d="M131.658 510.64L131.141 511.105L131.141 511.726C130.831 533.177 130.831 544.394 131.141 565.742L131.141 566.517L131.71 567.086C143.607 578.613 150.487 585.023 165.281 598.1L166.005 597.583C179.868 587.814 187.782 582.076 204.438 570.601L204.438 569.619C204.024 545.066 204.076 532.195 204.438 507.59L204.438 506.815C187.73 495.236 179.919 489.706 166.057 479.936L165.384 479.471C150.487 492.445 143.555 499.062 131.658 510.64ZM202.524 568.947C186.437 580.319 178.988 585.488 165.177 595.516C150.797 582.748 144.487 576.752 132.486 565.38C132.176 544.239 132.176 533.487 132.486 512.294C144.331 500.922 150.849 494.875 165.229 482.055C178.937 491.825 186.489 497.046 202.576 508.417C202.265 532.557 202.265 544.807 202.524 568.947Z" fill="#84F0FF"/>
<path d="M131.089 565.742C119.71 575.46 114.382 580.164 105.226 588.279L104.76 588.641L104.76 589.623C105.226 609.265 105.588 619.345 106.571 639.091C106.737 639.218 106.878 639.376 106.985 639.556C116.813 652.427 122.503 659.508 135.228 673.775L135.745 674.344L136.055 674.344C147.487 667.727 153.953 664.006 167.815 655.632C166.522 632.63 166.005 620.896 165.436 597.739L165.436 596.912C150.539 583.73 143.607 577.373 131.555 565.897L131.193 565.535L131.089 565.742ZM164.402 597.945C164.971 620.431 165.488 631.596 166.626 653.771C153.229 661.886 147.021 665.505 135.9 671.966C123.434 657.906 117.796 651.29 107.916 638.315C106.985 619.138 106.571 609.472 106.157 589.985C115.209 581.921 120.33 577.476 132.021 567.706C143.556 579.13 150.073 585.178 164.402 597.945V597.945Z" fill="#84F0FF"/>
<path d="M139.573 725.776C128.813 730.531 123.693 732.599 114.951 736.114L114.951 737.871L116.037 749.45L116.037 750.328C116.657 760.412 117.935 770.444 119.865 780.361L119.865 780.722C119.865 781.911 120.279 783.1 120.589 784.341L120.589 784.961L121.158 785.685C132.128 800.122 143.906 813.928 156.436 827.037L157.315 827.967C157.315 827.967 157.315 827.967 157.625 827.967C168.436 825.9 174.488 824.452 187.316 820.989L187.316 820.576C182.986 803.606 179.994 786.323 178.368 768.885L178.368 767.18L177.799 766.559C162.281 750.38 154.522 742.006 141.59 726.758L141.28 726.293L140.814 725.827C140.402 725.911 139.976 725.893 139.573 725.776V725.776ZM140.452 727.947C153.435 743.454 160.625 751.259 176.143 767.438L176.143 767.8C177.743 785.026 180.683 802.101 184.937 818.87C172.523 822.23 166.833 823.574 156.332 825.59C143.885 812.616 132.144 798.985 121.158 784.754C118.178 769.397 116.259 753.853 115.416 738.233C124.261 734.925 129.227 733.064 140.142 727.895C140.349 727.998 140.4 727.947 140.452 727.947V727.947Z" fill="#84F0FF"/>
<path d="M176.454 310.702L173.66 313.648L169.574 317.938L168.229 319.386L162.074 326.002C159.125 329.155 156.435 332.153 153.746 335.203C151.056 338.253 148.263 341.458 145.262 344.972L143.038 347.66L140.659 350.452L140.141 351.124L140.141 352.364C138.124 372.472 137.245 383.378 135.848 403.744L135.848 404.571C136.003 404.701 136.178 404.806 136.365 404.882C147.642 411.343 154.159 415.22 168.074 423.49C168.074 423.18 168.591 422.973 168.85 422.715C169.108 422.456 168.85 422.715 168.85 422.715C183.747 408.552 192.127 400.85 209.921 385.291L209.921 384.309C211.628 360.945 212.662 348.953 215.094 326.416L215.094 324.968C199.213 318.197 191.765 315.147 178.471 310.081C178.257 309.957 178.032 309.853 177.799 309.771L176.454 310.702ZM150.125 341.716C151.418 340.165 152.659 338.718 153.953 337.322L156.177 334.841C157.47 333.342 158.815 331.895 160.263 330.344C165.022 325.175 170.298 319.541 177.074 312.459C190.265 317.628 197.403 320.42 212.766 327.036C210.49 349.728 209.507 361.203 207.593 384.412C190.316 399.609 182.299 407.001 167.557 421.164C154.004 413.152 147.849 409.585 136.521 403.227C137.917 382.551 138.797 372.213 140.762 352.157C144.435 348.074 147.331 344.714 150.125 341.509L150.125 341.716Z" fill="#84F0FF"/>
<path d="M135.486 403.951C123.02 418.115 117.227 425.196 107.399 438.067L106.985 438.636L106.985 439.566C106.002 458.743 105.64 468.875 105.123 488.31L105.123 489.086L105.588 489.447C114.537 497.459 119.865 502.06 131.451 511.726L132.124 512.294L132.486 511.933C144.538 500.251 151.521 493.893 166.367 480.608L166.367 479.936C167.04 456.986 167.505 445.252 168.798 422.715L168.798 421.888C154.729 413.566 148.108 409.844 136.831 403.383L136.469 403.383L135.486 403.951ZM166.833 423.646C165.591 445.821 165.126 456.934 164.505 479.419C150.125 492.239 143.814 498.39 131.814 509.813C120.382 500.147 115.261 495.754 106.209 487.69C106.674 468.254 107.036 458.588 108.019 439.411C117.899 426.54 123.537 419.769 136.055 405.554C147.228 411.963 153.125 415.634 166.833 423.646Z" fill="#84F0FF"/>
<path d="M160.366 918.116L161.091 918.943C176.609 936.517 185.299 945.718 202.472 962.828L203.507 963.81C203.609 963.786 203.715 963.786 203.817 963.81L203.817 963.086L202.989 962.311C185.454 945.098 176.764 935.897 161.608 918.529C161.246 918.167 160.987 917.806 160.677 917.444C160.574 917.465 160.469 917.465 160.366 917.444L160.366 918.116Z" fill="#84F0FF"/>
<path d="M120.175 784.444C116.502 785.219 113.709 785.684 111.122 786.149L111.64 787.493C111.633 787.609 111.653 787.725 111.698 787.833C111.743 787.94 111.811 788.036 111.898 788.114C114.433 787.752 117.071 787.183 120.899 786.459C131.797 800.717 143.471 814.367 155.866 827.346C161.039 845.852 163.522 855.001 169.16 872.937C162.746 873.454 158.401 873.764 154.004 873.816C154.095 874.066 154.236 874.294 154.418 874.488C151.469 874.488 148.573 874.488 145.055 874.488L144.693 874.488L144.952 875.315C145.077 875.512 145.235 875.687 145.417 875.832L145.883 875.832C149.4 875.832 152.349 875.832 155.245 875.832C159.694 875.832 164.091 875.832 170.763 874.953C170.763 874.953 171.125 874.953 171.281 874.953L171.281 874.023C165.642 856.086 162.797 846.472 157.78 827.915L157.78 827.191L157.056 826.416C144.565 813.366 132.772 799.666 121.726 785.374L121.002 784.444C121.002 784.444 120.278 784.444 120.175 784.444Z" fill="#84F0FF"/>
<path d="M145.004 874.954C145.13 875.15 145.287 875.325 145.47 875.47L145.935 875.47L145.935 874.954C145.935 874.643 145.418 874.385 145.263 874.126L144.901 874.126L145.004 874.954ZM161.091 918.684C161.091 918.684 161.091 918.684 161.453 918.684L161.453 918.27C161.091 917.908 160.832 917.546 160.522 917.185C160.42 917.205 160.314 917.205 160.212 917.185L160.522 917.857L161.091 918.684Z" fill="#84F0FF"/>
<path d="M106.881 639.194C97.7772 645.707 93.7943 648.602 87.0698 653.512C88.0526 671.346 88.6216 680.495 90.0699 697.914L90.0699 699.31L90.3803 699.827C97.5804 712.834 105.525 725.416 114.175 737.509L114.175 737.923L114.537 738.388C114.537 738.388 114.951 738.388 115.106 738.388C115.261 738.388 115.106 738.388 115.106 738.388C123.796 735.183 128.917 733.219 139.883 728.308L140.193 728.308L140.193 726.447C138.176 706.443 137.297 695.743 135.952 674.757L135.486 674.137C122.761 659.922 116.968 652.789 107.088 639.918L106.726 639.504L106.881 639.194ZM91.0528 698.948L91.0528 698.586C89.6561 681.322 89.0872 672.741 88.1043 655.011L107.502 641.313C117.33 654.133 123.02 660.956 135.383 675.119C136.779 695.795 137.607 705.771 139.573 725.931C128.71 730.738 124.054 732.805 115.054 736.269C106.369 724.282 98.3561 711.822 91.0528 698.948V698.948Z" fill="#84F0FF"/>
<path d="M105.019 488.309C97.6412 497.051 90.7345 506.179 84.328 515.654L84.328 516.119C84.0694 534.262 84.0694 543.67 84.328 561.761L84.328 562.382C90.7665 571.801 97.6721 580.892 105.019 589.623L105.019 589.984C105.231 589.839 105.422 589.665 105.588 589.468C114.588 581.456 119.968 576.803 131.451 567.086L131.917 566.62L131.917 565.587C131.917 544.393 131.917 533.125 131.917 511.932L131.917 511.053L131.399 510.64C119.916 500.974 114.537 496.322 105.536 488.413L105.019 487.896C104.998 488.033 104.998 488.172 105.019 488.309V488.309ZM84.7936 516.584C91.7767 506.815 95.8631 501.542 105.484 490.222C114.485 498.286 119.606 502.679 131.037 512.449C130.675 533.487 130.675 544.187 131.037 565.276C119.606 575.098 114.485 579.543 105.484 587.658C96.07 576.39 91.9836 571.169 85.0522 561.451C84.6384 543.567 84.6384 534.469 84.7936 516.584Z" fill="#84F0FF"/>
<path d="M84.0697 561.762C79.0258 567.689 74.3281 573.903 70 580.37C70.3104 597.221 70.5173 605.595 71.0863 622.343C75.6715 633.047 81.0129 643.411 87.0699 653.357L87.3802 653.771L107.295 639.504C106.312 619.655 105.95 609.524 105.485 589.623L105.485 588.951L105.071 588.434C95.3979 576.959 91.1563 571.428 84.0697 561.452L84.0697 561.762ZM71.6035 621.671C71.0863 605.544 70.8276 597.532 70.569 581.404C74.8626 575.097 79.4901 569.023 84.4318 563.209C91.3115 572.979 95.3461 578.303 104.76 589.623C105.226 608.955 105.588 618.57 106.519 637.695L87.225 651.703C81.3106 642.076 76.0902 632.04 71.6035 621.671V621.671Z" fill="#84F0FF"/>
<path d="M89.9669 697.965C87.3806 699.154 85.3632 700.188 83.6045 700.963C83.6921 701.599 83.8482 702.223 84.0701 702.824C85.8288 702.049 87.7944 701.119 90.3807 699.878C97.5618 712.747 105.454 725.206 114.02 737.198L114.02 737.612C114.485 742.109 114.899 745.986 115.365 749.604L115.365 750.483C116.503 760.821 117.537 768.73 119.193 780.515L119.193 780.877L119.555 783.875C115.934 784.65 113.141 785.115 110.606 785.581L110.606 786.201L111.123 787.545C113.71 787.131 116.555 786.614 120.331 785.839C120.331 785.839 120.331 785.839 120.693 785.839L120.693 785.425C117.679 769.881 115.743 754.147 114.899 738.336L114.899 736.837L114.485 736.32C105.963 724.197 98.1391 711.599 91.0532 698.586C90.9291 698.294 90.773 698.016 90.5876 697.759C90.4756 697.749 90.3627 697.763 90.2559 697.798C90.1492 697.834 90.0509 697.891 89.9669 697.965V697.965Z" fill="#84F0FF"/>
<path d="M114.588 340.838C114.511 341.022 114.386 341.182 114.226 341.303L106.571 352.158L104.45 355.466C99.2773 363.013 95.6564 369.423 90.432 378.727C90.231 379.002 90.0578 379.296 89.9147 379.606L89.9147 380.588C88.5181 397.955 87.8974 407.105 86.9663 424.679L86.9663 425.248L106.829 439.411L107.14 439.411L107.657 438.636C117.485 425.92 123.175 418.838 135.9 404.675C136.058 404.427 136.25 404.201 136.469 404.003L136.469 403.021C137.866 382.604 138.797 372.007 140.71 351.951L140.71 350.555C140.549 350.418 140.352 350.328 140.141 350.297C129.175 345.438 124.003 343.371 115.157 339.959L114.64 339.959L114.588 340.838ZM91.0527 379.967C93.6391 375.315 96.2254 371.438 98.2428 367.665L100.364 364.15L103.312 359.55C104.191 358.102 105.122 356.758 106.105 355.259L109.416 350.09L114.588 342.595C123.434 345.852 128.348 347.764 139.314 352.933C137.348 373.144 136.521 383.327 135.072 403.797C122.606 418.011 117.02 424.835 107.192 437.757L87.794 424.059C88.8802 406.226 89.5009 397.49 91.0527 379.967Z" fill="#84F0FF"/>
<path d="M87.0699 424.679C81.0157 434.618 75.6911 444.984 71.138 455.693C70.569 472.441 70.3621 480.866 70.0518 497.666C74.3674 504.063 79.0478 510.207 84.0697 516.067L84.4318 516.533C90.9824 507.134 98.0092 498.077 105.485 489.395L105.898 488.827L105.898 488.361C106.416 468.616 106.778 458.484 107.709 438.945C107.759 438.742 107.759 438.529 107.709 438.325C107.709 438.325 107.399 438.325 107.295 438.015L87.3802 423.955L87.0699 424.679ZM70.6208 496.58C70.6208 480.401 71.138 472.337 71.6553 456.262C76.1107 445.83 81.2962 435.726 87.1733 426.023C93.7944 430.778 97.5187 433.57 106.416 439.876C105.485 459.001 105.071 468.667 104.605 487.948C95.191 499.32 91.1046 504.644 84.2249 514.517C77.759 506.505 75.0693 502.783 70.6208 496.58Z" fill="#84F0FF"/>
<path d="M171.023 203.754C170.755 203.987 170.513 204.247 170.298 204.529L170.298 204.788C164.505 223.19 161.712 232.752 156.643 251.309L156.643 251.981C156.643 251.981 156.901 251.981 157.056 251.981C167.816 253.997 173.712 255.341 186.541 258.804L187.472 257.977C205.007 241.488 214.835 232.907 234.905 216.005L234.905 215.229C240.388 194.553 243.337 184.215 249.389 164.831L249.389 164.521C235.112 161.988 228.388 161.058 216.128 159.817C216.128 159.817 215.715 159.817 215.456 159.817C196.783 177.495 187.575 186.438 171.023 203.754ZM186.903 256.84C174.488 253.532 168.798 252.24 158.194 250.275C163.367 231.77 165.85 222.621 171.54 204.633C187.834 187.627 196.627 179.098 215.042 162.143C227.095 163.332 233.56 164.211 247.371 166.692C241.423 185.869 238.578 195.69 233.25 215.746C213.697 232.287 204.386 240.558 186.903 256.84V256.84Z" fill="#84F0FF"/>
<path d="M156.539 251.568C144.018 264.699 132.224 278.504 121.21 292.921L120.641 293.644L120.641 294.523C117.585 309.873 115.615 325.418 114.744 341.044L114.744 342.44L115.106 342.44C123.951 345.697 129.072 347.609 140.09 352.778C140.306 352.842 140.514 352.929 140.711 353.037C140.891 352.903 141.034 352.725 141.125 352.52L141.487 352.158C144.745 348.281 147.642 344.921 150.435 341.82C151.729 340.269 152.97 338.822 154.263 337.426L156.487 334.945C157.781 333.446 159.126 331.999 160.574 330.448C165.333 325.279 170.609 319.645 177.385 312.563C177.716 312.31 178.011 312.015 178.264 311.684V311.684L178.264 310.392C179.968 292.95 183.029 275.668 187.42 258.702L187.42 257.926C177.648 255.141 167.737 252.864 157.729 251.103C157.729 251.103 157.729 251.103 157.419 251.103L156.539 251.568ZM173.661 313.597L169.574 317.887L168.229 319.335L162.074 325.951L153.746 335.152C151.004 338.202 148.263 341.406 145.263 344.921L143.038 347.609L140.659 350.4C129.589 345.593 124.624 343.629 115.727 340.372C116.614 324.748 118.584 309.203 121.624 293.851C132.632 279.593 144.409 265.944 156.901 252.964C167.247 254.928 173.092 256.272 185.454 259.581C181.097 276.407 178.088 293.553 176.454 310.857L173.661 313.597Z" fill="#84F0FF"/>
<path d="M112.106 292.713C114.485 293.178 117.279 293.644 120.486 294.316L121.21 293.333C132.245 279.001 144.056 265.283 156.591 252.24C156.858 252.007 157.101 251.747 157.315 251.464L157.574 250.534C162.747 231.925 165.385 222.414 171.126 204.013L171.126 203.496C171.126 203.496 170.816 203.496 170.661 203.496C164.764 202.979 160.315 202.72 156.384 202.669L112.106 292.713ZM156.177 203.961C155.904 204.261 155.692 204.612 155.556 204.995C159.591 204.995 163.729 205.305 169.574 205.822C163.936 223.758 161.298 232.856 156.281 251.361C143.85 264.371 132.126 278.037 121.158 292.3C117.848 291.628 115.261 291.162 112.934 290.749C112.882 290.9 112.882 291.063 112.934 291.214L156.177 203.961Z" fill="#84F0FF"/>
<path d="M112.105 292.714L112.105 293.179C114.381 293.592 117.02 294.058 120.278 294.73C117.288 310.09 115.318 325.631 114.381 341.251L106.571 352.157L104.45 355.466C99.2772 363.013 95.6563 369.422 90.4319 378.726C88.0008 377.589 86.0869 376.71 84.4316 375.987L83.9661 377.899C85.6213 378.571 87.4835 379.502 89.8112 380.587C89.8112 380.587 89.8112 380.587 90.225 380.587L90.7423 379.76C93.3286 375.108 95.915 371.231 97.9323 367.458L100.053 363.943L103.002 359.343C103.881 357.895 104.812 356.551 105.795 355.052L109.105 349.883L114.278 342.388L114.795 341.664L114.795 340.527C115.752 324.715 117.756 308.984 120.796 293.437L120.796 292.817C120.796 292.817 120.537 292.817 120.433 292.817C117.071 292.197 114.433 291.628 112.002 291.318L112.105 292.714Z" fill="#84F0FF"/>
<path d="M299.409 32.0909C298.529 33.9001 297.702 35.6059 296.822 37.26C290.977 49.4589 287.46 57.4708 281.304 72.2543C261.493 88.3816 251.716 96.7038 232.991 113.607C227.819 113.607 224.301 113.607 220.732 113.607C220.732 113.607 220.732 113.865 220.732 113.968L299.409 32.0909ZM218.973 115.519C222.801 115.519 226.836 115.519 232.112 115.519C232.474 115.209 232.784 114.899 233.147 114.64C252.027 97.5826 262.217 88.7953 282.597 72.3577L282.908 71.7373C289.167 56.5404 292.943 48.1149 299.046 35.2957L301.012 31.2639L301.478 30.2817L218.973 115.519Z" fill="#84F0FF"/>
<path d="M156.177 203.962C160.211 203.962 164.401 204.272 170.195 204.789C170.195 204.789 170.609 204.789 170.867 204.789L171.333 204.272C188.092 186.801 197.196 177.806 216.283 160.283L216.283 159.973C217.111 157.751 217.835 155.58 218.508 153.564C219.232 151.496 219.956 149.48 220.525 147.619L221.973 143.484L224.456 136.661L226.939 129.889L229.629 122.86C230.094 121.619 230.612 120.275 231.181 118.983C231.75 117.691 232.215 116.295 232.836 114.848L233.095 114.176C227.922 114.176 223.835 114.176 220.059 114.176L156.177 203.962ZM218.973 115.52C218.829 115.598 218.719 115.727 218.663 115.881C222.284 115.881 226.215 115.881 231.284 115.881C224.456 133.043 220.939 141.727 214.887 160.025C196.575 176.979 187.834 185.56 171.488 202.566C165.591 202.101 161.453 201.894 157.366 201.791L156.746 202.825L218.973 115.52Z" fill="#84F0FF"/>
<path d="M428.881 790.543L427.846 778.189C428.157 781.911 428.467 786.15 428.881 790.543ZM428.881 790.543L427.846 778.189C428.157 781.911 428.467 786.15 428.881 790.543ZM485.78 689.747C459.658 702.98 446.571 709.544 422.57 721.33C422.271 721.522 421.96 721.694 421.639 721.847L421.122 721.847L421.432 727.016L421.743 731.926C422.777 749.088 423.605 761.08 424.898 776.639L425.208 780.981C425.519 783.772 425.726 786.822 425.984 789.975L425.984 791.525L427.329 792.352C452.468 807.86 466.021 815.872 491.884 830.707C492.158 830.813 492.419 830.952 492.66 831.12C492.66 831.12 493.177 831.43 493.436 831.585C493.695 831.74 494.367 831.12 494.884 830.913C495.114 830.841 495.338 830.755 495.557 830.655C519.351 820.317 532.593 813.959 558.353 801.708C558.525 801.717 558.698 801.717 558.87 801.708L559.543 801.398L559.543 798.865C558.56 772.245 558.094 757.513 557.319 728.877C556.924 728.733 556.557 728.523 556.232 728.256C528.662 713.214 514.282 705.151 487.28 689.747C486.925 689.559 486.579 689.352 486.246 689.127C486.112 689.349 485.956 689.556 485.78 689.747V689.747ZM428.881 790.543L427.846 778.189C426.76 764.957 425.984 754.515 425.157 741.489L424.639 732.392C424.639 731.306 424.639 730.117 424.381 728.928L424.381 723.759C448.382 711.922 460.951 705.668 486.763 692.745C513.558 708.252 527.214 715.747 554.681 730.738C555.456 759.012 555.922 772.917 556.905 799.796C531.041 812.046 518.265 817.887 494.005 828.691C468.141 813.752 454.899 805.999 429.502 790.492L428.881 790.543ZM428.881 790.543L427.846 778.189C428.157 781.911 428.467 786.15 428.881 790.543Z" fill="#84F0FF"/>
<path d="M483.763 461.431L483.039 461.793C456.555 476.886 442.795 484.795 417.604 499.475C417.139 499.785 416.725 499.992 416.259 500.25L416.259 502.215C416.001 521.96 415.949 535.4 416.259 551.32L416.259 576.235C416.777 576.545 417.242 576.855 417.76 577.114C443.157 592.001 456.969 599.909 483.97 615.21L484.798 615.727C485.298 615.42 485.816 615.144 486.349 614.899L554.37 578.406L555.56 577.734L555.56 576.235C555.56 546.1 555.56 530.127 555.56 499.94L555.56 498.751C555.146 498.493 554.732 498.286 554.318 498.079C526.748 483.244 512.575 475.646 486.453 461.638C485.884 461.638 485.418 461.121 484.849 460.811L483.763 461.431ZM418.898 521.443L418.898 502.266C444.347 487.328 457.537 479.781 484.384 464.532L551.629 500.716C551.629 530.696 551.629 545.996 551.629 576.08C524.058 590.915 510.247 598.255 484.125 612.263C457.279 597.066 444.089 589.468 418.639 574.633C418.742 552.974 418.691 539.276 418.898 521.495L418.898 521.443Z" fill="#84F0FF"/>
<path d="M416.052 575.149C391.224 589.106 379.378 596.187 357.394 608.903C356.98 609.213 356.515 609.42 356.101 609.678L356.101 611.333L356.411 624.72L356.411 629.889C356.67 639.866 356.98 648.55 357.446 658.061L357.446 660.542C357.446 666.434 358.015 672.637 358.325 679.822L358.325 681.425L358.791 681.425C359.079 681.677 359.391 681.902 359.722 682.097C382.844 697.604 395.465 705.771 421.173 721.33L422.156 721.95L423.087 721.485C447.295 709.596 460.382 702.98 486.401 689.85L486.97 689.488C487.164 689.412 487.354 689.326 487.539 689.23C486.556 659.715 486.142 644.518 485.677 614.537L485.677 613.452C485.246 613.242 484.831 613 484.435 612.728C457.589 597.583 443.881 589.674 418.587 574.891C418.07 574.632 417.501 574.271 417.035 574.012C416.57 573.754 416.57 575.149 416.052 575.149ZM360.498 661.834C360.187 653.564 359.825 646.327 359.567 638.263L359.567 633.714L359.567 624.875L359.567 620.12C359.567 618.724 359.567 617.38 359.567 615.881L359.567 611.488C381.758 598.668 393.137 591.897 418.277 577.837C443.726 592.672 456.917 600.271 483.711 615.468C484.177 644.776 484.59 659.301 485.522 687.834C459.658 700.964 447.192 707.218 423.139 719.107C397.534 703.6 385.43 695.691 362.101 680.184L360.498 661.834Z" fill="#84F0FF"/>
</g>
<defs>
<clipPath id="clip0_27_176">
<rect width="1080" height="663" fill="white" transform="translate(0 1080) rotate(-90)"/>
</clipPath>
</defs>
</svg>
