<svg width="22" height="21" fill="none" xmlns="http://www.w3.org/2000/svg"><path opacity=".1" d="M11 17.502 5.908 20.59c-.27.162-.528.234-.772.216a1.04 1.04 0 0 1-.636-.27 1.029 1.029 0 0 1-.42-.502c-.081-.207-.104-.465-.068-.771l1.382-5.796L.87 9.485a1.222 1.222 0 0 1-.393-.568 1.216 1.216 0 0 1 .366-1.314c.18-.153.424-.24.731-.257L7.56 6.83l2.275-5.525a1.27 1.27 0 0 1 .488-.555A1.26 1.26 0 0 1 11 .548c.235 0 .46.068.677.203.217.135.38.32.488.555l2.302 5.525 5.985.515c.289.018.524.104.704.257a1.216 1.216 0 0 1 .366 1.314 1.22 1.22 0 0 1-.393.568l-4.523 3.982 1.381 5.795c.037.307.014.565-.067.772a1.029 1.029 0 0 1-.42.501 1.04 1.04 0 0 1-.637.271c-.243.018-.491-.054-.744-.216L11 17.502Z" fill="#fff"/></svg>