<svg width="30" height="30" fill="none" xmlns="http://www.w3.org/2000/svg"><path d="M1.226 14.202s8.846-3.63 11.914-4.909c1.175-.51 5.164-2.147 5.164-2.147s1.84-.716 1.687 1.023c-.051.715-.46 3.22-.87 5.93-.613 3.835-1.278 8.028-1.278 8.028s-.102 1.176-.971 1.38c-.87.205-2.3-.715-2.556-.92-.205-.153-3.835-2.454-5.165-3.579-.358-.307-.767-.92.051-1.636a196.11 196.11 0 0 0 5.37-5.113c.613-.614 1.226-2.045-1.33-.307-3.63 2.506-7.21 4.858-7.21 4.858s-.818.51-2.352.05C2.146 16.4.357 15.788.357 15.788s-1.227-.767.87-1.585Z" fill="#34AADF"/></svg>