<svg width="18" height="17" fill="none" xmlns="http://www.w3.org/2000/svg"><path d="M9 7.9c-1.15 0-2.087-.363-2.812-1.088C5.463 6.088 5.1 5.15 5.1 4s.363-2.087 1.088-2.813C6.913.463 7.85.1 9 .1s2.088.363 2.813 1.087C12.538 1.913 12.9 2.85 12.9 4c0 1.15-.362 2.088-1.087 2.813C11.088 7.537 10.15 7.9 9 7.9ZM.85 16.225v-2.5c0-.667.167-1.237.5-1.713a3.28 3.28 0 0 1 1.275-1.087A19.38 19.38 0 0 1 5.875 9.8 13.244 13.244 0 0 1 9 9.425c1.05 0 2.088.13 3.113.387 1.025.259 2.104.63 3.237 1.113.533.25.967.612 1.3 1.087.333.476.5 1.046.5 1.713v2.5H.85Z" fill="#00E0FF"/></svg>