<svg width="342" height="596" viewBox="0 0 342 596" fill="none" xmlns="http://www.w3.org/2000/svg">
<g filter="url(#filter0_b_611_2131)">
<path fill-rule="evenodd" clip-rule="evenodd" d="M0 2.5C163.167 2.5 295.44 134.773 295.44 297.94C295.44 348.24 282.87 395.604 260.7 437.062L260.299 436.916L259.615 438.795L259.74 438.841C238.449 478.008 208.556 511.822 172.599 537.747L172.436 537.611L171.9 538.249C123.473 572.952 64.1222 593.38 0 593.38V595.38C64.3087 595.38 123.851 574.971 172.503 540.277L206.412 568.731L207.698 567.199L174.179 539.073C210.277 512.953 240.277 478.926 261.641 439.533L302.87 454.539L303.554 452.659L262.599 437.753C284.836 396.074 297.44 348.479 297.44 297.94C297.44 297.379 297.438 296.818 297.435 296.258H341.63V294.258H297.418C296.81 244.156 283.815 197.037 261.354 155.819L303.554 140.459L302.87 138.58L260.379 154.045C238.755 114.999 208.603 81.332 172.438 55.5567L207.698 25.9701L206.412 24.438L171.15 54.0262L172.43 55.5507C123.791 20.8883 64.2766 0.5 0 0.5V2.5Z" stroke-width="2" stroke="url(#paint0_linear_611_2131)"/>
</g>
<defs>
<filter id="filter0_b_611_2131" x="-50" y="-49.5" width="441.63" height="694.88" filterUnits="userSpaceOnUse" color-interpolation-filters="sRGB">
<feFlood flood-opacity="0" result="BackgroundImageFix"/>
<feGaussianBlur in="BackgroundImageFix" stdDeviation="25"/>
<feComposite in2="SourceAlpha" operator="in" result="effect1_backgroundBlur_611_2131"/>
<feBlend mode="normal" in="SourceGraphic" in2="effect1_backgroundBlur_611_2131" result="shape"/>
</filter>
<linearGradient id="paint0_linear_611_2131" x1="170.815" y1="0.5" x2="171" y2="807" gradientUnits="userSpaceOnUse">
<stop stop-color="#0085FF"/>
<stop offset="0.333333" stop-color="#00E0FF"/>
<stop offset="0.666667" stop-color="#87E245"/>
<stop offset="1" stop-color="#B8E400"/>
</linearGradient>
</defs>
</svg>
