<svg width="140" height="137" viewBox="0 0 140 137" fill="none" xmlns="http://www.w3.org/2000/svg">
<g clip-path="url(#clip0_27_944)">
<path fill-rule="evenodd" clip-rule="evenodd" d="M138.055 68.1203C138.057 80.7541 134.449 93.1253 127.656 103.778C120.864 114.43 111.169 122.92 99.714 128.248C88.2588 133.576 75.5198 135.521 62.9966 133.853C50.4734 132.185 38.6874 126.974 29.026 118.834C19.3647 110.693 12.2301 99.9617 8.46226 87.9029C4.6944 75.8441 4.45011 62.9598 7.75813 50.7669C11.0662 38.5739 17.7888 27.5797 27.1346 19.0787C36.4805 10.5777 48.0605 4.92376 60.5114 2.78235C64.2245 2.15262 67.984 1.83571 71.7501 1.83497C80.4573 1.82973 89.08 3.54053 97.1256 6.86958C105.171 10.1986 112.482 15.0807 118.64 21.2366C124.797 27.3926 129.682 34.7017 133.013 42.7463C136.345 50.7909 138.058 59.4132 138.055 68.1203Z" fill="url(#paint0_radial_27_944)"/>
<path style="mix-blend-mode:screen" fill-rule="evenodd" clip-rule="evenodd" d="M100.849 8.53619C100.58 9.00488 93.1006 22.4973 105.496 28.2014C118.121 33.9853 128.731 30.8839 127.694 38.3332C126.657 45.7824 107.361 61.359 111.499 75.37C115.638 89.381 137.976 79.5085 121.631 106.184C105.287 132.86 66.1856 128.323 66.3951 116.735C66.6045 105.147 89.3311 108.667 83.986 96.4613C78.6409 84.2553 98.0469 68.7385 76.1279 59.4344C54.209 50.1303 27.0945 50.1204 32.2501 31.3028C37.316 12.8941 59.5242 3.20106 60.4915 2.78223C44.9283 5.46529 30.8345 13.6168 20.748 25.7689C10.6616 37.921 5.24526 53.275 5.47449 69.0661C5.70372 84.8572 11.5634 100.048 21.9984 111.902C32.4334 123.756 46.7579 131.495 62.3923 133.725C78.0268 135.955 93.9438 132.53 107.277 124.066C120.61 115.603 130.483 102.656 135.119 87.5592C139.754 72.4621 138.847 56.206 132.56 41.7184C126.274 27.2308 115.021 15.4637 100.829 8.53619H100.849ZM107.142 25.9178C103.422 22.7566 104.15 20.4031 104.15 20.4031C104.15 20.4031 105.636 20.3433 108.637 23.0258C110.815 25.0567 112.863 27.2216 114.77 29.5078C111.943 29.0437 109.301 27.8005 107.142 25.9178ZM117.114 80.5257C113.384 77.3645 114.072 75.021 114.072 75.021C114.072 75.021 115.558 74.9512 118.56 77.6337C121.561 80.3162 121.402 82.3306 121.402 82.3306C121.402 82.3306 120.833 83.7068 117.114 80.5257ZM117.782 68.1202C119.298 73.4354 117.263 75.5894 113.793 71.5706C111.14 68.5191 115.239 59.2948 117.782 57.9884C120.325 56.6821 116.256 62.815 117.782 68.1202ZM121.182 54.6777C120.255 55.7846 119.357 55.3657 119.357 55.3657C119.567 53.7802 121.631 49.7913 123.017 49.6417C124.403 49.4921 122.1 53.5707 121.182 54.6777ZM31.8513 24.4818C34.1349 21.9488 34.9526 21.3206 34.9526 21.6796C34.9526 22.0386 32.7787 26.8552 31.8513 28.7698C30.9238 30.6845 29.7372 34.0451 29.7372 34.0451C28.8496 32.5892 29.5776 26.9748 31.8513 24.4818ZM80.2664 80.2564C79.7079 81.3633 79.9872 82.4603 78.601 84.1256C77.2149 85.791 76.0581 85.6414 76.9556 81.0243C77.8531 76.4071 76.3972 73.9141 77.6437 74.0437C78.8902 74.1734 81.4631 77.8332 80.2664 80.2564ZM71.7601 60.3618C72.9667 60.0627 82.8392 63.4732 84.8137 67.5618C86.7882 71.6504 84.8137 78.4714 82.9489 79.1894C81.0841 79.9074 80.8847 74.7418 78.4215 70.2144C75.9584 65.687 69.3069 60.9901 71.7601 60.3618ZM62.8848 57.5696C63.2039 56.0239 71.082 57.4699 69.5064 59.564C67.9308 61.6582 62.4959 59.4843 62.8848 57.5696ZM66.0859 112.876C65.7668 113.494 64.6698 114.112 64.0914 113.225C63.9314 113.003 63.8453 112.737 63.8454 112.464C63.8455 112.191 63.9319 111.925 64.0922 111.704C64.2525 111.483 64.4785 111.318 64.7381 111.233C64.9976 111.148 65.2773 111.147 65.5374 111.23C66.1258 111.35 66.395 112.257 66.0859 112.876ZM71.7501 105.297C75.739 105.566 75.8487 106.673 72.6077 108.189C69.3668 109.704 66.744 110.811 66.3352 109.704C65.2582 106.862 67.7313 105.007 71.7501 105.297Z" fill="url(#paint1_linear_27_944)"/>
<path fill-rule="evenodd" clip-rule="evenodd" d="M112.985 13.7418L109.076 13.3229C109.076 13.3229 111.908 23.4447 114.81 27.5732C117.712 31.7017 126.657 31.1732 129.061 34.7532C131.464 38.3333 121.083 55.1963 119.567 63.6726C118.051 72.149 125.72 77.2149 128.632 78.631C131.544 80.047 133.319 94.796 118.33 113.105C108.358 125.221 86.4193 131.434 68.5889 121.841C50.7586 112.247 64.0915 105.406 69.9053 102.345C75.9883 97.9671 75.8886 95.0054 75.2005 89.0021C74.5125 82.9988 79.1894 79.0797 73.7845 71.1518C70.5734 66.4848 55.5353 60.9802 38.6125 50.8783C20.473 40.0485 25.5488 18.2691 57.8987 3.26095L55.5253 1.82495C55.5253 1.82495 27.7228 11.4282 18.7578 38.4629C9.79274 65.4976 45.234 110.183 51.9952 123.705C58.7563 137.228 89.5007 134.884 105.227 126.328C120.953 117.772 134.047 99.9217 137.766 85.442C141.486 70.9624 135.313 43.798 132.541 37.0568C129.769 30.3156 118.051 22.1683 118.051 22.1683L112.985 13.7418Z" fill="url(#paint2_radial_27_944)"/>
<path fill-rule="evenodd" clip-rule="evenodd" d="M140.05 68.1203C140.051 80.9224 136.452 93.4668 129.663 104.321C122.874 115.174 113.17 123.9 101.658 129.501C90.1458 135.101 77.2907 137.351 64.5609 135.993C51.831 134.635 39.7398 129.724 29.6682 121.821C19.5966 113.919 11.9509 103.342 7.60429 91.3006C3.25771 79.259 2.38556 66.2377 5.08747 53.724C7.78938 41.2103 13.9564 29.7088 22.8841 20.5333C31.8118 11.3579 43.1401 4.87835 55.5752 1.83496C54.937 2.15407 34.6335 12.5651 27.3538 31.3029C19.9046 50.3299 64.5402 62.7453 71.81 71.8499C79.0797 80.9546 74.1036 86.3296 73.6947 90.0492C73.2858 93.7689 78.6808 97.7079 66.2355 104.738C53.7902 111.769 72.867 135.562 99.9615 125.84C127.056 116.117 132.87 90.4681 131.823 83.4377C130.776 76.4072 129.958 81.9817 122.299 73.4654C114.641 64.9492 131.613 43.2596 130.995 36.8375C130.377 30.4154 125.61 31.263 119.208 28.5805C112.806 25.8979 113.025 14.1407 113.035 13.7019C121.443 20.063 128.258 28.289 132.946 37.7321C137.634 47.1752 140.066 57.5777 140.05 68.1203Z" fill="url(#paint3_radial_27_944)"/>
<path style="mix-blend-mode:multiply" opacity="0.5" fill-rule="evenodd" clip-rule="evenodd" d="M60.5114 2.78223C60.5114 2.78223 46.311 9.16445 40.3277 23.4447C34.3443 37.7249 42.3919 46.6101 67.2526 49.9209C92.1134 53.2317 95.3244 61.3192 90.6275 76.8459C82.2908 104.309 107.58 109.116 110.482 99.1837C113.384 89.2514 104.419 86.0802 105.935 71.0521C108.109 49.4323 123.626 50.2001 119.178 40.9858C115.309 33.008 108.727 36.9171 97.9671 28.0219C87.207 19.1267 98.8147 7.60878 98.8147 7.60878L96.9798 6.82097C96.9798 6.82097 75.3202 13.5423 77.524 27.1942C79.7279 40.8462 88.4935 26.0973 95.6934 32.9881C98.0768 35.2617 105.765 42.7808 103.552 54.927C101.338 67.0731 102.764 88.9921 96.1422 80.5755C89.5206 72.159 96.2818 66.2355 89.7998 55.4754C83.3179 44.7154 60.4416 43.9874 54.8173 25.9776C49.193 7.96778 71.7701 1.87476 71.7701 1.87476L60.5114 2.78223Z" fill="url(#paint4_linear_27_944)"/>
<path style="mix-blend-mode:multiply" opacity="0.5" fill-rule="evenodd" clip-rule="evenodd" d="M78.1224 2.12402C78.1224 2.12402 71.1418 3.12125 63.7125 14.34C56.2832 25.5587 51.8157 32.4396 75.0908 38.1237C90.3882 41.8633 95.1749 53.82 96.1721 64.3806C97.1693 74.9412 102.155 48.8838 96.1721 41.1254C90.1888 33.367 88.6231 40.9359 75.2803 34.8229C61.9375 28.71 59.245 16.8729 68.8682 10.3012C78.4914 3.72955 96.2619 6.51179 96.2619 6.51179C90.4618 4.17213 84.3505 2.69388 78.1224 2.12402Z" fill="url(#paint5_linear_27_944)"/>
<path style="mix-blend-mode:multiply" opacity="0.5" fill-rule="evenodd" clip-rule="evenodd" d="M86.878 85.3622C86.1899 91.0164 90.2586 95.6336 92.8613 106.394C95.4641 117.154 115.069 112.945 119.936 102.325C124.802 91.7045 110.502 84.3749 108.238 77.3944C105.975 70.4138 110.582 64.8394 110.582 64.8394C110.582 64.8394 109.206 75.0509 110.233 79.1196C111.26 83.1882 123.895 85.4619 125.82 94.1477C127.744 102.833 114.79 108.109 104.03 119.248C98.2563 125.231 82.4503 128.701 75.8986 118.35C69.3468 107.999 89.5007 105.207 89.4109 100.151C89.3212 95.0951 85.5517 95.8031 84.9334 91.525C84.3151 87.2469 86.878 85.3622 86.878 85.3622Z" fill="url(#paint6_linear_27_944)"/>
<path style="mix-blend-mode:screen" opacity="0.8" fill-rule="evenodd" clip-rule="evenodd" d="M96.9599 6.79102L95.4641 6.4021C95.4641 6.4021 82.57 11.5478 78.4116 18.6779C74.2531 25.808 76.5468 32.639 79.1994 34.4938C81.852 36.3487 84.8636 31.9509 91.3854 32.0806C98.5555 32.2202 101.757 41.7337 102.504 49.1929C103.252 56.6521 100.66 74.5323 99.1039 78.2619C97.5483 81.9915 93.9184 79.0896 93.3998 63.5729C92.8813 48.0561 78.2221 47.8467 68.3895 41.4345C68.3895 41.4345 74.8415 45.3337 85.0232 50.5491C95.2048 55.7646 91.3854 70.344 94.2275 77.4741C97.0696 84.6043 100.5 84.7837 101.308 76.6364C102.116 68.4891 104.848 54.9568 103.701 47.4178C102.604 40.2379 96.9798 31.4623 91.894 30.9138C85.6314 30.1858 79.319 37.7149 77.5041 28.4407C75.1606 16.474 89.3411 8.65582 96.9599 6.79102Z" fill="url(#paint7_linear_27_944)"/>
<path style="mix-blend-mode:multiply" opacity="0.5" fill-rule="evenodd" clip-rule="evenodd" d="M58.9857 9.0249C58.9857 9.0249 47.9464 20.5129 57.091 32.0208C66.2355 43.5288 80.2165 48.0661 80.2165 48.0661C80.2165 48.0661 62.2665 39.2308 55.9541 27.8126C50.6689 18.1395 58.9857 9.0249 58.9857 9.0249Z" fill="url(#paint8_linear_27_944)"/>
<path style="mix-blend-mode:multiply" opacity="0.5" fill-rule="evenodd" clip-rule="evenodd" d="M95.4641 6.40225C95.4641 6.40225 76.816 2.12417 66.3352 11.7873C56.1934 21.1312 64.7496 30.525 73.226 34.494C81.7024 38.4629 86.1899 37.4857 86.1899 37.4857C78.9039 37.1236 72.0154 34.0546 66.8737 28.8796C58.6067 20.2736 62.9546 2.78233 95.4641 6.40225Z" fill="url(#paint9_linear_27_944)"/>
<path style="mix-blend-mode:multiply" opacity="0.5" fill-rule="evenodd" clip-rule="evenodd" d="M88.9721 85.6015C88.9721 85.6015 88.2541 102.285 102.395 102.554C115.837 102.833 108.607 88.0746 105.805 80.4259C103.003 72.7772 108.328 60.99 108.328 60.99C108.328 60.99 103.671 71.421 106.703 81.5827C109.734 91.7443 113.434 99.0939 108.248 102.305C97.4186 109.006 87.8652 97.1892 88.9721 85.6015Z" fill="url(#paint10_linear_27_944)"/>
<path style="mix-blend-mode:multiply" opacity="0.5" fill-rule="evenodd" clip-rule="evenodd" d="M76.6465 119.358C78.4328 121.137 80.5806 122.512 82.9446 123.39C85.3085 124.267 87.8334 124.627 90.3483 124.443C99.1438 123.935 102.395 119.876 106.743 116.087C111.091 112.297 116.904 108.109 116.904 108.109C112.93 111.191 109.187 114.561 105.706 118.191C99.2834 124.932 85.0231 130.048 76.6465 119.358Z" fill="url(#paint11_linear_27_944)"/>
<path style="mix-blend-mode:multiply" opacity="0.5" fill-rule="evenodd" clip-rule="evenodd" d="M88.8924 129.25C69.6161 132.64 52.2245 126.468 52.1248 118.809C52.0251 111.15 61.7779 107.291 60.8206 99.772C59.8632 92.253 67.5817 87.0874 62.8649 79.9173C58.148 72.7473 27.7128 53.2217 24.6115 40.6168C21.56 28.1715 37.2163 9.53341 37.6651 9.00488L27.6929 15.9854C27.6929 15.9854 25.2198 21.5599 16.524 31.7116C7.82821 41.8634 2.25374 60.0527 8.87529 68.1102C15.4968 76.1678 16.524 76.5866 13.632 93.5593C10.7401 110.532 28.4308 116.495 47.2484 124.284C66.066 132.072 86.4891 134.755 86.4891 134.755C97.2107 132.587 107.19 127.685 115.458 120.524C115.458 120.524 108.139 125.859 88.8924 129.25ZM62.8649 88.7129C62.2167 92.2231 58.3275 97.6081 55.2262 96.6906C52.1248 95.7732 52.2345 89.5605 55.2262 87.7156C58.2178 85.8708 63.4034 85.7511 62.8649 88.7129ZM26.7455 58.7962C29.8668 60.5314 33.7261 65.9363 31.8413 68.569C29.9566 71.2016 24.1328 69.1374 23.3151 65.6969C22.4973 62.2565 24.1128 57.3303 26.7455 58.7862V58.7962ZM33.028 54.0694C34.6834 56.2732 34.2646 57.5796 33.6463 57.9984C32.32 58.8759 28.2713 54.6178 27.1743 51.0178C26.0774 47.4179 31.3527 51.8456 33.028 54.0594V54.0694ZM14.5794 39.6894C12.2658 36.4584 17.9999 32.2402 21.4004 27.274C24.8009 22.3078 21.6098 34.7332 19.2364 38.1337C16.863 41.5343 15.0979 40.4074 14.5794 39.6794V39.6894ZM17.3916 103.861C11.1789 93.2103 24.3721 106.553 37.5654 105.715C50.7586 104.878 46.0417 116.585 41.5542 116.476C29.2086 116.186 23.5743 114.511 17.3916 103.861ZM46.5204 122.708C45.9719 122.708 38.1138 119.667 36.3886 118.42C35.172 117.553 42.2523 118.001 44.2467 119.417C46.2412 120.833 47.0689 122.778 46.5204 122.708ZM45.8224 81.4331C38.3731 74.3927 33.8557 61.9574 37.5454 60.9601C39.4102 60.4615 43.5288 63.7424 49.6018 69.0576C55.6749 74.3728 62.4859 79.3489 62.8649 81.842C63.2438 84.335 53.2915 88.5034 45.8224 81.473V81.4331Z" fill="url(#paint12_linear_27_944)"/>
<path style="mix-blend-mode:multiply" opacity="0.5" fill-rule="evenodd" clip-rule="evenodd" d="M132.591 37.1565C132.83 37.7847 134.416 42.6213 129.778 52.5337C124.792 63.2139 129.778 74.0537 133.049 79.2592C136.201 84.2453 133.319 97.0197 133.049 98.0768C148.297 63.2937 133.558 38.6922 132.591 37.1565ZM135.193 55.6749C136.39 53.8998 138.494 62.8948 136.131 63.4632C133.428 64.1214 134.007 57.45 135.193 55.6749ZM128.771 64.5602C128.682 55.3458 131.155 52.2644 132.97 52.5337C134.785 52.8029 132.491 57.779 134.306 66.4948C136.121 75.2105 137.876 79.4587 137.407 79.9972C134.755 82.909 128.861 73.7745 128.771 64.5602Z" fill="url(#paint13_linear_27_944)"/>
<path fill-rule="evenodd" clip-rule="evenodd" d="M40.1083 52.9026C46.2764 57.245 52.6818 61.2401 59.2948 64.8693C67.9208 69.3568 78.3717 73.2958 74.7318 86.4292C74.7318 86.4292 78.97 77.7434 70.5036 70.6133C62.0372 63.4831 48.7043 59.0455 40.1083 52.9026Z" fill="#CF4A20"/>
<path fill-rule="evenodd" clip-rule="evenodd" d="M113.424 18.9373C113.424 18.9373 116.186 27.5532 123.047 29.9765C123.097 29.9665 114.122 29.7372 113.424 18.9373Z" fill="#CF4A20"/>
<path fill-rule="evenodd" clip-rule="evenodd" d="M125.8 50.4197C123.982 54.6569 122.514 59.0361 121.412 63.5132C120.026 69.7159 122.259 73.645 125.151 76.3973C123.549 75.2411 122.267 73.6963 121.426 71.9082C120.585 70.12 120.213 68.1474 120.345 66.1758C120.684 60.1027 125.8 50.4197 125.8 50.4197Z" fill="#CF4A20"/>
<path fill-rule="evenodd" clip-rule="evenodd" d="M63.4233 115.538C63.4233 115.538 70.5335 131.254 94.6663 127.335C94.6663 127.335 73.236 133.678 63.4233 115.538Z" fill="#C01D20"/>
<path fill-rule="evenodd" clip-rule="evenodd" d="M75.5994 29.0691C74.8908 27.6238 74.6474 25.9943 74.9028 24.405C75.1581 22.8156 75.8997 21.3445 77.0254 20.1938C76.2162 21.507 75.6738 22.9667 75.4291 24.4896C75.1844 26.0124 75.2423 27.5686 75.5994 29.0691Z" fill="#FFB500"/>
<path fill-rule="evenodd" clip-rule="evenodd" d="M64.4006 18.9372C64.5216 17.5114 64.9389 16.1266 65.6258 14.8714C66.3126 13.6161 67.254 12.5181 68.3895 11.6475C66.9072 13.9906 65.5749 16.4254 64.4006 18.9372Z" fill="#FFB500"/>
<path fill-rule="evenodd" clip-rule="evenodd" d="M54.4683 48.0662C57.7093 49.1682 61.0487 49.9563 64.4405 50.4196C64.4405 50.4196 59.2749 53.3814 54.4683 48.0662Z" fill="#FFB500"/>
<path fill-rule="evenodd" clip-rule="evenodd" d="M88.8824 76.3972C88.2371 76.8426 87.7584 77.4901 87.5219 78.2376C87.2853 78.9852 87.3044 79.7902 87.576 80.5257L88.8824 76.3972Z" fill="#FFB500"/>
<path fill-rule="evenodd" clip-rule="evenodd" d="M32.6391 36.1194C32.5209 36.8356 32.5605 37.569 32.7551 38.2683C32.9497 38.9676 33.2947 39.616 33.7659 40.1681L32.6391 36.1194Z" fill="#FFB500"/>
<path fill-rule="evenodd" clip-rule="evenodd" d="M111.499 56.4728C112.173 55.1885 113.149 54.0867 114.341 53.2617C114.341 53.2617 114.74 56.024 111.499 56.4728Z" fill="#FFB500"/>
<path fill-rule="evenodd" clip-rule="evenodd" d="M114.242 104.659C114.913 103.372 115.889 102.27 117.084 101.448C117.084 101.448 117.483 104.21 114.242 104.659Z" fill="#FFB500"/>
<path fill-rule="evenodd" clip-rule="evenodd" d="M101.916 58.6566C101.481 57.0975 101.481 55.449 101.916 53.8899C102.331 55.4517 102.331 57.0948 101.916 58.6566Z" fill="#FFB500"/>
<path fill-rule="evenodd" clip-rule="evenodd" d="M69.7158 39.3704C69.7158 39.3704 70.6133 41.8535 74.6122 43.1997C74.6122 43.1997 74.8914 40.2978 69.7158 39.3704Z" fill="#FFB500"/>
<path fill-rule="evenodd" clip-rule="evenodd" d="M68.2499 116.805C68.2499 116.805 67.2527 119.966 69.9751 120.385L68.2499 116.805Z" fill="#FFB500"/>
<path fill-rule="evenodd" clip-rule="evenodd" d="M72.2986 120.385C72.2986 120.385 72.2986 121.382 73.5351 121.292C73.5351 121.292 73.8443 120.155 72.2986 120.385Z" fill="#FFB500"/>
<path fill-rule="evenodd" clip-rule="evenodd" d="M95.494 72.0693C95.494 72.0693 94.6463 72.6078 95.3943 73.5951C95.3943 73.5951 96.5211 73.256 95.494 72.0693Z" fill="#FFB500"/>
<path fill-rule="evenodd" clip-rule="evenodd" d="M113.374 31.4922C113.374 31.4922 113.514 32.4894 114.73 32.2202C114.73 32.2202 114.88 31.0535 113.374 31.4922Z" fill="#FFB500"/>
<path fill-rule="evenodd" clip-rule="evenodd" d="M117.363 99.2336C117.363 99.2336 116.505 99.7622 117.243 100.769C117.243 100.769 118.37 100.43 117.363 99.2336Z" fill="#FFB500"/>
<path fill-rule="evenodd" clip-rule="evenodd" d="M113.534 25.3992C114.141 26.6787 114.979 27.835 116.007 28.8097C116.007 28.8097 112.945 27.972 113.534 25.3992Z" fill="#FFB500"/>
<path fill-rule="evenodd" clip-rule="evenodd" d="M28.361 28.8097C28.361 28.8097 30.2358 22.8263 32.1504 20.1937C34.0651 17.561 41.1254 12.1062 41.1254 12.1062C35.9299 16.8877 31.61 22.5406 28.361 28.8097Z" fill="#CF4A20"/>
<path fill-rule="evenodd" clip-rule="evenodd" d="M132.042 36.1294L136.39 40.1681V46.1814L138.055 48.0661V51.8855L132.042 36.1294Z" fill="url(#paint14_radial_27_944)"/>
<path fill-rule="evenodd" clip-rule="evenodd" d="M4.42767 56.8916L0 67.5818L2.21383 73.1364V74.9912L4.28806 78.4316L4.42767 79.5385L3.51023 81.3335L5.98333 87.6758L9.80269 96.7506L10.4808 99.2037L11.3983 99.9716C11.3983 99.9716 2.79222 76.477 4.42767 56.8916Z" fill="url(#paint15_radial_27_944)"/>
<path fill-rule="evenodd" clip-rule="evenodd" d="M115.478 120.534L119.358 118.6L120.355 116.805L122.1 114.232L126.627 110.153L131.075 108.348L132.012 103.053L135.004 93.0808C135.004 93.0808 125.451 110.193 115.478 120.534Z" fill="url(#paint16_radial_27_944)"/>
<g style="mix-blend-mode:screen" opacity="0.24">
<path fill-rule="evenodd" clip-rule="evenodd" d="M139.88 68.1202C139.883 81.1018 136.176 93.8139 129.197 104.76C122.217 115.706 112.256 124.43 100.486 129.905C88.7155 135.381 75.6258 137.379 62.7577 135.666C49.8897 133.952 37.779 128.598 27.8514 120.234C17.9238 111.869 10.5926 100.842 6.72075 88.4517C2.84895 76.0609 2.59775 62.8219 5.99673 50.2931C9.39571 37.7644 16.3034 26.4675 25.9065 17.7324C35.5097 8.99725 47.4085 3.18756 60.2023 0.987224C64.0167 0.330624 67.8797 -0.00296606 71.7502 -0.00999807C80.6973 -0.0152418 89.5577 1.74315 97.8248 5.16466C106.092 8.58616 113.604 13.6037 119.93 19.9303C126.257 26.2569 131.274 33.7685 134.696 42.0355C138.117 50.3026 139.876 59.1631 139.87 68.1102L139.88 68.1202Z" fill="#753BB8"/>
</g>
<path style="mix-blend-mode:multiply" fill-rule="evenodd" clip-rule="evenodd" d="M139.88 68.1203C139.883 81.1019 136.176 93.814 129.197 104.76C122.217 115.706 112.256 124.43 100.486 129.905C88.7155 135.381 75.6258 137.379 62.7577 135.666C49.8897 133.952 37.779 128.598 27.8514 120.234C17.9238 111.869 10.5926 100.843 6.72075 88.4518C2.84895 76.061 2.59775 62.8219 5.99673 50.2932C9.39571 37.7645 16.3034 26.4676 25.9065 17.7324C35.5097 8.99734 47.4085 3.18765 60.2023 0.987315C63.9519 0.349093 67.8111 1.84493 71.7502 1.84493C81.8388 1.76864 91.8037 4.06771 100.839 8.55623C123.486 19.6154 139.88 41.2252 139.88 68.1203Z" fill="url(#paint17_radial_27_944)"/>
<path style="mix-blend-mode:color-dodge" fill-rule="evenodd" clip-rule="evenodd" d="M137.766 85.4718C137.771 85.432 137.771 85.3919 137.766 85.3521C139.26 79.7291 140.027 73.938 140.05 68.1201C140.05 66.6442 140 65.1783 139.9 63.7323C139.708 59.4828 139.107 55.2617 138.105 51.1275V48.066L136.809 46.5901C136.689 46.2211 136.56 45.8621 136.44 45.5131V40.168L132.182 36.1791C131.93 35.6901 131.654 35.2142 131.354 34.7531C126.756 26.5569 120.52 19.3945 113.035 13.7117L109.315 13.3128C106.616 11.5313 103.805 9.92573 100.899 8.50618C96.2209 6.19561 91.2826 4.45465 86.1899 3.32063C83.8023 2.76922 81.3802 2.37942 78.9401 2.15388C76.6265 1.92452 74.2532 1.79488 71.81 1.79488C67.8709 1.79488 64.0117 0.299044 60.2621 0.937266C58.7264 1.19654 57.2206 1.50569 55.7248 1.86469L55.5852 1.78491C42.6003 4.95483 30.8314 11.8661 21.7376 21.6619C12.6438 31.4577 6.62509 43.7071 4.42767 56.8914L1.94458 68.4193L2.21383 73.1362V74.991L4.28806 78.4314L4.42767 79.5383L3.51023 81.3333L5.98333 87.6756L7.97778 92.4124C8.52957 93.8484 9.12126 95.2578 9.75283 96.6407V96.7504L10.4309 99.2035L12.6348 100.45C12.3092 100.533 11.9735 100.57 11.6376 100.56C17.4003 111.458 26.0502 120.561 36.6404 126.871C47.2306 133.182 59.3529 136.458 71.6803 136.34C76.9015 136.36 82.1078 135.781 87.1971 134.615C97.6662 132.38 107.401 127.536 115.498 120.534L115.409 120.594L115.558 120.464L115.498 120.534L119.377 118.6L120.375 116.804L122.1 114.232L126.627 110.153L128.801 107.71L132.072 103.053L134.525 94.9952C135.768 92.0994 136.808 89.1205 137.637 86.0801L137.766 85.4718Z" fill="url(#paint18_radial_27_944)"/>
</g>
<defs>
<radialGradient id="paint0_radial_27_944" cx="0" cy="0" r="1" gradientUnits="userSpaceOnUse" gradientTransform="translate(84.3251 28.0623) scale(92.7516 103.882)">
<stop offset="0.03" stop-color="#FF9800"/>
<stop offset="0.29" stop-color="#FF6720"/>
<stop offset="0.89" stop-color="#C70014"/>
<stop offset="1" stop-color="#EC43AC"/>
</radialGradient>
<linearGradient id="paint1_linear_27_944" x1="71.7501" y1="134.426" x2="71.7501" y2="2.78223" gradientUnits="userSpaceOnUse">
<stop offset="0.01"/>
<stop offset="0.23" stop-color="#3E1A02"/>
<stop offset="0.61" stop-color="#A54606"/>
<stop offset="0.87" stop-color="#E66208"/>
<stop offset="0.99" stop-color="#FF6D09"/>
</linearGradient>
<radialGradient id="paint2_radial_27_944" cx="0" cy="0" r="1" gradientUnits="userSpaceOnUse" gradientTransform="translate(89.6503 27.8389) scale(90.5777 101.447)">
<stop stop-color="#BD3D20"/>
<stop offset="0.82" stop-color="#680014"/>
</radialGradient>
<radialGradient id="paint3_radial_27_944" cx="0" cy="0" r="1" gradientUnits="userSpaceOnUse" gradientTransform="translate(84.6941 28.4644) scale(94.3871 105.714)">
<stop offset="0.03" stop-color="#FF6300"/>
<stop offset="0.29" stop-color="#CC3C20"/>
<stop offset="0.49" stop-color="#9E221B"/>
<stop offset="0.66" stop-color="#7D1017"/>
<stop offset="0.8" stop-color="#680415"/>
<stop offset="0.89" stop-color="#610014"/>
<stop offset="1" stop-color="#A4217F"/>
</radialGradient>
<linearGradient id="paint4_linear_27_944" x1="79.1994" y1="103.901" x2="79.1994" y2="1.8249" gradientUnits="userSpaceOnUse">
<stop offset="0.01" stop-color="#B600A4"/>
<stop offset="0.06" stop-color="#BC13A5"/>
<stop offset="0.25" stop-color="#D053AA"/>
<stop offset="0.44" stop-color="#E189AF"/>
<stop offset="0.62" stop-color="#EEB2B2"/>
<stop offset="0.77" stop-color="#F7D0B4"/>
<stop offset="0.9" stop-color="#FDE3B5"/>
<stop offset="1" stop-color="#FFE9B6"/>
</linearGradient>
<linearGradient id="paint5_linear_27_944" x1="78.4116" y1="66.8737" x2="78.4116" y2="2.12402" gradientUnits="userSpaceOnUse">
<stop stop-color="#FFE9B6"/>
<stop offset="0.1" stop-color="#FDE3B5"/>
<stop offset="0.23" stop-color="#F7D0B4"/>
<stop offset="0.38" stop-color="#EEB2B2"/>
<stop offset="0.56" stop-color="#E189AF"/>
<stop offset="0.75" stop-color="#D053AA"/>
<stop offset="0.94" stop-color="#BC13A5"/>
<stop offset="0.99" stop-color="#B600A4"/>
</linearGradient>
<linearGradient id="paint6_linear_27_944" x1="100.321" y1="124.932" x2="100.321" y2="64.8094" gradientUnits="userSpaceOnUse">
<stop offset="0.01" stop-color="#B600A4"/>
<stop offset="0.06" stop-color="#BC13A5"/>
<stop offset="0.25" stop-color="#D053AA"/>
<stop offset="0.44" stop-color="#E189AF"/>
<stop offset="0.62" stop-color="#EEB2B2"/>
<stop offset="0.77" stop-color="#F7D0B4"/>
<stop offset="0.9" stop-color="#FDE3B5"/>
<stop offset="1" stop-color="#FFE9B6"/>
</linearGradient>
<linearGradient id="paint7_linear_27_944" x1="86.1799" y1="82.8292" x2="86.1799" y2="6.4021" gradientUnits="userSpaceOnUse">
<stop offset="0.01"/>
<stop offset="0.23" stop-color="#3E1A02"/>
<stop offset="0.61" stop-color="#A54606"/>
<stop offset="0.87" stop-color="#E66208"/>
<stop offset="0.99" stop-color="#FF6D09"/>
</linearGradient>
<linearGradient id="paint8_linear_27_944" x1="66.8637" y1="48.0661" x2="66.8637" y2="8.99499" gradientUnits="userSpaceOnUse">
<stop stop-color="#FFE9B6"/>
<stop offset="0.1" stop-color="#FDE3B5"/>
<stop offset="0.23" stop-color="#F7D0B4"/>
<stop offset="0.38" stop-color="#EEB2B2"/>
<stop offset="0.56" stop-color="#E189AF"/>
<stop offset="0.75" stop-color="#D053AA"/>
<stop offset="0.94" stop-color="#BC13A5"/>
<stop offset="0.99" stop-color="#B600A4"/>
</linearGradient>
<linearGradient id="paint9_linear_27_944" x1="78.5911" y1="37.5754" x2="78.5911" y2="5.45489" gradientUnits="userSpaceOnUse">
<stop stop-color="#FFE9B6"/>
<stop offset="0.1" stop-color="#FDE3B5"/>
<stop offset="0.23" stop-color="#F7D0B4"/>
<stop offset="0.38" stop-color="#EEB2B2"/>
<stop offset="0.56" stop-color="#E189AF"/>
<stop offset="0.75" stop-color="#D053AA"/>
<stop offset="0.94" stop-color="#BC13A5"/>
<stop offset="0.99" stop-color="#B600A4"/>
</linearGradient>
<linearGradient id="paint10_linear_27_944" x1="99.8618" y1="104.259" x2="99.8618" y2="61" gradientUnits="userSpaceOnUse">
<stop offset="0.01" stop-color="#B600A4"/>
<stop offset="0.06" stop-color="#BC13A5"/>
<stop offset="0.25" stop-color="#D053AA"/>
<stop offset="0.44" stop-color="#E189AF"/>
<stop offset="0.62" stop-color="#EEB2B2"/>
<stop offset="0.77" stop-color="#F7D0B4"/>
<stop offset="0.9" stop-color="#FDE3B5"/>
<stop offset="1" stop-color="#FFE9B6"/>
</linearGradient>
<linearGradient id="paint11_linear_27_944" x1="96.7704" y1="125.51" x2="96.7704" y2="108.099" gradientUnits="userSpaceOnUse">
<stop offset="0.01" stop-color="#B600A4"/>
<stop offset="0.06" stop-color="#BC13A5"/>
<stop offset="0.25" stop-color="#D053AA"/>
<stop offset="0.44" stop-color="#E189AF"/>
<stop offset="0.62" stop-color="#EEB2B2"/>
<stop offset="0.77" stop-color="#F7D0B4"/>
<stop offset="0.9" stop-color="#FDE3B5"/>
<stop offset="1" stop-color="#FFE9B6"/>
</linearGradient>
<linearGradient id="paint12_linear_27_944" x1="48.2215" y1="124.577" x2="82.2866" y2="23.4458" gradientUnits="userSpaceOnUse">
<stop offset="0.01" stop-color="#6A005E"/>
<stop offset="0.1" stop-color="#730E63"/>
<stop offset="0.29" stop-color="#8A3171"/>
<stop offset="0.53" stop-color="#AF6B87"/>
<stop offset="0.84" stop-color="#E1BBA4"/>
<stop offset="1" stop-color="#FFE9B6"/>
</linearGradient>
<linearGradient id="paint13_linear_27_944" x1="133.797" y1="98.0768" x2="133.797" y2="37.1565" gradientUnits="userSpaceOnUse">
<stop offset="0.01" stop-color="#6A005E"/>
<stop offset="0.06" stop-color="#761365"/>
<stop offset="0.25" stop-color="#9F537D"/>
<stop offset="0.44" stop-color="#C18992"/>
<stop offset="0.62" stop-color="#DCB2A1"/>
<stop offset="0.77" stop-color="#EFD0AD"/>
<stop offset="0.9" stop-color="#FBE3B4"/>
<stop offset="1" stop-color="#FFE9B6"/>
</linearGradient>
<radialGradient id="paint14_radial_27_944" cx="0" cy="0" r="1" gradientUnits="userSpaceOnUse" gradientTransform="translate(135.622 38.6492) scale(10.0121 11.2136)">
<stop stop-color="#BD3D20"/>
<stop offset="0.82" stop-color="#680014"/>
</radialGradient>
<radialGradient id="paint15_radial_27_944" cx="0" cy="0" r="1" gradientUnits="userSpaceOnUse" gradientTransform="translate(6.78111 65.009) scale(27.1045 30.357)">
<stop stop-color="#430020"/>
<stop offset="0.82" stop-color="#2C0014"/>
</radialGradient>
<radialGradient id="paint16_radial_27_944" cx="0" cy="0" r="1" gradientUnits="userSpaceOnUse" gradientTransform="translate(127.136 98.0577) scale(18.1893 20.372)">
<stop stop-color="#430020"/>
<stop offset="0.82" stop-color="#220014"/>
</radialGradient>
<radialGradient id="paint17_radial_27_944" cx="0" cy="0" r="1" gradientUnits="userSpaceOnUse" gradientTransform="translate(88.3339 15.3274) scale(148.516 148.516)">
<stop stop-color="white"/>
<stop offset="0.14" stop-color="#FDFCFE"/>
<stop offset="0.22" stop-color="#F8F4FA"/>
<stop offset="0.3" stop-color="#EFE5F3"/>
<stop offset="0.36" stop-color="#E3D0EA"/>
<stop offset="0.42" stop-color="#D3B5DD"/>
<stop offset="0.48" stop-color="#BF94CE"/>
<stop offset="0.53" stop-color="#A76CBC"/>
<stop offset="0.58" stop-color="#8B3EA7"/>
<stop offset="0.63" stop-color="#6D0C90"/>
<stop offset="0.64" stop-color="#66008B"/>
<stop offset="0.79" stop-color="#4F0060"/>
</radialGradient>
<radialGradient id="paint18_radial_27_944" cx="0" cy="0" r="1" gradientUnits="userSpaceOnUse" gradientTransform="translate(62.3064 78.4414) scale(92.1433 92.1433)">
<stop offset="0.74"/>
<stop offset="0.78" stop-color="#301B00"/>
<stop offset="0.82" stop-color="#6E3E00"/>
<stop offset="0.87" stop-color="#A25B00"/>
<stop offset="0.91" stop-color="#CA7200"/>
<stop offset="0.94" stop-color="#E78300"/>
<stop offset="0.98" stop-color="#F98C00"/>
<stop offset="1" stop-color="#FF9000"/>
</radialGradient>
<clipPath id="clip0_27_944">
<rect width="140" height="136.37" fill="white"/>
</clipPath>
</defs>
</svg>
