<svg width="140" height="141" viewBox="0 0 140 141" fill="none" xmlns="http://www.w3.org/2000/svg">
<path fill-rule="evenodd" clip-rule="evenodd" d="M135.75 68.7496C135.971 81.27 132.609 93.5928 126.062 104.267C119.515 114.942 110.054 123.523 98.7937 129.001C87.5333 134.48 74.9419 136.627 62.5023 135.19C50.0627 133.753 38.2926 128.791 28.5778 120.89C18.8631 112.988 11.6081 102.476 7.66712 90.5896C3.7261 78.7036 3.26314 65.939 6.33271 53.7987C9.40228 41.6583 15.8766 30.6478 24.9934 22.0633C34.1102 13.4788 45.49 7.6778 57.7928 5.3433C67.1959 3.55583 76.8759 3.84453 86.1558 6.18924C95.4356 8.53394 104.091 12.878 111.517 18.9175C118.942 24.957 124.958 32.546 129.144 41.1536C133.33 49.7612 135.585 59.1796 135.75 68.7496Z" fill="url(#paint0_radial_27_2734)"/>
<path style="mix-blend-mode:screen" fill-rule="evenodd" clip-rule="evenodd" d="M41.0409 32.1898C44.424 42.4301 59.6117 39.2834 74.7811 42.3028C89.9506 45.3221 89.0594 27.0969 98.554 23.7501C108.049 20.4034 100.809 33.8267 115.069 43.7578C129.33 53.6889 133.913 56.8175 123.109 62.5469C112.305 68.2764 117.489 81.6452 107.721 84.1007C97.9538 86.5562 92.9882 91.158 84.203 86.4835C75.4177 81.8089 73.9627 75.843 68.015 75.4428C62.0672 75.0427 51.2994 80.0264 41.0409 77.9347C30.7824 75.843 39.3129 71.3321 42.1686 61.401C45.0242 51.4699 39.6222 42.9394 36.5301 37.1008C33.438 31.2622 36.7483 22.7498 36.7483 22.7498C36.7483 22.7498 35.2204 32.4808 40.2406 39.3562C45.2607 46.2316 46.2975 58.4908 46.5339 67.0214C46.7704 75.5519 61.4487 69.9316 73.4352 72.8418C85.4216 75.752 99.7544 84.61 108.194 77.1889C116.634 69.7679 113.105 63.5655 119.107 58.5272C125.11 53.4889 106.503 52.1065 101.992 42.7029C97.4809 33.2993 93.2792 37.2463 83.0207 44.0853C72.7622 50.9243 66.9054 45.2311 55.974 43.7578C41.3501 41.7753 41.0409 32.1898 41.0409 32.1898Z" fill="url(#paint1_linear_27_2734)"/>
<path style="mix-blend-mode:screen" fill-rule="evenodd" clip-rule="evenodd" d="M101.937 47.5231C98.299 39.8292 92.4968 40.7568 84.0026 47.5231C75.5084 54.2893 66.2685 47.5231 56.8467 45.7042C47.4249 43.8853 45.1512 47.2866 45.6605 49.7421C46.8428 55.417 47.916 67.7491 52.4268 69.7498C56.9376 71.7506 65.6501 67.3671 78.5642 72.3872C91.4782 77.4074 100.1 78.335 107.175 67.9855C114.251 57.6361 105.538 55.217 101.937 47.5231ZM105.829 65.3663C101.227 75.5157 87.4767 73.6605 77.7274 70.3865C67.9782 67.1125 57.356 70.3865 53.5545 68.4402C49.753 66.494 45.8606 51.6338 47.7158 49.1601C52.4268 42.8122 64.7225 53.4709 74.0534 52.4341C83.3842 51.3973 93.0243 41.2843 95.7344 43.7216C98.4446 46.1589 110.449 55.217 105.829 65.3663Z" fill="url(#paint2_linear_27_2734)"/>
<path style="mix-blend-mode:multiply" opacity="0.3" fill-rule="evenodd" clip-rule="evenodd" d="M91.4425 53.1798C88.8597 49.2328 84.6399 49.7057 78.5103 53.1798C72.3806 56.6538 65.778 53.1797 58.9026 52.2885C52.0273 51.3972 50.4812 53.0888 50.845 54.3438C51.6999 57.254 52.4638 63.5838 55.7196 64.6569C58.9754 65.73 65.2687 63.4383 74.5814 66.0211C83.8941 68.6039 90.1147 69.0586 95.2076 63.7475C100.3 58.4363 94.0435 57.1267 91.4425 53.1798ZM94.2617 62.2742C90.9332 67.4762 81.0202 66.5303 73.9811 64.857C66.9421 63.1836 59.2846 64.857 56.5381 63.8566C53.7916 62.8562 50.9905 55.2351 52.3183 53.9619C55.7378 50.7061 64.5958 56.1627 71.3256 55.6353C78.0555 55.1078 85.0218 49.9058 87.0044 51.179C88.987 52.4522 97.5539 57.1267 94.2617 62.3287V62.2742Z" fill="url(#paint3_linear_27_2734)"/>
<path fill-rule="evenodd" clip-rule="evenodd" d="M118.871 19.8394L119.035 20.0213C118.988 19.9478 118.926 19.8857 118.853 19.8394H118.871Z" fill="url(#paint4_radial_27_2734)"/>
<path fill-rule="evenodd" clip-rule="evenodd" d="M137.569 51.9429C137.585 51.871 137.585 51.7964 137.569 51.7246V51.9429Z" fill="url(#paint5_radial_27_2734)"/>
<path fill-rule="evenodd" clip-rule="evenodd" d="M118.853 19.8395L116.797 23.7138L115.997 22.9135L112.578 22.7134H109.977L99.7181 16.6929L95.3528 19.9305L91.9333 21.622L87.2224 26.2602V31.8078L79.3648 40.3929L74.5812 40.0655L51.063 36.3186L48.8803 35.6275L45.4608 31.535L43.7147 25.2234L38.7492 22.095L38.2944 19.1302L47.4434 15.0559L94.0432 10.345L118.853 19.8395Z" fill="#FF2300"/>
<path fill-rule="evenodd" clip-rule="evenodd" d="M137.605 51.7245L133.913 54.3619L133.04 51.1061L132.312 51.7245L121.599 43.7214L115.924 39.5925L110.795 36.3731L107.721 27.8971L108.612 26.7512L134.44 46.5589L137.605 51.7245Z" fill="#FF2300"/>
<path fill-rule="evenodd" clip-rule="evenodd" d="M117.416 43.7214L116.943 45.0674H112.923L107.103 43.1394L105.848 40.5565V39.1196L117.416 43.7214Z" fill="#FF2300"/>
<path fill-rule="evenodd" clip-rule="evenodd" d="M113.942 45.3584L111.959 46.0132V54.3619L115.233 59.2729L116.815 62.0194H121.526L113.942 45.3584Z" fill="#FF2300"/>
<path fill-rule="evenodd" clip-rule="evenodd" d="M92.406 39.3201L92.8971 40.5569L89.6776 42.0848L86.8038 42.6668L82.3657 41.1571L82.9841 39.3201H92.406Z" fill="#FF2300"/>
<path fill-rule="evenodd" clip-rule="evenodd" d="M68.0147 41.1572L68.4149 42.3213L65.25 46.6684H60.8301L54.5368 47.5233H51.9176L49.5712 46.4138L41.0588 46.0864V43.1034L68.0147 41.1572Z" fill="#FF2300"/>
<path fill-rule="evenodd" clip-rule="evenodd" d="M38.3122 7.58008L40.2402 11.3452L37.0572 15.0193L35.8204 19.039L33.8742 32.6625L32.9829 37.719L36.6207 40.3927L39.8219 45.3583V50.3966L38.003 69.695L26.7987 76.5158L22.1605 82.9364L19.2321 97.051L18.2863 103.181H13.3935H8.5553L13.0661 73.4601L30.291 20.0212L38.3122 7.58008Z" fill="#FF2300"/>
<path fill-rule="evenodd" clip-rule="evenodd" d="M60.012 62.0195L60.7396 64.9479V70.7866L58.4842 76.516L48.8441 77.1526L43.0964 73.915L60.012 62.0195Z" fill="#FF2300"/>
<path fill-rule="evenodd" clip-rule="evenodd" d="M71.2889 77.8987H70.6705L60.0118 81.6638L35.0022 80.3178L29.4 80.7543L60.7394 85.4471L71.2889 77.8987Z" fill="#FF2300"/>
<path fill-rule="evenodd" clip-rule="evenodd" d="M111.686 88.939L109.831 87.593L97.6447 85.9561L90.3692 92.5222L91.7333 96.2327L89.0232 98.3608V106.164L89.9508 107.583L98.154 101.126L111.686 88.939Z" fill="#FF2300"/>
<path fill-rule="evenodd" clip-rule="evenodd" d="M119.271 104.327L115.069 102.253H111.632H103.683L89.9505 112.712H86.2582L82.3658 116.204L80.9288 118.86L90.8781 120.588L111.959 113.53L119.271 104.327Z" fill="#FF2300"/>
<path fill-rule="evenodd" clip-rule="evenodd" d="M127.62 109.619L123.109 108.692L120.799 103.18L120.199 97.742L117.416 92.2126L120.599 84.064L120.089 69.8949L124.4 65.6569L127.474 64.8566L128.675 65.7297L134.44 58.4905L134.531 57.1082L138.933 57.7084L132.913 95.2865L127.62 109.619Z" fill="#FF2300"/>
<path fill-rule="evenodd" clip-rule="evenodd" d="M14.6489 98.6334L8.55569 103.181C4.11488 94.975 1.36085 85.9637 0.455866 76.6774C-0.449122 67.3911 0.513163 58.0177 3.2861 49.109C6.05904 40.2003 10.5866 31.9366 16.602 24.8044C22.6175 17.6722 29.9992 11.8158 38.3126 7.58008L35.7116 15.274L33.238 20.0576L32.8377 29.7523L32.4194 34.6996L31.4009 36.373L36.1117 40.1745L38.3672 45.3583L34.8931 68.4581L17.4501 81.3904L15.6312 88.6659L14.6489 98.6334Z" fill="url(#paint6_radial_27_2734)"/>
<path fill-rule="evenodd" clip-rule="evenodd" d="M78.8734 108.038L73.9988 119.951L76.6908 124.044V135.266L71.2342 139.813C58.9558 140.035 46.8357 137.018 36.0942 131.066C25.3526 125.114 16.3688 116.438 10.0469 105.909L17.0495 99.2888V87.1386L19.7779 83.6282L29.3452 80.7543L59.4114 83.6282L71.2342 77.8987L82.9114 88.812V100.453L78.8734 108.038Z" fill="url(#paint7_radial_27_2734)"/>
<path fill-rule="evenodd" clip-rule="evenodd" d="M118.853 19.8398L113.996 21.0584H109.012L100.809 15.2744L98.5537 16.9478L95.6798 19.1304L91.3873 21.0584L86.6582 26.2059V31.0259L77.5638 38.1196L50.8989 34.7001L45.6605 31.0623L43.9327 24.9872L38.1849 19.1668L40.2403 12.8735L41.7682 5.94353C46.6223 3.80027 51.7058 2.21969 56.9194 1.23262C60.8193 0.499069 64.7744 0.0974702 68.7422 0.0321531C77.9777 -0.132958 87.1542 1.53598 95.7402 4.94227C104.326 8.34857 112.151 13.4245 118.761 19.8762L118.853 19.8398Z" fill="url(#paint8_radial_27_2734)"/>
<path fill-rule="evenodd" clip-rule="evenodd" d="M119.271 104.327L125.255 112.839C115.436 125.47 101.581 134.35 86.0036 137.994L85.2395 135.612L83.4207 134.029L84.0391 122.607L80.9652 118.86L86.8948 113.676L91.8239 114.458L104.738 103.181H114.578L119.271 104.327Z" fill="url(#paint9_radial_27_2734)"/>
<path fill-rule="evenodd" clip-rule="evenodd" d="M112.705 23.7136H122.545C129.657 31.7621 134.806 41.3501 137.587 51.7244L133.95 47.923L132.513 49.7418L122.545 43.1029L111.632 35.6273L108.613 26.733L112.705 23.7136Z" fill="url(#paint10_radial_27_2734)"/>
<path fill-rule="evenodd" clip-rule="evenodd" d="M139.97 68.6765C140.25 83.2818 135.929 97.6053 127.62 109.62L123.163 104.327L121.508 97.3421L119.053 91.0124L121.326 85.4466L122.545 69.695L126.019 66.3119L127.474 64.8568L129.293 66.1846L136.878 57.7268H138.915C139.553 61.3434 139.906 65.0046 139.97 68.6765Z" fill="url(#paint11_radial_27_2734)"/>
<path fill-rule="evenodd" clip-rule="evenodd" d="M42.3865 73.6238L39.1125 68.4582L40.7495 60.9098L43.8235 58.4907L58.1745 62.0194H60.0115V68.4582L58.3745 75.1699L49.5711 76.5159L42.3865 73.6238Z" fill="url(#paint12_radial_27_2734)"/>
<path fill-rule="evenodd" clip-rule="evenodd" d="M89.9503 99.2886V107.583H94.4611L104.101 101.289L109.631 100.434L113.941 95.3234L111.686 88.9391L97.9534 86.52L90.9689 93.9592L92.0057 97.0514L89.9503 99.2886Z" fill="url(#paint13_radial_27_2734)"/>
<path fill-rule="evenodd" clip-rule="evenodd" d="M112.505 85.2467V82.6821L115.997 79.6082L118.853 86.4472L113.942 88.5207L112.505 85.2467Z" fill="url(#paint14_radial_27_2734)"/>
<path fill-rule="evenodd" clip-rule="evenodd" d="M121.527 62.0194L125.255 55.9989L121.527 47.5229L113.942 45.3584V53.6889L117.216 58.4907L121.527 62.0194Z" fill="url(#paint15_radial_27_2734)"/>
<path fill-rule="evenodd" clip-rule="evenodd" d="M82.9843 39.3199L85.4761 35.4093L90.9692 34.7L92.4061 39.3199L87.6952 41.157L82.9843 39.3199Z" fill="url(#paint16_radial_27_2734)"/>
<path fill-rule="evenodd" clip-rule="evenodd" d="M62.7945 39.211L53.8638 37.0647H47.916L44.442 39.211L41.0588 43.5217L42.3866 45.3588L51.4083 45.9772L53.6637 47.1049L64.7407 46.0864L68.0147 41.1572L66.4686 40.1386L62.7945 39.211Z" fill="url(#paint17_radial_27_2734)"/>
<path fill-rule="evenodd" clip-rule="evenodd" d="M116.506 41.1572L112.505 38.1015L108.194 37.0647L105.848 39.12L107.885 42.8124L112.505 43.7218H115.07H117.416L116.506 41.1572Z" fill="url(#paint18_radial_27_2734)"/>
<path fill-rule="evenodd" clip-rule="evenodd" d="M79.3646 76.5161L80.7288 79.6082L83.5299 81.6636L85.9854 81.2088L87.6224 79.972L83.93 77.1527L81.8929 76.5161H79.3646Z" fill="#FF5100"/>
<path fill-rule="evenodd" clip-rule="evenodd" d="M87.9681 79.0986L88.241 79.226L89.0231 79.6079H90.2963L89.4051 79.0986L88.7139 78.553L87.9681 79.0986Z" fill="#FF5100"/>
<path fill-rule="evenodd" clip-rule="evenodd" d="M96.2988 73.8966L98.627 72.6052H100.882L100.355 73.2418L98.5906 74.3695H96.6444L96.2988 73.8966Z" fill="#FF5100"/>
<path fill-rule="evenodd" clip-rule="evenodd" d="M108.139 63.2382V62.0195L108.612 61.4011L109.158 62.0195L108.612 63.511L108.139 63.2382Z" fill="#FF5100"/>
<path fill-rule="evenodd" clip-rule="evenodd" d="M111.959 76.5159L112.505 75.4064L113.942 74.988V77.8982L111.959 78.553L111.268 77.1525L111.959 76.5159Z" fill="#FF5100"/>
<path fill-rule="evenodd" clip-rule="evenodd" d="M97.1537 34.6998L100.246 36.7551L101.737 36.4459L102.101 35.3182L101.628 32.3898L98.2632 32.1897L97.1537 33.8813V34.6998Z" fill="#FF5100"/>
<path fill-rule="evenodd" clip-rule="evenodd" d="M103.429 35.3729L104.356 34.7L104.975 35.3729L104.193 36.3551L103.429 35.8822V35.3729Z" fill="#FF5100"/>
<g opacity="0.3">
<path fill-rule="evenodd" clip-rule="evenodd" d="M43.4418 127.79L44.8059 130.882L47.607 132.938L50.0807 132.483L51.7177 131.246L48.0254 128.409L45.97 127.79H43.4418Z" fill="#FF5100"/>
<path fill-rule="evenodd" clip-rule="evenodd" d="M52.0635 130.373L52.3363 130.501L53.1184 130.883H54.3735L53.5004 130.373L52.8092 129.828L52.0635 130.373Z" fill="#FF5100"/>
<path fill-rule="evenodd" clip-rule="evenodd" d="M60.3942 125.171L62.7223 123.88H64.9778L64.4503 124.516L62.686 125.644H60.7398L60.3942 125.171Z" fill="#FF5100"/>
<path fill-rule="evenodd" clip-rule="evenodd" d="M16.2498 110.056L18.1778 111.893L18.8508 114.058L18.0686 113.73L16.468 112.384L15.9042 110.529L16.2498 110.056Z" fill="#FF5100"/>
<path fill-rule="evenodd" clip-rule="evenodd" d="M89.5144 118.914V117.696L89.9873 117.077L90.533 117.696L89.9873 119.187L89.5144 118.914Z" fill="#FF5100"/>
<path fill-rule="evenodd" clip-rule="evenodd" d="M64.923 92.213V90.9944L65.4141 90.376L65.9597 90.9944L65.4141 92.4859L64.923 92.213Z" fill="#FF5100"/>
<path fill-rule="evenodd" clip-rule="evenodd" d="M130.003 44.1215V42.921L130.476 42.2844L131.021 42.921L130.476 44.3943L130.003 44.1215Z" fill="#FF5100"/>
<path fill-rule="evenodd" clip-rule="evenodd" d="M93.9889 92.9953V91.7766L94.48 91.1582L95.0257 91.7766L94.48 93.2681L93.9889 92.9953Z" fill="#FF5100"/>
<path fill-rule="evenodd" clip-rule="evenodd" d="M11.4658 88.8117V87.593L11.9569 86.9746L12.5026 87.593L11.9569 89.0845L11.4658 88.8117Z" fill="#FF5100"/>
<path fill-rule="evenodd" clip-rule="evenodd" d="M93.334 132.21L93.8797 131.083L95.3166 130.664V133.575L93.334 134.229L92.6428 132.829L93.334 132.21Z" fill="#FF5100"/>
<path fill-rule="evenodd" clip-rule="evenodd" d="M61.249 85.9742L64.3411 88.0295L65.8326 87.7203L66.1782 86.5926L65.7235 83.6642L62.3404 83.4641L61.249 85.1557V85.9742Z" fill="#FF5100"/>
<path fill-rule="evenodd" clip-rule="evenodd" d="M83.0026 10.3995L86.1129 12.4548L87.5862 12.1456L87.9499 11.0179L87.4952 8.08948L84.1121 7.8894L83.0026 9.58097V10.3995Z" fill="#FF5100"/>
<path fill-rule="evenodd" clip-rule="evenodd" d="M123.073 82.9187L125.783 84.9741L127.074 84.6649L127.383 83.5372L126.983 80.6088L124.018 80.4087L123.073 82.1003V82.9187Z" fill="#FF5100"/>
<path fill-rule="evenodd" clip-rule="evenodd" d="M23.5071 88.3571L26.6174 90.4124L28.0907 90.1032L28.4544 88.9937L27.9997 86.0653L24.6166 85.8652L23.5071 87.5568V88.3571Z" fill="#FF5100"/>
<path fill-rule="evenodd" clip-rule="evenodd" d="M67.5239 86.6471L68.4334 85.9741L69.0518 86.6471L68.2879 87.6111L67.5239 87.1564V86.6471Z" fill="#FF5100"/>
<path fill-rule="evenodd" clip-rule="evenodd" d="M120.545 30.0072L121.472 29.3342L122.091 30.0072L121.327 30.9894L120.545 30.5165V30.0072Z" fill="#FF5100"/>
<path fill-rule="evenodd" clip-rule="evenodd" d="M98.8632 95.2138L99.7726 94.5408L100.391 95.2138L99.6271 96.1778L98.8632 95.723V95.2138Z" fill="#FF5100"/>
<path fill-rule="evenodd" clip-rule="evenodd" d="M11.7388 90.9035L12.6482 90.2305L13.2666 90.9035L12.5027 91.8675L11.7388 91.4127V90.9035Z" fill="#FF5100"/>
<path fill-rule="evenodd" clip-rule="evenodd" d="M97.9174 128.118L100.882 122.006H109.867L106.884 125.644L103.083 129.828L97.9174 128.118Z" fill="#FF5100"/>
<path fill-rule="evenodd" clip-rule="evenodd" d="M123.109 79.8627L123.4 71.2776L125.074 70.1135L125.528 73.3511L123.109 79.8627Z" fill="#FF5100"/>
<path fill-rule="evenodd" clip-rule="evenodd" d="M21.9243 95.3232L22.47 90.8852L24.1434 89.7393L24.5981 92.9769L21.9243 95.3232Z" fill="#FF5100"/>
<path fill-rule="evenodd" clip-rule="evenodd" d="M136.55 72.6053V66.9849L137.896 64.1838L136.55 72.6053Z" fill="#FF5100"/>
<path fill-rule="evenodd" clip-rule="evenodd" d="M62.686 13.5098L59.5575 16.8384L61.3764 21.0582L67.0877 19.0392L71.2893 17.8933L71.3257 14.0918L65.4507 12.1274L62.686 13.5098Z" fill="#FF5100"/>
<path fill-rule="evenodd" clip-rule="evenodd" d="M59.5573 12.764V10.9451L58.0658 10.9996L57.5565 12.1273L59.5573 12.764Z" fill="#FF5100"/>
<path fill-rule="evenodd" clip-rule="evenodd" d="M23.5616 56.9084V55.0713L22.0701 55.144L21.5608 56.2718L23.5616 56.9084Z" fill="#FF5100"/>
<path fill-rule="evenodd" clip-rule="evenodd" d="M94.3526 14.0921L96.2988 11.4002L98.5906 10.3452L101.119 12.0004L99.0453 16.584L93.4431 18.6029L94.3526 14.0921Z" fill="#FF5100"/>
<path fill-rule="evenodd" clip-rule="evenodd" d="M109.758 29.2068L117.416 32.1898L123.109 39.3198V42.6665L111.686 35.5365L109.758 29.2068Z" fill="#FF5100"/>
<path fill-rule="evenodd" clip-rule="evenodd" d="M18.705 55.999L15.1945 51.9429L11.3203 55.999L10.6837 61.4011L16.2859 62.5106L19.2325 57.1085L18.705 55.999Z" fill="#FF5100"/>
<path fill-rule="evenodd" clip-rule="evenodd" d="M19.2325 51.9428V50.8151L22.5611 48.0686V49.8147L19.2325 51.9428Z" fill="#FF5100"/>
<path fill-rule="evenodd" clip-rule="evenodd" d="M17.832 32.0986V30.9709L21.1606 28.2244V29.9523L17.832 32.0986Z" fill="#FF5100"/>
<path fill-rule="evenodd" clip-rule="evenodd" d="M26.9086 66.3124L28.8548 64.1298L31.2193 63.5659V66.7308L29.0549 67.8767L26.9086 66.3124Z" fill="#FF5100"/>
<path fill-rule="evenodd" clip-rule="evenodd" d="M71.1981 18.0389L73.1443 15.8562L75.5089 15.2742V18.439L73.3626 19.6031L71.1981 18.0389Z" fill="#FF5100"/>
<path fill-rule="evenodd" clip-rule="evenodd" d="M11.9937 42.2664L13.0668 39.1198L11.9937 37.7192L10.6841 38.1012L9.48364 42.0846L11.9937 42.2664Z" fill="#FF5100"/>
<path fill-rule="evenodd" clip-rule="evenodd" d="M5.37282 66.9851L4.40881 67.5126L4.88172 70.2591L5.37282 67.8764V66.9851Z" fill="#FF5100"/>
<path fill-rule="evenodd" clip-rule="evenodd" d="M18.0322 90.1758L18.4324 88.4661L20.9788 88.6298L18.8507 90.576L18.0322 90.1758Z" fill="#FF5100"/>
<path fill-rule="evenodd" clip-rule="evenodd" d="M103.192 95.9781L103.593 94.2683L106.121 94.432L104.011 96.3782L103.192 95.9781Z" fill="#FF5100"/>
</g>
<g style="mix-blend-mode:multiply" opacity="0.79">
<path fill-rule="evenodd" clip-rule="evenodd" d="M49.7898 25.0051L51.154 28.0972L53.955 30.1526L56.4287 29.6978L58.0657 28.461L54.3734 25.6235L52.318 25.0051H49.7898Z" fill="#CE7E9C"/>
<path fill-rule="evenodd" clip-rule="evenodd" d="M58.3933 27.588L58.6843 27.7153L59.4665 28.0973H60.7215L59.8484 27.588L59.1572 27.0242L58.3933 27.588Z" fill="#CE7E9C"/>
<path fill-rule="evenodd" clip-rule="evenodd" d="M66.7416 22.3861L69.0698 21.0947H71.3252L70.7977 21.7313L69.0334 22.859H67.0872L66.7416 22.3861Z" fill="#CE7E9C"/>
<path fill-rule="evenodd" clip-rule="evenodd" d="M78.5643 11.7273V10.5087L79.0372 9.87207L79.5829 10.5087L79.0372 12.0002L78.5643 11.7273Z" fill="#CE7E9C"/>
<path fill-rule="evenodd" clip-rule="evenodd" d="M82.839 20.8037L83.3847 19.6942L84.8216 19.2759V22.1861L82.839 22.8227L82.166 21.4222L82.839 20.8037Z" fill="#CE7E9C"/>
<path fill-rule="evenodd" clip-rule="evenodd" d="M60.7393 108.037L61.2849 106.91L62.7219 106.51V109.402L60.7393 110.056L60.0481 108.656L60.7393 108.037Z" fill="#CE7E9C"/>
<path fill-rule="evenodd" clip-rule="evenodd" d="M56.5017 106.255L57.0474 105.127L58.4843 104.727V107.637L56.5017 108.274L55.8105 106.873L56.5017 106.255Z" fill="#CE7E9C"/>
<path fill-rule="evenodd" clip-rule="evenodd" d="M67.0874 9.34453L70.1795 11.3999L71.671 11.0907L72.0166 9.96295L71.5619 7.05274L68.1787 6.83447L67.0874 8.54422V9.34453Z" fill="#CE7E9C"/>
<path fill-rule="evenodd" clip-rule="evenodd" d="M38.5852 116.913L41.6773 118.968L43.1688 118.659L43.5326 117.532L43.0597 114.603L39.6765 114.403L38.5852 116.095V116.913Z" fill="#CE7E9C"/>
<path fill-rule="evenodd" clip-rule="evenodd" d="M73.3627 10.0175L74.2721 9.34448L74.8905 10.0175L74.1266 10.9997L73.3627 10.5268V10.0175Z" fill="#CE7E9C"/>
<path fill-rule="evenodd" clip-rule="evenodd" d="M15.1947 76.0069V71.8416L22.7067 67.8765H29.9458L28.8545 71.9326L21.6336 78.2077L15.1947 77.8985V76.0069Z" fill="#CE7E9C"/>
<path fill-rule="evenodd" clip-rule="evenodd" d="M13.5394 74.3697L13.8668 70.9866H10.6837L10.1199 74.9881L11.3203 76.0067L13.5394 74.3697Z" fill="#CE7E9C"/>
<path fill-rule="evenodd" clip-rule="evenodd" d="M15.1947 70.4775V67.8765H17.3774L16.9045 68.604L15.1947 70.4775Z" fill="#CE7E9C"/>
<path fill-rule="evenodd" clip-rule="evenodd" d="M30.4915 46.3043L29.4001 51.7245L32.9106 58.1452L35.2206 59.4912L37.6215 49.8147L35.8208 45.3584L31.8556 43.7214L30.4915 46.3043Z" fill="#CE7E9C"/>
<path fill-rule="evenodd" clip-rule="evenodd" d="M29.4 43.7213V39.9016L27.4901 40.1744L25.9805 42.2662L27.6902 44.3397L29.4 43.7213Z" fill="#CE7E9C"/>
<path fill-rule="evenodd" clip-rule="evenodd" d="M29.4 31.0256V25.3689H27.6902L25.9805 27.0241L27.6902 31.0256H29.4Z" fill="#CE7E9C"/>
<path fill-rule="evenodd" clip-rule="evenodd" d="M31.1825 103.181L33.5107 108.856L37.6214 109.711L43.0962 110.384L45.6063 106.782L44.0238 96.2329L41.9685 89.3394L31.1825 91.4311L29.9457 102.253L31.1825 103.181Z" fill="#CE7E9C"/>
<path fill-rule="evenodd" clip-rule="evenodd" d="M50.8083 98.3605V93.9588L56.1921 93.1221L57.138 102.253L51.263 103.181L49.5714 98.8879L50.8083 98.3605Z" fill="#CE7E9C"/>
<path fill-rule="evenodd" clip-rule="evenodd" d="M59.3025 96.778V93.9588L61.376 93.1221L60.7394 97.0509L59.3025 96.778Z" fill="#CE7E9C"/>
<path fill-rule="evenodd" clip-rule="evenodd" d="M89.9504 132.538L91.7329 128.118L105.011 125.553L104.192 128.118L96.2983 133.356L92.4059 134.029L89.9504 132.538Z" fill="#CE7E9C"/>
<path fill-rule="evenodd" clip-rule="evenodd" d="M91.7335 127.208L95.0257 125.553V122.607L92.8976 122.006L91.7335 127.208Z" fill="#CE7E9C"/>
<path fill-rule="evenodd" clip-rule="evenodd" d="M108.649 110.384L112.505 108.201L114.996 109.711L112.614 111.075L108.649 110.384Z" fill="#CE7E9C"/>
<path fill-rule="evenodd" clip-rule="evenodd" d="M125.255 98.1609L127.256 88.5208L135.769 86.4473L133.968 93.1226L129.075 101.562L125.255 98.1609Z" fill="#CE7E9C"/>
<path fill-rule="evenodd" clip-rule="evenodd" d="M125.255 103.181L126.238 101.562L129.53 104.454L127.383 107.583L125.255 103.181Z" fill="#CE7E9C"/>
</g>
<path fill-rule="evenodd" clip-rule="evenodd" d="M31.3096 36.3731L23.6521 38.192L19.214 41.0658L11.0836 45.4311L2.88046 52.7067L0.897827 59.4729C1.32372 56.0731 2.07906 52.7227 3.15323 49.4691L3.7899 50.615L8.00972 47.6865L10.4288 45.2674L13.43 43.303L21.4694 39.0832L23.2883 37.7009L32.3827 33.0627L32.8192 34.7179L31.3096 36.3731Z" fill="#FF2300"/>
<path fill-rule="evenodd" clip-rule="evenodd" d="M17.3586 81.3905L14.0846 83.6277H9.50108L4.04442 81.6815L0.406657 76.2249C0.400667 80.0486 1.05286 83.8449 2.33467 87.4474C2.33467 87.4474 4.99014 82.8456 6.09966 83.0457C7.20918 83.2457 10.8833 84.4098 10.8833 84.4098H14.7031L16.9038 85.8468L17.3586 81.3905Z" fill="#FF2300"/>
<path fill-rule="evenodd" clip-rule="evenodd" d="M100.828 15.2741L102.101 9.3809L101.464 7.4165L103.683 8.58059L102.592 9.59916L101.628 14.3828L102.101 16.8383L100.828 15.2741Z" fill="#FF2300"/>
<path fill-rule="evenodd" clip-rule="evenodd" d="M86.6582 26.1873L78.5642 28.188L78.2004 29.4794L74.981 32.1896V36.0274V37.719L75.6721 37.9372L75.3629 34.1903L75.8358 32.0623L78.5642 29.7159L79.419 28.3517L85.8579 26.642L87.0402 26.9876L86.6582 26.1873Z" fill="#FF2300"/>
<path fill-rule="evenodd" clip-rule="evenodd" d="M129.311 66.1847L131.367 76.7706L135.768 79.0988V84.0643L137.606 85.4467L138.024 86.4471L138.624 83.6642L137.205 84.7737L136.387 83.6642L136.078 79.2989L136.041 78.8623L133.513 77.48L131.221 74.3697L130.039 68.1491L129.875 65.5481L129.311 66.1847Z" fill="#FF2300"/>
<path fill-rule="evenodd" clip-rule="evenodd" d="M92.0061 97.0509L94.7708 98.8698L96.5715 100.671H101.373L103.683 101.562L104.102 101.289L101.628 100.507L100.355 100.252L96.0986 99.6519L94.5344 98.4878L91.7333 96.2324L92.0061 97.0509Z" fill="#FF2300"/>
<path fill-rule="evenodd" clip-rule="evenodd" d="M73.9988 119.951L64.6679 118.55L51.9903 113.676L51.9175 109.711L47.8432 107.583L44.0236 96.2327L46.5518 90.1394V85.956L50.808 83.5914L51.2082 82.8457L53.6273 83.064L50.0804 84.2099L47.1702 86.1379L46.7883 90.3395L45.606 93.2315L45.6606 99.1429L46.3881 102.053L47.7887 106.728L50.5534 108.619L52.063 109.401L52.4996 113.221L56.6648 114.894L63.4674 117.805L67.8691 118.55L74.5626 118.532L73.9988 119.951Z" fill="#FF2300"/>
<path fill-rule="evenodd" clip-rule="evenodd" d="M91.7879 114.458L98.5905 115.04L100.882 114.458L111.268 116.332L112.614 115.859L121.799 112.912L124.018 111.075L124.691 112.039L121.654 113.367L110.486 116.914L108.776 116.404L100.81 115.349L95.4802 115.622L90.8057 114.294L91.7879 114.458Z" fill="#FF2300"/>
<path fill-rule="evenodd" clip-rule="evenodd" d="M52.0632 109.401L51.9177 109.71L52.0632 113.839L52.8817 114.021L52.4998 113.221L52.0632 109.401Z" fill="#FF9F00"/>
<path fill-rule="evenodd" clip-rule="evenodd" d="M22.1606 82.9367L16.5585 81.9363L14.0848 83.6278H11.3201L12.3932 84.3554H14.7032L17.668 86.4107L19.8324 83.6278L22.1606 82.9367Z" fill="#FF9F00"/>
<path fill-rule="evenodd" clip-rule="evenodd" d="M66.578 118.332L68.4333 119.114L70.434 119.424L72.835 118.551L66.578 118.332Z" fill="#FF9F00"/>
<path fill-rule="evenodd" clip-rule="evenodd" d="M100.882 114.458L98.5901 115.458L102.301 115.549L104.611 115.131L100.882 114.458Z" fill="#FF9F00"/>
<path fill-rule="evenodd" clip-rule="evenodd" d="M91.7874 114.458L89.9503 112.712L90.2959 114.458H91.7874Z" fill="#FF9F00"/>
<path style="mix-blend-mode:screen" fill-rule="evenodd" clip-rule="evenodd" d="M79.8011 115.858C80.4741 114.221 83.6935 113.367 88.1316 112.221C92.5697 111.075 88.9683 109.147 88.3498 106.146C88.0406 104.618 89.0774 95.2323 88.168 92.5767C87.2586 89.9211 84.6574 92.9223 83.8571 93.9772C83.0568 95.0322 84.7485 98.3244 83.4935 101.38C82.2384 104.436 79.11 113.094 76.6908 116.186C74.2717 119.278 76.6907 121.17 77.7275 125.007C78.2806 128.368 78.2806 131.796 77.7275 135.157L78.5642 135.048C78.5642 135.048 78.9826 126.08 78.1641 123.407C77.3456 120.733 77.6366 116.131 80.1102 110.784C82.8204 104.981 84.2574 101.071 85.3305 101.38C86.4037 101.689 88.2952 105.018 87.8405 109.383C87.7132 110.602 82.5294 111.748 80.1649 114.84C77.8003 117.932 79.1826 122.115 80.9288 125.535C82.6749 128.954 80.6741 134.629 80.6741 134.629L82.8568 134.229C82.8568 134.229 82.8569 129.245 83.2752 124.789C83.6935 120.333 78.1641 119.896 79.8011 115.858Z" fill="url(#paint19_linear_27_2734)"/>
<path fill-rule="evenodd" clip-rule="evenodd" d="M108.648 86.4472L110.376 85.4468L110.867 86.5199L108.648 86.4472Z" fill="#FFFF00"/>
<path fill-rule="evenodd" clip-rule="evenodd" d="M108.612 70.4771L109.431 67.8761L111.686 66.7302L108.612 70.4771Z" fill="#FFFF00"/>
<path fill-rule="evenodd" clip-rule="evenodd" d="M104.611 64.8569L105.848 62.7652V61.401L104.611 60.9827L104.192 63.5109L104.611 64.8569Z" fill="#FFFF00"/>
<path fill-rule="evenodd" clip-rule="evenodd" d="M87.6226 63.511L87.9682 62.929L89.6779 63.22L88.6593 64.184L87.6226 63.511Z" fill="#FFFF00"/>
<path fill-rule="evenodd" clip-rule="evenodd" d="M97.1537 40.1744L97.9176 42.0843L101.937 42.6663L100.355 39.9016L97.1537 40.1744Z" fill="#FFFF00"/>
<path fill-rule="evenodd" clip-rule="evenodd" d="M75.7994 39.9021L75.6721 37.9377L74.981 36.0278V37.7194L75.7994 39.9021Z" fill="#FF7C00"/>
<path fill-rule="evenodd" clip-rule="evenodd" d="M38.0034 69.6949L34.8021 68.4581L37.1121 53.0885H39.4039L37.6214 50.7604L38.2944 45.3401L39.8222 45.3583L39.2766 60.3641L38.0034 69.6949Z" fill="#FF5C00"/>
<path fill-rule="evenodd" clip-rule="evenodd" d="M51.9176 47.5231L53.6638 47.1048L51.4084 45.9771L49.5713 46.4136L51.9176 47.5231Z" fill="#FF5C00"/>
<path fill-rule="evenodd" clip-rule="evenodd" d="M79.365 40.3931L77.6553 38.1013L86.6587 31.0259L87.2226 31.808L79.365 40.3931Z" fill="#FF5C00"/>
<path fill-rule="evenodd" clip-rule="evenodd" d="M113.942 53.6892L111.959 54.3622L115.961 60.5464L118.943 59.9098L117.216 58.4911L113.942 53.6892Z" fill="#FF5C00"/>
<path fill-rule="evenodd" clip-rule="evenodd" d="M97.6448 85.9561L97.954 86.5199L111.687 88.939L109.831 87.593L97.6448 85.9561Z" fill="#FF5C00"/>
<path fill-rule="evenodd" clip-rule="evenodd" d="M117.416 92.2128L119.071 91.0123L121.326 85.4466L120.599 84.0642L117.416 92.2128Z" fill="#FF5C00"/>
<path fill-rule="evenodd" clip-rule="evenodd" d="M35.2931 22.7137L33.1651 20.0581L32.4739 33.0995L32.9832 37.7195L35.2931 22.7137Z" fill="#FF5C00"/>
<path fill-rule="evenodd" clip-rule="evenodd" d="M37.0575 15.0193L36.5118 12.7639L38.3125 7.58008L40.2406 11.3452L37.0575 15.0193Z" fill="#FF5C00"/>
<path fill-rule="evenodd" clip-rule="evenodd" d="M48.8802 35.6276L51.0083 34.7L59.8663 35.8277L60.7212 37.8466L51.0629 36.3188L48.8802 35.6276Z" fill="#FF5C00"/>
<path fill-rule="evenodd" clip-rule="evenodd" d="M65.4502 46.7412L64.7408 46.0864L68.0148 41.1572L68.415 42.3213L65.4502 46.7412Z" fill="#FF5C00"/>
<path fill-rule="evenodd" clip-rule="evenodd" d="M120.963 103.563L123.163 104.327L121.526 97.342L120.199 97.7422L120.963 103.563Z" fill="#FF5C00"/>
<path fill-rule="evenodd" clip-rule="evenodd" d="M120.089 69.8954L122.545 69.6953L122.254 73.4786L120.326 76.5161L120.089 69.8954Z" fill="#FF5C00"/>
<path fill-rule="evenodd" clip-rule="evenodd" d="M133.04 51.1064L134.804 48.76L137.606 51.7248L133.913 54.3622L133.04 51.1064Z" fill="#FF5C00"/>
<path fill-rule="evenodd" clip-rule="evenodd" d="M59.4664 83.6278L60.0121 81.6634L67.0876 79.1533L66.8329 80.0628L59.4664 83.6278Z" fill="#FF5C00"/>
<path fill-rule="evenodd" clip-rule="evenodd" d="M53.6275 83.0638L54.4278 81.354L51.6085 81.2085L51.2084 82.8455L50.7355 83.6276L50.208 84.1733L50.9719 83.9186L53.6275 83.0638Z" fill="#FF5C00"/>
<path fill-rule="evenodd" clip-rule="evenodd" d="M78.4369 29.8254L78.2004 29.4798L78.5642 28.1884L82.3657 27.3699L79.4191 28.3521L78.4369 29.8254Z" fill="#FF9F00"/>
<path fill-rule="evenodd" clip-rule="evenodd" d="M99.7179 16.6929L100.536 15.0196L101.628 12.7642V14.383L99.7179 16.6929Z" fill="#FF9F00"/>
<path fill-rule="evenodd" clip-rule="evenodd" d="M23.6706 38.1011H22.8157L16.195 41.8844L15.7766 42.6665L19.5053 41.1568L23.6706 38.1011Z" fill="#FF9F00"/>
<path fill-rule="evenodd" clip-rule="evenodd" d="M2.88038 52.6888L4.95391 49.8331L3.91715 50.397L3.24416 49.6694L2.2074 52.8525L2.26196 54.8351L2.88038 52.6888Z" fill="#FF9F00"/>
<path fill-rule="evenodd" clip-rule="evenodd" d="M96.0984 99.6521L96.5713 100.671H101.373L100.355 100.252L96.0984 99.6521Z" fill="#FF9F00"/>
<path fill-rule="evenodd" clip-rule="evenodd" d="M131.221 74.3699L131.021 74.9883L131.366 76.7708L133.331 77.8076L134.477 78.0076L133.513 77.4802L131.221 74.3699Z" fill="#FF9F00"/>
<path fill-rule="evenodd" clip-rule="evenodd" d="M14.6488 98.6335L17.1043 99.2883V96.2508L14.9398 95.0867L14.6488 98.6335Z" fill="#FF9F00"/>
<path fill-rule="evenodd" clip-rule="evenodd" d="M44.0236 96.2328L45.6606 99.1431L45.606 93.2317L44.0236 96.2328Z" fill="#FF9F00"/>
<path fill-rule="evenodd" clip-rule="evenodd" d="M129.311 66.1848L129.638 67.8764L129.875 65.5482L129.074 65.239L128.674 65.7301L129.311 66.1848Z" fill="#FF9F00"/>
<path fill-rule="evenodd" clip-rule="evenodd" d="M33.1651 20.0578L31.6191 18.348L29.6183 17.0202L29.4 13.0187L30.4004 12.3093L29.6729 15.0195L30.0912 16.7474L31.2735 17.8933L33.5653 19.2756L33.1651 20.0578Z" fill="#FF2300"/>
<path fill-rule="evenodd" clip-rule="evenodd" d="M76.6909 129.828L67.5238 132.938L54.3732 134.721L49.2985 135.012L46.552 135.175H45.3152L46.1882 135.648L54.6824 135.175L64.268 134.029L67.0327 133.684L70.0702 134.029L76.6909 130.883V129.828Z" fill="#FF2300"/>
<path fill-rule="evenodd" clip-rule="evenodd" d="M117.416 103.89L117.961 106.51V111.075L120.981 111.421L123.291 110.056L122.981 109.62L121.872 110.602L120.199 111.075L118.398 110.82L118.07 109.765V105.946L118.107 104.054L117.416 103.89Z" fill="#FF2300"/>
<path fill-rule="evenodd" clip-rule="evenodd" d="M134.022 47.9231V44.3945L128.547 37.9738L125.928 36.355L125.255 34.4816L125.837 29.8252L126.601 28.7703L127.201 29.5888L125.728 31.9351V34.6998L126.565 36.355L129.184 38.1011L134.441 44.3945V45.9041V48.3596L134.022 47.9231Z" fill="#FF2300"/>
<path fill-rule="evenodd" clip-rule="evenodd" d="M31.3097 36.3733L24.598 42.2665L24.3979 45.3404L18.5957 46.3044L11.7385 48.0687L10.1197 48.5416L7.30042 48.7235L8.04616 48.0687L10.1743 48.3415L11.8112 47.7777L19.5233 45.9224L23.6704 44.4491L24.0523 43.5215L24.2888 42.2665L29.7273 37.4646L29.8 36.7189L31.3097 36.3733Z" fill="#FF2300"/>
<path fill-rule="evenodd" clip-rule="evenodd" d="M17.1044 99.2886L20.3238 112.839L21.5606 114.458L21.9244 117.077L23.2522 121.843L21.7062 120.406L21.9426 118.46L21.6152 116.513L20.8331 114.058L19.9418 112.621L17.3772 104.381L17.6864 102.835L16.6315 99.7433L17.1044 99.2886Z" fill="#FF2300"/>
<path fill-rule="evenodd" clip-rule="evenodd" d="M44.0241 24.9504L48.8805 21.058V16.1834L51.6088 11.8545L58.5569 6.23411L58.3932 4.66987L57.0109 1.1958L55.7013 1.45044L57.793 4.19696L58.1386 6.03403L51.2996 12L48.2257 16.5836L48.4258 18.5116L47.9529 21.058L44.9153 23.8045L43.0419 23.9682L44.0241 24.9504Z" fill="#FF2300"/>
<path fill-rule="evenodd" clip-rule="evenodd" d="M48.8802 16.1836L49.0803 15.0195L51.3357 11.8546L52.1724 11.3999L48.8802 16.1836Z" fill="#FF9F00"/>
<path fill-rule="evenodd" clip-rule="evenodd" d="M47.989 20.876L48.8803 21.0579L48.4255 18.5115L47.989 20.876Z" fill="#FF9F00"/>
<path fill-rule="evenodd" clip-rule="evenodd" d="M43.7149 25.2237L44.206 24.9508L44.9153 23.8049L43.0419 23.9686L43.7149 25.2237Z" fill="#FF9F00"/>
<path fill-rule="evenodd" clip-rule="evenodd" d="M23.6703 44.4493L24.3978 45.3405L24.5797 42.5576L24.798 42.0847L24.5252 42.0483L24.2887 42.2666L23.6703 44.4493Z" fill="#FF9F00"/>
<path fill-rule="evenodd" clip-rule="evenodd" d="M33.5652 19.276L34.2564 21.4223L33.1651 20.0581L31.619 18.3484H32.0374L33.5652 19.276Z" fill="#FF9F00"/>
<path style="mix-blend-mode:multiply" opacity="0.5" fill-rule="evenodd" clip-rule="evenodd" d="M138.624 83.6642C139.624 78.7269 140.082 73.6951 139.988 68.6584C139.928 64.9991 139.582 61.3502 138.951 57.7451L134.531 57.1449C134.35 56.1627 134.131 55.1987 133.895 54.2529V54.3802L137.533 51.7428C135.415 43.8074 131.891 36.3161 127.129 29.6252L126.528 28.8067C125.255 26.9878 123.927 25.3508 122.49 23.732H116.725L116.415 23.4046L116.743 23.732L117.361 19.8578C112.85 15.4379 109.176 11.6728 103.61 8.61709L102.81 8.19873L101.846 7.68944L101.391 7.45298C100.773 7.14377 100.173 6.83458 99.5724 6.56174C89.9472 2.04245 79.41 -0.19819 68.7788 0.0137503C64.811 0.0790674 60.8559 0.480667 56.956 1.21422L55.6465 1.48704C50.8826 2.46365 46.2364 3.9453 41.7866 5.90692L40.6407 11.1272L40.1313 11.3818L38.2033 7.61667C35.4716 9.02959 32.8293 10.6089 30.2912 12.3458L30.0548 12.5095L29.7819 12.7096L29.2907 13.0552C16.772 22.0126 7.54887 34.8407 3.04427 49.5601C1.97011 52.8138 1.21477 56.1642 0.788873 59.564C0.215016 63.4291 -0.0465234 67.3342 0.00676671 71.2412C0.00676671 72.951 0.134151 74.6426 0.29785 76.2977C0.29186 80.1215 0.944049 83.9178 2.22586 87.5203C3.63968 93.0195 5.72908 98.3225 8.44641 103.308H12.8663L9.99242 106.037C13.2047 111.375 17.1065 116.268 21.5969 120.588L22.2336 121.17L22.9975 121.897L23.143 122.025C29.8223 128.054 37.6044 132.736 46.0609 135.812C54.0943 138.731 62.5975 140.143 71.1433 139.977L76.5999 135.43L77.6367 135.321H77.8005H78.4006C79.11 135.23 79.8012 135.139 80.5106 135.011H80.8198L81.4745 134.902L82.6933 134.666L83.4207 134.52L85.076 135.939L85.8399 138.322C101.417 134.677 115.273 125.797 125.091 113.166L124.528 112.366L123.836 111.402L123.127 110.384L122.927 110.111L122.527 109.529C122.67 109.361 122.804 109.185 122.927 109.001L127.438 109.929C132.293 102.901 135.813 95.0399 137.824 86.7381L137.933 86.247C138.06 85.7196 138.187 85.1921 138.297 84.6464L138.624 83.6642Z" fill="url(#paint20_radial_27_2734)"/>
<path style="mix-blend-mode:multiply" fill-rule="evenodd" clip-rule="evenodd" d="M138.624 83.6642C139.624 78.7269 140.082 73.6951 139.988 68.6584C139.928 64.9991 139.582 61.3502 138.951 57.7451L134.531 57.1449C134.35 56.1627 134.131 55.1987 133.895 54.2529V54.3802L137.533 51.7428C135.415 43.8074 131.891 36.3161 127.129 29.6252L126.528 28.8067C125.255 26.9878 123.927 25.3508 122.49 23.732H116.725L116.415 23.4046L116.743 23.732L118.798 19.8578C114.272 15.4356 109.162 11.6536 103.61 8.61709L102.81 8.19873L101.846 7.68944L101.391 7.45298C100.773 7.14377 100.173 6.83458 99.5724 6.56174C89.9472 2.04245 79.41 -0.19819 68.7788 0.0137503C64.811 0.0790674 60.8559 0.480667 56.956 1.21422L55.6465 1.48704C50.8826 2.46365 46.2364 3.9453 41.7866 5.90692L40.6407 11.1272L40.1313 11.3818L38.2033 7.61667C35.4716 9.02959 32.8293 10.6089 30.2912 12.3458L30.0548 12.5095L29.7819 12.7096L29.2907 13.0552C16.772 22.0126 7.54887 34.8407 3.04427 49.5601C1.97011 52.8138 1.21477 56.1642 0.788873 59.564C0.215016 63.4291 -0.0465234 67.3342 0.00676671 71.2412C0.00676671 72.951 0.15234 74.6425 0.29785 76.3341C0.29186 80.1579 0.944049 83.9541 2.22586 87.5566C3.63337 93.061 5.71662 98.3701 8.42821 103.363H12.8481L9.97421 106.091C13.1865 111.43 17.0883 116.322 21.5787 120.642L22.2154 121.224L22.9793 121.952L23.1248 122.079C29.8041 128.109 37.5862 132.791 46.0427 135.866C54.0761 138.786 62.5792 140.198 71.1251 140.031L76.5817 135.484L77.6185 135.375H77.7822H78.3825C79.0919 135.284 79.783 135.193 80.4924 135.066H80.8016L81.4564 134.957L82.6751 134.72L83.4025 134.575L85.0578 135.994L85.8217 138.376C101.399 134.731 115.255 125.852 125.073 113.221L124.509 112.421L123.818 111.457L123 110.274L122.8 110.002L122.509 109.583C122.652 109.415 122.786 109.239 122.909 109.056L127.42 109.983C132.274 102.955 135.795 95.0944 137.805 86.7927L137.915 86.3016C138.042 85.7741 138.169 85.2466 138.278 84.701L138.624 83.6642ZM133.167 51.4154V51.1062V51.4154ZM133.167 51.1244L133.276 51.4881L133.167 51.1244ZM116.106 22.9135L116.324 23.1136L116.106 22.9135Z" fill="url(#paint21_radial_27_2734)"/>
<defs>
<radialGradient id="paint0_radial_27_2734" cx="0" cy="0" r="1" gradientUnits="userSpaceOnUse" gradientTransform="translate(81.646 25.3063) rotate(-1.14576) scale(91.9448 102.974)">
<stop offset="0.03" stop-color="#FFDB00"/>
<stop offset="0.35" stop-color="#FFB600"/>
<stop offset="0.44" stop-color="#FFAE00"/>
<stop offset="0.59" stop-color="#FF9800"/>
<stop offset="0.76" stop-color="#FF7500"/>
<stop offset="0.89" stop-color="#FF5600"/>
<stop offset="1" stop-color="#EC43AC"/>
</radialGradient>
<linearGradient id="paint1_linear_27_2734" x1="35.2205" y1="55.5806" x2="129.057" y2="55.5806" gradientUnits="userSpaceOnUse">
<stop offset="0.01"/>
<stop offset="0.23" stop-color="#3E2D02"/>
<stop offset="0.61" stop-color="#A57706"/>
<stop offset="0.87" stop-color="#E6A608"/>
<stop offset="0.99" stop-color="#FFB809"/>
</linearGradient>
<linearGradient id="paint2_linear_27_2734" x1="45.5877" y1="59.1276" x2="109.849" y2="59.1276" gradientUnits="userSpaceOnUse">
<stop offset="0.01"/>
<stop offset="0.23" stop-color="#3E2D02"/>
<stop offset="0.61" stop-color="#A57706"/>
<stop offset="0.87" stop-color="#E6A608"/>
<stop offset="0.99" stop-color="#FFB809"/>
</linearGradient>
<linearGradient id="paint3_linear_27_2734" x1="50.7904" y1="59.1275" x2="97.1538" y2="59.1275" gradientUnits="userSpaceOnUse">
<stop stop-color="#FFE9B6"/>
<stop offset="0.11" stop-color="#FFE2B5"/>
<stop offset="0.26" stop-color="#FFD0B4"/>
<stop offset="0.44" stop-color="#FFB2B1"/>
<stop offset="0.64" stop-color="#FF89AD"/>
<stop offset="0.85" stop-color="#FF54A8"/>
<stop offset="0.99" stop-color="#FF2AA4"/>
</linearGradient>
<radialGradient id="paint4_radial_27_2734" cx="0" cy="0" r="1" gradientUnits="userSpaceOnUse" gradientTransform="translate(118.962 18.705) scale(0.127291 0.142609)">
<stop offset="0.03" stop-color="#D14315"/>
<stop offset="0.29" stop-color="#B03D20"/>
<stop offset="0.89" stop-color="#340019"/>
<stop offset="1" stop-color="#89217F"/>
</radialGradient>
<radialGradient id="paint5_radial_27_2734" cx="0" cy="0" r="1" gradientUnits="userSpaceOnUse" gradientTransform="translate(137.624 50.6275) scale(0.145511 0.162965)">
<stop offset="0.03" stop-color="#D14315"/>
<stop offset="0.29" stop-color="#B03D20"/>
<stop offset="0.89" stop-color="#340019"/>
<stop offset="1" stop-color="#89217F"/>
</radialGradient>
<radialGradient id="paint6_radial_27_2734" cx="0" cy="0" r="1" gradientUnits="userSpaceOnUse" gradientTransform="translate(86.7314 31.2619) scale(108.933 108.933)">
<stop offset="0.03" stop-color="#BD3115"/>
<stop offset="0.29" stop-color="#9C3620"/>
<stop offset="0.89" stop-color="#340019"/>
<stop offset="1" stop-color="#89217F"/>
</radialGradient>
<radialGradient id="paint7_radial_27_2734" cx="0" cy="0" r="1" gradientUnits="userSpaceOnUse" gradientTransform="translate(86.731 31.2625) scale(108.933 108.933)">
<stop offset="0.03" stop-color="#BD3115"/>
<stop offset="0.29" stop-color="#9C3620"/>
<stop offset="0.89" stop-color="#340019"/>
<stop offset="1" stop-color="#89217F"/>
</radialGradient>
<radialGradient id="paint8_radial_27_2734" cx="0" cy="0" r="1" gradientUnits="userSpaceOnUse" gradientTransform="translate(86.731 31.2624) scale(108.933 108.933)">
<stop offset="0.03" stop-color="#BD3115"/>
<stop offset="0.29" stop-color="#9C3620"/>
<stop offset="0.89" stop-color="#340019"/>
<stop offset="1" stop-color="#89217F"/>
</radialGradient>
<radialGradient id="paint9_radial_27_2734" cx="0" cy="0" r="1" gradientUnits="userSpaceOnUse" gradientTransform="translate(86.7311 31.2622) scale(108.933 108.933)">
<stop offset="0.03" stop-color="#BD3115"/>
<stop offset="0.29" stop-color="#9C3620"/>
<stop offset="0.89" stop-color="#340019"/>
<stop offset="1" stop-color="#89217F"/>
</radialGradient>
<radialGradient id="paint10_radial_27_2734" cx="0" cy="0" r="1" gradientUnits="userSpaceOnUse" gradientTransform="translate(86.7314 31.262) scale(108.933 108.933)">
<stop offset="0.03" stop-color="#BD3115"/>
<stop offset="0.29" stop-color="#9C3620"/>
<stop offset="0.89" stop-color="#340019"/>
<stop offset="1" stop-color="#89217F"/>
</radialGradient>
<radialGradient id="paint11_radial_27_2734" cx="0" cy="0" r="1" gradientUnits="userSpaceOnUse" gradientTransform="translate(86.731 31.262) scale(108.933 108.933)">
<stop offset="0.03" stop-color="#BD3115"/>
<stop offset="0.29" stop-color="#9C3620"/>
<stop offset="0.89" stop-color="#340019"/>
<stop offset="1" stop-color="#89217F"/>
</radialGradient>
<radialGradient id="paint12_radial_27_2734" cx="0" cy="0" r="1" gradientUnits="userSpaceOnUse" gradientTransform="translate(86.7491 31.262) scale(108.933 108.933)">
<stop offset="0.03" stop-color="#BD3115"/>
<stop offset="0.29" stop-color="#9C3620"/>
<stop offset="0.89" stop-color="#340019"/>
<stop offset="1" stop-color="#89217F"/>
</radialGradient>
<radialGradient id="paint13_radial_27_2734" cx="0" cy="0" r="1" gradientUnits="userSpaceOnUse" gradientTransform="translate(86.7491 31.2623) scale(108.933 108.933)">
<stop offset="0.03" stop-color="#BD3115"/>
<stop offset="0.29" stop-color="#9C3620"/>
<stop offset="0.89" stop-color="#340019"/>
<stop offset="1" stop-color="#89217F"/>
</radialGradient>
<radialGradient id="paint14_radial_27_2734" cx="0" cy="0" r="1" gradientUnits="userSpaceOnUse" gradientTransform="translate(86.7495 31.2622) scale(108.933 108.933)">
<stop offset="0.03" stop-color="#BD3115"/>
<stop offset="0.29" stop-color="#9C3620"/>
<stop offset="0.89" stop-color="#340019"/>
<stop offset="1" stop-color="#89217F"/>
</radialGradient>
<radialGradient id="paint15_radial_27_2734" cx="0" cy="0" r="1" gradientUnits="userSpaceOnUse" gradientTransform="translate(86.7314 31.262) scale(108.933 108.933)">
<stop offset="0.03" stop-color="#BD3115"/>
<stop offset="0.29" stop-color="#9C3620"/>
<stop offset="0.89" stop-color="#340019"/>
<stop offset="1" stop-color="#89217F"/>
</radialGradient>
<radialGradient id="paint16_radial_27_2734" cx="0" cy="0" r="1" gradientUnits="userSpaceOnUse" gradientTransform="translate(86.7493 31.2623) scale(108.933 108.933)">
<stop offset="0.03" stop-color="#BD3115"/>
<stop offset="0.29" stop-color="#9C3620"/>
<stop offset="0.89" stop-color="#340019"/>
<stop offset="1" stop-color="#89217F"/>
</radialGradient>
<radialGradient id="paint17_radial_27_2734" cx="0" cy="0" r="1" gradientUnits="userSpaceOnUse" gradientTransform="translate(86.731 31.2625) scale(108.933 108.933)">
<stop offset="0.03" stop-color="#BD3115"/>
<stop offset="0.29" stop-color="#9C3620"/>
<stop offset="0.89" stop-color="#340019"/>
<stop offset="1" stop-color="#89217F"/>
</radialGradient>
<radialGradient id="paint18_radial_27_2734" cx="0" cy="0" r="1" gradientUnits="userSpaceOnUse" gradientTransform="translate(86.7313 31.2625) scale(108.933 108.933)">
<stop offset="0.03" stop-color="#BD3115"/>
<stop offset="0.29" stop-color="#9C3620"/>
<stop offset="0.89" stop-color="#340019"/>
<stop offset="1" stop-color="#89217F"/>
</radialGradient>
<linearGradient id="paint19_linear_27_2734" x1="82.9842" y1="135.175" x2="82.9842" y2="91.5763" gradientUnits="userSpaceOnUse">
<stop offset="0.01"/>
<stop offset="0.23" stop-color="#3E2D02"/>
<stop offset="0.61" stop-color="#A57706"/>
<stop offset="0.87" stop-color="#E6A608"/>
<stop offset="0.99" stop-color="#FFB809"/>
</linearGradient>
<radialGradient id="paint20_radial_27_2734" cx="0" cy="0" r="1" gradientUnits="userSpaceOnUse" gradientTransform="translate(79.8922 37.5009) scale(104.131 104.131)">
<stop offset="0.68" stop-color="white"/>
<stop offset="0.69" stop-color="#EBE0F0"/>
<stop offset="0.71" stop-color="#CCB0D8"/>
<stop offset="0.73" stop-color="#B185C4"/>
<stop offset="0.75" stop-color="#9A61B2"/>
<stop offset="0.77" stop-color="#8744A4"/>
<stop offset="0.79" stop-color="#782D99"/>
<stop offset="0.81" stop-color="#6E1D91"/>
<stop offset="0.84" stop-color="#68148C"/>
<stop offset="0.88" stop-color="#66118B"/>
<stop offset="1" stop-color="white"/>
</radialGradient>
<radialGradient id="paint21_radial_27_2734" cx="0" cy="0" r="1" gradientUnits="userSpaceOnUse" gradientTransform="translate(84.5849 34.9181) scale(155.46 155.46)">
<stop offset="0.39" stop-color="white"/>
<stop offset="0.4" stop-color="#E5D7EB"/>
<stop offset="0.42" stop-color="#CBAED7"/>
<stop offset="0.43" stop-color="#B388C5"/>
<stop offset="0.45" stop-color="#9E68B5"/>
<stop offset="0.47" stop-color="#8C4CA8"/>
<stop offset="0.49" stop-color="#7E369D"/>
<stop offset="0.52" stop-color="#732595"/>
<stop offset="0.55" stop-color="#6C1A8F"/>
<stop offset="0.6" stop-color="#67138C"/>
<stop offset="0.72" stop-color="#66118B"/>
<stop offset="1" stop-color="white"/>
</radialGradient>
</defs>
</svg>
